%TF.GenerationSoftware,KiCad,Pcbnew,(5.1.10)-1*%
%TF.CreationDate,2021-07-03T17:53:54+02:00*%
%TF.ProjectId,LoRaProMini,4c6f5261-5072-46f4-9d69-6e692e6b6963,2.1*%
%TF.SameCoordinates,Original*%
%TF.FileFunction,Paste,Top*%
%TF.FilePolarity,Positive*%
%FSLAX46Y46*%
G04 Gerber Fmt 4.6, Leading zero omitted, Abs format (unit mm)*
G04 Created by KiCad (PCBNEW (5.1.10)-1) date 2021-07-03 17:53:54*
%MOMM*%
%LPD*%
G01*
G04 APERTURE LIST*
%ADD10R,6.000000X2.500000*%
%ADD11R,4.700000X1.000000*%
%ADD12R,2.200000X1.050000*%
%ADD13R,1.000000X2.000000*%
%ADD14R,1.900000X0.800000*%
G04 APERTURE END LIST*
D10*
%TO.C,AE1*%
X103440000Y-93692000D03*
X103440000Y-87692000D03*
D11*
X104649000Y-90690000D03*
D12*
X103440000Y-89092000D03*
X103440000Y-92292000D03*
%TD*%
D13*
%TO.C,U2*%
X127399000Y-98690000D03*
X125399000Y-98690000D03*
X123399000Y-98690000D03*
X121399000Y-98690000D03*
X119399000Y-98690000D03*
X117399000Y-98690000D03*
X115399000Y-98690000D03*
X113399000Y-98690000D03*
X113399000Y-82690000D03*
X115399000Y-82690000D03*
X117399000Y-82690000D03*
X119399000Y-82690000D03*
X121399000Y-82690000D03*
X123399000Y-82690000D03*
X125399000Y-82690000D03*
X127399000Y-82690000D03*
%TD*%
%TO.C,C1*%
G36*
G01*
X131049000Y-99562833D02*
X130099000Y-99562833D01*
G75*
G02*
X129849000Y-99312833I0J250000D01*
G01*
X129849000Y-98637833D01*
G75*
G02*
X130099000Y-98387833I250000J0D01*
G01*
X131049000Y-98387833D01*
G75*
G02*
X131299000Y-98637833I0J-250000D01*
G01*
X131299000Y-99312833D01*
G75*
G02*
X131049000Y-99562833I-250000J0D01*
G01*
G37*
G36*
G01*
X131049000Y-101637833D02*
X130099000Y-101637833D01*
G75*
G02*
X129849000Y-101387833I0J250000D01*
G01*
X129849000Y-100712833D01*
G75*
G02*
X130099000Y-100462833I250000J0D01*
G01*
X131049000Y-100462833D01*
G75*
G02*
X131299000Y-100712833I0J-250000D01*
G01*
X131299000Y-101387833D01*
G75*
G02*
X131049000Y-101637833I-250000J0D01*
G01*
G37*
%TD*%
%TO.C,C2*%
G36*
G01*
X182580000Y-101665000D02*
X182580000Y-100715000D01*
G75*
G02*
X182830000Y-100465000I250000J0D01*
G01*
X183505000Y-100465000D01*
G75*
G02*
X183755000Y-100715000I0J-250000D01*
G01*
X183755000Y-101665000D01*
G75*
G02*
X183505000Y-101915000I-250000J0D01*
G01*
X182830000Y-101915000D01*
G75*
G02*
X182580000Y-101665000I0J250000D01*
G01*
G37*
G36*
G01*
X180505000Y-101665000D02*
X180505000Y-100715000D01*
G75*
G02*
X180755000Y-100465000I250000J0D01*
G01*
X181430000Y-100465000D01*
G75*
G02*
X181680000Y-100715000I0J-250000D01*
G01*
X181680000Y-101665000D01*
G75*
G02*
X181430000Y-101915000I-250000J0D01*
G01*
X180755000Y-101915000D01*
G75*
G02*
X180505000Y-101665000I0J250000D01*
G01*
G37*
%TD*%
%TO.C,C5*%
G36*
G01*
X170265000Y-80364999D02*
X170265000Y-82415001D01*
G75*
G02*
X170015001Y-82665000I-249999J0D01*
G01*
X168264999Y-82665000D01*
G75*
G02*
X168015000Y-82415001I0J249999D01*
G01*
X168015000Y-80364999D01*
G75*
G02*
X168264999Y-80115000I249999J0D01*
G01*
X170015001Y-80115000D01*
G75*
G02*
X170265000Y-80364999I0J-249999D01*
G01*
G37*
G36*
G01*
X176665000Y-80364999D02*
X176665000Y-82415001D01*
G75*
G02*
X176415001Y-82665000I-249999J0D01*
G01*
X174664999Y-82665000D01*
G75*
G02*
X174415000Y-82415001I0J249999D01*
G01*
X174415000Y-80364999D01*
G75*
G02*
X174664999Y-80115000I249999J0D01*
G01*
X176415001Y-80115000D01*
G75*
G02*
X176665000Y-80364999I0J-249999D01*
G01*
G37*
%TD*%
%TO.C,R5*%
G36*
G01*
X179940000Y-79840001D02*
X179940000Y-78939999D01*
G75*
G02*
X180189999Y-78690000I249999J0D01*
G01*
X180890001Y-78690000D01*
G75*
G02*
X181140000Y-78939999I0J-249999D01*
G01*
X181140000Y-79840001D01*
G75*
G02*
X180890001Y-80090000I-249999J0D01*
G01*
X180189999Y-80090000D01*
G75*
G02*
X179940000Y-79840001I0J249999D01*
G01*
G37*
G36*
G01*
X177940000Y-79840001D02*
X177940000Y-78939999D01*
G75*
G02*
X178189999Y-78690000I249999J0D01*
G01*
X178890001Y-78690000D01*
G75*
G02*
X179140000Y-78939999I0J-249999D01*
G01*
X179140000Y-79840001D01*
G75*
G02*
X178890001Y-80090000I-249999J0D01*
G01*
X178189999Y-80090000D01*
G75*
G02*
X177940000Y-79840001I0J249999D01*
G01*
G37*
%TD*%
%TO.C,R4*%
G36*
G01*
X179940000Y-81840001D02*
X179940000Y-80939999D01*
G75*
G02*
X180189999Y-80690000I249999J0D01*
G01*
X180890001Y-80690000D01*
G75*
G02*
X181140000Y-80939999I0J-249999D01*
G01*
X181140000Y-81840001D01*
G75*
G02*
X180890001Y-82090000I-249999J0D01*
G01*
X180189999Y-82090000D01*
G75*
G02*
X179940000Y-81840001I0J249999D01*
G01*
G37*
G36*
G01*
X177940000Y-81840001D02*
X177940000Y-80939999D01*
G75*
G02*
X178189999Y-80690000I249999J0D01*
G01*
X178890001Y-80690000D01*
G75*
G02*
X179140000Y-80939999I0J-249999D01*
G01*
X179140000Y-81840001D01*
G75*
G02*
X178890001Y-82090000I-249999J0D01*
G01*
X178189999Y-82090000D01*
G75*
G02*
X177940000Y-81840001I0J249999D01*
G01*
G37*
%TD*%
%TO.C,R3*%
G36*
G01*
X179140000Y-82939999D02*
X179140000Y-83840001D01*
G75*
G02*
X178890001Y-84090000I-249999J0D01*
G01*
X178189999Y-84090000D01*
G75*
G02*
X177940000Y-83840001I0J249999D01*
G01*
X177940000Y-82939999D01*
G75*
G02*
X178189999Y-82690000I249999J0D01*
G01*
X178890001Y-82690000D01*
G75*
G02*
X179140000Y-82939999I0J-249999D01*
G01*
G37*
G36*
G01*
X181140000Y-82939999D02*
X181140000Y-83840001D01*
G75*
G02*
X180890001Y-84090000I-249999J0D01*
G01*
X180189999Y-84090000D01*
G75*
G02*
X179940000Y-83840001I0J249999D01*
G01*
X179940000Y-82939999D01*
G75*
G02*
X180189999Y-82690000I249999J0D01*
G01*
X180890001Y-82690000D01*
G75*
G02*
X181140000Y-82939999I0J-249999D01*
G01*
G37*
%TD*%
%TO.C,R2*%
G36*
G01*
X170730000Y-96739999D02*
X170730000Y-97640001D01*
G75*
G02*
X170480001Y-97890000I-249999J0D01*
G01*
X169779999Y-97890000D01*
G75*
G02*
X169530000Y-97640001I0J249999D01*
G01*
X169530000Y-96739999D01*
G75*
G02*
X169779999Y-96490000I249999J0D01*
G01*
X170480001Y-96490000D01*
G75*
G02*
X170730000Y-96739999I0J-249999D01*
G01*
G37*
G36*
G01*
X172730000Y-96739600D02*
X172730000Y-97640400D01*
G75*
G02*
X172480400Y-97890000I-249600J0D01*
G01*
X171779600Y-97890000D01*
G75*
G02*
X171530000Y-97640400I0J249600D01*
G01*
X171530000Y-96739600D01*
G75*
G02*
X171779600Y-96490000I249600J0D01*
G01*
X172480400Y-96490000D01*
G75*
G02*
X172730000Y-96739600I0J-249600D01*
G01*
G37*
%TD*%
%TO.C,R1*%
G36*
G01*
X171530000Y-99640001D02*
X171530000Y-98739999D01*
G75*
G02*
X171779999Y-98490000I249999J0D01*
G01*
X172480001Y-98490000D01*
G75*
G02*
X172730000Y-98739999I0J-249999D01*
G01*
X172730000Y-99640001D01*
G75*
G02*
X172480001Y-99890000I-249999J0D01*
G01*
X171779999Y-99890000D01*
G75*
G02*
X171530000Y-99640001I0J249999D01*
G01*
G37*
G36*
G01*
X169530000Y-99640001D02*
X169530000Y-98739999D01*
G75*
G02*
X169779999Y-98490000I249999J0D01*
G01*
X170480001Y-98490000D01*
G75*
G02*
X170730000Y-98739999I0J-249999D01*
G01*
X170730000Y-99640001D01*
G75*
G02*
X170480001Y-99890000I-249999J0D01*
G01*
X169779999Y-99890000D01*
G75*
G02*
X169530000Y-99640001I0J249999D01*
G01*
G37*
%TD*%
%TO.C,C4*%
G36*
G01*
X170680000Y-100715000D02*
X170680000Y-101665000D01*
G75*
G02*
X170430000Y-101915000I-250000J0D01*
G01*
X169755000Y-101915000D01*
G75*
G02*
X169505000Y-101665000I0J250000D01*
G01*
X169505000Y-100715000D01*
G75*
G02*
X169755000Y-100465000I250000J0D01*
G01*
X170430000Y-100465000D01*
G75*
G02*
X170680000Y-100715000I0J-250000D01*
G01*
G37*
G36*
G01*
X172755000Y-100715000D02*
X172755000Y-101665000D01*
G75*
G02*
X172505000Y-101915000I-250000J0D01*
G01*
X171830000Y-101915000D01*
G75*
G02*
X171580000Y-101665000I0J250000D01*
G01*
X171580000Y-100715000D01*
G75*
G02*
X171830000Y-100465000I250000J0D01*
G01*
X172505000Y-100465000D01*
G75*
G02*
X172755000Y-100715000I0J-250000D01*
G01*
G37*
%TD*%
D14*
%TO.C,U1*%
X181430000Y-98190000D03*
X178430000Y-99140000D03*
X178430000Y-97240000D03*
%TD*%
%TO.C,C3*%
G36*
G01*
X176180000Y-100715000D02*
X176180000Y-101665000D01*
G75*
G02*
X175930000Y-101915000I-250000J0D01*
G01*
X175255000Y-101915000D01*
G75*
G02*
X175005000Y-101665000I0J250000D01*
G01*
X175005000Y-100715000D01*
G75*
G02*
X175255000Y-100465000I250000J0D01*
G01*
X175930000Y-100465000D01*
G75*
G02*
X176180000Y-100715000I0J-250000D01*
G01*
G37*
G36*
G01*
X178255000Y-100715000D02*
X178255000Y-101665000D01*
G75*
G02*
X178005000Y-101915000I-250000J0D01*
G01*
X177330000Y-101915000D01*
G75*
G02*
X177080000Y-101665000I0J250000D01*
G01*
X177080000Y-100715000D01*
G75*
G02*
X177330000Y-100465000I250000J0D01*
G01*
X178005000Y-100465000D01*
G75*
G02*
X178255000Y-100715000I0J-250000D01*
G01*
G37*
%TD*%
M02*
