%TF.GenerationSoftware,KiCad,Pcbnew,(5.1.10)-1*%
%TF.CreationDate,2021-06-05T23:03:48+02:00*%
%TF.ProjectId,LoRaProMini,4c6f5261-5072-46f4-9d69-6e692e6b6963,2.0*%
%TF.SameCoordinates,Original*%
%TF.FileFunction,Paste,Top*%
%TF.FilePolarity,Positive*%
%FSLAX46Y46*%
G04 Gerber Fmt 4.6, Leading zero omitted, Abs format (unit mm)*
G04 Created by KiCad (PCBNEW (5.1.10)-1) date 2021-06-05 23:03:48*
%MOMM*%
%LPD*%
G01*
G04 APERTURE LIST*
%ADD10R,1.000000X2.000000*%
%ADD11R,1.900000X0.800000*%
%ADD12R,6.000000X2.500000*%
%ADD13R,4.700000X1.000000*%
%ADD14R,2.200000X1.050000*%
G04 APERTURE END LIST*
D10*
%TO.C,U2*%
X127399000Y-98690000D03*
X125399000Y-98690000D03*
X123399000Y-98690000D03*
X121399000Y-98690000D03*
X119399000Y-98690000D03*
X117399000Y-98690000D03*
X115399000Y-98690000D03*
X113399000Y-98690000D03*
X113399000Y-82690000D03*
X115399000Y-82690000D03*
X117399000Y-82690000D03*
X119399000Y-82690000D03*
X121399000Y-82690000D03*
X123399000Y-82690000D03*
X125399000Y-82690000D03*
X127399000Y-82690000D03*
%TD*%
%TO.C,C1*%
G36*
G01*
X131170617Y-99562833D02*
X130220617Y-99562833D01*
G75*
G02*
X129970617Y-99312833I0J250000D01*
G01*
X129970617Y-98637833D01*
G75*
G02*
X130220617Y-98387833I250000J0D01*
G01*
X131170617Y-98387833D01*
G75*
G02*
X131420617Y-98637833I0J-250000D01*
G01*
X131420617Y-99312833D01*
G75*
G02*
X131170617Y-99562833I-250000J0D01*
G01*
G37*
G36*
G01*
X131170617Y-101637833D02*
X130220617Y-101637833D01*
G75*
G02*
X129970617Y-101387833I0J250000D01*
G01*
X129970617Y-100712833D01*
G75*
G02*
X130220617Y-100462833I250000J0D01*
G01*
X131170617Y-100462833D01*
G75*
G02*
X131420617Y-100712833I0J-250000D01*
G01*
X131420617Y-101387833D01*
G75*
G02*
X131170617Y-101637833I-250000J0D01*
G01*
G37*
%TD*%
%TO.C,C2*%
G36*
G01*
X180590000Y-101665000D02*
X180590000Y-100715000D01*
G75*
G02*
X180840000Y-100465000I250000J0D01*
G01*
X181515000Y-100465000D01*
G75*
G02*
X181765000Y-100715000I0J-250000D01*
G01*
X181765000Y-101665000D01*
G75*
G02*
X181515000Y-101915000I-250000J0D01*
G01*
X180840000Y-101915000D01*
G75*
G02*
X180590000Y-101665000I0J250000D01*
G01*
G37*
G36*
G01*
X178515000Y-101665000D02*
X178515000Y-100715000D01*
G75*
G02*
X178765000Y-100465000I250000J0D01*
G01*
X179440000Y-100465000D01*
G75*
G02*
X179690000Y-100715000I0J-250000D01*
G01*
X179690000Y-101665000D01*
G75*
G02*
X179440000Y-101915000I-250000J0D01*
G01*
X178765000Y-101915000D01*
G75*
G02*
X178515000Y-101665000I0J250000D01*
G01*
G37*
%TD*%
%TO.C,C5*%
G36*
G01*
X171624001Y-88615000D02*
X169573999Y-88615000D01*
G75*
G02*
X169324000Y-88365001I0J249999D01*
G01*
X169324000Y-86614999D01*
G75*
G02*
X169573999Y-86365000I249999J0D01*
G01*
X171624001Y-86365000D01*
G75*
G02*
X171874000Y-86614999I0J-249999D01*
G01*
X171874000Y-88365001D01*
G75*
G02*
X171624001Y-88615000I-249999J0D01*
G01*
G37*
G36*
G01*
X171624001Y-95015000D02*
X169573999Y-95015000D01*
G75*
G02*
X169324000Y-94765001I0J249999D01*
G01*
X169324000Y-93014999D01*
G75*
G02*
X169573999Y-92765000I249999J0D01*
G01*
X171624001Y-92765000D01*
G75*
G02*
X171874000Y-93014999I0J-249999D01*
G01*
X171874000Y-94765001D01*
G75*
G02*
X171624001Y-95015000I-249999J0D01*
G01*
G37*
%TD*%
%TO.C,R5*%
G36*
G01*
X177040000Y-78989999D02*
X177040000Y-79890001D01*
G75*
G02*
X176790001Y-80140000I-249999J0D01*
G01*
X176089999Y-80140000D01*
G75*
G02*
X175840000Y-79890001I0J249999D01*
G01*
X175840000Y-78989999D01*
G75*
G02*
X176089999Y-78740000I249999J0D01*
G01*
X176790001Y-78740000D01*
G75*
G02*
X177040000Y-78989999I0J-249999D01*
G01*
G37*
G36*
G01*
X179040000Y-78989999D02*
X179040000Y-79890001D01*
G75*
G02*
X178790001Y-80140000I-249999J0D01*
G01*
X178089999Y-80140000D01*
G75*
G02*
X177840000Y-79890001I0J249999D01*
G01*
X177840000Y-78989999D01*
G75*
G02*
X178089999Y-78740000I249999J0D01*
G01*
X178790001Y-78740000D01*
G75*
G02*
X179040000Y-78989999I0J-249999D01*
G01*
G37*
%TD*%
%TO.C,R4*%
G36*
G01*
X177040000Y-80989999D02*
X177040000Y-81890001D01*
G75*
G02*
X176790001Y-82140000I-249999J0D01*
G01*
X176089999Y-82140000D01*
G75*
G02*
X175840000Y-81890001I0J249999D01*
G01*
X175840000Y-80989999D01*
G75*
G02*
X176089999Y-80740000I249999J0D01*
G01*
X176790001Y-80740000D01*
G75*
G02*
X177040000Y-80989999I0J-249999D01*
G01*
G37*
G36*
G01*
X179040000Y-80989999D02*
X179040000Y-81890001D01*
G75*
G02*
X178790001Y-82140000I-249999J0D01*
G01*
X178089999Y-82140000D01*
G75*
G02*
X177840000Y-81890001I0J249999D01*
G01*
X177840000Y-80989999D01*
G75*
G02*
X178089999Y-80740000I249999J0D01*
G01*
X178790001Y-80740000D01*
G75*
G02*
X179040000Y-80989999I0J-249999D01*
G01*
G37*
%TD*%
%TO.C,R3*%
G36*
G01*
X177840000Y-83890001D02*
X177840000Y-82989999D01*
G75*
G02*
X178089999Y-82740000I249999J0D01*
G01*
X178790001Y-82740000D01*
G75*
G02*
X179040000Y-82989999I0J-249999D01*
G01*
X179040000Y-83890001D01*
G75*
G02*
X178790001Y-84140000I-249999J0D01*
G01*
X178089999Y-84140000D01*
G75*
G02*
X177840000Y-83890001I0J249999D01*
G01*
G37*
G36*
G01*
X175840000Y-83890001D02*
X175840000Y-82989999D01*
G75*
G02*
X176089999Y-82740000I249999J0D01*
G01*
X176790001Y-82740000D01*
G75*
G02*
X177040000Y-82989999I0J-249999D01*
G01*
X177040000Y-83890001D01*
G75*
G02*
X176790001Y-84140000I-249999J0D01*
G01*
X176089999Y-84140000D01*
G75*
G02*
X175840000Y-83890001I0J249999D01*
G01*
G37*
%TD*%
%TO.C,R2*%
G36*
G01*
X169740000Y-96739999D02*
X169740000Y-97640001D01*
G75*
G02*
X169490001Y-97890000I-249999J0D01*
G01*
X168789999Y-97890000D01*
G75*
G02*
X168540000Y-97640001I0J249999D01*
G01*
X168540000Y-96739999D01*
G75*
G02*
X168789999Y-96490000I249999J0D01*
G01*
X169490001Y-96490000D01*
G75*
G02*
X169740000Y-96739999I0J-249999D01*
G01*
G37*
G36*
G01*
X171740000Y-96739999D02*
X171740000Y-97640001D01*
G75*
G02*
X171490001Y-97890000I-249999J0D01*
G01*
X170789999Y-97890000D01*
G75*
G02*
X170540000Y-97640001I0J249999D01*
G01*
X170540000Y-96739999D01*
G75*
G02*
X170789999Y-96490000I249999J0D01*
G01*
X171490001Y-96490000D01*
G75*
G02*
X171740000Y-96739999I0J-249999D01*
G01*
G37*
%TD*%
%TO.C,R1*%
G36*
G01*
X170540000Y-99640001D02*
X170540000Y-98739999D01*
G75*
G02*
X170789999Y-98490000I249999J0D01*
G01*
X171490001Y-98490000D01*
G75*
G02*
X171740000Y-98739999I0J-249999D01*
G01*
X171740000Y-99640001D01*
G75*
G02*
X171490001Y-99890000I-249999J0D01*
G01*
X170789999Y-99890000D01*
G75*
G02*
X170540000Y-99640001I0J249999D01*
G01*
G37*
G36*
G01*
X168540000Y-99640001D02*
X168540000Y-98739999D01*
G75*
G02*
X168789999Y-98490000I249999J0D01*
G01*
X169490001Y-98490000D01*
G75*
G02*
X169740000Y-98739999I0J-249999D01*
G01*
X169740000Y-99640001D01*
G75*
G02*
X169490001Y-99890000I-249999J0D01*
G01*
X168789999Y-99890000D01*
G75*
G02*
X168540000Y-99640001I0J249999D01*
G01*
G37*
%TD*%
%TO.C,C4*%
G36*
G01*
X169690000Y-100715000D02*
X169690000Y-101665000D01*
G75*
G02*
X169440000Y-101915000I-250000J0D01*
G01*
X168765000Y-101915000D01*
G75*
G02*
X168515000Y-101665000I0J250000D01*
G01*
X168515000Y-100715000D01*
G75*
G02*
X168765000Y-100465000I250000J0D01*
G01*
X169440000Y-100465000D01*
G75*
G02*
X169690000Y-100715000I0J-250000D01*
G01*
G37*
G36*
G01*
X171765000Y-100715000D02*
X171765000Y-101665000D01*
G75*
G02*
X171515000Y-101915000I-250000J0D01*
G01*
X170840000Y-101915000D01*
G75*
G02*
X170590000Y-101665000I0J250000D01*
G01*
X170590000Y-100715000D01*
G75*
G02*
X170840000Y-100465000I250000J0D01*
G01*
X171515000Y-100465000D01*
G75*
G02*
X171765000Y-100715000I0J-250000D01*
G01*
G37*
%TD*%
D11*
%TO.C,U1*%
X179440000Y-98190000D03*
X176440000Y-99140000D03*
X176440000Y-97240000D03*
%TD*%
D12*
%TO.C,AE1*%
X103440000Y-93692000D03*
X103440000Y-87692000D03*
D13*
X104649000Y-90690000D03*
D14*
X103440000Y-89092000D03*
X103440000Y-92292000D03*
%TD*%
%TO.C,C3*%
G36*
G01*
X175590000Y-101665000D02*
X175590000Y-100715000D01*
G75*
G02*
X175840000Y-100465000I250000J0D01*
G01*
X176515000Y-100465000D01*
G75*
G02*
X176765000Y-100715000I0J-250000D01*
G01*
X176765000Y-101665000D01*
G75*
G02*
X176515000Y-101915000I-250000J0D01*
G01*
X175840000Y-101915000D01*
G75*
G02*
X175590000Y-101665000I0J250000D01*
G01*
G37*
G36*
G01*
X173515000Y-101665000D02*
X173515000Y-100715000D01*
G75*
G02*
X173765000Y-100465000I250000J0D01*
G01*
X174440000Y-100465000D01*
G75*
G02*
X174690000Y-100715000I0J-250000D01*
G01*
X174690000Y-101665000D01*
G75*
G02*
X174440000Y-101915000I-250000J0D01*
G01*
X173765000Y-101915000D01*
G75*
G02*
X173515000Y-101665000I0J250000D01*
G01*
G37*
%TD*%
M02*
