%TF.GenerationSoftware,KiCad,Pcbnew,(5.1.10)-1*%
%TF.CreationDate,2021-06-05T23:03:48+02:00*%
%TF.ProjectId,LoRaProMini,4c6f5261-5072-46f4-9d69-6e692e6b6963,2.0*%
%TF.SameCoordinates,Original*%
%TF.FileFunction,Copper,L2,Bot*%
%TF.FilePolarity,Positive*%
%FSLAX46Y46*%
G04 Gerber Fmt 4.6, Leading zero omitted, Abs format (unit mm)*
G04 Created by KiCad (PCBNEW (5.1.10)-1) date 2021-06-05 23:03:48*
%MOMM*%
%LPD*%
G01*
G04 APERTURE LIST*
%TA.AperFunction,ComponentPad*%
%ADD10C,1.700000*%
%TD*%
%TA.AperFunction,ComponentPad*%
%ADD11R,1.700000X1.700000*%
%TD*%
%TA.AperFunction,ComponentPad*%
%ADD12R,1.500000X1.050000*%
%TD*%
%TA.AperFunction,ComponentPad*%
%ADD13O,1.500000X1.050000*%
%TD*%
%TA.AperFunction,ComponentPad*%
%ADD14C,1.600000*%
%TD*%
%TA.AperFunction,SMDPad,CuDef*%
%ADD15R,6.000000X2.500000*%
%TD*%
%TA.AperFunction,ComponentPad*%
%ADD16O,1.750000X1.200000*%
%TD*%
%TA.AperFunction,ViaPad*%
%ADD17C,0.800000*%
%TD*%
%TA.AperFunction,Conductor*%
%ADD18C,1.000000*%
%TD*%
%TA.AperFunction,Conductor*%
%ADD19C,0.250000*%
%TD*%
%TA.AperFunction,Conductor*%
%ADD20C,0.254000*%
%TD*%
%TA.AperFunction,Conductor*%
%ADD21C,0.100000*%
%TD*%
G04 APERTURE END LIST*
D10*
%TO.P,X1,24*%
%TO.N,SPI_CS_LORA*%
X134200000Y-98310000D03*
%TO.P,X1,29*%
%TO.N,Net-(X1-Pad29)*%
X134200000Y-95770000D03*
%TO.P,X1,28*%
%TO.N,Net-(X1-Pad28)*%
X134200000Y-93230000D03*
D11*
%TO.P,X1,27*%
%TO.N,GND*%
X134200000Y-90690000D03*
D10*
%TO.P,X1,23*%
%TO.N,SPI_MOSI*%
X136740000Y-98310000D03*
%TO.P,X1,21*%
%TO.N,SPI_SCK*%
X141820000Y-98310000D03*
%TO.P,X1,22*%
%TO.N,SPI_MISO*%
X139280000Y-98310000D03*
%TO.P,X1,18*%
%TO.N,Net-(X1-Pad18)*%
X149440000Y-98310000D03*
%TO.P,X1,17*%
%TO.N,Net-(X1-Pad17)*%
X151980000Y-98310000D03*
%TO.P,X1,19*%
%TO.N,Net-(X1-Pad19)*%
X146900000Y-98310000D03*
%TO.P,X1,20*%
%TO.N,MCU_A0*%
X144360000Y-98310000D03*
%TO.P,X1,16*%
%TO.N,+3V3*%
X154520000Y-98310000D03*
%TO.P,X1,15*%
%TO.N,Net-(X1-Pad15)*%
X157060000Y-98310000D03*
D11*
%TO.P,X1,13*%
%TO.N,Net-(X1-Pad13)*%
X162140000Y-98310000D03*
D10*
%TO.P,X1,14*%
%TO.N,GND*%
X159600000Y-98310000D03*
%TO.P,X1,2*%
%TO.N,Net-(X1-Pad2)*%
X159600000Y-83070000D03*
D11*
%TO.P,X1,1*%
%TO.N,Net-(X1-Pad1)*%
X162140000Y-83070000D03*
D10*
%TO.P,X1,3*%
%TO.N,Net-(X1-Pad3)*%
X157060000Y-83070000D03*
%TO.P,X1,4*%
%TO.N,GND*%
X154520000Y-83070000D03*
%TO.P,X1,8*%
%TO.N,Net-(X1-Pad8)*%
X144360000Y-83070000D03*
%TO.P,X1,7*%
%TO.N,Net-(X1-Pad7)*%
X146900000Y-83070000D03*
%TO.P,X1,5*%
%TO.N,LORA_DIO2*%
X151980000Y-83070000D03*
%TO.P,X1,6*%
%TO.N,Net-(X1-Pad6)*%
X149440000Y-83070000D03*
%TO.P,X1,10*%
%TO.N,LORA_DIO1*%
X139280000Y-83070000D03*
%TO.P,X1,9*%
%TO.N,1-WIRE*%
X141820000Y-83070000D03*
%TO.P,X1,11*%
%TO.N,LORA_DIO0*%
X136740000Y-83070000D03*
%TO.P,X1,12*%
%TO.N,LORA_RST*%
X134200000Y-83070000D03*
%TO.P,X1,25*%
%TO.N,MCU_SCL*%
X153250000Y-95770000D03*
%TO.P,X1,26*%
%TO.N,MCU_SDA*%
X150710000Y-95770000D03*
%TD*%
D12*
%TO.P,U3,1*%
%TO.N,GND*%
X171140000Y-80120000D03*
D13*
%TO.P,U3,3*%
%TO.N,+3V3*%
X171140000Y-82660000D03*
%TO.P,U3,2*%
%TO.N,1-WIRE*%
X171140000Y-81390000D03*
%TD*%
D14*
%TO.P,AE1,1*%
%TO.N,Net-(AE1-Pad1)*%
X106449000Y-90690000D03*
D15*
%TO.P,AE1,2*%
%TO.N,GND*%
X103440000Y-93692000D03*
X103440000Y-87692000D03*
%TD*%
D16*
%TO.P,J3,4*%
%TO.N,MCU_SDA*%
X177788000Y-93675333D03*
%TO.P,J3,3*%
%TO.N,MCU_SCL*%
X177788000Y-91675333D03*
%TO.P,J3,2*%
%TO.N,GND*%
X177788000Y-89675333D03*
%TO.P,J3,1*%
%TO.N,+3V3*%
%TA.AperFunction,ComponentPad*%
G36*
G01*
X177162999Y-87075333D02*
X178413001Y-87075333D01*
G75*
G02*
X178663000Y-87325332I0J-249999D01*
G01*
X178663000Y-88025334D01*
G75*
G02*
X178413001Y-88275333I-249999J0D01*
G01*
X177162999Y-88275333D01*
G75*
G02*
X176913000Y-88025334I0J249999D01*
G01*
X176913000Y-87325332D01*
G75*
G02*
X177162999Y-87075333I249999J0D01*
G01*
G37*
%TD.AperFunction*%
%TD*%
%TO.P,J2,3*%
%TO.N,GND*%
X184845617Y-89356000D03*
%TO.P,J2,2*%
%TO.N,1-WIRE*%
X184845617Y-87356000D03*
%TO.P,J2,1*%
%TO.N,+3V3*%
%TA.AperFunction,ComponentPad*%
G36*
G01*
X184220616Y-84756000D02*
X185470618Y-84756000D01*
G75*
G02*
X185720617Y-85005999I0J-249999D01*
G01*
X185720617Y-85706001D01*
G75*
G02*
X185470618Y-85956000I-249999J0D01*
G01*
X184220616Y-85956000D01*
G75*
G02*
X183970617Y-85706001I0J249999D01*
G01*
X183970617Y-85005999D01*
G75*
G02*
X184220616Y-84756000I249999J0D01*
G01*
G37*
%TD.AperFunction*%
%TD*%
%TO.P,J1,2*%
%TO.N,GND*%
X184845617Y-96206000D03*
%TO.P,J1,1*%
%TO.N,+BATT*%
%TA.AperFunction,ComponentPad*%
G36*
G01*
X184220616Y-93606000D02*
X185470618Y-93606000D01*
G75*
G02*
X185720617Y-93855999I0J-249999D01*
G01*
X185720617Y-94556001D01*
G75*
G02*
X185470618Y-94806000I-249999J0D01*
G01*
X184220616Y-94806000D01*
G75*
G02*
X183970617Y-94556001I0J249999D01*
G01*
X183970617Y-93855999D01*
G75*
G02*
X184220616Y-93606000I249999J0D01*
G01*
G37*
%TD.AperFunction*%
%TD*%
D17*
%TO.N,GND*%
X144399000Y-85690000D03*
X109323000Y-89525000D03*
X110339000Y-89715500D03*
X108270500Y-91938000D03*
X112080500Y-94986000D03*
X112127000Y-97060000D03*
X112127000Y-98203000D03*
X114466500Y-93716000D03*
X114784000Y-94668500D03*
X111291500Y-90033000D03*
X114814000Y-96764000D03*
X114810831Y-95684500D03*
X114085500Y-92763500D03*
X113577500Y-91938000D03*
X112815500Y-91176000D03*
X112053500Y-90541000D03*
X109286500Y-92065000D03*
X110239000Y-92542557D03*
X111064500Y-93208000D03*
X111699500Y-94033500D03*
X112114000Y-96002000D03*
X107190000Y-88440000D03*
X107190000Y-87440000D03*
X107190000Y-86440000D03*
X106190000Y-85690000D03*
X105190000Y-85690000D03*
X104190000Y-85690000D03*
X103190000Y-85690000D03*
X102190000Y-85690000D03*
X101190000Y-85690000D03*
X107190000Y-89440000D03*
X107190000Y-91940000D03*
X107190000Y-92940000D03*
X107190000Y-93940000D03*
X107190000Y-94940000D03*
X106063000Y-95690000D03*
X105063000Y-95690000D03*
X104063000Y-95690000D03*
X103063000Y-95690000D03*
X102063000Y-95690000D03*
X101063000Y-95690000D03*
X108290000Y-89440000D03*
X130136000Y-81800000D03*
X173099000Y-82590000D03*
X176872000Y-85864000D03*
%TO.N,+BATT*%
X173062000Y-99190000D03*
X179440000Y-99225333D03*
%TO.N,MCU_A0*%
X167340000Y-99990000D03*
%TO.N,MCU_SDA*%
X174740000Y-93690000D03*
X174740000Y-82590000D03*
%TO.N,MCU_SCL*%
X175740000Y-91690000D03*
X175740000Y-84890000D03*
%TO.N,SPI_CS_LORA*%
X119399000Y-84690000D03*
%TO.N,SPI_SCK*%
X128240000Y-85690000D03*
%TO.N,SPI_MOSI*%
X123399000Y-84690000D03*
%TO.N,SPI_MISO*%
X125399000Y-84690000D03*
%TD*%
D18*
%TO.N,GND*%
X103440000Y-87692000D02*
X103440000Y-84390000D01*
X103440000Y-87692000D02*
X108638000Y-87692000D01*
X103440000Y-93692000D02*
X103440000Y-97190000D01*
X103440000Y-93692000D02*
X108438000Y-93692000D01*
D19*
%TO.N,+BATT*%
X179404667Y-99190000D02*
X179440000Y-99225333D01*
X173097333Y-99225333D02*
X173062000Y-99190000D01*
X179440000Y-99225333D02*
X173097333Y-99225333D01*
%TO.N,MCU_A0*%
X146040000Y-99990000D02*
X144360000Y-98310000D01*
X167340000Y-99990000D02*
X146040000Y-99990000D01*
%TO.N,1-WIRE*%
X177224000Y-81390000D02*
X183190000Y-87356000D01*
X183190000Y-87356000D02*
X184845617Y-87356000D01*
X171140000Y-81390000D02*
X177224000Y-81390000D01*
%TO.N,MCU_SDA*%
X174740000Y-82590000D02*
X174740000Y-93690000D01*
X152790000Y-93690000D02*
X150710000Y-95770000D01*
X174740000Y-93690000D02*
X152790000Y-93690000D01*
%TO.N,MCU_SCL*%
X175740000Y-84890000D02*
X175740000Y-91690000D01*
X175740000Y-93763002D02*
X175740000Y-91690000D01*
X174813002Y-94690000D02*
X175740000Y-93763002D01*
X154330000Y-94690000D02*
X174813002Y-94690000D01*
X153250000Y-95770000D02*
X154330000Y-94690000D01*
%TO.N,SPI_CS_LORA*%
X132099000Y-96209000D02*
X134200000Y-98310000D01*
X132099000Y-89690000D02*
X132099000Y-96209000D01*
X131099000Y-88690000D02*
X132099000Y-89690000D01*
X125799000Y-88690000D02*
X131099000Y-88690000D01*
X121799000Y-84690000D02*
X125799000Y-88690000D01*
X119399000Y-84690000D02*
X121799000Y-84690000D01*
%TO.N,SPI_SCK*%
X134099000Y-85690000D02*
X134199000Y-85790000D01*
X134199000Y-85790000D02*
X138699000Y-90290000D01*
X128240000Y-85690000D02*
X134099000Y-85690000D01*
X134149000Y-85740000D02*
X134199000Y-85790000D01*
X138699000Y-95189000D02*
X141820000Y-98310000D01*
X138699000Y-90290000D02*
X138699000Y-95189000D01*
%TO.N,SPI_MOSI*%
X123399000Y-84690000D02*
X126399000Y-87690000D01*
X126399000Y-87690000D02*
X134149000Y-87690000D01*
X136740000Y-90281000D02*
X136740000Y-98310000D01*
X134149000Y-87690000D02*
X136740000Y-90281000D01*
%TO.N,SPI_MISO*%
X137699000Y-96729000D02*
X139280000Y-98310000D01*
X137699000Y-90290000D02*
X137699000Y-96729000D01*
X125399000Y-85440000D02*
X126649000Y-86690000D01*
X125399000Y-84690000D02*
X125399000Y-85440000D01*
X134099000Y-86690000D02*
X134349000Y-86940000D01*
X126649000Y-86690000D02*
X134099000Y-86690000D01*
X134349000Y-86940000D02*
X137699000Y-90290000D01*
X134149000Y-86740000D02*
X134349000Y-86940000D01*
%TD*%
D20*
%TO.N,GND*%
X186393893Y-77897670D02*
X186830498Y-78029489D01*
X187233185Y-78243600D01*
X187586612Y-78531848D01*
X187877327Y-78883261D01*
X188094242Y-79284439D01*
X188229106Y-79720113D01*
X188280000Y-80204344D01*
X188280001Y-101157711D01*
X188232330Y-101643894D01*
X188100512Y-102080497D01*
X187886399Y-102483186D01*
X187598150Y-102836613D01*
X187246739Y-103127327D01*
X186845564Y-103344240D01*
X186409886Y-103479106D01*
X185925666Y-103530000D01*
X101972295Y-103528002D01*
X101486106Y-103480330D01*
X101049503Y-103348512D01*
X100646814Y-103134399D01*
X100293387Y-102846150D01*
X100002673Y-102494739D01*
X99785760Y-102093564D01*
X99650894Y-101657886D01*
X99600000Y-101173664D01*
X99600000Y-101004344D01*
X100055000Y-101004344D01*
X100055000Y-101375656D01*
X100127439Y-101739834D01*
X100269534Y-102082882D01*
X100475825Y-102391618D01*
X100738382Y-102654175D01*
X101047118Y-102860466D01*
X101390166Y-103002561D01*
X101754344Y-103075000D01*
X102125656Y-103075000D01*
X102489834Y-103002561D01*
X102832882Y-102860466D01*
X103141618Y-102654175D01*
X103404175Y-102391618D01*
X103610466Y-102082882D01*
X103752561Y-101739834D01*
X103825000Y-101375656D01*
X103825000Y-101004344D01*
X103752561Y-100640166D01*
X103610466Y-100297118D01*
X103404175Y-99988382D01*
X103141618Y-99725825D01*
X102832882Y-99519534D01*
X102489834Y-99377439D01*
X102125656Y-99305000D01*
X101754344Y-99305000D01*
X101390166Y-99377439D01*
X101047118Y-99519534D01*
X100738382Y-99725825D01*
X100475825Y-99988382D01*
X100269534Y-100297118D01*
X100127439Y-100640166D01*
X100055000Y-101004344D01*
X99600000Y-101004344D01*
X99600000Y-96350000D01*
X99972419Y-96350000D01*
X100000329Y-96347251D01*
X100003308Y-96347272D01*
X100012479Y-96346373D01*
X100060648Y-96341310D01*
X100069383Y-96340450D01*
X100069674Y-96340362D01*
X100109527Y-96336173D01*
X100168152Y-96324139D01*
X100226884Y-96312936D01*
X100235706Y-96310272D01*
X100328925Y-96281416D01*
X100384075Y-96258233D01*
X100439537Y-96235825D01*
X100447666Y-96231502D01*
X100447670Y-96231500D01*
X100447673Y-96231498D01*
X100533511Y-96185086D01*
X100583098Y-96151638D01*
X100633156Y-96118881D01*
X100640297Y-96113057D01*
X100715486Y-96050855D01*
X100757639Y-96008406D01*
X100800371Y-95966561D01*
X100806245Y-95959460D01*
X100867921Y-95883840D01*
X100901052Y-95833975D01*
X100934825Y-95784650D01*
X100939208Y-95776544D01*
X100985020Y-95690383D01*
X101007809Y-95635091D01*
X101031378Y-95580102D01*
X101031595Y-95579402D01*
X103154250Y-95577000D01*
X103313000Y-95418250D01*
X103313000Y-93819000D01*
X103567000Y-93819000D01*
X103567000Y-95418250D01*
X103725750Y-95577000D01*
X106440000Y-95580072D01*
X106564482Y-95567812D01*
X106684180Y-95531502D01*
X106794494Y-95472537D01*
X106891185Y-95393185D01*
X106970537Y-95296494D01*
X107029502Y-95186180D01*
X107065812Y-95066482D01*
X107078072Y-94942000D01*
X107075000Y-93977750D01*
X106916250Y-93819000D01*
X103567000Y-93819000D01*
X103313000Y-93819000D01*
X103293000Y-93819000D01*
X103293000Y-93565000D01*
X103313000Y-93565000D01*
X103313000Y-91965750D01*
X103154250Y-91807000D01*
X101100000Y-91804675D01*
X101100000Y-89579325D01*
X103154250Y-89577000D01*
X103313000Y-89418250D01*
X103313000Y-87819000D01*
X103567000Y-87819000D01*
X103567000Y-89418250D01*
X103725750Y-89577000D01*
X105530561Y-89579043D01*
X105334363Y-89775241D01*
X105177320Y-90010273D01*
X105069147Y-90271426D01*
X105014000Y-90548665D01*
X105014000Y-90831335D01*
X105069147Y-91108574D01*
X105177320Y-91369727D01*
X105334363Y-91604759D01*
X105534241Y-91804637D01*
X105534713Y-91804953D01*
X103725750Y-91807000D01*
X103567000Y-91965750D01*
X103567000Y-93565000D01*
X106916250Y-93565000D01*
X107075000Y-93406250D01*
X107078072Y-92442000D01*
X107065812Y-92317518D01*
X107029502Y-92197820D01*
X106970537Y-92087506D01*
X106933604Y-92042503D01*
X107128727Y-91961680D01*
X107363759Y-91804637D01*
X107563637Y-91604759D01*
X107720680Y-91369727D01*
X107828853Y-91108574D01*
X107884000Y-90831335D01*
X107884000Y-90548665D01*
X107828853Y-90271426D01*
X107720680Y-90010273D01*
X107563637Y-89775241D01*
X107363759Y-89575363D01*
X107128727Y-89418320D01*
X106936054Y-89338512D01*
X106970537Y-89296494D01*
X107029502Y-89186180D01*
X107065812Y-89066482D01*
X107078072Y-88942000D01*
X107075000Y-87977750D01*
X106916250Y-87819000D01*
X103567000Y-87819000D01*
X103313000Y-87819000D01*
X103293000Y-87819000D01*
X103293000Y-87565000D01*
X103313000Y-87565000D01*
X103313000Y-85965750D01*
X103567000Y-85965750D01*
X103567000Y-87565000D01*
X106916250Y-87565000D01*
X107075000Y-87406250D01*
X107078072Y-86442000D01*
X107065812Y-86317518D01*
X107029502Y-86197820D01*
X106970537Y-86087506D01*
X106891185Y-85990815D01*
X106794494Y-85911463D01*
X106684180Y-85852498D01*
X106564482Y-85816188D01*
X106440000Y-85803928D01*
X103725750Y-85807000D01*
X103567000Y-85965750D01*
X103313000Y-85965750D01*
X103154250Y-85807000D01*
X101032507Y-85804599D01*
X101031416Y-85801075D01*
X101008238Y-85745937D01*
X100985825Y-85690463D01*
X100981498Y-85682327D01*
X100935085Y-85596489D01*
X100901645Y-85546913D01*
X100868881Y-85496844D01*
X100863057Y-85489703D01*
X100800855Y-85414514D01*
X100758406Y-85372361D01*
X100716561Y-85329629D01*
X100709460Y-85323755D01*
X100633839Y-85262079D01*
X100584034Y-85228988D01*
X100534650Y-85195174D01*
X100526544Y-85190792D01*
X100440383Y-85144980D01*
X100385091Y-85122191D01*
X100330102Y-85098622D01*
X100321299Y-85095897D01*
X100227881Y-85067692D01*
X100169174Y-85056067D01*
X100110684Y-85043635D01*
X100101530Y-85042673D01*
X100101524Y-85042672D01*
X100101519Y-85042672D01*
X100004402Y-85033150D01*
X99972419Y-85030000D01*
X99600000Y-85030000D01*
X99600000Y-84588061D01*
X118364000Y-84588061D01*
X118364000Y-84791939D01*
X118403774Y-84991898D01*
X118481795Y-85180256D01*
X118595063Y-85349774D01*
X118739226Y-85493937D01*
X118908744Y-85607205D01*
X119097102Y-85685226D01*
X119297061Y-85725000D01*
X119500939Y-85725000D01*
X119700898Y-85685226D01*
X119889256Y-85607205D01*
X120058774Y-85493937D01*
X120102711Y-85450000D01*
X121484199Y-85450000D01*
X125235200Y-89201002D01*
X125258999Y-89230001D01*
X125374724Y-89324974D01*
X125506753Y-89395546D01*
X125650014Y-89439003D01*
X125761667Y-89450000D01*
X125761676Y-89450000D01*
X125798999Y-89453676D01*
X125836322Y-89450000D01*
X130784199Y-89450000D01*
X131339000Y-90004802D01*
X131339001Y-96171668D01*
X131335324Y-96209000D01*
X131339001Y-96246333D01*
X131349998Y-96357986D01*
X131351281Y-96362216D01*
X131393454Y-96501246D01*
X131464026Y-96633276D01*
X131522365Y-96704361D01*
X131559000Y-96749001D01*
X131587998Y-96772799D01*
X132758790Y-97943592D01*
X132715000Y-98163740D01*
X132715000Y-98456260D01*
X132772068Y-98743158D01*
X132884010Y-99013411D01*
X133046525Y-99256632D01*
X133253368Y-99463475D01*
X133496589Y-99625990D01*
X133766842Y-99737932D01*
X134053740Y-99795000D01*
X134346260Y-99795000D01*
X134633158Y-99737932D01*
X134903411Y-99625990D01*
X135146632Y-99463475D01*
X135353475Y-99256632D01*
X135470000Y-99082240D01*
X135586525Y-99256632D01*
X135793368Y-99463475D01*
X136036589Y-99625990D01*
X136306842Y-99737932D01*
X136593740Y-99795000D01*
X136886260Y-99795000D01*
X137173158Y-99737932D01*
X137443411Y-99625990D01*
X137686632Y-99463475D01*
X137893475Y-99256632D01*
X138010000Y-99082240D01*
X138126525Y-99256632D01*
X138333368Y-99463475D01*
X138576589Y-99625990D01*
X138846842Y-99737932D01*
X139133740Y-99795000D01*
X139426260Y-99795000D01*
X139713158Y-99737932D01*
X139983411Y-99625990D01*
X140226632Y-99463475D01*
X140433475Y-99256632D01*
X140550000Y-99082240D01*
X140666525Y-99256632D01*
X140873368Y-99463475D01*
X141116589Y-99625990D01*
X141386842Y-99737932D01*
X141673740Y-99795000D01*
X141966260Y-99795000D01*
X142253158Y-99737932D01*
X142523411Y-99625990D01*
X142766632Y-99463475D01*
X142973475Y-99256632D01*
X143090000Y-99082240D01*
X143206525Y-99256632D01*
X143413368Y-99463475D01*
X143656589Y-99625990D01*
X143926842Y-99737932D01*
X144213740Y-99795000D01*
X144506260Y-99795000D01*
X144726408Y-99751210D01*
X145476201Y-100501003D01*
X145499999Y-100530001D01*
X145615724Y-100624974D01*
X145747753Y-100695546D01*
X145891014Y-100739003D01*
X146002667Y-100750000D01*
X146002675Y-100750000D01*
X146040000Y-100753676D01*
X146077325Y-100750000D01*
X166636289Y-100750000D01*
X166680226Y-100793937D01*
X166849744Y-100907205D01*
X167038102Y-100985226D01*
X167238061Y-101025000D01*
X167441939Y-101025000D01*
X167545784Y-101004344D01*
X184055000Y-101004344D01*
X184055000Y-101375656D01*
X184127439Y-101739834D01*
X184269534Y-102082882D01*
X184475825Y-102391618D01*
X184738382Y-102654175D01*
X185047118Y-102860466D01*
X185390166Y-103002561D01*
X185754344Y-103075000D01*
X186125656Y-103075000D01*
X186489834Y-103002561D01*
X186832882Y-102860466D01*
X187141618Y-102654175D01*
X187404175Y-102391618D01*
X187610466Y-102082882D01*
X187752561Y-101739834D01*
X187825000Y-101375656D01*
X187825000Y-101004344D01*
X187752561Y-100640166D01*
X187610466Y-100297118D01*
X187404175Y-99988382D01*
X187141618Y-99725825D01*
X186832882Y-99519534D01*
X186489834Y-99377439D01*
X186125656Y-99305000D01*
X185754344Y-99305000D01*
X185390166Y-99377439D01*
X185047118Y-99519534D01*
X184738382Y-99725825D01*
X184475825Y-99988382D01*
X184269534Y-100297118D01*
X184127439Y-100640166D01*
X184055000Y-101004344D01*
X167545784Y-101004344D01*
X167641898Y-100985226D01*
X167830256Y-100907205D01*
X167999774Y-100793937D01*
X168143937Y-100649774D01*
X168257205Y-100480256D01*
X168335226Y-100291898D01*
X168375000Y-100091939D01*
X168375000Y-99888061D01*
X168335226Y-99688102D01*
X168257205Y-99499744D01*
X168143937Y-99330226D01*
X167999774Y-99186063D01*
X167853104Y-99088061D01*
X172027000Y-99088061D01*
X172027000Y-99291939D01*
X172066774Y-99491898D01*
X172144795Y-99680256D01*
X172258063Y-99849774D01*
X172402226Y-99993937D01*
X172571744Y-100107205D01*
X172760102Y-100185226D01*
X172960061Y-100225000D01*
X173163939Y-100225000D01*
X173363898Y-100185226D01*
X173552256Y-100107205D01*
X173721774Y-99993937D01*
X173730378Y-99985333D01*
X178736289Y-99985333D01*
X178780226Y-100029270D01*
X178949744Y-100142538D01*
X179138102Y-100220559D01*
X179338061Y-100260333D01*
X179541939Y-100260333D01*
X179741898Y-100220559D01*
X179930256Y-100142538D01*
X180099774Y-100029270D01*
X180243937Y-99885107D01*
X180357205Y-99715589D01*
X180435226Y-99527231D01*
X180475000Y-99327272D01*
X180475000Y-99123394D01*
X180435226Y-98923435D01*
X180357205Y-98735077D01*
X180243937Y-98565559D01*
X180099774Y-98421396D01*
X179930256Y-98308128D01*
X179741898Y-98230107D01*
X179541939Y-98190333D01*
X179338061Y-98190333D01*
X179138102Y-98230107D01*
X178949744Y-98308128D01*
X178780226Y-98421396D01*
X178736289Y-98465333D01*
X173801044Y-98465333D01*
X173721774Y-98386063D01*
X173552256Y-98272795D01*
X173363898Y-98194774D01*
X173163939Y-98155000D01*
X172960061Y-98155000D01*
X172760102Y-98194774D01*
X172571744Y-98272795D01*
X172402226Y-98386063D01*
X172258063Y-98530226D01*
X172144795Y-98699744D01*
X172066774Y-98888102D01*
X172027000Y-99088061D01*
X167853104Y-99088061D01*
X167830256Y-99072795D01*
X167641898Y-98994774D01*
X167441939Y-98955000D01*
X167238061Y-98955000D01*
X167038102Y-98994774D01*
X166849744Y-99072795D01*
X166680226Y-99186063D01*
X166636289Y-99230000D01*
X163621178Y-99230000D01*
X163628072Y-99160000D01*
X163628072Y-97460000D01*
X163615812Y-97335518D01*
X163579502Y-97215820D01*
X163520537Y-97105506D01*
X163441185Y-97008815D01*
X163344494Y-96929463D01*
X163234180Y-96870498D01*
X163114482Y-96834188D01*
X162990000Y-96821928D01*
X161290000Y-96821928D01*
X161165518Y-96834188D01*
X161045820Y-96870498D01*
X160935506Y-96929463D01*
X160838815Y-97008815D01*
X160759463Y-97105506D01*
X160700498Y-97215820D01*
X160664188Y-97335518D01*
X160651928Y-97460000D01*
X160651928Y-97468542D01*
X160628397Y-97461208D01*
X159779605Y-98310000D01*
X159793748Y-98324143D01*
X159614143Y-98503748D01*
X159600000Y-98489605D01*
X159585858Y-98503748D01*
X159406253Y-98324143D01*
X159420395Y-98310000D01*
X158571603Y-97461208D01*
X158329311Y-97536729D01*
X158213475Y-97363368D01*
X158131710Y-97281603D01*
X158751208Y-97281603D01*
X159600000Y-98130395D01*
X160448792Y-97281603D01*
X160371157Y-97032528D01*
X160107117Y-96906629D01*
X159823589Y-96834661D01*
X159531469Y-96819389D01*
X159241981Y-96861401D01*
X158966253Y-96959081D01*
X158828843Y-97032528D01*
X158751208Y-97281603D01*
X158131710Y-97281603D01*
X158006632Y-97156525D01*
X157763411Y-96994010D01*
X157493158Y-96882068D01*
X157206260Y-96825000D01*
X156913740Y-96825000D01*
X156626842Y-96882068D01*
X156356589Y-96994010D01*
X156113368Y-97156525D01*
X155906525Y-97363368D01*
X155790000Y-97537760D01*
X155673475Y-97363368D01*
X155466632Y-97156525D01*
X155223411Y-96994010D01*
X154953158Y-96882068D01*
X154666260Y-96825000D01*
X154373740Y-96825000D01*
X154275582Y-96844525D01*
X154403475Y-96716632D01*
X154532448Y-96523609D01*
X183377155Y-96523609D01*
X183381026Y-96561282D01*
X183473196Y-96786533D01*
X183607539Y-96989474D01*
X183778892Y-97162307D01*
X183980671Y-97298390D01*
X184205121Y-97392493D01*
X184443617Y-97441000D01*
X184718617Y-97441000D01*
X184718617Y-96333000D01*
X184972617Y-96333000D01*
X184972617Y-97441000D01*
X185247617Y-97441000D01*
X185486113Y-97392493D01*
X185710563Y-97298390D01*
X185912342Y-97162307D01*
X186083695Y-96989474D01*
X186218038Y-96786533D01*
X186310208Y-96561282D01*
X186314079Y-96523609D01*
X186189348Y-96333000D01*
X184972617Y-96333000D01*
X184718617Y-96333000D01*
X183501886Y-96333000D01*
X183377155Y-96523609D01*
X154532448Y-96523609D01*
X154565990Y-96473411D01*
X154677932Y-96203158D01*
X154735000Y-95916260D01*
X154735000Y-95623740D01*
X154700441Y-95450000D01*
X174775680Y-95450000D01*
X174813002Y-95453676D01*
X174850324Y-95450000D01*
X174850335Y-95450000D01*
X174961988Y-95439003D01*
X175105249Y-95395546D01*
X175237278Y-95324974D01*
X175353003Y-95230001D01*
X175376805Y-95200998D01*
X176251004Y-94326800D01*
X176280001Y-94303003D01*
X176310595Y-94265724D01*
X176374974Y-94187279D01*
X176380632Y-94176694D01*
X176481167Y-94364782D01*
X176635498Y-94552835D01*
X176823551Y-94707166D01*
X177038099Y-94821844D01*
X177270898Y-94892463D01*
X177452335Y-94910333D01*
X178123665Y-94910333D01*
X178305102Y-94892463D01*
X178537901Y-94821844D01*
X178752449Y-94707166D01*
X178940502Y-94552835D01*
X179094833Y-94364782D01*
X179209511Y-94150234D01*
X179280130Y-93917435D01*
X179286180Y-93855999D01*
X183332545Y-93855999D01*
X183332545Y-94556001D01*
X183349609Y-94729255D01*
X183400145Y-94895851D01*
X183482212Y-95049387D01*
X183592655Y-95183962D01*
X183727230Y-95294405D01*
X183732023Y-95296967D01*
X183607539Y-95422526D01*
X183473196Y-95625467D01*
X183381026Y-95850718D01*
X183377155Y-95888391D01*
X183501886Y-96079000D01*
X184718617Y-96079000D01*
X184718617Y-96059000D01*
X184972617Y-96059000D01*
X184972617Y-96079000D01*
X186189348Y-96079000D01*
X186314079Y-95888391D01*
X186310208Y-95850718D01*
X186218038Y-95625467D01*
X186083695Y-95422526D01*
X185959211Y-95296967D01*
X185964004Y-95294405D01*
X186098579Y-95183962D01*
X186209022Y-95049387D01*
X186291089Y-94895851D01*
X186341625Y-94729255D01*
X186358689Y-94556001D01*
X186358689Y-93855999D01*
X186341625Y-93682745D01*
X186291089Y-93516149D01*
X186209022Y-93362613D01*
X186098579Y-93228038D01*
X185964004Y-93117595D01*
X185810468Y-93035528D01*
X185643872Y-92984992D01*
X185470618Y-92967928D01*
X184220616Y-92967928D01*
X184047362Y-92984992D01*
X183880766Y-93035528D01*
X183727230Y-93117595D01*
X183592655Y-93228038D01*
X183482212Y-93362613D01*
X183400145Y-93516149D01*
X183349609Y-93682745D01*
X183332545Y-93855999D01*
X179286180Y-93855999D01*
X179303975Y-93675333D01*
X179280130Y-93433231D01*
X179209511Y-93200432D01*
X179094833Y-92985884D01*
X178940502Y-92797831D01*
X178791238Y-92675333D01*
X178940502Y-92552835D01*
X179094833Y-92364782D01*
X179209511Y-92150234D01*
X179280130Y-91917435D01*
X179303975Y-91675333D01*
X179280130Y-91433231D01*
X179209511Y-91200432D01*
X179094833Y-90985884D01*
X178940502Y-90797831D01*
X178790652Y-90674852D01*
X178854725Y-90631640D01*
X179026078Y-90458807D01*
X179160421Y-90255866D01*
X179252591Y-90030615D01*
X179256462Y-89992942D01*
X179131731Y-89802333D01*
X177915000Y-89802333D01*
X177915000Y-89822333D01*
X177661000Y-89822333D01*
X177661000Y-89802333D01*
X177641000Y-89802333D01*
X177641000Y-89673609D01*
X183377155Y-89673609D01*
X183381026Y-89711282D01*
X183473196Y-89936533D01*
X183607539Y-90139474D01*
X183778892Y-90312307D01*
X183980671Y-90448390D01*
X184205121Y-90542493D01*
X184443617Y-90591000D01*
X184718617Y-90591000D01*
X184718617Y-89483000D01*
X184972617Y-89483000D01*
X184972617Y-90591000D01*
X185247617Y-90591000D01*
X185486113Y-90542493D01*
X185710563Y-90448390D01*
X185912342Y-90312307D01*
X186083695Y-90139474D01*
X186218038Y-89936533D01*
X186310208Y-89711282D01*
X186314079Y-89673609D01*
X186189348Y-89483000D01*
X184972617Y-89483000D01*
X184718617Y-89483000D01*
X183501886Y-89483000D01*
X183377155Y-89673609D01*
X177641000Y-89673609D01*
X177641000Y-89548333D01*
X177661000Y-89548333D01*
X177661000Y-89528333D01*
X177915000Y-89528333D01*
X177915000Y-89548333D01*
X179131731Y-89548333D01*
X179256462Y-89357724D01*
X179252591Y-89320051D01*
X179160421Y-89094800D01*
X179026078Y-88891859D01*
X178901594Y-88766300D01*
X178906387Y-88763738D01*
X179040962Y-88653295D01*
X179151405Y-88518720D01*
X179233472Y-88365184D01*
X179284008Y-88198588D01*
X179301072Y-88025334D01*
X179301072Y-87325332D01*
X179284008Y-87152078D01*
X179233472Y-86985482D01*
X179151405Y-86831946D01*
X179040962Y-86697371D01*
X178906387Y-86586928D01*
X178752851Y-86504861D01*
X178586255Y-86454325D01*
X178413001Y-86437261D01*
X177162999Y-86437261D01*
X176989745Y-86454325D01*
X176823149Y-86504861D01*
X176669613Y-86586928D01*
X176535038Y-86697371D01*
X176500000Y-86740065D01*
X176500000Y-85593711D01*
X176543937Y-85549774D01*
X176657205Y-85380256D01*
X176735226Y-85191898D01*
X176775000Y-84991939D01*
X176775000Y-84788061D01*
X176735226Y-84588102D01*
X176657205Y-84399744D01*
X176543937Y-84230226D01*
X176399774Y-84086063D01*
X176230256Y-83972795D01*
X176041898Y-83894774D01*
X175841939Y-83855000D01*
X175638061Y-83855000D01*
X175500000Y-83882462D01*
X175500000Y-83293711D01*
X175543937Y-83249774D01*
X175657205Y-83080256D01*
X175735226Y-82891898D01*
X175775000Y-82691939D01*
X175775000Y-82488061D01*
X175735226Y-82288102D01*
X175678022Y-82150000D01*
X176909199Y-82150000D01*
X182626201Y-87867003D01*
X182649999Y-87896001D01*
X182678997Y-87919799D01*
X182765723Y-87990974D01*
X182830006Y-88025334D01*
X182897753Y-88061546D01*
X183041014Y-88105003D01*
X183152667Y-88116000D01*
X183152676Y-88116000D01*
X183189999Y-88119676D01*
X183227322Y-88116000D01*
X183596684Y-88116000D01*
X183693115Y-88233502D01*
X183842965Y-88356481D01*
X183778892Y-88399693D01*
X183607539Y-88572526D01*
X183473196Y-88775467D01*
X183381026Y-89000718D01*
X183377155Y-89038391D01*
X183501886Y-89229000D01*
X184718617Y-89229000D01*
X184718617Y-89209000D01*
X184972617Y-89209000D01*
X184972617Y-89229000D01*
X186189348Y-89229000D01*
X186314079Y-89038391D01*
X186310208Y-89000718D01*
X186218038Y-88775467D01*
X186083695Y-88572526D01*
X185912342Y-88399693D01*
X185848269Y-88356481D01*
X185998119Y-88233502D01*
X186152450Y-88045449D01*
X186267128Y-87830901D01*
X186337747Y-87598102D01*
X186361592Y-87356000D01*
X186337747Y-87113898D01*
X186267128Y-86881099D01*
X186152450Y-86666551D01*
X185998119Y-86478498D01*
X185959506Y-86446809D01*
X185964004Y-86444405D01*
X186098579Y-86333962D01*
X186209022Y-86199387D01*
X186291089Y-86045851D01*
X186341625Y-85879255D01*
X186358689Y-85706001D01*
X186358689Y-85005999D01*
X186341625Y-84832745D01*
X186291089Y-84666149D01*
X186209022Y-84512613D01*
X186098579Y-84378038D01*
X185964004Y-84267595D01*
X185810468Y-84185528D01*
X185643872Y-84134992D01*
X185470618Y-84117928D01*
X184220616Y-84117928D01*
X184047362Y-84134992D01*
X183880766Y-84185528D01*
X183727230Y-84267595D01*
X183592655Y-84378038D01*
X183482212Y-84512613D01*
X183400145Y-84666149D01*
X183349609Y-84832745D01*
X183332545Y-85005999D01*
X183332545Y-85706001D01*
X183349609Y-85879255D01*
X183400145Y-86045851D01*
X183482212Y-86199387D01*
X183592655Y-86333962D01*
X183727230Y-86444405D01*
X183731728Y-86446809D01*
X183693115Y-86478498D01*
X183596684Y-86596000D01*
X183504802Y-86596000D01*
X177787804Y-80879003D01*
X177764001Y-80849999D01*
X177648276Y-80755026D01*
X177516247Y-80684454D01*
X177372986Y-80640997D01*
X177261333Y-80630000D01*
X177261322Y-80630000D01*
X177224000Y-80626324D01*
X177186678Y-80630000D01*
X172527879Y-80630000D01*
X172525000Y-80405750D01*
X172366250Y-80247000D01*
X171593109Y-80247000D01*
X171592400Y-80246785D01*
X171421979Y-80230000D01*
X170858021Y-80230000D01*
X170687600Y-80246785D01*
X170686891Y-80247000D01*
X169913750Y-80247000D01*
X169755000Y-80405750D01*
X169751928Y-80645000D01*
X169764188Y-80769482D01*
X169800498Y-80889180D01*
X169835093Y-80953902D01*
X169771785Y-81162600D01*
X169749388Y-81390000D01*
X169771785Y-81617400D01*
X169838115Y-81836060D01*
X169939105Y-82025000D01*
X169838115Y-82213940D01*
X169771785Y-82432600D01*
X169749388Y-82660000D01*
X169771785Y-82887400D01*
X169838115Y-83106060D01*
X169945829Y-83307579D01*
X170090788Y-83484212D01*
X170267421Y-83629171D01*
X170468940Y-83736885D01*
X170687600Y-83803215D01*
X170858021Y-83820000D01*
X171421979Y-83820000D01*
X171592400Y-83803215D01*
X171811060Y-83736885D01*
X172012579Y-83629171D01*
X172189212Y-83484212D01*
X172334171Y-83307579D01*
X172441885Y-83106060D01*
X172508215Y-82887400D01*
X172530612Y-82660000D01*
X172508215Y-82432600D01*
X172441885Y-82213940D01*
X172407708Y-82150000D01*
X173801978Y-82150000D01*
X173744774Y-82288102D01*
X173705000Y-82488061D01*
X173705000Y-82691939D01*
X173744774Y-82891898D01*
X173822795Y-83080256D01*
X173936063Y-83249774D01*
X173980000Y-83293711D01*
X173980001Y-92930000D01*
X152827322Y-92930000D01*
X152789999Y-92926324D01*
X152752676Y-92930000D01*
X152752667Y-92930000D01*
X152641014Y-92940997D01*
X152497753Y-92984454D01*
X152365724Y-93055026D01*
X152249999Y-93149999D01*
X152226201Y-93178997D01*
X151076408Y-94328791D01*
X150856260Y-94285000D01*
X150563740Y-94285000D01*
X150276842Y-94342068D01*
X150006589Y-94454010D01*
X149763368Y-94616525D01*
X149556525Y-94823368D01*
X149394010Y-95066589D01*
X149282068Y-95336842D01*
X149225000Y-95623740D01*
X149225000Y-95916260D01*
X149282068Y-96203158D01*
X149394010Y-96473411D01*
X149556525Y-96716632D01*
X149684418Y-96844525D01*
X149586260Y-96825000D01*
X149293740Y-96825000D01*
X149006842Y-96882068D01*
X148736589Y-96994010D01*
X148493368Y-97156525D01*
X148286525Y-97363368D01*
X148170000Y-97537760D01*
X148053475Y-97363368D01*
X147846632Y-97156525D01*
X147603411Y-96994010D01*
X147333158Y-96882068D01*
X147046260Y-96825000D01*
X146753740Y-96825000D01*
X146466842Y-96882068D01*
X146196589Y-96994010D01*
X145953368Y-97156525D01*
X145746525Y-97363368D01*
X145630000Y-97537760D01*
X145513475Y-97363368D01*
X145306632Y-97156525D01*
X145063411Y-96994010D01*
X144793158Y-96882068D01*
X144506260Y-96825000D01*
X144213740Y-96825000D01*
X143926842Y-96882068D01*
X143656589Y-96994010D01*
X143413368Y-97156525D01*
X143206525Y-97363368D01*
X143090000Y-97537760D01*
X142973475Y-97363368D01*
X142766632Y-97156525D01*
X142523411Y-96994010D01*
X142253158Y-96882068D01*
X141966260Y-96825000D01*
X141673740Y-96825000D01*
X141453592Y-96868790D01*
X139459000Y-94874199D01*
X139459000Y-90327322D01*
X139462676Y-90289999D01*
X139459000Y-90252676D01*
X139459000Y-90252667D01*
X139448003Y-90141014D01*
X139404546Y-89997753D01*
X139333975Y-89865725D01*
X139333974Y-89865723D01*
X139262799Y-89778997D01*
X139262798Y-89778996D01*
X139239001Y-89749999D01*
X139210004Y-89726202D01*
X134710002Y-85226201D01*
X134662804Y-85179003D01*
X134639001Y-85149999D01*
X134523276Y-85055026D01*
X134391247Y-84984454D01*
X134247986Y-84940997D01*
X134136333Y-84930000D01*
X134136322Y-84930000D01*
X134099000Y-84926324D01*
X134061678Y-84930000D01*
X128943711Y-84930000D01*
X128899774Y-84886063D01*
X128730256Y-84772795D01*
X128541898Y-84694774D01*
X128341939Y-84655000D01*
X128138061Y-84655000D01*
X127938102Y-84694774D01*
X127749744Y-84772795D01*
X127580226Y-84886063D01*
X127436063Y-85030226D01*
X127322795Y-85199744D01*
X127244774Y-85388102D01*
X127205000Y-85588061D01*
X127205000Y-85791939D01*
X127232462Y-85930000D01*
X126963802Y-85930000D01*
X126275290Y-85241489D01*
X126316205Y-85180256D01*
X126394226Y-84991898D01*
X126434000Y-84791939D01*
X126434000Y-84588061D01*
X126394226Y-84388102D01*
X126316205Y-84199744D01*
X126202937Y-84030226D01*
X126058774Y-83886063D01*
X125889256Y-83772795D01*
X125700898Y-83694774D01*
X125500939Y-83655000D01*
X125297061Y-83655000D01*
X125097102Y-83694774D01*
X124908744Y-83772795D01*
X124739226Y-83886063D01*
X124595063Y-84030226D01*
X124481795Y-84199744D01*
X124403774Y-84388102D01*
X124399000Y-84412103D01*
X124394226Y-84388102D01*
X124316205Y-84199744D01*
X124202937Y-84030226D01*
X124058774Y-83886063D01*
X123889256Y-83772795D01*
X123700898Y-83694774D01*
X123500939Y-83655000D01*
X123297061Y-83655000D01*
X123097102Y-83694774D01*
X122908744Y-83772795D01*
X122739226Y-83886063D01*
X122595063Y-84030226D01*
X122481795Y-84199744D01*
X122453018Y-84269217D01*
X122362804Y-84179003D01*
X122339001Y-84149999D01*
X122223276Y-84055026D01*
X122091247Y-83984454D01*
X121947986Y-83940997D01*
X121836333Y-83930000D01*
X121836322Y-83930000D01*
X121799000Y-83926324D01*
X121761678Y-83930000D01*
X120102711Y-83930000D01*
X120058774Y-83886063D01*
X119889256Y-83772795D01*
X119700898Y-83694774D01*
X119500939Y-83655000D01*
X119297061Y-83655000D01*
X119097102Y-83694774D01*
X118908744Y-83772795D01*
X118739226Y-83886063D01*
X118595063Y-84030226D01*
X118481795Y-84199744D01*
X118403774Y-84388102D01*
X118364000Y-84588061D01*
X99600000Y-84588061D01*
X99600000Y-82923740D01*
X132715000Y-82923740D01*
X132715000Y-83216260D01*
X132772068Y-83503158D01*
X132884010Y-83773411D01*
X133046525Y-84016632D01*
X133253368Y-84223475D01*
X133496589Y-84385990D01*
X133766842Y-84497932D01*
X134053740Y-84555000D01*
X134346260Y-84555000D01*
X134633158Y-84497932D01*
X134903411Y-84385990D01*
X135146632Y-84223475D01*
X135353475Y-84016632D01*
X135470000Y-83842240D01*
X135586525Y-84016632D01*
X135793368Y-84223475D01*
X136036589Y-84385990D01*
X136306842Y-84497932D01*
X136593740Y-84555000D01*
X136886260Y-84555000D01*
X137173158Y-84497932D01*
X137443411Y-84385990D01*
X137686632Y-84223475D01*
X137893475Y-84016632D01*
X138010000Y-83842240D01*
X138126525Y-84016632D01*
X138333368Y-84223475D01*
X138576589Y-84385990D01*
X138846842Y-84497932D01*
X139133740Y-84555000D01*
X139426260Y-84555000D01*
X139713158Y-84497932D01*
X139983411Y-84385990D01*
X140226632Y-84223475D01*
X140433475Y-84016632D01*
X140550000Y-83842240D01*
X140666525Y-84016632D01*
X140873368Y-84223475D01*
X141116589Y-84385990D01*
X141386842Y-84497932D01*
X141673740Y-84555000D01*
X141966260Y-84555000D01*
X142253158Y-84497932D01*
X142523411Y-84385990D01*
X142766632Y-84223475D01*
X142973475Y-84016632D01*
X143090000Y-83842240D01*
X143206525Y-84016632D01*
X143413368Y-84223475D01*
X143656589Y-84385990D01*
X143926842Y-84497932D01*
X144213740Y-84555000D01*
X144506260Y-84555000D01*
X144793158Y-84497932D01*
X145063411Y-84385990D01*
X145306632Y-84223475D01*
X145513475Y-84016632D01*
X145630000Y-83842240D01*
X145746525Y-84016632D01*
X145953368Y-84223475D01*
X146196589Y-84385990D01*
X146466842Y-84497932D01*
X146753740Y-84555000D01*
X147046260Y-84555000D01*
X147333158Y-84497932D01*
X147603411Y-84385990D01*
X147846632Y-84223475D01*
X148053475Y-84016632D01*
X148170000Y-83842240D01*
X148286525Y-84016632D01*
X148493368Y-84223475D01*
X148736589Y-84385990D01*
X149006842Y-84497932D01*
X149293740Y-84555000D01*
X149586260Y-84555000D01*
X149873158Y-84497932D01*
X150143411Y-84385990D01*
X150386632Y-84223475D01*
X150593475Y-84016632D01*
X150710000Y-83842240D01*
X150826525Y-84016632D01*
X151033368Y-84223475D01*
X151276589Y-84385990D01*
X151546842Y-84497932D01*
X151833740Y-84555000D01*
X152126260Y-84555000D01*
X152413158Y-84497932D01*
X152683411Y-84385990D01*
X152926632Y-84223475D01*
X153051710Y-84098397D01*
X153671208Y-84098397D01*
X153748843Y-84347472D01*
X154012883Y-84473371D01*
X154296411Y-84545339D01*
X154588531Y-84560611D01*
X154878019Y-84518599D01*
X155153747Y-84420919D01*
X155291157Y-84347472D01*
X155368792Y-84098397D01*
X154520000Y-83249605D01*
X153671208Y-84098397D01*
X153051710Y-84098397D01*
X153133475Y-84016632D01*
X153249311Y-83843271D01*
X153491603Y-83918792D01*
X154340395Y-83070000D01*
X154699605Y-83070000D01*
X155548397Y-83918792D01*
X155790689Y-83843271D01*
X155906525Y-84016632D01*
X156113368Y-84223475D01*
X156356589Y-84385990D01*
X156626842Y-84497932D01*
X156913740Y-84555000D01*
X157206260Y-84555000D01*
X157493158Y-84497932D01*
X157763411Y-84385990D01*
X158006632Y-84223475D01*
X158213475Y-84016632D01*
X158330000Y-83842240D01*
X158446525Y-84016632D01*
X158653368Y-84223475D01*
X158896589Y-84385990D01*
X159166842Y-84497932D01*
X159453740Y-84555000D01*
X159746260Y-84555000D01*
X160033158Y-84497932D01*
X160303411Y-84385990D01*
X160546632Y-84223475D01*
X160678487Y-84091620D01*
X160700498Y-84164180D01*
X160759463Y-84274494D01*
X160838815Y-84371185D01*
X160935506Y-84450537D01*
X161045820Y-84509502D01*
X161165518Y-84545812D01*
X161290000Y-84558072D01*
X162990000Y-84558072D01*
X163114482Y-84545812D01*
X163234180Y-84509502D01*
X163344494Y-84450537D01*
X163441185Y-84371185D01*
X163520537Y-84274494D01*
X163579502Y-84164180D01*
X163615812Y-84044482D01*
X163628072Y-83920000D01*
X163628072Y-82220000D01*
X163615812Y-82095518D01*
X163579502Y-81975820D01*
X163520537Y-81865506D01*
X163441185Y-81768815D01*
X163344494Y-81689463D01*
X163234180Y-81630498D01*
X163114482Y-81594188D01*
X162990000Y-81581928D01*
X161290000Y-81581928D01*
X161165518Y-81594188D01*
X161045820Y-81630498D01*
X160935506Y-81689463D01*
X160838815Y-81768815D01*
X160759463Y-81865506D01*
X160700498Y-81975820D01*
X160678487Y-82048380D01*
X160546632Y-81916525D01*
X160303411Y-81754010D01*
X160033158Y-81642068D01*
X159746260Y-81585000D01*
X159453740Y-81585000D01*
X159166842Y-81642068D01*
X158896589Y-81754010D01*
X158653368Y-81916525D01*
X158446525Y-82123368D01*
X158330000Y-82297760D01*
X158213475Y-82123368D01*
X158006632Y-81916525D01*
X157763411Y-81754010D01*
X157493158Y-81642068D01*
X157206260Y-81585000D01*
X156913740Y-81585000D01*
X156626842Y-81642068D01*
X156356589Y-81754010D01*
X156113368Y-81916525D01*
X155906525Y-82123368D01*
X155790689Y-82296729D01*
X155548397Y-82221208D01*
X154699605Y-83070000D01*
X154340395Y-83070000D01*
X153491603Y-82221208D01*
X153249311Y-82296729D01*
X153133475Y-82123368D01*
X153051710Y-82041603D01*
X153671208Y-82041603D01*
X154520000Y-82890395D01*
X155368792Y-82041603D01*
X155291157Y-81792528D01*
X155027117Y-81666629D01*
X154743589Y-81594661D01*
X154451469Y-81579389D01*
X154161981Y-81621401D01*
X153886253Y-81719081D01*
X153748843Y-81792528D01*
X153671208Y-82041603D01*
X153051710Y-82041603D01*
X152926632Y-81916525D01*
X152683411Y-81754010D01*
X152413158Y-81642068D01*
X152126260Y-81585000D01*
X151833740Y-81585000D01*
X151546842Y-81642068D01*
X151276589Y-81754010D01*
X151033368Y-81916525D01*
X150826525Y-82123368D01*
X150710000Y-82297760D01*
X150593475Y-82123368D01*
X150386632Y-81916525D01*
X150143411Y-81754010D01*
X149873158Y-81642068D01*
X149586260Y-81585000D01*
X149293740Y-81585000D01*
X149006842Y-81642068D01*
X148736589Y-81754010D01*
X148493368Y-81916525D01*
X148286525Y-82123368D01*
X148170000Y-82297760D01*
X148053475Y-82123368D01*
X147846632Y-81916525D01*
X147603411Y-81754010D01*
X147333158Y-81642068D01*
X147046260Y-81585000D01*
X146753740Y-81585000D01*
X146466842Y-81642068D01*
X146196589Y-81754010D01*
X145953368Y-81916525D01*
X145746525Y-82123368D01*
X145630000Y-82297760D01*
X145513475Y-82123368D01*
X145306632Y-81916525D01*
X145063411Y-81754010D01*
X144793158Y-81642068D01*
X144506260Y-81585000D01*
X144213740Y-81585000D01*
X143926842Y-81642068D01*
X143656589Y-81754010D01*
X143413368Y-81916525D01*
X143206525Y-82123368D01*
X143090000Y-82297760D01*
X142973475Y-82123368D01*
X142766632Y-81916525D01*
X142523411Y-81754010D01*
X142253158Y-81642068D01*
X141966260Y-81585000D01*
X141673740Y-81585000D01*
X141386842Y-81642068D01*
X141116589Y-81754010D01*
X140873368Y-81916525D01*
X140666525Y-82123368D01*
X140550000Y-82297760D01*
X140433475Y-82123368D01*
X140226632Y-81916525D01*
X139983411Y-81754010D01*
X139713158Y-81642068D01*
X139426260Y-81585000D01*
X139133740Y-81585000D01*
X138846842Y-81642068D01*
X138576589Y-81754010D01*
X138333368Y-81916525D01*
X138126525Y-82123368D01*
X138010000Y-82297760D01*
X137893475Y-82123368D01*
X137686632Y-81916525D01*
X137443411Y-81754010D01*
X137173158Y-81642068D01*
X136886260Y-81585000D01*
X136593740Y-81585000D01*
X136306842Y-81642068D01*
X136036589Y-81754010D01*
X135793368Y-81916525D01*
X135586525Y-82123368D01*
X135470000Y-82297760D01*
X135353475Y-82123368D01*
X135146632Y-81916525D01*
X134903411Y-81754010D01*
X134633158Y-81642068D01*
X134346260Y-81585000D01*
X134053740Y-81585000D01*
X133766842Y-81642068D01*
X133496589Y-81754010D01*
X133253368Y-81916525D01*
X133046525Y-82123368D01*
X132884010Y-82366589D01*
X132772068Y-82636842D01*
X132715000Y-82923740D01*
X99600000Y-82923740D01*
X99600000Y-80222279D01*
X99621368Y-80004344D01*
X100055000Y-80004344D01*
X100055000Y-80375656D01*
X100127439Y-80739834D01*
X100269534Y-81082882D01*
X100475825Y-81391618D01*
X100738382Y-81654175D01*
X101047118Y-81860466D01*
X101390166Y-82002561D01*
X101754344Y-82075000D01*
X102125656Y-82075000D01*
X102489834Y-82002561D01*
X102832882Y-81860466D01*
X103141618Y-81654175D01*
X103404175Y-81391618D01*
X103610466Y-81082882D01*
X103752561Y-80739834D01*
X103825000Y-80375656D01*
X103825000Y-80004344D01*
X184055000Y-80004344D01*
X184055000Y-80375656D01*
X184127439Y-80739834D01*
X184269534Y-81082882D01*
X184475825Y-81391618D01*
X184738382Y-81654175D01*
X185047118Y-81860466D01*
X185390166Y-82002561D01*
X185754344Y-82075000D01*
X186125656Y-82075000D01*
X186489834Y-82002561D01*
X186832882Y-81860466D01*
X187141618Y-81654175D01*
X187404175Y-81391618D01*
X187610466Y-81082882D01*
X187752561Y-80739834D01*
X187825000Y-80375656D01*
X187825000Y-80004344D01*
X187752561Y-79640166D01*
X187610466Y-79297118D01*
X187404175Y-78988382D01*
X187141618Y-78725825D01*
X186832882Y-78519534D01*
X186489834Y-78377439D01*
X186125656Y-78305000D01*
X185754344Y-78305000D01*
X185390166Y-78377439D01*
X185047118Y-78519534D01*
X184738382Y-78725825D01*
X184475825Y-78988382D01*
X184269534Y-79297118D01*
X184127439Y-79640166D01*
X184055000Y-80004344D01*
X103825000Y-80004344D01*
X103752561Y-79640166D01*
X103733853Y-79595000D01*
X169751928Y-79595000D01*
X169755000Y-79834250D01*
X169913750Y-79993000D01*
X171013000Y-79993000D01*
X171013000Y-79118750D01*
X171267000Y-79118750D01*
X171267000Y-79993000D01*
X172366250Y-79993000D01*
X172525000Y-79834250D01*
X172528072Y-79595000D01*
X172515812Y-79470518D01*
X172479502Y-79350820D01*
X172420537Y-79240506D01*
X172341185Y-79143815D01*
X172244494Y-79064463D01*
X172134180Y-79005498D01*
X172014482Y-78969188D01*
X171890000Y-78956928D01*
X171425750Y-78960000D01*
X171267000Y-79118750D01*
X171013000Y-79118750D01*
X170854250Y-78960000D01*
X170390000Y-78956928D01*
X170265518Y-78969188D01*
X170145820Y-79005498D01*
X170035506Y-79064463D01*
X169938815Y-79143815D01*
X169859463Y-79240506D01*
X169800498Y-79350820D01*
X169764188Y-79470518D01*
X169751928Y-79595000D01*
X103733853Y-79595000D01*
X103610466Y-79297118D01*
X103404175Y-78988382D01*
X103141618Y-78725825D01*
X102832882Y-78519534D01*
X102489834Y-78377439D01*
X102125656Y-78305000D01*
X101754344Y-78305000D01*
X101390166Y-78377439D01*
X101047118Y-78519534D01*
X100738382Y-78725825D01*
X100475825Y-78988382D01*
X100269534Y-79297118D01*
X100127439Y-79640166D01*
X100055000Y-80004344D01*
X99621368Y-80004344D01*
X99647670Y-79736107D01*
X99779489Y-79299502D01*
X99993600Y-78896815D01*
X100281848Y-78543388D01*
X100633261Y-78252673D01*
X101034439Y-78035758D01*
X101470113Y-77900894D01*
X101954344Y-77850000D01*
X185907721Y-77850000D01*
X186393893Y-77897670D01*
%TA.AperFunction,Conductor*%
D21*
G36*
X186393893Y-77897670D02*
G01*
X186830498Y-78029489D01*
X187233185Y-78243600D01*
X187586612Y-78531848D01*
X187877327Y-78883261D01*
X188094242Y-79284439D01*
X188229106Y-79720113D01*
X188280000Y-80204344D01*
X188280001Y-101157711D01*
X188232330Y-101643894D01*
X188100512Y-102080497D01*
X187886399Y-102483186D01*
X187598150Y-102836613D01*
X187246739Y-103127327D01*
X186845564Y-103344240D01*
X186409886Y-103479106D01*
X185925666Y-103530000D01*
X101972295Y-103528002D01*
X101486106Y-103480330D01*
X101049503Y-103348512D01*
X100646814Y-103134399D01*
X100293387Y-102846150D01*
X100002673Y-102494739D01*
X99785760Y-102093564D01*
X99650894Y-101657886D01*
X99600000Y-101173664D01*
X99600000Y-101004344D01*
X100055000Y-101004344D01*
X100055000Y-101375656D01*
X100127439Y-101739834D01*
X100269534Y-102082882D01*
X100475825Y-102391618D01*
X100738382Y-102654175D01*
X101047118Y-102860466D01*
X101390166Y-103002561D01*
X101754344Y-103075000D01*
X102125656Y-103075000D01*
X102489834Y-103002561D01*
X102832882Y-102860466D01*
X103141618Y-102654175D01*
X103404175Y-102391618D01*
X103610466Y-102082882D01*
X103752561Y-101739834D01*
X103825000Y-101375656D01*
X103825000Y-101004344D01*
X103752561Y-100640166D01*
X103610466Y-100297118D01*
X103404175Y-99988382D01*
X103141618Y-99725825D01*
X102832882Y-99519534D01*
X102489834Y-99377439D01*
X102125656Y-99305000D01*
X101754344Y-99305000D01*
X101390166Y-99377439D01*
X101047118Y-99519534D01*
X100738382Y-99725825D01*
X100475825Y-99988382D01*
X100269534Y-100297118D01*
X100127439Y-100640166D01*
X100055000Y-101004344D01*
X99600000Y-101004344D01*
X99600000Y-96350000D01*
X99972419Y-96350000D01*
X100000329Y-96347251D01*
X100003308Y-96347272D01*
X100012479Y-96346373D01*
X100060648Y-96341310D01*
X100069383Y-96340450D01*
X100069674Y-96340362D01*
X100109527Y-96336173D01*
X100168152Y-96324139D01*
X100226884Y-96312936D01*
X100235706Y-96310272D01*
X100328925Y-96281416D01*
X100384075Y-96258233D01*
X100439537Y-96235825D01*
X100447666Y-96231502D01*
X100447670Y-96231500D01*
X100447673Y-96231498D01*
X100533511Y-96185086D01*
X100583098Y-96151638D01*
X100633156Y-96118881D01*
X100640297Y-96113057D01*
X100715486Y-96050855D01*
X100757639Y-96008406D01*
X100800371Y-95966561D01*
X100806245Y-95959460D01*
X100867921Y-95883840D01*
X100901052Y-95833975D01*
X100934825Y-95784650D01*
X100939208Y-95776544D01*
X100985020Y-95690383D01*
X101007809Y-95635091D01*
X101031378Y-95580102D01*
X101031595Y-95579402D01*
X103154250Y-95577000D01*
X103313000Y-95418250D01*
X103313000Y-93819000D01*
X103567000Y-93819000D01*
X103567000Y-95418250D01*
X103725750Y-95577000D01*
X106440000Y-95580072D01*
X106564482Y-95567812D01*
X106684180Y-95531502D01*
X106794494Y-95472537D01*
X106891185Y-95393185D01*
X106970537Y-95296494D01*
X107029502Y-95186180D01*
X107065812Y-95066482D01*
X107078072Y-94942000D01*
X107075000Y-93977750D01*
X106916250Y-93819000D01*
X103567000Y-93819000D01*
X103313000Y-93819000D01*
X103293000Y-93819000D01*
X103293000Y-93565000D01*
X103313000Y-93565000D01*
X103313000Y-91965750D01*
X103154250Y-91807000D01*
X101100000Y-91804675D01*
X101100000Y-89579325D01*
X103154250Y-89577000D01*
X103313000Y-89418250D01*
X103313000Y-87819000D01*
X103567000Y-87819000D01*
X103567000Y-89418250D01*
X103725750Y-89577000D01*
X105530561Y-89579043D01*
X105334363Y-89775241D01*
X105177320Y-90010273D01*
X105069147Y-90271426D01*
X105014000Y-90548665D01*
X105014000Y-90831335D01*
X105069147Y-91108574D01*
X105177320Y-91369727D01*
X105334363Y-91604759D01*
X105534241Y-91804637D01*
X105534713Y-91804953D01*
X103725750Y-91807000D01*
X103567000Y-91965750D01*
X103567000Y-93565000D01*
X106916250Y-93565000D01*
X107075000Y-93406250D01*
X107078072Y-92442000D01*
X107065812Y-92317518D01*
X107029502Y-92197820D01*
X106970537Y-92087506D01*
X106933604Y-92042503D01*
X107128727Y-91961680D01*
X107363759Y-91804637D01*
X107563637Y-91604759D01*
X107720680Y-91369727D01*
X107828853Y-91108574D01*
X107884000Y-90831335D01*
X107884000Y-90548665D01*
X107828853Y-90271426D01*
X107720680Y-90010273D01*
X107563637Y-89775241D01*
X107363759Y-89575363D01*
X107128727Y-89418320D01*
X106936054Y-89338512D01*
X106970537Y-89296494D01*
X107029502Y-89186180D01*
X107065812Y-89066482D01*
X107078072Y-88942000D01*
X107075000Y-87977750D01*
X106916250Y-87819000D01*
X103567000Y-87819000D01*
X103313000Y-87819000D01*
X103293000Y-87819000D01*
X103293000Y-87565000D01*
X103313000Y-87565000D01*
X103313000Y-85965750D01*
X103567000Y-85965750D01*
X103567000Y-87565000D01*
X106916250Y-87565000D01*
X107075000Y-87406250D01*
X107078072Y-86442000D01*
X107065812Y-86317518D01*
X107029502Y-86197820D01*
X106970537Y-86087506D01*
X106891185Y-85990815D01*
X106794494Y-85911463D01*
X106684180Y-85852498D01*
X106564482Y-85816188D01*
X106440000Y-85803928D01*
X103725750Y-85807000D01*
X103567000Y-85965750D01*
X103313000Y-85965750D01*
X103154250Y-85807000D01*
X101032507Y-85804599D01*
X101031416Y-85801075D01*
X101008238Y-85745937D01*
X100985825Y-85690463D01*
X100981498Y-85682327D01*
X100935085Y-85596489D01*
X100901645Y-85546913D01*
X100868881Y-85496844D01*
X100863057Y-85489703D01*
X100800855Y-85414514D01*
X100758406Y-85372361D01*
X100716561Y-85329629D01*
X100709460Y-85323755D01*
X100633839Y-85262079D01*
X100584034Y-85228988D01*
X100534650Y-85195174D01*
X100526544Y-85190792D01*
X100440383Y-85144980D01*
X100385091Y-85122191D01*
X100330102Y-85098622D01*
X100321299Y-85095897D01*
X100227881Y-85067692D01*
X100169174Y-85056067D01*
X100110684Y-85043635D01*
X100101530Y-85042673D01*
X100101524Y-85042672D01*
X100101519Y-85042672D01*
X100004402Y-85033150D01*
X99972419Y-85030000D01*
X99600000Y-85030000D01*
X99600000Y-84588061D01*
X118364000Y-84588061D01*
X118364000Y-84791939D01*
X118403774Y-84991898D01*
X118481795Y-85180256D01*
X118595063Y-85349774D01*
X118739226Y-85493937D01*
X118908744Y-85607205D01*
X119097102Y-85685226D01*
X119297061Y-85725000D01*
X119500939Y-85725000D01*
X119700898Y-85685226D01*
X119889256Y-85607205D01*
X120058774Y-85493937D01*
X120102711Y-85450000D01*
X121484199Y-85450000D01*
X125235200Y-89201002D01*
X125258999Y-89230001D01*
X125374724Y-89324974D01*
X125506753Y-89395546D01*
X125650014Y-89439003D01*
X125761667Y-89450000D01*
X125761676Y-89450000D01*
X125798999Y-89453676D01*
X125836322Y-89450000D01*
X130784199Y-89450000D01*
X131339000Y-90004802D01*
X131339001Y-96171668D01*
X131335324Y-96209000D01*
X131339001Y-96246333D01*
X131349998Y-96357986D01*
X131351281Y-96362216D01*
X131393454Y-96501246D01*
X131464026Y-96633276D01*
X131522365Y-96704361D01*
X131559000Y-96749001D01*
X131587998Y-96772799D01*
X132758790Y-97943592D01*
X132715000Y-98163740D01*
X132715000Y-98456260D01*
X132772068Y-98743158D01*
X132884010Y-99013411D01*
X133046525Y-99256632D01*
X133253368Y-99463475D01*
X133496589Y-99625990D01*
X133766842Y-99737932D01*
X134053740Y-99795000D01*
X134346260Y-99795000D01*
X134633158Y-99737932D01*
X134903411Y-99625990D01*
X135146632Y-99463475D01*
X135353475Y-99256632D01*
X135470000Y-99082240D01*
X135586525Y-99256632D01*
X135793368Y-99463475D01*
X136036589Y-99625990D01*
X136306842Y-99737932D01*
X136593740Y-99795000D01*
X136886260Y-99795000D01*
X137173158Y-99737932D01*
X137443411Y-99625990D01*
X137686632Y-99463475D01*
X137893475Y-99256632D01*
X138010000Y-99082240D01*
X138126525Y-99256632D01*
X138333368Y-99463475D01*
X138576589Y-99625990D01*
X138846842Y-99737932D01*
X139133740Y-99795000D01*
X139426260Y-99795000D01*
X139713158Y-99737932D01*
X139983411Y-99625990D01*
X140226632Y-99463475D01*
X140433475Y-99256632D01*
X140550000Y-99082240D01*
X140666525Y-99256632D01*
X140873368Y-99463475D01*
X141116589Y-99625990D01*
X141386842Y-99737932D01*
X141673740Y-99795000D01*
X141966260Y-99795000D01*
X142253158Y-99737932D01*
X142523411Y-99625990D01*
X142766632Y-99463475D01*
X142973475Y-99256632D01*
X143090000Y-99082240D01*
X143206525Y-99256632D01*
X143413368Y-99463475D01*
X143656589Y-99625990D01*
X143926842Y-99737932D01*
X144213740Y-99795000D01*
X144506260Y-99795000D01*
X144726408Y-99751210D01*
X145476201Y-100501003D01*
X145499999Y-100530001D01*
X145615724Y-100624974D01*
X145747753Y-100695546D01*
X145891014Y-100739003D01*
X146002667Y-100750000D01*
X146002675Y-100750000D01*
X146040000Y-100753676D01*
X146077325Y-100750000D01*
X166636289Y-100750000D01*
X166680226Y-100793937D01*
X166849744Y-100907205D01*
X167038102Y-100985226D01*
X167238061Y-101025000D01*
X167441939Y-101025000D01*
X167545784Y-101004344D01*
X184055000Y-101004344D01*
X184055000Y-101375656D01*
X184127439Y-101739834D01*
X184269534Y-102082882D01*
X184475825Y-102391618D01*
X184738382Y-102654175D01*
X185047118Y-102860466D01*
X185390166Y-103002561D01*
X185754344Y-103075000D01*
X186125656Y-103075000D01*
X186489834Y-103002561D01*
X186832882Y-102860466D01*
X187141618Y-102654175D01*
X187404175Y-102391618D01*
X187610466Y-102082882D01*
X187752561Y-101739834D01*
X187825000Y-101375656D01*
X187825000Y-101004344D01*
X187752561Y-100640166D01*
X187610466Y-100297118D01*
X187404175Y-99988382D01*
X187141618Y-99725825D01*
X186832882Y-99519534D01*
X186489834Y-99377439D01*
X186125656Y-99305000D01*
X185754344Y-99305000D01*
X185390166Y-99377439D01*
X185047118Y-99519534D01*
X184738382Y-99725825D01*
X184475825Y-99988382D01*
X184269534Y-100297118D01*
X184127439Y-100640166D01*
X184055000Y-101004344D01*
X167545784Y-101004344D01*
X167641898Y-100985226D01*
X167830256Y-100907205D01*
X167999774Y-100793937D01*
X168143937Y-100649774D01*
X168257205Y-100480256D01*
X168335226Y-100291898D01*
X168375000Y-100091939D01*
X168375000Y-99888061D01*
X168335226Y-99688102D01*
X168257205Y-99499744D01*
X168143937Y-99330226D01*
X167999774Y-99186063D01*
X167853104Y-99088061D01*
X172027000Y-99088061D01*
X172027000Y-99291939D01*
X172066774Y-99491898D01*
X172144795Y-99680256D01*
X172258063Y-99849774D01*
X172402226Y-99993937D01*
X172571744Y-100107205D01*
X172760102Y-100185226D01*
X172960061Y-100225000D01*
X173163939Y-100225000D01*
X173363898Y-100185226D01*
X173552256Y-100107205D01*
X173721774Y-99993937D01*
X173730378Y-99985333D01*
X178736289Y-99985333D01*
X178780226Y-100029270D01*
X178949744Y-100142538D01*
X179138102Y-100220559D01*
X179338061Y-100260333D01*
X179541939Y-100260333D01*
X179741898Y-100220559D01*
X179930256Y-100142538D01*
X180099774Y-100029270D01*
X180243937Y-99885107D01*
X180357205Y-99715589D01*
X180435226Y-99527231D01*
X180475000Y-99327272D01*
X180475000Y-99123394D01*
X180435226Y-98923435D01*
X180357205Y-98735077D01*
X180243937Y-98565559D01*
X180099774Y-98421396D01*
X179930256Y-98308128D01*
X179741898Y-98230107D01*
X179541939Y-98190333D01*
X179338061Y-98190333D01*
X179138102Y-98230107D01*
X178949744Y-98308128D01*
X178780226Y-98421396D01*
X178736289Y-98465333D01*
X173801044Y-98465333D01*
X173721774Y-98386063D01*
X173552256Y-98272795D01*
X173363898Y-98194774D01*
X173163939Y-98155000D01*
X172960061Y-98155000D01*
X172760102Y-98194774D01*
X172571744Y-98272795D01*
X172402226Y-98386063D01*
X172258063Y-98530226D01*
X172144795Y-98699744D01*
X172066774Y-98888102D01*
X172027000Y-99088061D01*
X167853104Y-99088061D01*
X167830256Y-99072795D01*
X167641898Y-98994774D01*
X167441939Y-98955000D01*
X167238061Y-98955000D01*
X167038102Y-98994774D01*
X166849744Y-99072795D01*
X166680226Y-99186063D01*
X166636289Y-99230000D01*
X163621178Y-99230000D01*
X163628072Y-99160000D01*
X163628072Y-97460000D01*
X163615812Y-97335518D01*
X163579502Y-97215820D01*
X163520537Y-97105506D01*
X163441185Y-97008815D01*
X163344494Y-96929463D01*
X163234180Y-96870498D01*
X163114482Y-96834188D01*
X162990000Y-96821928D01*
X161290000Y-96821928D01*
X161165518Y-96834188D01*
X161045820Y-96870498D01*
X160935506Y-96929463D01*
X160838815Y-97008815D01*
X160759463Y-97105506D01*
X160700498Y-97215820D01*
X160664188Y-97335518D01*
X160651928Y-97460000D01*
X160651928Y-97468542D01*
X160628397Y-97461208D01*
X159779605Y-98310000D01*
X159793748Y-98324143D01*
X159614143Y-98503748D01*
X159600000Y-98489605D01*
X159585858Y-98503748D01*
X159406253Y-98324143D01*
X159420395Y-98310000D01*
X158571603Y-97461208D01*
X158329311Y-97536729D01*
X158213475Y-97363368D01*
X158131710Y-97281603D01*
X158751208Y-97281603D01*
X159600000Y-98130395D01*
X160448792Y-97281603D01*
X160371157Y-97032528D01*
X160107117Y-96906629D01*
X159823589Y-96834661D01*
X159531469Y-96819389D01*
X159241981Y-96861401D01*
X158966253Y-96959081D01*
X158828843Y-97032528D01*
X158751208Y-97281603D01*
X158131710Y-97281603D01*
X158006632Y-97156525D01*
X157763411Y-96994010D01*
X157493158Y-96882068D01*
X157206260Y-96825000D01*
X156913740Y-96825000D01*
X156626842Y-96882068D01*
X156356589Y-96994010D01*
X156113368Y-97156525D01*
X155906525Y-97363368D01*
X155790000Y-97537760D01*
X155673475Y-97363368D01*
X155466632Y-97156525D01*
X155223411Y-96994010D01*
X154953158Y-96882068D01*
X154666260Y-96825000D01*
X154373740Y-96825000D01*
X154275582Y-96844525D01*
X154403475Y-96716632D01*
X154532448Y-96523609D01*
X183377155Y-96523609D01*
X183381026Y-96561282D01*
X183473196Y-96786533D01*
X183607539Y-96989474D01*
X183778892Y-97162307D01*
X183980671Y-97298390D01*
X184205121Y-97392493D01*
X184443617Y-97441000D01*
X184718617Y-97441000D01*
X184718617Y-96333000D01*
X184972617Y-96333000D01*
X184972617Y-97441000D01*
X185247617Y-97441000D01*
X185486113Y-97392493D01*
X185710563Y-97298390D01*
X185912342Y-97162307D01*
X186083695Y-96989474D01*
X186218038Y-96786533D01*
X186310208Y-96561282D01*
X186314079Y-96523609D01*
X186189348Y-96333000D01*
X184972617Y-96333000D01*
X184718617Y-96333000D01*
X183501886Y-96333000D01*
X183377155Y-96523609D01*
X154532448Y-96523609D01*
X154565990Y-96473411D01*
X154677932Y-96203158D01*
X154735000Y-95916260D01*
X154735000Y-95623740D01*
X154700441Y-95450000D01*
X174775680Y-95450000D01*
X174813002Y-95453676D01*
X174850324Y-95450000D01*
X174850335Y-95450000D01*
X174961988Y-95439003D01*
X175105249Y-95395546D01*
X175237278Y-95324974D01*
X175353003Y-95230001D01*
X175376805Y-95200998D01*
X176251004Y-94326800D01*
X176280001Y-94303003D01*
X176310595Y-94265724D01*
X176374974Y-94187279D01*
X176380632Y-94176694D01*
X176481167Y-94364782D01*
X176635498Y-94552835D01*
X176823551Y-94707166D01*
X177038099Y-94821844D01*
X177270898Y-94892463D01*
X177452335Y-94910333D01*
X178123665Y-94910333D01*
X178305102Y-94892463D01*
X178537901Y-94821844D01*
X178752449Y-94707166D01*
X178940502Y-94552835D01*
X179094833Y-94364782D01*
X179209511Y-94150234D01*
X179280130Y-93917435D01*
X179286180Y-93855999D01*
X183332545Y-93855999D01*
X183332545Y-94556001D01*
X183349609Y-94729255D01*
X183400145Y-94895851D01*
X183482212Y-95049387D01*
X183592655Y-95183962D01*
X183727230Y-95294405D01*
X183732023Y-95296967D01*
X183607539Y-95422526D01*
X183473196Y-95625467D01*
X183381026Y-95850718D01*
X183377155Y-95888391D01*
X183501886Y-96079000D01*
X184718617Y-96079000D01*
X184718617Y-96059000D01*
X184972617Y-96059000D01*
X184972617Y-96079000D01*
X186189348Y-96079000D01*
X186314079Y-95888391D01*
X186310208Y-95850718D01*
X186218038Y-95625467D01*
X186083695Y-95422526D01*
X185959211Y-95296967D01*
X185964004Y-95294405D01*
X186098579Y-95183962D01*
X186209022Y-95049387D01*
X186291089Y-94895851D01*
X186341625Y-94729255D01*
X186358689Y-94556001D01*
X186358689Y-93855999D01*
X186341625Y-93682745D01*
X186291089Y-93516149D01*
X186209022Y-93362613D01*
X186098579Y-93228038D01*
X185964004Y-93117595D01*
X185810468Y-93035528D01*
X185643872Y-92984992D01*
X185470618Y-92967928D01*
X184220616Y-92967928D01*
X184047362Y-92984992D01*
X183880766Y-93035528D01*
X183727230Y-93117595D01*
X183592655Y-93228038D01*
X183482212Y-93362613D01*
X183400145Y-93516149D01*
X183349609Y-93682745D01*
X183332545Y-93855999D01*
X179286180Y-93855999D01*
X179303975Y-93675333D01*
X179280130Y-93433231D01*
X179209511Y-93200432D01*
X179094833Y-92985884D01*
X178940502Y-92797831D01*
X178791238Y-92675333D01*
X178940502Y-92552835D01*
X179094833Y-92364782D01*
X179209511Y-92150234D01*
X179280130Y-91917435D01*
X179303975Y-91675333D01*
X179280130Y-91433231D01*
X179209511Y-91200432D01*
X179094833Y-90985884D01*
X178940502Y-90797831D01*
X178790652Y-90674852D01*
X178854725Y-90631640D01*
X179026078Y-90458807D01*
X179160421Y-90255866D01*
X179252591Y-90030615D01*
X179256462Y-89992942D01*
X179131731Y-89802333D01*
X177915000Y-89802333D01*
X177915000Y-89822333D01*
X177661000Y-89822333D01*
X177661000Y-89802333D01*
X177641000Y-89802333D01*
X177641000Y-89673609D01*
X183377155Y-89673609D01*
X183381026Y-89711282D01*
X183473196Y-89936533D01*
X183607539Y-90139474D01*
X183778892Y-90312307D01*
X183980671Y-90448390D01*
X184205121Y-90542493D01*
X184443617Y-90591000D01*
X184718617Y-90591000D01*
X184718617Y-89483000D01*
X184972617Y-89483000D01*
X184972617Y-90591000D01*
X185247617Y-90591000D01*
X185486113Y-90542493D01*
X185710563Y-90448390D01*
X185912342Y-90312307D01*
X186083695Y-90139474D01*
X186218038Y-89936533D01*
X186310208Y-89711282D01*
X186314079Y-89673609D01*
X186189348Y-89483000D01*
X184972617Y-89483000D01*
X184718617Y-89483000D01*
X183501886Y-89483000D01*
X183377155Y-89673609D01*
X177641000Y-89673609D01*
X177641000Y-89548333D01*
X177661000Y-89548333D01*
X177661000Y-89528333D01*
X177915000Y-89528333D01*
X177915000Y-89548333D01*
X179131731Y-89548333D01*
X179256462Y-89357724D01*
X179252591Y-89320051D01*
X179160421Y-89094800D01*
X179026078Y-88891859D01*
X178901594Y-88766300D01*
X178906387Y-88763738D01*
X179040962Y-88653295D01*
X179151405Y-88518720D01*
X179233472Y-88365184D01*
X179284008Y-88198588D01*
X179301072Y-88025334D01*
X179301072Y-87325332D01*
X179284008Y-87152078D01*
X179233472Y-86985482D01*
X179151405Y-86831946D01*
X179040962Y-86697371D01*
X178906387Y-86586928D01*
X178752851Y-86504861D01*
X178586255Y-86454325D01*
X178413001Y-86437261D01*
X177162999Y-86437261D01*
X176989745Y-86454325D01*
X176823149Y-86504861D01*
X176669613Y-86586928D01*
X176535038Y-86697371D01*
X176500000Y-86740065D01*
X176500000Y-85593711D01*
X176543937Y-85549774D01*
X176657205Y-85380256D01*
X176735226Y-85191898D01*
X176775000Y-84991939D01*
X176775000Y-84788061D01*
X176735226Y-84588102D01*
X176657205Y-84399744D01*
X176543937Y-84230226D01*
X176399774Y-84086063D01*
X176230256Y-83972795D01*
X176041898Y-83894774D01*
X175841939Y-83855000D01*
X175638061Y-83855000D01*
X175500000Y-83882462D01*
X175500000Y-83293711D01*
X175543937Y-83249774D01*
X175657205Y-83080256D01*
X175735226Y-82891898D01*
X175775000Y-82691939D01*
X175775000Y-82488061D01*
X175735226Y-82288102D01*
X175678022Y-82150000D01*
X176909199Y-82150000D01*
X182626201Y-87867003D01*
X182649999Y-87896001D01*
X182678997Y-87919799D01*
X182765723Y-87990974D01*
X182830006Y-88025334D01*
X182897753Y-88061546D01*
X183041014Y-88105003D01*
X183152667Y-88116000D01*
X183152676Y-88116000D01*
X183189999Y-88119676D01*
X183227322Y-88116000D01*
X183596684Y-88116000D01*
X183693115Y-88233502D01*
X183842965Y-88356481D01*
X183778892Y-88399693D01*
X183607539Y-88572526D01*
X183473196Y-88775467D01*
X183381026Y-89000718D01*
X183377155Y-89038391D01*
X183501886Y-89229000D01*
X184718617Y-89229000D01*
X184718617Y-89209000D01*
X184972617Y-89209000D01*
X184972617Y-89229000D01*
X186189348Y-89229000D01*
X186314079Y-89038391D01*
X186310208Y-89000718D01*
X186218038Y-88775467D01*
X186083695Y-88572526D01*
X185912342Y-88399693D01*
X185848269Y-88356481D01*
X185998119Y-88233502D01*
X186152450Y-88045449D01*
X186267128Y-87830901D01*
X186337747Y-87598102D01*
X186361592Y-87356000D01*
X186337747Y-87113898D01*
X186267128Y-86881099D01*
X186152450Y-86666551D01*
X185998119Y-86478498D01*
X185959506Y-86446809D01*
X185964004Y-86444405D01*
X186098579Y-86333962D01*
X186209022Y-86199387D01*
X186291089Y-86045851D01*
X186341625Y-85879255D01*
X186358689Y-85706001D01*
X186358689Y-85005999D01*
X186341625Y-84832745D01*
X186291089Y-84666149D01*
X186209022Y-84512613D01*
X186098579Y-84378038D01*
X185964004Y-84267595D01*
X185810468Y-84185528D01*
X185643872Y-84134992D01*
X185470618Y-84117928D01*
X184220616Y-84117928D01*
X184047362Y-84134992D01*
X183880766Y-84185528D01*
X183727230Y-84267595D01*
X183592655Y-84378038D01*
X183482212Y-84512613D01*
X183400145Y-84666149D01*
X183349609Y-84832745D01*
X183332545Y-85005999D01*
X183332545Y-85706001D01*
X183349609Y-85879255D01*
X183400145Y-86045851D01*
X183482212Y-86199387D01*
X183592655Y-86333962D01*
X183727230Y-86444405D01*
X183731728Y-86446809D01*
X183693115Y-86478498D01*
X183596684Y-86596000D01*
X183504802Y-86596000D01*
X177787804Y-80879003D01*
X177764001Y-80849999D01*
X177648276Y-80755026D01*
X177516247Y-80684454D01*
X177372986Y-80640997D01*
X177261333Y-80630000D01*
X177261322Y-80630000D01*
X177224000Y-80626324D01*
X177186678Y-80630000D01*
X172527879Y-80630000D01*
X172525000Y-80405750D01*
X172366250Y-80247000D01*
X171593109Y-80247000D01*
X171592400Y-80246785D01*
X171421979Y-80230000D01*
X170858021Y-80230000D01*
X170687600Y-80246785D01*
X170686891Y-80247000D01*
X169913750Y-80247000D01*
X169755000Y-80405750D01*
X169751928Y-80645000D01*
X169764188Y-80769482D01*
X169800498Y-80889180D01*
X169835093Y-80953902D01*
X169771785Y-81162600D01*
X169749388Y-81390000D01*
X169771785Y-81617400D01*
X169838115Y-81836060D01*
X169939105Y-82025000D01*
X169838115Y-82213940D01*
X169771785Y-82432600D01*
X169749388Y-82660000D01*
X169771785Y-82887400D01*
X169838115Y-83106060D01*
X169945829Y-83307579D01*
X170090788Y-83484212D01*
X170267421Y-83629171D01*
X170468940Y-83736885D01*
X170687600Y-83803215D01*
X170858021Y-83820000D01*
X171421979Y-83820000D01*
X171592400Y-83803215D01*
X171811060Y-83736885D01*
X172012579Y-83629171D01*
X172189212Y-83484212D01*
X172334171Y-83307579D01*
X172441885Y-83106060D01*
X172508215Y-82887400D01*
X172530612Y-82660000D01*
X172508215Y-82432600D01*
X172441885Y-82213940D01*
X172407708Y-82150000D01*
X173801978Y-82150000D01*
X173744774Y-82288102D01*
X173705000Y-82488061D01*
X173705000Y-82691939D01*
X173744774Y-82891898D01*
X173822795Y-83080256D01*
X173936063Y-83249774D01*
X173980000Y-83293711D01*
X173980001Y-92930000D01*
X152827322Y-92930000D01*
X152789999Y-92926324D01*
X152752676Y-92930000D01*
X152752667Y-92930000D01*
X152641014Y-92940997D01*
X152497753Y-92984454D01*
X152365724Y-93055026D01*
X152249999Y-93149999D01*
X152226201Y-93178997D01*
X151076408Y-94328791D01*
X150856260Y-94285000D01*
X150563740Y-94285000D01*
X150276842Y-94342068D01*
X150006589Y-94454010D01*
X149763368Y-94616525D01*
X149556525Y-94823368D01*
X149394010Y-95066589D01*
X149282068Y-95336842D01*
X149225000Y-95623740D01*
X149225000Y-95916260D01*
X149282068Y-96203158D01*
X149394010Y-96473411D01*
X149556525Y-96716632D01*
X149684418Y-96844525D01*
X149586260Y-96825000D01*
X149293740Y-96825000D01*
X149006842Y-96882068D01*
X148736589Y-96994010D01*
X148493368Y-97156525D01*
X148286525Y-97363368D01*
X148170000Y-97537760D01*
X148053475Y-97363368D01*
X147846632Y-97156525D01*
X147603411Y-96994010D01*
X147333158Y-96882068D01*
X147046260Y-96825000D01*
X146753740Y-96825000D01*
X146466842Y-96882068D01*
X146196589Y-96994010D01*
X145953368Y-97156525D01*
X145746525Y-97363368D01*
X145630000Y-97537760D01*
X145513475Y-97363368D01*
X145306632Y-97156525D01*
X145063411Y-96994010D01*
X144793158Y-96882068D01*
X144506260Y-96825000D01*
X144213740Y-96825000D01*
X143926842Y-96882068D01*
X143656589Y-96994010D01*
X143413368Y-97156525D01*
X143206525Y-97363368D01*
X143090000Y-97537760D01*
X142973475Y-97363368D01*
X142766632Y-97156525D01*
X142523411Y-96994010D01*
X142253158Y-96882068D01*
X141966260Y-96825000D01*
X141673740Y-96825000D01*
X141453592Y-96868790D01*
X139459000Y-94874199D01*
X139459000Y-90327322D01*
X139462676Y-90289999D01*
X139459000Y-90252676D01*
X139459000Y-90252667D01*
X139448003Y-90141014D01*
X139404546Y-89997753D01*
X139333975Y-89865725D01*
X139333974Y-89865723D01*
X139262799Y-89778997D01*
X139262798Y-89778996D01*
X139239001Y-89749999D01*
X139210004Y-89726202D01*
X134710002Y-85226201D01*
X134662804Y-85179003D01*
X134639001Y-85149999D01*
X134523276Y-85055026D01*
X134391247Y-84984454D01*
X134247986Y-84940997D01*
X134136333Y-84930000D01*
X134136322Y-84930000D01*
X134099000Y-84926324D01*
X134061678Y-84930000D01*
X128943711Y-84930000D01*
X128899774Y-84886063D01*
X128730256Y-84772795D01*
X128541898Y-84694774D01*
X128341939Y-84655000D01*
X128138061Y-84655000D01*
X127938102Y-84694774D01*
X127749744Y-84772795D01*
X127580226Y-84886063D01*
X127436063Y-85030226D01*
X127322795Y-85199744D01*
X127244774Y-85388102D01*
X127205000Y-85588061D01*
X127205000Y-85791939D01*
X127232462Y-85930000D01*
X126963802Y-85930000D01*
X126275290Y-85241489D01*
X126316205Y-85180256D01*
X126394226Y-84991898D01*
X126434000Y-84791939D01*
X126434000Y-84588061D01*
X126394226Y-84388102D01*
X126316205Y-84199744D01*
X126202937Y-84030226D01*
X126058774Y-83886063D01*
X125889256Y-83772795D01*
X125700898Y-83694774D01*
X125500939Y-83655000D01*
X125297061Y-83655000D01*
X125097102Y-83694774D01*
X124908744Y-83772795D01*
X124739226Y-83886063D01*
X124595063Y-84030226D01*
X124481795Y-84199744D01*
X124403774Y-84388102D01*
X124399000Y-84412103D01*
X124394226Y-84388102D01*
X124316205Y-84199744D01*
X124202937Y-84030226D01*
X124058774Y-83886063D01*
X123889256Y-83772795D01*
X123700898Y-83694774D01*
X123500939Y-83655000D01*
X123297061Y-83655000D01*
X123097102Y-83694774D01*
X122908744Y-83772795D01*
X122739226Y-83886063D01*
X122595063Y-84030226D01*
X122481795Y-84199744D01*
X122453018Y-84269217D01*
X122362804Y-84179003D01*
X122339001Y-84149999D01*
X122223276Y-84055026D01*
X122091247Y-83984454D01*
X121947986Y-83940997D01*
X121836333Y-83930000D01*
X121836322Y-83930000D01*
X121799000Y-83926324D01*
X121761678Y-83930000D01*
X120102711Y-83930000D01*
X120058774Y-83886063D01*
X119889256Y-83772795D01*
X119700898Y-83694774D01*
X119500939Y-83655000D01*
X119297061Y-83655000D01*
X119097102Y-83694774D01*
X118908744Y-83772795D01*
X118739226Y-83886063D01*
X118595063Y-84030226D01*
X118481795Y-84199744D01*
X118403774Y-84388102D01*
X118364000Y-84588061D01*
X99600000Y-84588061D01*
X99600000Y-82923740D01*
X132715000Y-82923740D01*
X132715000Y-83216260D01*
X132772068Y-83503158D01*
X132884010Y-83773411D01*
X133046525Y-84016632D01*
X133253368Y-84223475D01*
X133496589Y-84385990D01*
X133766842Y-84497932D01*
X134053740Y-84555000D01*
X134346260Y-84555000D01*
X134633158Y-84497932D01*
X134903411Y-84385990D01*
X135146632Y-84223475D01*
X135353475Y-84016632D01*
X135470000Y-83842240D01*
X135586525Y-84016632D01*
X135793368Y-84223475D01*
X136036589Y-84385990D01*
X136306842Y-84497932D01*
X136593740Y-84555000D01*
X136886260Y-84555000D01*
X137173158Y-84497932D01*
X137443411Y-84385990D01*
X137686632Y-84223475D01*
X137893475Y-84016632D01*
X138010000Y-83842240D01*
X138126525Y-84016632D01*
X138333368Y-84223475D01*
X138576589Y-84385990D01*
X138846842Y-84497932D01*
X139133740Y-84555000D01*
X139426260Y-84555000D01*
X139713158Y-84497932D01*
X139983411Y-84385990D01*
X140226632Y-84223475D01*
X140433475Y-84016632D01*
X140550000Y-83842240D01*
X140666525Y-84016632D01*
X140873368Y-84223475D01*
X141116589Y-84385990D01*
X141386842Y-84497932D01*
X141673740Y-84555000D01*
X141966260Y-84555000D01*
X142253158Y-84497932D01*
X142523411Y-84385990D01*
X142766632Y-84223475D01*
X142973475Y-84016632D01*
X143090000Y-83842240D01*
X143206525Y-84016632D01*
X143413368Y-84223475D01*
X143656589Y-84385990D01*
X143926842Y-84497932D01*
X144213740Y-84555000D01*
X144506260Y-84555000D01*
X144793158Y-84497932D01*
X145063411Y-84385990D01*
X145306632Y-84223475D01*
X145513475Y-84016632D01*
X145630000Y-83842240D01*
X145746525Y-84016632D01*
X145953368Y-84223475D01*
X146196589Y-84385990D01*
X146466842Y-84497932D01*
X146753740Y-84555000D01*
X147046260Y-84555000D01*
X147333158Y-84497932D01*
X147603411Y-84385990D01*
X147846632Y-84223475D01*
X148053475Y-84016632D01*
X148170000Y-83842240D01*
X148286525Y-84016632D01*
X148493368Y-84223475D01*
X148736589Y-84385990D01*
X149006842Y-84497932D01*
X149293740Y-84555000D01*
X149586260Y-84555000D01*
X149873158Y-84497932D01*
X150143411Y-84385990D01*
X150386632Y-84223475D01*
X150593475Y-84016632D01*
X150710000Y-83842240D01*
X150826525Y-84016632D01*
X151033368Y-84223475D01*
X151276589Y-84385990D01*
X151546842Y-84497932D01*
X151833740Y-84555000D01*
X152126260Y-84555000D01*
X152413158Y-84497932D01*
X152683411Y-84385990D01*
X152926632Y-84223475D01*
X153051710Y-84098397D01*
X153671208Y-84098397D01*
X153748843Y-84347472D01*
X154012883Y-84473371D01*
X154296411Y-84545339D01*
X154588531Y-84560611D01*
X154878019Y-84518599D01*
X155153747Y-84420919D01*
X155291157Y-84347472D01*
X155368792Y-84098397D01*
X154520000Y-83249605D01*
X153671208Y-84098397D01*
X153051710Y-84098397D01*
X153133475Y-84016632D01*
X153249311Y-83843271D01*
X153491603Y-83918792D01*
X154340395Y-83070000D01*
X154699605Y-83070000D01*
X155548397Y-83918792D01*
X155790689Y-83843271D01*
X155906525Y-84016632D01*
X156113368Y-84223475D01*
X156356589Y-84385990D01*
X156626842Y-84497932D01*
X156913740Y-84555000D01*
X157206260Y-84555000D01*
X157493158Y-84497932D01*
X157763411Y-84385990D01*
X158006632Y-84223475D01*
X158213475Y-84016632D01*
X158330000Y-83842240D01*
X158446525Y-84016632D01*
X158653368Y-84223475D01*
X158896589Y-84385990D01*
X159166842Y-84497932D01*
X159453740Y-84555000D01*
X159746260Y-84555000D01*
X160033158Y-84497932D01*
X160303411Y-84385990D01*
X160546632Y-84223475D01*
X160678487Y-84091620D01*
X160700498Y-84164180D01*
X160759463Y-84274494D01*
X160838815Y-84371185D01*
X160935506Y-84450537D01*
X161045820Y-84509502D01*
X161165518Y-84545812D01*
X161290000Y-84558072D01*
X162990000Y-84558072D01*
X163114482Y-84545812D01*
X163234180Y-84509502D01*
X163344494Y-84450537D01*
X163441185Y-84371185D01*
X163520537Y-84274494D01*
X163579502Y-84164180D01*
X163615812Y-84044482D01*
X163628072Y-83920000D01*
X163628072Y-82220000D01*
X163615812Y-82095518D01*
X163579502Y-81975820D01*
X163520537Y-81865506D01*
X163441185Y-81768815D01*
X163344494Y-81689463D01*
X163234180Y-81630498D01*
X163114482Y-81594188D01*
X162990000Y-81581928D01*
X161290000Y-81581928D01*
X161165518Y-81594188D01*
X161045820Y-81630498D01*
X160935506Y-81689463D01*
X160838815Y-81768815D01*
X160759463Y-81865506D01*
X160700498Y-81975820D01*
X160678487Y-82048380D01*
X160546632Y-81916525D01*
X160303411Y-81754010D01*
X160033158Y-81642068D01*
X159746260Y-81585000D01*
X159453740Y-81585000D01*
X159166842Y-81642068D01*
X158896589Y-81754010D01*
X158653368Y-81916525D01*
X158446525Y-82123368D01*
X158330000Y-82297760D01*
X158213475Y-82123368D01*
X158006632Y-81916525D01*
X157763411Y-81754010D01*
X157493158Y-81642068D01*
X157206260Y-81585000D01*
X156913740Y-81585000D01*
X156626842Y-81642068D01*
X156356589Y-81754010D01*
X156113368Y-81916525D01*
X155906525Y-82123368D01*
X155790689Y-82296729D01*
X155548397Y-82221208D01*
X154699605Y-83070000D01*
X154340395Y-83070000D01*
X153491603Y-82221208D01*
X153249311Y-82296729D01*
X153133475Y-82123368D01*
X153051710Y-82041603D01*
X153671208Y-82041603D01*
X154520000Y-82890395D01*
X155368792Y-82041603D01*
X155291157Y-81792528D01*
X155027117Y-81666629D01*
X154743589Y-81594661D01*
X154451469Y-81579389D01*
X154161981Y-81621401D01*
X153886253Y-81719081D01*
X153748843Y-81792528D01*
X153671208Y-82041603D01*
X153051710Y-82041603D01*
X152926632Y-81916525D01*
X152683411Y-81754010D01*
X152413158Y-81642068D01*
X152126260Y-81585000D01*
X151833740Y-81585000D01*
X151546842Y-81642068D01*
X151276589Y-81754010D01*
X151033368Y-81916525D01*
X150826525Y-82123368D01*
X150710000Y-82297760D01*
X150593475Y-82123368D01*
X150386632Y-81916525D01*
X150143411Y-81754010D01*
X149873158Y-81642068D01*
X149586260Y-81585000D01*
X149293740Y-81585000D01*
X149006842Y-81642068D01*
X148736589Y-81754010D01*
X148493368Y-81916525D01*
X148286525Y-82123368D01*
X148170000Y-82297760D01*
X148053475Y-82123368D01*
X147846632Y-81916525D01*
X147603411Y-81754010D01*
X147333158Y-81642068D01*
X147046260Y-81585000D01*
X146753740Y-81585000D01*
X146466842Y-81642068D01*
X146196589Y-81754010D01*
X145953368Y-81916525D01*
X145746525Y-82123368D01*
X145630000Y-82297760D01*
X145513475Y-82123368D01*
X145306632Y-81916525D01*
X145063411Y-81754010D01*
X144793158Y-81642068D01*
X144506260Y-81585000D01*
X144213740Y-81585000D01*
X143926842Y-81642068D01*
X143656589Y-81754010D01*
X143413368Y-81916525D01*
X143206525Y-82123368D01*
X143090000Y-82297760D01*
X142973475Y-82123368D01*
X142766632Y-81916525D01*
X142523411Y-81754010D01*
X142253158Y-81642068D01*
X141966260Y-81585000D01*
X141673740Y-81585000D01*
X141386842Y-81642068D01*
X141116589Y-81754010D01*
X140873368Y-81916525D01*
X140666525Y-82123368D01*
X140550000Y-82297760D01*
X140433475Y-82123368D01*
X140226632Y-81916525D01*
X139983411Y-81754010D01*
X139713158Y-81642068D01*
X139426260Y-81585000D01*
X139133740Y-81585000D01*
X138846842Y-81642068D01*
X138576589Y-81754010D01*
X138333368Y-81916525D01*
X138126525Y-82123368D01*
X138010000Y-82297760D01*
X137893475Y-82123368D01*
X137686632Y-81916525D01*
X137443411Y-81754010D01*
X137173158Y-81642068D01*
X136886260Y-81585000D01*
X136593740Y-81585000D01*
X136306842Y-81642068D01*
X136036589Y-81754010D01*
X135793368Y-81916525D01*
X135586525Y-82123368D01*
X135470000Y-82297760D01*
X135353475Y-82123368D01*
X135146632Y-81916525D01*
X134903411Y-81754010D01*
X134633158Y-81642068D01*
X134346260Y-81585000D01*
X134053740Y-81585000D01*
X133766842Y-81642068D01*
X133496589Y-81754010D01*
X133253368Y-81916525D01*
X133046525Y-82123368D01*
X132884010Y-82366589D01*
X132772068Y-82636842D01*
X132715000Y-82923740D01*
X99600000Y-82923740D01*
X99600000Y-80222279D01*
X99621368Y-80004344D01*
X100055000Y-80004344D01*
X100055000Y-80375656D01*
X100127439Y-80739834D01*
X100269534Y-81082882D01*
X100475825Y-81391618D01*
X100738382Y-81654175D01*
X101047118Y-81860466D01*
X101390166Y-82002561D01*
X101754344Y-82075000D01*
X102125656Y-82075000D01*
X102489834Y-82002561D01*
X102832882Y-81860466D01*
X103141618Y-81654175D01*
X103404175Y-81391618D01*
X103610466Y-81082882D01*
X103752561Y-80739834D01*
X103825000Y-80375656D01*
X103825000Y-80004344D01*
X184055000Y-80004344D01*
X184055000Y-80375656D01*
X184127439Y-80739834D01*
X184269534Y-81082882D01*
X184475825Y-81391618D01*
X184738382Y-81654175D01*
X185047118Y-81860466D01*
X185390166Y-82002561D01*
X185754344Y-82075000D01*
X186125656Y-82075000D01*
X186489834Y-82002561D01*
X186832882Y-81860466D01*
X187141618Y-81654175D01*
X187404175Y-81391618D01*
X187610466Y-81082882D01*
X187752561Y-80739834D01*
X187825000Y-80375656D01*
X187825000Y-80004344D01*
X187752561Y-79640166D01*
X187610466Y-79297118D01*
X187404175Y-78988382D01*
X187141618Y-78725825D01*
X186832882Y-78519534D01*
X186489834Y-78377439D01*
X186125656Y-78305000D01*
X185754344Y-78305000D01*
X185390166Y-78377439D01*
X185047118Y-78519534D01*
X184738382Y-78725825D01*
X184475825Y-78988382D01*
X184269534Y-79297118D01*
X184127439Y-79640166D01*
X184055000Y-80004344D01*
X103825000Y-80004344D01*
X103752561Y-79640166D01*
X103733853Y-79595000D01*
X169751928Y-79595000D01*
X169755000Y-79834250D01*
X169913750Y-79993000D01*
X171013000Y-79993000D01*
X171013000Y-79118750D01*
X171267000Y-79118750D01*
X171267000Y-79993000D01*
X172366250Y-79993000D01*
X172525000Y-79834250D01*
X172528072Y-79595000D01*
X172515812Y-79470518D01*
X172479502Y-79350820D01*
X172420537Y-79240506D01*
X172341185Y-79143815D01*
X172244494Y-79064463D01*
X172134180Y-79005498D01*
X172014482Y-78969188D01*
X171890000Y-78956928D01*
X171425750Y-78960000D01*
X171267000Y-79118750D01*
X171013000Y-79118750D01*
X170854250Y-78960000D01*
X170390000Y-78956928D01*
X170265518Y-78969188D01*
X170145820Y-79005498D01*
X170035506Y-79064463D01*
X169938815Y-79143815D01*
X169859463Y-79240506D01*
X169800498Y-79350820D01*
X169764188Y-79470518D01*
X169751928Y-79595000D01*
X103733853Y-79595000D01*
X103610466Y-79297118D01*
X103404175Y-78988382D01*
X103141618Y-78725825D01*
X102832882Y-78519534D01*
X102489834Y-78377439D01*
X102125656Y-78305000D01*
X101754344Y-78305000D01*
X101390166Y-78377439D01*
X101047118Y-78519534D01*
X100738382Y-78725825D01*
X100475825Y-78988382D01*
X100269534Y-79297118D01*
X100127439Y-79640166D01*
X100055000Y-80004344D01*
X99621368Y-80004344D01*
X99647670Y-79736107D01*
X99779489Y-79299502D01*
X99993600Y-78896815D01*
X100281848Y-78543388D01*
X100633261Y-78252673D01*
X101034439Y-78035758D01*
X101470113Y-77900894D01*
X101954344Y-77850000D01*
X185907721Y-77850000D01*
X186393893Y-77897670D01*
G37*
%TD.AperFunction*%
D20*
X134588638Y-89204440D02*
X134485750Y-89205000D01*
X134327000Y-89363750D01*
X134327000Y-90563000D01*
X135526250Y-90563000D01*
X135685000Y-90404250D01*
X135685560Y-90301362D01*
X135980000Y-90595802D01*
X135980001Y-97031821D01*
X135793368Y-97156525D01*
X135586525Y-97363368D01*
X135470000Y-97537760D01*
X135353475Y-97363368D01*
X135146632Y-97156525D01*
X134972240Y-97040000D01*
X135146632Y-96923475D01*
X135353475Y-96716632D01*
X135515990Y-96473411D01*
X135627932Y-96203158D01*
X135685000Y-95916260D01*
X135685000Y-95623740D01*
X135627932Y-95336842D01*
X135515990Y-95066589D01*
X135353475Y-94823368D01*
X135146632Y-94616525D01*
X134972240Y-94500000D01*
X135146632Y-94383475D01*
X135353475Y-94176632D01*
X135515990Y-93933411D01*
X135627932Y-93663158D01*
X135685000Y-93376260D01*
X135685000Y-93083740D01*
X135627932Y-92796842D01*
X135515990Y-92526589D01*
X135353475Y-92283368D01*
X135221620Y-92151513D01*
X135294180Y-92129502D01*
X135404494Y-92070537D01*
X135501185Y-91991185D01*
X135580537Y-91894494D01*
X135639502Y-91784180D01*
X135675812Y-91664482D01*
X135688072Y-91540000D01*
X135685000Y-90975750D01*
X135526250Y-90817000D01*
X134327000Y-90817000D01*
X134327000Y-90837000D01*
X134073000Y-90837000D01*
X134073000Y-90817000D01*
X134053000Y-90817000D01*
X134053000Y-90563000D01*
X134073000Y-90563000D01*
X134073000Y-89363750D01*
X133914250Y-89205000D01*
X133350000Y-89201928D01*
X133225518Y-89214188D01*
X133105820Y-89250498D01*
X132995506Y-89309463D01*
X132898815Y-89388815D01*
X132828007Y-89475095D01*
X132804546Y-89397753D01*
X132733974Y-89265724D01*
X132662799Y-89178997D01*
X132639001Y-89149999D01*
X132610004Y-89126202D01*
X131933801Y-88450000D01*
X133834199Y-88450000D01*
X134588638Y-89204440D01*
%TA.AperFunction,Conductor*%
D21*
G36*
X134588638Y-89204440D02*
G01*
X134485750Y-89205000D01*
X134327000Y-89363750D01*
X134327000Y-90563000D01*
X135526250Y-90563000D01*
X135685000Y-90404250D01*
X135685560Y-90301362D01*
X135980000Y-90595802D01*
X135980001Y-97031821D01*
X135793368Y-97156525D01*
X135586525Y-97363368D01*
X135470000Y-97537760D01*
X135353475Y-97363368D01*
X135146632Y-97156525D01*
X134972240Y-97040000D01*
X135146632Y-96923475D01*
X135353475Y-96716632D01*
X135515990Y-96473411D01*
X135627932Y-96203158D01*
X135685000Y-95916260D01*
X135685000Y-95623740D01*
X135627932Y-95336842D01*
X135515990Y-95066589D01*
X135353475Y-94823368D01*
X135146632Y-94616525D01*
X134972240Y-94500000D01*
X135146632Y-94383475D01*
X135353475Y-94176632D01*
X135515990Y-93933411D01*
X135627932Y-93663158D01*
X135685000Y-93376260D01*
X135685000Y-93083740D01*
X135627932Y-92796842D01*
X135515990Y-92526589D01*
X135353475Y-92283368D01*
X135221620Y-92151513D01*
X135294180Y-92129502D01*
X135404494Y-92070537D01*
X135501185Y-91991185D01*
X135580537Y-91894494D01*
X135639502Y-91784180D01*
X135675812Y-91664482D01*
X135688072Y-91540000D01*
X135685000Y-90975750D01*
X135526250Y-90817000D01*
X134327000Y-90817000D01*
X134327000Y-90837000D01*
X134073000Y-90837000D01*
X134073000Y-90817000D01*
X134053000Y-90817000D01*
X134053000Y-90563000D01*
X134073000Y-90563000D01*
X134073000Y-89363750D01*
X133914250Y-89205000D01*
X133350000Y-89201928D01*
X133225518Y-89214188D01*
X133105820Y-89250498D01*
X132995506Y-89309463D01*
X132898815Y-89388815D01*
X132828007Y-89475095D01*
X132804546Y-89397753D01*
X132733974Y-89265724D01*
X132662799Y-89178997D01*
X132639001Y-89149999D01*
X132610004Y-89126202D01*
X131933801Y-88450000D01*
X133834199Y-88450000D01*
X134588638Y-89204440D01*
G37*
%TD.AperFunction*%
%TD*%
M02*
