M48
; DRILL file {KiCad (5.1.10)-1} date 08/31/21 17:23:00
; FORMAT={-:-/ absolute / inch / decimal}
; #@! TF.CreationDate,2021-08-31T17:23:00+02:00
; #@! TF.GenerationSoftware,Kicad,Pcbnew,(5.1.10)-1
; #@! TF.FileFunction,Plated,1,2,PTH
FMAT,2
INCH
T1C0.0157
T2C0.0295
T3C0.0354
T4C0.0394
%
G90
G05
T1
X3.9789Y-3.7673
X3.9839Y-3.3736
X4.0182Y-3.7673
X4.0232Y-3.3736
X4.0576Y-3.7673
X4.0626Y-3.3736
X4.097Y-3.7673
X4.102Y-3.3736
X4.1363Y-3.7673
X4.1413Y-3.3736
X4.1757Y-3.7673
X4.1807Y-3.3736
X4.2201Y-3.4031
X4.2201Y-3.4425
X4.2201Y-3.4819
X4.2201Y-3.5213
X4.2201Y-3.6197
X4.2201Y-3.6591
X4.2201Y-3.6984
X4.2201Y-3.7378
X4.2626Y-3.6196
X4.2634Y-3.5213
X4.3026Y-3.6246
X4.3041Y-3.5246
X4.3401Y-3.6434
X4.3441Y-3.5321
X4.3726Y-3.6696
X4.3816Y-3.5446
X4.3976Y-3.7021
X4.4116Y-3.5646
X4.4126Y-3.7396
X4.4139Y-3.7796
X4.4144Y-3.8213
X4.4144Y-3.8663
X4.4416Y-3.5896
X4.4716Y-3.6196
X4.4916Y-3.6521
X4.5066Y-3.6896
X4.5191Y-3.7271
X4.5201Y-3.7671
X4.5202Y-3.8096
X4.7007Y-3.3343
X4.8582Y-3.3343
X4.937Y-3.3343
X5.0488Y-3.3736
X5.1504Y-3.2705
X5.6835Y-3.3805
X6.1157Y-3.7713
X6.1591Y-3.7181
X6.513Y-3.9051
X6.5134Y-3.2713
X6.5445Y-3.4858
X6.7512Y-3.9839
X7.1429Y-3.9051
X7.2516Y-3.1256
T2
X7.0779Y-3.4518
X7.0779Y-3.5305
X7.0779Y-3.6093
X7.0779Y-3.688
X7.3557Y-3.3605
X7.3557Y-3.4392
X7.3557Y-3.518
X7.3557Y-3.7089
X7.3557Y-3.7876
T3
X4.1909Y-3.5705
T4
X5.2835Y-3.2705
X5.2835Y-3.5705
X5.2835Y-3.6705
X5.2835Y-3.7705
X5.2835Y-3.8705
X5.3835Y-3.2705
X5.3835Y-3.8705
X5.4835Y-3.2705
X5.4835Y-3.8705
X5.5835Y-3.2705
X5.5835Y-3.8705
X5.6835Y-3.2705
X5.6835Y-3.8705
X5.7835Y-3.2705
X5.7835Y-3.8705
X5.8835Y-3.2705
X5.8835Y-3.8705
X5.9335Y-3.7705
X5.9835Y-3.2705
X5.9835Y-3.8705
X6.0335Y-3.7705
X6.0835Y-3.2705
X6.0835Y-3.8705
X6.1835Y-3.2705
X6.1835Y-3.8705
X6.2835Y-3.2705
X6.2835Y-3.8705
X6.3835Y-3.2705
X6.3835Y-3.8705
X6.7614Y-3.3703
X6.7614Y-3.4703
X6.7614Y-3.5703
X6.7614Y-3.6703
X6.7614Y-3.7703
T0
M30
