%TF.GenerationSoftware,KiCad,Pcbnew,(5.1.10)-1*%
%TF.CreationDate,2021-07-05T11:04:18+02:00*%
%TF.ProjectId,LoRaProMini,4c6f5261-5072-46f4-9d69-6e692e6b6963,2.1*%
%TF.SameCoordinates,Original*%
%TF.FileFunction,Legend,Top*%
%TF.FilePolarity,Positive*%
%FSLAX46Y46*%
G04 Gerber Fmt 4.6, Leading zero omitted, Abs format (unit mm)*
G04 Created by KiCad (PCBNEW (5.1.10)-1) date 2021-07-05 11:04:18*
%MOMM*%
%LPD*%
G01*
G04 APERTURE LIST*
%ADD10C,0.150000*%
%ADD11C,0.180000*%
%ADD12C,0.250000*%
%ADD13C,0.120000*%
%ADD14C,0.152400*%
%ADD15C,0.177800*%
G04 APERTURE END LIST*
D10*
X170130000Y-84190000D02*
X166730000Y-84190000D01*
X170130000Y-97190000D02*
X170130000Y-84190000D01*
X166730000Y-97190000D02*
X170130000Y-97190000D01*
X166730000Y-84190000D02*
X166730000Y-97190000D01*
D11*
X168142380Y-96594761D02*
X167142380Y-96594761D01*
X168142380Y-96023333D01*
X167142380Y-96023333D01*
X167618571Y-95547142D02*
X167618571Y-95213809D01*
X168142380Y-95070952D02*
X168142380Y-95547142D01*
X167142380Y-95547142D01*
X167142380Y-95070952D01*
X167142380Y-94785238D02*
X168142380Y-94451904D01*
X167142380Y-94118571D01*
X167618571Y-93785238D02*
X167618571Y-93451904D01*
X168142380Y-93309047D02*
X168142380Y-93785238D01*
X167142380Y-93785238D01*
X167142380Y-93309047D01*
X168142380Y-92309047D02*
X167666190Y-92642380D01*
X168142380Y-92880476D02*
X167142380Y-92880476D01*
X167142380Y-92499523D01*
X167190000Y-92404285D01*
X167237619Y-92356666D01*
X167332857Y-92309047D01*
X167475714Y-92309047D01*
X167570952Y-92356666D01*
X167618571Y-92404285D01*
X167666190Y-92499523D01*
X167666190Y-92880476D01*
X168047142Y-90547142D02*
X168094761Y-90594761D01*
X168142380Y-90737619D01*
X168142380Y-90832857D01*
X168094761Y-90975714D01*
X167999523Y-91070952D01*
X167904285Y-91118571D01*
X167713809Y-91166190D01*
X167570952Y-91166190D01*
X167380476Y-91118571D01*
X167285238Y-91070952D01*
X167190000Y-90975714D01*
X167142380Y-90832857D01*
X167142380Y-90737619D01*
X167190000Y-90594761D01*
X167237619Y-90547142D01*
X167142380Y-89928095D02*
X167142380Y-89737619D01*
X167190000Y-89642380D01*
X167285238Y-89547142D01*
X167475714Y-89499523D01*
X167809047Y-89499523D01*
X167999523Y-89547142D01*
X168094761Y-89642380D01*
X168142380Y-89737619D01*
X168142380Y-89928095D01*
X168094761Y-90023333D01*
X167999523Y-90118571D01*
X167809047Y-90166190D01*
X167475714Y-90166190D01*
X167285238Y-90118571D01*
X167190000Y-90023333D01*
X167142380Y-89928095D01*
X168142380Y-89070952D02*
X167142380Y-89070952D01*
X168142380Y-88499523D01*
X167142380Y-88499523D01*
X168142380Y-88023333D02*
X167142380Y-88023333D01*
X168142380Y-87451904D01*
X167142380Y-87451904D01*
X167618571Y-86975714D02*
X167618571Y-86642380D01*
X168142380Y-86499523D02*
X168142380Y-86975714D01*
X167142380Y-86975714D01*
X167142380Y-86499523D01*
X168047142Y-85499523D02*
X168094761Y-85547142D01*
X168142380Y-85690000D01*
X168142380Y-85785238D01*
X168094761Y-85928095D01*
X167999523Y-86023333D01*
X167904285Y-86070952D01*
X167713809Y-86118571D01*
X167570952Y-86118571D01*
X167380476Y-86070952D01*
X167285238Y-86023333D01*
X167190000Y-85928095D01*
X167142380Y-85785238D01*
X167142380Y-85690000D01*
X167190000Y-85547142D01*
X167237619Y-85499523D01*
X167142380Y-85213809D02*
X167142380Y-84642380D01*
X168142380Y-84928095D02*
X167142380Y-84928095D01*
X168822380Y-96190000D02*
X168822380Y-95570952D01*
X169203333Y-95904285D01*
X169203333Y-95761428D01*
X169250952Y-95666190D01*
X169298571Y-95618571D01*
X169393809Y-95570952D01*
X169631904Y-95570952D01*
X169727142Y-95618571D01*
X169774761Y-95666190D01*
X169822380Y-95761428D01*
X169822380Y-96047142D01*
X169774761Y-96142380D01*
X169727142Y-96190000D01*
X169727142Y-95142380D02*
X169774761Y-95094761D01*
X169822380Y-95142380D01*
X169774761Y-95190000D01*
X169727142Y-95142380D01*
X169822380Y-95142380D01*
X168822380Y-94761428D02*
X168822380Y-94142380D01*
X169203333Y-94475714D01*
X169203333Y-94332857D01*
X169250952Y-94237619D01*
X169298571Y-94190000D01*
X169393809Y-94142380D01*
X169631904Y-94142380D01*
X169727142Y-94190000D01*
X169774761Y-94237619D01*
X169822380Y-94332857D01*
X169822380Y-94618571D01*
X169774761Y-94713809D01*
X169727142Y-94761428D01*
X168822380Y-93856666D02*
X169822380Y-93523333D01*
X168822380Y-93190000D01*
X169536666Y-92142380D02*
X169536666Y-91666190D01*
X169822380Y-92237619D02*
X168822380Y-91904285D01*
X169822380Y-91570952D01*
X169822380Y-91237619D02*
X168822380Y-91237619D01*
X169822380Y-90666190D01*
X168822380Y-90666190D01*
X169822380Y-90190000D02*
X168822380Y-90190000D01*
X168822380Y-89951904D01*
X168870000Y-89809047D01*
X168965238Y-89713809D01*
X169060476Y-89666190D01*
X169250952Y-89618571D01*
X169393809Y-89618571D01*
X169584285Y-89666190D01*
X169679523Y-89713809D01*
X169774761Y-89809047D01*
X169822380Y-89951904D01*
X169822380Y-90190000D01*
X169822380Y-88428095D02*
X168822380Y-88428095D01*
X168822380Y-88047142D01*
X168870000Y-87951904D01*
X168917619Y-87904285D01*
X169012857Y-87856666D01*
X169155714Y-87856666D01*
X169250952Y-87904285D01*
X169298571Y-87951904D01*
X169346190Y-88047142D01*
X169346190Y-88428095D01*
X168822380Y-87523333D02*
X169822380Y-87285238D01*
X169108095Y-87094761D01*
X169822380Y-86904285D01*
X168822380Y-86666190D01*
X169822380Y-85713809D02*
X169346190Y-86047142D01*
X169822380Y-86285238D02*
X168822380Y-86285238D01*
X168822380Y-85904285D01*
X168870000Y-85809047D01*
X168917619Y-85761428D01*
X169012857Y-85713809D01*
X169155714Y-85713809D01*
X169250952Y-85761428D01*
X169298571Y-85809047D01*
X169346190Y-85904285D01*
X169346190Y-86285238D01*
X169727142Y-85285238D02*
X169774761Y-85237619D01*
X169822380Y-85285238D01*
X169774761Y-85332857D01*
X169727142Y-85285238D01*
X169822380Y-85285238D01*
X169441428Y-85285238D02*
X168870000Y-85332857D01*
X168822380Y-85285238D01*
X168870000Y-85237619D01*
X169441428Y-85285238D01*
X168822380Y-85285238D01*
D10*
X173388095Y-86322380D02*
X173959523Y-86322380D01*
X173673809Y-87322380D02*
X173673809Y-86322380D01*
X174197619Y-86322380D02*
X174864285Y-87322380D01*
X174864285Y-86322380D02*
X174197619Y-87322380D01*
X175245238Y-87322380D02*
X175245238Y-86322380D01*
X175483333Y-86322380D01*
X175626190Y-86370000D01*
X175721428Y-86465238D01*
X175769047Y-86560476D01*
X175816666Y-86750952D01*
X175816666Y-86893809D01*
X175769047Y-87084285D01*
X175721428Y-87179523D01*
X175626190Y-87274761D01*
X175483333Y-87322380D01*
X175245238Y-87322380D01*
X174102380Y-89862380D02*
X173769047Y-89386190D01*
X173530951Y-89862380D02*
X173530951Y-88862380D01*
X173911904Y-88862380D01*
X174007142Y-88910000D01*
X174054761Y-88957619D01*
X174102380Y-89052857D01*
X174102380Y-89195714D01*
X174054761Y-89290952D01*
X174007142Y-89338571D01*
X173911904Y-89386190D01*
X173530951Y-89386190D01*
X174435713Y-88862380D02*
X175102380Y-89862380D01*
X175102380Y-88862380D02*
X174435713Y-89862380D01*
X175483332Y-89862380D02*
X175483332Y-88862380D01*
X175721427Y-88862380D01*
X175864285Y-88910000D01*
X175959523Y-89005238D01*
X176007142Y-89100476D01*
X176054761Y-89290952D01*
X176054761Y-89433809D01*
X176007142Y-89624285D01*
X175959523Y-89719523D01*
X175864285Y-89814761D01*
X175721427Y-89862380D01*
X175483332Y-89862380D01*
X174054761Y-91450000D02*
X173959523Y-91402380D01*
X173816666Y-91402380D01*
X173673808Y-91450000D01*
X173578570Y-91545238D01*
X173530951Y-91640476D01*
X173483332Y-91830952D01*
X173483332Y-91973809D01*
X173530951Y-92164285D01*
X173578570Y-92259523D01*
X173673808Y-92354761D01*
X173816666Y-92402380D01*
X173911904Y-92402380D01*
X174054761Y-92354761D01*
X174102380Y-92307142D01*
X174102380Y-91973809D01*
X173911904Y-91973809D01*
X174530951Y-92402380D02*
X174530951Y-91402380D01*
X175102380Y-92402380D01*
X175102380Y-91402380D01*
X175578570Y-92402380D02*
X175578570Y-91402380D01*
X175816666Y-91402380D01*
X175959523Y-91450000D01*
X176054761Y-91545238D01*
X176102380Y-91640476D01*
X176149999Y-91830952D01*
X176149999Y-91973809D01*
X176102380Y-92164285D01*
X176054761Y-92259523D01*
X175959523Y-92354761D01*
X175816666Y-92402380D01*
X175578570Y-92402380D01*
X173435713Y-93942380D02*
X174054761Y-93942380D01*
X173721427Y-94323333D01*
X173864284Y-94323333D01*
X173959523Y-94370952D01*
X174007142Y-94418571D01*
X174054761Y-94513809D01*
X174054761Y-94751904D01*
X174007142Y-94847142D01*
X173959523Y-94894761D01*
X173864284Y-94942380D01*
X173578570Y-94942380D01*
X173483332Y-94894761D01*
X173435713Y-94847142D01*
X174483332Y-94847142D02*
X174530951Y-94894761D01*
X174483332Y-94942380D01*
X174435713Y-94894761D01*
X174483332Y-94847142D01*
X174483332Y-94942380D01*
X174864284Y-93942380D02*
X175483332Y-93942380D01*
X175149999Y-94323333D01*
X175292856Y-94323333D01*
X175388094Y-94370952D01*
X175435713Y-94418571D01*
X175483332Y-94513809D01*
X175483332Y-94751904D01*
X175435713Y-94847142D01*
X175388094Y-94894761D01*
X175292856Y-94942380D01*
X175007142Y-94942380D01*
X174911904Y-94894761D01*
X174864284Y-94847142D01*
X175769046Y-93942380D02*
X176102380Y-94942380D01*
X176435713Y-93942380D01*
X110387619Y-88358928D02*
X110340000Y-88311309D01*
X110292380Y-88216071D01*
X110292380Y-87977976D01*
X110340000Y-87882738D01*
X110387619Y-87835119D01*
X110482857Y-87787500D01*
X110578095Y-87787500D01*
X110720952Y-87835119D01*
X111292380Y-88406547D01*
X111292380Y-87787500D01*
X110292380Y-87168452D02*
X110292380Y-87073214D01*
X110340000Y-86977976D01*
X110387619Y-86930357D01*
X110482857Y-86882738D01*
X110673333Y-86835119D01*
X110911428Y-86835119D01*
X111101904Y-86882738D01*
X111197142Y-86930357D01*
X111244761Y-86977976D01*
X111292380Y-87073214D01*
X111292380Y-87168452D01*
X111244761Y-87263690D01*
X111197142Y-87311309D01*
X111101904Y-87358928D01*
X110911428Y-87406547D01*
X110673333Y-87406547D01*
X110482857Y-87358928D01*
X110387619Y-87311309D01*
X110340000Y-87263690D01*
X110292380Y-87168452D01*
X110387619Y-86454166D02*
X110340000Y-86406547D01*
X110292380Y-86311309D01*
X110292380Y-86073214D01*
X110340000Y-85977976D01*
X110387619Y-85930357D01*
X110482857Y-85882738D01*
X110578095Y-85882738D01*
X110720952Y-85930357D01*
X111292380Y-86501785D01*
X111292380Y-85882738D01*
X111292380Y-84930357D02*
X111292380Y-85501785D01*
X111292380Y-85216071D02*
X110292380Y-85216071D01*
X110435238Y-85311309D01*
X110530476Y-85406547D01*
X110578095Y-85501785D01*
X110244761Y-83787500D02*
X111530476Y-84644642D01*
X110292380Y-83263690D02*
X110292380Y-83168452D01*
X110340000Y-83073214D01*
X110387619Y-83025595D01*
X110482857Y-82977976D01*
X110673333Y-82930357D01*
X110911428Y-82930357D01*
X111101904Y-82977976D01*
X111197142Y-83025595D01*
X111244761Y-83073214D01*
X111292380Y-83168452D01*
X111292380Y-83263690D01*
X111244761Y-83358928D01*
X111197142Y-83406547D01*
X111101904Y-83454166D01*
X110911428Y-83501785D01*
X110673333Y-83501785D01*
X110482857Y-83454166D01*
X110387619Y-83406547D01*
X110340000Y-83358928D01*
X110292380Y-83263690D01*
X110292380Y-82597023D02*
X110292380Y-81930357D01*
X111292380Y-82358928D01*
X111292380Y-98928857D02*
X110816190Y-99262190D01*
X111292380Y-99500285D02*
X110292380Y-99500285D01*
X110292380Y-99119333D01*
X110340000Y-99024095D01*
X110387619Y-98976476D01*
X110482857Y-98928857D01*
X110625714Y-98928857D01*
X110720952Y-98976476D01*
X110768571Y-99024095D01*
X110816190Y-99119333D01*
X110816190Y-99500285D01*
X110768571Y-98500285D02*
X110768571Y-98166952D01*
X111292380Y-98024095D02*
X111292380Y-98500285D01*
X110292380Y-98500285D01*
X110292380Y-98024095D01*
X110292380Y-97738380D02*
X111292380Y-97405047D01*
X110292380Y-97071714D01*
X110387619Y-96024095D02*
X110340000Y-95976476D01*
X110292380Y-95881238D01*
X110292380Y-95643142D01*
X110340000Y-95547904D01*
X110387619Y-95500285D01*
X110482857Y-95452666D01*
X110578095Y-95452666D01*
X110720952Y-95500285D01*
X111292380Y-96071714D01*
X111292380Y-95452666D01*
X111197142Y-95024095D02*
X111244761Y-94976476D01*
X111292380Y-95024095D01*
X111244761Y-95071714D01*
X111197142Y-95024095D01*
X111292380Y-95024095D01*
X111292380Y-94024095D02*
X111292380Y-94595523D01*
X111292380Y-94309809D02*
X110292380Y-94309809D01*
X110435238Y-94405047D01*
X110530476Y-94500285D01*
X110578095Y-94595523D01*
X120792380Y-93004285D02*
X120316190Y-93337619D01*
X120792380Y-93575714D02*
X119792380Y-93575714D01*
X119792380Y-93194761D01*
X119840000Y-93099523D01*
X119887619Y-93051904D01*
X119982857Y-93004285D01*
X120125714Y-93004285D01*
X120220952Y-93051904D01*
X120268571Y-93099523D01*
X120316190Y-93194761D01*
X120316190Y-93575714D01*
X120268571Y-92242380D02*
X120268571Y-92575714D01*
X120792380Y-92575714D02*
X119792380Y-92575714D01*
X119792380Y-92099523D01*
X120792380Y-91718571D02*
X119792380Y-91718571D01*
X120506666Y-91385238D01*
X119792380Y-91051904D01*
X120792380Y-91051904D01*
X120792380Y-90528095D02*
X120792380Y-90337619D01*
X120744761Y-90242380D01*
X120697142Y-90194761D01*
X120554285Y-90099523D01*
X120363809Y-90051904D01*
X119982857Y-90051904D01*
X119887619Y-90099523D01*
X119840000Y-90147142D01*
X119792380Y-90242380D01*
X119792380Y-90432857D01*
X119840000Y-90528095D01*
X119887619Y-90575714D01*
X119982857Y-90623333D01*
X120220952Y-90623333D01*
X120316190Y-90575714D01*
X120363809Y-90528095D01*
X120411428Y-90432857D01*
X120411428Y-90242380D01*
X120363809Y-90147142D01*
X120316190Y-90099523D01*
X120220952Y-90051904D01*
X119792380Y-89147142D02*
X119792380Y-89623333D01*
X120268571Y-89670952D01*
X120220952Y-89623333D01*
X120173333Y-89528095D01*
X120173333Y-89290000D01*
X120220952Y-89194761D01*
X120268571Y-89147142D01*
X120363809Y-89099523D01*
X120601904Y-89099523D01*
X120697142Y-89147142D01*
X120744761Y-89194761D01*
X120792380Y-89290000D01*
X120792380Y-89528095D01*
X120744761Y-89623333D01*
X120697142Y-89670952D01*
X119792380Y-88766190D02*
X120792380Y-88528095D01*
X120078095Y-88337619D01*
X120792380Y-88147142D01*
X119792380Y-87909047D01*
X102356142Y-84656666D02*
X102832333Y-84656666D01*
X102260904Y-84942380D02*
X102594238Y-83942380D01*
X102927571Y-84942380D01*
X103260904Y-84942380D02*
X103260904Y-83942380D01*
X103832333Y-84942380D01*
X103832333Y-83942380D01*
X104165666Y-83942380D02*
X104737095Y-83942380D01*
X104451380Y-84942380D02*
X104451380Y-83942380D01*
X145681666Y-93737619D02*
X145681666Y-93261428D01*
X145967380Y-93832857D02*
X144967380Y-93499523D01*
X145967380Y-93166190D01*
X145967380Y-92261428D02*
X145491190Y-92594761D01*
X145967380Y-92832857D02*
X144967380Y-92832857D01*
X144967380Y-92451904D01*
X145015000Y-92356666D01*
X145062619Y-92309047D01*
X145157857Y-92261428D01*
X145300714Y-92261428D01*
X145395952Y-92309047D01*
X145443571Y-92356666D01*
X145491190Y-92451904D01*
X145491190Y-92832857D01*
X145967380Y-91832857D02*
X144967380Y-91832857D01*
X144967380Y-91594761D01*
X145015000Y-91451904D01*
X145110238Y-91356666D01*
X145205476Y-91309047D01*
X145395952Y-91261428D01*
X145538809Y-91261428D01*
X145729285Y-91309047D01*
X145824523Y-91356666D01*
X145919761Y-91451904D01*
X145967380Y-91594761D01*
X145967380Y-91832857D01*
X144967380Y-90832857D02*
X145776904Y-90832857D01*
X145872142Y-90785238D01*
X145919761Y-90737619D01*
X145967380Y-90642380D01*
X145967380Y-90451904D01*
X145919761Y-90356666D01*
X145872142Y-90309047D01*
X145776904Y-90261428D01*
X144967380Y-90261428D01*
X145967380Y-89785238D02*
X144967380Y-89785238D01*
X145967380Y-89309047D02*
X144967380Y-89309047D01*
X145967380Y-88737619D01*
X144967380Y-88737619D01*
X144967380Y-88070952D02*
X144967380Y-87880476D01*
X145015000Y-87785238D01*
X145110238Y-87690000D01*
X145300714Y-87642380D01*
X145634047Y-87642380D01*
X145824523Y-87690000D01*
X145919761Y-87785238D01*
X145967380Y-87880476D01*
X145967380Y-88070952D01*
X145919761Y-88166190D01*
X145824523Y-88261428D01*
X145634047Y-88309047D01*
X145300714Y-88309047D01*
X145110238Y-88261428D01*
X145015000Y-88166190D01*
X144967380Y-88070952D01*
X147617380Y-93928095D02*
X146617380Y-93928095D01*
X146617380Y-93547142D01*
X146665000Y-93451904D01*
X146712619Y-93404285D01*
X146807857Y-93356666D01*
X146950714Y-93356666D01*
X147045952Y-93404285D01*
X147093571Y-93451904D01*
X147141190Y-93547142D01*
X147141190Y-93928095D01*
X147617380Y-92356666D02*
X147141190Y-92690000D01*
X147617380Y-92928095D02*
X146617380Y-92928095D01*
X146617380Y-92547142D01*
X146665000Y-92451904D01*
X146712619Y-92404285D01*
X146807857Y-92356666D01*
X146950714Y-92356666D01*
X147045952Y-92404285D01*
X147093571Y-92451904D01*
X147141190Y-92547142D01*
X147141190Y-92928095D01*
X146617380Y-91737619D02*
X146617380Y-91547142D01*
X146665000Y-91451904D01*
X146760238Y-91356666D01*
X146950714Y-91309047D01*
X147284047Y-91309047D01*
X147474523Y-91356666D01*
X147569761Y-91451904D01*
X147617380Y-91547142D01*
X147617380Y-91737619D01*
X147569761Y-91832857D01*
X147474523Y-91928095D01*
X147284047Y-91975714D01*
X146950714Y-91975714D01*
X146760238Y-91928095D01*
X146665000Y-91832857D01*
X146617380Y-91737619D01*
X147617380Y-90118571D02*
X146617380Y-90118571D01*
X147331666Y-89785238D01*
X146617380Y-89451904D01*
X147617380Y-89451904D01*
X147617380Y-88975714D02*
X146617380Y-88975714D01*
X147617380Y-88499523D02*
X146617380Y-88499523D01*
X147617380Y-87928095D01*
X146617380Y-87928095D01*
X147617380Y-87451904D02*
X146617380Y-87451904D01*
X182982380Y-93532475D02*
X181982380Y-93532475D01*
X182077619Y-93103904D02*
X182030000Y-93056285D01*
X181982380Y-92961047D01*
X181982380Y-92722952D01*
X182030000Y-92627713D01*
X182077619Y-92580094D01*
X182172857Y-92532475D01*
X182268095Y-92532475D01*
X182410952Y-92580094D01*
X182982380Y-93151523D01*
X182982380Y-92532475D01*
X182887142Y-91532475D02*
X182934761Y-91580094D01*
X182982380Y-91722952D01*
X182982380Y-91818190D01*
X182934761Y-91961047D01*
X182839523Y-92056285D01*
X182744285Y-92103904D01*
X182553809Y-92151523D01*
X182410952Y-92151523D01*
X182220476Y-92103904D01*
X182125238Y-92056285D01*
X182030000Y-91961047D01*
X181982380Y-91818190D01*
X181982380Y-91722952D01*
X182030000Y-91580094D01*
X182077619Y-91532475D01*
X182458571Y-90008666D02*
X182506190Y-89865809D01*
X182553809Y-89818190D01*
X182649047Y-89770571D01*
X182791904Y-89770571D01*
X182887142Y-89818190D01*
X182934761Y-89865809D01*
X182982380Y-89961047D01*
X182982380Y-90341999D01*
X181982380Y-90341999D01*
X181982380Y-90008666D01*
X182030000Y-89913428D01*
X182077619Y-89865809D01*
X182172857Y-89818190D01*
X182268095Y-89818190D01*
X182363333Y-89865809D01*
X182410952Y-89913428D01*
X182458571Y-90008666D01*
X182458571Y-90341999D01*
X181982380Y-89341999D02*
X182791904Y-89341999D01*
X182887142Y-89294380D01*
X182934761Y-89246761D01*
X182982380Y-89151523D01*
X182982380Y-88961047D01*
X182934761Y-88865809D01*
X182887142Y-88818190D01*
X182791904Y-88770571D01*
X181982380Y-88770571D01*
X182934761Y-88341999D02*
X182982380Y-88199142D01*
X182982380Y-87961047D01*
X182934761Y-87865809D01*
X182887142Y-87818190D01*
X182791904Y-87770571D01*
X182696666Y-87770571D01*
X182601428Y-87818190D01*
X182553809Y-87865809D01*
X182506190Y-87961047D01*
X182458571Y-88151523D01*
X182410952Y-88246761D01*
X182363333Y-88294380D01*
X182268095Y-88341999D01*
X182172857Y-88341999D01*
X182077619Y-88294380D01*
X182030000Y-88246761D01*
X181982380Y-88151523D01*
X181982380Y-87913428D01*
X182030000Y-87770571D01*
X190382380Y-96539333D02*
X189382380Y-96539333D01*
X189382380Y-96158380D01*
X189430000Y-96063142D01*
X189477619Y-96015523D01*
X189572857Y-95967904D01*
X189715714Y-95967904D01*
X189810952Y-96015523D01*
X189858571Y-96063142D01*
X189906190Y-96158380D01*
X189906190Y-96539333D01*
X189382380Y-95634571D02*
X190382380Y-95396476D01*
X189668095Y-95206000D01*
X190382380Y-95015523D01*
X189382380Y-94777428D01*
X190382380Y-93825047D02*
X189906190Y-94158380D01*
X190382380Y-94396476D02*
X189382380Y-94396476D01*
X189382380Y-94015523D01*
X189430000Y-93920285D01*
X189477619Y-93872666D01*
X189572857Y-93825047D01*
X189715714Y-93825047D01*
X189810952Y-93872666D01*
X189858571Y-93920285D01*
X189906190Y-94015523D01*
X189906190Y-94396476D01*
X189382380Y-90221333D02*
X189382380Y-90030857D01*
X189430000Y-89935619D01*
X189525238Y-89840380D01*
X189715714Y-89792761D01*
X190049047Y-89792761D01*
X190239523Y-89840380D01*
X190334761Y-89935619D01*
X190382380Y-90030857D01*
X190382380Y-90221333D01*
X190334761Y-90316571D01*
X190239523Y-90411809D01*
X190049047Y-90459428D01*
X189715714Y-90459428D01*
X189525238Y-90411809D01*
X189430000Y-90316571D01*
X189382380Y-90221333D01*
X190382380Y-89364190D02*
X189382380Y-89364190D01*
X190382380Y-88792761D01*
X189382380Y-88792761D01*
X189858571Y-88316571D02*
X189858571Y-87983238D01*
X190382380Y-87840380D02*
X190382380Y-88316571D01*
X189382380Y-88316571D01*
X189382380Y-87840380D01*
X189382380Y-87507047D02*
X190382380Y-87268952D01*
X189668095Y-87078476D01*
X190382380Y-86888000D01*
X189382380Y-86649904D01*
X190382380Y-86268952D02*
X189382380Y-86268952D01*
X190382380Y-85221333D02*
X189906190Y-85554666D01*
X190382380Y-85792761D02*
X189382380Y-85792761D01*
X189382380Y-85411809D01*
X189430000Y-85316571D01*
X189477619Y-85268952D01*
X189572857Y-85221333D01*
X189715714Y-85221333D01*
X189810952Y-85268952D01*
X189858571Y-85316571D01*
X189906190Y-85411809D01*
X189906190Y-85792761D01*
X189858571Y-84792761D02*
X189858571Y-84459428D01*
X190382380Y-84316571D02*
X190382380Y-84792761D01*
X189382380Y-84792761D01*
X189382380Y-84316571D01*
X154120952Y-90142380D02*
X154120952Y-90856666D01*
X154073333Y-90999523D01*
X153978095Y-91094761D01*
X153835238Y-91142380D01*
X153740000Y-91142380D01*
X155073333Y-91142380D02*
X154597142Y-91142380D01*
X154597142Y-90142380D01*
X155978095Y-91047142D02*
X155930476Y-91094761D01*
X155787619Y-91142380D01*
X155692380Y-91142380D01*
X155549523Y-91094761D01*
X155454285Y-90999523D01*
X155406666Y-90904285D01*
X155359047Y-90713809D01*
X155359047Y-90570952D01*
X155406666Y-90380476D01*
X155454285Y-90285238D01*
X155549523Y-90190000D01*
X155692380Y-90142380D01*
X155787619Y-90142380D01*
X155930476Y-90190000D01*
X155978095Y-90237619D01*
X156692380Y-90142380D02*
X156692380Y-90856666D01*
X156644761Y-90999523D01*
X156549523Y-91094761D01*
X156406666Y-91142380D01*
X156311428Y-91142380D01*
X157644761Y-91142380D02*
X157168571Y-91142380D01*
X157168571Y-90142380D01*
X158549523Y-91047142D02*
X158501904Y-91094761D01*
X158359047Y-91142380D01*
X158263809Y-91142380D01*
X158120952Y-91094761D01*
X158025714Y-90999523D01*
X157978095Y-90904285D01*
X157930476Y-90713809D01*
X157930476Y-90570952D01*
X157978095Y-90380476D01*
X158025714Y-90285238D01*
X158120952Y-90190000D01*
X158263809Y-90142380D01*
X158359047Y-90142380D01*
X158501904Y-90190000D01*
X158549523Y-90237619D01*
X159263809Y-90142380D02*
X159263809Y-90856666D01*
X159216190Y-90999523D01*
X159120952Y-91094761D01*
X158978095Y-91142380D01*
X158882857Y-91142380D01*
X160216190Y-91142380D02*
X159740000Y-91142380D01*
X159740000Y-90142380D01*
X161120952Y-91047142D02*
X161073333Y-91094761D01*
X160930476Y-91142380D01*
X160835238Y-91142380D01*
X160692380Y-91094761D01*
X160597142Y-90999523D01*
X160549523Y-90904285D01*
X160501904Y-90713809D01*
X160501904Y-90570952D01*
X160549523Y-90380476D01*
X160597142Y-90285238D01*
X160692380Y-90190000D01*
X160835238Y-90142380D01*
X160930476Y-90142380D01*
X161073333Y-90190000D01*
X161120952Y-90237619D01*
X161835238Y-90142380D02*
X161835238Y-90856666D01*
X161787619Y-90999523D01*
X161692380Y-91094761D01*
X161549523Y-91142380D01*
X161454285Y-91142380D01*
X162787619Y-91142380D02*
X162311428Y-91142380D01*
X162311428Y-90142380D01*
X163692380Y-91047142D02*
X163644761Y-91094761D01*
X163501904Y-91142380D01*
X163406666Y-91142380D01*
X163263809Y-91094761D01*
X163168571Y-90999523D01*
X163120952Y-90904285D01*
X163073333Y-90713809D01*
X163073333Y-90570952D01*
X163120952Y-90380476D01*
X163168571Y-90285238D01*
X163263809Y-90190000D01*
X163406666Y-90142380D01*
X163501904Y-90142380D01*
X163644761Y-90190000D01*
X163692380Y-90237619D01*
D12*
X109844761Y-98504285D02*
X109844761Y-99456666D01*
X107844761Y-99456666D01*
X109844761Y-97551904D02*
X109749523Y-97742380D01*
X109654285Y-97837619D01*
X109463809Y-97932857D01*
X108892380Y-97932857D01*
X108701904Y-97837619D01*
X108606666Y-97742380D01*
X108511428Y-97551904D01*
X108511428Y-97266190D01*
X108606666Y-97075714D01*
X108701904Y-96980476D01*
X108892380Y-96885238D01*
X109463809Y-96885238D01*
X109654285Y-96980476D01*
X109749523Y-97075714D01*
X109844761Y-97266190D01*
X109844761Y-97551904D01*
X109844761Y-94885238D02*
X108892380Y-95551904D01*
X109844761Y-96028095D02*
X107844761Y-96028095D01*
X107844761Y-95266190D01*
X107940000Y-95075714D01*
X108035238Y-94980476D01*
X108225714Y-94885238D01*
X108511428Y-94885238D01*
X108701904Y-94980476D01*
X108797142Y-95075714D01*
X108892380Y-95266190D01*
X108892380Y-96028095D01*
X109844761Y-93170952D02*
X108797142Y-93170952D01*
X108606666Y-93266190D01*
X108511428Y-93456666D01*
X108511428Y-93837619D01*
X108606666Y-94028095D01*
X109749523Y-93170952D02*
X109844761Y-93361428D01*
X109844761Y-93837619D01*
X109749523Y-94028095D01*
X109559047Y-94123333D01*
X109368571Y-94123333D01*
X109178095Y-94028095D01*
X109082857Y-93837619D01*
X109082857Y-93361428D01*
X108987619Y-93170952D01*
X109844761Y-92218571D02*
X107844761Y-92218571D01*
X107844761Y-91456666D01*
X107940000Y-91266190D01*
X108035238Y-91170952D01*
X108225714Y-91075714D01*
X108511428Y-91075714D01*
X108701904Y-91170952D01*
X108797142Y-91266190D01*
X108892380Y-91456666D01*
X108892380Y-92218571D01*
X109844761Y-90218571D02*
X108511428Y-90218571D01*
X108892380Y-90218571D02*
X108701904Y-90123333D01*
X108606666Y-90028095D01*
X108511428Y-89837619D01*
X108511428Y-89647142D01*
X109844761Y-88694761D02*
X109749523Y-88885238D01*
X109654285Y-88980476D01*
X109463809Y-89075714D01*
X108892380Y-89075714D01*
X108701904Y-88980476D01*
X108606666Y-88885238D01*
X108511428Y-88694761D01*
X108511428Y-88409047D01*
X108606666Y-88218571D01*
X108701904Y-88123333D01*
X108892380Y-88028095D01*
X109463809Y-88028095D01*
X109654285Y-88123333D01*
X109749523Y-88218571D01*
X109844761Y-88409047D01*
X109844761Y-88694761D01*
X109844761Y-87170952D02*
X107844761Y-87170952D01*
X109273333Y-86504285D01*
X107844761Y-85837619D01*
X109844761Y-85837619D01*
X109844761Y-84885238D02*
X108511428Y-84885238D01*
X107844761Y-84885238D02*
X107940000Y-84980476D01*
X108035238Y-84885238D01*
X107940000Y-84790000D01*
X107844761Y-84885238D01*
X108035238Y-84885238D01*
X108511428Y-83932857D02*
X109844761Y-83932857D01*
X108701904Y-83932857D02*
X108606666Y-83837619D01*
X108511428Y-83647142D01*
X108511428Y-83361428D01*
X108606666Y-83170952D01*
X108797142Y-83075714D01*
X109844761Y-83075714D01*
X109844761Y-82123333D02*
X108511428Y-82123333D01*
X107844761Y-82123333D02*
X107940000Y-82218571D01*
X108035238Y-82123333D01*
X107940000Y-82028095D01*
X107844761Y-82123333D01*
X108035238Y-82123333D01*
D13*
%TO.C,U1*%
X180690000Y-99770000D02*
X179230000Y-99770000D01*
X180690000Y-96610000D02*
X177530000Y-96610000D01*
X180690000Y-96610000D02*
X180690000Y-97540000D01*
X180690000Y-99770000D02*
X180690000Y-98840000D01*
D14*
%TO.C,X1*%
X139661000Y-93865000D02*
X139661000Y-87515000D01*
X139661000Y-93865000D02*
X136105000Y-93865000D01*
X136105000Y-87515000D02*
X136105000Y-93865000D01*
X139661000Y-87515000D02*
X136105000Y-87515000D01*
D15*
X146381105Y-85275544D02*
X151769259Y-90690000D01*
X151769259Y-90690000D02*
X146381105Y-96051851D01*
X140992951Y-90690000D02*
X146381105Y-96051851D01*
X146381105Y-85275544D02*
X140992951Y-90690000D01*
D13*
X166331000Y-81292000D02*
X166331000Y-100088000D01*
X166331000Y-100088000D02*
X132549000Y-100088000D01*
D10*
X132549000Y-100088000D02*
X132549000Y-81292000D01*
D13*
X132549000Y-81292000D02*
X166331000Y-81292000D01*
%TO.C,J4*%
X173070000Y-95820000D02*
X171740000Y-95820000D01*
X173070000Y-94490000D02*
X173070000Y-95820000D01*
X173070000Y-93220000D02*
X170410000Y-93220000D01*
X170410000Y-93220000D02*
X170410000Y-85540000D01*
X173070000Y-93220000D02*
X173070000Y-85540000D01*
X173070000Y-85540000D02*
X170410000Y-85540000D01*
%TO.C,U2*%
X128499000Y-82590000D02*
X128499000Y-98790000D01*
X128499000Y-98790000D02*
X128099000Y-98790000D01*
X112699000Y-82590000D02*
X112299000Y-82590000D01*
X112299000Y-82590000D02*
X112299000Y-98790000D01*
X112299000Y-98790000D02*
X112699000Y-98790000D01*
X128499000Y-82590000D02*
X128149000Y-82590000D01*
X128149000Y-82590000D02*
X128149000Y-81690000D01*
%TO.C,C1*%
X129839000Y-100274085D02*
X129839000Y-99751581D01*
X131309000Y-100274085D02*
X131309000Y-99751581D01*
%TO.C,C2*%
X182168748Y-100455000D02*
X182691252Y-100455000D01*
X182168748Y-101925000D02*
X182691252Y-101925000D01*
%TO.C,C5*%
X176925000Y-79130000D02*
X168690000Y-79130000D01*
X176925000Y-83650000D02*
X176925000Y-79130000D01*
X168690000Y-83650000D02*
X176925000Y-83650000D01*
%TO.C,R5*%
X179312936Y-78655000D02*
X179767064Y-78655000D01*
X179312936Y-80125000D02*
X179767064Y-80125000D01*
%TO.C,R4*%
X179312936Y-80655000D02*
X179767064Y-80655000D01*
X179312936Y-82125000D02*
X179767064Y-82125000D01*
%TO.C,R3*%
X179767064Y-84125000D02*
X179312936Y-84125000D01*
X179767064Y-82655000D02*
X179312936Y-82655000D01*
%TO.C,R2*%
X169102936Y-100455000D02*
X169557064Y-100455000D01*
X169102936Y-101925000D02*
X169557064Y-101925000D01*
%TO.C,R1*%
X169557064Y-99925000D02*
X169102936Y-99925000D01*
X169557064Y-98455000D02*
X169102936Y-98455000D01*
%TO.C,C4*%
X173937918Y-101925000D02*
X173415414Y-101925000D01*
X173937918Y-100455000D02*
X173415414Y-100455000D01*
%TO.C,J3*%
X181888000Y-85315333D02*
X180638000Y-85315333D01*
X181888000Y-86565333D02*
X181888000Y-85315333D01*
X177478000Y-92675333D02*
X177978000Y-92675333D01*
X177978000Y-92775333D02*
X177478000Y-92775333D01*
X177978000Y-92575333D02*
X177978000Y-92775333D01*
X177478000Y-92575333D02*
X177978000Y-92575333D01*
X177478000Y-90675333D02*
X177978000Y-90675333D01*
X177978000Y-90775333D02*
X177478000Y-90775333D01*
X177978000Y-90575333D02*
X177978000Y-90775333D01*
X177478000Y-90575333D02*
X177978000Y-90575333D01*
X177478000Y-88675333D02*
X177978000Y-88675333D01*
X177978000Y-88775333D02*
X177478000Y-88775333D01*
X177978000Y-88575333D02*
X177978000Y-88775333D01*
X177478000Y-88575333D02*
X177978000Y-88575333D01*
X178978000Y-95735333D02*
X178978000Y-95125333D01*
X180278000Y-95735333D02*
X180278000Y-95125333D01*
X178978000Y-85615333D02*
X178978000Y-86225333D01*
X180278000Y-85615333D02*
X180278000Y-86225333D01*
X180978000Y-93175333D02*
X181588000Y-93175333D01*
X180978000Y-95125333D02*
X180978000Y-93175333D01*
X177478000Y-95125333D02*
X180978000Y-95125333D01*
X177478000Y-86225333D02*
X177478000Y-95125333D01*
X180978000Y-86225333D02*
X177478000Y-86225333D01*
X180978000Y-88175333D02*
X180978000Y-86225333D01*
X181588000Y-88175333D02*
X180978000Y-88175333D01*
X181688000Y-87375333D02*
X181688000Y-87075333D01*
X181788000Y-87075333D02*
X181588000Y-87075333D01*
X181788000Y-87375333D02*
X181788000Y-87075333D01*
X181588000Y-87375333D02*
X181788000Y-87375333D01*
X181588000Y-95735333D02*
X181588000Y-85615333D01*
X176868000Y-95735333D02*
X181588000Y-95735333D01*
X176868000Y-85615333D02*
X176868000Y-95735333D01*
X181588000Y-85615333D02*
X176868000Y-85615333D01*
%TO.C,J2*%
X188945617Y-82996000D02*
X187695617Y-82996000D01*
X188945617Y-84246000D02*
X188945617Y-82996000D01*
X184535617Y-88356000D02*
X185035617Y-88356000D01*
X185035617Y-88456000D02*
X184535617Y-88456000D01*
X185035617Y-88256000D02*
X185035617Y-88456000D01*
X184535617Y-88256000D02*
X185035617Y-88256000D01*
X184535617Y-86356000D02*
X185035617Y-86356000D01*
X185035617Y-86456000D02*
X184535617Y-86456000D01*
X185035617Y-86256000D02*
X185035617Y-86456000D01*
X184535617Y-86256000D02*
X185035617Y-86256000D01*
X186035617Y-91416000D02*
X186035617Y-90806000D01*
X187335617Y-91416000D02*
X187335617Y-90806000D01*
X186035617Y-83296000D02*
X186035617Y-83906000D01*
X187335617Y-83296000D02*
X187335617Y-83906000D01*
X188035617Y-88856000D02*
X188645617Y-88856000D01*
X188035617Y-90806000D02*
X188035617Y-88856000D01*
X184535617Y-90806000D02*
X188035617Y-90806000D01*
X184535617Y-83906000D02*
X184535617Y-90806000D01*
X188035617Y-83906000D02*
X184535617Y-83906000D01*
X188035617Y-85856000D02*
X188035617Y-83906000D01*
X188645617Y-85856000D02*
X188035617Y-85856000D01*
X188745617Y-85056000D02*
X188745617Y-84756000D01*
X188845617Y-84756000D02*
X188645617Y-84756000D01*
X188845617Y-85056000D02*
X188845617Y-84756000D01*
X188645617Y-85056000D02*
X188845617Y-85056000D01*
X188645617Y-91416000D02*
X188645617Y-83296000D01*
X183925617Y-91416000D02*
X188645617Y-91416000D01*
X183925617Y-83296000D02*
X183925617Y-91416000D01*
X188645617Y-83296000D02*
X183925617Y-83296000D01*
%TO.C,J1*%
X188945617Y-91846000D02*
X187695617Y-91846000D01*
X188945617Y-93096000D02*
X188945617Y-91846000D01*
X184535617Y-95206000D02*
X185035617Y-95206000D01*
X185035617Y-95306000D02*
X184535617Y-95306000D01*
X185035617Y-95106000D02*
X185035617Y-95306000D01*
X184535617Y-95106000D02*
X185035617Y-95106000D01*
X186035617Y-98266000D02*
X186035617Y-97656000D01*
X187335617Y-98266000D02*
X187335617Y-97656000D01*
X186035617Y-92146000D02*
X186035617Y-92756000D01*
X187335617Y-92146000D02*
X187335617Y-92756000D01*
X188035617Y-95706000D02*
X188645617Y-95706000D01*
X188035617Y-97656000D02*
X188035617Y-95706000D01*
X184535617Y-97656000D02*
X188035617Y-97656000D01*
X184535617Y-92756000D02*
X184535617Y-97656000D01*
X188035617Y-92756000D02*
X184535617Y-92756000D01*
X188035617Y-94706000D02*
X188035617Y-92756000D01*
X188645617Y-94706000D02*
X188035617Y-94706000D01*
X188745617Y-93906000D02*
X188745617Y-93606000D01*
X188845617Y-93606000D02*
X188645617Y-93606000D01*
X188845617Y-93906000D02*
X188845617Y-93606000D01*
X188645617Y-93906000D02*
X188845617Y-93906000D01*
X188645617Y-98266000D02*
X188645617Y-92146000D01*
X183925617Y-98266000D02*
X188645617Y-98266000D01*
X183925617Y-92146000D02*
X183925617Y-98266000D01*
X188645617Y-92146000D02*
X183925617Y-92146000D01*
%TO.C,C3*%
X178314584Y-100455000D02*
X177792080Y-100455000D01*
X178314584Y-101925000D02*
X177792080Y-101925000D01*
%TO.C,U1*%
D10*
X175418095Y-97642380D02*
X175418095Y-98451904D01*
X175465714Y-98547142D01*
X175513333Y-98594761D01*
X175608571Y-98642380D01*
X175799047Y-98642380D01*
X175894285Y-98594761D01*
X175941904Y-98547142D01*
X175989523Y-98451904D01*
X175989523Y-97642380D01*
X176989523Y-98642380D02*
X176418095Y-98642380D01*
X176703809Y-98642380D02*
X176703809Y-97642380D01*
X176608571Y-97785238D01*
X176513333Y-97880476D01*
X176418095Y-97928095D01*
%TO.C,X1*%
X129911785Y-90317000D02*
X129816547Y-90269380D01*
X129673690Y-90269380D01*
X129530833Y-90317000D01*
X129435595Y-90412238D01*
X129387976Y-90507476D01*
X129340357Y-90697952D01*
X129340357Y-90840809D01*
X129387976Y-91031285D01*
X129435595Y-91126523D01*
X129530833Y-91221761D01*
X129673690Y-91269380D01*
X129768928Y-91269380D01*
X129911785Y-91221761D01*
X129959404Y-91174142D01*
X129959404Y-90840809D01*
X129768928Y-90840809D01*
X130387976Y-91269380D02*
X130387976Y-90269380D01*
X130959404Y-91269380D01*
X130959404Y-90269380D01*
X131435595Y-91269380D02*
X131435595Y-90269380D01*
X131673690Y-90269380D01*
X131816547Y-90317000D01*
X131911785Y-90412238D01*
X131959404Y-90507476D01*
X132007023Y-90697952D01*
X132007023Y-90840809D01*
X131959404Y-91031285D01*
X131911785Y-91126523D01*
X131816547Y-91221761D01*
X131673690Y-91269380D01*
X131435595Y-91269380D01*
X130578452Y-93523666D02*
X131054642Y-93523666D01*
X130483214Y-93809380D02*
X130816547Y-92809380D01*
X131149880Y-93809380D01*
X131911785Y-92809380D02*
X131721309Y-92809380D01*
X131626071Y-92857000D01*
X131578452Y-92904619D01*
X131483214Y-93047476D01*
X131435595Y-93237952D01*
X131435595Y-93618904D01*
X131483214Y-93714142D01*
X131530833Y-93761761D01*
X131626071Y-93809380D01*
X131816547Y-93809380D01*
X131911785Y-93761761D01*
X131959404Y-93714142D01*
X132007023Y-93618904D01*
X132007023Y-93380809D01*
X131959404Y-93285571D01*
X131911785Y-93237952D01*
X131816547Y-93190333D01*
X131626071Y-93190333D01*
X131530833Y-93237952D01*
X131483214Y-93285571D01*
X131435595Y-93380809D01*
X130578452Y-96063666D02*
X131054642Y-96063666D01*
X130483214Y-96349380D02*
X130816547Y-95349380D01*
X131149880Y-96349380D01*
X131387976Y-95349380D02*
X132054642Y-95349380D01*
X131626071Y-96349380D01*
X134652380Y-101455357D02*
X134652380Y-102026785D01*
X134652380Y-101741071D02*
X133652380Y-101741071D01*
X133795238Y-101836309D01*
X133890476Y-101931547D01*
X133938095Y-102026785D01*
X133652380Y-100836309D02*
X133652380Y-100741071D01*
X133700000Y-100645833D01*
X133747619Y-100598214D01*
X133842857Y-100550595D01*
X134033333Y-100502976D01*
X134271428Y-100502976D01*
X134461904Y-100550595D01*
X134557142Y-100598214D01*
X134604761Y-100645833D01*
X134652380Y-100741071D01*
X134652380Y-100836309D01*
X134604761Y-100931547D01*
X134557142Y-100979166D01*
X134461904Y-101026785D01*
X134271428Y-101074404D01*
X134033333Y-101074404D01*
X133842857Y-101026785D01*
X133747619Y-100979166D01*
X133700000Y-100931547D01*
X133652380Y-100836309D01*
X137192380Y-101455357D02*
X137192380Y-102026785D01*
X137192380Y-101741071D02*
X136192380Y-101741071D01*
X136335238Y-101836309D01*
X136430476Y-101931547D01*
X136478095Y-102026785D01*
X137192380Y-100502976D02*
X137192380Y-101074404D01*
X137192380Y-100788690D02*
X136192380Y-100788690D01*
X136335238Y-100883928D01*
X136430476Y-100979166D01*
X136478095Y-101074404D01*
X139732380Y-101455357D02*
X139732380Y-102026785D01*
X139732380Y-101741071D02*
X138732380Y-101741071D01*
X138875238Y-101836309D01*
X138970476Y-101931547D01*
X139018095Y-102026785D01*
X138827619Y-101074404D02*
X138780000Y-101026785D01*
X138732380Y-100931547D01*
X138732380Y-100693452D01*
X138780000Y-100598214D01*
X138827619Y-100550595D01*
X138922857Y-100502976D01*
X139018095Y-100502976D01*
X139160952Y-100550595D01*
X139732380Y-101122023D01*
X139732380Y-100502976D01*
X142272380Y-101455357D02*
X142272380Y-102026785D01*
X142272380Y-101741071D02*
X141272380Y-101741071D01*
X141415238Y-101836309D01*
X141510476Y-101931547D01*
X141558095Y-102026785D01*
X141272380Y-101122023D02*
X141272380Y-100502976D01*
X141653333Y-100836309D01*
X141653333Y-100693452D01*
X141700952Y-100598214D01*
X141748571Y-100550595D01*
X141843809Y-100502976D01*
X142081904Y-100502976D01*
X142177142Y-100550595D01*
X142224761Y-100598214D01*
X142272380Y-100693452D01*
X142272380Y-100979166D01*
X142224761Y-101074404D01*
X142177142Y-101122023D01*
X144526666Y-101931547D02*
X144526666Y-101455357D01*
X144812380Y-102026785D02*
X143812380Y-101693452D01*
X144812380Y-101360119D01*
X143812380Y-100836309D02*
X143812380Y-100741071D01*
X143860000Y-100645833D01*
X143907619Y-100598214D01*
X144002857Y-100550595D01*
X144193333Y-100502976D01*
X144431428Y-100502976D01*
X144621904Y-100550595D01*
X144717142Y-100598214D01*
X144764761Y-100645833D01*
X144812380Y-100741071D01*
X144812380Y-100836309D01*
X144764761Y-100931547D01*
X144717142Y-100979166D01*
X144621904Y-101026785D01*
X144431428Y-101074404D01*
X144193333Y-101074404D01*
X144002857Y-101026785D01*
X143907619Y-100979166D01*
X143860000Y-100931547D01*
X143812380Y-100836309D01*
X147066666Y-101931547D02*
X147066666Y-101455357D01*
X147352380Y-102026785D02*
X146352380Y-101693452D01*
X147352380Y-101360119D01*
X147352380Y-100502976D02*
X147352380Y-101074404D01*
X147352380Y-100788690D02*
X146352380Y-100788690D01*
X146495238Y-100883928D01*
X146590476Y-100979166D01*
X146638095Y-101074404D01*
X162592380Y-102502976D02*
X162116190Y-102836309D01*
X162592380Y-103074404D02*
X161592380Y-103074404D01*
X161592380Y-102693452D01*
X161640000Y-102598214D01*
X161687619Y-102550595D01*
X161782857Y-102502976D01*
X161925714Y-102502976D01*
X162020952Y-102550595D01*
X162068571Y-102598214D01*
X162116190Y-102693452D01*
X162116190Y-103074404D01*
X162306666Y-102122023D02*
X162306666Y-101645833D01*
X162592380Y-102217261D02*
X161592380Y-101883928D01*
X162592380Y-101550595D01*
X161592380Y-101312500D02*
X162592380Y-101074404D01*
X161878095Y-100883928D01*
X162592380Y-100693452D01*
X161592380Y-100455357D01*
X159100000Y-102598214D02*
X159052380Y-102693452D01*
X159052380Y-102836309D01*
X159100000Y-102979166D01*
X159195238Y-103074404D01*
X159290476Y-103122023D01*
X159480952Y-103169642D01*
X159623809Y-103169642D01*
X159814285Y-103122023D01*
X159909523Y-103074404D01*
X160004761Y-102979166D01*
X160052380Y-102836309D01*
X160052380Y-102741071D01*
X160004761Y-102598214D01*
X159957142Y-102550595D01*
X159623809Y-102550595D01*
X159623809Y-102741071D01*
X160052380Y-102122023D02*
X159052380Y-102122023D01*
X160052380Y-101550595D01*
X159052380Y-101550595D01*
X160052380Y-101074404D02*
X159052380Y-101074404D01*
X159052380Y-100836309D01*
X159100000Y-100693452D01*
X159195238Y-100598214D01*
X159290476Y-100550595D01*
X159480952Y-100502976D01*
X159623809Y-100502976D01*
X159814285Y-100550595D01*
X159909523Y-100598214D01*
X160004761Y-100693452D01*
X160052380Y-100836309D01*
X160052380Y-101074404D01*
X157512380Y-102217261D02*
X157036190Y-102550595D01*
X157512380Y-102788690D02*
X156512380Y-102788690D01*
X156512380Y-102407738D01*
X156560000Y-102312500D01*
X156607619Y-102264880D01*
X156702857Y-102217261D01*
X156845714Y-102217261D01*
X156940952Y-102264880D01*
X156988571Y-102312500D01*
X157036190Y-102407738D01*
X157036190Y-102788690D01*
X157464761Y-101836309D02*
X157512380Y-101693452D01*
X157512380Y-101455357D01*
X157464761Y-101360119D01*
X157417142Y-101312500D01*
X157321904Y-101264880D01*
X157226666Y-101264880D01*
X157131428Y-101312500D01*
X157083809Y-101360119D01*
X157036190Y-101455357D01*
X156988571Y-101645833D01*
X156940952Y-101741071D01*
X156893333Y-101788690D01*
X156798095Y-101836309D01*
X156702857Y-101836309D01*
X156607619Y-101788690D01*
X156560000Y-101741071D01*
X156512380Y-101645833D01*
X156512380Y-101407738D01*
X156560000Y-101264880D01*
X156512380Y-100979166D02*
X156512380Y-100407738D01*
X157512380Y-100693452D02*
X156512380Y-100693452D01*
X153972380Y-103074404D02*
X154972380Y-102741071D01*
X153972380Y-102407738D01*
X154877142Y-101502976D02*
X154924761Y-101550595D01*
X154972380Y-101693452D01*
X154972380Y-101788690D01*
X154924761Y-101931547D01*
X154829523Y-102026785D01*
X154734285Y-102074404D01*
X154543809Y-102122023D01*
X154400952Y-102122023D01*
X154210476Y-102074404D01*
X154115238Y-102026785D01*
X154020000Y-101931547D01*
X153972380Y-101788690D01*
X153972380Y-101693452D01*
X154020000Y-101550595D01*
X154067619Y-101502976D01*
X154877142Y-100502976D02*
X154924761Y-100550595D01*
X154972380Y-100693452D01*
X154972380Y-100788690D01*
X154924761Y-100931547D01*
X154829523Y-101026785D01*
X154734285Y-101074404D01*
X154543809Y-101122023D01*
X154400952Y-101122023D01*
X154210476Y-101074404D01*
X154115238Y-101026785D01*
X154020000Y-100931547D01*
X153972380Y-100788690D01*
X153972380Y-100693452D01*
X154020000Y-100550595D01*
X154067619Y-100502976D01*
X152206666Y-101931547D02*
X152206666Y-101455357D01*
X152492380Y-102026785D02*
X151492380Y-101693452D01*
X152492380Y-101360119D01*
X151492380Y-101122023D02*
X151492380Y-100502976D01*
X151873333Y-100836309D01*
X151873333Y-100693452D01*
X151920952Y-100598214D01*
X151968571Y-100550595D01*
X152063809Y-100502976D01*
X152301904Y-100502976D01*
X152397142Y-100550595D01*
X152444761Y-100598214D01*
X152492380Y-100693452D01*
X152492380Y-100979166D01*
X152444761Y-101074404D01*
X152397142Y-101122023D01*
X149606666Y-101931547D02*
X149606666Y-101455357D01*
X149892380Y-102026785D02*
X148892380Y-101693452D01*
X149892380Y-101360119D01*
X148987619Y-101074404D02*
X148940000Y-101026785D01*
X148892380Y-100931547D01*
X148892380Y-100693452D01*
X148940000Y-100598214D01*
X148987619Y-100550595D01*
X149082857Y-100502976D01*
X149178095Y-100502976D01*
X149320952Y-100550595D01*
X149892380Y-101122023D01*
X149892380Y-100502976D01*
X148811380Y-80889642D02*
X148811380Y-80270595D01*
X149192333Y-80603928D01*
X149192333Y-80461071D01*
X149239952Y-80365833D01*
X149287571Y-80318214D01*
X149382809Y-80270595D01*
X149620904Y-80270595D01*
X149716142Y-80318214D01*
X149763761Y-80365833D01*
X149811380Y-80461071D01*
X149811380Y-80746785D01*
X149763761Y-80842023D01*
X149716142Y-80889642D01*
X151446619Y-80842023D02*
X151399000Y-80794404D01*
X151351380Y-80699166D01*
X151351380Y-80461071D01*
X151399000Y-80365833D01*
X151446619Y-80318214D01*
X151541857Y-80270595D01*
X151637095Y-80270595D01*
X151779952Y-80318214D01*
X152351380Y-80889642D01*
X152351380Y-80270595D01*
X153939000Y-80270595D02*
X153891380Y-80365833D01*
X153891380Y-80508690D01*
X153939000Y-80651547D01*
X154034238Y-80746785D01*
X154129476Y-80794404D01*
X154319952Y-80842023D01*
X154462809Y-80842023D01*
X154653285Y-80794404D01*
X154748523Y-80746785D01*
X154843761Y-80651547D01*
X154891380Y-80508690D01*
X154891380Y-80413452D01*
X154843761Y-80270595D01*
X154796142Y-80222976D01*
X154462809Y-80222976D01*
X154462809Y-80413452D01*
X154891380Y-79794404D02*
X153891380Y-79794404D01*
X154891380Y-79222976D01*
X153891380Y-79222976D01*
X154891380Y-78746785D02*
X153891380Y-78746785D01*
X153891380Y-78508690D01*
X153939000Y-78365833D01*
X154034238Y-78270595D01*
X154129476Y-78222976D01*
X154319952Y-78175357D01*
X154462809Y-78175357D01*
X154653285Y-78222976D01*
X154748523Y-78270595D01*
X154843761Y-78365833D01*
X154891380Y-78508690D01*
X154891380Y-78746785D01*
X157431380Y-80222976D02*
X156955190Y-80556309D01*
X157431380Y-80794404D02*
X156431380Y-80794404D01*
X156431380Y-80413452D01*
X156479000Y-80318214D01*
X156526619Y-80270595D01*
X156621857Y-80222976D01*
X156764714Y-80222976D01*
X156859952Y-80270595D01*
X156907571Y-80318214D01*
X156955190Y-80413452D01*
X156955190Y-80794404D01*
X157383761Y-79842023D02*
X157431380Y-79699166D01*
X157431380Y-79461071D01*
X157383761Y-79365833D01*
X157336142Y-79318214D01*
X157240904Y-79270595D01*
X157145666Y-79270595D01*
X157050428Y-79318214D01*
X157002809Y-79365833D01*
X156955190Y-79461071D01*
X156907571Y-79651547D01*
X156859952Y-79746785D01*
X156812333Y-79794404D01*
X156717095Y-79842023D01*
X156621857Y-79842023D01*
X156526619Y-79794404D01*
X156479000Y-79746785D01*
X156431380Y-79651547D01*
X156431380Y-79413452D01*
X156479000Y-79270595D01*
X156431380Y-78984880D02*
X156431380Y-78413452D01*
X157431380Y-78699166D02*
X156431380Y-78699166D01*
X159971380Y-80222976D02*
X159495190Y-80556309D01*
X159971380Y-80794404D02*
X158971380Y-80794404D01*
X158971380Y-80413452D01*
X159019000Y-80318214D01*
X159066619Y-80270595D01*
X159161857Y-80222976D01*
X159304714Y-80222976D01*
X159399952Y-80270595D01*
X159447571Y-80318214D01*
X159495190Y-80413452D01*
X159495190Y-80794404D01*
X158971380Y-79889642D02*
X159971380Y-79222976D01*
X158971380Y-79222976D02*
X159971380Y-79889642D01*
X159971380Y-78842023D02*
X158971380Y-78842023D01*
X158971380Y-78603928D01*
X159019000Y-78461071D01*
X159114238Y-78365833D01*
X159209476Y-78318214D01*
X159399952Y-78270595D01*
X159542809Y-78270595D01*
X159733285Y-78318214D01*
X159828523Y-78365833D01*
X159923761Y-78461071D01*
X159971380Y-78603928D01*
X159971380Y-78842023D01*
X161511380Y-80937261D02*
X161511380Y-80365833D01*
X162511380Y-80651547D02*
X161511380Y-80651547D01*
X161511380Y-80127738D02*
X162511380Y-79461071D01*
X161511380Y-79461071D02*
X162511380Y-80127738D01*
X162511380Y-79080119D02*
X161511380Y-79080119D01*
X161511380Y-78842023D01*
X161559000Y-78699166D01*
X161654238Y-78603928D01*
X161749476Y-78556309D01*
X161939952Y-78508690D01*
X162082809Y-78508690D01*
X162273285Y-78556309D01*
X162368523Y-78603928D01*
X162463761Y-78699166D01*
X162511380Y-78842023D01*
X162511380Y-79080119D01*
X146604714Y-80365833D02*
X147271380Y-80365833D01*
X146223761Y-80603928D02*
X146938047Y-80842023D01*
X146938047Y-80222976D01*
X143731380Y-80318214D02*
X143731380Y-80794404D01*
X144207571Y-80842023D01*
X144159952Y-80794404D01*
X144112333Y-80699166D01*
X144112333Y-80461071D01*
X144159952Y-80365833D01*
X144207571Y-80318214D01*
X144302809Y-80270595D01*
X144540904Y-80270595D01*
X144636142Y-80318214D01*
X144683761Y-80365833D01*
X144731380Y-80461071D01*
X144731380Y-80699166D01*
X144683761Y-80794404D01*
X144636142Y-80842023D01*
X141191380Y-80365833D02*
X141191380Y-80556309D01*
X141239000Y-80651547D01*
X141286619Y-80699166D01*
X141429476Y-80794404D01*
X141619952Y-80842023D01*
X142000904Y-80842023D01*
X142096142Y-80794404D01*
X142143761Y-80746785D01*
X142191380Y-80651547D01*
X142191380Y-80461071D01*
X142143761Y-80365833D01*
X142096142Y-80318214D01*
X142000904Y-80270595D01*
X141762809Y-80270595D01*
X141667571Y-80318214D01*
X141619952Y-80365833D01*
X141572333Y-80461071D01*
X141572333Y-80651547D01*
X141619952Y-80746785D01*
X141667571Y-80794404D01*
X141762809Y-80842023D01*
X138651380Y-80889642D02*
X138651380Y-80222976D01*
X139651380Y-80651547D01*
X136539952Y-80651547D02*
X136492333Y-80746785D01*
X136444714Y-80794404D01*
X136349476Y-80842023D01*
X136301857Y-80842023D01*
X136206619Y-80794404D01*
X136159000Y-80746785D01*
X136111380Y-80651547D01*
X136111380Y-80461071D01*
X136159000Y-80365833D01*
X136206619Y-80318214D01*
X136301857Y-80270595D01*
X136349476Y-80270595D01*
X136444714Y-80318214D01*
X136492333Y-80365833D01*
X136539952Y-80461071D01*
X136539952Y-80651547D01*
X136587571Y-80746785D01*
X136635190Y-80794404D01*
X136730428Y-80842023D01*
X136920904Y-80842023D01*
X137016142Y-80794404D01*
X137063761Y-80746785D01*
X137111380Y-80651547D01*
X137111380Y-80461071D01*
X137063761Y-80365833D01*
X137016142Y-80318214D01*
X136920904Y-80270595D01*
X136730428Y-80270595D01*
X136635190Y-80318214D01*
X136587571Y-80365833D01*
X136539952Y-80461071D01*
X134571380Y-80746785D02*
X134571380Y-80556309D01*
X134523761Y-80461071D01*
X134476142Y-80413452D01*
X134333285Y-80318214D01*
X134142809Y-80270595D01*
X133761857Y-80270595D01*
X133666619Y-80318214D01*
X133619000Y-80365833D01*
X133571380Y-80461071D01*
X133571380Y-80651547D01*
X133619000Y-80746785D01*
X133666619Y-80794404D01*
X133761857Y-80842023D01*
X133999952Y-80842023D01*
X134095190Y-80794404D01*
X134142809Y-80746785D01*
X134190428Y-80651547D01*
X134190428Y-80461071D01*
X134142809Y-80365833D01*
X134095190Y-80318214D01*
X133999952Y-80270595D01*
X150876666Y-94438547D02*
X150876666Y-93962357D01*
X151162380Y-94533785D02*
X150162380Y-94200452D01*
X151162380Y-93867119D01*
X150495714Y-93105214D02*
X151162380Y-93105214D01*
X150114761Y-93343309D02*
X150829047Y-93581404D01*
X150829047Y-92962357D01*
X153416666Y-94438547D02*
X153416666Y-93962357D01*
X153702380Y-94533785D02*
X152702380Y-94200452D01*
X153702380Y-93867119D01*
X152702380Y-93057595D02*
X152702380Y-93533785D01*
X153178571Y-93581404D01*
X153130952Y-93533785D01*
X153083333Y-93438547D01*
X153083333Y-93200452D01*
X153130952Y-93105214D01*
X153178571Y-93057595D01*
X153273809Y-93009976D01*
X153511904Y-93009976D01*
X153607142Y-93057595D01*
X153654761Y-93105214D01*
X153702380Y-93200452D01*
X153702380Y-93438547D01*
X153654761Y-93533785D01*
X153607142Y-93581404D01*
%TO.C,U2*%
X113565666Y-102628095D02*
X113565666Y-102151904D01*
X113851380Y-102723333D02*
X112851380Y-102389999D01*
X113851380Y-102056666D01*
X113851380Y-101723333D02*
X112851380Y-101723333D01*
X113851380Y-101151904D01*
X112851380Y-101151904D01*
X112851380Y-100818571D02*
X112851380Y-100247142D01*
X113851380Y-100532857D02*
X112851380Y-100532857D01*
X114899000Y-102437618D02*
X114851380Y-102532856D01*
X114851380Y-102675714D01*
X114899000Y-102818571D01*
X114994238Y-102913809D01*
X115089476Y-102961428D01*
X115279952Y-103009047D01*
X115422809Y-103009047D01*
X115613285Y-102961428D01*
X115708523Y-102913809D01*
X115803761Y-102818571D01*
X115851380Y-102675714D01*
X115851380Y-102580475D01*
X115803761Y-102437618D01*
X115756142Y-102389999D01*
X115422809Y-102389999D01*
X115422809Y-102580475D01*
X115851380Y-101961428D02*
X114851380Y-101961428D01*
X115851380Y-101389999D01*
X114851380Y-101389999D01*
X115851380Y-100913809D02*
X114851380Y-100913809D01*
X114851380Y-100675714D01*
X114899000Y-100532856D01*
X114994238Y-100437618D01*
X115089476Y-100389999D01*
X115279952Y-100342380D01*
X115422809Y-100342380D01*
X115613285Y-100389999D01*
X115708523Y-100437618D01*
X115803761Y-100532856D01*
X115851380Y-100675714D01*
X115851380Y-100913809D01*
X117851380Y-103390000D02*
X116851380Y-103390000D01*
X116851380Y-103151904D01*
X116899000Y-103009047D01*
X116994238Y-102913809D01*
X117089476Y-102866190D01*
X117279952Y-102818571D01*
X117422809Y-102818571D01*
X117613285Y-102866190D01*
X117708523Y-102913809D01*
X117803761Y-103009047D01*
X117851380Y-103151904D01*
X117851380Y-103390000D01*
X117851380Y-102390000D02*
X116851380Y-102390000D01*
X116851380Y-101723333D02*
X116851380Y-101532857D01*
X116899000Y-101437619D01*
X116994238Y-101342380D01*
X117184714Y-101294761D01*
X117518047Y-101294761D01*
X117708523Y-101342380D01*
X117803761Y-101437619D01*
X117851380Y-101532857D01*
X117851380Y-101723333D01*
X117803761Y-101818571D01*
X117708523Y-101913809D01*
X117518047Y-101961428D01*
X117184714Y-101961428D01*
X116994238Y-101913809D01*
X116899000Y-101818571D01*
X116851380Y-101723333D01*
X116851380Y-100961428D02*
X116851380Y-100342380D01*
X117232333Y-100675714D01*
X117232333Y-100532857D01*
X117279952Y-100437619D01*
X117327571Y-100390000D01*
X117422809Y-100342380D01*
X117660904Y-100342380D01*
X117756142Y-100390000D01*
X117803761Y-100437619D01*
X117851380Y-100532857D01*
X117851380Y-100818571D01*
X117803761Y-100913809D01*
X117756142Y-100961428D01*
X119851380Y-103390000D02*
X118851380Y-103390000D01*
X118851380Y-103151904D01*
X118899000Y-103009047D01*
X118994238Y-102913809D01*
X119089476Y-102866190D01*
X119279952Y-102818571D01*
X119422809Y-102818571D01*
X119613285Y-102866190D01*
X119708523Y-102913809D01*
X119803761Y-103009047D01*
X119851380Y-103151904D01*
X119851380Y-103390000D01*
X119851380Y-102390000D02*
X118851380Y-102390000D01*
X118851380Y-101723333D02*
X118851380Y-101532857D01*
X118899000Y-101437619D01*
X118994238Y-101342380D01*
X119184714Y-101294761D01*
X119518047Y-101294761D01*
X119708523Y-101342380D01*
X119803761Y-101437619D01*
X119851380Y-101532857D01*
X119851380Y-101723333D01*
X119803761Y-101818571D01*
X119708523Y-101913809D01*
X119518047Y-101961428D01*
X119184714Y-101961428D01*
X118994238Y-101913809D01*
X118899000Y-101818571D01*
X118851380Y-101723333D01*
X119184714Y-100437619D02*
X119851380Y-100437619D01*
X118803761Y-100675714D02*
X119518047Y-100913809D01*
X119518047Y-100294761D01*
X120851380Y-103247142D02*
X120851380Y-102628094D01*
X121232333Y-102961428D01*
X121232333Y-102818571D01*
X121279952Y-102723332D01*
X121327571Y-102675713D01*
X121422809Y-102628094D01*
X121660904Y-102628094D01*
X121756142Y-102675713D01*
X121803761Y-102723332D01*
X121851380Y-102818571D01*
X121851380Y-103104285D01*
X121803761Y-103199523D01*
X121756142Y-103247142D01*
X121756142Y-102199523D02*
X121803761Y-102151904D01*
X121851380Y-102199523D01*
X121803761Y-102247142D01*
X121756142Y-102199523D01*
X121851380Y-102199523D01*
X120851380Y-101818571D02*
X120851380Y-101199523D01*
X121232333Y-101532856D01*
X121232333Y-101389999D01*
X121279952Y-101294761D01*
X121327571Y-101247142D01*
X121422809Y-101199523D01*
X121660904Y-101199523D01*
X121756142Y-101247142D01*
X121803761Y-101294761D01*
X121851380Y-101389999D01*
X121851380Y-101675713D01*
X121803761Y-101770952D01*
X121756142Y-101818571D01*
X120851380Y-100913809D02*
X121851380Y-100580475D01*
X120851380Y-100247142D01*
X123851380Y-103390000D02*
X122851380Y-103390000D01*
X122851380Y-103151904D01*
X122899000Y-103009047D01*
X122994238Y-102913809D01*
X123089476Y-102866190D01*
X123279952Y-102818571D01*
X123422809Y-102818571D01*
X123613285Y-102866190D01*
X123708523Y-102913809D01*
X123803761Y-103009047D01*
X123851380Y-103151904D01*
X123851380Y-103390000D01*
X123851380Y-102390000D02*
X122851380Y-102390000D01*
X122851380Y-101723333D02*
X122851380Y-101532857D01*
X122899000Y-101437619D01*
X122994238Y-101342380D01*
X123184714Y-101294761D01*
X123518047Y-101294761D01*
X123708523Y-101342380D01*
X123803761Y-101437619D01*
X123851380Y-101532857D01*
X123851380Y-101723333D01*
X123803761Y-101818571D01*
X123708523Y-101913809D01*
X123518047Y-101961428D01*
X123184714Y-101961428D01*
X122994238Y-101913809D01*
X122899000Y-101818571D01*
X122851380Y-101723333D01*
X122851380Y-100675714D02*
X122851380Y-100580476D01*
X122899000Y-100485238D01*
X122946619Y-100437619D01*
X123041857Y-100390000D01*
X123232333Y-100342380D01*
X123470428Y-100342380D01*
X123660904Y-100390000D01*
X123756142Y-100437619D01*
X123803761Y-100485238D01*
X123851380Y-100580476D01*
X123851380Y-100675714D01*
X123803761Y-100770952D01*
X123756142Y-100818571D01*
X123660904Y-100866190D01*
X123470428Y-100913809D01*
X123232333Y-100913809D01*
X123041857Y-100866190D01*
X122946619Y-100818571D01*
X122899000Y-100770952D01*
X122851380Y-100675714D01*
X125851380Y-103390000D02*
X124851380Y-103390000D01*
X124851380Y-103151904D01*
X124899000Y-103009047D01*
X124994238Y-102913809D01*
X125089476Y-102866190D01*
X125279952Y-102818571D01*
X125422809Y-102818571D01*
X125613285Y-102866190D01*
X125708523Y-102913809D01*
X125803761Y-103009047D01*
X125851380Y-103151904D01*
X125851380Y-103390000D01*
X125851380Y-102390000D02*
X124851380Y-102390000D01*
X124851380Y-101723333D02*
X124851380Y-101532857D01*
X124899000Y-101437619D01*
X124994238Y-101342380D01*
X125184714Y-101294761D01*
X125518047Y-101294761D01*
X125708523Y-101342380D01*
X125803761Y-101437619D01*
X125851380Y-101532857D01*
X125851380Y-101723333D01*
X125803761Y-101818571D01*
X125708523Y-101913809D01*
X125518047Y-101961428D01*
X125184714Y-101961428D01*
X124994238Y-101913809D01*
X124899000Y-101818571D01*
X124851380Y-101723333D01*
X125851380Y-100342380D02*
X125851380Y-100913809D01*
X125851380Y-100628095D02*
X124851380Y-100628095D01*
X124994238Y-100723333D01*
X125089476Y-100818571D01*
X125137095Y-100913809D01*
X127851380Y-103390000D02*
X126851380Y-103390000D01*
X126851380Y-103151904D01*
X126899000Y-103009047D01*
X126994238Y-102913809D01*
X127089476Y-102866190D01*
X127279952Y-102818571D01*
X127422809Y-102818571D01*
X127613285Y-102866190D01*
X127708523Y-102913809D01*
X127803761Y-103009047D01*
X127851380Y-103151904D01*
X127851380Y-103390000D01*
X127851380Y-102390000D02*
X126851380Y-102390000D01*
X126851380Y-101723333D02*
X126851380Y-101532857D01*
X126899000Y-101437619D01*
X126994238Y-101342380D01*
X127184714Y-101294761D01*
X127518047Y-101294761D01*
X127708523Y-101342380D01*
X127803761Y-101437619D01*
X127851380Y-101532857D01*
X127851380Y-101723333D01*
X127803761Y-101818571D01*
X127708523Y-101913809D01*
X127518047Y-101961428D01*
X127184714Y-101961428D01*
X126994238Y-101913809D01*
X126899000Y-101818571D01*
X126851380Y-101723333D01*
X126946619Y-100913809D02*
X126899000Y-100866190D01*
X126851380Y-100770952D01*
X126851380Y-100532857D01*
X126899000Y-100437619D01*
X126946619Y-100390000D01*
X127041857Y-100342380D01*
X127137095Y-100342380D01*
X127279952Y-100390000D01*
X127851380Y-100961428D01*
X127851380Y-100342380D01*
X112899000Y-80476904D02*
X112851380Y-80572142D01*
X112851380Y-80715000D01*
X112899000Y-80857857D01*
X112994238Y-80953095D01*
X113089476Y-81000714D01*
X113279952Y-81048333D01*
X113422809Y-81048333D01*
X113613285Y-81000714D01*
X113708523Y-80953095D01*
X113803761Y-80857857D01*
X113851380Y-80715000D01*
X113851380Y-80619761D01*
X113803761Y-80476904D01*
X113756142Y-80429285D01*
X113422809Y-80429285D01*
X113422809Y-80619761D01*
X113851380Y-80000714D02*
X112851380Y-80000714D01*
X113851380Y-79429285D01*
X112851380Y-79429285D01*
X113851380Y-78953095D02*
X112851380Y-78953095D01*
X112851380Y-78715000D01*
X112899000Y-78572142D01*
X112994238Y-78476904D01*
X113089476Y-78429285D01*
X113279952Y-78381666D01*
X113422809Y-78381666D01*
X113613285Y-78429285D01*
X113708523Y-78476904D01*
X113803761Y-78572142D01*
X113851380Y-78715000D01*
X113851380Y-78953095D01*
X115851380Y-81000715D02*
X114851380Y-81000715D01*
X114851380Y-80762619D01*
X114899000Y-80619762D01*
X114994238Y-80524524D01*
X115089476Y-80476905D01*
X115279952Y-80429286D01*
X115422809Y-80429286D01*
X115613285Y-80476905D01*
X115708523Y-80524524D01*
X115803761Y-80619762D01*
X115851380Y-80762619D01*
X115851380Y-81000715D01*
X115851380Y-80000715D02*
X114851380Y-80000715D01*
X114851380Y-79334048D02*
X114851380Y-79143572D01*
X114899000Y-79048334D01*
X114994238Y-78953095D01*
X115184714Y-78905476D01*
X115518047Y-78905476D01*
X115708523Y-78953095D01*
X115803761Y-79048334D01*
X115851380Y-79143572D01*
X115851380Y-79334048D01*
X115803761Y-79429286D01*
X115708523Y-79524524D01*
X115518047Y-79572143D01*
X115184714Y-79572143D01*
X114994238Y-79524524D01*
X114899000Y-79429286D01*
X114851380Y-79334048D01*
X114851380Y-78000715D02*
X114851380Y-78476905D01*
X115327571Y-78524524D01*
X115279952Y-78476905D01*
X115232333Y-78381667D01*
X115232333Y-78143572D01*
X115279952Y-78048334D01*
X115327571Y-78000715D01*
X115422809Y-77953095D01*
X115660904Y-77953095D01*
X115756142Y-78000715D01*
X115803761Y-78048334D01*
X115851380Y-78143572D01*
X115851380Y-78381667D01*
X115803761Y-78476905D01*
X115756142Y-78524524D01*
X117851380Y-80429286D02*
X117375190Y-80762619D01*
X117851380Y-81000714D02*
X116851380Y-81000714D01*
X116851380Y-80619762D01*
X116899000Y-80524524D01*
X116946619Y-80476905D01*
X117041857Y-80429286D01*
X117184714Y-80429286D01*
X117279952Y-80476905D01*
X117327571Y-80524524D01*
X117375190Y-80619762D01*
X117375190Y-81000714D01*
X117803761Y-80048333D02*
X117851380Y-79905476D01*
X117851380Y-79667381D01*
X117803761Y-79572143D01*
X117756142Y-79524524D01*
X117660904Y-79476905D01*
X117565666Y-79476905D01*
X117470428Y-79524524D01*
X117422809Y-79572143D01*
X117375190Y-79667381D01*
X117327571Y-79857857D01*
X117279952Y-79953095D01*
X117232333Y-80000714D01*
X117137095Y-80048333D01*
X117041857Y-80048333D01*
X116946619Y-80000714D01*
X116899000Y-79953095D01*
X116851380Y-79857857D01*
X116851380Y-79619762D01*
X116899000Y-79476905D01*
X116851380Y-79191190D02*
X116851380Y-78619762D01*
X117851380Y-78905476D02*
X116851380Y-78905476D01*
X119851380Y-81000714D02*
X118851380Y-81000714D01*
X119851380Y-80429285D01*
X118851380Y-80429285D01*
X119803761Y-80000714D02*
X119851380Y-79857857D01*
X119851380Y-79619761D01*
X119803761Y-79524523D01*
X119756142Y-79476904D01*
X119660904Y-79429285D01*
X119565666Y-79429285D01*
X119470428Y-79476904D01*
X119422809Y-79524523D01*
X119375190Y-79619761D01*
X119327571Y-79810238D01*
X119279952Y-79905476D01*
X119232333Y-79953095D01*
X119137095Y-80000714D01*
X119041857Y-80000714D01*
X118946619Y-79953095D01*
X118899000Y-79905476D01*
X118851380Y-79810238D01*
X118851380Y-79572142D01*
X118899000Y-79429285D01*
X119803761Y-79048333D02*
X119851380Y-78905476D01*
X119851380Y-78667380D01*
X119803761Y-78572142D01*
X119756142Y-78524523D01*
X119660904Y-78476904D01*
X119565666Y-78476904D01*
X119470428Y-78524523D01*
X119422809Y-78572142D01*
X119375190Y-78667380D01*
X119327571Y-78857857D01*
X119279952Y-78953095D01*
X119232333Y-79000714D01*
X119137095Y-79048333D01*
X119041857Y-79048333D01*
X118946619Y-79000714D01*
X118899000Y-78953095D01*
X118851380Y-78857857D01*
X118851380Y-78619761D01*
X118899000Y-78476904D01*
X121803761Y-81048333D02*
X121851380Y-80905476D01*
X121851380Y-80667380D01*
X121803761Y-80572142D01*
X121756142Y-80524523D01*
X121660904Y-80476904D01*
X121565666Y-80476904D01*
X121470428Y-80524523D01*
X121422809Y-80572142D01*
X121375190Y-80667380D01*
X121327571Y-80857857D01*
X121279952Y-80953095D01*
X121232333Y-81000714D01*
X121137095Y-81048333D01*
X121041857Y-81048333D01*
X120946619Y-81000714D01*
X120899000Y-80953095D01*
X120851380Y-80857857D01*
X120851380Y-80619761D01*
X120899000Y-80476904D01*
X121756142Y-79476904D02*
X121803761Y-79524523D01*
X121851380Y-79667380D01*
X121851380Y-79762619D01*
X121803761Y-79905476D01*
X121708523Y-80000714D01*
X121613285Y-80048333D01*
X121422809Y-80095952D01*
X121279952Y-80095952D01*
X121089476Y-80048333D01*
X120994238Y-80000714D01*
X120899000Y-79905476D01*
X120851380Y-79762619D01*
X120851380Y-79667380D01*
X120899000Y-79524523D01*
X120946619Y-79476904D01*
X121851380Y-79048333D02*
X120851380Y-79048333D01*
X121851380Y-78476904D02*
X121279952Y-78905476D01*
X120851380Y-78476904D02*
X121422809Y-79048333D01*
X123851380Y-81000714D02*
X122851380Y-81000714D01*
X123565666Y-80667381D01*
X122851380Y-80334047D01*
X123851380Y-80334047D01*
X122851380Y-79667381D02*
X122851380Y-79476905D01*
X122899000Y-79381666D01*
X122994238Y-79286428D01*
X123184714Y-79238809D01*
X123518047Y-79238809D01*
X123708523Y-79286428D01*
X123803761Y-79381666D01*
X123851380Y-79476905D01*
X123851380Y-79667381D01*
X123803761Y-79762619D01*
X123708523Y-79857857D01*
X123518047Y-79905476D01*
X123184714Y-79905476D01*
X122994238Y-79857857D01*
X122899000Y-79762619D01*
X122851380Y-79667381D01*
X123803761Y-78857857D02*
X123851380Y-78715000D01*
X123851380Y-78476905D01*
X123803761Y-78381666D01*
X123756142Y-78334047D01*
X123660904Y-78286428D01*
X123565666Y-78286428D01*
X123470428Y-78334047D01*
X123422809Y-78381666D01*
X123375190Y-78476905D01*
X123327571Y-78667381D01*
X123279952Y-78762619D01*
X123232333Y-78810238D01*
X123137095Y-78857857D01*
X123041857Y-78857857D01*
X122946619Y-78810238D01*
X122899000Y-78762619D01*
X122851380Y-78667381D01*
X122851380Y-78429286D01*
X122899000Y-78286428D01*
X123851380Y-77857857D02*
X122851380Y-77857857D01*
X125851380Y-81000714D02*
X124851380Y-81000714D01*
X125565666Y-80667381D01*
X124851380Y-80334047D01*
X125851380Y-80334047D01*
X125851380Y-79857857D02*
X124851380Y-79857857D01*
X125803761Y-79429286D02*
X125851380Y-79286428D01*
X125851380Y-79048333D01*
X125803761Y-78953095D01*
X125756142Y-78905476D01*
X125660904Y-78857857D01*
X125565666Y-78857857D01*
X125470428Y-78905476D01*
X125422809Y-78953095D01*
X125375190Y-79048333D01*
X125327571Y-79238809D01*
X125279952Y-79334047D01*
X125232333Y-79381666D01*
X125137095Y-79429286D01*
X125041857Y-79429286D01*
X124946619Y-79381666D01*
X124899000Y-79334047D01*
X124851380Y-79238809D01*
X124851380Y-79000714D01*
X124899000Y-78857857D01*
X124851380Y-78238809D02*
X124851380Y-78048333D01*
X124899000Y-77953095D01*
X124994238Y-77857857D01*
X125184714Y-77810238D01*
X125518047Y-77810238D01*
X125708523Y-77857857D01*
X125803761Y-77953095D01*
X125851380Y-78048333D01*
X125851380Y-78238809D01*
X125803761Y-78334047D01*
X125708523Y-78429286D01*
X125518047Y-78476905D01*
X125184714Y-78476905D01*
X124994238Y-78429286D01*
X124899000Y-78334047D01*
X124851380Y-78238809D01*
X126899000Y-80476904D02*
X126851380Y-80572142D01*
X126851380Y-80715000D01*
X126899000Y-80857857D01*
X126994238Y-80953095D01*
X127089476Y-81000714D01*
X127279952Y-81048333D01*
X127422809Y-81048333D01*
X127613285Y-81000714D01*
X127708523Y-80953095D01*
X127803761Y-80857857D01*
X127851380Y-80715000D01*
X127851380Y-80619761D01*
X127803761Y-80476904D01*
X127756142Y-80429285D01*
X127422809Y-80429285D01*
X127422809Y-80619761D01*
X127851380Y-80000714D02*
X126851380Y-80000714D01*
X127851380Y-79429285D01*
X126851380Y-79429285D01*
X127851380Y-78953095D02*
X126851380Y-78953095D01*
X126851380Y-78715000D01*
X126899000Y-78572142D01*
X126994238Y-78476904D01*
X127089476Y-78429285D01*
X127279952Y-78381666D01*
X127422809Y-78381666D01*
X127613285Y-78429285D01*
X127708523Y-78476904D01*
X127803761Y-78572142D01*
X127851380Y-78715000D01*
X127851380Y-78953095D01*
%TO.C,C1*%
X130407333Y-103239142D02*
X130359714Y-103286761D01*
X130216857Y-103334380D01*
X130121619Y-103334380D01*
X129978761Y-103286761D01*
X129883523Y-103191523D01*
X129835904Y-103096285D01*
X129788285Y-102905809D01*
X129788285Y-102762952D01*
X129835904Y-102572476D01*
X129883523Y-102477238D01*
X129978761Y-102382000D01*
X130121619Y-102334380D01*
X130216857Y-102334380D01*
X130359714Y-102382000D01*
X130407333Y-102429619D01*
X131359714Y-103334380D02*
X130788285Y-103334380D01*
X131074000Y-103334380D02*
X131074000Y-102334380D01*
X130978761Y-102477238D01*
X130883523Y-102572476D01*
X130788285Y-102620095D01*
%TO.C,C2*%
X182263333Y-103347142D02*
X182215714Y-103394761D01*
X182072857Y-103442380D01*
X181977619Y-103442380D01*
X181834761Y-103394761D01*
X181739523Y-103299523D01*
X181691904Y-103204285D01*
X181644285Y-103013809D01*
X181644285Y-102870952D01*
X181691904Y-102680476D01*
X181739523Y-102585238D01*
X181834761Y-102490000D01*
X181977619Y-102442380D01*
X182072857Y-102442380D01*
X182215714Y-102490000D01*
X182263333Y-102537619D01*
X182644285Y-102537619D02*
X182691904Y-102490000D01*
X182787142Y-102442380D01*
X183025238Y-102442380D01*
X183120476Y-102490000D01*
X183168095Y-102537619D01*
X183215714Y-102632857D01*
X183215714Y-102728095D01*
X183168095Y-102870952D01*
X182596666Y-103442380D01*
X183215714Y-103442380D01*
%TO.C,C5*%
X172423333Y-78497142D02*
X172375714Y-78544761D01*
X172232857Y-78592380D01*
X172137619Y-78592380D01*
X171994761Y-78544761D01*
X171899523Y-78449523D01*
X171851904Y-78354285D01*
X171804285Y-78163809D01*
X171804285Y-78020952D01*
X171851904Y-77830476D01*
X171899523Y-77735238D01*
X171994761Y-77640000D01*
X172137619Y-77592380D01*
X172232857Y-77592380D01*
X172375714Y-77640000D01*
X172423333Y-77687619D01*
X173328095Y-77592380D02*
X172851904Y-77592380D01*
X172804285Y-78068571D01*
X172851904Y-78020952D01*
X172947142Y-77973333D01*
X173185238Y-77973333D01*
X173280476Y-78020952D01*
X173328095Y-78068571D01*
X173375714Y-78163809D01*
X173375714Y-78401904D01*
X173328095Y-78497142D01*
X173280476Y-78544761D01*
X173185238Y-78592380D01*
X172947142Y-78592380D01*
X172851904Y-78544761D01*
X172804285Y-78497142D01*
%TO.C,R5*%
X182321333Y-79842380D02*
X181988000Y-79366190D01*
X181749904Y-79842380D02*
X181749904Y-78842380D01*
X182130857Y-78842380D01*
X182226095Y-78890000D01*
X182273714Y-78937619D01*
X182321333Y-79032857D01*
X182321333Y-79175714D01*
X182273714Y-79270952D01*
X182226095Y-79318571D01*
X182130857Y-79366190D01*
X181749904Y-79366190D01*
X183226095Y-78842380D02*
X182749904Y-78842380D01*
X182702285Y-79318571D01*
X182749904Y-79270952D01*
X182845142Y-79223333D01*
X183083238Y-79223333D01*
X183178476Y-79270952D01*
X183226095Y-79318571D01*
X183273714Y-79413809D01*
X183273714Y-79651904D01*
X183226095Y-79747142D01*
X183178476Y-79794761D01*
X183083238Y-79842380D01*
X182845142Y-79842380D01*
X182749904Y-79794761D01*
X182702285Y-79747142D01*
%TO.C,R4*%
X182321333Y-81842380D02*
X181988000Y-81366190D01*
X181749904Y-81842380D02*
X181749904Y-80842380D01*
X182130857Y-80842380D01*
X182226095Y-80890000D01*
X182273714Y-80937619D01*
X182321333Y-81032857D01*
X182321333Y-81175714D01*
X182273714Y-81270952D01*
X182226095Y-81318571D01*
X182130857Y-81366190D01*
X181749904Y-81366190D01*
X183178476Y-81175714D02*
X183178476Y-81842380D01*
X182940380Y-80794761D02*
X182702285Y-81509047D01*
X183321333Y-81509047D01*
%TO.C,R3*%
X182321333Y-83842380D02*
X181988000Y-83366190D01*
X181749904Y-83842380D02*
X181749904Y-82842380D01*
X182130857Y-82842380D01*
X182226095Y-82890000D01*
X182273714Y-82937619D01*
X182321333Y-83032857D01*
X182321333Y-83175714D01*
X182273714Y-83270952D01*
X182226095Y-83318571D01*
X182130857Y-83366190D01*
X181749904Y-83366190D01*
X182654666Y-82842380D02*
X183273714Y-82842380D01*
X182940380Y-83223333D01*
X183083238Y-83223333D01*
X183178476Y-83270952D01*
X183226095Y-83318571D01*
X183273714Y-83413809D01*
X183273714Y-83651904D01*
X183226095Y-83747142D01*
X183178476Y-83794761D01*
X183083238Y-83842380D01*
X182797523Y-83842380D01*
X182702285Y-83794761D01*
X182654666Y-83747142D01*
%TO.C,R2*%
X169163333Y-103442380D02*
X168830000Y-102966190D01*
X168591904Y-103442380D02*
X168591904Y-102442380D01*
X168972857Y-102442380D01*
X169068095Y-102490000D01*
X169115714Y-102537619D01*
X169163333Y-102632857D01*
X169163333Y-102775714D01*
X169115714Y-102870952D01*
X169068095Y-102918571D01*
X168972857Y-102966190D01*
X168591904Y-102966190D01*
X169544285Y-102537619D02*
X169591904Y-102490000D01*
X169687142Y-102442380D01*
X169925238Y-102442380D01*
X170020476Y-102490000D01*
X170068095Y-102537619D01*
X170115714Y-102632857D01*
X170115714Y-102728095D01*
X170068095Y-102870952D01*
X169496666Y-103442380D01*
X170115714Y-103442380D01*
%TO.C,R1*%
X172163333Y-99642380D02*
X171830000Y-99166190D01*
X171591904Y-99642380D02*
X171591904Y-98642380D01*
X171972857Y-98642380D01*
X172068095Y-98690000D01*
X172115714Y-98737619D01*
X172163333Y-98832857D01*
X172163333Y-98975714D01*
X172115714Y-99070952D01*
X172068095Y-99118571D01*
X171972857Y-99166190D01*
X171591904Y-99166190D01*
X173115714Y-99642380D02*
X172544285Y-99642380D01*
X172830000Y-99642380D02*
X172830000Y-98642380D01*
X172734761Y-98785238D01*
X172639523Y-98880476D01*
X172544285Y-98928095D01*
%TO.C,C4*%
X173509999Y-103347142D02*
X173462380Y-103394761D01*
X173319523Y-103442380D01*
X173224285Y-103442380D01*
X173081427Y-103394761D01*
X172986189Y-103299523D01*
X172938570Y-103204285D01*
X172890951Y-103013809D01*
X172890951Y-102870952D01*
X172938570Y-102680476D01*
X172986189Y-102585238D01*
X173081427Y-102490000D01*
X173224285Y-102442380D01*
X173319523Y-102442380D01*
X173462380Y-102490000D01*
X173509999Y-102537619D01*
X174367142Y-102775714D02*
X174367142Y-103442380D01*
X174129046Y-102394761D02*
X173890951Y-103109047D01*
X174509999Y-103109047D01*
%TO.C,C3*%
X177886665Y-103347142D02*
X177839046Y-103394761D01*
X177696189Y-103442380D01*
X177600951Y-103442380D01*
X177458093Y-103394761D01*
X177362855Y-103299523D01*
X177315236Y-103204285D01*
X177267617Y-103013809D01*
X177267617Y-102870952D01*
X177315236Y-102680476D01*
X177362855Y-102585238D01*
X177458093Y-102490000D01*
X177600951Y-102442380D01*
X177696189Y-102442380D01*
X177839046Y-102490000D01*
X177886665Y-102537619D01*
X178219998Y-102442380D02*
X178839046Y-102442380D01*
X178505712Y-102823333D01*
X178648570Y-102823333D01*
X178743808Y-102870952D01*
X178791427Y-102918571D01*
X178839046Y-103013809D01*
X178839046Y-103251904D01*
X178791427Y-103347142D01*
X178743808Y-103394761D01*
X178648570Y-103442380D01*
X178362855Y-103442380D01*
X178267617Y-103394761D01*
X178219998Y-103347142D01*
%TD*%
M02*
