%TF.GenerationSoftware,KiCad,Pcbnew,(5.1.10)-1*%
%TF.CreationDate,2021-09-20T23:46:16+02:00*%
%TF.ProjectId,LoRaProMini,4c6f5261-5072-46f4-9d69-6e692e6b6963,3.0*%
%TF.SameCoordinates,Original*%
%TF.FileFunction,Copper,L2,Bot*%
%TF.FilePolarity,Positive*%
%FSLAX46Y46*%
G04 Gerber Fmt 4.6, Leading zero omitted, Abs format (unit mm)*
G04 Created by KiCad (PCBNEW (5.1.10)-1) date 2021-09-20 23:46:16*
%MOMM*%
%LPD*%
G01*
G04 APERTURE LIST*
%TA.AperFunction,SMDPad,CuDef*%
%ADD10C,0.100000*%
%TD*%
%TA.AperFunction,ComponentPad*%
%ADD11O,1.750000X1.200000*%
%TD*%
%TA.AperFunction,ComponentPad*%
%ADD12O,1.700000X1.700000*%
%TD*%
%TA.AperFunction,ComponentPad*%
%ADD13C,1.700000*%
%TD*%
%TA.AperFunction,ComponentPad*%
%ADD14R,1.700000X1.700000*%
%TD*%
%TA.AperFunction,ComponentPad*%
%ADD15C,1.600000*%
%TD*%
%TA.AperFunction,SMDPad,CuDef*%
%ADD16R,6.000000X2.500000*%
%TD*%
%TA.AperFunction,ViaPad*%
%ADD17C,0.800000*%
%TD*%
%TA.AperFunction,Conductor*%
%ADD18C,0.250000*%
%TD*%
%TA.AperFunction,Conductor*%
%ADD19C,0.254000*%
%TD*%
%TA.AperFunction,Conductor*%
%ADD20C,0.100000*%
%TD*%
G04 APERTURE END LIST*
%TA.AperFunction,SMDPad,CuDef*%
D10*
%TO.P,JP1,1*%
%TO.N,Net-(JP1-Pad1)*%
G36*
X125840000Y-101870000D02*
G01*
X125340000Y-102620000D01*
X124340000Y-102620000D01*
X124340000Y-101120000D01*
X125340000Y-101120000D01*
X125840000Y-101870000D01*
G37*
%TD.AperFunction*%
%TA.AperFunction,SMDPad,CuDef*%
%TO.P,JP1,2*%
%TO.N,MCU_D2_LORA_DIO2*%
G36*
X126790000Y-102620000D02*
G01*
X125640000Y-102620000D01*
X126140000Y-101870000D01*
X125640000Y-101120000D01*
X126790000Y-101120000D01*
X126790000Y-102620000D01*
G37*
%TD.AperFunction*%
%TD*%
D11*
%TO.P,J1,2*%
%TO.N,GND*%
X167040000Y-87090000D03*
%TO.P,J1,1*%
%TO.N,+BATT*%
%TA.AperFunction,ComponentPad*%
G36*
G01*
X166414999Y-84490000D02*
X167665001Y-84490000D01*
G75*
G02*
X167915000Y-84739999I0J-249999D01*
G01*
X167915000Y-85440001D01*
G75*
G02*
X167665001Y-85690000I-249999J0D01*
G01*
X166414999Y-85690000D01*
G75*
G02*
X166165000Y-85440001I0J249999D01*
G01*
X166165000Y-84739999D01*
G75*
G02*
X166414999Y-84490000I249999J0D01*
G01*
G37*
%TD.AperFunction*%
%TD*%
%TO.P,J7,1*%
%TO.N,+3V3*%
%TA.AperFunction,ComponentPad*%
G36*
G01*
X159414999Y-98590000D02*
X160665001Y-98590000D01*
G75*
G02*
X160915000Y-98839999I0J-249999D01*
G01*
X160915000Y-99540001D01*
G75*
G02*
X160665001Y-99790000I-249999J0D01*
G01*
X159414999Y-99790000D01*
G75*
G02*
X159165000Y-99540001I0J249999D01*
G01*
X159165000Y-98839999D01*
G75*
G02*
X159414999Y-98590000I249999J0D01*
G01*
G37*
%TD.AperFunction*%
%TO.P,J7,2*%
%TO.N,MCU_D2_LORA_DIO2*%
X160040000Y-101190000D03*
%TD*%
D12*
%TO.P,J5,5*%
%TO.N,GND*%
X141600000Y-79190000D03*
%TO.P,J5,4*%
%TO.N,+3V3*%
X139060000Y-79190000D03*
%TO.P,J5,3*%
%TO.N,MCU_D5*%
X136520000Y-79190000D03*
%TO.P,J5,2*%
%TO.N,MCU_D4*%
X133980000Y-79190000D03*
D13*
%TO.P,J5,1*%
%TO.N,MCU_D3*%
X131440000Y-79190000D03*
%TD*%
D12*
%TO.P,J6,8*%
%TO.N,GND*%
X149220000Y-102190000D03*
%TO.P,J6,7*%
%TO.N,+3V3*%
X146680000Y-102190000D03*
%TO.P,J6,6*%
%TO.N,MCU_RST*%
X144140000Y-102190000D03*
%TO.P,J6,5*%
%TO.N,MCU_A7*%
X141600000Y-102190000D03*
%TO.P,J6,4*%
%TO.N,MCU_A6*%
X139060000Y-102190000D03*
%TO.P,J6,3*%
%TO.N,MCU_A3*%
X136520000Y-102190000D03*
%TO.P,J6,2*%
%TO.N,MCU_A2*%
X133980000Y-102190000D03*
D13*
%TO.P,J6,1*%
%TO.N,MCU_A1*%
X131440000Y-102190000D03*
%TD*%
D11*
%TO.P,J8,2*%
%TO.N,MCU_D3*%
X160040000Y-93690000D03*
%TO.P,J8,1*%
%TO.N,+3V3*%
%TA.AperFunction,ComponentPad*%
G36*
G01*
X159414999Y-91090000D02*
X160665001Y-91090000D01*
G75*
G02*
X160915000Y-91339999I0J-249999D01*
G01*
X160915000Y-92040001D01*
G75*
G02*
X160665001Y-92290000I-249999J0D01*
G01*
X159414999Y-92290000D01*
G75*
G02*
X159165000Y-92040001I0J249999D01*
G01*
X159165000Y-91339999D01*
G75*
G02*
X159414999Y-91090000I249999J0D01*
G01*
G37*
%TD.AperFunction*%
%TD*%
D12*
%TO.P,J4,5*%
%TO.N,MCU_RST*%
X154440000Y-85610000D03*
%TO.P,J4,4*%
%TO.N,MCU_TXD*%
X154440000Y-88150000D03*
%TO.P,J4,3*%
%TO.N,MCU_RXD*%
X154440000Y-90690000D03*
%TO.P,J4,2*%
%TO.N,GND*%
X154440000Y-93230000D03*
D14*
%TO.P,J4,1*%
%TO.N,+3V3*%
X154440000Y-95770000D03*
%TD*%
D15*
%TO.P,AE1,1*%
%TO.N,Net-(AE1-Pad1)*%
X106449000Y-90690000D03*
D16*
%TO.P,AE1,2*%
%TO.N,GND*%
X103440000Y-93692000D03*
X103440000Y-87692000D03*
%TD*%
D11*
%TO.P,J3,4*%
%TO.N,MCU_SDA*%
X160040000Y-86190000D03*
%TO.P,J3,3*%
%TO.N,MCU_SCL*%
X160040000Y-84190000D03*
%TO.P,J3,2*%
%TO.N,GND*%
X160040000Y-82190000D03*
%TO.P,J3,1*%
%TO.N,+3V3*%
%TA.AperFunction,ComponentPad*%
G36*
G01*
X159414999Y-79590000D02*
X160665001Y-79590000D01*
G75*
G02*
X160915000Y-79839999I0J-249999D01*
G01*
X160915000Y-80540001D01*
G75*
G02*
X160665001Y-80790000I-249999J0D01*
G01*
X159414999Y-80790000D01*
G75*
G02*
X159165000Y-80540001I0J249999D01*
G01*
X159165000Y-79839999D01*
G75*
G02*
X159414999Y-79590000I249999J0D01*
G01*
G37*
%TD.AperFunction*%
%TD*%
%TO.P,J2,3*%
%TO.N,GND*%
X167040000Y-96290000D03*
%TO.P,J2,2*%
%TO.N,1-WIRE*%
X167040000Y-94290000D03*
%TO.P,J2,1*%
%TO.N,+3V3*%
%TA.AperFunction,ComponentPad*%
G36*
G01*
X166414999Y-91690000D02*
X167665001Y-91690000D01*
G75*
G02*
X167915000Y-91939999I0J-249999D01*
G01*
X167915000Y-92640001D01*
G75*
G02*
X167665001Y-92890000I-249999J0D01*
G01*
X166414999Y-92890000D01*
G75*
G02*
X166165000Y-92640001I0J249999D01*
G01*
X166165000Y-91939999D01*
G75*
G02*
X166414999Y-91690000I249999J0D01*
G01*
G37*
%TD.AperFunction*%
%TD*%
D17*
%TO.N,GND*%
X133240000Y-82470000D03*
X156640000Y-102590000D03*
X160040000Y-96490000D03*
X149940000Y-85990000D03*
X113399000Y-84690000D03*
X157340000Y-81390000D03*
X137440000Y-84690000D03*
X140140000Y-82590000D03*
X140140000Y-97690000D03*
X137740000Y-100990000D03*
X127340000Y-84690000D03*
X152640000Y-85290000D03*
X129940000Y-80690000D03*
X149940000Y-84190000D03*
X148240000Y-80070000D03*
X135240000Y-93070000D03*
X137740000Y-92470000D03*
X132740000Y-80770000D03*
X160040000Y-88970000D03*
X137840000Y-87670000D03*
X140340000Y-100970000D03*
X142840000Y-100970000D03*
X147240000Y-100370000D03*
X107440000Y-89470000D03*
X108440000Y-89470000D03*
X109340000Y-89570000D03*
X110340000Y-89770000D03*
X111240000Y-90170000D03*
X112040000Y-90670000D03*
X112840000Y-91370000D03*
X113440000Y-92070000D03*
X113940000Y-92870000D03*
X114340000Y-93770000D03*
X114540000Y-94770000D03*
X114640000Y-95670000D03*
X114640000Y-96670000D03*
X107440000Y-91970000D03*
X108340000Y-91970000D03*
X109240000Y-92070000D03*
X110140000Y-92370000D03*
X110940000Y-92870000D03*
X111540000Y-93570000D03*
X111940000Y-94370000D03*
X112140000Y-95270000D03*
X112140000Y-97070000D03*
X112140000Y-97970000D03*
X112140000Y-98870000D03*
X112140000Y-99770000D03*
X112840000Y-100470000D03*
X113740000Y-100470000D03*
X112140000Y-96170000D03*
X103440000Y-85470000D03*
X103440000Y-95870000D03*
X156440000Y-85590000D03*
%TO.N,+3V3*%
X144940000Y-99890000D03*
%TO.N,+BATT*%
X152340000Y-82590000D03*
X150240000Y-82590000D03*
%TO.N,1-WIRE*%
X141940000Y-83290000D03*
X138040000Y-89170000D03*
%TO.N,MCU_SDA*%
X143940000Y-99890000D03*
%TO.N,MCU_SCL*%
X143940000Y-95390000D03*
%TO.N,Net-(JP1-Pad1)*%
X127399000Y-96690000D03*
%TO.N,LORA_DIO1*%
X125399000Y-96690000D03*
X134040000Y-91370000D03*
%TO.N,LORA_DIO0*%
X123399000Y-96690000D03*
X133340000Y-90490000D03*
%TO.N,LORA_RST*%
X126740000Y-86290000D03*
X117399000Y-86290000D03*
%TO.N,SPI_CS_LORA*%
X126740000Y-87290000D03*
X119399000Y-87290000D03*
%TO.N,SPI_MOSI*%
X126740000Y-88290000D03*
X123399000Y-88290000D03*
%TO.N,MCU_D5*%
X134740000Y-84590000D03*
%TO.N,MCU_D3*%
X156124999Y-86974999D03*
%TO.N,MCU_D2_LORA_DIO2*%
X142940000Y-90690000D03*
%TO.N,MCU_D4*%
X138040000Y-90270000D03*
%TO.N,MCU_D2_LORA_DIO2*%
X155675001Y-89325001D03*
X158040000Y-94090000D03*
%TO.N,MCU_D3*%
X143040000Y-88570000D03*
%TO.N,MCU_A6*%
X131940000Y-93990000D03*
X133440000Y-95490000D03*
%TO.N,MCU_A3*%
X139640000Y-96190000D03*
%TO.N,MCU_A2*%
X137440000Y-96690000D03*
%TO.N,MCU_A1*%
X136440000Y-96690000D03*
%TO.N,MCU_A0_BAT*%
X133140000Y-83690000D03*
X136140000Y-88270000D03*
%TO.N,MCU_RST*%
X152640000Y-95190000D03*
X149640000Y-97490000D03*
%TO.N,MCU_TXD*%
X145840000Y-88150000D03*
%TO.N,MCU_RXD*%
X145840000Y-90690000D03*
%TD*%
D18*
%TO.N,+3V3*%
X146680000Y-101630000D02*
X146680000Y-102190000D01*
X144940000Y-99890000D02*
X146680000Y-101630000D01*
%TO.N,+BATT*%
X150240000Y-82590000D02*
X152340000Y-82590000D01*
%TO.N,1-WIRE*%
X168240010Y-93089990D02*
X167040000Y-94290000D01*
X168240000Y-90790000D02*
X168240000Y-93073141D01*
X160698151Y-83264990D02*
X168240010Y-90806849D01*
X141965001Y-83315001D02*
X141940000Y-83290000D01*
X152688001Y-83315001D02*
X141965001Y-83315001D01*
X152738012Y-83264990D02*
X152688001Y-83315001D01*
X160698151Y-83264990D02*
X152738012Y-83264990D01*
X141940000Y-85270000D02*
X141940000Y-83290000D01*
X141940000Y-85070000D02*
X141940000Y-83290000D01*
X138040000Y-89170000D02*
X141940000Y-85270000D01*
%TO.N,MCU_SDA*%
X143940000Y-99324315D02*
X143940000Y-99890000D01*
X148859314Y-94405001D02*
X143940000Y-99324315D01*
X155261409Y-94405001D02*
X148859314Y-94405001D01*
X158839989Y-90826421D02*
X155261409Y-94405001D01*
X158839990Y-87390010D02*
X158839989Y-90826421D01*
X160040000Y-86190000D02*
X158839990Y-87390010D01*
%TO.N,MCU_SCL*%
X158389980Y-85840020D02*
X160040000Y-84190000D01*
X146464999Y-91865001D02*
X157164999Y-91865001D01*
X143940000Y-95390000D02*
X143940000Y-94390000D01*
X158389980Y-90640020D02*
X158389980Y-88339980D01*
X143940000Y-94390000D02*
X146464999Y-91865001D01*
X158389980Y-88339980D02*
X158389980Y-85840020D01*
X157164999Y-91865001D02*
X158389980Y-90640020D01*
X158389980Y-88479022D02*
X158389980Y-88339980D01*
%TO.N,LORA_DIO1*%
X130719000Y-91370000D02*
X130479500Y-91609500D01*
X134040000Y-91370000D02*
X130719000Y-91370000D01*
X130479500Y-91609500D02*
X125399000Y-96690000D01*
X130599000Y-91490000D02*
X130479500Y-91609500D01*
%TO.N,LORA_DIO0*%
X129599000Y-90490000D02*
X133340000Y-90490000D01*
X123399000Y-96690000D02*
X129599000Y-90490000D01*
%TO.N,LORA_RST*%
X126740000Y-86290000D02*
X117399000Y-86290000D01*
%TO.N,SPI_CS_LORA*%
X126740000Y-87290000D02*
X119399000Y-87290000D01*
%TO.N,SPI_MOSI*%
X126740000Y-88290000D02*
X123399000Y-88290000D01*
%TO.N,MCU_D5*%
X134740000Y-80970000D02*
X136520000Y-79190000D01*
X134740000Y-84590000D02*
X134740000Y-80970000D01*
%TO.N,MCU_D3*%
X156124999Y-86974999D02*
X156124999Y-86974999D01*
%TO.N,MCU_D4*%
X133980000Y-84903002D02*
X133980000Y-79190000D01*
X133980000Y-84903002D02*
X134026004Y-84903002D01*
X133980000Y-84903002D02*
X136865001Y-87788003D01*
X136865001Y-87788003D02*
X136865001Y-89095001D01*
X136865001Y-89095001D02*
X138040000Y-90270000D01*
%TO.N,MCU_D2_LORA_DIO2*%
X155675001Y-89325001D02*
X155675001Y-89325001D01*
X158040000Y-99190000D02*
X160040000Y-101190000D01*
X158040000Y-94090000D02*
X158040000Y-99190000D01*
%TO.N,MCU_D3*%
X137691999Y-90995001D02*
X131440000Y-84743002D01*
X138988001Y-90995001D02*
X137691999Y-90995001D01*
X131440000Y-84743002D02*
X131440000Y-79190000D01*
X139638003Y-90344999D02*
X138988001Y-90995001D01*
X141265001Y-90344999D02*
X139638003Y-90344999D01*
X143040000Y-88570000D02*
X141265001Y-90344999D01*
X144635001Y-86974999D02*
X143040000Y-88570000D01*
X156124999Y-86974999D02*
X144635001Y-86974999D01*
%TO.N,MCU_A6*%
X133440000Y-95490000D02*
X131940000Y-93990000D01*
%TO.N,MCU_A3*%
X136520000Y-99310000D02*
X139640000Y-96190000D01*
X136520000Y-102190000D02*
X136520000Y-99310000D01*
%TO.N,MCU_A2*%
X133980000Y-102190000D02*
X133980000Y-100223002D01*
X137440000Y-96763002D02*
X137440000Y-96690000D01*
X133980000Y-100223002D02*
X137440000Y-96763002D01*
%TO.N,MCU_A1*%
X131440000Y-101690000D02*
X131440000Y-102190000D01*
X136440000Y-96690000D02*
X131440000Y-101690000D01*
%TO.N,MCU_A0_BAT*%
X133140000Y-85270000D02*
X136140000Y-88270000D01*
X133140000Y-83690000D02*
X133140000Y-85270000D01*
%TO.N,MCU_RST*%
X149640000Y-97290000D02*
X149640000Y-97490000D01*
X149640000Y-95790000D02*
X149640000Y-97490000D01*
X150240000Y-95190000D02*
X149640000Y-95790000D01*
X152640000Y-95190000D02*
X150240000Y-95190000D01*
%TO.N,MCU_TXD*%
X145840000Y-88150000D02*
X154440000Y-88150000D01*
%TO.N,MCU_RXD*%
X145840000Y-90690000D02*
X154440000Y-90690000D01*
%TO.N,MCU_D2_LORA_DIO2*%
X128133002Y-101870000D02*
X126290000Y-101870000D01*
X129160000Y-101870000D02*
X128133002Y-101870000D01*
X138714999Y-94895001D02*
X136134999Y-94895001D01*
X136134999Y-94895001D02*
X129160000Y-101870000D01*
X144284999Y-89325001D02*
X138714999Y-94895001D01*
X155675001Y-89325001D02*
X144284999Y-89325001D01*
%TO.N,Net-(JP1-Pad1)*%
X124840000Y-99249000D02*
X127399000Y-96690000D01*
X124840000Y-101870000D02*
X124840000Y-99249000D01*
%TD*%
D19*
%TO.N,GND*%
X168433463Y-77647312D02*
X168917756Y-77793529D01*
X169364422Y-78031025D01*
X169756450Y-78350755D01*
X170078907Y-78740539D01*
X170319518Y-79185540D01*
X170469111Y-79668796D01*
X170524000Y-80191029D01*
X170524001Y-101170136D01*
X170472688Y-101693464D01*
X170326472Y-102177756D01*
X170088975Y-102624422D01*
X169769245Y-103016450D01*
X169379458Y-103338910D01*
X168934460Y-103579518D01*
X168451205Y-103729111D01*
X167928968Y-103784000D01*
X101959866Y-103782001D01*
X101436536Y-103730688D01*
X100952244Y-103584472D01*
X100505578Y-103346975D01*
X100113550Y-103027245D01*
X99791090Y-102637458D01*
X99550482Y-102192460D01*
X99400889Y-101709205D01*
X99346000Y-101186971D01*
X99346000Y-101029360D01*
X100309000Y-101029360D01*
X100309000Y-101350640D01*
X100371678Y-101665745D01*
X100494626Y-101962568D01*
X100673119Y-102229702D01*
X100900298Y-102456881D01*
X101167432Y-102635374D01*
X101464255Y-102758322D01*
X101779360Y-102821000D01*
X102100640Y-102821000D01*
X102415745Y-102758322D01*
X102712568Y-102635374D01*
X102979702Y-102456881D01*
X103206881Y-102229702D01*
X103385374Y-101962568D01*
X103508322Y-101665745D01*
X103571000Y-101350640D01*
X103571000Y-101120000D01*
X123957157Y-101120000D01*
X123957157Y-102620000D01*
X123964513Y-102694689D01*
X123986299Y-102766508D01*
X124021678Y-102832696D01*
X124069289Y-102890711D01*
X124127304Y-102938322D01*
X124193492Y-102973701D01*
X124265311Y-102995487D01*
X124340000Y-103002843D01*
X125340000Y-103002843D01*
X125415082Y-102995408D01*
X125486878Y-102973547D01*
X125490037Y-102971854D01*
X125493492Y-102973701D01*
X125565311Y-102995487D01*
X125640000Y-103002843D01*
X126790000Y-103002843D01*
X126864689Y-102995487D01*
X126936508Y-102973701D01*
X127002696Y-102938322D01*
X127060711Y-102890711D01*
X127108322Y-102832696D01*
X127143701Y-102766508D01*
X127165487Y-102694689D01*
X127172843Y-102620000D01*
X127172843Y-102376000D01*
X129135154Y-102376000D01*
X129160000Y-102378447D01*
X129184846Y-102376000D01*
X129184854Y-102376000D01*
X129259193Y-102368678D01*
X129354575Y-102339745D01*
X129442479Y-102292759D01*
X129519527Y-102229527D01*
X129535376Y-102210215D01*
X129676834Y-102068757D01*
X130209000Y-102068757D01*
X130209000Y-102311243D01*
X130256307Y-102549069D01*
X130349102Y-102773097D01*
X130483820Y-102974717D01*
X130655283Y-103146180D01*
X130856903Y-103280898D01*
X131080931Y-103373693D01*
X131318757Y-103421000D01*
X131561243Y-103421000D01*
X131799069Y-103373693D01*
X132023097Y-103280898D01*
X132224717Y-103146180D01*
X132396180Y-102974717D01*
X132530898Y-102773097D01*
X132623693Y-102549069D01*
X132671000Y-102311243D01*
X132671000Y-102068757D01*
X132623693Y-101830931D01*
X132530898Y-101606903D01*
X132413855Y-101431736D01*
X133474001Y-100371590D01*
X133474001Y-101067167D01*
X133396903Y-101099102D01*
X133195283Y-101233820D01*
X133023820Y-101405283D01*
X132889102Y-101606903D01*
X132796307Y-101830931D01*
X132749000Y-102068757D01*
X132749000Y-102311243D01*
X132796307Y-102549069D01*
X132889102Y-102773097D01*
X133023820Y-102974717D01*
X133195283Y-103146180D01*
X133396903Y-103280898D01*
X133620931Y-103373693D01*
X133858757Y-103421000D01*
X134101243Y-103421000D01*
X134339069Y-103373693D01*
X134563097Y-103280898D01*
X134764717Y-103146180D01*
X134936180Y-102974717D01*
X135070898Y-102773097D01*
X135163693Y-102549069D01*
X135211000Y-102311243D01*
X135211000Y-102068757D01*
X135163693Y-101830931D01*
X135070898Y-101606903D01*
X134936180Y-101405283D01*
X134764717Y-101233820D01*
X134563097Y-101099102D01*
X134486000Y-101067168D01*
X134486000Y-100432593D01*
X137447594Y-97471000D01*
X137516922Y-97471000D01*
X137667809Y-97440987D01*
X137677390Y-97437018D01*
X136179781Y-98934628D01*
X136160474Y-98950473D01*
X136097242Y-99027521D01*
X136082861Y-99054426D01*
X136050255Y-99115426D01*
X136021322Y-99210808D01*
X136011553Y-99310000D01*
X136014001Y-99334856D01*
X136014000Y-101067167D01*
X135936903Y-101099102D01*
X135735283Y-101233820D01*
X135563820Y-101405283D01*
X135429102Y-101606903D01*
X135336307Y-101830931D01*
X135289000Y-102068757D01*
X135289000Y-102311243D01*
X135336307Y-102549069D01*
X135429102Y-102773097D01*
X135563820Y-102974717D01*
X135735283Y-103146180D01*
X135936903Y-103280898D01*
X136160931Y-103373693D01*
X136398757Y-103421000D01*
X136641243Y-103421000D01*
X136879069Y-103373693D01*
X137103097Y-103280898D01*
X137304717Y-103146180D01*
X137476180Y-102974717D01*
X137610898Y-102773097D01*
X137703693Y-102549069D01*
X137751000Y-102311243D01*
X137751000Y-102068757D01*
X137829000Y-102068757D01*
X137829000Y-102311243D01*
X137876307Y-102549069D01*
X137969102Y-102773097D01*
X138103820Y-102974717D01*
X138275283Y-103146180D01*
X138476903Y-103280898D01*
X138700931Y-103373693D01*
X138938757Y-103421000D01*
X139181243Y-103421000D01*
X139419069Y-103373693D01*
X139643097Y-103280898D01*
X139844717Y-103146180D01*
X140016180Y-102974717D01*
X140150898Y-102773097D01*
X140243693Y-102549069D01*
X140291000Y-102311243D01*
X140291000Y-102068757D01*
X140369000Y-102068757D01*
X140369000Y-102311243D01*
X140416307Y-102549069D01*
X140509102Y-102773097D01*
X140643820Y-102974717D01*
X140815283Y-103146180D01*
X141016903Y-103280898D01*
X141240931Y-103373693D01*
X141478757Y-103421000D01*
X141721243Y-103421000D01*
X141959069Y-103373693D01*
X142183097Y-103280898D01*
X142384717Y-103146180D01*
X142556180Y-102974717D01*
X142690898Y-102773097D01*
X142783693Y-102549069D01*
X142831000Y-102311243D01*
X142831000Y-102068757D01*
X142909000Y-102068757D01*
X142909000Y-102311243D01*
X142956307Y-102549069D01*
X143049102Y-102773097D01*
X143183820Y-102974717D01*
X143355283Y-103146180D01*
X143556903Y-103280898D01*
X143780931Y-103373693D01*
X144018757Y-103421000D01*
X144261243Y-103421000D01*
X144499069Y-103373693D01*
X144723097Y-103280898D01*
X144924717Y-103146180D01*
X145096180Y-102974717D01*
X145230898Y-102773097D01*
X145323693Y-102549069D01*
X145371000Y-102311243D01*
X145371000Y-102068757D01*
X145323693Y-101830931D01*
X145230898Y-101606903D01*
X145096180Y-101405283D01*
X144924717Y-101233820D01*
X144723097Y-101099102D01*
X144499069Y-101006307D01*
X144261243Y-100959000D01*
X144018757Y-100959000D01*
X143780931Y-101006307D01*
X143556903Y-101099102D01*
X143355283Y-101233820D01*
X143183820Y-101405283D01*
X143049102Y-101606903D01*
X142956307Y-101830931D01*
X142909000Y-102068757D01*
X142831000Y-102068757D01*
X142783693Y-101830931D01*
X142690898Y-101606903D01*
X142556180Y-101405283D01*
X142384717Y-101233820D01*
X142183097Y-101099102D01*
X141959069Y-101006307D01*
X141721243Y-100959000D01*
X141478757Y-100959000D01*
X141240931Y-101006307D01*
X141016903Y-101099102D01*
X140815283Y-101233820D01*
X140643820Y-101405283D01*
X140509102Y-101606903D01*
X140416307Y-101830931D01*
X140369000Y-102068757D01*
X140291000Y-102068757D01*
X140243693Y-101830931D01*
X140150898Y-101606903D01*
X140016180Y-101405283D01*
X139844717Y-101233820D01*
X139643097Y-101099102D01*
X139419069Y-101006307D01*
X139181243Y-100959000D01*
X138938757Y-100959000D01*
X138700931Y-101006307D01*
X138476903Y-101099102D01*
X138275283Y-101233820D01*
X138103820Y-101405283D01*
X137969102Y-101606903D01*
X137876307Y-101830931D01*
X137829000Y-102068757D01*
X137751000Y-102068757D01*
X137703693Y-101830931D01*
X137610898Y-101606903D01*
X137476180Y-101405283D01*
X137304717Y-101233820D01*
X137103097Y-101099102D01*
X137026000Y-101067168D01*
X137026000Y-99519591D01*
X139574592Y-96971000D01*
X139716922Y-96971000D01*
X139867809Y-96940987D01*
X140009942Y-96882113D01*
X140137859Y-96796642D01*
X140246642Y-96687859D01*
X140332113Y-96559942D01*
X140390987Y-96417809D01*
X140421000Y-96266922D01*
X140421000Y-96113078D01*
X140390987Y-95962191D01*
X140332113Y-95820058D01*
X140246642Y-95692141D01*
X140137859Y-95583358D01*
X140009942Y-95497887D01*
X139867809Y-95439013D01*
X139716922Y-95409000D01*
X139563078Y-95409000D01*
X139412191Y-95439013D01*
X139270058Y-95497887D01*
X139142141Y-95583358D01*
X139033358Y-95692141D01*
X138947887Y-95820058D01*
X138889013Y-95962191D01*
X138859000Y-96113078D01*
X138859000Y-96255408D01*
X138187018Y-96927390D01*
X138190987Y-96917809D01*
X138221000Y-96766922D01*
X138221000Y-96613078D01*
X138190987Y-96462191D01*
X138132113Y-96320058D01*
X138046642Y-96192141D01*
X137937859Y-96083358D01*
X137809942Y-95997887D01*
X137667809Y-95939013D01*
X137516922Y-95909000D01*
X137363078Y-95909000D01*
X137212191Y-95939013D01*
X137070058Y-95997887D01*
X136942141Y-96083358D01*
X136940000Y-96085499D01*
X136937859Y-96083358D01*
X136809942Y-95997887D01*
X136667809Y-95939013D01*
X136516922Y-95909000D01*
X136363078Y-95909000D01*
X136212191Y-95939013D01*
X136070058Y-95997887D01*
X135942141Y-96083358D01*
X135833358Y-96192141D01*
X135747887Y-96320058D01*
X135689013Y-96462191D01*
X135659000Y-96613078D01*
X135659000Y-96755408D01*
X131455409Y-100959000D01*
X131318757Y-100959000D01*
X131080931Y-101006307D01*
X130856903Y-101099102D01*
X130655283Y-101233820D01*
X130483820Y-101405283D01*
X130349102Y-101606903D01*
X130256307Y-101830931D01*
X130209000Y-102068757D01*
X129676834Y-102068757D01*
X136344591Y-95401001D01*
X138690153Y-95401001D01*
X138714999Y-95403448D01*
X138739845Y-95401001D01*
X138739853Y-95401001D01*
X138814192Y-95393679D01*
X138909574Y-95364746D01*
X138997478Y-95317760D01*
X139074526Y-95254528D01*
X139090375Y-95235216D01*
X142856000Y-91469592D01*
X142863078Y-91471000D01*
X143016922Y-91471000D01*
X143167809Y-91440987D01*
X143309942Y-91382113D01*
X143437859Y-91296642D01*
X143546642Y-91187859D01*
X143632113Y-91059942D01*
X143690987Y-90917809D01*
X143721000Y-90766922D01*
X143721000Y-90613078D01*
X143719592Y-90606000D01*
X144494591Y-89831001D01*
X153558102Y-89831001D01*
X153483820Y-89905283D01*
X153349102Y-90106903D01*
X153317168Y-90184000D01*
X146438501Y-90184000D01*
X146337859Y-90083358D01*
X146209942Y-89997887D01*
X146067809Y-89939013D01*
X145916922Y-89909000D01*
X145763078Y-89909000D01*
X145612191Y-89939013D01*
X145470058Y-89997887D01*
X145342141Y-90083358D01*
X145233358Y-90192141D01*
X145147887Y-90320058D01*
X145089013Y-90462191D01*
X145059000Y-90613078D01*
X145059000Y-90766922D01*
X145089013Y-90917809D01*
X145147887Y-91059942D01*
X145233358Y-91187859D01*
X145342141Y-91296642D01*
X145470058Y-91382113D01*
X145612191Y-91440987D01*
X145763078Y-91471000D01*
X145916922Y-91471000D01*
X146067809Y-91440987D01*
X146209942Y-91382113D01*
X146337859Y-91296642D01*
X146438501Y-91196000D01*
X153317168Y-91196000D01*
X153349102Y-91273097D01*
X153406501Y-91359001D01*
X146489853Y-91359001D01*
X146464999Y-91356553D01*
X146440145Y-91359001D01*
X146365806Y-91366323D01*
X146270424Y-91395256D01*
X146182520Y-91442242D01*
X146105472Y-91505474D01*
X146089628Y-91524780D01*
X143599781Y-94014628D01*
X143580474Y-94030473D01*
X143517242Y-94107521D01*
X143492127Y-94154508D01*
X143470255Y-94195426D01*
X143441322Y-94290808D01*
X143431553Y-94390000D01*
X143434001Y-94414856D01*
X143434001Y-94791498D01*
X143333358Y-94892141D01*
X143247887Y-95020058D01*
X143189013Y-95162191D01*
X143159000Y-95313078D01*
X143159000Y-95466922D01*
X143189013Y-95617809D01*
X143247887Y-95759942D01*
X143333358Y-95887859D01*
X143442141Y-95996642D01*
X143570058Y-96082113D01*
X143712191Y-96140987D01*
X143863078Y-96171000D01*
X144016922Y-96171000D01*
X144167809Y-96140987D01*
X144309942Y-96082113D01*
X144437859Y-95996642D01*
X144546642Y-95887859D01*
X144632113Y-95759942D01*
X144690987Y-95617809D01*
X144721000Y-95466922D01*
X144721000Y-95313078D01*
X144690987Y-95162191D01*
X144632113Y-95020058D01*
X144546642Y-94892141D01*
X144446000Y-94791499D01*
X144446000Y-94599591D01*
X146674591Y-92371001D01*
X153237040Y-92371001D01*
X153168359Y-92463080D01*
X153043175Y-92725901D01*
X152998524Y-92873110D01*
X153119845Y-93103000D01*
X154313000Y-93103000D01*
X154313000Y-93083000D01*
X154567000Y-93083000D01*
X154567000Y-93103000D01*
X154587000Y-93103000D01*
X154587000Y-93357000D01*
X154567000Y-93357000D01*
X154567000Y-93377000D01*
X154313000Y-93377000D01*
X154313000Y-93357000D01*
X153119845Y-93357000D01*
X152998524Y-93586890D01*
X153043175Y-93734099D01*
X153121719Y-93899001D01*
X148884168Y-93899001D01*
X148859314Y-93896553D01*
X148834460Y-93899001D01*
X148760121Y-93906323D01*
X148664739Y-93935256D01*
X148576835Y-93982242D01*
X148499787Y-94045474D01*
X148483943Y-94064780D01*
X143599785Y-98948939D01*
X143580473Y-98964788D01*
X143517241Y-99041836D01*
X143470255Y-99129741D01*
X143441322Y-99225123D01*
X143434870Y-99290629D01*
X143333358Y-99392141D01*
X143247887Y-99520058D01*
X143189013Y-99662191D01*
X143159000Y-99813078D01*
X143159000Y-99966922D01*
X143189013Y-100117809D01*
X143247887Y-100259942D01*
X143333358Y-100387859D01*
X143442141Y-100496642D01*
X143570058Y-100582113D01*
X143712191Y-100640987D01*
X143863078Y-100671000D01*
X144016922Y-100671000D01*
X144167809Y-100640987D01*
X144309942Y-100582113D01*
X144437859Y-100496642D01*
X144440000Y-100494501D01*
X144442141Y-100496642D01*
X144570058Y-100582113D01*
X144712191Y-100640987D01*
X144863078Y-100671000D01*
X145005409Y-100671000D01*
X145731756Y-101397347D01*
X145723820Y-101405283D01*
X145589102Y-101606903D01*
X145496307Y-101830931D01*
X145449000Y-102068757D01*
X145449000Y-102311243D01*
X145496307Y-102549069D01*
X145589102Y-102773097D01*
X145723820Y-102974717D01*
X145895283Y-103146180D01*
X146096903Y-103280898D01*
X146320931Y-103373693D01*
X146558757Y-103421000D01*
X146801243Y-103421000D01*
X147039069Y-103373693D01*
X147263097Y-103280898D01*
X147464717Y-103146180D01*
X147636180Y-102974717D01*
X147770898Y-102773097D01*
X147818228Y-102658832D01*
X147875843Y-102821252D01*
X148024822Y-103071355D01*
X148219731Y-103287588D01*
X148453080Y-103461641D01*
X148715901Y-103586825D01*
X148863110Y-103631476D01*
X149093000Y-103510155D01*
X149093000Y-102317000D01*
X149347000Y-102317000D01*
X149347000Y-103510155D01*
X149576890Y-103631476D01*
X149724099Y-103586825D01*
X149986920Y-103461641D01*
X150220269Y-103287588D01*
X150415178Y-103071355D01*
X150564157Y-102821252D01*
X150661481Y-102546891D01*
X150540814Y-102317000D01*
X149347000Y-102317000D01*
X149093000Y-102317000D01*
X149073000Y-102317000D01*
X149073000Y-102063000D01*
X149093000Y-102063000D01*
X149093000Y-100869845D01*
X149347000Y-100869845D01*
X149347000Y-102063000D01*
X150540814Y-102063000D01*
X150661481Y-101833109D01*
X150564157Y-101558748D01*
X150415178Y-101308645D01*
X150220269Y-101092412D01*
X149986920Y-100918359D01*
X149724099Y-100793175D01*
X149576890Y-100748524D01*
X149347000Y-100869845D01*
X149093000Y-100869845D01*
X148863110Y-100748524D01*
X148715901Y-100793175D01*
X148453080Y-100918359D01*
X148219731Y-101092412D01*
X148024822Y-101308645D01*
X147875843Y-101558748D01*
X147818228Y-101721168D01*
X147770898Y-101606903D01*
X147636180Y-101405283D01*
X147464717Y-101233820D01*
X147263097Y-101099102D01*
X147039069Y-101006307D01*
X146801243Y-100959000D01*
X146724592Y-100959000D01*
X145721000Y-99955409D01*
X145721000Y-99813078D01*
X145690987Y-99662191D01*
X145632113Y-99520058D01*
X145546642Y-99392141D01*
X145437859Y-99283358D01*
X145309942Y-99197887D01*
X145167809Y-99139013D01*
X145016922Y-99109000D01*
X144870906Y-99109000D01*
X149068906Y-94911001D01*
X149803407Y-94911001D01*
X149299785Y-95414624D01*
X149280473Y-95430473D01*
X149217241Y-95507521D01*
X149170255Y-95595426D01*
X149141322Y-95690808D01*
X149134000Y-95765147D01*
X149134000Y-95765154D01*
X149131553Y-95790000D01*
X149134000Y-95814847D01*
X149134001Y-96891498D01*
X149033358Y-96992141D01*
X148947887Y-97120058D01*
X148889013Y-97262191D01*
X148859000Y-97413078D01*
X148859000Y-97566922D01*
X148889013Y-97717809D01*
X148947887Y-97859942D01*
X149033358Y-97987859D01*
X149142141Y-98096642D01*
X149270058Y-98182113D01*
X149412191Y-98240987D01*
X149563078Y-98271000D01*
X149716922Y-98271000D01*
X149867809Y-98240987D01*
X150009942Y-98182113D01*
X150137859Y-98096642D01*
X150246642Y-97987859D01*
X150332113Y-97859942D01*
X150390987Y-97717809D01*
X150421000Y-97566922D01*
X150421000Y-97413078D01*
X150390987Y-97262191D01*
X150332113Y-97120058D01*
X150246642Y-96992141D01*
X150146000Y-96891499D01*
X150146000Y-95999591D01*
X150449592Y-95696000D01*
X152041499Y-95696000D01*
X152142141Y-95796642D01*
X152270058Y-95882113D01*
X152412191Y-95940987D01*
X152563078Y-95971000D01*
X152716922Y-95971000D01*
X152867809Y-95940987D01*
X153009942Y-95882113D01*
X153137859Y-95796642D01*
X153207157Y-95727344D01*
X153207157Y-96620000D01*
X153214513Y-96694689D01*
X153236299Y-96766508D01*
X153271678Y-96832696D01*
X153319289Y-96890711D01*
X153377304Y-96938322D01*
X153443492Y-96973701D01*
X153515311Y-96995487D01*
X153590000Y-97002843D01*
X155290000Y-97002843D01*
X155364689Y-96995487D01*
X155436508Y-96973701D01*
X155502696Y-96938322D01*
X155560711Y-96890711D01*
X155608322Y-96832696D01*
X155643701Y-96766508D01*
X155665487Y-96694689D01*
X155672843Y-96620000D01*
X155672843Y-94920000D01*
X155665487Y-94845311D01*
X155643701Y-94773492D01*
X155631820Y-94751265D01*
X155636785Y-94745216D01*
X156368923Y-94013078D01*
X157259000Y-94013078D01*
X157259000Y-94166922D01*
X157289013Y-94317809D01*
X157347887Y-94459942D01*
X157433358Y-94587859D01*
X157534000Y-94688501D01*
X157534001Y-99165144D01*
X157531553Y-99190000D01*
X157541322Y-99289192D01*
X157570255Y-99384574D01*
X157570256Y-99384575D01*
X157617242Y-99472479D01*
X157680474Y-99549527D01*
X157699781Y-99565372D01*
X158886645Y-100752237D01*
X158854289Y-100812771D01*
X158798195Y-100997690D01*
X158779254Y-101190000D01*
X158798195Y-101382310D01*
X158854289Y-101567229D01*
X158945382Y-101737651D01*
X159067972Y-101887028D01*
X159217349Y-102009618D01*
X159387771Y-102100711D01*
X159572690Y-102156805D01*
X159716813Y-102171000D01*
X160363187Y-102171000D01*
X160507310Y-102156805D01*
X160692229Y-102100711D01*
X160862651Y-102009618D01*
X161012028Y-101887028D01*
X161134618Y-101737651D01*
X161225711Y-101567229D01*
X161281805Y-101382310D01*
X161300746Y-101190000D01*
X161284925Y-101029360D01*
X166309000Y-101029360D01*
X166309000Y-101350640D01*
X166371678Y-101665745D01*
X166494626Y-101962568D01*
X166673119Y-102229702D01*
X166900298Y-102456881D01*
X167167432Y-102635374D01*
X167464255Y-102758322D01*
X167779360Y-102821000D01*
X168100640Y-102821000D01*
X168415745Y-102758322D01*
X168712568Y-102635374D01*
X168979702Y-102456881D01*
X169206881Y-102229702D01*
X169385374Y-101962568D01*
X169508322Y-101665745D01*
X169571000Y-101350640D01*
X169571000Y-101029360D01*
X169508322Y-100714255D01*
X169385374Y-100417432D01*
X169206881Y-100150298D01*
X168979702Y-99923119D01*
X168712568Y-99744626D01*
X168415745Y-99621678D01*
X168100640Y-99559000D01*
X167779360Y-99559000D01*
X167464255Y-99621678D01*
X167167432Y-99744626D01*
X166900298Y-99923119D01*
X166673119Y-100150298D01*
X166494626Y-100417432D01*
X166371678Y-100714255D01*
X166309000Y-101029360D01*
X161284925Y-101029360D01*
X161281805Y-100997690D01*
X161225711Y-100812771D01*
X161134618Y-100642349D01*
X161012028Y-100492972D01*
X160862651Y-100370382D01*
X160692229Y-100279289D01*
X160507310Y-100223195D01*
X160363187Y-100209000D01*
X159774592Y-100209000D01*
X159738435Y-100172843D01*
X160665001Y-100172843D01*
X160788462Y-100160683D01*
X160907179Y-100124671D01*
X161016589Y-100066190D01*
X161112488Y-99987488D01*
X161191190Y-99891589D01*
X161249671Y-99782179D01*
X161285683Y-99663462D01*
X161297843Y-99540001D01*
X161297843Y-98839999D01*
X161285683Y-98716538D01*
X161249671Y-98597821D01*
X161191190Y-98488411D01*
X161112488Y-98392512D01*
X161016589Y-98313810D01*
X160907179Y-98255329D01*
X160788462Y-98219317D01*
X160665001Y-98207157D01*
X159414999Y-98207157D01*
X159291538Y-98219317D01*
X159172821Y-98255329D01*
X159063411Y-98313810D01*
X158967512Y-98392512D01*
X158888810Y-98488411D01*
X158830329Y-98597821D01*
X158794317Y-98716538D01*
X158782157Y-98839999D01*
X158782157Y-99216566D01*
X158546000Y-98980409D01*
X158546000Y-96607609D01*
X165571538Y-96607609D01*
X165575409Y-96645282D01*
X165667579Y-96870533D01*
X165801922Y-97073474D01*
X165973275Y-97246307D01*
X166175054Y-97382390D01*
X166399504Y-97476493D01*
X166638000Y-97525000D01*
X166913000Y-97525000D01*
X166913000Y-96417000D01*
X167167000Y-96417000D01*
X167167000Y-97525000D01*
X167442000Y-97525000D01*
X167680496Y-97476493D01*
X167904946Y-97382390D01*
X168106725Y-97246307D01*
X168278078Y-97073474D01*
X168412421Y-96870533D01*
X168504591Y-96645282D01*
X168508462Y-96607609D01*
X168383731Y-96417000D01*
X167167000Y-96417000D01*
X166913000Y-96417000D01*
X165696269Y-96417000D01*
X165571538Y-96607609D01*
X158546000Y-96607609D01*
X158546000Y-94688501D01*
X158646642Y-94587859D01*
X158732113Y-94459942D01*
X158790987Y-94317809D01*
X158821000Y-94166922D01*
X158821000Y-94013078D01*
X158790987Y-93862191D01*
X158732113Y-93720058D01*
X158712029Y-93690000D01*
X158779254Y-93690000D01*
X158798195Y-93882310D01*
X158854289Y-94067229D01*
X158945382Y-94237651D01*
X159067972Y-94387028D01*
X159217349Y-94509618D01*
X159387771Y-94600711D01*
X159572690Y-94656805D01*
X159716813Y-94671000D01*
X160363187Y-94671000D01*
X160507310Y-94656805D01*
X160692229Y-94600711D01*
X160862651Y-94509618D01*
X161012028Y-94387028D01*
X161134618Y-94237651D01*
X161225711Y-94067229D01*
X161281805Y-93882310D01*
X161300746Y-93690000D01*
X161281805Y-93497690D01*
X161225711Y-93312771D01*
X161134618Y-93142349D01*
X161012028Y-92992972D01*
X160862651Y-92870382D01*
X160692229Y-92779289D01*
X160507310Y-92723195D01*
X160363187Y-92709000D01*
X159716813Y-92709000D01*
X159572690Y-92723195D01*
X159387771Y-92779289D01*
X159217349Y-92870382D01*
X159067972Y-92992972D01*
X158945382Y-93142349D01*
X158854289Y-93312771D01*
X158798195Y-93497690D01*
X158779254Y-93690000D01*
X158712029Y-93690000D01*
X158646642Y-93592141D01*
X158537859Y-93483358D01*
X158409942Y-93397887D01*
X158267809Y-93339013D01*
X158116922Y-93309000D01*
X157963078Y-93309000D01*
X157812191Y-93339013D01*
X157670058Y-93397887D01*
X157542141Y-93483358D01*
X157433358Y-93592141D01*
X157347887Y-93720058D01*
X157289013Y-93862191D01*
X157259000Y-94013078D01*
X156368923Y-94013078D01*
X158782157Y-91599845D01*
X158782157Y-92040001D01*
X158794317Y-92163462D01*
X158830329Y-92282179D01*
X158888810Y-92391589D01*
X158967512Y-92487488D01*
X159063411Y-92566190D01*
X159172821Y-92624671D01*
X159291538Y-92660683D01*
X159414999Y-92672843D01*
X160665001Y-92672843D01*
X160788462Y-92660683D01*
X160907179Y-92624671D01*
X161016589Y-92566190D01*
X161112488Y-92487488D01*
X161191190Y-92391589D01*
X161249671Y-92282179D01*
X161285683Y-92163462D01*
X161297843Y-92040001D01*
X161297843Y-91339999D01*
X161285683Y-91216538D01*
X161249671Y-91097821D01*
X161191190Y-90988411D01*
X161112488Y-90892512D01*
X161016589Y-90813810D01*
X160907179Y-90755329D01*
X160788462Y-90719317D01*
X160665001Y-90707157D01*
X159414999Y-90707157D01*
X159345988Y-90713954D01*
X159345990Y-87599601D01*
X159774591Y-87171000D01*
X160363187Y-87171000D01*
X160507310Y-87156805D01*
X160692229Y-87100711D01*
X160862651Y-87009618D01*
X161012028Y-86887028D01*
X161134618Y-86737651D01*
X161225711Y-86567229D01*
X161281805Y-86382310D01*
X161300746Y-86190000D01*
X161281805Y-85997690D01*
X161225711Y-85812771D01*
X161134618Y-85642349D01*
X161012028Y-85492972D01*
X160862651Y-85370382D01*
X160692229Y-85279289D01*
X160507310Y-85223195D01*
X160363187Y-85209000D01*
X159736592Y-85209000D01*
X159774592Y-85171000D01*
X160363187Y-85171000D01*
X160507310Y-85156805D01*
X160692229Y-85100711D01*
X160862651Y-85009618D01*
X161012028Y-84887028D01*
X161134618Y-84737651D01*
X161225711Y-84567229D01*
X161239463Y-84521893D01*
X167734000Y-91016431D01*
X167734000Y-91313953D01*
X167665001Y-91307157D01*
X166414999Y-91307157D01*
X166291538Y-91319317D01*
X166172821Y-91355329D01*
X166063411Y-91413810D01*
X165967512Y-91492512D01*
X165888810Y-91588411D01*
X165830329Y-91697821D01*
X165794317Y-91816538D01*
X165782157Y-91939999D01*
X165782157Y-92640001D01*
X165794317Y-92763462D01*
X165830329Y-92882179D01*
X165888810Y-92991589D01*
X165967512Y-93087488D01*
X166063411Y-93166190D01*
X166172821Y-93224671D01*
X166291538Y-93260683D01*
X166414999Y-93272843D01*
X167341565Y-93272843D01*
X167305408Y-93309000D01*
X166716813Y-93309000D01*
X166572690Y-93323195D01*
X166387771Y-93379289D01*
X166217349Y-93470382D01*
X166067972Y-93592972D01*
X165945382Y-93742349D01*
X165854289Y-93912771D01*
X165798195Y-94097690D01*
X165779254Y-94290000D01*
X165798195Y-94482310D01*
X165854289Y-94667229D01*
X165945382Y-94837651D01*
X166067972Y-94987028D01*
X166217349Y-95109618D01*
X166291014Y-95148993D01*
X166175054Y-95197610D01*
X165973275Y-95333693D01*
X165801922Y-95506526D01*
X165667579Y-95709467D01*
X165575409Y-95934718D01*
X165571538Y-95972391D01*
X165696269Y-96163000D01*
X166913000Y-96163000D01*
X166913000Y-96143000D01*
X167167000Y-96143000D01*
X167167000Y-96163000D01*
X168383731Y-96163000D01*
X168508462Y-95972391D01*
X168504591Y-95934718D01*
X168412421Y-95709467D01*
X168278078Y-95506526D01*
X168106725Y-95333693D01*
X167904946Y-95197610D01*
X167788986Y-95148993D01*
X167862651Y-95109618D01*
X168012028Y-94987028D01*
X168134618Y-94837651D01*
X168225711Y-94667229D01*
X168281805Y-94482310D01*
X168300746Y-94290000D01*
X168281805Y-94097690D01*
X168225711Y-93912771D01*
X168193355Y-93852237D01*
X168615380Y-93430212D01*
X168662768Y-93372469D01*
X168709754Y-93284565D01*
X168738688Y-93189184D01*
X168748457Y-93089991D01*
X168746000Y-93065043D01*
X168746000Y-90831796D01*
X168748457Y-90806848D01*
X168746000Y-90781900D01*
X168746000Y-90765146D01*
X168738678Y-90690807D01*
X168709745Y-90595425D01*
X168662759Y-90507521D01*
X168599527Y-90430473D01*
X168522479Y-90367241D01*
X168508547Y-90359794D01*
X166431818Y-88283065D01*
X166638000Y-88325000D01*
X166913000Y-88325000D01*
X166913000Y-87217000D01*
X167167000Y-87217000D01*
X167167000Y-88325000D01*
X167442000Y-88325000D01*
X167680496Y-88276493D01*
X167904946Y-88182390D01*
X168106725Y-88046307D01*
X168278078Y-87873474D01*
X168412421Y-87670533D01*
X168504591Y-87445282D01*
X168508462Y-87407609D01*
X168383731Y-87217000D01*
X167167000Y-87217000D01*
X166913000Y-87217000D01*
X165696269Y-87217000D01*
X165571538Y-87407609D01*
X165573276Y-87424523D01*
X164921144Y-86772391D01*
X165571538Y-86772391D01*
X165696269Y-86963000D01*
X166913000Y-86963000D01*
X166913000Y-86943000D01*
X167167000Y-86943000D01*
X167167000Y-86963000D01*
X168383731Y-86963000D01*
X168508462Y-86772391D01*
X168504591Y-86734718D01*
X168412421Y-86509467D01*
X168278078Y-86306526D01*
X168106725Y-86133693D01*
X167928318Y-86013372D01*
X168016589Y-85966190D01*
X168112488Y-85887488D01*
X168191190Y-85791589D01*
X168249671Y-85682179D01*
X168285683Y-85563462D01*
X168297843Y-85440001D01*
X168297843Y-84739999D01*
X168285683Y-84616538D01*
X168249671Y-84497821D01*
X168191190Y-84388411D01*
X168112488Y-84292512D01*
X168016589Y-84213810D01*
X167907179Y-84155329D01*
X167788462Y-84119317D01*
X167665001Y-84107157D01*
X166414999Y-84107157D01*
X166291538Y-84119317D01*
X166172821Y-84155329D01*
X166063411Y-84213810D01*
X165967512Y-84292512D01*
X165888810Y-84388411D01*
X165830329Y-84497821D01*
X165794317Y-84616538D01*
X165782157Y-84739999D01*
X165782157Y-85440001D01*
X165794317Y-85563462D01*
X165830329Y-85682179D01*
X165888810Y-85791589D01*
X165967512Y-85887488D01*
X166063411Y-85966190D01*
X166151682Y-86013372D01*
X165973275Y-86133693D01*
X165801922Y-86306526D01*
X165667579Y-86509467D01*
X165575409Y-86734718D01*
X165571538Y-86772391D01*
X164921144Y-86772391D01*
X161200487Y-83051735D01*
X161278078Y-82973474D01*
X161412421Y-82770533D01*
X161504591Y-82545282D01*
X161508462Y-82507609D01*
X161383731Y-82317000D01*
X160167000Y-82317000D01*
X160167000Y-82337000D01*
X159913000Y-82337000D01*
X159913000Y-82317000D01*
X158696269Y-82317000D01*
X158571538Y-82507609D01*
X158575409Y-82545282D01*
X158662856Y-82758990D01*
X153102687Y-82758990D01*
X153121000Y-82666922D01*
X153121000Y-82513078D01*
X153090987Y-82362191D01*
X153032113Y-82220058D01*
X152946642Y-82092141D01*
X152837859Y-81983358D01*
X152709942Y-81897887D01*
X152648390Y-81872391D01*
X158571538Y-81872391D01*
X158696269Y-82063000D01*
X159913000Y-82063000D01*
X159913000Y-82043000D01*
X160167000Y-82043000D01*
X160167000Y-82063000D01*
X161383731Y-82063000D01*
X161508462Y-81872391D01*
X161504591Y-81834718D01*
X161412421Y-81609467D01*
X161278078Y-81406526D01*
X161106725Y-81233693D01*
X160928318Y-81113372D01*
X161016589Y-81066190D01*
X161112488Y-80987488D01*
X161191190Y-80891589D01*
X161249671Y-80782179D01*
X161285683Y-80663462D01*
X161297843Y-80540001D01*
X161297843Y-80029360D01*
X166309000Y-80029360D01*
X166309000Y-80350640D01*
X166371678Y-80665745D01*
X166494626Y-80962568D01*
X166673119Y-81229702D01*
X166900298Y-81456881D01*
X167167432Y-81635374D01*
X167464255Y-81758322D01*
X167779360Y-81821000D01*
X168100640Y-81821000D01*
X168415745Y-81758322D01*
X168712568Y-81635374D01*
X168979702Y-81456881D01*
X169206881Y-81229702D01*
X169385374Y-80962568D01*
X169508322Y-80665745D01*
X169571000Y-80350640D01*
X169571000Y-80029360D01*
X169508322Y-79714255D01*
X169385374Y-79417432D01*
X169206881Y-79150298D01*
X168979702Y-78923119D01*
X168712568Y-78744626D01*
X168415745Y-78621678D01*
X168100640Y-78559000D01*
X167779360Y-78559000D01*
X167464255Y-78621678D01*
X167167432Y-78744626D01*
X166900298Y-78923119D01*
X166673119Y-79150298D01*
X166494626Y-79417432D01*
X166371678Y-79714255D01*
X166309000Y-80029360D01*
X161297843Y-80029360D01*
X161297843Y-79839999D01*
X161285683Y-79716538D01*
X161249671Y-79597821D01*
X161191190Y-79488411D01*
X161112488Y-79392512D01*
X161016589Y-79313810D01*
X160907179Y-79255329D01*
X160788462Y-79219317D01*
X160665001Y-79207157D01*
X159414999Y-79207157D01*
X159291538Y-79219317D01*
X159172821Y-79255329D01*
X159063411Y-79313810D01*
X158967512Y-79392512D01*
X158888810Y-79488411D01*
X158830329Y-79597821D01*
X158794317Y-79716538D01*
X158782157Y-79839999D01*
X158782157Y-80540001D01*
X158794317Y-80663462D01*
X158830329Y-80782179D01*
X158888810Y-80891589D01*
X158967512Y-80987488D01*
X159063411Y-81066190D01*
X159151682Y-81113372D01*
X158973275Y-81233693D01*
X158801922Y-81406526D01*
X158667579Y-81609467D01*
X158575409Y-81834718D01*
X158571538Y-81872391D01*
X152648390Y-81872391D01*
X152567809Y-81839013D01*
X152416922Y-81809000D01*
X152263078Y-81809000D01*
X152112191Y-81839013D01*
X151970058Y-81897887D01*
X151842141Y-81983358D01*
X151741499Y-82084000D01*
X150838501Y-82084000D01*
X150737859Y-81983358D01*
X150609942Y-81897887D01*
X150467809Y-81839013D01*
X150316922Y-81809000D01*
X150163078Y-81809000D01*
X150012191Y-81839013D01*
X149870058Y-81897887D01*
X149742141Y-81983358D01*
X149633358Y-82092141D01*
X149547887Y-82220058D01*
X149489013Y-82362191D01*
X149459000Y-82513078D01*
X149459000Y-82666922D01*
X149487261Y-82809001D01*
X142557907Y-82809001D01*
X142546642Y-82792141D01*
X142437859Y-82683358D01*
X142309942Y-82597887D01*
X142167809Y-82539013D01*
X142016922Y-82509000D01*
X141863078Y-82509000D01*
X141712191Y-82539013D01*
X141570058Y-82597887D01*
X141442141Y-82683358D01*
X141333358Y-82792141D01*
X141247887Y-82920058D01*
X141189013Y-83062191D01*
X141159000Y-83213078D01*
X141159000Y-83366922D01*
X141189013Y-83517809D01*
X141247887Y-83659942D01*
X141333358Y-83787859D01*
X141434001Y-83888502D01*
X141434001Y-84273257D01*
X141434000Y-85060408D01*
X138105409Y-88389000D01*
X137963078Y-88389000D01*
X137812191Y-88419013D01*
X137670058Y-88477887D01*
X137542141Y-88563358D01*
X137433358Y-88672141D01*
X137371001Y-88765465D01*
X137371001Y-87812857D01*
X137373449Y-87788003D01*
X137363679Y-87688810D01*
X137334746Y-87593428D01*
X137320568Y-87566903D01*
X137287760Y-87505524D01*
X137224528Y-87428476D01*
X137205221Y-87412631D01*
X135085024Y-85292435D01*
X135109942Y-85282113D01*
X135237859Y-85196642D01*
X135346642Y-85087859D01*
X135432113Y-84959942D01*
X135490987Y-84817809D01*
X135521000Y-84666922D01*
X135521000Y-84513078D01*
X135490987Y-84362191D01*
X135432113Y-84220058D01*
X135346642Y-84092141D01*
X135246000Y-83991499D01*
X135246000Y-81179591D01*
X136083833Y-80341758D01*
X136160931Y-80373693D01*
X136398757Y-80421000D01*
X136641243Y-80421000D01*
X136879069Y-80373693D01*
X137103097Y-80280898D01*
X137304717Y-80146180D01*
X137476180Y-79974717D01*
X137610898Y-79773097D01*
X137703693Y-79549069D01*
X137751000Y-79311243D01*
X137751000Y-79068757D01*
X137829000Y-79068757D01*
X137829000Y-79311243D01*
X137876307Y-79549069D01*
X137969102Y-79773097D01*
X138103820Y-79974717D01*
X138275283Y-80146180D01*
X138476903Y-80280898D01*
X138700931Y-80373693D01*
X138938757Y-80421000D01*
X139181243Y-80421000D01*
X139419069Y-80373693D01*
X139643097Y-80280898D01*
X139844717Y-80146180D01*
X140016180Y-79974717D01*
X140150898Y-79773097D01*
X140198228Y-79658832D01*
X140255843Y-79821252D01*
X140404822Y-80071355D01*
X140599731Y-80287588D01*
X140833080Y-80461641D01*
X141095901Y-80586825D01*
X141243110Y-80631476D01*
X141473000Y-80510155D01*
X141473000Y-79317000D01*
X141727000Y-79317000D01*
X141727000Y-80510155D01*
X141956890Y-80631476D01*
X142104099Y-80586825D01*
X142366920Y-80461641D01*
X142600269Y-80287588D01*
X142795178Y-80071355D01*
X142944157Y-79821252D01*
X143041481Y-79546891D01*
X142920814Y-79317000D01*
X141727000Y-79317000D01*
X141473000Y-79317000D01*
X141453000Y-79317000D01*
X141453000Y-79063000D01*
X141473000Y-79063000D01*
X141473000Y-77869845D01*
X141727000Y-77869845D01*
X141727000Y-79063000D01*
X142920814Y-79063000D01*
X143041481Y-78833109D01*
X142944157Y-78558748D01*
X142795178Y-78308645D01*
X142600269Y-78092412D01*
X142366920Y-77918359D01*
X142104099Y-77793175D01*
X141956890Y-77748524D01*
X141727000Y-77869845D01*
X141473000Y-77869845D01*
X141243110Y-77748524D01*
X141095901Y-77793175D01*
X140833080Y-77918359D01*
X140599731Y-78092412D01*
X140404822Y-78308645D01*
X140255843Y-78558748D01*
X140198228Y-78721168D01*
X140150898Y-78606903D01*
X140016180Y-78405283D01*
X139844717Y-78233820D01*
X139643097Y-78099102D01*
X139419069Y-78006307D01*
X139181243Y-77959000D01*
X138938757Y-77959000D01*
X138700931Y-78006307D01*
X138476903Y-78099102D01*
X138275283Y-78233820D01*
X138103820Y-78405283D01*
X137969102Y-78606903D01*
X137876307Y-78830931D01*
X137829000Y-79068757D01*
X137751000Y-79068757D01*
X137703693Y-78830931D01*
X137610898Y-78606903D01*
X137476180Y-78405283D01*
X137304717Y-78233820D01*
X137103097Y-78099102D01*
X136879069Y-78006307D01*
X136641243Y-77959000D01*
X136398757Y-77959000D01*
X136160931Y-78006307D01*
X135936903Y-78099102D01*
X135735283Y-78233820D01*
X135563820Y-78405283D01*
X135429102Y-78606903D01*
X135336307Y-78830931D01*
X135289000Y-79068757D01*
X135289000Y-79311243D01*
X135336307Y-79549069D01*
X135368242Y-79626167D01*
X134486000Y-80508409D01*
X134486000Y-80312832D01*
X134563097Y-80280898D01*
X134764717Y-80146180D01*
X134936180Y-79974717D01*
X135070898Y-79773097D01*
X135163693Y-79549069D01*
X135211000Y-79311243D01*
X135211000Y-79068757D01*
X135163693Y-78830931D01*
X135070898Y-78606903D01*
X134936180Y-78405283D01*
X134764717Y-78233820D01*
X134563097Y-78099102D01*
X134339069Y-78006307D01*
X134101243Y-77959000D01*
X133858757Y-77959000D01*
X133620931Y-78006307D01*
X133396903Y-78099102D01*
X133195283Y-78233820D01*
X133023820Y-78405283D01*
X132889102Y-78606903D01*
X132796307Y-78830931D01*
X132749000Y-79068757D01*
X132749000Y-79311243D01*
X132796307Y-79549069D01*
X132889102Y-79773097D01*
X133023820Y-79974717D01*
X133195283Y-80146180D01*
X133396903Y-80280898D01*
X133474001Y-80312833D01*
X133474000Y-82982999D01*
X133367809Y-82939013D01*
X133216922Y-82909000D01*
X133063078Y-82909000D01*
X132912191Y-82939013D01*
X132770058Y-82997887D01*
X132642141Y-83083358D01*
X132533358Y-83192141D01*
X132447887Y-83320058D01*
X132389013Y-83462191D01*
X132359000Y-83613078D01*
X132359000Y-83766922D01*
X132389013Y-83917809D01*
X132447887Y-84059942D01*
X132533358Y-84187859D01*
X132634000Y-84288501D01*
X132634001Y-85221412D01*
X131946000Y-84533411D01*
X131946000Y-80312832D01*
X132023097Y-80280898D01*
X132224717Y-80146180D01*
X132396180Y-79974717D01*
X132530898Y-79773097D01*
X132623693Y-79549069D01*
X132671000Y-79311243D01*
X132671000Y-79068757D01*
X132623693Y-78830931D01*
X132530898Y-78606903D01*
X132396180Y-78405283D01*
X132224717Y-78233820D01*
X132023097Y-78099102D01*
X131799069Y-78006307D01*
X131561243Y-77959000D01*
X131318757Y-77959000D01*
X131080931Y-78006307D01*
X130856903Y-78099102D01*
X130655283Y-78233820D01*
X130483820Y-78405283D01*
X130349102Y-78606903D01*
X130256307Y-78830931D01*
X130209000Y-79068757D01*
X130209000Y-79311243D01*
X130256307Y-79549069D01*
X130349102Y-79773097D01*
X130483820Y-79974717D01*
X130655283Y-80146180D01*
X130856903Y-80280898D01*
X130934001Y-80312833D01*
X130934000Y-84718156D01*
X130931553Y-84743002D01*
X130934000Y-84767848D01*
X130934000Y-84767855D01*
X130941322Y-84842194D01*
X130970255Y-84937576D01*
X131017241Y-85025481D01*
X131080473Y-85102529D01*
X131099785Y-85118378D01*
X137316627Y-91335221D01*
X137332472Y-91354528D01*
X137409520Y-91417760D01*
X137497424Y-91464746D01*
X137592806Y-91493679D01*
X137691999Y-91503449D01*
X137716853Y-91501001D01*
X138963155Y-91501001D01*
X138988001Y-91503448D01*
X139012847Y-91501001D01*
X139012855Y-91501001D01*
X139087194Y-91493679D01*
X139182576Y-91464746D01*
X139270480Y-91417760D01*
X139347528Y-91354528D01*
X139363377Y-91335216D01*
X139847595Y-90850999D01*
X141240155Y-90850999D01*
X141265001Y-90853446D01*
X141289847Y-90850999D01*
X141289855Y-90850999D01*
X141364194Y-90843677D01*
X141459576Y-90814744D01*
X141547480Y-90767758D01*
X141624528Y-90704526D01*
X141640377Y-90685214D01*
X142974592Y-89351000D01*
X143116922Y-89351000D01*
X143267809Y-89320987D01*
X143409942Y-89262113D01*
X143537859Y-89176642D01*
X143646642Y-89067859D01*
X143732113Y-88939942D01*
X143790987Y-88797809D01*
X143821000Y-88646922D01*
X143821000Y-88504591D01*
X144844593Y-87480999D01*
X145435468Y-87480999D01*
X145342141Y-87543358D01*
X145233358Y-87652141D01*
X145147887Y-87780058D01*
X145089013Y-87922191D01*
X145059000Y-88073078D01*
X145059000Y-88226922D01*
X145089013Y-88377809D01*
X145147887Y-88519942D01*
X145233358Y-88647859D01*
X145342141Y-88756642D01*
X145435468Y-88819001D01*
X144309853Y-88819001D01*
X144284999Y-88816553D01*
X144260145Y-88819001D01*
X144185806Y-88826323D01*
X144090424Y-88855256D01*
X144002520Y-88902242D01*
X143925472Y-88965474D01*
X143909627Y-88984781D01*
X142985408Y-89909000D01*
X142863078Y-89909000D01*
X142712191Y-89939013D01*
X142570058Y-89997887D01*
X142442141Y-90083358D01*
X142333358Y-90192141D01*
X142247887Y-90320058D01*
X142189013Y-90462191D01*
X142159000Y-90613078D01*
X142159000Y-90735408D01*
X138505408Y-94389001D01*
X136159844Y-94389001D01*
X136134998Y-94386554D01*
X136110152Y-94389001D01*
X136110145Y-94389001D01*
X136045693Y-94395349D01*
X136035805Y-94396323D01*
X135994014Y-94409000D01*
X135940424Y-94425256D01*
X135852520Y-94472242D01*
X135775472Y-94535474D01*
X135759628Y-94554780D01*
X128950409Y-101364000D01*
X127172843Y-101364000D01*
X127172843Y-101120000D01*
X127165487Y-101045311D01*
X127143701Y-100973492D01*
X127108322Y-100907304D01*
X127060711Y-100849289D01*
X127002696Y-100801678D01*
X126936508Y-100766299D01*
X126864689Y-100744513D01*
X126790000Y-100737157D01*
X125640000Y-100737157D01*
X125565704Y-100744435D01*
X125493862Y-100766146D01*
X125490037Y-100768185D01*
X125486508Y-100766299D01*
X125414689Y-100744513D01*
X125346000Y-100737748D01*
X125346000Y-99458591D01*
X127333592Y-97471000D01*
X127475922Y-97471000D01*
X127626809Y-97440987D01*
X127768942Y-97382113D01*
X127896859Y-97296642D01*
X128005642Y-97187859D01*
X128091113Y-97059942D01*
X128149987Y-96917809D01*
X128180000Y-96766922D01*
X128180000Y-96613078D01*
X128149987Y-96462191D01*
X128091113Y-96320058D01*
X128005642Y-96192141D01*
X127896859Y-96083358D01*
X127768942Y-95997887D01*
X127626809Y-95939013D01*
X127475922Y-95909000D01*
X127322078Y-95909000D01*
X127171191Y-95939013D01*
X127029058Y-95997887D01*
X126901141Y-96083358D01*
X126792358Y-96192141D01*
X126706887Y-96320058D01*
X126648013Y-96462191D01*
X126618000Y-96613078D01*
X126618000Y-96755408D01*
X124499781Y-98873628D01*
X124480474Y-98889473D01*
X124417242Y-98966521D01*
X124415501Y-98969779D01*
X124370255Y-99054426D01*
X124341322Y-99149808D01*
X124331553Y-99249000D01*
X124334001Y-99273856D01*
X124334000Y-100737748D01*
X124265311Y-100744513D01*
X124193492Y-100766299D01*
X124127304Y-100801678D01*
X124069289Y-100849289D01*
X124021678Y-100907304D01*
X123986299Y-100973492D01*
X123964513Y-101045311D01*
X123957157Y-101120000D01*
X103571000Y-101120000D01*
X103571000Y-101029360D01*
X103508322Y-100714255D01*
X103385374Y-100417432D01*
X103206881Y-100150298D01*
X102979702Y-99923119D01*
X102712568Y-99744626D01*
X102415745Y-99621678D01*
X102100640Y-99559000D01*
X101779360Y-99559000D01*
X101464255Y-99621678D01*
X101167432Y-99744626D01*
X100900298Y-99923119D01*
X100673119Y-100150298D01*
X100494626Y-100417432D01*
X100371678Y-100714255D01*
X100309000Y-101029360D01*
X99346000Y-101029360D01*
X99346000Y-96613078D01*
X122618000Y-96613078D01*
X122618000Y-96766922D01*
X122648013Y-96917809D01*
X122706887Y-97059942D01*
X122792358Y-97187859D01*
X122901141Y-97296642D01*
X123029058Y-97382113D01*
X123171191Y-97440987D01*
X123322078Y-97471000D01*
X123475922Y-97471000D01*
X123626809Y-97440987D01*
X123768942Y-97382113D01*
X123896859Y-97296642D01*
X124005642Y-97187859D01*
X124091113Y-97059942D01*
X124149987Y-96917809D01*
X124180000Y-96766922D01*
X124180000Y-96624591D01*
X129808592Y-90996000D01*
X130377108Y-90996000D01*
X130359473Y-91010473D01*
X130343624Y-91029785D01*
X130139284Y-91234125D01*
X130139278Y-91234130D01*
X125464409Y-95909000D01*
X125322078Y-95909000D01*
X125171191Y-95939013D01*
X125029058Y-95997887D01*
X124901141Y-96083358D01*
X124792358Y-96192141D01*
X124706887Y-96320058D01*
X124648013Y-96462191D01*
X124618000Y-96613078D01*
X124618000Y-96766922D01*
X124648013Y-96917809D01*
X124706887Y-97059942D01*
X124792358Y-97187859D01*
X124901141Y-97296642D01*
X125029058Y-97382113D01*
X125171191Y-97440987D01*
X125322078Y-97471000D01*
X125475922Y-97471000D01*
X125626809Y-97440987D01*
X125768942Y-97382113D01*
X125896859Y-97296642D01*
X126005642Y-97187859D01*
X126091113Y-97059942D01*
X126149987Y-96917809D01*
X126180000Y-96766922D01*
X126180000Y-96624591D01*
X128891513Y-93913078D01*
X131159000Y-93913078D01*
X131159000Y-94066922D01*
X131189013Y-94217809D01*
X131247887Y-94359942D01*
X131333358Y-94487859D01*
X131442141Y-94596642D01*
X131570058Y-94682113D01*
X131712191Y-94740987D01*
X131863078Y-94771000D01*
X132005409Y-94771000D01*
X132659000Y-95424592D01*
X132659000Y-95566922D01*
X132689013Y-95717809D01*
X132747887Y-95859942D01*
X132833358Y-95987859D01*
X132942141Y-96096642D01*
X133070058Y-96182113D01*
X133212191Y-96240987D01*
X133363078Y-96271000D01*
X133516922Y-96271000D01*
X133667809Y-96240987D01*
X133809942Y-96182113D01*
X133937859Y-96096642D01*
X134046642Y-95987859D01*
X134132113Y-95859942D01*
X134190987Y-95717809D01*
X134221000Y-95566922D01*
X134221000Y-95413078D01*
X134190987Y-95262191D01*
X134132113Y-95120058D01*
X134046642Y-94992141D01*
X133937859Y-94883358D01*
X133809942Y-94797887D01*
X133667809Y-94739013D01*
X133516922Y-94709000D01*
X133374592Y-94709000D01*
X132721000Y-94055409D01*
X132721000Y-93913078D01*
X132690987Y-93762191D01*
X132632113Y-93620058D01*
X132546642Y-93492141D01*
X132437859Y-93383358D01*
X132309942Y-93297887D01*
X132167809Y-93239013D01*
X132016922Y-93209000D01*
X131863078Y-93209000D01*
X131712191Y-93239013D01*
X131570058Y-93297887D01*
X131442141Y-93383358D01*
X131333358Y-93492141D01*
X131247887Y-93620058D01*
X131189013Y-93762191D01*
X131159000Y-93913078D01*
X128891513Y-93913078D01*
X130854870Y-91949722D01*
X130854875Y-91949716D01*
X130928591Y-91876000D01*
X133441499Y-91876000D01*
X133542141Y-91976642D01*
X133670058Y-92062113D01*
X133812191Y-92120987D01*
X133963078Y-92151000D01*
X134116922Y-92151000D01*
X134267809Y-92120987D01*
X134409942Y-92062113D01*
X134537859Y-91976642D01*
X134646642Y-91867859D01*
X134732113Y-91739942D01*
X134790987Y-91597809D01*
X134821000Y-91446922D01*
X134821000Y-91293078D01*
X134790987Y-91142191D01*
X134732113Y-91000058D01*
X134646642Y-90872141D01*
X134537859Y-90763358D01*
X134409942Y-90677887D01*
X134267809Y-90619013D01*
X134116922Y-90589000D01*
X134116608Y-90589000D01*
X134121000Y-90566922D01*
X134121000Y-90413078D01*
X134090987Y-90262191D01*
X134032113Y-90120058D01*
X133946642Y-89992141D01*
X133837859Y-89883358D01*
X133709942Y-89797887D01*
X133567809Y-89739013D01*
X133416922Y-89709000D01*
X133263078Y-89709000D01*
X133112191Y-89739013D01*
X132970058Y-89797887D01*
X132842141Y-89883358D01*
X132741499Y-89984000D01*
X129623845Y-89984000D01*
X129598999Y-89981553D01*
X129574153Y-89984000D01*
X129574146Y-89984000D01*
X129509694Y-89990348D01*
X129499806Y-89991322D01*
X129478164Y-89997887D01*
X129404425Y-90020255D01*
X129316521Y-90067241D01*
X129239473Y-90130473D01*
X129223628Y-90149780D01*
X123464409Y-95909000D01*
X123322078Y-95909000D01*
X123171191Y-95939013D01*
X123029058Y-95997887D01*
X122901141Y-96083358D01*
X122792358Y-96192141D01*
X122706887Y-96320058D01*
X122648013Y-96462191D01*
X122618000Y-96613078D01*
X99346000Y-96613078D01*
X99346000Y-96209853D01*
X99349700Y-96172119D01*
X99354892Y-96154922D01*
X99363328Y-96139057D01*
X99374680Y-96125139D01*
X99388528Y-96113683D01*
X99404330Y-96105139D01*
X99421489Y-96099827D01*
X99457901Y-96096000D01*
X99959941Y-96096000D01*
X99977244Y-96094296D01*
X99980287Y-96094317D01*
X99985929Y-96093764D01*
X100082977Y-96083564D01*
X100119043Y-96076161D01*
X100155169Y-96069269D01*
X100160596Y-96067631D01*
X100253815Y-96038775D01*
X100287762Y-96024505D01*
X100321858Y-96010729D01*
X100326853Y-96008074D01*
X100326861Y-96008070D01*
X100326868Y-96008065D01*
X100412701Y-95961656D01*
X100443242Y-95941056D01*
X100473997Y-95920930D01*
X100478391Y-95917347D01*
X100553580Y-95855145D01*
X100579548Y-95828995D01*
X100605796Y-95803291D01*
X100609405Y-95798929D01*
X100609413Y-95798921D01*
X100609419Y-95798912D01*
X100671086Y-95723303D01*
X100691459Y-95692640D01*
X100712242Y-95662286D01*
X100714939Y-95657299D01*
X100756192Y-95579714D01*
X103154250Y-95577000D01*
X103313000Y-95418250D01*
X103313000Y-93819000D01*
X103567000Y-93819000D01*
X103567000Y-95418250D01*
X103725750Y-95577000D01*
X106440000Y-95580072D01*
X106564482Y-95567812D01*
X106684180Y-95531502D01*
X106794494Y-95472537D01*
X106891185Y-95393185D01*
X106970537Y-95296494D01*
X107029502Y-95186180D01*
X107065812Y-95066482D01*
X107078072Y-94942000D01*
X107075000Y-93977750D01*
X106916250Y-93819000D01*
X103567000Y-93819000D01*
X103313000Y-93819000D01*
X100846000Y-93819000D01*
X100846000Y-93565000D01*
X103313000Y-93565000D01*
X103313000Y-91965750D01*
X103154250Y-91807000D01*
X100846000Y-91804388D01*
X100846000Y-89579612D01*
X103154250Y-89577000D01*
X103313000Y-89418250D01*
X103313000Y-87819000D01*
X103567000Y-87819000D01*
X103567000Y-89418250D01*
X103725750Y-89577000D01*
X106043587Y-89579623D01*
X105889587Y-89643412D01*
X105696157Y-89772658D01*
X105531658Y-89937157D01*
X105402412Y-90130587D01*
X105313386Y-90345515D01*
X105268000Y-90573682D01*
X105268000Y-90806318D01*
X105313386Y-91034485D01*
X105402412Y-91249413D01*
X105531658Y-91442843D01*
X105696157Y-91607342D01*
X105889587Y-91736588D01*
X106053217Y-91804366D01*
X103725750Y-91807000D01*
X103567000Y-91965750D01*
X103567000Y-93565000D01*
X106916250Y-93565000D01*
X107075000Y-93406250D01*
X107078072Y-92442000D01*
X107065812Y-92317518D01*
X107029502Y-92197820D01*
X106970537Y-92087506D01*
X106891185Y-91990815D01*
X106794494Y-91911463D01*
X106684180Y-91852498D01*
X106673943Y-91849393D01*
X106793485Y-91825614D01*
X107008413Y-91736588D01*
X107201843Y-91607342D01*
X107366342Y-91442843D01*
X107495588Y-91249413D01*
X107584614Y-91034485D01*
X107630000Y-90806318D01*
X107630000Y-90573682D01*
X107584614Y-90345515D01*
X107495588Y-90130587D01*
X107366342Y-89937157D01*
X107201843Y-89772658D01*
X107008413Y-89643412D01*
X106793485Y-89554386D01*
X106681907Y-89532191D01*
X106684180Y-89531502D01*
X106794494Y-89472537D01*
X106891185Y-89393185D01*
X106970537Y-89296494D01*
X107029502Y-89186180D01*
X107065812Y-89066482D01*
X107078072Y-88942000D01*
X107075000Y-87977750D01*
X106916250Y-87819000D01*
X103567000Y-87819000D01*
X103313000Y-87819000D01*
X100846000Y-87819000D01*
X100846000Y-87565000D01*
X103313000Y-87565000D01*
X103313000Y-85965750D01*
X103567000Y-85965750D01*
X103567000Y-87565000D01*
X106916250Y-87565000D01*
X107075000Y-87406250D01*
X107078072Y-86442000D01*
X107065812Y-86317518D01*
X107034131Y-86213078D01*
X116618000Y-86213078D01*
X116618000Y-86366922D01*
X116648013Y-86517809D01*
X116706887Y-86659942D01*
X116792358Y-86787859D01*
X116901141Y-86896642D01*
X117029058Y-86982113D01*
X117171191Y-87040987D01*
X117322078Y-87071000D01*
X117475922Y-87071000D01*
X117626809Y-87040987D01*
X117768942Y-86982113D01*
X117896859Y-86896642D01*
X117997501Y-86796000D01*
X118789780Y-86796000D01*
X118706887Y-86920058D01*
X118648013Y-87062191D01*
X118618000Y-87213078D01*
X118618000Y-87366922D01*
X118648013Y-87517809D01*
X118706887Y-87659942D01*
X118792358Y-87787859D01*
X118901141Y-87896642D01*
X119029058Y-87982113D01*
X119171191Y-88040987D01*
X119322078Y-88071000D01*
X119475922Y-88071000D01*
X119626809Y-88040987D01*
X119768942Y-87982113D01*
X119896859Y-87896642D01*
X119997501Y-87796000D01*
X122789780Y-87796000D01*
X122706887Y-87920058D01*
X122648013Y-88062191D01*
X122618000Y-88213078D01*
X122618000Y-88366922D01*
X122648013Y-88517809D01*
X122706887Y-88659942D01*
X122792358Y-88787859D01*
X122901141Y-88896642D01*
X123029058Y-88982113D01*
X123171191Y-89040987D01*
X123322078Y-89071000D01*
X123475922Y-89071000D01*
X123626809Y-89040987D01*
X123768942Y-88982113D01*
X123896859Y-88896642D01*
X123997501Y-88796000D01*
X126141499Y-88796000D01*
X126242141Y-88896642D01*
X126370058Y-88982113D01*
X126512191Y-89040987D01*
X126663078Y-89071000D01*
X126816922Y-89071000D01*
X126967809Y-89040987D01*
X127109942Y-88982113D01*
X127237859Y-88896642D01*
X127346642Y-88787859D01*
X127432113Y-88659942D01*
X127490987Y-88517809D01*
X127521000Y-88366922D01*
X127521000Y-88213078D01*
X127490987Y-88062191D01*
X127432113Y-87920058D01*
X127346642Y-87792141D01*
X127344501Y-87790000D01*
X127346642Y-87787859D01*
X127432113Y-87659942D01*
X127490987Y-87517809D01*
X127521000Y-87366922D01*
X127521000Y-87213078D01*
X127490987Y-87062191D01*
X127432113Y-86920058D01*
X127346642Y-86792141D01*
X127344501Y-86790000D01*
X127346642Y-86787859D01*
X127432113Y-86659942D01*
X127490987Y-86517809D01*
X127521000Y-86366922D01*
X127521000Y-86213078D01*
X127490987Y-86062191D01*
X127432113Y-85920058D01*
X127346642Y-85792141D01*
X127237859Y-85683358D01*
X127109942Y-85597887D01*
X126967809Y-85539013D01*
X126816922Y-85509000D01*
X126663078Y-85509000D01*
X126512191Y-85539013D01*
X126370058Y-85597887D01*
X126242141Y-85683358D01*
X126141499Y-85784000D01*
X117997501Y-85784000D01*
X117896859Y-85683358D01*
X117768942Y-85597887D01*
X117626809Y-85539013D01*
X117475922Y-85509000D01*
X117322078Y-85509000D01*
X117171191Y-85539013D01*
X117029058Y-85597887D01*
X116901141Y-85683358D01*
X116792358Y-85792141D01*
X116706887Y-85920058D01*
X116648013Y-86062191D01*
X116618000Y-86213078D01*
X107034131Y-86213078D01*
X107029502Y-86197820D01*
X106970537Y-86087506D01*
X106891185Y-85990815D01*
X106794494Y-85911463D01*
X106684180Y-85852498D01*
X106564482Y-85816188D01*
X106440000Y-85803928D01*
X103725750Y-85807000D01*
X103567000Y-85965750D01*
X103313000Y-85965750D01*
X103154250Y-85807000D01*
X100758681Y-85804289D01*
X100758068Y-85803136D01*
X100711655Y-85717299D01*
X100691078Y-85686793D01*
X100670930Y-85656003D01*
X100667347Y-85651609D01*
X100605145Y-85576420D01*
X100578995Y-85550452D01*
X100553291Y-85524204D01*
X100548929Y-85520595D01*
X100548921Y-85520587D01*
X100548912Y-85520581D01*
X100473302Y-85458914D01*
X100442658Y-85438553D01*
X100412286Y-85417758D01*
X100407299Y-85415061D01*
X100321138Y-85369249D01*
X100287102Y-85355221D01*
X100253299Y-85340733D01*
X100247884Y-85339056D01*
X100154466Y-85310851D01*
X100118345Y-85303699D01*
X100082372Y-85296053D01*
X100076743Y-85295461D01*
X100076738Y-85295460D01*
X100076734Y-85295460D01*
X99979740Y-85285950D01*
X99959941Y-85284000D01*
X99459851Y-85284000D01*
X99422122Y-85280301D01*
X99404921Y-85275107D01*
X99389056Y-85266672D01*
X99375140Y-85255322D01*
X99363682Y-85241472D01*
X99355139Y-85225672D01*
X99349827Y-85208511D01*
X99346000Y-85172099D01*
X99346000Y-80209854D01*
X99363697Y-80029360D01*
X100309000Y-80029360D01*
X100309000Y-80350640D01*
X100371678Y-80665745D01*
X100494626Y-80962568D01*
X100673119Y-81229702D01*
X100900298Y-81456881D01*
X101167432Y-81635374D01*
X101464255Y-81758322D01*
X101779360Y-81821000D01*
X102100640Y-81821000D01*
X102415745Y-81758322D01*
X102712568Y-81635374D01*
X102979702Y-81456881D01*
X103206881Y-81229702D01*
X103385374Y-80962568D01*
X103508322Y-80665745D01*
X103571000Y-80350640D01*
X103571000Y-80029360D01*
X103508322Y-79714255D01*
X103385374Y-79417432D01*
X103206881Y-79150298D01*
X102979702Y-78923119D01*
X102712568Y-78744626D01*
X102415745Y-78621678D01*
X102100640Y-78559000D01*
X101779360Y-78559000D01*
X101464255Y-78621678D01*
X101167432Y-78744626D01*
X100900298Y-78923119D01*
X100673119Y-79150298D01*
X100494626Y-79417432D01*
X100371678Y-79714255D01*
X100309000Y-80029360D01*
X99363697Y-80029360D01*
X99397312Y-79686537D01*
X99543529Y-79202244D01*
X99781025Y-78755578D01*
X100100755Y-78363550D01*
X100490539Y-78041093D01*
X100935540Y-77800482D01*
X101418796Y-77650889D01*
X101941029Y-77596000D01*
X167910146Y-77596000D01*
X168433463Y-77647312D01*
%TA.AperFunction,Conductor*%
D20*
G36*
X168433463Y-77647312D02*
G01*
X168917756Y-77793529D01*
X169364422Y-78031025D01*
X169756450Y-78350755D01*
X170078907Y-78740539D01*
X170319518Y-79185540D01*
X170469111Y-79668796D01*
X170524000Y-80191029D01*
X170524001Y-101170136D01*
X170472688Y-101693464D01*
X170326472Y-102177756D01*
X170088975Y-102624422D01*
X169769245Y-103016450D01*
X169379458Y-103338910D01*
X168934460Y-103579518D01*
X168451205Y-103729111D01*
X167928968Y-103784000D01*
X101959866Y-103782001D01*
X101436536Y-103730688D01*
X100952244Y-103584472D01*
X100505578Y-103346975D01*
X100113550Y-103027245D01*
X99791090Y-102637458D01*
X99550482Y-102192460D01*
X99400889Y-101709205D01*
X99346000Y-101186971D01*
X99346000Y-101029360D01*
X100309000Y-101029360D01*
X100309000Y-101350640D01*
X100371678Y-101665745D01*
X100494626Y-101962568D01*
X100673119Y-102229702D01*
X100900298Y-102456881D01*
X101167432Y-102635374D01*
X101464255Y-102758322D01*
X101779360Y-102821000D01*
X102100640Y-102821000D01*
X102415745Y-102758322D01*
X102712568Y-102635374D01*
X102979702Y-102456881D01*
X103206881Y-102229702D01*
X103385374Y-101962568D01*
X103508322Y-101665745D01*
X103571000Y-101350640D01*
X103571000Y-101120000D01*
X123957157Y-101120000D01*
X123957157Y-102620000D01*
X123964513Y-102694689D01*
X123986299Y-102766508D01*
X124021678Y-102832696D01*
X124069289Y-102890711D01*
X124127304Y-102938322D01*
X124193492Y-102973701D01*
X124265311Y-102995487D01*
X124340000Y-103002843D01*
X125340000Y-103002843D01*
X125415082Y-102995408D01*
X125486878Y-102973547D01*
X125490037Y-102971854D01*
X125493492Y-102973701D01*
X125565311Y-102995487D01*
X125640000Y-103002843D01*
X126790000Y-103002843D01*
X126864689Y-102995487D01*
X126936508Y-102973701D01*
X127002696Y-102938322D01*
X127060711Y-102890711D01*
X127108322Y-102832696D01*
X127143701Y-102766508D01*
X127165487Y-102694689D01*
X127172843Y-102620000D01*
X127172843Y-102376000D01*
X129135154Y-102376000D01*
X129160000Y-102378447D01*
X129184846Y-102376000D01*
X129184854Y-102376000D01*
X129259193Y-102368678D01*
X129354575Y-102339745D01*
X129442479Y-102292759D01*
X129519527Y-102229527D01*
X129535376Y-102210215D01*
X129676834Y-102068757D01*
X130209000Y-102068757D01*
X130209000Y-102311243D01*
X130256307Y-102549069D01*
X130349102Y-102773097D01*
X130483820Y-102974717D01*
X130655283Y-103146180D01*
X130856903Y-103280898D01*
X131080931Y-103373693D01*
X131318757Y-103421000D01*
X131561243Y-103421000D01*
X131799069Y-103373693D01*
X132023097Y-103280898D01*
X132224717Y-103146180D01*
X132396180Y-102974717D01*
X132530898Y-102773097D01*
X132623693Y-102549069D01*
X132671000Y-102311243D01*
X132671000Y-102068757D01*
X132623693Y-101830931D01*
X132530898Y-101606903D01*
X132413855Y-101431736D01*
X133474001Y-100371590D01*
X133474001Y-101067167D01*
X133396903Y-101099102D01*
X133195283Y-101233820D01*
X133023820Y-101405283D01*
X132889102Y-101606903D01*
X132796307Y-101830931D01*
X132749000Y-102068757D01*
X132749000Y-102311243D01*
X132796307Y-102549069D01*
X132889102Y-102773097D01*
X133023820Y-102974717D01*
X133195283Y-103146180D01*
X133396903Y-103280898D01*
X133620931Y-103373693D01*
X133858757Y-103421000D01*
X134101243Y-103421000D01*
X134339069Y-103373693D01*
X134563097Y-103280898D01*
X134764717Y-103146180D01*
X134936180Y-102974717D01*
X135070898Y-102773097D01*
X135163693Y-102549069D01*
X135211000Y-102311243D01*
X135211000Y-102068757D01*
X135163693Y-101830931D01*
X135070898Y-101606903D01*
X134936180Y-101405283D01*
X134764717Y-101233820D01*
X134563097Y-101099102D01*
X134486000Y-101067168D01*
X134486000Y-100432593D01*
X137447594Y-97471000D01*
X137516922Y-97471000D01*
X137667809Y-97440987D01*
X137677390Y-97437018D01*
X136179781Y-98934628D01*
X136160474Y-98950473D01*
X136097242Y-99027521D01*
X136082861Y-99054426D01*
X136050255Y-99115426D01*
X136021322Y-99210808D01*
X136011553Y-99310000D01*
X136014001Y-99334856D01*
X136014000Y-101067167D01*
X135936903Y-101099102D01*
X135735283Y-101233820D01*
X135563820Y-101405283D01*
X135429102Y-101606903D01*
X135336307Y-101830931D01*
X135289000Y-102068757D01*
X135289000Y-102311243D01*
X135336307Y-102549069D01*
X135429102Y-102773097D01*
X135563820Y-102974717D01*
X135735283Y-103146180D01*
X135936903Y-103280898D01*
X136160931Y-103373693D01*
X136398757Y-103421000D01*
X136641243Y-103421000D01*
X136879069Y-103373693D01*
X137103097Y-103280898D01*
X137304717Y-103146180D01*
X137476180Y-102974717D01*
X137610898Y-102773097D01*
X137703693Y-102549069D01*
X137751000Y-102311243D01*
X137751000Y-102068757D01*
X137829000Y-102068757D01*
X137829000Y-102311243D01*
X137876307Y-102549069D01*
X137969102Y-102773097D01*
X138103820Y-102974717D01*
X138275283Y-103146180D01*
X138476903Y-103280898D01*
X138700931Y-103373693D01*
X138938757Y-103421000D01*
X139181243Y-103421000D01*
X139419069Y-103373693D01*
X139643097Y-103280898D01*
X139844717Y-103146180D01*
X140016180Y-102974717D01*
X140150898Y-102773097D01*
X140243693Y-102549069D01*
X140291000Y-102311243D01*
X140291000Y-102068757D01*
X140369000Y-102068757D01*
X140369000Y-102311243D01*
X140416307Y-102549069D01*
X140509102Y-102773097D01*
X140643820Y-102974717D01*
X140815283Y-103146180D01*
X141016903Y-103280898D01*
X141240931Y-103373693D01*
X141478757Y-103421000D01*
X141721243Y-103421000D01*
X141959069Y-103373693D01*
X142183097Y-103280898D01*
X142384717Y-103146180D01*
X142556180Y-102974717D01*
X142690898Y-102773097D01*
X142783693Y-102549069D01*
X142831000Y-102311243D01*
X142831000Y-102068757D01*
X142909000Y-102068757D01*
X142909000Y-102311243D01*
X142956307Y-102549069D01*
X143049102Y-102773097D01*
X143183820Y-102974717D01*
X143355283Y-103146180D01*
X143556903Y-103280898D01*
X143780931Y-103373693D01*
X144018757Y-103421000D01*
X144261243Y-103421000D01*
X144499069Y-103373693D01*
X144723097Y-103280898D01*
X144924717Y-103146180D01*
X145096180Y-102974717D01*
X145230898Y-102773097D01*
X145323693Y-102549069D01*
X145371000Y-102311243D01*
X145371000Y-102068757D01*
X145323693Y-101830931D01*
X145230898Y-101606903D01*
X145096180Y-101405283D01*
X144924717Y-101233820D01*
X144723097Y-101099102D01*
X144499069Y-101006307D01*
X144261243Y-100959000D01*
X144018757Y-100959000D01*
X143780931Y-101006307D01*
X143556903Y-101099102D01*
X143355283Y-101233820D01*
X143183820Y-101405283D01*
X143049102Y-101606903D01*
X142956307Y-101830931D01*
X142909000Y-102068757D01*
X142831000Y-102068757D01*
X142783693Y-101830931D01*
X142690898Y-101606903D01*
X142556180Y-101405283D01*
X142384717Y-101233820D01*
X142183097Y-101099102D01*
X141959069Y-101006307D01*
X141721243Y-100959000D01*
X141478757Y-100959000D01*
X141240931Y-101006307D01*
X141016903Y-101099102D01*
X140815283Y-101233820D01*
X140643820Y-101405283D01*
X140509102Y-101606903D01*
X140416307Y-101830931D01*
X140369000Y-102068757D01*
X140291000Y-102068757D01*
X140243693Y-101830931D01*
X140150898Y-101606903D01*
X140016180Y-101405283D01*
X139844717Y-101233820D01*
X139643097Y-101099102D01*
X139419069Y-101006307D01*
X139181243Y-100959000D01*
X138938757Y-100959000D01*
X138700931Y-101006307D01*
X138476903Y-101099102D01*
X138275283Y-101233820D01*
X138103820Y-101405283D01*
X137969102Y-101606903D01*
X137876307Y-101830931D01*
X137829000Y-102068757D01*
X137751000Y-102068757D01*
X137703693Y-101830931D01*
X137610898Y-101606903D01*
X137476180Y-101405283D01*
X137304717Y-101233820D01*
X137103097Y-101099102D01*
X137026000Y-101067168D01*
X137026000Y-99519591D01*
X139574592Y-96971000D01*
X139716922Y-96971000D01*
X139867809Y-96940987D01*
X140009942Y-96882113D01*
X140137859Y-96796642D01*
X140246642Y-96687859D01*
X140332113Y-96559942D01*
X140390987Y-96417809D01*
X140421000Y-96266922D01*
X140421000Y-96113078D01*
X140390987Y-95962191D01*
X140332113Y-95820058D01*
X140246642Y-95692141D01*
X140137859Y-95583358D01*
X140009942Y-95497887D01*
X139867809Y-95439013D01*
X139716922Y-95409000D01*
X139563078Y-95409000D01*
X139412191Y-95439013D01*
X139270058Y-95497887D01*
X139142141Y-95583358D01*
X139033358Y-95692141D01*
X138947887Y-95820058D01*
X138889013Y-95962191D01*
X138859000Y-96113078D01*
X138859000Y-96255408D01*
X138187018Y-96927390D01*
X138190987Y-96917809D01*
X138221000Y-96766922D01*
X138221000Y-96613078D01*
X138190987Y-96462191D01*
X138132113Y-96320058D01*
X138046642Y-96192141D01*
X137937859Y-96083358D01*
X137809942Y-95997887D01*
X137667809Y-95939013D01*
X137516922Y-95909000D01*
X137363078Y-95909000D01*
X137212191Y-95939013D01*
X137070058Y-95997887D01*
X136942141Y-96083358D01*
X136940000Y-96085499D01*
X136937859Y-96083358D01*
X136809942Y-95997887D01*
X136667809Y-95939013D01*
X136516922Y-95909000D01*
X136363078Y-95909000D01*
X136212191Y-95939013D01*
X136070058Y-95997887D01*
X135942141Y-96083358D01*
X135833358Y-96192141D01*
X135747887Y-96320058D01*
X135689013Y-96462191D01*
X135659000Y-96613078D01*
X135659000Y-96755408D01*
X131455409Y-100959000D01*
X131318757Y-100959000D01*
X131080931Y-101006307D01*
X130856903Y-101099102D01*
X130655283Y-101233820D01*
X130483820Y-101405283D01*
X130349102Y-101606903D01*
X130256307Y-101830931D01*
X130209000Y-102068757D01*
X129676834Y-102068757D01*
X136344591Y-95401001D01*
X138690153Y-95401001D01*
X138714999Y-95403448D01*
X138739845Y-95401001D01*
X138739853Y-95401001D01*
X138814192Y-95393679D01*
X138909574Y-95364746D01*
X138997478Y-95317760D01*
X139074526Y-95254528D01*
X139090375Y-95235216D01*
X142856000Y-91469592D01*
X142863078Y-91471000D01*
X143016922Y-91471000D01*
X143167809Y-91440987D01*
X143309942Y-91382113D01*
X143437859Y-91296642D01*
X143546642Y-91187859D01*
X143632113Y-91059942D01*
X143690987Y-90917809D01*
X143721000Y-90766922D01*
X143721000Y-90613078D01*
X143719592Y-90606000D01*
X144494591Y-89831001D01*
X153558102Y-89831001D01*
X153483820Y-89905283D01*
X153349102Y-90106903D01*
X153317168Y-90184000D01*
X146438501Y-90184000D01*
X146337859Y-90083358D01*
X146209942Y-89997887D01*
X146067809Y-89939013D01*
X145916922Y-89909000D01*
X145763078Y-89909000D01*
X145612191Y-89939013D01*
X145470058Y-89997887D01*
X145342141Y-90083358D01*
X145233358Y-90192141D01*
X145147887Y-90320058D01*
X145089013Y-90462191D01*
X145059000Y-90613078D01*
X145059000Y-90766922D01*
X145089013Y-90917809D01*
X145147887Y-91059942D01*
X145233358Y-91187859D01*
X145342141Y-91296642D01*
X145470058Y-91382113D01*
X145612191Y-91440987D01*
X145763078Y-91471000D01*
X145916922Y-91471000D01*
X146067809Y-91440987D01*
X146209942Y-91382113D01*
X146337859Y-91296642D01*
X146438501Y-91196000D01*
X153317168Y-91196000D01*
X153349102Y-91273097D01*
X153406501Y-91359001D01*
X146489853Y-91359001D01*
X146464999Y-91356553D01*
X146440145Y-91359001D01*
X146365806Y-91366323D01*
X146270424Y-91395256D01*
X146182520Y-91442242D01*
X146105472Y-91505474D01*
X146089628Y-91524780D01*
X143599781Y-94014628D01*
X143580474Y-94030473D01*
X143517242Y-94107521D01*
X143492127Y-94154508D01*
X143470255Y-94195426D01*
X143441322Y-94290808D01*
X143431553Y-94390000D01*
X143434001Y-94414856D01*
X143434001Y-94791498D01*
X143333358Y-94892141D01*
X143247887Y-95020058D01*
X143189013Y-95162191D01*
X143159000Y-95313078D01*
X143159000Y-95466922D01*
X143189013Y-95617809D01*
X143247887Y-95759942D01*
X143333358Y-95887859D01*
X143442141Y-95996642D01*
X143570058Y-96082113D01*
X143712191Y-96140987D01*
X143863078Y-96171000D01*
X144016922Y-96171000D01*
X144167809Y-96140987D01*
X144309942Y-96082113D01*
X144437859Y-95996642D01*
X144546642Y-95887859D01*
X144632113Y-95759942D01*
X144690987Y-95617809D01*
X144721000Y-95466922D01*
X144721000Y-95313078D01*
X144690987Y-95162191D01*
X144632113Y-95020058D01*
X144546642Y-94892141D01*
X144446000Y-94791499D01*
X144446000Y-94599591D01*
X146674591Y-92371001D01*
X153237040Y-92371001D01*
X153168359Y-92463080D01*
X153043175Y-92725901D01*
X152998524Y-92873110D01*
X153119845Y-93103000D01*
X154313000Y-93103000D01*
X154313000Y-93083000D01*
X154567000Y-93083000D01*
X154567000Y-93103000D01*
X154587000Y-93103000D01*
X154587000Y-93357000D01*
X154567000Y-93357000D01*
X154567000Y-93377000D01*
X154313000Y-93377000D01*
X154313000Y-93357000D01*
X153119845Y-93357000D01*
X152998524Y-93586890D01*
X153043175Y-93734099D01*
X153121719Y-93899001D01*
X148884168Y-93899001D01*
X148859314Y-93896553D01*
X148834460Y-93899001D01*
X148760121Y-93906323D01*
X148664739Y-93935256D01*
X148576835Y-93982242D01*
X148499787Y-94045474D01*
X148483943Y-94064780D01*
X143599785Y-98948939D01*
X143580473Y-98964788D01*
X143517241Y-99041836D01*
X143470255Y-99129741D01*
X143441322Y-99225123D01*
X143434870Y-99290629D01*
X143333358Y-99392141D01*
X143247887Y-99520058D01*
X143189013Y-99662191D01*
X143159000Y-99813078D01*
X143159000Y-99966922D01*
X143189013Y-100117809D01*
X143247887Y-100259942D01*
X143333358Y-100387859D01*
X143442141Y-100496642D01*
X143570058Y-100582113D01*
X143712191Y-100640987D01*
X143863078Y-100671000D01*
X144016922Y-100671000D01*
X144167809Y-100640987D01*
X144309942Y-100582113D01*
X144437859Y-100496642D01*
X144440000Y-100494501D01*
X144442141Y-100496642D01*
X144570058Y-100582113D01*
X144712191Y-100640987D01*
X144863078Y-100671000D01*
X145005409Y-100671000D01*
X145731756Y-101397347D01*
X145723820Y-101405283D01*
X145589102Y-101606903D01*
X145496307Y-101830931D01*
X145449000Y-102068757D01*
X145449000Y-102311243D01*
X145496307Y-102549069D01*
X145589102Y-102773097D01*
X145723820Y-102974717D01*
X145895283Y-103146180D01*
X146096903Y-103280898D01*
X146320931Y-103373693D01*
X146558757Y-103421000D01*
X146801243Y-103421000D01*
X147039069Y-103373693D01*
X147263097Y-103280898D01*
X147464717Y-103146180D01*
X147636180Y-102974717D01*
X147770898Y-102773097D01*
X147818228Y-102658832D01*
X147875843Y-102821252D01*
X148024822Y-103071355D01*
X148219731Y-103287588D01*
X148453080Y-103461641D01*
X148715901Y-103586825D01*
X148863110Y-103631476D01*
X149093000Y-103510155D01*
X149093000Y-102317000D01*
X149347000Y-102317000D01*
X149347000Y-103510155D01*
X149576890Y-103631476D01*
X149724099Y-103586825D01*
X149986920Y-103461641D01*
X150220269Y-103287588D01*
X150415178Y-103071355D01*
X150564157Y-102821252D01*
X150661481Y-102546891D01*
X150540814Y-102317000D01*
X149347000Y-102317000D01*
X149093000Y-102317000D01*
X149073000Y-102317000D01*
X149073000Y-102063000D01*
X149093000Y-102063000D01*
X149093000Y-100869845D01*
X149347000Y-100869845D01*
X149347000Y-102063000D01*
X150540814Y-102063000D01*
X150661481Y-101833109D01*
X150564157Y-101558748D01*
X150415178Y-101308645D01*
X150220269Y-101092412D01*
X149986920Y-100918359D01*
X149724099Y-100793175D01*
X149576890Y-100748524D01*
X149347000Y-100869845D01*
X149093000Y-100869845D01*
X148863110Y-100748524D01*
X148715901Y-100793175D01*
X148453080Y-100918359D01*
X148219731Y-101092412D01*
X148024822Y-101308645D01*
X147875843Y-101558748D01*
X147818228Y-101721168D01*
X147770898Y-101606903D01*
X147636180Y-101405283D01*
X147464717Y-101233820D01*
X147263097Y-101099102D01*
X147039069Y-101006307D01*
X146801243Y-100959000D01*
X146724592Y-100959000D01*
X145721000Y-99955409D01*
X145721000Y-99813078D01*
X145690987Y-99662191D01*
X145632113Y-99520058D01*
X145546642Y-99392141D01*
X145437859Y-99283358D01*
X145309942Y-99197887D01*
X145167809Y-99139013D01*
X145016922Y-99109000D01*
X144870906Y-99109000D01*
X149068906Y-94911001D01*
X149803407Y-94911001D01*
X149299785Y-95414624D01*
X149280473Y-95430473D01*
X149217241Y-95507521D01*
X149170255Y-95595426D01*
X149141322Y-95690808D01*
X149134000Y-95765147D01*
X149134000Y-95765154D01*
X149131553Y-95790000D01*
X149134000Y-95814847D01*
X149134001Y-96891498D01*
X149033358Y-96992141D01*
X148947887Y-97120058D01*
X148889013Y-97262191D01*
X148859000Y-97413078D01*
X148859000Y-97566922D01*
X148889013Y-97717809D01*
X148947887Y-97859942D01*
X149033358Y-97987859D01*
X149142141Y-98096642D01*
X149270058Y-98182113D01*
X149412191Y-98240987D01*
X149563078Y-98271000D01*
X149716922Y-98271000D01*
X149867809Y-98240987D01*
X150009942Y-98182113D01*
X150137859Y-98096642D01*
X150246642Y-97987859D01*
X150332113Y-97859942D01*
X150390987Y-97717809D01*
X150421000Y-97566922D01*
X150421000Y-97413078D01*
X150390987Y-97262191D01*
X150332113Y-97120058D01*
X150246642Y-96992141D01*
X150146000Y-96891499D01*
X150146000Y-95999591D01*
X150449592Y-95696000D01*
X152041499Y-95696000D01*
X152142141Y-95796642D01*
X152270058Y-95882113D01*
X152412191Y-95940987D01*
X152563078Y-95971000D01*
X152716922Y-95971000D01*
X152867809Y-95940987D01*
X153009942Y-95882113D01*
X153137859Y-95796642D01*
X153207157Y-95727344D01*
X153207157Y-96620000D01*
X153214513Y-96694689D01*
X153236299Y-96766508D01*
X153271678Y-96832696D01*
X153319289Y-96890711D01*
X153377304Y-96938322D01*
X153443492Y-96973701D01*
X153515311Y-96995487D01*
X153590000Y-97002843D01*
X155290000Y-97002843D01*
X155364689Y-96995487D01*
X155436508Y-96973701D01*
X155502696Y-96938322D01*
X155560711Y-96890711D01*
X155608322Y-96832696D01*
X155643701Y-96766508D01*
X155665487Y-96694689D01*
X155672843Y-96620000D01*
X155672843Y-94920000D01*
X155665487Y-94845311D01*
X155643701Y-94773492D01*
X155631820Y-94751265D01*
X155636785Y-94745216D01*
X156368923Y-94013078D01*
X157259000Y-94013078D01*
X157259000Y-94166922D01*
X157289013Y-94317809D01*
X157347887Y-94459942D01*
X157433358Y-94587859D01*
X157534000Y-94688501D01*
X157534001Y-99165144D01*
X157531553Y-99190000D01*
X157541322Y-99289192D01*
X157570255Y-99384574D01*
X157570256Y-99384575D01*
X157617242Y-99472479D01*
X157680474Y-99549527D01*
X157699781Y-99565372D01*
X158886645Y-100752237D01*
X158854289Y-100812771D01*
X158798195Y-100997690D01*
X158779254Y-101190000D01*
X158798195Y-101382310D01*
X158854289Y-101567229D01*
X158945382Y-101737651D01*
X159067972Y-101887028D01*
X159217349Y-102009618D01*
X159387771Y-102100711D01*
X159572690Y-102156805D01*
X159716813Y-102171000D01*
X160363187Y-102171000D01*
X160507310Y-102156805D01*
X160692229Y-102100711D01*
X160862651Y-102009618D01*
X161012028Y-101887028D01*
X161134618Y-101737651D01*
X161225711Y-101567229D01*
X161281805Y-101382310D01*
X161300746Y-101190000D01*
X161284925Y-101029360D01*
X166309000Y-101029360D01*
X166309000Y-101350640D01*
X166371678Y-101665745D01*
X166494626Y-101962568D01*
X166673119Y-102229702D01*
X166900298Y-102456881D01*
X167167432Y-102635374D01*
X167464255Y-102758322D01*
X167779360Y-102821000D01*
X168100640Y-102821000D01*
X168415745Y-102758322D01*
X168712568Y-102635374D01*
X168979702Y-102456881D01*
X169206881Y-102229702D01*
X169385374Y-101962568D01*
X169508322Y-101665745D01*
X169571000Y-101350640D01*
X169571000Y-101029360D01*
X169508322Y-100714255D01*
X169385374Y-100417432D01*
X169206881Y-100150298D01*
X168979702Y-99923119D01*
X168712568Y-99744626D01*
X168415745Y-99621678D01*
X168100640Y-99559000D01*
X167779360Y-99559000D01*
X167464255Y-99621678D01*
X167167432Y-99744626D01*
X166900298Y-99923119D01*
X166673119Y-100150298D01*
X166494626Y-100417432D01*
X166371678Y-100714255D01*
X166309000Y-101029360D01*
X161284925Y-101029360D01*
X161281805Y-100997690D01*
X161225711Y-100812771D01*
X161134618Y-100642349D01*
X161012028Y-100492972D01*
X160862651Y-100370382D01*
X160692229Y-100279289D01*
X160507310Y-100223195D01*
X160363187Y-100209000D01*
X159774592Y-100209000D01*
X159738435Y-100172843D01*
X160665001Y-100172843D01*
X160788462Y-100160683D01*
X160907179Y-100124671D01*
X161016589Y-100066190D01*
X161112488Y-99987488D01*
X161191190Y-99891589D01*
X161249671Y-99782179D01*
X161285683Y-99663462D01*
X161297843Y-99540001D01*
X161297843Y-98839999D01*
X161285683Y-98716538D01*
X161249671Y-98597821D01*
X161191190Y-98488411D01*
X161112488Y-98392512D01*
X161016589Y-98313810D01*
X160907179Y-98255329D01*
X160788462Y-98219317D01*
X160665001Y-98207157D01*
X159414999Y-98207157D01*
X159291538Y-98219317D01*
X159172821Y-98255329D01*
X159063411Y-98313810D01*
X158967512Y-98392512D01*
X158888810Y-98488411D01*
X158830329Y-98597821D01*
X158794317Y-98716538D01*
X158782157Y-98839999D01*
X158782157Y-99216566D01*
X158546000Y-98980409D01*
X158546000Y-96607609D01*
X165571538Y-96607609D01*
X165575409Y-96645282D01*
X165667579Y-96870533D01*
X165801922Y-97073474D01*
X165973275Y-97246307D01*
X166175054Y-97382390D01*
X166399504Y-97476493D01*
X166638000Y-97525000D01*
X166913000Y-97525000D01*
X166913000Y-96417000D01*
X167167000Y-96417000D01*
X167167000Y-97525000D01*
X167442000Y-97525000D01*
X167680496Y-97476493D01*
X167904946Y-97382390D01*
X168106725Y-97246307D01*
X168278078Y-97073474D01*
X168412421Y-96870533D01*
X168504591Y-96645282D01*
X168508462Y-96607609D01*
X168383731Y-96417000D01*
X167167000Y-96417000D01*
X166913000Y-96417000D01*
X165696269Y-96417000D01*
X165571538Y-96607609D01*
X158546000Y-96607609D01*
X158546000Y-94688501D01*
X158646642Y-94587859D01*
X158732113Y-94459942D01*
X158790987Y-94317809D01*
X158821000Y-94166922D01*
X158821000Y-94013078D01*
X158790987Y-93862191D01*
X158732113Y-93720058D01*
X158712029Y-93690000D01*
X158779254Y-93690000D01*
X158798195Y-93882310D01*
X158854289Y-94067229D01*
X158945382Y-94237651D01*
X159067972Y-94387028D01*
X159217349Y-94509618D01*
X159387771Y-94600711D01*
X159572690Y-94656805D01*
X159716813Y-94671000D01*
X160363187Y-94671000D01*
X160507310Y-94656805D01*
X160692229Y-94600711D01*
X160862651Y-94509618D01*
X161012028Y-94387028D01*
X161134618Y-94237651D01*
X161225711Y-94067229D01*
X161281805Y-93882310D01*
X161300746Y-93690000D01*
X161281805Y-93497690D01*
X161225711Y-93312771D01*
X161134618Y-93142349D01*
X161012028Y-92992972D01*
X160862651Y-92870382D01*
X160692229Y-92779289D01*
X160507310Y-92723195D01*
X160363187Y-92709000D01*
X159716813Y-92709000D01*
X159572690Y-92723195D01*
X159387771Y-92779289D01*
X159217349Y-92870382D01*
X159067972Y-92992972D01*
X158945382Y-93142349D01*
X158854289Y-93312771D01*
X158798195Y-93497690D01*
X158779254Y-93690000D01*
X158712029Y-93690000D01*
X158646642Y-93592141D01*
X158537859Y-93483358D01*
X158409942Y-93397887D01*
X158267809Y-93339013D01*
X158116922Y-93309000D01*
X157963078Y-93309000D01*
X157812191Y-93339013D01*
X157670058Y-93397887D01*
X157542141Y-93483358D01*
X157433358Y-93592141D01*
X157347887Y-93720058D01*
X157289013Y-93862191D01*
X157259000Y-94013078D01*
X156368923Y-94013078D01*
X158782157Y-91599845D01*
X158782157Y-92040001D01*
X158794317Y-92163462D01*
X158830329Y-92282179D01*
X158888810Y-92391589D01*
X158967512Y-92487488D01*
X159063411Y-92566190D01*
X159172821Y-92624671D01*
X159291538Y-92660683D01*
X159414999Y-92672843D01*
X160665001Y-92672843D01*
X160788462Y-92660683D01*
X160907179Y-92624671D01*
X161016589Y-92566190D01*
X161112488Y-92487488D01*
X161191190Y-92391589D01*
X161249671Y-92282179D01*
X161285683Y-92163462D01*
X161297843Y-92040001D01*
X161297843Y-91339999D01*
X161285683Y-91216538D01*
X161249671Y-91097821D01*
X161191190Y-90988411D01*
X161112488Y-90892512D01*
X161016589Y-90813810D01*
X160907179Y-90755329D01*
X160788462Y-90719317D01*
X160665001Y-90707157D01*
X159414999Y-90707157D01*
X159345988Y-90713954D01*
X159345990Y-87599601D01*
X159774591Y-87171000D01*
X160363187Y-87171000D01*
X160507310Y-87156805D01*
X160692229Y-87100711D01*
X160862651Y-87009618D01*
X161012028Y-86887028D01*
X161134618Y-86737651D01*
X161225711Y-86567229D01*
X161281805Y-86382310D01*
X161300746Y-86190000D01*
X161281805Y-85997690D01*
X161225711Y-85812771D01*
X161134618Y-85642349D01*
X161012028Y-85492972D01*
X160862651Y-85370382D01*
X160692229Y-85279289D01*
X160507310Y-85223195D01*
X160363187Y-85209000D01*
X159736592Y-85209000D01*
X159774592Y-85171000D01*
X160363187Y-85171000D01*
X160507310Y-85156805D01*
X160692229Y-85100711D01*
X160862651Y-85009618D01*
X161012028Y-84887028D01*
X161134618Y-84737651D01*
X161225711Y-84567229D01*
X161239463Y-84521893D01*
X167734000Y-91016431D01*
X167734000Y-91313953D01*
X167665001Y-91307157D01*
X166414999Y-91307157D01*
X166291538Y-91319317D01*
X166172821Y-91355329D01*
X166063411Y-91413810D01*
X165967512Y-91492512D01*
X165888810Y-91588411D01*
X165830329Y-91697821D01*
X165794317Y-91816538D01*
X165782157Y-91939999D01*
X165782157Y-92640001D01*
X165794317Y-92763462D01*
X165830329Y-92882179D01*
X165888810Y-92991589D01*
X165967512Y-93087488D01*
X166063411Y-93166190D01*
X166172821Y-93224671D01*
X166291538Y-93260683D01*
X166414999Y-93272843D01*
X167341565Y-93272843D01*
X167305408Y-93309000D01*
X166716813Y-93309000D01*
X166572690Y-93323195D01*
X166387771Y-93379289D01*
X166217349Y-93470382D01*
X166067972Y-93592972D01*
X165945382Y-93742349D01*
X165854289Y-93912771D01*
X165798195Y-94097690D01*
X165779254Y-94290000D01*
X165798195Y-94482310D01*
X165854289Y-94667229D01*
X165945382Y-94837651D01*
X166067972Y-94987028D01*
X166217349Y-95109618D01*
X166291014Y-95148993D01*
X166175054Y-95197610D01*
X165973275Y-95333693D01*
X165801922Y-95506526D01*
X165667579Y-95709467D01*
X165575409Y-95934718D01*
X165571538Y-95972391D01*
X165696269Y-96163000D01*
X166913000Y-96163000D01*
X166913000Y-96143000D01*
X167167000Y-96143000D01*
X167167000Y-96163000D01*
X168383731Y-96163000D01*
X168508462Y-95972391D01*
X168504591Y-95934718D01*
X168412421Y-95709467D01*
X168278078Y-95506526D01*
X168106725Y-95333693D01*
X167904946Y-95197610D01*
X167788986Y-95148993D01*
X167862651Y-95109618D01*
X168012028Y-94987028D01*
X168134618Y-94837651D01*
X168225711Y-94667229D01*
X168281805Y-94482310D01*
X168300746Y-94290000D01*
X168281805Y-94097690D01*
X168225711Y-93912771D01*
X168193355Y-93852237D01*
X168615380Y-93430212D01*
X168662768Y-93372469D01*
X168709754Y-93284565D01*
X168738688Y-93189184D01*
X168748457Y-93089991D01*
X168746000Y-93065043D01*
X168746000Y-90831796D01*
X168748457Y-90806848D01*
X168746000Y-90781900D01*
X168746000Y-90765146D01*
X168738678Y-90690807D01*
X168709745Y-90595425D01*
X168662759Y-90507521D01*
X168599527Y-90430473D01*
X168522479Y-90367241D01*
X168508547Y-90359794D01*
X166431818Y-88283065D01*
X166638000Y-88325000D01*
X166913000Y-88325000D01*
X166913000Y-87217000D01*
X167167000Y-87217000D01*
X167167000Y-88325000D01*
X167442000Y-88325000D01*
X167680496Y-88276493D01*
X167904946Y-88182390D01*
X168106725Y-88046307D01*
X168278078Y-87873474D01*
X168412421Y-87670533D01*
X168504591Y-87445282D01*
X168508462Y-87407609D01*
X168383731Y-87217000D01*
X167167000Y-87217000D01*
X166913000Y-87217000D01*
X165696269Y-87217000D01*
X165571538Y-87407609D01*
X165573276Y-87424523D01*
X164921144Y-86772391D01*
X165571538Y-86772391D01*
X165696269Y-86963000D01*
X166913000Y-86963000D01*
X166913000Y-86943000D01*
X167167000Y-86943000D01*
X167167000Y-86963000D01*
X168383731Y-86963000D01*
X168508462Y-86772391D01*
X168504591Y-86734718D01*
X168412421Y-86509467D01*
X168278078Y-86306526D01*
X168106725Y-86133693D01*
X167928318Y-86013372D01*
X168016589Y-85966190D01*
X168112488Y-85887488D01*
X168191190Y-85791589D01*
X168249671Y-85682179D01*
X168285683Y-85563462D01*
X168297843Y-85440001D01*
X168297843Y-84739999D01*
X168285683Y-84616538D01*
X168249671Y-84497821D01*
X168191190Y-84388411D01*
X168112488Y-84292512D01*
X168016589Y-84213810D01*
X167907179Y-84155329D01*
X167788462Y-84119317D01*
X167665001Y-84107157D01*
X166414999Y-84107157D01*
X166291538Y-84119317D01*
X166172821Y-84155329D01*
X166063411Y-84213810D01*
X165967512Y-84292512D01*
X165888810Y-84388411D01*
X165830329Y-84497821D01*
X165794317Y-84616538D01*
X165782157Y-84739999D01*
X165782157Y-85440001D01*
X165794317Y-85563462D01*
X165830329Y-85682179D01*
X165888810Y-85791589D01*
X165967512Y-85887488D01*
X166063411Y-85966190D01*
X166151682Y-86013372D01*
X165973275Y-86133693D01*
X165801922Y-86306526D01*
X165667579Y-86509467D01*
X165575409Y-86734718D01*
X165571538Y-86772391D01*
X164921144Y-86772391D01*
X161200487Y-83051735D01*
X161278078Y-82973474D01*
X161412421Y-82770533D01*
X161504591Y-82545282D01*
X161508462Y-82507609D01*
X161383731Y-82317000D01*
X160167000Y-82317000D01*
X160167000Y-82337000D01*
X159913000Y-82337000D01*
X159913000Y-82317000D01*
X158696269Y-82317000D01*
X158571538Y-82507609D01*
X158575409Y-82545282D01*
X158662856Y-82758990D01*
X153102687Y-82758990D01*
X153121000Y-82666922D01*
X153121000Y-82513078D01*
X153090987Y-82362191D01*
X153032113Y-82220058D01*
X152946642Y-82092141D01*
X152837859Y-81983358D01*
X152709942Y-81897887D01*
X152648390Y-81872391D01*
X158571538Y-81872391D01*
X158696269Y-82063000D01*
X159913000Y-82063000D01*
X159913000Y-82043000D01*
X160167000Y-82043000D01*
X160167000Y-82063000D01*
X161383731Y-82063000D01*
X161508462Y-81872391D01*
X161504591Y-81834718D01*
X161412421Y-81609467D01*
X161278078Y-81406526D01*
X161106725Y-81233693D01*
X160928318Y-81113372D01*
X161016589Y-81066190D01*
X161112488Y-80987488D01*
X161191190Y-80891589D01*
X161249671Y-80782179D01*
X161285683Y-80663462D01*
X161297843Y-80540001D01*
X161297843Y-80029360D01*
X166309000Y-80029360D01*
X166309000Y-80350640D01*
X166371678Y-80665745D01*
X166494626Y-80962568D01*
X166673119Y-81229702D01*
X166900298Y-81456881D01*
X167167432Y-81635374D01*
X167464255Y-81758322D01*
X167779360Y-81821000D01*
X168100640Y-81821000D01*
X168415745Y-81758322D01*
X168712568Y-81635374D01*
X168979702Y-81456881D01*
X169206881Y-81229702D01*
X169385374Y-80962568D01*
X169508322Y-80665745D01*
X169571000Y-80350640D01*
X169571000Y-80029360D01*
X169508322Y-79714255D01*
X169385374Y-79417432D01*
X169206881Y-79150298D01*
X168979702Y-78923119D01*
X168712568Y-78744626D01*
X168415745Y-78621678D01*
X168100640Y-78559000D01*
X167779360Y-78559000D01*
X167464255Y-78621678D01*
X167167432Y-78744626D01*
X166900298Y-78923119D01*
X166673119Y-79150298D01*
X166494626Y-79417432D01*
X166371678Y-79714255D01*
X166309000Y-80029360D01*
X161297843Y-80029360D01*
X161297843Y-79839999D01*
X161285683Y-79716538D01*
X161249671Y-79597821D01*
X161191190Y-79488411D01*
X161112488Y-79392512D01*
X161016589Y-79313810D01*
X160907179Y-79255329D01*
X160788462Y-79219317D01*
X160665001Y-79207157D01*
X159414999Y-79207157D01*
X159291538Y-79219317D01*
X159172821Y-79255329D01*
X159063411Y-79313810D01*
X158967512Y-79392512D01*
X158888810Y-79488411D01*
X158830329Y-79597821D01*
X158794317Y-79716538D01*
X158782157Y-79839999D01*
X158782157Y-80540001D01*
X158794317Y-80663462D01*
X158830329Y-80782179D01*
X158888810Y-80891589D01*
X158967512Y-80987488D01*
X159063411Y-81066190D01*
X159151682Y-81113372D01*
X158973275Y-81233693D01*
X158801922Y-81406526D01*
X158667579Y-81609467D01*
X158575409Y-81834718D01*
X158571538Y-81872391D01*
X152648390Y-81872391D01*
X152567809Y-81839013D01*
X152416922Y-81809000D01*
X152263078Y-81809000D01*
X152112191Y-81839013D01*
X151970058Y-81897887D01*
X151842141Y-81983358D01*
X151741499Y-82084000D01*
X150838501Y-82084000D01*
X150737859Y-81983358D01*
X150609942Y-81897887D01*
X150467809Y-81839013D01*
X150316922Y-81809000D01*
X150163078Y-81809000D01*
X150012191Y-81839013D01*
X149870058Y-81897887D01*
X149742141Y-81983358D01*
X149633358Y-82092141D01*
X149547887Y-82220058D01*
X149489013Y-82362191D01*
X149459000Y-82513078D01*
X149459000Y-82666922D01*
X149487261Y-82809001D01*
X142557907Y-82809001D01*
X142546642Y-82792141D01*
X142437859Y-82683358D01*
X142309942Y-82597887D01*
X142167809Y-82539013D01*
X142016922Y-82509000D01*
X141863078Y-82509000D01*
X141712191Y-82539013D01*
X141570058Y-82597887D01*
X141442141Y-82683358D01*
X141333358Y-82792141D01*
X141247887Y-82920058D01*
X141189013Y-83062191D01*
X141159000Y-83213078D01*
X141159000Y-83366922D01*
X141189013Y-83517809D01*
X141247887Y-83659942D01*
X141333358Y-83787859D01*
X141434001Y-83888502D01*
X141434001Y-84273257D01*
X141434000Y-85060408D01*
X138105409Y-88389000D01*
X137963078Y-88389000D01*
X137812191Y-88419013D01*
X137670058Y-88477887D01*
X137542141Y-88563358D01*
X137433358Y-88672141D01*
X137371001Y-88765465D01*
X137371001Y-87812857D01*
X137373449Y-87788003D01*
X137363679Y-87688810D01*
X137334746Y-87593428D01*
X137320568Y-87566903D01*
X137287760Y-87505524D01*
X137224528Y-87428476D01*
X137205221Y-87412631D01*
X135085024Y-85292435D01*
X135109942Y-85282113D01*
X135237859Y-85196642D01*
X135346642Y-85087859D01*
X135432113Y-84959942D01*
X135490987Y-84817809D01*
X135521000Y-84666922D01*
X135521000Y-84513078D01*
X135490987Y-84362191D01*
X135432113Y-84220058D01*
X135346642Y-84092141D01*
X135246000Y-83991499D01*
X135246000Y-81179591D01*
X136083833Y-80341758D01*
X136160931Y-80373693D01*
X136398757Y-80421000D01*
X136641243Y-80421000D01*
X136879069Y-80373693D01*
X137103097Y-80280898D01*
X137304717Y-80146180D01*
X137476180Y-79974717D01*
X137610898Y-79773097D01*
X137703693Y-79549069D01*
X137751000Y-79311243D01*
X137751000Y-79068757D01*
X137829000Y-79068757D01*
X137829000Y-79311243D01*
X137876307Y-79549069D01*
X137969102Y-79773097D01*
X138103820Y-79974717D01*
X138275283Y-80146180D01*
X138476903Y-80280898D01*
X138700931Y-80373693D01*
X138938757Y-80421000D01*
X139181243Y-80421000D01*
X139419069Y-80373693D01*
X139643097Y-80280898D01*
X139844717Y-80146180D01*
X140016180Y-79974717D01*
X140150898Y-79773097D01*
X140198228Y-79658832D01*
X140255843Y-79821252D01*
X140404822Y-80071355D01*
X140599731Y-80287588D01*
X140833080Y-80461641D01*
X141095901Y-80586825D01*
X141243110Y-80631476D01*
X141473000Y-80510155D01*
X141473000Y-79317000D01*
X141727000Y-79317000D01*
X141727000Y-80510155D01*
X141956890Y-80631476D01*
X142104099Y-80586825D01*
X142366920Y-80461641D01*
X142600269Y-80287588D01*
X142795178Y-80071355D01*
X142944157Y-79821252D01*
X143041481Y-79546891D01*
X142920814Y-79317000D01*
X141727000Y-79317000D01*
X141473000Y-79317000D01*
X141453000Y-79317000D01*
X141453000Y-79063000D01*
X141473000Y-79063000D01*
X141473000Y-77869845D01*
X141727000Y-77869845D01*
X141727000Y-79063000D01*
X142920814Y-79063000D01*
X143041481Y-78833109D01*
X142944157Y-78558748D01*
X142795178Y-78308645D01*
X142600269Y-78092412D01*
X142366920Y-77918359D01*
X142104099Y-77793175D01*
X141956890Y-77748524D01*
X141727000Y-77869845D01*
X141473000Y-77869845D01*
X141243110Y-77748524D01*
X141095901Y-77793175D01*
X140833080Y-77918359D01*
X140599731Y-78092412D01*
X140404822Y-78308645D01*
X140255843Y-78558748D01*
X140198228Y-78721168D01*
X140150898Y-78606903D01*
X140016180Y-78405283D01*
X139844717Y-78233820D01*
X139643097Y-78099102D01*
X139419069Y-78006307D01*
X139181243Y-77959000D01*
X138938757Y-77959000D01*
X138700931Y-78006307D01*
X138476903Y-78099102D01*
X138275283Y-78233820D01*
X138103820Y-78405283D01*
X137969102Y-78606903D01*
X137876307Y-78830931D01*
X137829000Y-79068757D01*
X137751000Y-79068757D01*
X137703693Y-78830931D01*
X137610898Y-78606903D01*
X137476180Y-78405283D01*
X137304717Y-78233820D01*
X137103097Y-78099102D01*
X136879069Y-78006307D01*
X136641243Y-77959000D01*
X136398757Y-77959000D01*
X136160931Y-78006307D01*
X135936903Y-78099102D01*
X135735283Y-78233820D01*
X135563820Y-78405283D01*
X135429102Y-78606903D01*
X135336307Y-78830931D01*
X135289000Y-79068757D01*
X135289000Y-79311243D01*
X135336307Y-79549069D01*
X135368242Y-79626167D01*
X134486000Y-80508409D01*
X134486000Y-80312832D01*
X134563097Y-80280898D01*
X134764717Y-80146180D01*
X134936180Y-79974717D01*
X135070898Y-79773097D01*
X135163693Y-79549069D01*
X135211000Y-79311243D01*
X135211000Y-79068757D01*
X135163693Y-78830931D01*
X135070898Y-78606903D01*
X134936180Y-78405283D01*
X134764717Y-78233820D01*
X134563097Y-78099102D01*
X134339069Y-78006307D01*
X134101243Y-77959000D01*
X133858757Y-77959000D01*
X133620931Y-78006307D01*
X133396903Y-78099102D01*
X133195283Y-78233820D01*
X133023820Y-78405283D01*
X132889102Y-78606903D01*
X132796307Y-78830931D01*
X132749000Y-79068757D01*
X132749000Y-79311243D01*
X132796307Y-79549069D01*
X132889102Y-79773097D01*
X133023820Y-79974717D01*
X133195283Y-80146180D01*
X133396903Y-80280898D01*
X133474001Y-80312833D01*
X133474000Y-82982999D01*
X133367809Y-82939013D01*
X133216922Y-82909000D01*
X133063078Y-82909000D01*
X132912191Y-82939013D01*
X132770058Y-82997887D01*
X132642141Y-83083358D01*
X132533358Y-83192141D01*
X132447887Y-83320058D01*
X132389013Y-83462191D01*
X132359000Y-83613078D01*
X132359000Y-83766922D01*
X132389013Y-83917809D01*
X132447887Y-84059942D01*
X132533358Y-84187859D01*
X132634000Y-84288501D01*
X132634001Y-85221412D01*
X131946000Y-84533411D01*
X131946000Y-80312832D01*
X132023097Y-80280898D01*
X132224717Y-80146180D01*
X132396180Y-79974717D01*
X132530898Y-79773097D01*
X132623693Y-79549069D01*
X132671000Y-79311243D01*
X132671000Y-79068757D01*
X132623693Y-78830931D01*
X132530898Y-78606903D01*
X132396180Y-78405283D01*
X132224717Y-78233820D01*
X132023097Y-78099102D01*
X131799069Y-78006307D01*
X131561243Y-77959000D01*
X131318757Y-77959000D01*
X131080931Y-78006307D01*
X130856903Y-78099102D01*
X130655283Y-78233820D01*
X130483820Y-78405283D01*
X130349102Y-78606903D01*
X130256307Y-78830931D01*
X130209000Y-79068757D01*
X130209000Y-79311243D01*
X130256307Y-79549069D01*
X130349102Y-79773097D01*
X130483820Y-79974717D01*
X130655283Y-80146180D01*
X130856903Y-80280898D01*
X130934001Y-80312833D01*
X130934000Y-84718156D01*
X130931553Y-84743002D01*
X130934000Y-84767848D01*
X130934000Y-84767855D01*
X130941322Y-84842194D01*
X130970255Y-84937576D01*
X131017241Y-85025481D01*
X131080473Y-85102529D01*
X131099785Y-85118378D01*
X137316627Y-91335221D01*
X137332472Y-91354528D01*
X137409520Y-91417760D01*
X137497424Y-91464746D01*
X137592806Y-91493679D01*
X137691999Y-91503449D01*
X137716853Y-91501001D01*
X138963155Y-91501001D01*
X138988001Y-91503448D01*
X139012847Y-91501001D01*
X139012855Y-91501001D01*
X139087194Y-91493679D01*
X139182576Y-91464746D01*
X139270480Y-91417760D01*
X139347528Y-91354528D01*
X139363377Y-91335216D01*
X139847595Y-90850999D01*
X141240155Y-90850999D01*
X141265001Y-90853446D01*
X141289847Y-90850999D01*
X141289855Y-90850999D01*
X141364194Y-90843677D01*
X141459576Y-90814744D01*
X141547480Y-90767758D01*
X141624528Y-90704526D01*
X141640377Y-90685214D01*
X142974592Y-89351000D01*
X143116922Y-89351000D01*
X143267809Y-89320987D01*
X143409942Y-89262113D01*
X143537859Y-89176642D01*
X143646642Y-89067859D01*
X143732113Y-88939942D01*
X143790987Y-88797809D01*
X143821000Y-88646922D01*
X143821000Y-88504591D01*
X144844593Y-87480999D01*
X145435468Y-87480999D01*
X145342141Y-87543358D01*
X145233358Y-87652141D01*
X145147887Y-87780058D01*
X145089013Y-87922191D01*
X145059000Y-88073078D01*
X145059000Y-88226922D01*
X145089013Y-88377809D01*
X145147887Y-88519942D01*
X145233358Y-88647859D01*
X145342141Y-88756642D01*
X145435468Y-88819001D01*
X144309853Y-88819001D01*
X144284999Y-88816553D01*
X144260145Y-88819001D01*
X144185806Y-88826323D01*
X144090424Y-88855256D01*
X144002520Y-88902242D01*
X143925472Y-88965474D01*
X143909627Y-88984781D01*
X142985408Y-89909000D01*
X142863078Y-89909000D01*
X142712191Y-89939013D01*
X142570058Y-89997887D01*
X142442141Y-90083358D01*
X142333358Y-90192141D01*
X142247887Y-90320058D01*
X142189013Y-90462191D01*
X142159000Y-90613078D01*
X142159000Y-90735408D01*
X138505408Y-94389001D01*
X136159844Y-94389001D01*
X136134998Y-94386554D01*
X136110152Y-94389001D01*
X136110145Y-94389001D01*
X136045693Y-94395349D01*
X136035805Y-94396323D01*
X135994014Y-94409000D01*
X135940424Y-94425256D01*
X135852520Y-94472242D01*
X135775472Y-94535474D01*
X135759628Y-94554780D01*
X128950409Y-101364000D01*
X127172843Y-101364000D01*
X127172843Y-101120000D01*
X127165487Y-101045311D01*
X127143701Y-100973492D01*
X127108322Y-100907304D01*
X127060711Y-100849289D01*
X127002696Y-100801678D01*
X126936508Y-100766299D01*
X126864689Y-100744513D01*
X126790000Y-100737157D01*
X125640000Y-100737157D01*
X125565704Y-100744435D01*
X125493862Y-100766146D01*
X125490037Y-100768185D01*
X125486508Y-100766299D01*
X125414689Y-100744513D01*
X125346000Y-100737748D01*
X125346000Y-99458591D01*
X127333592Y-97471000D01*
X127475922Y-97471000D01*
X127626809Y-97440987D01*
X127768942Y-97382113D01*
X127896859Y-97296642D01*
X128005642Y-97187859D01*
X128091113Y-97059942D01*
X128149987Y-96917809D01*
X128180000Y-96766922D01*
X128180000Y-96613078D01*
X128149987Y-96462191D01*
X128091113Y-96320058D01*
X128005642Y-96192141D01*
X127896859Y-96083358D01*
X127768942Y-95997887D01*
X127626809Y-95939013D01*
X127475922Y-95909000D01*
X127322078Y-95909000D01*
X127171191Y-95939013D01*
X127029058Y-95997887D01*
X126901141Y-96083358D01*
X126792358Y-96192141D01*
X126706887Y-96320058D01*
X126648013Y-96462191D01*
X126618000Y-96613078D01*
X126618000Y-96755408D01*
X124499781Y-98873628D01*
X124480474Y-98889473D01*
X124417242Y-98966521D01*
X124415501Y-98969779D01*
X124370255Y-99054426D01*
X124341322Y-99149808D01*
X124331553Y-99249000D01*
X124334001Y-99273856D01*
X124334000Y-100737748D01*
X124265311Y-100744513D01*
X124193492Y-100766299D01*
X124127304Y-100801678D01*
X124069289Y-100849289D01*
X124021678Y-100907304D01*
X123986299Y-100973492D01*
X123964513Y-101045311D01*
X123957157Y-101120000D01*
X103571000Y-101120000D01*
X103571000Y-101029360D01*
X103508322Y-100714255D01*
X103385374Y-100417432D01*
X103206881Y-100150298D01*
X102979702Y-99923119D01*
X102712568Y-99744626D01*
X102415745Y-99621678D01*
X102100640Y-99559000D01*
X101779360Y-99559000D01*
X101464255Y-99621678D01*
X101167432Y-99744626D01*
X100900298Y-99923119D01*
X100673119Y-100150298D01*
X100494626Y-100417432D01*
X100371678Y-100714255D01*
X100309000Y-101029360D01*
X99346000Y-101029360D01*
X99346000Y-96613078D01*
X122618000Y-96613078D01*
X122618000Y-96766922D01*
X122648013Y-96917809D01*
X122706887Y-97059942D01*
X122792358Y-97187859D01*
X122901141Y-97296642D01*
X123029058Y-97382113D01*
X123171191Y-97440987D01*
X123322078Y-97471000D01*
X123475922Y-97471000D01*
X123626809Y-97440987D01*
X123768942Y-97382113D01*
X123896859Y-97296642D01*
X124005642Y-97187859D01*
X124091113Y-97059942D01*
X124149987Y-96917809D01*
X124180000Y-96766922D01*
X124180000Y-96624591D01*
X129808592Y-90996000D01*
X130377108Y-90996000D01*
X130359473Y-91010473D01*
X130343624Y-91029785D01*
X130139284Y-91234125D01*
X130139278Y-91234130D01*
X125464409Y-95909000D01*
X125322078Y-95909000D01*
X125171191Y-95939013D01*
X125029058Y-95997887D01*
X124901141Y-96083358D01*
X124792358Y-96192141D01*
X124706887Y-96320058D01*
X124648013Y-96462191D01*
X124618000Y-96613078D01*
X124618000Y-96766922D01*
X124648013Y-96917809D01*
X124706887Y-97059942D01*
X124792358Y-97187859D01*
X124901141Y-97296642D01*
X125029058Y-97382113D01*
X125171191Y-97440987D01*
X125322078Y-97471000D01*
X125475922Y-97471000D01*
X125626809Y-97440987D01*
X125768942Y-97382113D01*
X125896859Y-97296642D01*
X126005642Y-97187859D01*
X126091113Y-97059942D01*
X126149987Y-96917809D01*
X126180000Y-96766922D01*
X126180000Y-96624591D01*
X128891513Y-93913078D01*
X131159000Y-93913078D01*
X131159000Y-94066922D01*
X131189013Y-94217809D01*
X131247887Y-94359942D01*
X131333358Y-94487859D01*
X131442141Y-94596642D01*
X131570058Y-94682113D01*
X131712191Y-94740987D01*
X131863078Y-94771000D01*
X132005409Y-94771000D01*
X132659000Y-95424592D01*
X132659000Y-95566922D01*
X132689013Y-95717809D01*
X132747887Y-95859942D01*
X132833358Y-95987859D01*
X132942141Y-96096642D01*
X133070058Y-96182113D01*
X133212191Y-96240987D01*
X133363078Y-96271000D01*
X133516922Y-96271000D01*
X133667809Y-96240987D01*
X133809942Y-96182113D01*
X133937859Y-96096642D01*
X134046642Y-95987859D01*
X134132113Y-95859942D01*
X134190987Y-95717809D01*
X134221000Y-95566922D01*
X134221000Y-95413078D01*
X134190987Y-95262191D01*
X134132113Y-95120058D01*
X134046642Y-94992141D01*
X133937859Y-94883358D01*
X133809942Y-94797887D01*
X133667809Y-94739013D01*
X133516922Y-94709000D01*
X133374592Y-94709000D01*
X132721000Y-94055409D01*
X132721000Y-93913078D01*
X132690987Y-93762191D01*
X132632113Y-93620058D01*
X132546642Y-93492141D01*
X132437859Y-93383358D01*
X132309942Y-93297887D01*
X132167809Y-93239013D01*
X132016922Y-93209000D01*
X131863078Y-93209000D01*
X131712191Y-93239013D01*
X131570058Y-93297887D01*
X131442141Y-93383358D01*
X131333358Y-93492141D01*
X131247887Y-93620058D01*
X131189013Y-93762191D01*
X131159000Y-93913078D01*
X128891513Y-93913078D01*
X130854870Y-91949722D01*
X130854875Y-91949716D01*
X130928591Y-91876000D01*
X133441499Y-91876000D01*
X133542141Y-91976642D01*
X133670058Y-92062113D01*
X133812191Y-92120987D01*
X133963078Y-92151000D01*
X134116922Y-92151000D01*
X134267809Y-92120987D01*
X134409942Y-92062113D01*
X134537859Y-91976642D01*
X134646642Y-91867859D01*
X134732113Y-91739942D01*
X134790987Y-91597809D01*
X134821000Y-91446922D01*
X134821000Y-91293078D01*
X134790987Y-91142191D01*
X134732113Y-91000058D01*
X134646642Y-90872141D01*
X134537859Y-90763358D01*
X134409942Y-90677887D01*
X134267809Y-90619013D01*
X134116922Y-90589000D01*
X134116608Y-90589000D01*
X134121000Y-90566922D01*
X134121000Y-90413078D01*
X134090987Y-90262191D01*
X134032113Y-90120058D01*
X133946642Y-89992141D01*
X133837859Y-89883358D01*
X133709942Y-89797887D01*
X133567809Y-89739013D01*
X133416922Y-89709000D01*
X133263078Y-89709000D01*
X133112191Y-89739013D01*
X132970058Y-89797887D01*
X132842141Y-89883358D01*
X132741499Y-89984000D01*
X129623845Y-89984000D01*
X129598999Y-89981553D01*
X129574153Y-89984000D01*
X129574146Y-89984000D01*
X129509694Y-89990348D01*
X129499806Y-89991322D01*
X129478164Y-89997887D01*
X129404425Y-90020255D01*
X129316521Y-90067241D01*
X129239473Y-90130473D01*
X129223628Y-90149780D01*
X123464409Y-95909000D01*
X123322078Y-95909000D01*
X123171191Y-95939013D01*
X123029058Y-95997887D01*
X122901141Y-96083358D01*
X122792358Y-96192141D01*
X122706887Y-96320058D01*
X122648013Y-96462191D01*
X122618000Y-96613078D01*
X99346000Y-96613078D01*
X99346000Y-96209853D01*
X99349700Y-96172119D01*
X99354892Y-96154922D01*
X99363328Y-96139057D01*
X99374680Y-96125139D01*
X99388528Y-96113683D01*
X99404330Y-96105139D01*
X99421489Y-96099827D01*
X99457901Y-96096000D01*
X99959941Y-96096000D01*
X99977244Y-96094296D01*
X99980287Y-96094317D01*
X99985929Y-96093764D01*
X100082977Y-96083564D01*
X100119043Y-96076161D01*
X100155169Y-96069269D01*
X100160596Y-96067631D01*
X100253815Y-96038775D01*
X100287762Y-96024505D01*
X100321858Y-96010729D01*
X100326853Y-96008074D01*
X100326861Y-96008070D01*
X100326868Y-96008065D01*
X100412701Y-95961656D01*
X100443242Y-95941056D01*
X100473997Y-95920930D01*
X100478391Y-95917347D01*
X100553580Y-95855145D01*
X100579548Y-95828995D01*
X100605796Y-95803291D01*
X100609405Y-95798929D01*
X100609413Y-95798921D01*
X100609419Y-95798912D01*
X100671086Y-95723303D01*
X100691459Y-95692640D01*
X100712242Y-95662286D01*
X100714939Y-95657299D01*
X100756192Y-95579714D01*
X103154250Y-95577000D01*
X103313000Y-95418250D01*
X103313000Y-93819000D01*
X103567000Y-93819000D01*
X103567000Y-95418250D01*
X103725750Y-95577000D01*
X106440000Y-95580072D01*
X106564482Y-95567812D01*
X106684180Y-95531502D01*
X106794494Y-95472537D01*
X106891185Y-95393185D01*
X106970537Y-95296494D01*
X107029502Y-95186180D01*
X107065812Y-95066482D01*
X107078072Y-94942000D01*
X107075000Y-93977750D01*
X106916250Y-93819000D01*
X103567000Y-93819000D01*
X103313000Y-93819000D01*
X100846000Y-93819000D01*
X100846000Y-93565000D01*
X103313000Y-93565000D01*
X103313000Y-91965750D01*
X103154250Y-91807000D01*
X100846000Y-91804388D01*
X100846000Y-89579612D01*
X103154250Y-89577000D01*
X103313000Y-89418250D01*
X103313000Y-87819000D01*
X103567000Y-87819000D01*
X103567000Y-89418250D01*
X103725750Y-89577000D01*
X106043587Y-89579623D01*
X105889587Y-89643412D01*
X105696157Y-89772658D01*
X105531658Y-89937157D01*
X105402412Y-90130587D01*
X105313386Y-90345515D01*
X105268000Y-90573682D01*
X105268000Y-90806318D01*
X105313386Y-91034485D01*
X105402412Y-91249413D01*
X105531658Y-91442843D01*
X105696157Y-91607342D01*
X105889587Y-91736588D01*
X106053217Y-91804366D01*
X103725750Y-91807000D01*
X103567000Y-91965750D01*
X103567000Y-93565000D01*
X106916250Y-93565000D01*
X107075000Y-93406250D01*
X107078072Y-92442000D01*
X107065812Y-92317518D01*
X107029502Y-92197820D01*
X106970537Y-92087506D01*
X106891185Y-91990815D01*
X106794494Y-91911463D01*
X106684180Y-91852498D01*
X106673943Y-91849393D01*
X106793485Y-91825614D01*
X107008413Y-91736588D01*
X107201843Y-91607342D01*
X107366342Y-91442843D01*
X107495588Y-91249413D01*
X107584614Y-91034485D01*
X107630000Y-90806318D01*
X107630000Y-90573682D01*
X107584614Y-90345515D01*
X107495588Y-90130587D01*
X107366342Y-89937157D01*
X107201843Y-89772658D01*
X107008413Y-89643412D01*
X106793485Y-89554386D01*
X106681907Y-89532191D01*
X106684180Y-89531502D01*
X106794494Y-89472537D01*
X106891185Y-89393185D01*
X106970537Y-89296494D01*
X107029502Y-89186180D01*
X107065812Y-89066482D01*
X107078072Y-88942000D01*
X107075000Y-87977750D01*
X106916250Y-87819000D01*
X103567000Y-87819000D01*
X103313000Y-87819000D01*
X100846000Y-87819000D01*
X100846000Y-87565000D01*
X103313000Y-87565000D01*
X103313000Y-85965750D01*
X103567000Y-85965750D01*
X103567000Y-87565000D01*
X106916250Y-87565000D01*
X107075000Y-87406250D01*
X107078072Y-86442000D01*
X107065812Y-86317518D01*
X107034131Y-86213078D01*
X116618000Y-86213078D01*
X116618000Y-86366922D01*
X116648013Y-86517809D01*
X116706887Y-86659942D01*
X116792358Y-86787859D01*
X116901141Y-86896642D01*
X117029058Y-86982113D01*
X117171191Y-87040987D01*
X117322078Y-87071000D01*
X117475922Y-87071000D01*
X117626809Y-87040987D01*
X117768942Y-86982113D01*
X117896859Y-86896642D01*
X117997501Y-86796000D01*
X118789780Y-86796000D01*
X118706887Y-86920058D01*
X118648013Y-87062191D01*
X118618000Y-87213078D01*
X118618000Y-87366922D01*
X118648013Y-87517809D01*
X118706887Y-87659942D01*
X118792358Y-87787859D01*
X118901141Y-87896642D01*
X119029058Y-87982113D01*
X119171191Y-88040987D01*
X119322078Y-88071000D01*
X119475922Y-88071000D01*
X119626809Y-88040987D01*
X119768942Y-87982113D01*
X119896859Y-87896642D01*
X119997501Y-87796000D01*
X122789780Y-87796000D01*
X122706887Y-87920058D01*
X122648013Y-88062191D01*
X122618000Y-88213078D01*
X122618000Y-88366922D01*
X122648013Y-88517809D01*
X122706887Y-88659942D01*
X122792358Y-88787859D01*
X122901141Y-88896642D01*
X123029058Y-88982113D01*
X123171191Y-89040987D01*
X123322078Y-89071000D01*
X123475922Y-89071000D01*
X123626809Y-89040987D01*
X123768942Y-88982113D01*
X123896859Y-88896642D01*
X123997501Y-88796000D01*
X126141499Y-88796000D01*
X126242141Y-88896642D01*
X126370058Y-88982113D01*
X126512191Y-89040987D01*
X126663078Y-89071000D01*
X126816922Y-89071000D01*
X126967809Y-89040987D01*
X127109942Y-88982113D01*
X127237859Y-88896642D01*
X127346642Y-88787859D01*
X127432113Y-88659942D01*
X127490987Y-88517809D01*
X127521000Y-88366922D01*
X127521000Y-88213078D01*
X127490987Y-88062191D01*
X127432113Y-87920058D01*
X127346642Y-87792141D01*
X127344501Y-87790000D01*
X127346642Y-87787859D01*
X127432113Y-87659942D01*
X127490987Y-87517809D01*
X127521000Y-87366922D01*
X127521000Y-87213078D01*
X127490987Y-87062191D01*
X127432113Y-86920058D01*
X127346642Y-86792141D01*
X127344501Y-86790000D01*
X127346642Y-86787859D01*
X127432113Y-86659942D01*
X127490987Y-86517809D01*
X127521000Y-86366922D01*
X127521000Y-86213078D01*
X127490987Y-86062191D01*
X127432113Y-85920058D01*
X127346642Y-85792141D01*
X127237859Y-85683358D01*
X127109942Y-85597887D01*
X126967809Y-85539013D01*
X126816922Y-85509000D01*
X126663078Y-85509000D01*
X126512191Y-85539013D01*
X126370058Y-85597887D01*
X126242141Y-85683358D01*
X126141499Y-85784000D01*
X117997501Y-85784000D01*
X117896859Y-85683358D01*
X117768942Y-85597887D01*
X117626809Y-85539013D01*
X117475922Y-85509000D01*
X117322078Y-85509000D01*
X117171191Y-85539013D01*
X117029058Y-85597887D01*
X116901141Y-85683358D01*
X116792358Y-85792141D01*
X116706887Y-85920058D01*
X116648013Y-86062191D01*
X116618000Y-86213078D01*
X107034131Y-86213078D01*
X107029502Y-86197820D01*
X106970537Y-86087506D01*
X106891185Y-85990815D01*
X106794494Y-85911463D01*
X106684180Y-85852498D01*
X106564482Y-85816188D01*
X106440000Y-85803928D01*
X103725750Y-85807000D01*
X103567000Y-85965750D01*
X103313000Y-85965750D01*
X103154250Y-85807000D01*
X100758681Y-85804289D01*
X100758068Y-85803136D01*
X100711655Y-85717299D01*
X100691078Y-85686793D01*
X100670930Y-85656003D01*
X100667347Y-85651609D01*
X100605145Y-85576420D01*
X100578995Y-85550452D01*
X100553291Y-85524204D01*
X100548929Y-85520595D01*
X100548921Y-85520587D01*
X100548912Y-85520581D01*
X100473302Y-85458914D01*
X100442658Y-85438553D01*
X100412286Y-85417758D01*
X100407299Y-85415061D01*
X100321138Y-85369249D01*
X100287102Y-85355221D01*
X100253299Y-85340733D01*
X100247884Y-85339056D01*
X100154466Y-85310851D01*
X100118345Y-85303699D01*
X100082372Y-85296053D01*
X100076743Y-85295461D01*
X100076738Y-85295460D01*
X100076734Y-85295460D01*
X99979740Y-85285950D01*
X99959941Y-85284000D01*
X99459851Y-85284000D01*
X99422122Y-85280301D01*
X99404921Y-85275107D01*
X99389056Y-85266672D01*
X99375140Y-85255322D01*
X99363682Y-85241472D01*
X99355139Y-85225672D01*
X99349827Y-85208511D01*
X99346000Y-85172099D01*
X99346000Y-80209854D01*
X99363697Y-80029360D01*
X100309000Y-80029360D01*
X100309000Y-80350640D01*
X100371678Y-80665745D01*
X100494626Y-80962568D01*
X100673119Y-81229702D01*
X100900298Y-81456881D01*
X101167432Y-81635374D01*
X101464255Y-81758322D01*
X101779360Y-81821000D01*
X102100640Y-81821000D01*
X102415745Y-81758322D01*
X102712568Y-81635374D01*
X102979702Y-81456881D01*
X103206881Y-81229702D01*
X103385374Y-80962568D01*
X103508322Y-80665745D01*
X103571000Y-80350640D01*
X103571000Y-80029360D01*
X103508322Y-79714255D01*
X103385374Y-79417432D01*
X103206881Y-79150298D01*
X102979702Y-78923119D01*
X102712568Y-78744626D01*
X102415745Y-78621678D01*
X102100640Y-78559000D01*
X101779360Y-78559000D01*
X101464255Y-78621678D01*
X101167432Y-78744626D01*
X100900298Y-78923119D01*
X100673119Y-79150298D01*
X100494626Y-79417432D01*
X100371678Y-79714255D01*
X100309000Y-80029360D01*
X99363697Y-80029360D01*
X99397312Y-79686537D01*
X99543529Y-79202244D01*
X99781025Y-78755578D01*
X100100755Y-78363550D01*
X100490539Y-78041093D01*
X100935540Y-77800482D01*
X101418796Y-77650889D01*
X101941029Y-77596000D01*
X167910146Y-77596000D01*
X168433463Y-77647312D01*
G37*
%TD.AperFunction*%
D19*
X158854289Y-83812771D02*
X158798195Y-83997690D01*
X158779254Y-84190000D01*
X158798195Y-84382310D01*
X158854289Y-84567229D01*
X158886645Y-84627763D01*
X158049760Y-85464648D01*
X158030454Y-85480493D01*
X157967222Y-85557541D01*
X157945615Y-85597964D01*
X157920235Y-85645446D01*
X157891302Y-85740828D01*
X157881533Y-85840020D01*
X157883981Y-85864876D01*
X157883980Y-88315126D01*
X157883980Y-88503875D01*
X157883981Y-88503884D01*
X157883980Y-90430428D01*
X156955408Y-91359001D01*
X155473499Y-91359001D01*
X155530898Y-91273097D01*
X155623693Y-91049069D01*
X155671000Y-90811243D01*
X155671000Y-90568757D01*
X155623693Y-90330931D01*
X155530898Y-90106903D01*
X155519905Y-90090451D01*
X155598079Y-90106001D01*
X155751923Y-90106001D01*
X155902810Y-90075988D01*
X156044943Y-90017114D01*
X156172860Y-89931643D01*
X156281643Y-89822860D01*
X156367114Y-89694943D01*
X156425988Y-89552810D01*
X156456001Y-89401923D01*
X156456001Y-89248079D01*
X156425988Y-89097192D01*
X156367114Y-88955059D01*
X156281643Y-88827142D01*
X156172860Y-88718359D01*
X156044943Y-88632888D01*
X155902810Y-88574014D01*
X155751923Y-88544001D01*
X155609224Y-88544001D01*
X155623693Y-88509069D01*
X155671000Y-88271243D01*
X155671000Y-88028757D01*
X155623693Y-87790931D01*
X155530898Y-87566903D01*
X155473499Y-87480999D01*
X155526498Y-87480999D01*
X155627140Y-87581641D01*
X155755057Y-87667112D01*
X155897190Y-87725986D01*
X156048077Y-87755999D01*
X156201921Y-87755999D01*
X156352808Y-87725986D01*
X156494941Y-87667112D01*
X156622858Y-87581641D01*
X156731641Y-87472858D01*
X156817112Y-87344941D01*
X156875986Y-87202808D01*
X156905999Y-87051921D01*
X156905999Y-86898077D01*
X156875986Y-86747190D01*
X156817112Y-86605057D01*
X156731641Y-86477140D01*
X156622858Y-86368357D01*
X156494941Y-86282886D01*
X156352808Y-86224012D01*
X156201921Y-86193999D01*
X156048077Y-86193999D01*
X155897190Y-86224012D01*
X155755057Y-86282886D01*
X155627140Y-86368357D01*
X155526498Y-86468999D01*
X155321898Y-86468999D01*
X155396180Y-86394717D01*
X155530898Y-86193097D01*
X155623693Y-85969069D01*
X155671000Y-85731243D01*
X155671000Y-85488757D01*
X155623693Y-85250931D01*
X155530898Y-85026903D01*
X155396180Y-84825283D01*
X155224717Y-84653820D01*
X155023097Y-84519102D01*
X154799069Y-84426307D01*
X154561243Y-84379000D01*
X154318757Y-84379000D01*
X154080931Y-84426307D01*
X153856903Y-84519102D01*
X153655283Y-84653820D01*
X153483820Y-84825283D01*
X153349102Y-85026903D01*
X153256307Y-85250931D01*
X153209000Y-85488757D01*
X153209000Y-85731243D01*
X153256307Y-85969069D01*
X153349102Y-86193097D01*
X153483820Y-86394717D01*
X153558102Y-86468999D01*
X144659846Y-86468999D01*
X144635000Y-86466552D01*
X144610154Y-86468999D01*
X144610147Y-86468999D01*
X144535808Y-86476321D01*
X144440426Y-86505254D01*
X144352522Y-86552240D01*
X144275474Y-86615472D01*
X144259629Y-86634779D01*
X143105409Y-87789000D01*
X142963078Y-87789000D01*
X142812191Y-87819013D01*
X142670058Y-87877887D01*
X142542141Y-87963358D01*
X142433358Y-88072141D01*
X142347887Y-88200058D01*
X142289013Y-88342191D01*
X142259000Y-88493078D01*
X142259000Y-88635408D01*
X141055410Y-89838999D01*
X139662857Y-89838999D01*
X139638003Y-89836551D01*
X139613149Y-89838999D01*
X139538810Y-89846321D01*
X139443428Y-89875254D01*
X139355524Y-89922240D01*
X139278476Y-89985472D01*
X139262632Y-90004778D01*
X138796297Y-90471114D01*
X138821000Y-90346922D01*
X138821000Y-90193078D01*
X138790987Y-90042191D01*
X138732113Y-89900058D01*
X138646642Y-89772141D01*
X138594501Y-89720000D01*
X138646642Y-89667859D01*
X138732113Y-89539942D01*
X138790987Y-89397809D01*
X138821000Y-89246922D01*
X138821000Y-89104591D01*
X142280220Y-85645372D01*
X142299527Y-85629527D01*
X142362759Y-85552479D01*
X142409745Y-85464575D01*
X142438678Y-85369193D01*
X142446000Y-85294854D01*
X142446000Y-85294853D01*
X142448448Y-85270000D01*
X142446000Y-85245146D01*
X142446000Y-83888501D01*
X142513500Y-83821001D01*
X152663155Y-83821001D01*
X152688001Y-83823448D01*
X152712847Y-83821001D01*
X152712855Y-83821001D01*
X152787194Y-83813679D01*
X152882576Y-83784746D01*
X152908311Y-83770990D01*
X158876622Y-83770990D01*
X158854289Y-83812771D01*
%TA.AperFunction,Conductor*%
D20*
G36*
X158854289Y-83812771D02*
G01*
X158798195Y-83997690D01*
X158779254Y-84190000D01*
X158798195Y-84382310D01*
X158854289Y-84567229D01*
X158886645Y-84627763D01*
X158049760Y-85464648D01*
X158030454Y-85480493D01*
X157967222Y-85557541D01*
X157945615Y-85597964D01*
X157920235Y-85645446D01*
X157891302Y-85740828D01*
X157881533Y-85840020D01*
X157883981Y-85864876D01*
X157883980Y-88315126D01*
X157883980Y-88503875D01*
X157883981Y-88503884D01*
X157883980Y-90430428D01*
X156955408Y-91359001D01*
X155473499Y-91359001D01*
X155530898Y-91273097D01*
X155623693Y-91049069D01*
X155671000Y-90811243D01*
X155671000Y-90568757D01*
X155623693Y-90330931D01*
X155530898Y-90106903D01*
X155519905Y-90090451D01*
X155598079Y-90106001D01*
X155751923Y-90106001D01*
X155902810Y-90075988D01*
X156044943Y-90017114D01*
X156172860Y-89931643D01*
X156281643Y-89822860D01*
X156367114Y-89694943D01*
X156425988Y-89552810D01*
X156456001Y-89401923D01*
X156456001Y-89248079D01*
X156425988Y-89097192D01*
X156367114Y-88955059D01*
X156281643Y-88827142D01*
X156172860Y-88718359D01*
X156044943Y-88632888D01*
X155902810Y-88574014D01*
X155751923Y-88544001D01*
X155609224Y-88544001D01*
X155623693Y-88509069D01*
X155671000Y-88271243D01*
X155671000Y-88028757D01*
X155623693Y-87790931D01*
X155530898Y-87566903D01*
X155473499Y-87480999D01*
X155526498Y-87480999D01*
X155627140Y-87581641D01*
X155755057Y-87667112D01*
X155897190Y-87725986D01*
X156048077Y-87755999D01*
X156201921Y-87755999D01*
X156352808Y-87725986D01*
X156494941Y-87667112D01*
X156622858Y-87581641D01*
X156731641Y-87472858D01*
X156817112Y-87344941D01*
X156875986Y-87202808D01*
X156905999Y-87051921D01*
X156905999Y-86898077D01*
X156875986Y-86747190D01*
X156817112Y-86605057D01*
X156731641Y-86477140D01*
X156622858Y-86368357D01*
X156494941Y-86282886D01*
X156352808Y-86224012D01*
X156201921Y-86193999D01*
X156048077Y-86193999D01*
X155897190Y-86224012D01*
X155755057Y-86282886D01*
X155627140Y-86368357D01*
X155526498Y-86468999D01*
X155321898Y-86468999D01*
X155396180Y-86394717D01*
X155530898Y-86193097D01*
X155623693Y-85969069D01*
X155671000Y-85731243D01*
X155671000Y-85488757D01*
X155623693Y-85250931D01*
X155530898Y-85026903D01*
X155396180Y-84825283D01*
X155224717Y-84653820D01*
X155023097Y-84519102D01*
X154799069Y-84426307D01*
X154561243Y-84379000D01*
X154318757Y-84379000D01*
X154080931Y-84426307D01*
X153856903Y-84519102D01*
X153655283Y-84653820D01*
X153483820Y-84825283D01*
X153349102Y-85026903D01*
X153256307Y-85250931D01*
X153209000Y-85488757D01*
X153209000Y-85731243D01*
X153256307Y-85969069D01*
X153349102Y-86193097D01*
X153483820Y-86394717D01*
X153558102Y-86468999D01*
X144659846Y-86468999D01*
X144635000Y-86466552D01*
X144610154Y-86468999D01*
X144610147Y-86468999D01*
X144535808Y-86476321D01*
X144440426Y-86505254D01*
X144352522Y-86552240D01*
X144275474Y-86615472D01*
X144259629Y-86634779D01*
X143105409Y-87789000D01*
X142963078Y-87789000D01*
X142812191Y-87819013D01*
X142670058Y-87877887D01*
X142542141Y-87963358D01*
X142433358Y-88072141D01*
X142347887Y-88200058D01*
X142289013Y-88342191D01*
X142259000Y-88493078D01*
X142259000Y-88635408D01*
X141055410Y-89838999D01*
X139662857Y-89838999D01*
X139638003Y-89836551D01*
X139613149Y-89838999D01*
X139538810Y-89846321D01*
X139443428Y-89875254D01*
X139355524Y-89922240D01*
X139278476Y-89985472D01*
X139262632Y-90004778D01*
X138796297Y-90471114D01*
X138821000Y-90346922D01*
X138821000Y-90193078D01*
X138790987Y-90042191D01*
X138732113Y-89900058D01*
X138646642Y-89772141D01*
X138594501Y-89720000D01*
X138646642Y-89667859D01*
X138732113Y-89539942D01*
X138790987Y-89397809D01*
X138821000Y-89246922D01*
X138821000Y-89104591D01*
X142280220Y-85645372D01*
X142299527Y-85629527D01*
X142362759Y-85552479D01*
X142409745Y-85464575D01*
X142438678Y-85369193D01*
X142446000Y-85294854D01*
X142446000Y-85294853D01*
X142448448Y-85270000D01*
X142446000Y-85245146D01*
X142446000Y-83888501D01*
X142513500Y-83821001D01*
X152663155Y-83821001D01*
X152688001Y-83823448D01*
X152712847Y-83821001D01*
X152712855Y-83821001D01*
X152787194Y-83813679D01*
X152882576Y-83784746D01*
X152908311Y-83770990D01*
X158876622Y-83770990D01*
X158854289Y-83812771D01*
G37*
%TD.AperFunction*%
%TD*%
M02*
