%TF.GenerationSoftware,KiCad,Pcbnew,(5.1.9)-1*%
%TF.CreationDate,2021-05-22T23:59:23+02:00*%
%TF.ProjectId,LoRaProMini,4c6f5261-5072-46f4-9d69-6e692e6b6963,rev?*%
%TF.SameCoordinates,Original*%
%TF.FileFunction,Legend,Top*%
%TF.FilePolarity,Positive*%
%FSLAX46Y46*%
G04 Gerber Fmt 4.6, Leading zero omitted, Abs format (unit mm)*
G04 Created by KiCad (PCBNEW (5.1.9)-1) date 2021-05-22 23:59:23*
%MOMM*%
%LPD*%
G01*
G04 APERTURE LIST*
%ADD10C,0.150000*%
%ADD11C,0.250000*%
%ADD12C,0.120000*%
%ADD13C,0.177800*%
%ADD14C,0.152400*%
G04 APERTURE END LIST*
D10*
X144768166Y-78142380D02*
X144863404Y-78142380D01*
X144958642Y-78190000D01*
X145006261Y-78237619D01*
X145053880Y-78332857D01*
X145101500Y-78523333D01*
X145101500Y-78761428D01*
X145053880Y-78951904D01*
X145006261Y-79047142D01*
X144958642Y-79094761D01*
X144863404Y-79142380D01*
X144768166Y-79142380D01*
X144672928Y-79094761D01*
X144625309Y-79047142D01*
X144577690Y-78951904D01*
X144530071Y-78761428D01*
X144530071Y-78523333D01*
X144577690Y-78332857D01*
X144625309Y-78237619D01*
X144672928Y-78190000D01*
X144768166Y-78142380D01*
X146006261Y-78142380D02*
X145530071Y-78142380D01*
X145482452Y-78618571D01*
X145530071Y-78570952D01*
X145625309Y-78523333D01*
X145863404Y-78523333D01*
X145958642Y-78570952D01*
X146006261Y-78618571D01*
X146053880Y-78713809D01*
X146053880Y-78951904D01*
X146006261Y-79047142D01*
X145958642Y-79094761D01*
X145863404Y-79142380D01*
X145625309Y-79142380D01*
X145530071Y-79094761D01*
X145482452Y-79047142D01*
X147196738Y-78094761D02*
X146339595Y-79380476D01*
X147482452Y-78237619D02*
X147530071Y-78190000D01*
X147625309Y-78142380D01*
X147863404Y-78142380D01*
X147958642Y-78190000D01*
X148006261Y-78237619D01*
X148053880Y-78332857D01*
X148053880Y-78428095D01*
X148006261Y-78570952D01*
X147434833Y-79142380D01*
X148053880Y-79142380D01*
X148672928Y-78142380D02*
X148768166Y-78142380D01*
X148863404Y-78190000D01*
X148911023Y-78237619D01*
X148958642Y-78332857D01*
X149006261Y-78523333D01*
X149006261Y-78761428D01*
X148958642Y-78951904D01*
X148911023Y-79047142D01*
X148863404Y-79094761D01*
X148768166Y-79142380D01*
X148672928Y-79142380D01*
X148577690Y-79094761D01*
X148530071Y-79047142D01*
X148482452Y-78951904D01*
X148434833Y-78761428D01*
X148434833Y-78523333D01*
X148482452Y-78332857D01*
X148530071Y-78237619D01*
X148577690Y-78190000D01*
X148672928Y-78142380D01*
X149387214Y-78237619D02*
X149434833Y-78190000D01*
X149530071Y-78142380D01*
X149768166Y-78142380D01*
X149863404Y-78190000D01*
X149911023Y-78237619D01*
X149958642Y-78332857D01*
X149958642Y-78428095D01*
X149911023Y-78570952D01*
X149339595Y-79142380D01*
X149958642Y-79142380D01*
X150911023Y-79142380D02*
X150339595Y-79142380D01*
X150625309Y-79142380D02*
X150625309Y-78142380D01*
X150530071Y-78285238D01*
X150434833Y-78380476D01*
X150339595Y-78428095D01*
X133184714Y-79142380D02*
X133184714Y-78142380D01*
X133565666Y-78142380D01*
X133660904Y-78190000D01*
X133708523Y-78237619D01*
X133756142Y-78332857D01*
X133756142Y-78475714D01*
X133708523Y-78570952D01*
X133660904Y-78618571D01*
X133565666Y-78666190D01*
X133184714Y-78666190D01*
X134756142Y-79047142D02*
X134708523Y-79094761D01*
X134565666Y-79142380D01*
X134470428Y-79142380D01*
X134327571Y-79094761D01*
X134232333Y-78999523D01*
X134184714Y-78904285D01*
X134137095Y-78713809D01*
X134137095Y-78570952D01*
X134184714Y-78380476D01*
X134232333Y-78285238D01*
X134327571Y-78190000D01*
X134470428Y-78142380D01*
X134565666Y-78142380D01*
X134708523Y-78190000D01*
X134756142Y-78237619D01*
X135518047Y-78618571D02*
X135660904Y-78666190D01*
X135708523Y-78713809D01*
X135756142Y-78809047D01*
X135756142Y-78951904D01*
X135708523Y-79047142D01*
X135660904Y-79094761D01*
X135565666Y-79142380D01*
X135184714Y-79142380D01*
X135184714Y-78142380D01*
X135518047Y-78142380D01*
X135613285Y-78190000D01*
X135660904Y-78237619D01*
X135708523Y-78332857D01*
X135708523Y-78428095D01*
X135660904Y-78523333D01*
X135613285Y-78570952D01*
X135518047Y-78618571D01*
X135184714Y-78618571D01*
X136851380Y-78475714D02*
X137089476Y-79142380D01*
X137327571Y-78475714D01*
X138232333Y-79142380D02*
X137660904Y-79142380D01*
X137946619Y-79142380D02*
X137946619Y-78142380D01*
X137851380Y-78285238D01*
X137756142Y-78380476D01*
X137660904Y-78428095D01*
X138660904Y-79047142D02*
X138708523Y-79094761D01*
X138660904Y-79142380D01*
X138613285Y-79094761D01*
X138660904Y-79047142D01*
X138660904Y-79142380D01*
X139327571Y-78142380D02*
X139422809Y-78142380D01*
X139518047Y-78190000D01*
X139565666Y-78237619D01*
X139613285Y-78332857D01*
X139660904Y-78523333D01*
X139660904Y-78761428D01*
X139613285Y-78951904D01*
X139565666Y-79047142D01*
X139518047Y-79094761D01*
X139422809Y-79142380D01*
X139327571Y-79142380D01*
X139232333Y-79094761D01*
X139184714Y-79047142D01*
X139137095Y-78951904D01*
X139089476Y-78761428D01*
X139089476Y-78523333D01*
X139137095Y-78332857D01*
X139184714Y-78237619D01*
X139232333Y-78190000D01*
X139327571Y-78142380D01*
D11*
X134184714Y-77594761D02*
X133232333Y-77594761D01*
X133232333Y-75594761D01*
X135137095Y-77594761D02*
X134946619Y-77499523D01*
X134851380Y-77404285D01*
X134756142Y-77213809D01*
X134756142Y-76642380D01*
X134851380Y-76451904D01*
X134946619Y-76356666D01*
X135137095Y-76261428D01*
X135422809Y-76261428D01*
X135613285Y-76356666D01*
X135708523Y-76451904D01*
X135803761Y-76642380D01*
X135803761Y-77213809D01*
X135708523Y-77404285D01*
X135613285Y-77499523D01*
X135422809Y-77594761D01*
X135137095Y-77594761D01*
X137803761Y-77594761D02*
X137137095Y-76642380D01*
X136660904Y-77594761D02*
X136660904Y-75594761D01*
X137422809Y-75594761D01*
X137613285Y-75690000D01*
X137708523Y-75785238D01*
X137803761Y-75975714D01*
X137803761Y-76261428D01*
X137708523Y-76451904D01*
X137613285Y-76547142D01*
X137422809Y-76642380D01*
X136660904Y-76642380D01*
X139518047Y-77594761D02*
X139518047Y-76547142D01*
X139422809Y-76356666D01*
X139232333Y-76261428D01*
X138851380Y-76261428D01*
X138660904Y-76356666D01*
X139518047Y-77499523D02*
X139327571Y-77594761D01*
X138851380Y-77594761D01*
X138660904Y-77499523D01*
X138565666Y-77309047D01*
X138565666Y-77118571D01*
X138660904Y-76928095D01*
X138851380Y-76832857D01*
X139327571Y-76832857D01*
X139518047Y-76737619D01*
X140470428Y-77594761D02*
X140470428Y-75594761D01*
X141232333Y-75594761D01*
X141422809Y-75690000D01*
X141518047Y-75785238D01*
X141613285Y-75975714D01*
X141613285Y-76261428D01*
X141518047Y-76451904D01*
X141422809Y-76547142D01*
X141232333Y-76642380D01*
X140470428Y-76642380D01*
X142470428Y-77594761D02*
X142470428Y-76261428D01*
X142470428Y-76642380D02*
X142565666Y-76451904D01*
X142660904Y-76356666D01*
X142851380Y-76261428D01*
X143041857Y-76261428D01*
X143994238Y-77594761D02*
X143803761Y-77499523D01*
X143708523Y-77404285D01*
X143613285Y-77213809D01*
X143613285Y-76642380D01*
X143708523Y-76451904D01*
X143803761Y-76356666D01*
X143994238Y-76261428D01*
X144279952Y-76261428D01*
X144470428Y-76356666D01*
X144565666Y-76451904D01*
X144660904Y-76642380D01*
X144660904Y-77213809D01*
X144565666Y-77404285D01*
X144470428Y-77499523D01*
X144279952Y-77594761D01*
X143994238Y-77594761D01*
X145518047Y-77594761D02*
X145518047Y-75594761D01*
X146184714Y-77023333D01*
X146851380Y-75594761D01*
X146851380Y-77594761D01*
X147803761Y-77594761D02*
X147803761Y-76261428D01*
X147803761Y-75594761D02*
X147708523Y-75690000D01*
X147803761Y-75785238D01*
X147899000Y-75690000D01*
X147803761Y-75594761D01*
X147803761Y-75785238D01*
X148756142Y-76261428D02*
X148756142Y-77594761D01*
X148756142Y-76451904D02*
X148851380Y-76356666D01*
X149041857Y-76261428D01*
X149327571Y-76261428D01*
X149518047Y-76356666D01*
X149613285Y-76547142D01*
X149613285Y-77594761D01*
X150565666Y-77594761D02*
X150565666Y-76261428D01*
X150565666Y-75594761D02*
X150470428Y-75690000D01*
X150565666Y-75785238D01*
X150660904Y-75690000D01*
X150565666Y-75594761D01*
X150565666Y-75785238D01*
X155120952Y-90177713D02*
X155120952Y-90891999D01*
X155073333Y-91034856D01*
X154978095Y-91130094D01*
X154835238Y-91177713D01*
X154740000Y-91177713D01*
X156073333Y-91177713D02*
X155597142Y-91177713D01*
X155597142Y-90177713D01*
X156978095Y-91082475D02*
X156930476Y-91130094D01*
X156787619Y-91177713D01*
X156692380Y-91177713D01*
X156549523Y-91130094D01*
X156454285Y-91034856D01*
X156406666Y-90939618D01*
X156359047Y-90749142D01*
X156359047Y-90606285D01*
X156406666Y-90415809D01*
X156454285Y-90320571D01*
X156549523Y-90225333D01*
X156692380Y-90177713D01*
X156787619Y-90177713D01*
X156930476Y-90225333D01*
X156978095Y-90272952D01*
X157692380Y-90177713D02*
X157692380Y-90891999D01*
X157644761Y-91034856D01*
X157549523Y-91130094D01*
X157406666Y-91177713D01*
X157311428Y-91177713D01*
X158644761Y-91177713D02*
X158168571Y-91177713D01*
X158168571Y-90177713D01*
X159549523Y-91082475D02*
X159501904Y-91130094D01*
X159359047Y-91177713D01*
X159263809Y-91177713D01*
X159120952Y-91130094D01*
X159025714Y-91034856D01*
X158978095Y-90939618D01*
X158930476Y-90749142D01*
X158930476Y-90606285D01*
X158978095Y-90415809D01*
X159025714Y-90320571D01*
X159120952Y-90225333D01*
X159263809Y-90177713D01*
X159359047Y-90177713D01*
X159501904Y-90225333D01*
X159549523Y-90272952D01*
X160263809Y-90177713D02*
X160263809Y-90891999D01*
X160216190Y-91034856D01*
X160120952Y-91130094D01*
X159978095Y-91177713D01*
X159882857Y-91177713D01*
X161216190Y-91177713D02*
X160740000Y-91177713D01*
X160740000Y-90177713D01*
X162120952Y-91082475D02*
X162073333Y-91130094D01*
X161930476Y-91177713D01*
X161835238Y-91177713D01*
X161692380Y-91130094D01*
X161597142Y-91034856D01*
X161549523Y-90939618D01*
X161501904Y-90749142D01*
X161501904Y-90606285D01*
X161549523Y-90415809D01*
X161597142Y-90320571D01*
X161692380Y-90225333D01*
X161835238Y-90177713D01*
X161930476Y-90177713D01*
X162073333Y-90225333D01*
X162120952Y-90272952D01*
X162835238Y-90177713D02*
X162835238Y-90891999D01*
X162787619Y-91034856D01*
X162692380Y-91130094D01*
X162549523Y-91177713D01*
X162454285Y-91177713D01*
X163787619Y-91177713D02*
X163311428Y-91177713D01*
X163311428Y-90177713D01*
X164692380Y-91082475D02*
X164644761Y-91130094D01*
X164501904Y-91177713D01*
X164406666Y-91177713D01*
X164263809Y-91130094D01*
X164168571Y-91034856D01*
X164120952Y-90939618D01*
X164073333Y-90749142D01*
X164073333Y-90606285D01*
X164120952Y-90415809D01*
X164168571Y-90320571D01*
X164263809Y-90225333D01*
X164406666Y-90177713D01*
X164501904Y-90177713D01*
X164644761Y-90225333D01*
X164692380Y-90272952D01*
D12*
%TO.C,C1*%
X129655000Y-101583248D02*
X129655000Y-102105752D01*
X131125000Y-101583248D02*
X131125000Y-102105752D01*
%TO.C,C2*%
X180178748Y-104327000D02*
X180701252Y-104327000D01*
X180178748Y-102857000D02*
X180701252Y-102857000D01*
%TO.C,Arduino Pro Mini*%
X132549000Y-81292000D02*
X166331000Y-81292000D01*
D10*
X132549000Y-100088000D02*
X132549000Y-81292000D01*
D12*
X166331000Y-100088000D02*
X132549000Y-100088000D01*
X166331000Y-81292000D02*
X166331000Y-100088000D01*
D13*
X146381105Y-85275544D02*
X140992951Y-90663697D01*
X140992951Y-90663697D02*
X146381105Y-96051851D01*
X151769259Y-90663697D02*
X146381105Y-96051851D01*
X146381105Y-85275544D02*
X151769259Y-90663697D01*
D14*
X139661000Y-87515000D02*
X136105000Y-87515000D01*
X136105000Y-87515000D02*
X136105000Y-93865000D01*
X139661000Y-93865000D02*
X136105000Y-93865000D01*
X139661000Y-93865000D02*
X139661000Y-87515000D01*
X153250000Y-96786000D02*
X153250000Y-103136000D01*
X150710000Y-96786000D02*
X150710000Y-103136000D01*
D12*
%TO.C,RFM95W*%
X128149000Y-82590000D02*
X128149000Y-81690000D01*
X128499000Y-82590000D02*
X128149000Y-82590000D01*
X112299000Y-98790000D02*
X112699000Y-98790000D01*
X112299000Y-82590000D02*
X112299000Y-98790000D01*
X112699000Y-82590000D02*
X112299000Y-82590000D01*
X128499000Y-98790000D02*
X128099000Y-98790000D01*
X128499000Y-82590000D02*
X128499000Y-98790000D01*
%TO.C,C5*%
X168180000Y-87042000D02*
X168180000Y-95277000D01*
X168180000Y-95277000D02*
X172700000Y-95277000D01*
X172700000Y-95277000D02*
X172700000Y-87042000D01*
%TO.C,DS18B20*%
X172790000Y-81722000D02*
X172790000Y-78122000D01*
X172778478Y-78083522D02*
G75*
G03*
X168340000Y-79922000I-1838478J-1838478D01*
G01*
X172778478Y-81760478D02*
G75*
G02*
X168340000Y-79922000I-1838478J1838478D01*
G01*
%TO.C,R5*%
X177591064Y-76493000D02*
X177136936Y-76493000D01*
X177591064Y-77963000D02*
X177136936Y-77963000D01*
%TO.C,R4*%
X177591064Y-79477500D02*
X177136936Y-79477500D01*
X177591064Y-80947500D02*
X177136936Y-80947500D01*
%TO.C,R3*%
X177136936Y-83932000D02*
X177591064Y-83932000D01*
X177136936Y-82462000D02*
X177591064Y-82462000D01*
%TO.C,R2*%
X170469064Y-96815000D02*
X170014936Y-96815000D01*
X170469064Y-98285000D02*
X170014936Y-98285000D01*
%TO.C,R1*%
X170014936Y-101333000D02*
X170469064Y-101333000D01*
X170014936Y-99863000D02*
X170469064Y-99863000D01*
%TO.C,C4*%
X170503252Y-102857000D02*
X169980748Y-102857000D01*
X170503252Y-104327000D02*
X169980748Y-104327000D01*
%TO.C,U1*%
X178700000Y-100672000D02*
X178700000Y-99742000D01*
X178700000Y-97512000D02*
X178700000Y-98442000D01*
X178700000Y-97512000D02*
X175540000Y-97512000D01*
X178700000Y-100672000D02*
X177240000Y-100672000D01*
%TO.C,I2C BUS*%
X179698000Y-85632000D02*
X174978000Y-85632000D01*
X174978000Y-85632000D02*
X174978000Y-95752000D01*
X174978000Y-95752000D02*
X179698000Y-95752000D01*
X179698000Y-95752000D02*
X179698000Y-85632000D01*
X179698000Y-87392000D02*
X179898000Y-87392000D01*
X179898000Y-87392000D02*
X179898000Y-87092000D01*
X179898000Y-87092000D02*
X179698000Y-87092000D01*
X179798000Y-87392000D02*
X179798000Y-87092000D01*
X179698000Y-88192000D02*
X179088000Y-88192000D01*
X179088000Y-88192000D02*
X179088000Y-86242000D01*
X179088000Y-86242000D02*
X175588000Y-86242000D01*
X175588000Y-86242000D02*
X175588000Y-95142000D01*
X175588000Y-95142000D02*
X179088000Y-95142000D01*
X179088000Y-95142000D02*
X179088000Y-93192000D01*
X179088000Y-93192000D02*
X179698000Y-93192000D01*
X178388000Y-85632000D02*
X178388000Y-86242000D01*
X177088000Y-85632000D02*
X177088000Y-86242000D01*
X178388000Y-95752000D02*
X178388000Y-95142000D01*
X177088000Y-95752000D02*
X177088000Y-95142000D01*
X175588000Y-88592000D02*
X176088000Y-88592000D01*
X176088000Y-88592000D02*
X176088000Y-88792000D01*
X176088000Y-88792000D02*
X175588000Y-88792000D01*
X175588000Y-88692000D02*
X176088000Y-88692000D01*
X175588000Y-90592000D02*
X176088000Y-90592000D01*
X176088000Y-90592000D02*
X176088000Y-90792000D01*
X176088000Y-90792000D02*
X175588000Y-90792000D01*
X175588000Y-90692000D02*
X176088000Y-90692000D01*
X175588000Y-92592000D02*
X176088000Y-92592000D01*
X176088000Y-92592000D02*
X176088000Y-92792000D01*
X176088000Y-92792000D02*
X175588000Y-92792000D01*
X175588000Y-92692000D02*
X176088000Y-92692000D01*
X179998000Y-86582000D02*
X179998000Y-85332000D01*
X179998000Y-85332000D02*
X178748000Y-85332000D01*
%TO.C,1-WIRE BUS*%
X186750000Y-82465333D02*
X182030000Y-82465333D01*
X182030000Y-82465333D02*
X182030000Y-90585333D01*
X182030000Y-90585333D02*
X186750000Y-90585333D01*
X186750000Y-90585333D02*
X186750000Y-82465333D01*
X186750000Y-84225333D02*
X186950000Y-84225333D01*
X186950000Y-84225333D02*
X186950000Y-83925333D01*
X186950000Y-83925333D02*
X186750000Y-83925333D01*
X186850000Y-84225333D02*
X186850000Y-83925333D01*
X186750000Y-85025333D02*
X186140000Y-85025333D01*
X186140000Y-85025333D02*
X186140000Y-83075333D01*
X186140000Y-83075333D02*
X182640000Y-83075333D01*
X182640000Y-83075333D02*
X182640000Y-89975333D01*
X182640000Y-89975333D02*
X186140000Y-89975333D01*
X186140000Y-89975333D02*
X186140000Y-88025333D01*
X186140000Y-88025333D02*
X186750000Y-88025333D01*
X185440000Y-82465333D02*
X185440000Y-83075333D01*
X184140000Y-82465333D02*
X184140000Y-83075333D01*
X185440000Y-90585333D02*
X185440000Y-89975333D01*
X184140000Y-90585333D02*
X184140000Y-89975333D01*
X182640000Y-85425333D02*
X183140000Y-85425333D01*
X183140000Y-85425333D02*
X183140000Y-85625333D01*
X183140000Y-85625333D02*
X182640000Y-85625333D01*
X182640000Y-85525333D02*
X183140000Y-85525333D01*
X182640000Y-87425333D02*
X183140000Y-87425333D01*
X183140000Y-87425333D02*
X183140000Y-87625333D01*
X183140000Y-87625333D02*
X182640000Y-87625333D01*
X182640000Y-87525333D02*
X183140000Y-87525333D01*
X187050000Y-83415333D02*
X187050000Y-82165333D01*
X187050000Y-82165333D02*
X185800000Y-82165333D01*
%TO.C,PWR*%
X186750000Y-92798666D02*
X182030000Y-92798666D01*
X182030000Y-92798666D02*
X182030000Y-98918666D01*
X182030000Y-98918666D02*
X186750000Y-98918666D01*
X186750000Y-98918666D02*
X186750000Y-92798666D01*
X186750000Y-94558666D02*
X186950000Y-94558666D01*
X186950000Y-94558666D02*
X186950000Y-94258666D01*
X186950000Y-94258666D02*
X186750000Y-94258666D01*
X186850000Y-94558666D02*
X186850000Y-94258666D01*
X186750000Y-95358666D02*
X186140000Y-95358666D01*
X186140000Y-95358666D02*
X186140000Y-93408666D01*
X186140000Y-93408666D02*
X182640000Y-93408666D01*
X182640000Y-93408666D02*
X182640000Y-98308666D01*
X182640000Y-98308666D02*
X186140000Y-98308666D01*
X186140000Y-98308666D02*
X186140000Y-96358666D01*
X186140000Y-96358666D02*
X186750000Y-96358666D01*
X185440000Y-92798666D02*
X185440000Y-93408666D01*
X184140000Y-92798666D02*
X184140000Y-93408666D01*
X185440000Y-98918666D02*
X185440000Y-98308666D01*
X184140000Y-98918666D02*
X184140000Y-98308666D01*
X182640000Y-95758666D02*
X183140000Y-95758666D01*
X183140000Y-95758666D02*
X183140000Y-95958666D01*
X183140000Y-95958666D02*
X182640000Y-95958666D01*
X182640000Y-95858666D02*
X183140000Y-95858666D01*
X187050000Y-93748666D02*
X187050000Y-92498666D01*
X187050000Y-92498666D02*
X185800000Y-92498666D01*
%TO.C,C3*%
X175159998Y-102857000D02*
X175682502Y-102857000D01*
X175159998Y-104327000D02*
X175682502Y-104327000D01*
%TO.C,C1*%
D10*
X130223333Y-105271142D02*
X130175714Y-105318761D01*
X130032857Y-105366380D01*
X129937619Y-105366380D01*
X129794761Y-105318761D01*
X129699523Y-105223523D01*
X129651904Y-105128285D01*
X129604285Y-104937809D01*
X129604285Y-104794952D01*
X129651904Y-104604476D01*
X129699523Y-104509238D01*
X129794761Y-104414000D01*
X129937619Y-104366380D01*
X130032857Y-104366380D01*
X130175714Y-104414000D01*
X130223333Y-104461619D01*
X131175714Y-105366380D02*
X130604285Y-105366380D01*
X130890000Y-105366380D02*
X130890000Y-104366380D01*
X130794761Y-104509238D01*
X130699523Y-104604476D01*
X130604285Y-104652095D01*
%TO.C,C2*%
X180273333Y-105849142D02*
X180225714Y-105896761D01*
X180082857Y-105944380D01*
X179987619Y-105944380D01*
X179844761Y-105896761D01*
X179749523Y-105801523D01*
X179701904Y-105706285D01*
X179654285Y-105515809D01*
X179654285Y-105372952D01*
X179701904Y-105182476D01*
X179749523Y-105087238D01*
X179844761Y-104992000D01*
X179987619Y-104944380D01*
X180082857Y-104944380D01*
X180225714Y-104992000D01*
X180273333Y-105039619D01*
X180654285Y-105039619D02*
X180701904Y-104992000D01*
X180797142Y-104944380D01*
X181035238Y-104944380D01*
X181130476Y-104992000D01*
X181178095Y-105039619D01*
X181225714Y-105134857D01*
X181225714Y-105230095D01*
X181178095Y-105372952D01*
X180606666Y-105944380D01*
X181225714Y-105944380D01*
%TO.C,Arduino Pro Mini*%
X167306666Y-96844380D02*
X167306666Y-96368190D01*
X167592380Y-96939618D02*
X166592380Y-96606285D01*
X167592380Y-96272952D01*
X167592380Y-95939618D02*
X166925714Y-95939618D01*
X167116190Y-95939618D02*
X167020952Y-95891999D01*
X166973333Y-95844380D01*
X166925714Y-95749142D01*
X166925714Y-95653904D01*
X167592380Y-94891999D02*
X166592380Y-94891999D01*
X167544761Y-94891999D02*
X167592380Y-94987237D01*
X167592380Y-95177713D01*
X167544761Y-95272952D01*
X167497142Y-95320571D01*
X167401904Y-95368190D01*
X167116190Y-95368190D01*
X167020952Y-95320571D01*
X166973333Y-95272952D01*
X166925714Y-95177713D01*
X166925714Y-94987237D01*
X166973333Y-94891999D01*
X166925714Y-93987237D02*
X167592380Y-93987237D01*
X166925714Y-94415809D02*
X167449523Y-94415809D01*
X167544761Y-94368190D01*
X167592380Y-94272952D01*
X167592380Y-94130094D01*
X167544761Y-94034856D01*
X167497142Y-93987237D01*
X167592380Y-93511047D02*
X166925714Y-93511047D01*
X166592380Y-93511047D02*
X166640000Y-93558666D01*
X166687619Y-93511047D01*
X166640000Y-93463428D01*
X166592380Y-93511047D01*
X166687619Y-93511047D01*
X166925714Y-93034856D02*
X167592380Y-93034856D01*
X167020952Y-93034856D02*
X166973333Y-92987237D01*
X166925714Y-92891999D01*
X166925714Y-92749142D01*
X166973333Y-92653904D01*
X167068571Y-92606285D01*
X167592380Y-92606285D01*
X167592380Y-91987237D02*
X167544761Y-92082475D01*
X167497142Y-92130094D01*
X167401904Y-92177713D01*
X167116190Y-92177713D01*
X167020952Y-92130094D01*
X166973333Y-92082475D01*
X166925714Y-91987237D01*
X166925714Y-91844380D01*
X166973333Y-91749142D01*
X167020952Y-91701523D01*
X167116190Y-91653904D01*
X167401904Y-91653904D01*
X167497142Y-91701523D01*
X167544761Y-91749142D01*
X167592380Y-91844380D01*
X167592380Y-91987237D01*
X167592380Y-90463428D02*
X166592380Y-90463428D01*
X166592380Y-90082475D01*
X166640000Y-89987237D01*
X166687619Y-89939618D01*
X166782857Y-89891999D01*
X166925714Y-89891999D01*
X167020952Y-89939618D01*
X167068571Y-89987237D01*
X167116190Y-90082475D01*
X167116190Y-90463428D01*
X167592380Y-89463428D02*
X166925714Y-89463428D01*
X167116190Y-89463428D02*
X167020952Y-89415809D01*
X166973333Y-89368190D01*
X166925714Y-89272952D01*
X166925714Y-89177713D01*
X167592380Y-88701523D02*
X167544761Y-88796761D01*
X167497142Y-88844380D01*
X167401904Y-88891999D01*
X167116190Y-88891999D01*
X167020952Y-88844380D01*
X166973333Y-88796761D01*
X166925714Y-88701523D01*
X166925714Y-88558666D01*
X166973333Y-88463428D01*
X167020952Y-88415809D01*
X167116190Y-88368190D01*
X167401904Y-88368190D01*
X167497142Y-88415809D01*
X167544761Y-88463428D01*
X167592380Y-88558666D01*
X167592380Y-88701523D01*
X167592380Y-87177713D02*
X166592380Y-87177713D01*
X167306666Y-86844380D01*
X166592380Y-86511047D01*
X167592380Y-86511047D01*
X167592380Y-86034856D02*
X166925714Y-86034856D01*
X166592380Y-86034856D02*
X166640000Y-86082475D01*
X166687619Y-86034856D01*
X166640000Y-85987237D01*
X166592380Y-86034856D01*
X166687619Y-86034856D01*
X166925714Y-85558666D02*
X167592380Y-85558666D01*
X167020952Y-85558666D02*
X166973333Y-85511047D01*
X166925714Y-85415809D01*
X166925714Y-85272952D01*
X166973333Y-85177713D01*
X167068571Y-85130094D01*
X167592380Y-85130094D01*
X167592380Y-84653904D02*
X166925714Y-84653904D01*
X166592380Y-84653904D02*
X166640000Y-84701523D01*
X166687619Y-84653904D01*
X166640000Y-84606285D01*
X166592380Y-84653904D01*
X166687619Y-84653904D01*
X129911785Y-90317000D02*
X129816547Y-90269380D01*
X129673690Y-90269380D01*
X129530833Y-90317000D01*
X129435595Y-90412238D01*
X129387976Y-90507476D01*
X129340357Y-90697952D01*
X129340357Y-90840809D01*
X129387976Y-91031285D01*
X129435595Y-91126523D01*
X129530833Y-91221761D01*
X129673690Y-91269380D01*
X129768928Y-91269380D01*
X129911785Y-91221761D01*
X129959404Y-91174142D01*
X129959404Y-90840809D01*
X129768928Y-90840809D01*
X130387976Y-91269380D02*
X130387976Y-90269380D01*
X130959404Y-91269380D01*
X130959404Y-90269380D01*
X131435595Y-91269380D02*
X131435595Y-90269380D01*
X131673690Y-90269380D01*
X131816547Y-90317000D01*
X131911785Y-90412238D01*
X131959404Y-90507476D01*
X132007023Y-90697952D01*
X132007023Y-90840809D01*
X131959404Y-91031285D01*
X131911785Y-91126523D01*
X131816547Y-91221761D01*
X131673690Y-91269380D01*
X131435595Y-91269380D01*
X130578452Y-93523666D02*
X131054642Y-93523666D01*
X130483214Y-93809380D02*
X130816547Y-92809380D01*
X131149880Y-93809380D01*
X131911785Y-92809380D02*
X131721309Y-92809380D01*
X131626071Y-92857000D01*
X131578452Y-92904619D01*
X131483214Y-93047476D01*
X131435595Y-93237952D01*
X131435595Y-93618904D01*
X131483214Y-93714142D01*
X131530833Y-93761761D01*
X131626071Y-93809380D01*
X131816547Y-93809380D01*
X131911785Y-93761761D01*
X131959404Y-93714142D01*
X132007023Y-93618904D01*
X132007023Y-93380809D01*
X131959404Y-93285571D01*
X131911785Y-93237952D01*
X131816547Y-93190333D01*
X131626071Y-93190333D01*
X131530833Y-93237952D01*
X131483214Y-93285571D01*
X131435595Y-93380809D01*
X130578452Y-96063666D02*
X131054642Y-96063666D01*
X130483214Y-96349380D02*
X130816547Y-95349380D01*
X131149880Y-96349380D01*
X131387976Y-95349380D02*
X132054642Y-95349380D01*
X131626071Y-96349380D01*
X134652380Y-101455357D02*
X134652380Y-102026785D01*
X134652380Y-101741071D02*
X133652380Y-101741071D01*
X133795238Y-101836309D01*
X133890476Y-101931547D01*
X133938095Y-102026785D01*
X133652380Y-100836309D02*
X133652380Y-100741071D01*
X133700000Y-100645833D01*
X133747619Y-100598214D01*
X133842857Y-100550595D01*
X134033333Y-100502976D01*
X134271428Y-100502976D01*
X134461904Y-100550595D01*
X134557142Y-100598214D01*
X134604761Y-100645833D01*
X134652380Y-100741071D01*
X134652380Y-100836309D01*
X134604761Y-100931547D01*
X134557142Y-100979166D01*
X134461904Y-101026785D01*
X134271428Y-101074404D01*
X134033333Y-101074404D01*
X133842857Y-101026785D01*
X133747619Y-100979166D01*
X133700000Y-100931547D01*
X133652380Y-100836309D01*
X137192380Y-101455357D02*
X137192380Y-102026785D01*
X137192380Y-101741071D02*
X136192380Y-101741071D01*
X136335238Y-101836309D01*
X136430476Y-101931547D01*
X136478095Y-102026785D01*
X137192380Y-100502976D02*
X137192380Y-101074404D01*
X137192380Y-100788690D02*
X136192380Y-100788690D01*
X136335238Y-100883928D01*
X136430476Y-100979166D01*
X136478095Y-101074404D01*
X139732380Y-101455357D02*
X139732380Y-102026785D01*
X139732380Y-101741071D02*
X138732380Y-101741071D01*
X138875238Y-101836309D01*
X138970476Y-101931547D01*
X139018095Y-102026785D01*
X138827619Y-101074404D02*
X138780000Y-101026785D01*
X138732380Y-100931547D01*
X138732380Y-100693452D01*
X138780000Y-100598214D01*
X138827619Y-100550595D01*
X138922857Y-100502976D01*
X139018095Y-100502976D01*
X139160952Y-100550595D01*
X139732380Y-101122023D01*
X139732380Y-100502976D01*
X142272380Y-101455357D02*
X142272380Y-102026785D01*
X142272380Y-101741071D02*
X141272380Y-101741071D01*
X141415238Y-101836309D01*
X141510476Y-101931547D01*
X141558095Y-102026785D01*
X141272380Y-101122023D02*
X141272380Y-100502976D01*
X141653333Y-100836309D01*
X141653333Y-100693452D01*
X141700952Y-100598214D01*
X141748571Y-100550595D01*
X141843809Y-100502976D01*
X142081904Y-100502976D01*
X142177142Y-100550595D01*
X142224761Y-100598214D01*
X142272380Y-100693452D01*
X142272380Y-100979166D01*
X142224761Y-101074404D01*
X142177142Y-101122023D01*
X144526666Y-101931547D02*
X144526666Y-101455357D01*
X144812380Y-102026785D02*
X143812380Y-101693452D01*
X144812380Y-101360119D01*
X143812380Y-100836309D02*
X143812380Y-100741071D01*
X143860000Y-100645833D01*
X143907619Y-100598214D01*
X144002857Y-100550595D01*
X144193333Y-100502976D01*
X144431428Y-100502976D01*
X144621904Y-100550595D01*
X144717142Y-100598214D01*
X144764761Y-100645833D01*
X144812380Y-100741071D01*
X144812380Y-100836309D01*
X144764761Y-100931547D01*
X144717142Y-100979166D01*
X144621904Y-101026785D01*
X144431428Y-101074404D01*
X144193333Y-101074404D01*
X144002857Y-101026785D01*
X143907619Y-100979166D01*
X143860000Y-100931547D01*
X143812380Y-100836309D01*
X147066666Y-101931547D02*
X147066666Y-101455357D01*
X147352380Y-102026785D02*
X146352380Y-101693452D01*
X147352380Y-101360119D01*
X147352380Y-100502976D02*
X147352380Y-101074404D01*
X147352380Y-100788690D02*
X146352380Y-100788690D01*
X146495238Y-100883928D01*
X146590476Y-100979166D01*
X146638095Y-101074404D01*
X162592380Y-102502976D02*
X162116190Y-102836309D01*
X162592380Y-103074404D02*
X161592380Y-103074404D01*
X161592380Y-102693452D01*
X161640000Y-102598214D01*
X161687619Y-102550595D01*
X161782857Y-102502976D01*
X161925714Y-102502976D01*
X162020952Y-102550595D01*
X162068571Y-102598214D01*
X162116190Y-102693452D01*
X162116190Y-103074404D01*
X162306666Y-102122023D02*
X162306666Y-101645833D01*
X162592380Y-102217261D02*
X161592380Y-101883928D01*
X162592380Y-101550595D01*
X161592380Y-101312500D02*
X162592380Y-101074404D01*
X161878095Y-100883928D01*
X162592380Y-100693452D01*
X161592380Y-100455357D01*
X159100000Y-102598214D02*
X159052380Y-102693452D01*
X159052380Y-102836309D01*
X159100000Y-102979166D01*
X159195238Y-103074404D01*
X159290476Y-103122023D01*
X159480952Y-103169642D01*
X159623809Y-103169642D01*
X159814285Y-103122023D01*
X159909523Y-103074404D01*
X160004761Y-102979166D01*
X160052380Y-102836309D01*
X160052380Y-102741071D01*
X160004761Y-102598214D01*
X159957142Y-102550595D01*
X159623809Y-102550595D01*
X159623809Y-102741071D01*
X160052380Y-102122023D02*
X159052380Y-102122023D01*
X160052380Y-101550595D01*
X159052380Y-101550595D01*
X160052380Y-101074404D02*
X159052380Y-101074404D01*
X159052380Y-100836309D01*
X159100000Y-100693452D01*
X159195238Y-100598214D01*
X159290476Y-100550595D01*
X159480952Y-100502976D01*
X159623809Y-100502976D01*
X159814285Y-100550595D01*
X159909523Y-100598214D01*
X160004761Y-100693452D01*
X160052380Y-100836309D01*
X160052380Y-101074404D01*
X157512380Y-102217261D02*
X157036190Y-102550595D01*
X157512380Y-102788690D02*
X156512380Y-102788690D01*
X156512380Y-102407738D01*
X156560000Y-102312500D01*
X156607619Y-102264880D01*
X156702857Y-102217261D01*
X156845714Y-102217261D01*
X156940952Y-102264880D01*
X156988571Y-102312500D01*
X157036190Y-102407738D01*
X157036190Y-102788690D01*
X157464761Y-101836309D02*
X157512380Y-101693452D01*
X157512380Y-101455357D01*
X157464761Y-101360119D01*
X157417142Y-101312500D01*
X157321904Y-101264880D01*
X157226666Y-101264880D01*
X157131428Y-101312500D01*
X157083809Y-101360119D01*
X157036190Y-101455357D01*
X156988571Y-101645833D01*
X156940952Y-101741071D01*
X156893333Y-101788690D01*
X156798095Y-101836309D01*
X156702857Y-101836309D01*
X156607619Y-101788690D01*
X156560000Y-101741071D01*
X156512380Y-101645833D01*
X156512380Y-101407738D01*
X156560000Y-101264880D01*
X156512380Y-100979166D02*
X156512380Y-100407738D01*
X157512380Y-100693452D02*
X156512380Y-100693452D01*
X153972380Y-103074404D02*
X154972380Y-102741071D01*
X153972380Y-102407738D01*
X154877142Y-101502976D02*
X154924761Y-101550595D01*
X154972380Y-101693452D01*
X154972380Y-101788690D01*
X154924761Y-101931547D01*
X154829523Y-102026785D01*
X154734285Y-102074404D01*
X154543809Y-102122023D01*
X154400952Y-102122023D01*
X154210476Y-102074404D01*
X154115238Y-102026785D01*
X154020000Y-101931547D01*
X153972380Y-101788690D01*
X153972380Y-101693452D01*
X154020000Y-101550595D01*
X154067619Y-101502976D01*
X154877142Y-100502976D02*
X154924761Y-100550595D01*
X154972380Y-100693452D01*
X154972380Y-100788690D01*
X154924761Y-100931547D01*
X154829523Y-101026785D01*
X154734285Y-101074404D01*
X154543809Y-101122023D01*
X154400952Y-101122023D01*
X154210476Y-101074404D01*
X154115238Y-101026785D01*
X154020000Y-100931547D01*
X153972380Y-100788690D01*
X153972380Y-100693452D01*
X154020000Y-100550595D01*
X154067619Y-100502976D01*
X152206666Y-101931547D02*
X152206666Y-101455357D01*
X152492380Y-102026785D02*
X151492380Y-101693452D01*
X152492380Y-101360119D01*
X151492380Y-101122023D02*
X151492380Y-100502976D01*
X151873333Y-100836309D01*
X151873333Y-100693452D01*
X151920952Y-100598214D01*
X151968571Y-100550595D01*
X152063809Y-100502976D01*
X152301904Y-100502976D01*
X152397142Y-100550595D01*
X152444761Y-100598214D01*
X152492380Y-100693452D01*
X152492380Y-100979166D01*
X152444761Y-101074404D01*
X152397142Y-101122023D01*
X149606666Y-101931547D02*
X149606666Y-101455357D01*
X149892380Y-102026785D02*
X148892380Y-101693452D01*
X149892380Y-101360119D01*
X148987619Y-101074404D02*
X148940000Y-101026785D01*
X148892380Y-100931547D01*
X148892380Y-100693452D01*
X148940000Y-100598214D01*
X148987619Y-100550595D01*
X149082857Y-100502976D01*
X149178095Y-100502976D01*
X149320952Y-100550595D01*
X149892380Y-101122023D01*
X149892380Y-100502976D01*
X148811380Y-80889642D02*
X148811380Y-80270595D01*
X149192333Y-80603928D01*
X149192333Y-80461071D01*
X149239952Y-80365833D01*
X149287571Y-80318214D01*
X149382809Y-80270595D01*
X149620904Y-80270595D01*
X149716142Y-80318214D01*
X149763761Y-80365833D01*
X149811380Y-80461071D01*
X149811380Y-80746785D01*
X149763761Y-80842023D01*
X149716142Y-80889642D01*
X151446619Y-80842023D02*
X151399000Y-80794404D01*
X151351380Y-80699166D01*
X151351380Y-80461071D01*
X151399000Y-80365833D01*
X151446619Y-80318214D01*
X151541857Y-80270595D01*
X151637095Y-80270595D01*
X151779952Y-80318214D01*
X152351380Y-80889642D01*
X152351380Y-80270595D01*
X153939000Y-80270595D02*
X153891380Y-80365833D01*
X153891380Y-80508690D01*
X153939000Y-80651547D01*
X154034238Y-80746785D01*
X154129476Y-80794404D01*
X154319952Y-80842023D01*
X154462809Y-80842023D01*
X154653285Y-80794404D01*
X154748523Y-80746785D01*
X154843761Y-80651547D01*
X154891380Y-80508690D01*
X154891380Y-80413452D01*
X154843761Y-80270595D01*
X154796142Y-80222976D01*
X154462809Y-80222976D01*
X154462809Y-80413452D01*
X154891380Y-79794404D02*
X153891380Y-79794404D01*
X154891380Y-79222976D01*
X153891380Y-79222976D01*
X154891380Y-78746785D02*
X153891380Y-78746785D01*
X153891380Y-78508690D01*
X153939000Y-78365833D01*
X154034238Y-78270595D01*
X154129476Y-78222976D01*
X154319952Y-78175357D01*
X154462809Y-78175357D01*
X154653285Y-78222976D01*
X154748523Y-78270595D01*
X154843761Y-78365833D01*
X154891380Y-78508690D01*
X154891380Y-78746785D01*
X157431380Y-80222976D02*
X156955190Y-80556309D01*
X157431380Y-80794404D02*
X156431380Y-80794404D01*
X156431380Y-80413452D01*
X156479000Y-80318214D01*
X156526619Y-80270595D01*
X156621857Y-80222976D01*
X156764714Y-80222976D01*
X156859952Y-80270595D01*
X156907571Y-80318214D01*
X156955190Y-80413452D01*
X156955190Y-80794404D01*
X157383761Y-79842023D02*
X157431380Y-79699166D01*
X157431380Y-79461071D01*
X157383761Y-79365833D01*
X157336142Y-79318214D01*
X157240904Y-79270595D01*
X157145666Y-79270595D01*
X157050428Y-79318214D01*
X157002809Y-79365833D01*
X156955190Y-79461071D01*
X156907571Y-79651547D01*
X156859952Y-79746785D01*
X156812333Y-79794404D01*
X156717095Y-79842023D01*
X156621857Y-79842023D01*
X156526619Y-79794404D01*
X156479000Y-79746785D01*
X156431380Y-79651547D01*
X156431380Y-79413452D01*
X156479000Y-79270595D01*
X156431380Y-78984880D02*
X156431380Y-78413452D01*
X157431380Y-78699166D02*
X156431380Y-78699166D01*
X159971380Y-80222976D02*
X159495190Y-80556309D01*
X159971380Y-80794404D02*
X158971380Y-80794404D01*
X158971380Y-80413452D01*
X159019000Y-80318214D01*
X159066619Y-80270595D01*
X159161857Y-80222976D01*
X159304714Y-80222976D01*
X159399952Y-80270595D01*
X159447571Y-80318214D01*
X159495190Y-80413452D01*
X159495190Y-80794404D01*
X158971380Y-79889642D02*
X159971380Y-79222976D01*
X158971380Y-79222976D02*
X159971380Y-79889642D01*
X159971380Y-78842023D02*
X158971380Y-78842023D01*
X158971380Y-78603928D01*
X159019000Y-78461071D01*
X159114238Y-78365833D01*
X159209476Y-78318214D01*
X159399952Y-78270595D01*
X159542809Y-78270595D01*
X159733285Y-78318214D01*
X159828523Y-78365833D01*
X159923761Y-78461071D01*
X159971380Y-78603928D01*
X159971380Y-78842023D01*
X161511380Y-80937261D02*
X161511380Y-80365833D01*
X162511380Y-80651547D02*
X161511380Y-80651547D01*
X161511380Y-80127738D02*
X162511380Y-79461071D01*
X161511380Y-79461071D02*
X162511380Y-80127738D01*
X162511380Y-79080119D02*
X161511380Y-79080119D01*
X161511380Y-78842023D01*
X161559000Y-78699166D01*
X161654238Y-78603928D01*
X161749476Y-78556309D01*
X161939952Y-78508690D01*
X162082809Y-78508690D01*
X162273285Y-78556309D01*
X162368523Y-78603928D01*
X162463761Y-78699166D01*
X162511380Y-78842023D01*
X162511380Y-79080119D01*
X146604714Y-80365833D02*
X147271380Y-80365833D01*
X146223761Y-80603928D02*
X146938047Y-80842023D01*
X146938047Y-80222976D01*
X143731380Y-80318214D02*
X143731380Y-80794404D01*
X144207571Y-80842023D01*
X144159952Y-80794404D01*
X144112333Y-80699166D01*
X144112333Y-80461071D01*
X144159952Y-80365833D01*
X144207571Y-80318214D01*
X144302809Y-80270595D01*
X144540904Y-80270595D01*
X144636142Y-80318214D01*
X144683761Y-80365833D01*
X144731380Y-80461071D01*
X144731380Y-80699166D01*
X144683761Y-80794404D01*
X144636142Y-80842023D01*
X141191380Y-80365833D02*
X141191380Y-80556309D01*
X141239000Y-80651547D01*
X141286619Y-80699166D01*
X141429476Y-80794404D01*
X141619952Y-80842023D01*
X142000904Y-80842023D01*
X142096142Y-80794404D01*
X142143761Y-80746785D01*
X142191380Y-80651547D01*
X142191380Y-80461071D01*
X142143761Y-80365833D01*
X142096142Y-80318214D01*
X142000904Y-80270595D01*
X141762809Y-80270595D01*
X141667571Y-80318214D01*
X141619952Y-80365833D01*
X141572333Y-80461071D01*
X141572333Y-80651547D01*
X141619952Y-80746785D01*
X141667571Y-80794404D01*
X141762809Y-80842023D01*
X138651380Y-80889642D02*
X138651380Y-80222976D01*
X139651380Y-80651547D01*
X136539952Y-80651547D02*
X136492333Y-80746785D01*
X136444714Y-80794404D01*
X136349476Y-80842023D01*
X136301857Y-80842023D01*
X136206619Y-80794404D01*
X136159000Y-80746785D01*
X136111380Y-80651547D01*
X136111380Y-80461071D01*
X136159000Y-80365833D01*
X136206619Y-80318214D01*
X136301857Y-80270595D01*
X136349476Y-80270595D01*
X136444714Y-80318214D01*
X136492333Y-80365833D01*
X136539952Y-80461071D01*
X136539952Y-80651547D01*
X136587571Y-80746785D01*
X136635190Y-80794404D01*
X136730428Y-80842023D01*
X136920904Y-80842023D01*
X137016142Y-80794404D01*
X137063761Y-80746785D01*
X137111380Y-80651547D01*
X137111380Y-80461071D01*
X137063761Y-80365833D01*
X137016142Y-80318214D01*
X136920904Y-80270595D01*
X136730428Y-80270595D01*
X136635190Y-80318214D01*
X136587571Y-80365833D01*
X136539952Y-80461071D01*
X134571380Y-80746785D02*
X134571380Y-80556309D01*
X134523761Y-80461071D01*
X134476142Y-80413452D01*
X134333285Y-80318214D01*
X134142809Y-80270595D01*
X133761857Y-80270595D01*
X133666619Y-80318214D01*
X133619000Y-80365833D01*
X133571380Y-80461071D01*
X133571380Y-80651547D01*
X133619000Y-80746785D01*
X133666619Y-80794404D01*
X133761857Y-80842023D01*
X133999952Y-80842023D01*
X134095190Y-80794404D01*
X134142809Y-80746785D01*
X134190428Y-80651547D01*
X134190428Y-80461071D01*
X134142809Y-80365833D01*
X134095190Y-80318214D01*
X133999952Y-80270595D01*
X150876666Y-105106547D02*
X150876666Y-104630357D01*
X151162380Y-105201785D02*
X150162380Y-104868452D01*
X151162380Y-104535119D01*
X150495714Y-103773214D02*
X151162380Y-103773214D01*
X150114761Y-104011309D02*
X150829047Y-104249404D01*
X150829047Y-103630357D01*
X153416666Y-105106547D02*
X153416666Y-104630357D01*
X153702380Y-105201785D02*
X152702380Y-104868452D01*
X153702380Y-104535119D01*
X152702380Y-103725595D02*
X152702380Y-104201785D01*
X153178571Y-104249404D01*
X153130952Y-104201785D01*
X153083333Y-104106547D01*
X153083333Y-103868452D01*
X153130952Y-103773214D01*
X153178571Y-103725595D01*
X153273809Y-103677976D01*
X153511904Y-103677976D01*
X153607142Y-103725595D01*
X153654761Y-103773214D01*
X153702380Y-103868452D01*
X153702380Y-104106547D01*
X153654761Y-104201785D01*
X153607142Y-104249404D01*
%TO.C,RFM95W*%
X111792380Y-87739618D02*
X111316190Y-88072952D01*
X111792380Y-88311047D02*
X110792380Y-88311047D01*
X110792380Y-87930094D01*
X110840000Y-87834856D01*
X110887619Y-87787237D01*
X110982857Y-87739618D01*
X111125714Y-87739618D01*
X111220952Y-87787237D01*
X111268571Y-87834856D01*
X111316190Y-87930094D01*
X111316190Y-88311047D01*
X111268571Y-86977713D02*
X111268571Y-87311047D01*
X111792380Y-87311047D02*
X110792380Y-87311047D01*
X110792380Y-86834856D01*
X111792380Y-86453904D02*
X110792380Y-86453904D01*
X111506666Y-86120571D01*
X110792380Y-85787237D01*
X111792380Y-85787237D01*
X111792380Y-85263428D02*
X111792380Y-85072952D01*
X111744761Y-84977713D01*
X111697142Y-84930094D01*
X111554285Y-84834856D01*
X111363809Y-84787237D01*
X110982857Y-84787237D01*
X110887619Y-84834856D01*
X110840000Y-84882475D01*
X110792380Y-84977713D01*
X110792380Y-85168190D01*
X110840000Y-85263428D01*
X110887619Y-85311047D01*
X110982857Y-85358666D01*
X111220952Y-85358666D01*
X111316190Y-85311047D01*
X111363809Y-85263428D01*
X111411428Y-85168190D01*
X111411428Y-84977713D01*
X111363809Y-84882475D01*
X111316190Y-84834856D01*
X111220952Y-84787237D01*
X110792380Y-83882475D02*
X110792380Y-84358666D01*
X111268571Y-84406285D01*
X111220952Y-84358666D01*
X111173333Y-84263428D01*
X111173333Y-84025333D01*
X111220952Y-83930094D01*
X111268571Y-83882475D01*
X111363809Y-83834856D01*
X111601904Y-83834856D01*
X111697142Y-83882475D01*
X111744761Y-83930094D01*
X111792380Y-84025333D01*
X111792380Y-84263428D01*
X111744761Y-84358666D01*
X111697142Y-84406285D01*
X110792380Y-83501523D02*
X111792380Y-83263428D01*
X111078095Y-83072952D01*
X111792380Y-82882475D01*
X110792380Y-82644380D01*
X113565666Y-102628095D02*
X113565666Y-102151904D01*
X113851380Y-102723333D02*
X112851380Y-102389999D01*
X113851380Y-102056666D01*
X113851380Y-101723333D02*
X112851380Y-101723333D01*
X113851380Y-101151904D01*
X112851380Y-101151904D01*
X112851380Y-100818571D02*
X112851380Y-100247142D01*
X113851380Y-100532857D02*
X112851380Y-100532857D01*
X114899000Y-102437618D02*
X114851380Y-102532856D01*
X114851380Y-102675714D01*
X114899000Y-102818571D01*
X114994238Y-102913809D01*
X115089476Y-102961428D01*
X115279952Y-103009047D01*
X115422809Y-103009047D01*
X115613285Y-102961428D01*
X115708523Y-102913809D01*
X115803761Y-102818571D01*
X115851380Y-102675714D01*
X115851380Y-102580475D01*
X115803761Y-102437618D01*
X115756142Y-102389999D01*
X115422809Y-102389999D01*
X115422809Y-102580475D01*
X115851380Y-101961428D02*
X114851380Y-101961428D01*
X115851380Y-101389999D01*
X114851380Y-101389999D01*
X115851380Y-100913809D02*
X114851380Y-100913809D01*
X114851380Y-100675714D01*
X114899000Y-100532856D01*
X114994238Y-100437618D01*
X115089476Y-100389999D01*
X115279952Y-100342380D01*
X115422809Y-100342380D01*
X115613285Y-100389999D01*
X115708523Y-100437618D01*
X115803761Y-100532856D01*
X115851380Y-100675714D01*
X115851380Y-100913809D01*
X117851380Y-103390000D02*
X116851380Y-103390000D01*
X116851380Y-103151904D01*
X116899000Y-103009047D01*
X116994238Y-102913809D01*
X117089476Y-102866190D01*
X117279952Y-102818571D01*
X117422809Y-102818571D01*
X117613285Y-102866190D01*
X117708523Y-102913809D01*
X117803761Y-103009047D01*
X117851380Y-103151904D01*
X117851380Y-103390000D01*
X117851380Y-102390000D02*
X116851380Y-102390000D01*
X116851380Y-101723333D02*
X116851380Y-101532857D01*
X116899000Y-101437619D01*
X116994238Y-101342380D01*
X117184714Y-101294761D01*
X117518047Y-101294761D01*
X117708523Y-101342380D01*
X117803761Y-101437619D01*
X117851380Y-101532857D01*
X117851380Y-101723333D01*
X117803761Y-101818571D01*
X117708523Y-101913809D01*
X117518047Y-101961428D01*
X117184714Y-101961428D01*
X116994238Y-101913809D01*
X116899000Y-101818571D01*
X116851380Y-101723333D01*
X116851380Y-100961428D02*
X116851380Y-100342380D01*
X117232333Y-100675714D01*
X117232333Y-100532857D01*
X117279952Y-100437619D01*
X117327571Y-100390000D01*
X117422809Y-100342380D01*
X117660904Y-100342380D01*
X117756142Y-100390000D01*
X117803761Y-100437619D01*
X117851380Y-100532857D01*
X117851380Y-100818571D01*
X117803761Y-100913809D01*
X117756142Y-100961428D01*
X119851380Y-103390000D02*
X118851380Y-103390000D01*
X118851380Y-103151904D01*
X118899000Y-103009047D01*
X118994238Y-102913809D01*
X119089476Y-102866190D01*
X119279952Y-102818571D01*
X119422809Y-102818571D01*
X119613285Y-102866190D01*
X119708523Y-102913809D01*
X119803761Y-103009047D01*
X119851380Y-103151904D01*
X119851380Y-103390000D01*
X119851380Y-102390000D02*
X118851380Y-102390000D01*
X118851380Y-101723333D02*
X118851380Y-101532857D01*
X118899000Y-101437619D01*
X118994238Y-101342380D01*
X119184714Y-101294761D01*
X119518047Y-101294761D01*
X119708523Y-101342380D01*
X119803761Y-101437619D01*
X119851380Y-101532857D01*
X119851380Y-101723333D01*
X119803761Y-101818571D01*
X119708523Y-101913809D01*
X119518047Y-101961428D01*
X119184714Y-101961428D01*
X118994238Y-101913809D01*
X118899000Y-101818571D01*
X118851380Y-101723333D01*
X119184714Y-100437619D02*
X119851380Y-100437619D01*
X118803761Y-100675714D02*
X119518047Y-100913809D01*
X119518047Y-100294761D01*
X120851380Y-103247142D02*
X120851380Y-102628094D01*
X121232333Y-102961428D01*
X121232333Y-102818571D01*
X121279952Y-102723332D01*
X121327571Y-102675713D01*
X121422809Y-102628094D01*
X121660904Y-102628094D01*
X121756142Y-102675713D01*
X121803761Y-102723332D01*
X121851380Y-102818571D01*
X121851380Y-103104285D01*
X121803761Y-103199523D01*
X121756142Y-103247142D01*
X121756142Y-102199523D02*
X121803761Y-102151904D01*
X121851380Y-102199523D01*
X121803761Y-102247142D01*
X121756142Y-102199523D01*
X121851380Y-102199523D01*
X120851380Y-101818571D02*
X120851380Y-101199523D01*
X121232333Y-101532856D01*
X121232333Y-101389999D01*
X121279952Y-101294761D01*
X121327571Y-101247142D01*
X121422809Y-101199523D01*
X121660904Y-101199523D01*
X121756142Y-101247142D01*
X121803761Y-101294761D01*
X121851380Y-101389999D01*
X121851380Y-101675713D01*
X121803761Y-101770952D01*
X121756142Y-101818571D01*
X120851380Y-100913809D02*
X121851380Y-100580475D01*
X120851380Y-100247142D01*
X123851380Y-103390000D02*
X122851380Y-103390000D01*
X122851380Y-103151904D01*
X122899000Y-103009047D01*
X122994238Y-102913809D01*
X123089476Y-102866190D01*
X123279952Y-102818571D01*
X123422809Y-102818571D01*
X123613285Y-102866190D01*
X123708523Y-102913809D01*
X123803761Y-103009047D01*
X123851380Y-103151904D01*
X123851380Y-103390000D01*
X123851380Y-102390000D02*
X122851380Y-102390000D01*
X122851380Y-101723333D02*
X122851380Y-101532857D01*
X122899000Y-101437619D01*
X122994238Y-101342380D01*
X123184714Y-101294761D01*
X123518047Y-101294761D01*
X123708523Y-101342380D01*
X123803761Y-101437619D01*
X123851380Y-101532857D01*
X123851380Y-101723333D01*
X123803761Y-101818571D01*
X123708523Y-101913809D01*
X123518047Y-101961428D01*
X123184714Y-101961428D01*
X122994238Y-101913809D01*
X122899000Y-101818571D01*
X122851380Y-101723333D01*
X122851380Y-100675714D02*
X122851380Y-100580476D01*
X122899000Y-100485238D01*
X122946619Y-100437619D01*
X123041857Y-100390000D01*
X123232333Y-100342380D01*
X123470428Y-100342380D01*
X123660904Y-100390000D01*
X123756142Y-100437619D01*
X123803761Y-100485238D01*
X123851380Y-100580476D01*
X123851380Y-100675714D01*
X123803761Y-100770952D01*
X123756142Y-100818571D01*
X123660904Y-100866190D01*
X123470428Y-100913809D01*
X123232333Y-100913809D01*
X123041857Y-100866190D01*
X122946619Y-100818571D01*
X122899000Y-100770952D01*
X122851380Y-100675714D01*
X125851380Y-103390000D02*
X124851380Y-103390000D01*
X124851380Y-103151904D01*
X124899000Y-103009047D01*
X124994238Y-102913809D01*
X125089476Y-102866190D01*
X125279952Y-102818571D01*
X125422809Y-102818571D01*
X125613285Y-102866190D01*
X125708523Y-102913809D01*
X125803761Y-103009047D01*
X125851380Y-103151904D01*
X125851380Y-103390000D01*
X125851380Y-102390000D02*
X124851380Y-102390000D01*
X124851380Y-101723333D02*
X124851380Y-101532857D01*
X124899000Y-101437619D01*
X124994238Y-101342380D01*
X125184714Y-101294761D01*
X125518047Y-101294761D01*
X125708523Y-101342380D01*
X125803761Y-101437619D01*
X125851380Y-101532857D01*
X125851380Y-101723333D01*
X125803761Y-101818571D01*
X125708523Y-101913809D01*
X125518047Y-101961428D01*
X125184714Y-101961428D01*
X124994238Y-101913809D01*
X124899000Y-101818571D01*
X124851380Y-101723333D01*
X125851380Y-100342380D02*
X125851380Y-100913809D01*
X125851380Y-100628095D02*
X124851380Y-100628095D01*
X124994238Y-100723333D01*
X125089476Y-100818571D01*
X125137095Y-100913809D01*
X127851380Y-103390000D02*
X126851380Y-103390000D01*
X126851380Y-103151904D01*
X126899000Y-103009047D01*
X126994238Y-102913809D01*
X127089476Y-102866190D01*
X127279952Y-102818571D01*
X127422809Y-102818571D01*
X127613285Y-102866190D01*
X127708523Y-102913809D01*
X127803761Y-103009047D01*
X127851380Y-103151904D01*
X127851380Y-103390000D01*
X127851380Y-102390000D02*
X126851380Y-102390000D01*
X126851380Y-101723333D02*
X126851380Y-101532857D01*
X126899000Y-101437619D01*
X126994238Y-101342380D01*
X127184714Y-101294761D01*
X127518047Y-101294761D01*
X127708523Y-101342380D01*
X127803761Y-101437619D01*
X127851380Y-101532857D01*
X127851380Y-101723333D01*
X127803761Y-101818571D01*
X127708523Y-101913809D01*
X127518047Y-101961428D01*
X127184714Y-101961428D01*
X126994238Y-101913809D01*
X126899000Y-101818571D01*
X126851380Y-101723333D01*
X126946619Y-100913809D02*
X126899000Y-100866190D01*
X126851380Y-100770952D01*
X126851380Y-100532857D01*
X126899000Y-100437619D01*
X126946619Y-100390000D01*
X127041857Y-100342380D01*
X127137095Y-100342380D01*
X127279952Y-100390000D01*
X127851380Y-100961428D01*
X127851380Y-100342380D01*
X112899000Y-80476904D02*
X112851380Y-80572142D01*
X112851380Y-80715000D01*
X112899000Y-80857857D01*
X112994238Y-80953095D01*
X113089476Y-81000714D01*
X113279952Y-81048333D01*
X113422809Y-81048333D01*
X113613285Y-81000714D01*
X113708523Y-80953095D01*
X113803761Y-80857857D01*
X113851380Y-80715000D01*
X113851380Y-80619761D01*
X113803761Y-80476904D01*
X113756142Y-80429285D01*
X113422809Y-80429285D01*
X113422809Y-80619761D01*
X113851380Y-80000714D02*
X112851380Y-80000714D01*
X113851380Y-79429285D01*
X112851380Y-79429285D01*
X113851380Y-78953095D02*
X112851380Y-78953095D01*
X112851380Y-78715000D01*
X112899000Y-78572142D01*
X112994238Y-78476904D01*
X113089476Y-78429285D01*
X113279952Y-78381666D01*
X113422809Y-78381666D01*
X113613285Y-78429285D01*
X113708523Y-78476904D01*
X113803761Y-78572142D01*
X113851380Y-78715000D01*
X113851380Y-78953095D01*
X115851380Y-81000715D02*
X114851380Y-81000715D01*
X114851380Y-80762619D01*
X114899000Y-80619762D01*
X114994238Y-80524524D01*
X115089476Y-80476905D01*
X115279952Y-80429286D01*
X115422809Y-80429286D01*
X115613285Y-80476905D01*
X115708523Y-80524524D01*
X115803761Y-80619762D01*
X115851380Y-80762619D01*
X115851380Y-81000715D01*
X115851380Y-80000715D02*
X114851380Y-80000715D01*
X114851380Y-79334048D02*
X114851380Y-79143572D01*
X114899000Y-79048334D01*
X114994238Y-78953095D01*
X115184714Y-78905476D01*
X115518047Y-78905476D01*
X115708523Y-78953095D01*
X115803761Y-79048334D01*
X115851380Y-79143572D01*
X115851380Y-79334048D01*
X115803761Y-79429286D01*
X115708523Y-79524524D01*
X115518047Y-79572143D01*
X115184714Y-79572143D01*
X114994238Y-79524524D01*
X114899000Y-79429286D01*
X114851380Y-79334048D01*
X114851380Y-78000715D02*
X114851380Y-78476905D01*
X115327571Y-78524524D01*
X115279952Y-78476905D01*
X115232333Y-78381667D01*
X115232333Y-78143572D01*
X115279952Y-78048334D01*
X115327571Y-78000715D01*
X115422809Y-77953095D01*
X115660904Y-77953095D01*
X115756142Y-78000715D01*
X115803761Y-78048334D01*
X115851380Y-78143572D01*
X115851380Y-78381667D01*
X115803761Y-78476905D01*
X115756142Y-78524524D01*
X117851380Y-80429286D02*
X117375190Y-80762619D01*
X117851380Y-81000714D02*
X116851380Y-81000714D01*
X116851380Y-80619762D01*
X116899000Y-80524524D01*
X116946619Y-80476905D01*
X117041857Y-80429286D01*
X117184714Y-80429286D01*
X117279952Y-80476905D01*
X117327571Y-80524524D01*
X117375190Y-80619762D01*
X117375190Y-81000714D01*
X117803761Y-80048333D02*
X117851380Y-79905476D01*
X117851380Y-79667381D01*
X117803761Y-79572143D01*
X117756142Y-79524524D01*
X117660904Y-79476905D01*
X117565666Y-79476905D01*
X117470428Y-79524524D01*
X117422809Y-79572143D01*
X117375190Y-79667381D01*
X117327571Y-79857857D01*
X117279952Y-79953095D01*
X117232333Y-80000714D01*
X117137095Y-80048333D01*
X117041857Y-80048333D01*
X116946619Y-80000714D01*
X116899000Y-79953095D01*
X116851380Y-79857857D01*
X116851380Y-79619762D01*
X116899000Y-79476905D01*
X116851380Y-79191190D02*
X116851380Y-78619762D01*
X117851380Y-78905476D02*
X116851380Y-78905476D01*
X119851380Y-81000714D02*
X118851380Y-81000714D01*
X119851380Y-80429285D01*
X118851380Y-80429285D01*
X119803761Y-80000714D02*
X119851380Y-79857857D01*
X119851380Y-79619761D01*
X119803761Y-79524523D01*
X119756142Y-79476904D01*
X119660904Y-79429285D01*
X119565666Y-79429285D01*
X119470428Y-79476904D01*
X119422809Y-79524523D01*
X119375190Y-79619761D01*
X119327571Y-79810238D01*
X119279952Y-79905476D01*
X119232333Y-79953095D01*
X119137095Y-80000714D01*
X119041857Y-80000714D01*
X118946619Y-79953095D01*
X118899000Y-79905476D01*
X118851380Y-79810238D01*
X118851380Y-79572142D01*
X118899000Y-79429285D01*
X119803761Y-79048333D02*
X119851380Y-78905476D01*
X119851380Y-78667380D01*
X119803761Y-78572142D01*
X119756142Y-78524523D01*
X119660904Y-78476904D01*
X119565666Y-78476904D01*
X119470428Y-78524523D01*
X119422809Y-78572142D01*
X119375190Y-78667380D01*
X119327571Y-78857857D01*
X119279952Y-78953095D01*
X119232333Y-79000714D01*
X119137095Y-79048333D01*
X119041857Y-79048333D01*
X118946619Y-79000714D01*
X118899000Y-78953095D01*
X118851380Y-78857857D01*
X118851380Y-78619761D01*
X118899000Y-78476904D01*
X121803761Y-81048333D02*
X121851380Y-80905476D01*
X121851380Y-80667380D01*
X121803761Y-80572142D01*
X121756142Y-80524523D01*
X121660904Y-80476904D01*
X121565666Y-80476904D01*
X121470428Y-80524523D01*
X121422809Y-80572142D01*
X121375190Y-80667380D01*
X121327571Y-80857857D01*
X121279952Y-80953095D01*
X121232333Y-81000714D01*
X121137095Y-81048333D01*
X121041857Y-81048333D01*
X120946619Y-81000714D01*
X120899000Y-80953095D01*
X120851380Y-80857857D01*
X120851380Y-80619761D01*
X120899000Y-80476904D01*
X121756142Y-79476904D02*
X121803761Y-79524523D01*
X121851380Y-79667380D01*
X121851380Y-79762619D01*
X121803761Y-79905476D01*
X121708523Y-80000714D01*
X121613285Y-80048333D01*
X121422809Y-80095952D01*
X121279952Y-80095952D01*
X121089476Y-80048333D01*
X120994238Y-80000714D01*
X120899000Y-79905476D01*
X120851380Y-79762619D01*
X120851380Y-79667380D01*
X120899000Y-79524523D01*
X120946619Y-79476904D01*
X121851380Y-79048333D02*
X120851380Y-79048333D01*
X121851380Y-78476904D02*
X121279952Y-78905476D01*
X120851380Y-78476904D02*
X121422809Y-79048333D01*
X123851380Y-81000714D02*
X122851380Y-81000714D01*
X123565666Y-80667381D01*
X122851380Y-80334047D01*
X123851380Y-80334047D01*
X122851380Y-79667381D02*
X122851380Y-79476905D01*
X122899000Y-79381666D01*
X122994238Y-79286428D01*
X123184714Y-79238809D01*
X123518047Y-79238809D01*
X123708523Y-79286428D01*
X123803761Y-79381666D01*
X123851380Y-79476905D01*
X123851380Y-79667381D01*
X123803761Y-79762619D01*
X123708523Y-79857857D01*
X123518047Y-79905476D01*
X123184714Y-79905476D01*
X122994238Y-79857857D01*
X122899000Y-79762619D01*
X122851380Y-79667381D01*
X123803761Y-78857857D02*
X123851380Y-78715000D01*
X123851380Y-78476905D01*
X123803761Y-78381666D01*
X123756142Y-78334047D01*
X123660904Y-78286428D01*
X123565666Y-78286428D01*
X123470428Y-78334047D01*
X123422809Y-78381666D01*
X123375190Y-78476905D01*
X123327571Y-78667381D01*
X123279952Y-78762619D01*
X123232333Y-78810238D01*
X123137095Y-78857857D01*
X123041857Y-78857857D01*
X122946619Y-78810238D01*
X122899000Y-78762619D01*
X122851380Y-78667381D01*
X122851380Y-78429286D01*
X122899000Y-78286428D01*
X123851380Y-77857857D02*
X122851380Y-77857857D01*
X125851380Y-81000714D02*
X124851380Y-81000714D01*
X125565666Y-80667381D01*
X124851380Y-80334047D01*
X125851380Y-80334047D01*
X125851380Y-79857857D02*
X124851380Y-79857857D01*
X125803761Y-79429286D02*
X125851380Y-79286428D01*
X125851380Y-79048333D01*
X125803761Y-78953095D01*
X125756142Y-78905476D01*
X125660904Y-78857857D01*
X125565666Y-78857857D01*
X125470428Y-78905476D01*
X125422809Y-78953095D01*
X125375190Y-79048333D01*
X125327571Y-79238809D01*
X125279952Y-79334047D01*
X125232333Y-79381666D01*
X125137095Y-79429286D01*
X125041857Y-79429286D01*
X124946619Y-79381666D01*
X124899000Y-79334047D01*
X124851380Y-79238809D01*
X124851380Y-79000714D01*
X124899000Y-78857857D01*
X124851380Y-78238809D02*
X124851380Y-78048333D01*
X124899000Y-77953095D01*
X124994238Y-77857857D01*
X125184714Y-77810238D01*
X125518047Y-77810238D01*
X125708523Y-77857857D01*
X125803761Y-77953095D01*
X125851380Y-78048333D01*
X125851380Y-78238809D01*
X125803761Y-78334047D01*
X125708523Y-78429286D01*
X125518047Y-78476905D01*
X125184714Y-78476905D01*
X124994238Y-78429286D01*
X124899000Y-78334047D01*
X124851380Y-78238809D01*
X126899000Y-80476904D02*
X126851380Y-80572142D01*
X126851380Y-80715000D01*
X126899000Y-80857857D01*
X126994238Y-80953095D01*
X127089476Y-81000714D01*
X127279952Y-81048333D01*
X127422809Y-81048333D01*
X127613285Y-81000714D01*
X127708523Y-80953095D01*
X127803761Y-80857857D01*
X127851380Y-80715000D01*
X127851380Y-80619761D01*
X127803761Y-80476904D01*
X127756142Y-80429285D01*
X127422809Y-80429285D01*
X127422809Y-80619761D01*
X127851380Y-80000714D02*
X126851380Y-80000714D01*
X127851380Y-79429285D01*
X126851380Y-79429285D01*
X127851380Y-78953095D02*
X126851380Y-78953095D01*
X126851380Y-78715000D01*
X126899000Y-78572142D01*
X126994238Y-78476904D01*
X127089476Y-78429285D01*
X127279952Y-78381666D01*
X127422809Y-78381666D01*
X127613285Y-78429285D01*
X127708523Y-78476904D01*
X127803761Y-78572142D01*
X127851380Y-78715000D01*
X127851380Y-78953095D01*
%TO.C,C5*%
X174047142Y-91108666D02*
X174094761Y-91156285D01*
X174142380Y-91299142D01*
X174142380Y-91394380D01*
X174094761Y-91537238D01*
X173999523Y-91632476D01*
X173904285Y-91680095D01*
X173713809Y-91727714D01*
X173570952Y-91727714D01*
X173380476Y-91680095D01*
X173285238Y-91632476D01*
X173190000Y-91537238D01*
X173142380Y-91394380D01*
X173142380Y-91299142D01*
X173190000Y-91156285D01*
X173237619Y-91108666D01*
X173142380Y-90203904D02*
X173142380Y-90680095D01*
X173618571Y-90727714D01*
X173570952Y-90680095D01*
X173523333Y-90584857D01*
X173523333Y-90346761D01*
X173570952Y-90251523D01*
X173618571Y-90203904D01*
X173713809Y-90156285D01*
X173951904Y-90156285D01*
X174047142Y-90203904D01*
X174094761Y-90251523D01*
X174142380Y-90346761D01*
X174142380Y-90584857D01*
X174094761Y-90680095D01*
X174047142Y-90727714D01*
%TO.C,DS18B20*%
X174392380Y-83064857D02*
X173392380Y-83064857D01*
X173392380Y-82826761D01*
X173440000Y-82683904D01*
X173535238Y-82588666D01*
X173630476Y-82541047D01*
X173820952Y-82493428D01*
X173963809Y-82493428D01*
X174154285Y-82541047D01*
X174249523Y-82588666D01*
X174344761Y-82683904D01*
X174392380Y-82826761D01*
X174392380Y-83064857D01*
X174344761Y-82112476D02*
X174392380Y-81969619D01*
X174392380Y-81731523D01*
X174344761Y-81636285D01*
X174297142Y-81588666D01*
X174201904Y-81541047D01*
X174106666Y-81541047D01*
X174011428Y-81588666D01*
X173963809Y-81636285D01*
X173916190Y-81731523D01*
X173868571Y-81922000D01*
X173820952Y-82017238D01*
X173773333Y-82064857D01*
X173678095Y-82112476D01*
X173582857Y-82112476D01*
X173487619Y-82064857D01*
X173440000Y-82017238D01*
X173392380Y-81922000D01*
X173392380Y-81683904D01*
X173440000Y-81541047D01*
X174392380Y-80588666D02*
X174392380Y-81160095D01*
X174392380Y-80874380D02*
X173392380Y-80874380D01*
X173535238Y-80969619D01*
X173630476Y-81064857D01*
X173678095Y-81160095D01*
X173820952Y-80017238D02*
X173773333Y-80112476D01*
X173725714Y-80160095D01*
X173630476Y-80207714D01*
X173582857Y-80207714D01*
X173487619Y-80160095D01*
X173440000Y-80112476D01*
X173392380Y-80017238D01*
X173392380Y-79826761D01*
X173440000Y-79731523D01*
X173487619Y-79683904D01*
X173582857Y-79636285D01*
X173630476Y-79636285D01*
X173725714Y-79683904D01*
X173773333Y-79731523D01*
X173820952Y-79826761D01*
X173820952Y-80017238D01*
X173868571Y-80112476D01*
X173916190Y-80160095D01*
X174011428Y-80207714D01*
X174201904Y-80207714D01*
X174297142Y-80160095D01*
X174344761Y-80112476D01*
X174392380Y-80017238D01*
X174392380Y-79826761D01*
X174344761Y-79731523D01*
X174297142Y-79683904D01*
X174201904Y-79636285D01*
X174011428Y-79636285D01*
X173916190Y-79683904D01*
X173868571Y-79731523D01*
X173820952Y-79826761D01*
X173868571Y-78874380D02*
X173916190Y-78731523D01*
X173963809Y-78683904D01*
X174059047Y-78636285D01*
X174201904Y-78636285D01*
X174297142Y-78683904D01*
X174344761Y-78731523D01*
X174392380Y-78826761D01*
X174392380Y-79207714D01*
X173392380Y-79207714D01*
X173392380Y-78874380D01*
X173440000Y-78779142D01*
X173487619Y-78731523D01*
X173582857Y-78683904D01*
X173678095Y-78683904D01*
X173773333Y-78731523D01*
X173820952Y-78779142D01*
X173868571Y-78874380D01*
X173868571Y-79207714D01*
X173487619Y-78255333D02*
X173440000Y-78207714D01*
X173392380Y-78112476D01*
X173392380Y-77874380D01*
X173440000Y-77779142D01*
X173487619Y-77731523D01*
X173582857Y-77683904D01*
X173678095Y-77683904D01*
X173820952Y-77731523D01*
X174392380Y-78302952D01*
X174392380Y-77683904D01*
X173392380Y-77064857D02*
X173392380Y-76969619D01*
X173440000Y-76874380D01*
X173487619Y-76826761D01*
X173582857Y-76779142D01*
X173773333Y-76731523D01*
X174011428Y-76731523D01*
X174201904Y-76779142D01*
X174297142Y-76826761D01*
X174344761Y-76874380D01*
X174392380Y-76969619D01*
X174392380Y-77064857D01*
X174344761Y-77160095D01*
X174297142Y-77207714D01*
X174201904Y-77255333D01*
X174011428Y-77302952D01*
X173773333Y-77302952D01*
X173582857Y-77255333D01*
X173487619Y-77207714D01*
X173440000Y-77160095D01*
X173392380Y-77064857D01*
%TO.C,R5*%
X180261333Y-77680380D02*
X179928000Y-77204190D01*
X179689904Y-77680380D02*
X179689904Y-76680380D01*
X180070857Y-76680380D01*
X180166095Y-76728000D01*
X180213714Y-76775619D01*
X180261333Y-76870857D01*
X180261333Y-77013714D01*
X180213714Y-77108952D01*
X180166095Y-77156571D01*
X180070857Y-77204190D01*
X179689904Y-77204190D01*
X181166095Y-76680380D02*
X180689904Y-76680380D01*
X180642285Y-77156571D01*
X180689904Y-77108952D01*
X180785142Y-77061333D01*
X181023238Y-77061333D01*
X181118476Y-77108952D01*
X181166095Y-77156571D01*
X181213714Y-77251809D01*
X181213714Y-77489904D01*
X181166095Y-77585142D01*
X181118476Y-77632761D01*
X181023238Y-77680380D01*
X180785142Y-77680380D01*
X180689904Y-77632761D01*
X180642285Y-77585142D01*
%TO.C,R4*%
X180261333Y-80728380D02*
X179928000Y-80252190D01*
X179689904Y-80728380D02*
X179689904Y-79728380D01*
X180070857Y-79728380D01*
X180166095Y-79776000D01*
X180213714Y-79823619D01*
X180261333Y-79918857D01*
X180261333Y-80061714D01*
X180213714Y-80156952D01*
X180166095Y-80204571D01*
X180070857Y-80252190D01*
X179689904Y-80252190D01*
X181118476Y-80061714D02*
X181118476Y-80728380D01*
X180880380Y-79680761D02*
X180642285Y-80395047D01*
X181261333Y-80395047D01*
%TO.C,R3*%
X180197333Y-83649380D02*
X179864000Y-83173190D01*
X179625904Y-83649380D02*
X179625904Y-82649380D01*
X180006857Y-82649380D01*
X180102095Y-82697000D01*
X180149714Y-82744619D01*
X180197333Y-82839857D01*
X180197333Y-82982714D01*
X180149714Y-83077952D01*
X180102095Y-83125571D01*
X180006857Y-83173190D01*
X179625904Y-83173190D01*
X180530666Y-82649380D02*
X181149714Y-82649380D01*
X180816380Y-83030333D01*
X180959238Y-83030333D01*
X181054476Y-83077952D01*
X181102095Y-83125571D01*
X181149714Y-83220809D01*
X181149714Y-83458904D01*
X181102095Y-83554142D01*
X181054476Y-83601761D01*
X180959238Y-83649380D01*
X180673523Y-83649380D01*
X180578285Y-83601761D01*
X180530666Y-83554142D01*
%TO.C,R2*%
X173075333Y-98102380D02*
X172742000Y-97626190D01*
X172503904Y-98102380D02*
X172503904Y-97102380D01*
X172884857Y-97102380D01*
X172980095Y-97150000D01*
X173027714Y-97197619D01*
X173075333Y-97292857D01*
X173075333Y-97435714D01*
X173027714Y-97530952D01*
X172980095Y-97578571D01*
X172884857Y-97626190D01*
X172503904Y-97626190D01*
X173456285Y-97197619D02*
X173503904Y-97150000D01*
X173599142Y-97102380D01*
X173837238Y-97102380D01*
X173932476Y-97150000D01*
X173980095Y-97197619D01*
X174027714Y-97292857D01*
X174027714Y-97388095D01*
X173980095Y-97530952D01*
X173408666Y-98102380D01*
X174027714Y-98102380D01*
%TO.C,R1*%
X173075333Y-101050380D02*
X172742000Y-100574190D01*
X172503904Y-101050380D02*
X172503904Y-100050380D01*
X172884857Y-100050380D01*
X172980095Y-100098000D01*
X173027714Y-100145619D01*
X173075333Y-100240857D01*
X173075333Y-100383714D01*
X173027714Y-100478952D01*
X172980095Y-100526571D01*
X172884857Y-100574190D01*
X172503904Y-100574190D01*
X174027714Y-101050380D02*
X173456285Y-101050380D01*
X173742000Y-101050380D02*
X173742000Y-100050380D01*
X173646761Y-100193238D01*
X173551523Y-100288476D01*
X173456285Y-100336095D01*
%TO.C,C4*%
X170112833Y-105849142D02*
X170065214Y-105896761D01*
X169922357Y-105944380D01*
X169827119Y-105944380D01*
X169684261Y-105896761D01*
X169589023Y-105801523D01*
X169541404Y-105706285D01*
X169493785Y-105515809D01*
X169493785Y-105372952D01*
X169541404Y-105182476D01*
X169589023Y-105087238D01*
X169684261Y-104992000D01*
X169827119Y-104944380D01*
X169922357Y-104944380D01*
X170065214Y-104992000D01*
X170112833Y-105039619D01*
X170969976Y-105277714D02*
X170969976Y-105944380D01*
X170731880Y-104896761D02*
X170493785Y-105611047D01*
X171112833Y-105611047D01*
%TO.C,U1*%
X179640095Y-100050380D02*
X179640095Y-100859904D01*
X179687714Y-100955142D01*
X179735333Y-101002761D01*
X179830571Y-101050380D01*
X180021047Y-101050380D01*
X180116285Y-101002761D01*
X180163904Y-100955142D01*
X180211523Y-100859904D01*
X180211523Y-100050380D01*
X181211523Y-101050380D02*
X180640095Y-101050380D01*
X180925809Y-101050380D02*
X180925809Y-100050380D01*
X180830571Y-100193238D01*
X180735333Y-100288476D01*
X180640095Y-100336095D01*
%TO.C,ANT*%
X108754666Y-88510857D02*
X108754666Y-88034666D01*
X109040380Y-88606095D02*
X108040380Y-88272761D01*
X109040380Y-87939428D01*
X109040380Y-87606095D02*
X108040380Y-87606095D01*
X109040380Y-87034666D01*
X108040380Y-87034666D01*
X108040380Y-86701333D02*
X108040380Y-86129904D01*
X109040380Y-86415619D02*
X108040380Y-86415619D01*
%TO.C,I2C BUS*%
X181240380Y-93549142D02*
X180240380Y-93549142D01*
X180335619Y-93120571D02*
X180288000Y-93072952D01*
X180240380Y-92977714D01*
X180240380Y-92739619D01*
X180288000Y-92644380D01*
X180335619Y-92596761D01*
X180430857Y-92549142D01*
X180526095Y-92549142D01*
X180668952Y-92596761D01*
X181240380Y-93168190D01*
X181240380Y-92549142D01*
X181145142Y-91549142D02*
X181192761Y-91596761D01*
X181240380Y-91739619D01*
X181240380Y-91834857D01*
X181192761Y-91977714D01*
X181097523Y-92072952D01*
X181002285Y-92120571D01*
X180811809Y-92168190D01*
X180668952Y-92168190D01*
X180478476Y-92120571D01*
X180383238Y-92072952D01*
X180288000Y-91977714D01*
X180240380Y-91834857D01*
X180240380Y-91739619D01*
X180288000Y-91596761D01*
X180335619Y-91549142D01*
X180716571Y-90025333D02*
X180764190Y-89882476D01*
X180811809Y-89834857D01*
X180907047Y-89787238D01*
X181049904Y-89787238D01*
X181145142Y-89834857D01*
X181192761Y-89882476D01*
X181240380Y-89977714D01*
X181240380Y-90358666D01*
X180240380Y-90358666D01*
X180240380Y-90025333D01*
X180288000Y-89930095D01*
X180335619Y-89882476D01*
X180430857Y-89834857D01*
X180526095Y-89834857D01*
X180621333Y-89882476D01*
X180668952Y-89930095D01*
X180716571Y-90025333D01*
X180716571Y-90358666D01*
X180240380Y-89358666D02*
X181049904Y-89358666D01*
X181145142Y-89311047D01*
X181192761Y-89263428D01*
X181240380Y-89168190D01*
X181240380Y-88977714D01*
X181192761Y-88882476D01*
X181145142Y-88834857D01*
X181049904Y-88787238D01*
X180240380Y-88787238D01*
X181192761Y-88358666D02*
X181240380Y-88215809D01*
X181240380Y-87977714D01*
X181192761Y-87882476D01*
X181145142Y-87834857D01*
X181049904Y-87787238D01*
X180954666Y-87787238D01*
X180859428Y-87834857D01*
X180811809Y-87882476D01*
X180764190Y-87977714D01*
X180716571Y-88168190D01*
X180668952Y-88263428D01*
X180621333Y-88311047D01*
X180526095Y-88358666D01*
X180430857Y-88358666D01*
X180335619Y-88311047D01*
X180288000Y-88263428D01*
X180240380Y-88168190D01*
X180240380Y-87930095D01*
X180288000Y-87787238D01*
%TO.C,1-WIRE BUS*%
X188292380Y-90501523D02*
X188292380Y-91072952D01*
X188292380Y-90787237D02*
X187292380Y-90787237D01*
X187435238Y-90882475D01*
X187530476Y-90977713D01*
X187578095Y-91072952D01*
X187911428Y-90072952D02*
X187911428Y-89311047D01*
X187292380Y-88930094D02*
X188292380Y-88691999D01*
X187578095Y-88501523D01*
X188292380Y-88311047D01*
X187292380Y-88072952D01*
X188292380Y-87691999D02*
X187292380Y-87691999D01*
X188292380Y-86644380D02*
X187816190Y-86977713D01*
X188292380Y-87215809D02*
X187292380Y-87215809D01*
X187292380Y-86834856D01*
X187340000Y-86739618D01*
X187387619Y-86691999D01*
X187482857Y-86644380D01*
X187625714Y-86644380D01*
X187720952Y-86691999D01*
X187768571Y-86739618D01*
X187816190Y-86834856D01*
X187816190Y-87215809D01*
X187768571Y-86215809D02*
X187768571Y-85882475D01*
X188292380Y-85739618D02*
X188292380Y-86215809D01*
X187292380Y-86215809D01*
X187292380Y-85739618D01*
X187768571Y-84215809D02*
X187816190Y-84072952D01*
X187863809Y-84025333D01*
X187959047Y-83977713D01*
X188101904Y-83977713D01*
X188197142Y-84025333D01*
X188244761Y-84072952D01*
X188292380Y-84168190D01*
X188292380Y-84549142D01*
X187292380Y-84549142D01*
X187292380Y-84215809D01*
X187340000Y-84120571D01*
X187387619Y-84072952D01*
X187482857Y-84025333D01*
X187578095Y-84025333D01*
X187673333Y-84072952D01*
X187720952Y-84120571D01*
X187768571Y-84215809D01*
X187768571Y-84549142D01*
X187292380Y-83549142D02*
X188101904Y-83549142D01*
X188197142Y-83501523D01*
X188244761Y-83453904D01*
X188292380Y-83358666D01*
X188292380Y-83168190D01*
X188244761Y-83072952D01*
X188197142Y-83025333D01*
X188101904Y-82977713D01*
X187292380Y-82977713D01*
X188244761Y-82549142D02*
X188292380Y-82406285D01*
X188292380Y-82168190D01*
X188244761Y-82072952D01*
X188197142Y-82025333D01*
X188101904Y-81977713D01*
X188006666Y-81977713D01*
X187911428Y-82025333D01*
X187863809Y-82072952D01*
X187816190Y-82168190D01*
X187768571Y-82358666D01*
X187720952Y-82453904D01*
X187673333Y-82501523D01*
X187578095Y-82549142D01*
X187482857Y-82549142D01*
X187387619Y-82501523D01*
X187340000Y-82453904D01*
X187292380Y-82358666D01*
X187292380Y-82120571D01*
X187340000Y-81977713D01*
%TO.C,PWR*%
X188292380Y-97191999D02*
X187292380Y-97191999D01*
X187292380Y-96811046D01*
X187340000Y-96715808D01*
X187387619Y-96668189D01*
X187482857Y-96620570D01*
X187625714Y-96620570D01*
X187720952Y-96668189D01*
X187768571Y-96715808D01*
X187816190Y-96811046D01*
X187816190Y-97191999D01*
X187292380Y-96287237D02*
X188292380Y-96049142D01*
X187578095Y-95858666D01*
X188292380Y-95668189D01*
X187292380Y-95430094D01*
X188292380Y-94477713D02*
X187816190Y-94811046D01*
X188292380Y-95049142D02*
X187292380Y-95049142D01*
X187292380Y-94668189D01*
X187340000Y-94572951D01*
X187387619Y-94525332D01*
X187482857Y-94477713D01*
X187625714Y-94477713D01*
X187720952Y-94525332D01*
X187768571Y-94572951D01*
X187816190Y-94668189D01*
X187816190Y-95049142D01*
%TO.C,C3*%
X175023333Y-105849142D02*
X174975714Y-105896761D01*
X174832857Y-105944380D01*
X174737619Y-105944380D01*
X174594761Y-105896761D01*
X174499523Y-105801523D01*
X174451904Y-105706285D01*
X174404285Y-105515809D01*
X174404285Y-105372952D01*
X174451904Y-105182476D01*
X174499523Y-105087238D01*
X174594761Y-104992000D01*
X174737619Y-104944380D01*
X174832857Y-104944380D01*
X174975714Y-104992000D01*
X175023333Y-105039619D01*
X175356666Y-104944380D02*
X175975714Y-104944380D01*
X175642380Y-105325333D01*
X175785238Y-105325333D01*
X175880476Y-105372952D01*
X175928095Y-105420571D01*
X175975714Y-105515809D01*
X175975714Y-105753904D01*
X175928095Y-105849142D01*
X175880476Y-105896761D01*
X175785238Y-105944380D01*
X175499523Y-105944380D01*
X175404285Y-105896761D01*
X175356666Y-105849142D01*
%TD*%
M02*
