%TF.GenerationSoftware,KiCad,Pcbnew,(5.1.9)-1*%
%TF.CreationDate,2021-05-22T23:59:23+02:00*%
%TF.ProjectId,LoRaProMini,4c6f5261-5072-46f4-9d69-6e692e6b6963,rev?*%
%TF.SameCoordinates,Original*%
%TF.FileFunction,Copper,L1,Top*%
%TF.FilePolarity,Positive*%
%FSLAX46Y46*%
G04 Gerber Fmt 4.6, Leading zero omitted, Abs format (unit mm)*
G04 Created by KiCad (PCBNEW (5.1.9)-1) date 2021-05-22 23:59:23*
%MOMM*%
%LPD*%
G01*
G04 APERTURE LIST*
%TA.AperFunction,ComponentPad*%
%ADD10C,0.700000*%
%TD*%
%TA.AperFunction,ComponentPad*%
%ADD11C,4.400000*%
%TD*%
%TA.AperFunction,ComponentPad*%
%ADD12C,1.700000*%
%TD*%
%TA.AperFunction,ComponentPad*%
%ADD13R,1.700000X1.700000*%
%TD*%
%TA.AperFunction,SMDPad,CuDef*%
%ADD14R,1.000000X2.000000*%
%TD*%
%TA.AperFunction,ComponentPad*%
%ADD15R,1.500000X1.050000*%
%TD*%
%TA.AperFunction,ComponentPad*%
%ADD16O,1.500000X1.050000*%
%TD*%
%TA.AperFunction,SMDPad,CuDef*%
%ADD17R,1.900000X0.800000*%
%TD*%
%TA.AperFunction,ComponentPad*%
%ADD18C,1.600000*%
%TD*%
%TA.AperFunction,SMDPad,CuDef*%
%ADD19R,6.000000X2.500000*%
%TD*%
%TA.AperFunction,SMDPad,CuDef*%
%ADD20R,4.700000X1.000000*%
%TD*%
%TA.AperFunction,SMDPad,CuDef*%
%ADD21R,2.200000X1.050000*%
%TD*%
%TA.AperFunction,ComponentPad*%
%ADD22O,1.750000X1.200000*%
%TD*%
%TA.AperFunction,ViaPad*%
%ADD23C,0.800000*%
%TD*%
%TA.AperFunction,Conductor*%
%ADD24C,1.000000*%
%TD*%
%TA.AperFunction,Conductor*%
%ADD25C,0.250000*%
%TD*%
%TA.AperFunction,Conductor*%
%ADD26C,0.500000*%
%TD*%
%TA.AperFunction,Conductor*%
%ADD27C,0.300000*%
%TD*%
%TA.AperFunction,Conductor*%
%ADD28C,0.025400*%
%TD*%
%TA.AperFunction,Conductor*%
%ADD29C,0.100000*%
%TD*%
%TA.AperFunction,Conductor*%
%ADD30C,0.254000*%
%TD*%
G04 APERTURE END LIST*
%TO.P,C1,2*%
%TO.N,+3V3*%
%TA.AperFunction,SMDPad,CuDef*%
G36*
G01*
X129915000Y-102294500D02*
X130865000Y-102294500D01*
G75*
G02*
X131115000Y-102544500I0J-250000D01*
G01*
X131115000Y-103219500D01*
G75*
G02*
X130865000Y-103469500I-250000J0D01*
G01*
X129915000Y-103469500D01*
G75*
G02*
X129665000Y-103219500I0J250000D01*
G01*
X129665000Y-102544500D01*
G75*
G02*
X129915000Y-102294500I250000J0D01*
G01*
G37*
%TD.AperFunction*%
%TO.P,C1,1*%
%TO.N,GND*%
%TA.AperFunction,SMDPad,CuDef*%
G36*
G01*
X129915000Y-100219500D02*
X130865000Y-100219500D01*
G75*
G02*
X131115000Y-100469500I0J-250000D01*
G01*
X131115000Y-101144500D01*
G75*
G02*
X130865000Y-101394500I-250000J0D01*
G01*
X129915000Y-101394500D01*
G75*
G02*
X129665000Y-101144500I0J250000D01*
G01*
X129665000Y-100469500D01*
G75*
G02*
X129915000Y-100219500I250000J0D01*
G01*
G37*
%TD.AperFunction*%
%TD*%
D10*
%TO.P,REF\u002A\u002A,1*%
%TO.N,N/C*%
X186606726Y-102025274D03*
X185440000Y-101542000D03*
X184273274Y-102025274D03*
X183790000Y-103192000D03*
X184273274Y-104358726D03*
X185440000Y-104842000D03*
X186606726Y-104358726D03*
X187090000Y-103192000D03*
D11*
X185440000Y-103192000D03*
%TD*%
D10*
%TO.P,REF\u002A\u002A,1*%
%TO.N,N/C*%
X103606726Y-102023274D03*
X102440000Y-101540000D03*
X101273274Y-102023274D03*
X100790000Y-103190000D03*
X101273274Y-104356726D03*
X102440000Y-104840000D03*
X103606726Y-104356726D03*
X104090000Y-103190000D03*
D11*
X102440000Y-103190000D03*
%TD*%
D10*
%TO.P,REF\u002A\u002A,1*%
%TO.N,N/C*%
X103606726Y-77023274D03*
X102440000Y-76540000D03*
X101273274Y-77023274D03*
X100790000Y-78190000D03*
X101273274Y-79356726D03*
X102440000Y-79840000D03*
X103606726Y-79356726D03*
X104090000Y-78190000D03*
D11*
X102440000Y-78190000D03*
%TD*%
D10*
%TO.P,REF\u002A\u002A,1*%
%TO.N,N/C*%
X186606726Y-77025274D03*
X185440000Y-76542000D03*
X184273274Y-77025274D03*
X183790000Y-78192000D03*
X184273274Y-79358726D03*
X185440000Y-79842000D03*
X186606726Y-79358726D03*
X187090000Y-78192000D03*
D11*
X185440000Y-78192000D03*
%TD*%
%TO.P,C2,2*%
%TO.N,GND*%
%TA.AperFunction,SMDPad,CuDef*%
G36*
G01*
X180890000Y-104067000D02*
X180890000Y-103117000D01*
G75*
G02*
X181140000Y-102867000I250000J0D01*
G01*
X181815000Y-102867000D01*
G75*
G02*
X182065000Y-103117000I0J-250000D01*
G01*
X182065000Y-104067000D01*
G75*
G02*
X181815000Y-104317000I-250000J0D01*
G01*
X181140000Y-104317000D01*
G75*
G02*
X180890000Y-104067000I0J250000D01*
G01*
G37*
%TD.AperFunction*%
%TO.P,C2,1*%
%TO.N,+BATT*%
%TA.AperFunction,SMDPad,CuDef*%
G36*
G01*
X178815000Y-104067000D02*
X178815000Y-103117000D01*
G75*
G02*
X179065000Y-102867000I250000J0D01*
G01*
X179740000Y-102867000D01*
G75*
G02*
X179990000Y-103117000I0J-250000D01*
G01*
X179990000Y-104067000D01*
G75*
G02*
X179740000Y-104317000I-250000J0D01*
G01*
X179065000Y-104317000D01*
G75*
G02*
X178815000Y-104067000I0J250000D01*
G01*
G37*
%TD.AperFunction*%
%TD*%
D12*
%TO.P,Arduino Pro Mini,24*%
%TO.N,SPI_CS_LORA*%
X134200000Y-98310000D03*
%TO.P,Arduino Pro Mini,29*%
%TO.N,Net-(X1-Pad29)*%
X134200000Y-95770000D03*
%TO.P,Arduino Pro Mini,28*%
%TO.N,Net-(X1-Pad28)*%
X134200000Y-93230000D03*
D13*
%TO.P,Arduino Pro Mini,27*%
%TO.N,GND*%
X134200000Y-90690000D03*
D12*
%TO.P,Arduino Pro Mini,23*%
%TO.N,SPI_MOSI*%
X136740000Y-98310000D03*
%TO.P,Arduino Pro Mini,21*%
%TO.N,SPI_SCK*%
X141820000Y-98310000D03*
%TO.P,Arduino Pro Mini,22*%
%TO.N,SPI_MISO*%
X139280000Y-98310000D03*
%TO.P,Arduino Pro Mini,18*%
%TO.N,Net-(X1-Pad18)*%
X149440000Y-98310000D03*
%TO.P,Arduino Pro Mini,17*%
%TO.N,Net-(X1-Pad17)*%
X151980000Y-98310000D03*
%TO.P,Arduino Pro Mini,19*%
%TO.N,Net-(X1-Pad19)*%
X146900000Y-98310000D03*
%TO.P,Arduino Pro Mini,20*%
%TO.N,MCU_A0*%
X144360000Y-98310000D03*
%TO.P,Arduino Pro Mini,16*%
%TO.N,+3V3*%
X154520000Y-98310000D03*
%TO.P,Arduino Pro Mini,15*%
%TO.N,Net-(X1-Pad15)*%
X157060000Y-98310000D03*
D13*
%TO.P,Arduino Pro Mini,13*%
%TO.N,Net-(X1-Pad13)*%
X162140000Y-98310000D03*
D12*
%TO.P,Arduino Pro Mini,14*%
%TO.N,GND*%
X159600000Y-98310000D03*
%TO.P,Arduino Pro Mini,2*%
%TO.N,Net-(X1-Pad2)*%
X159600000Y-83070000D03*
D13*
%TO.P,Arduino Pro Mini,1*%
%TO.N,Net-(X1-Pad1)*%
X162140000Y-83070000D03*
D12*
%TO.P,Arduino Pro Mini,3*%
%TO.N,Net-(X1-Pad3)*%
X157060000Y-83070000D03*
%TO.P,Arduino Pro Mini,4*%
%TO.N,GND*%
X154520000Y-83070000D03*
%TO.P,Arduino Pro Mini,8*%
%TO.N,Net-(X1-Pad8)*%
X144360000Y-83070000D03*
%TO.P,Arduino Pro Mini,7*%
%TO.N,Net-(X1-Pad7)*%
X146900000Y-83070000D03*
%TO.P,Arduino Pro Mini,5*%
%TO.N,LORA_DIO2*%
X151980000Y-83070000D03*
%TO.P,Arduino Pro Mini,6*%
%TO.N,Net-(X1-Pad6)*%
X149440000Y-83070000D03*
%TO.P,Arduino Pro Mini,10*%
%TO.N,LORA_DIO1*%
X139280000Y-83070000D03*
%TO.P,Arduino Pro Mini,9*%
%TO.N,1-WIRE*%
X141820000Y-83070000D03*
%TO.P,Arduino Pro Mini,11*%
%TO.N,LORA_DIO0*%
X136740000Y-83070000D03*
%TO.P,Arduino Pro Mini,12*%
%TO.N,LORA_RST*%
X134200000Y-83070000D03*
%TO.P,Arduino Pro Mini,25*%
%TO.N,MCU_SCL*%
X153250000Y-95770000D03*
%TO.P,Arduino Pro Mini,26*%
%TO.N,MCU_SDA*%
X150710000Y-95770000D03*
%TD*%
D14*
%TO.P,RFM95W,16*%
%TO.N,LORA_DIO2*%
X127399000Y-98690000D03*
%TO.P,RFM95W,15*%
%TO.N,LORA_DIO1*%
X125399000Y-98690000D03*
%TO.P,RFM95W,14*%
%TO.N,LORA_DIO0*%
X123399000Y-98690000D03*
%TO.P,RFM95W,13*%
%TO.N,+3V3*%
X121399000Y-98690000D03*
%TO.P,RFM95W,12*%
%TO.N,Net-(U2-Pad12)*%
X119399000Y-98690000D03*
%TO.P,RFM95W,11*%
%TO.N,Net-(U2-Pad11)*%
X117399000Y-98690000D03*
%TO.P,RFM95W,10*%
%TO.N,GND*%
X115399000Y-98690000D03*
%TO.P,RFM95W,9*%
%TO.N,Net-(AE1-Pad1)*%
X113399000Y-98690000D03*
%TO.P,RFM95W,8*%
%TO.N,GND*%
X113399000Y-82690000D03*
%TO.P,RFM95W,7*%
%TO.N,Net-(U2-Pad7)*%
X115399000Y-82690000D03*
%TO.P,RFM95W,6*%
%TO.N,LORA_RST*%
X117399000Y-82690000D03*
%TO.P,RFM95W,5*%
%TO.N,SPI_CS_LORA*%
X119399000Y-82690000D03*
%TO.P,RFM95W,4*%
%TO.N,SPI_SCK*%
X121399000Y-82690000D03*
%TO.P,RFM95W,3*%
%TO.N,SPI_MOSI*%
X123399000Y-82690000D03*
%TO.P,RFM95W,2*%
%TO.N,SPI_MISO*%
X125399000Y-82690000D03*
%TO.P,RFM95W,1*%
%TO.N,GND*%
X127399000Y-82690000D03*
%TD*%
%TO.P,C5,2*%
%TO.N,GND*%
%TA.AperFunction,SMDPad,CuDef*%
G36*
G01*
X171465001Y-88617000D02*
X169414999Y-88617000D01*
G75*
G02*
X169165000Y-88367001I0J249999D01*
G01*
X169165000Y-86616999D01*
G75*
G02*
X169414999Y-86367000I249999J0D01*
G01*
X171465001Y-86367000D01*
G75*
G02*
X171715000Y-86616999I0J-249999D01*
G01*
X171715000Y-88367001D01*
G75*
G02*
X171465001Y-88617000I-249999J0D01*
G01*
G37*
%TD.AperFunction*%
%TO.P,C5,1*%
%TO.N,+3V3*%
%TA.AperFunction,SMDPad,CuDef*%
G36*
G01*
X171465001Y-95017000D02*
X169414999Y-95017000D01*
G75*
G02*
X169165000Y-94767001I0J249999D01*
G01*
X169165000Y-93016999D01*
G75*
G02*
X169414999Y-92767000I249999J0D01*
G01*
X171465001Y-92767000D01*
G75*
G02*
X171715000Y-93016999I0J-249999D01*
G01*
X171715000Y-94767001D01*
G75*
G02*
X171465001Y-95017000I-249999J0D01*
G01*
G37*
%TD.AperFunction*%
%TD*%
D15*
%TO.P,DS18B20,1*%
%TO.N,+3V3*%
X170940000Y-81192000D03*
D16*
%TO.P,DS18B20,3*%
%TO.N,GND*%
X170940000Y-78652000D03*
%TO.P,DS18B20,2*%
%TO.N,1-WIRE*%
X170940000Y-79922000D03*
%TD*%
%TO.P,R5,2*%
%TO.N,1-WIRE*%
%TA.AperFunction,SMDPad,CuDef*%
G36*
G01*
X176964000Y-76777999D02*
X176964000Y-77678001D01*
G75*
G02*
X176714001Y-77928000I-249999J0D01*
G01*
X176013999Y-77928000D01*
G75*
G02*
X175764000Y-77678001I0J249999D01*
G01*
X175764000Y-76777999D01*
G75*
G02*
X176013999Y-76528000I249999J0D01*
G01*
X176714001Y-76528000D01*
G75*
G02*
X176964000Y-76777999I0J-249999D01*
G01*
G37*
%TD.AperFunction*%
%TO.P,R5,1*%
%TO.N,+3V3*%
%TA.AperFunction,SMDPad,CuDef*%
G36*
G01*
X178964000Y-76777999D02*
X178964000Y-77678001D01*
G75*
G02*
X178714001Y-77928000I-249999J0D01*
G01*
X178013999Y-77928000D01*
G75*
G02*
X177764000Y-77678001I0J249999D01*
G01*
X177764000Y-76777999D01*
G75*
G02*
X178013999Y-76528000I249999J0D01*
G01*
X178714001Y-76528000D01*
G75*
G02*
X178964000Y-76777999I0J-249999D01*
G01*
G37*
%TD.AperFunction*%
%TD*%
%TO.P,R4,2*%
%TO.N,MCU_SDA*%
%TA.AperFunction,SMDPad,CuDef*%
G36*
G01*
X176964000Y-79762499D02*
X176964000Y-80662501D01*
G75*
G02*
X176714001Y-80912500I-249999J0D01*
G01*
X176013999Y-80912500D01*
G75*
G02*
X175764000Y-80662501I0J249999D01*
G01*
X175764000Y-79762499D01*
G75*
G02*
X176013999Y-79512500I249999J0D01*
G01*
X176714001Y-79512500D01*
G75*
G02*
X176964000Y-79762499I0J-249999D01*
G01*
G37*
%TD.AperFunction*%
%TO.P,R4,1*%
%TO.N,+3V3*%
%TA.AperFunction,SMDPad,CuDef*%
G36*
G01*
X178964000Y-79762499D02*
X178964000Y-80662501D01*
G75*
G02*
X178714001Y-80912500I-249999J0D01*
G01*
X178013999Y-80912500D01*
G75*
G02*
X177764000Y-80662501I0J249999D01*
G01*
X177764000Y-79762499D01*
G75*
G02*
X178013999Y-79512500I249999J0D01*
G01*
X178714001Y-79512500D01*
G75*
G02*
X178964000Y-79762499I0J-249999D01*
G01*
G37*
%TD.AperFunction*%
%TD*%
%TO.P,R3,2*%
%TO.N,+3V3*%
%TA.AperFunction,SMDPad,CuDef*%
G36*
G01*
X177764000Y-83647001D02*
X177764000Y-82746999D01*
G75*
G02*
X178013999Y-82497000I249999J0D01*
G01*
X178714001Y-82497000D01*
G75*
G02*
X178964000Y-82746999I0J-249999D01*
G01*
X178964000Y-83647001D01*
G75*
G02*
X178714001Y-83897000I-249999J0D01*
G01*
X178013999Y-83897000D01*
G75*
G02*
X177764000Y-83647001I0J249999D01*
G01*
G37*
%TD.AperFunction*%
%TO.P,R3,1*%
%TO.N,MCU_SCL*%
%TA.AperFunction,SMDPad,CuDef*%
G36*
G01*
X175764000Y-83647001D02*
X175764000Y-82746999D01*
G75*
G02*
X176013999Y-82497000I249999J0D01*
G01*
X176714001Y-82497000D01*
G75*
G02*
X176964000Y-82746999I0J-249999D01*
G01*
X176964000Y-83647001D01*
G75*
G02*
X176714001Y-83897000I-249999J0D01*
G01*
X176013999Y-83897000D01*
G75*
G02*
X175764000Y-83647001I0J249999D01*
G01*
G37*
%TD.AperFunction*%
%TD*%
%TO.P,R2,2*%
%TO.N,MCU_A0*%
%TA.AperFunction,SMDPad,CuDef*%
G36*
G01*
X169842000Y-97099999D02*
X169842000Y-98000001D01*
G75*
G02*
X169592001Y-98250000I-249999J0D01*
G01*
X168891999Y-98250000D01*
G75*
G02*
X168642000Y-98000001I0J249999D01*
G01*
X168642000Y-97099999D01*
G75*
G02*
X168891999Y-96850000I249999J0D01*
G01*
X169592001Y-96850000D01*
G75*
G02*
X169842000Y-97099999I0J-249999D01*
G01*
G37*
%TD.AperFunction*%
%TO.P,R2,1*%
%TO.N,GND*%
%TA.AperFunction,SMDPad,CuDef*%
G36*
G01*
X171842000Y-97099999D02*
X171842000Y-98000001D01*
G75*
G02*
X171592001Y-98250000I-249999J0D01*
G01*
X170891999Y-98250000D01*
G75*
G02*
X170642000Y-98000001I0J249999D01*
G01*
X170642000Y-97099999D01*
G75*
G02*
X170891999Y-96850000I249999J0D01*
G01*
X171592001Y-96850000D01*
G75*
G02*
X171842000Y-97099999I0J-249999D01*
G01*
G37*
%TD.AperFunction*%
%TD*%
%TO.P,R1,2*%
%TO.N,+BATT*%
%TA.AperFunction,SMDPad,CuDef*%
G36*
G01*
X170642000Y-101048001D02*
X170642000Y-100147999D01*
G75*
G02*
X170891999Y-99898000I249999J0D01*
G01*
X171592001Y-99898000D01*
G75*
G02*
X171842000Y-100147999I0J-249999D01*
G01*
X171842000Y-101048001D01*
G75*
G02*
X171592001Y-101298000I-249999J0D01*
G01*
X170891999Y-101298000D01*
G75*
G02*
X170642000Y-101048001I0J249999D01*
G01*
G37*
%TD.AperFunction*%
%TO.P,R1,1*%
%TO.N,MCU_A0*%
%TA.AperFunction,SMDPad,CuDef*%
G36*
G01*
X168642000Y-101048001D02*
X168642000Y-100147999D01*
G75*
G02*
X168891999Y-99898000I249999J0D01*
G01*
X169592001Y-99898000D01*
G75*
G02*
X169842000Y-100147999I0J-249999D01*
G01*
X169842000Y-101048001D01*
G75*
G02*
X169592001Y-101298000I-249999J0D01*
G01*
X168891999Y-101298000D01*
G75*
G02*
X168642000Y-101048001I0J249999D01*
G01*
G37*
%TD.AperFunction*%
%TD*%
%TO.P,C4,2*%
%TO.N,MCU_A0*%
%TA.AperFunction,SMDPad,CuDef*%
G36*
G01*
X169792000Y-103117000D02*
X169792000Y-104067000D01*
G75*
G02*
X169542000Y-104317000I-250000J0D01*
G01*
X168867000Y-104317000D01*
G75*
G02*
X168617000Y-104067000I0J250000D01*
G01*
X168617000Y-103117000D01*
G75*
G02*
X168867000Y-102867000I250000J0D01*
G01*
X169542000Y-102867000D01*
G75*
G02*
X169792000Y-103117000I0J-250000D01*
G01*
G37*
%TD.AperFunction*%
%TO.P,C4,1*%
%TO.N,GND*%
%TA.AperFunction,SMDPad,CuDef*%
G36*
G01*
X171867000Y-103117000D02*
X171867000Y-104067000D01*
G75*
G02*
X171617000Y-104317000I-250000J0D01*
G01*
X170942000Y-104317000D01*
G75*
G02*
X170692000Y-104067000I0J250000D01*
G01*
X170692000Y-103117000D01*
G75*
G02*
X170942000Y-102867000I250000J0D01*
G01*
X171617000Y-102867000D01*
G75*
G02*
X171867000Y-103117000I0J-250000D01*
G01*
G37*
%TD.AperFunction*%
%TD*%
D17*
%TO.P,U1,3*%
%TO.N,+BATT*%
X179440000Y-99092000D03*
%TO.P,U1,2*%
%TO.N,+3V3*%
X176440000Y-100042000D03*
%TO.P,U1,1*%
%TO.N,GND*%
X176440000Y-98142000D03*
%TD*%
D18*
%TO.P,ANT,1*%
%TO.N,Net-(AE1-Pad1)*%
X106449000Y-90690000D03*
D19*
%TO.P,ANT,2*%
%TO.N,GND*%
X103440000Y-93692000D03*
X103440000Y-87692000D03*
D20*
%TO.P,ANT,1*%
%TO.N,Net-(AE1-Pad1)*%
X104649000Y-90690000D03*
D21*
%TO.P,ANT,2*%
%TO.N,GND*%
X103440000Y-89092000D03*
X103440000Y-92292000D03*
%TD*%
D22*
%TO.P,I2C BUS,4*%
%TO.N,MCU_SDA*%
X177888000Y-93692000D03*
%TO.P,I2C BUS,3*%
%TO.N,MCU_SCL*%
X177888000Y-91692000D03*
%TO.P,I2C BUS,2*%
%TO.N,GND*%
X177888000Y-89692000D03*
%TO.P,I2C BUS,1*%
%TO.N,+3V3*%
%TA.AperFunction,ComponentPad*%
G36*
G01*
X177262999Y-87092000D02*
X178513001Y-87092000D01*
G75*
G02*
X178763000Y-87341999I0J-249999D01*
G01*
X178763000Y-88042001D01*
G75*
G02*
X178513001Y-88292000I-249999J0D01*
G01*
X177262999Y-88292000D01*
G75*
G02*
X177013000Y-88042001I0J249999D01*
G01*
X177013000Y-87341999D01*
G75*
G02*
X177262999Y-87092000I249999J0D01*
G01*
G37*
%TD.AperFunction*%
%TD*%
%TO.P,1-WIRE BUS,3*%
%TO.N,GND*%
X184940000Y-88525333D03*
%TO.P,1-WIRE BUS,2*%
%TO.N,1-WIRE*%
X184940000Y-86525333D03*
%TO.P,1-WIRE BUS,1*%
%TO.N,+3V3*%
%TA.AperFunction,ComponentPad*%
G36*
G01*
X184314999Y-83925333D02*
X185565001Y-83925333D01*
G75*
G02*
X185815000Y-84175332I0J-249999D01*
G01*
X185815000Y-84875334D01*
G75*
G02*
X185565001Y-85125333I-249999J0D01*
G01*
X184314999Y-85125333D01*
G75*
G02*
X184065000Y-84875334I0J249999D01*
G01*
X184065000Y-84175332D01*
G75*
G02*
X184314999Y-83925333I249999J0D01*
G01*
G37*
%TD.AperFunction*%
%TD*%
%TO.P,PWR,2*%
%TO.N,GND*%
X184940000Y-96858666D03*
%TO.P,PWR,1*%
%TO.N,+BATT*%
%TA.AperFunction,ComponentPad*%
G36*
G01*
X184314999Y-94258666D02*
X185565001Y-94258666D01*
G75*
G02*
X185815000Y-94508665I0J-249999D01*
G01*
X185815000Y-95208667D01*
G75*
G02*
X185565001Y-95458666I-249999J0D01*
G01*
X184314999Y-95458666D01*
G75*
G02*
X184065000Y-95208667I0J249999D01*
G01*
X184065000Y-94508665D01*
G75*
G02*
X184314999Y-94258666I249999J0D01*
G01*
G37*
%TD.AperFunction*%
%TD*%
%TO.P,C3,2*%
%TO.N,GND*%
%TA.AperFunction,SMDPad,CuDef*%
G36*
G01*
X175871250Y-104067000D02*
X175871250Y-103117000D01*
G75*
G02*
X176121250Y-102867000I250000J0D01*
G01*
X176796250Y-102867000D01*
G75*
G02*
X177046250Y-103117000I0J-250000D01*
G01*
X177046250Y-104067000D01*
G75*
G02*
X176796250Y-104317000I-250000J0D01*
G01*
X176121250Y-104317000D01*
G75*
G02*
X175871250Y-104067000I0J250000D01*
G01*
G37*
%TD.AperFunction*%
%TO.P,C3,1*%
%TO.N,+3V3*%
%TA.AperFunction,SMDPad,CuDef*%
G36*
G01*
X173796250Y-104067000D02*
X173796250Y-103117000D01*
G75*
G02*
X174046250Y-102867000I250000J0D01*
G01*
X174721250Y-102867000D01*
G75*
G02*
X174971250Y-103117000I0J-250000D01*
G01*
X174971250Y-104067000D01*
G75*
G02*
X174721250Y-104317000I-250000J0D01*
G01*
X174046250Y-104317000D01*
G75*
G02*
X173796250Y-104067000I0J250000D01*
G01*
G37*
%TD.AperFunction*%
%TD*%
D23*
%TO.N,GND*%
X155790000Y-94765000D03*
X105523000Y-91853000D03*
X105396000Y-89567000D03*
X109223000Y-89525000D03*
X110239000Y-89715500D03*
X108270500Y-91938000D03*
X112080500Y-94986000D03*
X112127000Y-97060000D03*
X112127000Y-98203000D03*
X114366500Y-93716000D03*
X114684000Y-94668500D03*
X111191500Y-90033000D03*
X114714000Y-96764000D03*
X114710831Y-95684500D03*
X113985500Y-92763500D03*
X113477500Y-91938000D03*
X112715500Y-91176000D03*
X111953500Y-90541000D03*
X109286500Y-92065000D03*
X110239000Y-92542557D03*
X111064500Y-93208000D03*
X111699500Y-94033500D03*
X112114000Y-96002000D03*
X107190000Y-88440000D03*
X107190000Y-87440000D03*
X107190000Y-86440000D03*
X106190000Y-85690000D03*
X105190000Y-85690000D03*
X104190000Y-85690000D03*
X103190000Y-85690000D03*
X102190000Y-85690000D03*
X101190000Y-85690000D03*
X107190000Y-89440000D03*
X107190000Y-91940000D03*
X107190000Y-92940000D03*
X107190000Y-93940000D03*
X107190000Y-94940000D03*
X106063000Y-95690000D03*
X105063000Y-95690000D03*
X104063000Y-95690000D03*
X103063000Y-95690000D03*
X102063000Y-95690000D03*
X101063000Y-95690000D03*
X108190000Y-89440000D03*
X128899000Y-82690000D03*
X142940000Y-86525333D03*
%TO.N,+BATT*%
X173036000Y-101614000D03*
X179386000Y-101614000D03*
%TO.N,MCU_A0*%
X144360000Y-100596000D03*
X167093000Y-100596000D03*
%TO.N,1-WIRE*%
X176364000Y-78498000D03*
%TO.N,MCU_SDA*%
X174332000Y-93738000D03*
X174332000Y-85102000D03*
%TO.N,MCU_SCL*%
X175856000Y-91706000D03*
X175856000Y-85102000D03*
%TO.N,SPI_CS_LORA*%
X119399000Y-84690000D03*
%TO.N,SPI_SCK*%
X128240000Y-85690000D03*
%TO.N,SPI_MOSI*%
X123399000Y-84690000D03*
%TO.N,SPI_MISO*%
X125399000Y-84690000D03*
%TD*%
D24*
%TO.N,Net-(AE1-Pad1)*%
X108414000Y-90688000D02*
X106449000Y-90688000D01*
X113414000Y-97506000D02*
X113414000Y-98653000D01*
D25*
X113414000Y-98653000D02*
X113399000Y-98668000D01*
D24*
X113414000Y-95688000D02*
X113414000Y-97506000D01*
X113389923Y-95197914D02*
X113414000Y-95688000D01*
X113317926Y-94712548D02*
X113389923Y-95197914D01*
X113198701Y-94236576D02*
X113317926Y-94712548D01*
X113033397Y-93774582D02*
X113198701Y-94236576D01*
X112823606Y-93331016D02*
X113033397Y-93774582D01*
X112571348Y-92910148D02*
X112823606Y-93331016D01*
X112279052Y-92516033D02*
X112571348Y-92910148D01*
X111949533Y-92152466D02*
X112279052Y-92516033D01*
X111585966Y-91822947D02*
X111949533Y-92152466D01*
X111191851Y-91530651D02*
X111585966Y-91822947D01*
X110770983Y-91278393D02*
X111191851Y-91530651D01*
X110327417Y-91068602D02*
X110770983Y-91278393D01*
X109865423Y-90903298D02*
X110327417Y-91068602D01*
X109389451Y-90784073D02*
X109865423Y-90903298D01*
X108904085Y-90712076D02*
X109389451Y-90784073D01*
X108414000Y-90688000D02*
X108904085Y-90712076D01*
X104649000Y-90688000D02*
X106449000Y-90688000D01*
D25*
%TO.N,GND*%
X103440000Y-89090000D02*
X103440000Y-87690000D01*
X103440000Y-92290000D02*
X103440000Y-93690000D01*
X171440000Y-97732000D02*
X171440000Y-97592000D01*
D26*
%TO.N,+3V3*%
X176440000Y-101535750D02*
X174383750Y-103592000D01*
X176440000Y-100042000D02*
X176440000Y-101535750D01*
X158938000Y-93892000D02*
X154520000Y-98310000D01*
X170440000Y-93892000D02*
X158938000Y-93892000D01*
X176440000Y-100042000D02*
X175890000Y-100042000D01*
X170440000Y-94592000D02*
X170440000Y-93892000D01*
X178340000Y-87292000D02*
X177940000Y-87692000D01*
X176440000Y-100042000D02*
X175464000Y-100042000D01*
X175464000Y-100042000D02*
X173662000Y-98240000D01*
X173662000Y-97114000D02*
X170440000Y-93892000D01*
X173662000Y-98240000D02*
X173662000Y-97114000D01*
X178364000Y-77228000D02*
X178364000Y-80212500D01*
X178364000Y-83197000D02*
X178364000Y-80212500D01*
X177888000Y-87692000D02*
X177888000Y-85864000D01*
X178364000Y-85388000D02*
X178364000Y-83197000D01*
X177888000Y-85864000D02*
X178364000Y-85388000D01*
X184940000Y-84525333D02*
X181766667Y-84525333D01*
X180904000Y-85388000D02*
X178364000Y-85388000D01*
X181766667Y-84525333D02*
X180904000Y-85388000D01*
X170940000Y-81192000D02*
X170940000Y-83996000D01*
X170440000Y-93892000D02*
X170440000Y-93820000D01*
X170440000Y-93820000D02*
X174332000Y-89928000D01*
X174332000Y-87388000D02*
X170940000Y-83996000D01*
X177888000Y-87692000D02*
X174536000Y-87692000D01*
X174332000Y-87896000D02*
X174332000Y-87388000D01*
X174536000Y-87692000D02*
X174332000Y-87896000D01*
X174332000Y-89928000D02*
X174332000Y-87896000D01*
X149948000Y-102882000D02*
X130390000Y-102882000D01*
X154520000Y-98310000D02*
X149948000Y-102882000D01*
X121399000Y-100190000D02*
X121399000Y-98690000D01*
X124091000Y-102882000D02*
X121399000Y-100190000D01*
X130390000Y-102882000D02*
X124091000Y-102882000D01*
%TO.N,+BATT*%
X179440000Y-103554500D02*
X179402500Y-103592000D01*
X179402500Y-99129500D02*
X179440000Y-99092000D01*
X179402500Y-103592000D02*
X179402500Y-99129500D01*
D27*
X172020000Y-100598000D02*
X173036000Y-101614000D01*
X171242000Y-100598000D02*
X172020000Y-100598000D01*
D26*
X179440000Y-99092000D02*
X179440000Y-98262000D01*
X182843334Y-94858666D02*
X184940000Y-94858666D01*
X179440000Y-98262000D02*
X182843334Y-94858666D01*
D27*
%TO.N,MCU_A0*%
X169204500Y-100635500D02*
X169242000Y-100598000D01*
X169204500Y-103592000D02*
X169204500Y-100635500D01*
X169242000Y-97550000D02*
X169242000Y-100598000D01*
X167095000Y-100598000D02*
X167093000Y-100596000D01*
X169242000Y-100598000D02*
X167095000Y-100598000D01*
X144360000Y-100596000D02*
X144360000Y-98310000D01*
%TO.N,1-WIRE*%
X147662000Y-77228000D02*
X141820000Y-83070000D01*
X176364000Y-77228000D02*
X147662000Y-77228000D01*
X176364000Y-77228000D02*
X176364000Y-78498000D01*
%TO.N,MCU_SDA*%
X174332000Y-82244500D02*
X176364000Y-80212500D01*
X174332000Y-85102000D02*
X174332000Y-82244500D01*
X177842000Y-93738000D02*
X177888000Y-93692000D01*
X174332000Y-93738000D02*
X177842000Y-93738000D01*
%TO.N,MCU_SCL*%
X175856000Y-83705000D02*
X176364000Y-83197000D01*
X175856000Y-85102000D02*
X175856000Y-83705000D01*
X177874000Y-91706000D02*
X177888000Y-91692000D01*
X175856000Y-91706000D02*
X177874000Y-91706000D01*
%TO.N,LORA_DIO2*%
X146360000Y-88690000D02*
X128399000Y-88690000D01*
X151980000Y-83070000D02*
X146360000Y-88690000D01*
X128399000Y-88690000D02*
X127399000Y-89690000D01*
X127399000Y-89690000D02*
X127399000Y-98690000D01*
%TO.N,LORA_DIO1*%
X134660000Y-87690000D02*
X139280000Y-83070000D01*
X127399000Y-87690000D02*
X134660000Y-87690000D01*
X127399000Y-87690000D02*
X125399000Y-89690000D01*
X125399000Y-89690000D02*
X125399000Y-98690000D01*
%TO.N,LORA_DIO0*%
X136740000Y-83070000D02*
X133120000Y-86690000D01*
X133120000Y-86690000D02*
X126399000Y-86690000D01*
X126399000Y-86690000D02*
X123399000Y-89690000D01*
X123399000Y-89690000D02*
X123399000Y-98690000D01*
%TO.N,LORA_RST*%
X117399000Y-81390000D02*
X118767000Y-80022000D01*
X117399000Y-82690000D02*
X117399000Y-81390000D01*
X131152000Y-80022000D02*
X134200000Y-83070000D01*
X118767000Y-80022000D02*
X131152000Y-80022000D01*
%TO.N,SPI_CS_LORA*%
X119399000Y-84690000D02*
X119399000Y-82690000D01*
%TO.N,SPI_SCK*%
X121399000Y-83990000D02*
X123099000Y-85690000D01*
X121399000Y-82690000D02*
X121399000Y-83990000D01*
X128240000Y-85690000D02*
X123099000Y-85690000D01*
%TO.N,SPI_MOSI*%
X123399000Y-84690000D02*
X123399000Y-82690000D01*
%TO.N,SPI_MISO*%
X125399000Y-84690000D02*
X125399000Y-82690000D01*
%TD*%
D28*
%TO.N,Net-(AE1-Pad1)*%
X106911194Y-90034641D02*
X106911699Y-90034862D01*
X107021203Y-90079991D01*
X107021879Y-90080247D01*
X107125996Y-90116371D01*
X107126806Y-90116622D01*
X107229476Y-90144729D01*
X107230333Y-90144932D01*
X107335494Y-90166007D01*
X107336295Y-90166141D01*
X107447884Y-90181172D01*
X107448544Y-90181244D01*
X107570502Y-90191218D01*
X107570987Y-90191248D01*
X107707251Y-90197150D01*
X107707569Y-90197160D01*
X107862077Y-90199978D01*
X107862257Y-90199980D01*
X108026300Y-90200648D01*
X108026300Y-91175351D01*
X107862257Y-91176019D01*
X107862077Y-91176021D01*
X107707569Y-91178839D01*
X107707251Y-91178849D01*
X107570987Y-91184751D01*
X107570502Y-91184781D01*
X107448544Y-91194755D01*
X107447884Y-91194827D01*
X107336295Y-91209858D01*
X107335494Y-91209992D01*
X107230333Y-91231067D01*
X107229476Y-91231270D01*
X107126806Y-91259377D01*
X107125996Y-91259628D01*
X107021879Y-91295752D01*
X107021203Y-91296008D01*
X106911699Y-91341137D01*
X106911194Y-91341358D01*
X106800250Y-91392822D01*
X106067322Y-90688000D01*
X106800250Y-89983178D01*
X106911194Y-90034641D01*
%TA.AperFunction,Conductor*%
D29*
G36*
X106911194Y-90034641D02*
G01*
X106911699Y-90034862D01*
X107021203Y-90079991D01*
X107021879Y-90080247D01*
X107125996Y-90116371D01*
X107126806Y-90116622D01*
X107229476Y-90144729D01*
X107230333Y-90144932D01*
X107335494Y-90166007D01*
X107336295Y-90166141D01*
X107447884Y-90181172D01*
X107448544Y-90181244D01*
X107570502Y-90191218D01*
X107570987Y-90191248D01*
X107707251Y-90197150D01*
X107707569Y-90197160D01*
X107862077Y-90199978D01*
X107862257Y-90199980D01*
X108026300Y-90200648D01*
X108026300Y-91175351D01*
X107862257Y-91176019D01*
X107862077Y-91176021D01*
X107707569Y-91178839D01*
X107707251Y-91178849D01*
X107570987Y-91184751D01*
X107570502Y-91184781D01*
X107448544Y-91194755D01*
X107447884Y-91194827D01*
X107336295Y-91209858D01*
X107335494Y-91209992D01*
X107230333Y-91231067D01*
X107229476Y-91231270D01*
X107126806Y-91259377D01*
X107125996Y-91259628D01*
X107021879Y-91295752D01*
X107021203Y-91296008D01*
X106911699Y-91341137D01*
X106911194Y-91341358D01*
X106800250Y-91392822D01*
X106067322Y-90688000D01*
X106800250Y-89983178D01*
X106911194Y-90034641D01*
G37*
%TD.AperFunction*%
%TD*%
D28*
%TO.N,Net-(AE1-Pad1)*%
X106830678Y-90688000D02*
X106097750Y-91392822D01*
X105986805Y-91341358D01*
X105986300Y-91341137D01*
X105876796Y-91296008D01*
X105876120Y-91295752D01*
X105772003Y-91259628D01*
X105771193Y-91259377D01*
X105668523Y-91231270D01*
X105667666Y-91231067D01*
X105562505Y-91209992D01*
X105561704Y-91209858D01*
X105450115Y-91194827D01*
X105449455Y-91194755D01*
X105327497Y-91184781D01*
X105327012Y-91184751D01*
X105190748Y-91178849D01*
X105190430Y-91178839D01*
X105035922Y-91176021D01*
X105035742Y-91176019D01*
X104871700Y-91175351D01*
X104871700Y-90200648D01*
X105035742Y-90199980D01*
X105035922Y-90199978D01*
X105190430Y-90197160D01*
X105190748Y-90197150D01*
X105327012Y-90191248D01*
X105327497Y-90191218D01*
X105449455Y-90181244D01*
X105450115Y-90181172D01*
X105561704Y-90166141D01*
X105562505Y-90166007D01*
X105667666Y-90144932D01*
X105668523Y-90144729D01*
X105771193Y-90116622D01*
X105772003Y-90116371D01*
X105876120Y-90080247D01*
X105876796Y-90079991D01*
X105986300Y-90034862D01*
X105986805Y-90034641D01*
X106097750Y-89983178D01*
X106830678Y-90688000D01*
%TA.AperFunction,Conductor*%
D29*
G36*
X106830678Y-90688000D02*
G01*
X106097750Y-91392822D01*
X105986805Y-91341358D01*
X105986300Y-91341137D01*
X105876796Y-91296008D01*
X105876120Y-91295752D01*
X105772003Y-91259628D01*
X105771193Y-91259377D01*
X105668523Y-91231270D01*
X105667666Y-91231067D01*
X105562505Y-91209992D01*
X105561704Y-91209858D01*
X105450115Y-91194827D01*
X105449455Y-91194755D01*
X105327497Y-91184781D01*
X105327012Y-91184751D01*
X105190748Y-91178849D01*
X105190430Y-91178839D01*
X105035922Y-91176021D01*
X105035742Y-91176019D01*
X104871700Y-91175351D01*
X104871700Y-90200648D01*
X105035742Y-90199980D01*
X105035922Y-90199978D01*
X105190430Y-90197160D01*
X105190748Y-90197150D01*
X105327012Y-90191248D01*
X105327497Y-90191218D01*
X105449455Y-90181244D01*
X105450115Y-90181172D01*
X105561704Y-90166141D01*
X105562505Y-90166007D01*
X105667666Y-90144932D01*
X105668523Y-90144729D01*
X105771193Y-90116622D01*
X105772003Y-90116371D01*
X105876120Y-90080247D01*
X105876796Y-90079991D01*
X105986300Y-90034862D01*
X105986805Y-90034641D01*
X106097750Y-89983178D01*
X106830678Y-90688000D01*
G37*
%TD.AperFunction*%
%TD*%
D30*
%TO.N,GND*%
X187907706Y-75351999D02*
X188005424Y-75361580D01*
X188068356Y-75380580D01*
X188126405Y-75411445D01*
X188177343Y-75452989D01*
X188219248Y-75503644D01*
X188250515Y-75561471D01*
X188269956Y-75624272D01*
X188280000Y-75719835D01*
X188280001Y-105659711D01*
X188270420Y-105757424D01*
X188251420Y-105820357D01*
X188220554Y-105878406D01*
X188179011Y-105929343D01*
X188128356Y-105971248D01*
X188070529Y-106002515D01*
X188007728Y-106021956D01*
X187912168Y-106032000D01*
X99972294Y-106030001D01*
X99874576Y-106020420D01*
X99811643Y-106001420D01*
X99753594Y-105970554D01*
X99702657Y-105929011D01*
X99660752Y-105878356D01*
X99629485Y-105820529D01*
X99610044Y-105757728D01*
X99600000Y-105662165D01*
X99600000Y-102910777D01*
X99605000Y-102910777D01*
X99605000Y-103469223D01*
X99713948Y-104016939D01*
X99927656Y-104532876D01*
X100237912Y-104997207D01*
X100632793Y-105392088D01*
X101097124Y-105702344D01*
X101613061Y-105916052D01*
X102160777Y-106025000D01*
X102719223Y-106025000D01*
X103266939Y-105916052D01*
X103782876Y-105702344D01*
X104247207Y-105392088D01*
X104642088Y-104997207D01*
X104952344Y-104532876D01*
X105166052Y-104016939D01*
X105275000Y-103469223D01*
X105275000Y-102910777D01*
X105166052Y-102363061D01*
X104952344Y-101847124D01*
X104642088Y-101382793D01*
X104247207Y-100987912D01*
X103782876Y-100677656D01*
X103266939Y-100463948D01*
X102719223Y-100355000D01*
X102160777Y-100355000D01*
X101613061Y-100463948D01*
X101097124Y-100677656D01*
X100632793Y-100987912D01*
X100237912Y-101382793D01*
X99927656Y-101847124D01*
X99713948Y-102363061D01*
X99605000Y-102910777D01*
X99600000Y-102910777D01*
X99600000Y-96350000D01*
X99972419Y-96350000D01*
X100000329Y-96347251D01*
X100003308Y-96347272D01*
X100012479Y-96346373D01*
X100060648Y-96341310D01*
X100069383Y-96340450D01*
X100069674Y-96340362D01*
X100109527Y-96336173D01*
X100168152Y-96324139D01*
X100226884Y-96312936D01*
X100235706Y-96310272D01*
X100328925Y-96281416D01*
X100384075Y-96258233D01*
X100439537Y-96235825D01*
X100447666Y-96231502D01*
X100447670Y-96231500D01*
X100447673Y-96231498D01*
X100533511Y-96185086D01*
X100583098Y-96151638D01*
X100633156Y-96118881D01*
X100640297Y-96113057D01*
X100715486Y-96050855D01*
X100757639Y-96008406D01*
X100800371Y-95966561D01*
X100806245Y-95959460D01*
X100867921Y-95883840D01*
X100901052Y-95833975D01*
X100934825Y-95784650D01*
X100939208Y-95776544D01*
X100985020Y-95690383D01*
X101007809Y-95635091D01*
X101031378Y-95580102D01*
X101031595Y-95579402D01*
X103154250Y-95577000D01*
X103313000Y-95418250D01*
X103313000Y-93819000D01*
X103567000Y-93819000D01*
X103567000Y-95418250D01*
X103725750Y-95577000D01*
X106440000Y-95580072D01*
X106564482Y-95567812D01*
X106684180Y-95531502D01*
X106794494Y-95472537D01*
X106891185Y-95393185D01*
X106970537Y-95296494D01*
X107029502Y-95186180D01*
X107065812Y-95066482D01*
X107078072Y-94942000D01*
X107075000Y-93977750D01*
X106916250Y-93819000D01*
X103567000Y-93819000D01*
X103313000Y-93819000D01*
X103293000Y-93819000D01*
X103293000Y-93565000D01*
X103313000Y-93565000D01*
X103313000Y-93545000D01*
X103567000Y-93545000D01*
X103567000Y-93565000D01*
X106916250Y-93565000D01*
X107075000Y-93406250D01*
X107078072Y-92442000D01*
X107065812Y-92317518D01*
X107029502Y-92197820D01*
X106970537Y-92087506D01*
X106933604Y-92042503D01*
X107128727Y-91961680D01*
X107164148Y-91938013D01*
X107171248Y-91934719D01*
X107251279Y-91901737D01*
X107318272Y-91878493D01*
X107379229Y-91861806D01*
X107442862Y-91849053D01*
X107517900Y-91838945D01*
X107611174Y-91831317D01*
X107727341Y-91826286D01*
X107869344Y-91823696D01*
X108040355Y-91823000D01*
X108386145Y-91823000D01*
X108792707Y-91842973D01*
X109167755Y-91898606D01*
X109535550Y-91990733D01*
X109892549Y-92118470D01*
X110235303Y-92280580D01*
X110560520Y-92475507D01*
X110865057Y-92701367D01*
X111145999Y-92956000D01*
X111400632Y-93236942D01*
X111626492Y-93541479D01*
X111821421Y-93866699D01*
X111983529Y-94209448D01*
X112111263Y-94566443D01*
X112203394Y-94934246D01*
X112259026Y-95309292D01*
X112279000Y-95715861D01*
X112279000Y-97546358D01*
X112273188Y-97565518D01*
X112260928Y-97690000D01*
X112260928Y-99690000D01*
X112273188Y-99814482D01*
X112309498Y-99934180D01*
X112368463Y-100044494D01*
X112447815Y-100141185D01*
X112544506Y-100220537D01*
X112654820Y-100279502D01*
X112774518Y-100315812D01*
X112899000Y-100328072D01*
X113899000Y-100328072D01*
X114023482Y-100315812D01*
X114143180Y-100279502D01*
X114253494Y-100220537D01*
X114350185Y-100141185D01*
X114399000Y-100081704D01*
X114447815Y-100141185D01*
X114544506Y-100220537D01*
X114654820Y-100279502D01*
X114774518Y-100315812D01*
X114899000Y-100328072D01*
X115113250Y-100325000D01*
X115272000Y-100166250D01*
X115272000Y-98817000D01*
X115252000Y-98817000D01*
X115252000Y-98563000D01*
X115272000Y-98563000D01*
X115272000Y-97213750D01*
X115113250Y-97055000D01*
X114899000Y-97051928D01*
X114774518Y-97064188D01*
X114654820Y-97100498D01*
X114549000Y-97157061D01*
X114549000Y-95715839D01*
X114550368Y-95687991D01*
X114549000Y-95660145D01*
X114549000Y-95632248D01*
X114546266Y-95604484D01*
X114520820Y-95086536D01*
X114511455Y-95023403D01*
X114432460Y-94490861D01*
X114432458Y-94490853D01*
X114432457Y-94490846D01*
X114286139Y-93906712D01*
X114286137Y-93906705D01*
X114286135Y-93906699D01*
X114083267Y-93339720D01*
X114083263Y-93339711D01*
X114083261Y-93339706D01*
X113897429Y-92946796D01*
X113873768Y-92896770D01*
X113825796Y-92795342D01*
X113825792Y-92795336D01*
X113825790Y-92795331D01*
X113516208Y-92278823D01*
X113516202Y-92278815D01*
X113516199Y-92278810D01*
X113157480Y-91795134D01*
X113157479Y-91795133D01*
X113157471Y-91795122D01*
X112753070Y-91348936D01*
X112753066Y-91348933D01*
X112753063Y-91348929D01*
X112306877Y-90944528D01*
X112172297Y-90844716D01*
X112172295Y-90844715D01*
X111823189Y-90585800D01*
X111823184Y-90585797D01*
X111823176Y-90585791D01*
X111306668Y-90276209D01*
X111306659Y-90276205D01*
X111306656Y-90276203D01*
X110762292Y-90018738D01*
X110762291Y-90018738D01*
X110762279Y-90018732D01*
X110195299Y-89815864D01*
X110195287Y-89815860D01*
X109611152Y-89669541D01*
X109445412Y-89644956D01*
X109181202Y-89605764D01*
X109181201Y-89605764D01*
X109059334Y-89587687D01*
X109015474Y-89581181D01*
X109015473Y-89581181D01*
X109015460Y-89581179D01*
X108497516Y-89555735D01*
X108469752Y-89553000D01*
X108441853Y-89553000D01*
X108414006Y-89551632D01*
X108386158Y-89553000D01*
X108040361Y-89553000D01*
X107869345Y-89552303D01*
X107727341Y-89549713D01*
X107611174Y-89544682D01*
X107517900Y-89537054D01*
X107442862Y-89526946D01*
X107379229Y-89514193D01*
X107318272Y-89497506D01*
X107251279Y-89474262D01*
X107171249Y-89441280D01*
X107144563Y-89428901D01*
X107128727Y-89418320D01*
X106936054Y-89338512D01*
X106970537Y-89296494D01*
X107029502Y-89186180D01*
X107065812Y-89066482D01*
X107078072Y-88942000D01*
X107075000Y-87977750D01*
X106916250Y-87819000D01*
X103567000Y-87819000D01*
X103567000Y-87839000D01*
X103313000Y-87839000D01*
X103313000Y-87819000D01*
X103293000Y-87819000D01*
X103293000Y-87565000D01*
X103313000Y-87565000D01*
X103313000Y-85965750D01*
X103567000Y-85965750D01*
X103567000Y-87565000D01*
X106916250Y-87565000D01*
X107075000Y-87406250D01*
X107078072Y-86442000D01*
X107065812Y-86317518D01*
X107029502Y-86197820D01*
X106970537Y-86087506D01*
X106891185Y-85990815D01*
X106794494Y-85911463D01*
X106684180Y-85852498D01*
X106564482Y-85816188D01*
X106440000Y-85803928D01*
X103725750Y-85807000D01*
X103567000Y-85965750D01*
X103313000Y-85965750D01*
X103154250Y-85807000D01*
X101032507Y-85804599D01*
X101031416Y-85801075D01*
X101008238Y-85745937D01*
X100985825Y-85690463D01*
X100981498Y-85682327D01*
X100935085Y-85596489D01*
X100901645Y-85546913D01*
X100868881Y-85496844D01*
X100863057Y-85489703D01*
X100800855Y-85414514D01*
X100758406Y-85372361D01*
X100716561Y-85329629D01*
X100709460Y-85323755D01*
X100633839Y-85262079D01*
X100584034Y-85228988D01*
X100534650Y-85195174D01*
X100526544Y-85190792D01*
X100440383Y-85144980D01*
X100385091Y-85122191D01*
X100330102Y-85098622D01*
X100321299Y-85095897D01*
X100227881Y-85067692D01*
X100169174Y-85056067D01*
X100110684Y-85043635D01*
X100101530Y-85042673D01*
X100101524Y-85042672D01*
X100101519Y-85042672D01*
X100004402Y-85033150D01*
X99972419Y-85030000D01*
X99600000Y-85030000D01*
X99600000Y-83690000D01*
X112260928Y-83690000D01*
X112273188Y-83814482D01*
X112309498Y-83934180D01*
X112368463Y-84044494D01*
X112447815Y-84141185D01*
X112544506Y-84220537D01*
X112654820Y-84279502D01*
X112774518Y-84315812D01*
X112899000Y-84328072D01*
X113113250Y-84325000D01*
X113272000Y-84166250D01*
X113272000Y-82817000D01*
X112422750Y-82817000D01*
X112264000Y-82975750D01*
X112260928Y-83690000D01*
X99600000Y-83690000D01*
X99600000Y-81690000D01*
X112260928Y-81690000D01*
X112264000Y-82404250D01*
X112422750Y-82563000D01*
X113272000Y-82563000D01*
X113272000Y-81213750D01*
X113526000Y-81213750D01*
X113526000Y-82563000D01*
X113546000Y-82563000D01*
X113546000Y-82817000D01*
X113526000Y-82817000D01*
X113526000Y-84166250D01*
X113684750Y-84325000D01*
X113899000Y-84328072D01*
X114023482Y-84315812D01*
X114143180Y-84279502D01*
X114253494Y-84220537D01*
X114350185Y-84141185D01*
X114399000Y-84081704D01*
X114447815Y-84141185D01*
X114544506Y-84220537D01*
X114654820Y-84279502D01*
X114774518Y-84315812D01*
X114899000Y-84328072D01*
X115899000Y-84328072D01*
X116023482Y-84315812D01*
X116143180Y-84279502D01*
X116253494Y-84220537D01*
X116350185Y-84141185D01*
X116399000Y-84081704D01*
X116447815Y-84141185D01*
X116544506Y-84220537D01*
X116654820Y-84279502D01*
X116774518Y-84315812D01*
X116899000Y-84328072D01*
X117899000Y-84328072D01*
X118023482Y-84315812D01*
X118143180Y-84279502D01*
X118253494Y-84220537D01*
X118350185Y-84141185D01*
X118399000Y-84081704D01*
X118447815Y-84141185D01*
X118495031Y-84179934D01*
X118481795Y-84199744D01*
X118403774Y-84388102D01*
X118364000Y-84588061D01*
X118364000Y-84791939D01*
X118403774Y-84991898D01*
X118481795Y-85180256D01*
X118595063Y-85349774D01*
X118739226Y-85493937D01*
X118908744Y-85607205D01*
X119097102Y-85685226D01*
X119297061Y-85725000D01*
X119500939Y-85725000D01*
X119700898Y-85685226D01*
X119889256Y-85607205D01*
X120058774Y-85493937D01*
X120202937Y-85349774D01*
X120316205Y-85180256D01*
X120394226Y-84991898D01*
X120434000Y-84791939D01*
X120434000Y-84588061D01*
X120394226Y-84388102D01*
X120316205Y-84199744D01*
X120302969Y-84179934D01*
X120350185Y-84141185D01*
X120399000Y-84081704D01*
X120447815Y-84141185D01*
X120544506Y-84220537D01*
X120654820Y-84279502D01*
X120667681Y-84283403D01*
X120670246Y-84291859D01*
X120683049Y-84315812D01*
X120743139Y-84428233D01*
X120761444Y-84450537D01*
X120816655Y-84517812D01*
X120816659Y-84517816D01*
X120841237Y-84547764D01*
X120871185Y-84572342D01*
X122516658Y-86217816D01*
X122541236Y-86247764D01*
X122571184Y-86272342D01*
X122571187Y-86272345D01*
X122600559Y-86296450D01*
X122660767Y-86345862D01*
X122797140Y-86418754D01*
X122945113Y-86463641D01*
X123060439Y-86475000D01*
X123060446Y-86475000D01*
X123098999Y-86478797D01*
X123137552Y-86475000D01*
X125503843Y-86475000D01*
X122871190Y-89107653D01*
X122841236Y-89132236D01*
X122743138Y-89251768D01*
X122670246Y-89388141D01*
X122625359Y-89536114D01*
X122614000Y-89651440D01*
X122614000Y-89651447D01*
X122610203Y-89690000D01*
X122614000Y-89728553D01*
X122614001Y-97122317D01*
X122544506Y-97159463D01*
X122447815Y-97238815D01*
X122399000Y-97298296D01*
X122350185Y-97238815D01*
X122253494Y-97159463D01*
X122143180Y-97100498D01*
X122023482Y-97064188D01*
X121899000Y-97051928D01*
X120899000Y-97051928D01*
X120774518Y-97064188D01*
X120654820Y-97100498D01*
X120544506Y-97159463D01*
X120447815Y-97238815D01*
X120399000Y-97298296D01*
X120350185Y-97238815D01*
X120253494Y-97159463D01*
X120143180Y-97100498D01*
X120023482Y-97064188D01*
X119899000Y-97051928D01*
X118899000Y-97051928D01*
X118774518Y-97064188D01*
X118654820Y-97100498D01*
X118544506Y-97159463D01*
X118447815Y-97238815D01*
X118399000Y-97298296D01*
X118350185Y-97238815D01*
X118253494Y-97159463D01*
X118143180Y-97100498D01*
X118023482Y-97064188D01*
X117899000Y-97051928D01*
X116899000Y-97051928D01*
X116774518Y-97064188D01*
X116654820Y-97100498D01*
X116544506Y-97159463D01*
X116447815Y-97238815D01*
X116399000Y-97298296D01*
X116350185Y-97238815D01*
X116253494Y-97159463D01*
X116143180Y-97100498D01*
X116023482Y-97064188D01*
X115899000Y-97051928D01*
X115684750Y-97055000D01*
X115526000Y-97213750D01*
X115526000Y-98563000D01*
X115546000Y-98563000D01*
X115546000Y-98817000D01*
X115526000Y-98817000D01*
X115526000Y-100166250D01*
X115684750Y-100325000D01*
X115899000Y-100328072D01*
X116023482Y-100315812D01*
X116143180Y-100279502D01*
X116253494Y-100220537D01*
X116350185Y-100141185D01*
X116399000Y-100081704D01*
X116447815Y-100141185D01*
X116544506Y-100220537D01*
X116654820Y-100279502D01*
X116774518Y-100315812D01*
X116899000Y-100328072D01*
X117899000Y-100328072D01*
X118023482Y-100315812D01*
X118143180Y-100279502D01*
X118253494Y-100220537D01*
X118350185Y-100141185D01*
X118399000Y-100081704D01*
X118447815Y-100141185D01*
X118544506Y-100220537D01*
X118654820Y-100279502D01*
X118774518Y-100315812D01*
X118899000Y-100328072D01*
X119899000Y-100328072D01*
X120023482Y-100315812D01*
X120143180Y-100279502D01*
X120253494Y-100220537D01*
X120350185Y-100141185D01*
X120399000Y-100081704D01*
X120447815Y-100141185D01*
X120509932Y-100192163D01*
X120514000Y-100233469D01*
X120514000Y-100233476D01*
X120526805Y-100363489D01*
X120577411Y-100530312D01*
X120659589Y-100684058D01*
X120770183Y-100818817D01*
X120803956Y-100846534D01*
X123434470Y-103477049D01*
X123462183Y-103510817D01*
X123495951Y-103538530D01*
X123495953Y-103538532D01*
X123521320Y-103559350D01*
X123596941Y-103621411D01*
X123750687Y-103703589D01*
X123917510Y-103754195D01*
X124047523Y-103767000D01*
X124047531Y-103767000D01*
X124091000Y-103771281D01*
X124134469Y-103767000D01*
X129221005Y-103767000D01*
X129287038Y-103847462D01*
X129421614Y-103957905D01*
X129575150Y-104039972D01*
X129741746Y-104090508D01*
X129915000Y-104107572D01*
X130865000Y-104107572D01*
X131038254Y-104090508D01*
X131204850Y-104039972D01*
X131358386Y-103957905D01*
X131492962Y-103847462D01*
X131558995Y-103767000D01*
X149904531Y-103767000D01*
X149948000Y-103771281D01*
X149991469Y-103767000D01*
X149991477Y-103767000D01*
X150121490Y-103754195D01*
X150288313Y-103703589D01*
X150442059Y-103621411D01*
X150576817Y-103510817D01*
X150604534Y-103477044D01*
X154301040Y-99780539D01*
X154373740Y-99795000D01*
X154666260Y-99795000D01*
X154953158Y-99737932D01*
X155223411Y-99625990D01*
X155466632Y-99463475D01*
X155673475Y-99256632D01*
X155790000Y-99082240D01*
X155906525Y-99256632D01*
X156113368Y-99463475D01*
X156356589Y-99625990D01*
X156626842Y-99737932D01*
X156913740Y-99795000D01*
X157206260Y-99795000D01*
X157493158Y-99737932D01*
X157763411Y-99625990D01*
X158006632Y-99463475D01*
X158131710Y-99338397D01*
X158751208Y-99338397D01*
X158828843Y-99587472D01*
X159092883Y-99713371D01*
X159376411Y-99785339D01*
X159668531Y-99800611D01*
X159958019Y-99758599D01*
X160233747Y-99660919D01*
X160371157Y-99587472D01*
X160448792Y-99338397D01*
X159600000Y-98489605D01*
X158751208Y-99338397D01*
X158131710Y-99338397D01*
X158213475Y-99256632D01*
X158329311Y-99083271D01*
X158571603Y-99158792D01*
X159420395Y-98310000D01*
X159779605Y-98310000D01*
X160628397Y-99158792D01*
X160651928Y-99151458D01*
X160651928Y-99160000D01*
X160664188Y-99284482D01*
X160700498Y-99404180D01*
X160759463Y-99514494D01*
X160838815Y-99611185D01*
X160935506Y-99690537D01*
X161045820Y-99749502D01*
X161165518Y-99785812D01*
X161290000Y-99798072D01*
X162990000Y-99798072D01*
X163114482Y-99785812D01*
X163234180Y-99749502D01*
X163344494Y-99690537D01*
X163441185Y-99611185D01*
X163520537Y-99514494D01*
X163579502Y-99404180D01*
X163615812Y-99284482D01*
X163628072Y-99160000D01*
X163628072Y-97460000D01*
X163615812Y-97335518D01*
X163579502Y-97215820D01*
X163520537Y-97105506D01*
X163441185Y-97008815D01*
X163344494Y-96929463D01*
X163234180Y-96870498D01*
X163114482Y-96834188D01*
X162990000Y-96821928D01*
X161290000Y-96821928D01*
X161165518Y-96834188D01*
X161045820Y-96870498D01*
X160935506Y-96929463D01*
X160838815Y-97008815D01*
X160759463Y-97105506D01*
X160700498Y-97215820D01*
X160664188Y-97335518D01*
X160651928Y-97460000D01*
X160651928Y-97468542D01*
X160628397Y-97461208D01*
X159779605Y-98310000D01*
X159420395Y-98310000D01*
X158571603Y-97461208D01*
X158329311Y-97536729D01*
X158213475Y-97363368D01*
X158131710Y-97281603D01*
X158751208Y-97281603D01*
X159600000Y-98130395D01*
X160448792Y-97281603D01*
X160371157Y-97032528D01*
X160107117Y-96906629D01*
X159823589Y-96834661D01*
X159531469Y-96819389D01*
X159241981Y-96861401D01*
X158966253Y-96959081D01*
X158828843Y-97032528D01*
X158751208Y-97281603D01*
X158131710Y-97281603D01*
X158006632Y-97156525D01*
X157763411Y-96994010D01*
X157493158Y-96882068D01*
X157248230Y-96833348D01*
X159304579Y-94777000D01*
X168527913Y-94777000D01*
X168543992Y-94940255D01*
X168594528Y-95106851D01*
X168676595Y-95260387D01*
X168787038Y-95394962D01*
X168921613Y-95505405D01*
X169075149Y-95587472D01*
X169241745Y-95638008D01*
X169414999Y-95655072D01*
X170951494Y-95655072D01*
X171519586Y-96223164D01*
X171369000Y-96373750D01*
X171369000Y-97423000D01*
X172318250Y-97423000D01*
X172477000Y-97264250D01*
X172477616Y-97181195D01*
X172777001Y-97480580D01*
X172777000Y-98196530D01*
X172772719Y-98240000D01*
X172777000Y-98283469D01*
X172777000Y-98283476D01*
X172789805Y-98413489D01*
X172840411Y-98580312D01*
X172922589Y-98734058D01*
X173033183Y-98868817D01*
X173066956Y-98896534D01*
X174807470Y-100637049D01*
X174835183Y-100670817D01*
X174868951Y-100698530D01*
X174868953Y-100698532D01*
X174887997Y-100714161D01*
X174936912Y-100754304D01*
X174959463Y-100796494D01*
X175038815Y-100893185D01*
X175135506Y-100972537D01*
X175245820Y-101031502D01*
X175365518Y-101067812D01*
X175490000Y-101080072D01*
X175555001Y-101080072D01*
X175555001Y-101169170D01*
X174495244Y-102228928D01*
X174046250Y-102228928D01*
X173872996Y-102245992D01*
X173854815Y-102251507D01*
X173953205Y-102104256D01*
X174031226Y-101915898D01*
X174071000Y-101715939D01*
X174071000Y-101512061D01*
X174031226Y-101312102D01*
X173953205Y-101123744D01*
X173839937Y-100954226D01*
X173695774Y-100810063D01*
X173526256Y-100696795D01*
X173337898Y-100618774D01*
X173137939Y-100579000D01*
X173111158Y-100579000D01*
X172602345Y-100070188D01*
X172577764Y-100040236D01*
X172458233Y-99942138D01*
X172452127Y-99938874D01*
X172412472Y-99808149D01*
X172330405Y-99654613D01*
X172219962Y-99520038D01*
X172085387Y-99409595D01*
X171931851Y-99327528D01*
X171765255Y-99276992D01*
X171592001Y-99259928D01*
X170891999Y-99259928D01*
X170718745Y-99276992D01*
X170552149Y-99327528D01*
X170398613Y-99409595D01*
X170264038Y-99520038D01*
X170242000Y-99546891D01*
X170219962Y-99520038D01*
X170085387Y-99409595D01*
X170027000Y-99378386D01*
X170027000Y-98769614D01*
X170085387Y-98738405D01*
X170166637Y-98671724D01*
X170190815Y-98701185D01*
X170287506Y-98780537D01*
X170397820Y-98839502D01*
X170517518Y-98875812D01*
X170642000Y-98888072D01*
X170956250Y-98885000D01*
X171115000Y-98726250D01*
X171115000Y-97677000D01*
X171369000Y-97677000D01*
X171369000Y-98726250D01*
X171527750Y-98885000D01*
X171842000Y-98888072D01*
X171966482Y-98875812D01*
X172086180Y-98839502D01*
X172196494Y-98780537D01*
X172293185Y-98701185D01*
X172372537Y-98604494D01*
X172431502Y-98494180D01*
X172467812Y-98374482D01*
X172480072Y-98250000D01*
X172477000Y-97835750D01*
X172318250Y-97677000D01*
X171369000Y-97677000D01*
X171115000Y-97677000D01*
X171095000Y-97677000D01*
X171095000Y-97423000D01*
X171115000Y-97423000D01*
X171115000Y-96373750D01*
X170956250Y-96215000D01*
X170642000Y-96211928D01*
X170517518Y-96224188D01*
X170397820Y-96260498D01*
X170287506Y-96319463D01*
X170190815Y-96398815D01*
X170166637Y-96428276D01*
X170085387Y-96361595D01*
X169931851Y-96279528D01*
X169765255Y-96228992D01*
X169592001Y-96211928D01*
X168891999Y-96211928D01*
X168718745Y-96228992D01*
X168552149Y-96279528D01*
X168398613Y-96361595D01*
X168264038Y-96472038D01*
X168153595Y-96606613D01*
X168071528Y-96760149D01*
X168020992Y-96926745D01*
X168003928Y-97099999D01*
X168003928Y-98000001D01*
X168020992Y-98173255D01*
X168071528Y-98339851D01*
X168153595Y-98493387D01*
X168264038Y-98627962D01*
X168398613Y-98738405D01*
X168457000Y-98769614D01*
X168457001Y-99378386D01*
X168398613Y-99409595D01*
X168264038Y-99520038D01*
X168153595Y-99654613D01*
X168071528Y-99808149D01*
X168070056Y-99813000D01*
X167773711Y-99813000D01*
X167752774Y-99792063D01*
X167583256Y-99678795D01*
X167394898Y-99600774D01*
X167194939Y-99561000D01*
X166991061Y-99561000D01*
X166791102Y-99600774D01*
X166602744Y-99678795D01*
X166433226Y-99792063D01*
X166289063Y-99936226D01*
X166175795Y-100105744D01*
X166097774Y-100294102D01*
X166058000Y-100494061D01*
X166058000Y-100697939D01*
X166097774Y-100897898D01*
X166175795Y-101086256D01*
X166289063Y-101255774D01*
X166433226Y-101399937D01*
X166602744Y-101513205D01*
X166791102Y-101591226D01*
X166991061Y-101631000D01*
X167194939Y-101631000D01*
X167394898Y-101591226D01*
X167583256Y-101513205D01*
X167752774Y-101399937D01*
X167769711Y-101383000D01*
X168070056Y-101383000D01*
X168071528Y-101387851D01*
X168153595Y-101541387D01*
X168264038Y-101675962D01*
X168398613Y-101786405D01*
X168419501Y-101797570D01*
X168419500Y-102354068D01*
X168373614Y-102378595D01*
X168239038Y-102489038D01*
X168128595Y-102623614D01*
X168046528Y-102777150D01*
X167995992Y-102943746D01*
X167978928Y-103117000D01*
X167978928Y-104067000D01*
X167995992Y-104240254D01*
X168046528Y-104406850D01*
X168128595Y-104560386D01*
X168239038Y-104694962D01*
X168373614Y-104805405D01*
X168527150Y-104887472D01*
X168693746Y-104938008D01*
X168867000Y-104955072D01*
X169542000Y-104955072D01*
X169715254Y-104938008D01*
X169881850Y-104887472D01*
X170035386Y-104805405D01*
X170169962Y-104694962D01*
X170175342Y-104688406D01*
X170240815Y-104768185D01*
X170337506Y-104847537D01*
X170447820Y-104906502D01*
X170567518Y-104942812D01*
X170692000Y-104955072D01*
X170993750Y-104952000D01*
X171152500Y-104793250D01*
X171152500Y-103719000D01*
X171406500Y-103719000D01*
X171406500Y-104793250D01*
X171565250Y-104952000D01*
X171867000Y-104955072D01*
X171991482Y-104942812D01*
X172111180Y-104906502D01*
X172221494Y-104847537D01*
X172318185Y-104768185D01*
X172397537Y-104671494D01*
X172456502Y-104561180D01*
X172492812Y-104441482D01*
X172505072Y-104317000D01*
X172502000Y-103877750D01*
X172343250Y-103719000D01*
X171406500Y-103719000D01*
X171152500Y-103719000D01*
X171132500Y-103719000D01*
X171132500Y-103465000D01*
X171152500Y-103465000D01*
X171152500Y-102390750D01*
X171406500Y-102390750D01*
X171406500Y-103465000D01*
X172343250Y-103465000D01*
X172502000Y-103306250D01*
X172505072Y-102867000D01*
X172492812Y-102742518D01*
X172456502Y-102622820D01*
X172397537Y-102512506D01*
X172318185Y-102415815D01*
X172221494Y-102336463D01*
X172111180Y-102277498D01*
X171991482Y-102241188D01*
X171867000Y-102228928D01*
X171565250Y-102232000D01*
X171406500Y-102390750D01*
X171152500Y-102390750D01*
X170993750Y-102232000D01*
X170692000Y-102228928D01*
X170567518Y-102241188D01*
X170447820Y-102277498D01*
X170337506Y-102336463D01*
X170240815Y-102415815D01*
X170175342Y-102495594D01*
X170169962Y-102489038D01*
X170035386Y-102378595D01*
X169989500Y-102354068D01*
X169989500Y-101837658D01*
X170085387Y-101786405D01*
X170219962Y-101675962D01*
X170242000Y-101649109D01*
X170264038Y-101675962D01*
X170398613Y-101786405D01*
X170552149Y-101868472D01*
X170718745Y-101919008D01*
X170891999Y-101936072D01*
X171592001Y-101936072D01*
X171765255Y-101919008D01*
X171931851Y-101868472D01*
X172021779Y-101820404D01*
X172040774Y-101915898D01*
X172118795Y-102104256D01*
X172232063Y-102273774D01*
X172376226Y-102417937D01*
X172545744Y-102531205D01*
X172734102Y-102609226D01*
X172934061Y-102649000D01*
X173137939Y-102649000D01*
X173316093Y-102613563D01*
X173307845Y-102623614D01*
X173225778Y-102777150D01*
X173175242Y-102943746D01*
X173158178Y-103117000D01*
X173158178Y-104067000D01*
X173175242Y-104240254D01*
X173225778Y-104406850D01*
X173307845Y-104560386D01*
X173418288Y-104694962D01*
X173552864Y-104805405D01*
X173706400Y-104887472D01*
X173872996Y-104938008D01*
X174046250Y-104955072D01*
X174721250Y-104955072D01*
X174894504Y-104938008D01*
X175061100Y-104887472D01*
X175214636Y-104805405D01*
X175349212Y-104694962D01*
X175354592Y-104688406D01*
X175420065Y-104768185D01*
X175516756Y-104847537D01*
X175627070Y-104906502D01*
X175746768Y-104942812D01*
X175871250Y-104955072D01*
X176173000Y-104952000D01*
X176331750Y-104793250D01*
X176331750Y-103719000D01*
X176585750Y-103719000D01*
X176585750Y-104793250D01*
X176744500Y-104952000D01*
X177046250Y-104955072D01*
X177170732Y-104942812D01*
X177290430Y-104906502D01*
X177400744Y-104847537D01*
X177497435Y-104768185D01*
X177576787Y-104671494D01*
X177635752Y-104561180D01*
X177672062Y-104441482D01*
X177684322Y-104317000D01*
X177681250Y-103877750D01*
X177522500Y-103719000D01*
X176585750Y-103719000D01*
X176331750Y-103719000D01*
X176311750Y-103719000D01*
X176311750Y-103465000D01*
X176331750Y-103465000D01*
X176331750Y-103445000D01*
X176585750Y-103445000D01*
X176585750Y-103465000D01*
X177522500Y-103465000D01*
X177681250Y-103306250D01*
X177684322Y-102867000D01*
X177672062Y-102742518D01*
X177635752Y-102622820D01*
X177576787Y-102512506D01*
X177497435Y-102415815D01*
X177400744Y-102336463D01*
X177290430Y-102277498D01*
X177170732Y-102241188D01*
X177046250Y-102228928D01*
X176997909Y-102229420D01*
X177035049Y-102192280D01*
X177068817Y-102164567D01*
X177105157Y-102120288D01*
X177179411Y-102029809D01*
X177261589Y-101876064D01*
X177312195Y-101709240D01*
X177325000Y-101579227D01*
X177325000Y-101579219D01*
X177329281Y-101535750D01*
X177325000Y-101492281D01*
X177325000Y-101080072D01*
X177390000Y-101080072D01*
X177514482Y-101067812D01*
X177634180Y-101031502D01*
X177744494Y-100972537D01*
X177841185Y-100893185D01*
X177920537Y-100796494D01*
X177979502Y-100686180D01*
X178015812Y-100566482D01*
X178028072Y-100442000D01*
X178028072Y-99930095D01*
X178038815Y-99943185D01*
X178135506Y-100022537D01*
X178245820Y-100081502D01*
X178365518Y-100117812D01*
X178490000Y-100130072D01*
X178517501Y-100130072D01*
X178517501Y-101050851D01*
X178468795Y-101123744D01*
X178390774Y-101312102D01*
X178351000Y-101512061D01*
X178351000Y-101715939D01*
X178390774Y-101915898D01*
X178468795Y-102104256D01*
X178517500Y-102177149D01*
X178517500Y-102423005D01*
X178437038Y-102489038D01*
X178326595Y-102623614D01*
X178244528Y-102777150D01*
X178193992Y-102943746D01*
X178176928Y-103117000D01*
X178176928Y-104067000D01*
X178193992Y-104240254D01*
X178244528Y-104406850D01*
X178326595Y-104560386D01*
X178437038Y-104694962D01*
X178571614Y-104805405D01*
X178725150Y-104887472D01*
X178891746Y-104938008D01*
X179065000Y-104955072D01*
X179740000Y-104955072D01*
X179913254Y-104938008D01*
X180079850Y-104887472D01*
X180233386Y-104805405D01*
X180367962Y-104694962D01*
X180373342Y-104688406D01*
X180438815Y-104768185D01*
X180535506Y-104847537D01*
X180645820Y-104906502D01*
X180765518Y-104942812D01*
X180890000Y-104955072D01*
X181191750Y-104952000D01*
X181350500Y-104793250D01*
X181350500Y-103719000D01*
X181330500Y-103719000D01*
X181330500Y-103465000D01*
X181350500Y-103465000D01*
X181350500Y-102390750D01*
X181604500Y-102390750D01*
X181604500Y-103465000D01*
X181624500Y-103465000D01*
X181624500Y-103719000D01*
X181604500Y-103719000D01*
X181604500Y-104793250D01*
X181763250Y-104952000D01*
X182065000Y-104955072D01*
X182189482Y-104942812D01*
X182309180Y-104906502D01*
X182419494Y-104847537D01*
X182516185Y-104768185D01*
X182595537Y-104671494D01*
X182654502Y-104561180D01*
X182690812Y-104441482D01*
X182703072Y-104317000D01*
X182700515Y-103951408D01*
X182713948Y-104018939D01*
X182927656Y-104534876D01*
X183237912Y-104999207D01*
X183632793Y-105394088D01*
X184097124Y-105704344D01*
X184613061Y-105918052D01*
X185160777Y-106027000D01*
X185719223Y-106027000D01*
X186266939Y-105918052D01*
X186782876Y-105704344D01*
X187247207Y-105394088D01*
X187642088Y-104999207D01*
X187952344Y-104534876D01*
X188166052Y-104018939D01*
X188275000Y-103471223D01*
X188275000Y-102912777D01*
X188166052Y-102365061D01*
X187952344Y-101849124D01*
X187642088Y-101384793D01*
X187247207Y-100989912D01*
X186782876Y-100679656D01*
X186266939Y-100465948D01*
X185719223Y-100357000D01*
X185160777Y-100357000D01*
X184613061Y-100465948D01*
X184097124Y-100679656D01*
X183632793Y-100989912D01*
X183237912Y-101384793D01*
X182927656Y-101849124D01*
X182713948Y-102365061D01*
X182659439Y-102639095D01*
X182654502Y-102622820D01*
X182595537Y-102512506D01*
X182516185Y-102415815D01*
X182419494Y-102336463D01*
X182309180Y-102277498D01*
X182189482Y-102241188D01*
X182065000Y-102228928D01*
X181763250Y-102232000D01*
X181604500Y-102390750D01*
X181350500Y-102390750D01*
X181191750Y-102232000D01*
X180890000Y-102228928D01*
X180765518Y-102241188D01*
X180645820Y-102277498D01*
X180535506Y-102336463D01*
X180438815Y-102415815D01*
X180373342Y-102495594D01*
X180367962Y-102489038D01*
X180287500Y-102423005D01*
X180287500Y-102127760D01*
X180303205Y-102104256D01*
X180381226Y-101915898D01*
X180421000Y-101715939D01*
X180421000Y-101512061D01*
X180381226Y-101312102D01*
X180303205Y-101123744D01*
X180287500Y-101100240D01*
X180287500Y-100130072D01*
X180390000Y-100130072D01*
X180514482Y-100117812D01*
X180634180Y-100081502D01*
X180744494Y-100022537D01*
X180841185Y-99943185D01*
X180920537Y-99846494D01*
X180979502Y-99736180D01*
X181015812Y-99616482D01*
X181028072Y-99492000D01*
X181028072Y-98692000D01*
X181015812Y-98567518D01*
X180979502Y-98447820D01*
X180920537Y-98337506D01*
X180841185Y-98240815D01*
X180770650Y-98182928D01*
X181777303Y-97176275D01*
X183471538Y-97176275D01*
X183475409Y-97213948D01*
X183567579Y-97439199D01*
X183701922Y-97642140D01*
X183873275Y-97814973D01*
X184075054Y-97951056D01*
X184299504Y-98045159D01*
X184538000Y-98093666D01*
X184813000Y-98093666D01*
X184813000Y-96985666D01*
X185067000Y-96985666D01*
X185067000Y-98093666D01*
X185342000Y-98093666D01*
X185580496Y-98045159D01*
X185804946Y-97951056D01*
X186006725Y-97814973D01*
X186178078Y-97642140D01*
X186312421Y-97439199D01*
X186404591Y-97213948D01*
X186408462Y-97176275D01*
X186283731Y-96985666D01*
X185067000Y-96985666D01*
X184813000Y-96985666D01*
X183596269Y-96985666D01*
X183471538Y-97176275D01*
X181777303Y-97176275D01*
X183209913Y-95743666D01*
X183610746Y-95743666D01*
X183687038Y-95836628D01*
X183821613Y-95947071D01*
X183826406Y-95949633D01*
X183701922Y-96075192D01*
X183567579Y-96278133D01*
X183475409Y-96503384D01*
X183471538Y-96541057D01*
X183596269Y-96731666D01*
X184813000Y-96731666D01*
X184813000Y-96711666D01*
X185067000Y-96711666D01*
X185067000Y-96731666D01*
X186283731Y-96731666D01*
X186408462Y-96541057D01*
X186404591Y-96503384D01*
X186312421Y-96278133D01*
X186178078Y-96075192D01*
X186053594Y-95949633D01*
X186058387Y-95947071D01*
X186192962Y-95836628D01*
X186303405Y-95702053D01*
X186385472Y-95548517D01*
X186436008Y-95381921D01*
X186453072Y-95208667D01*
X186453072Y-94508665D01*
X186436008Y-94335411D01*
X186385472Y-94168815D01*
X186303405Y-94015279D01*
X186192962Y-93880704D01*
X186058387Y-93770261D01*
X185904851Y-93688194D01*
X185738255Y-93637658D01*
X185565001Y-93620594D01*
X184314999Y-93620594D01*
X184141745Y-93637658D01*
X183975149Y-93688194D01*
X183821613Y-93770261D01*
X183687038Y-93880704D01*
X183610746Y-93973666D01*
X182886799Y-93973666D01*
X182843333Y-93969385D01*
X182799867Y-93973666D01*
X182799857Y-93973666D01*
X182669844Y-93986471D01*
X182503021Y-94037077D01*
X182349275Y-94119255D01*
X182335900Y-94130232D01*
X182248287Y-94202134D01*
X182248285Y-94202136D01*
X182214517Y-94229849D01*
X182186804Y-94263617D01*
X178844951Y-97605471D01*
X178811184Y-97633183D01*
X178783471Y-97666951D01*
X178783468Y-97666954D01*
X178700590Y-97767941D01*
X178618412Y-97921687D01*
X178578296Y-98053928D01*
X178490000Y-98053928D01*
X178365518Y-98066188D01*
X178245820Y-98102498D01*
X178135506Y-98161463D01*
X178038815Y-98240815D01*
X177959463Y-98337506D01*
X177950857Y-98353607D01*
X177866250Y-98269000D01*
X176567000Y-98269000D01*
X176567000Y-98289000D01*
X176313000Y-98289000D01*
X176313000Y-98269000D01*
X175013750Y-98269000D01*
X174978164Y-98304586D01*
X174547000Y-97873422D01*
X174547000Y-97742000D01*
X174851928Y-97742000D01*
X174855000Y-97856250D01*
X175013750Y-98015000D01*
X176313000Y-98015000D01*
X176313000Y-97265750D01*
X176567000Y-97265750D01*
X176567000Y-98015000D01*
X177866250Y-98015000D01*
X178025000Y-97856250D01*
X178028072Y-97742000D01*
X178015812Y-97617518D01*
X177979502Y-97497820D01*
X177920537Y-97387506D01*
X177841185Y-97290815D01*
X177744494Y-97211463D01*
X177634180Y-97152498D01*
X177514482Y-97116188D01*
X177390000Y-97103928D01*
X176725750Y-97107000D01*
X176567000Y-97265750D01*
X176313000Y-97265750D01*
X176154250Y-97107000D01*
X175490000Y-97103928D01*
X175365518Y-97116188D01*
X175245820Y-97152498D01*
X175135506Y-97211463D01*
X175038815Y-97290815D01*
X174959463Y-97387506D01*
X174900498Y-97497820D01*
X174864188Y-97617518D01*
X174851928Y-97742000D01*
X174547000Y-97742000D01*
X174547000Y-97157465D01*
X174551281Y-97113999D01*
X174547000Y-97070533D01*
X174547000Y-97070523D01*
X174534195Y-96940510D01*
X174483589Y-96773687D01*
X174401411Y-96619941D01*
X174350344Y-96557716D01*
X174318532Y-96518953D01*
X174318530Y-96518951D01*
X174290817Y-96485183D01*
X174257049Y-96457470D01*
X172353072Y-94553494D01*
X172353072Y-93636061D01*
X173297000Y-93636061D01*
X173297000Y-93839939D01*
X173336774Y-94039898D01*
X173414795Y-94228256D01*
X173528063Y-94397774D01*
X173672226Y-94541937D01*
X173841744Y-94655205D01*
X174030102Y-94733226D01*
X174230061Y-94773000D01*
X174433939Y-94773000D01*
X174633898Y-94733226D01*
X174822256Y-94655205D01*
X174991774Y-94541937D01*
X175010711Y-94523000D01*
X176697335Y-94523000D01*
X176735498Y-94569502D01*
X176923551Y-94723833D01*
X177138099Y-94838511D01*
X177370898Y-94909130D01*
X177552335Y-94927000D01*
X178223665Y-94927000D01*
X178405102Y-94909130D01*
X178637901Y-94838511D01*
X178852449Y-94723833D01*
X179040502Y-94569502D01*
X179194833Y-94381449D01*
X179309511Y-94166901D01*
X179380130Y-93934102D01*
X179403975Y-93692000D01*
X179380130Y-93449898D01*
X179309511Y-93217099D01*
X179194833Y-93002551D01*
X179040502Y-92814498D01*
X178891238Y-92692000D01*
X179040502Y-92569502D01*
X179194833Y-92381449D01*
X179309511Y-92166901D01*
X179380130Y-91934102D01*
X179403975Y-91692000D01*
X179380130Y-91449898D01*
X179309511Y-91217099D01*
X179194833Y-91002551D01*
X179040502Y-90814498D01*
X178890652Y-90691519D01*
X178954725Y-90648307D01*
X179126078Y-90475474D01*
X179260421Y-90272533D01*
X179352591Y-90047282D01*
X179356462Y-90009609D01*
X179231731Y-89819000D01*
X178015000Y-89819000D01*
X178015000Y-89839000D01*
X177761000Y-89839000D01*
X177761000Y-89819000D01*
X176544269Y-89819000D01*
X176419538Y-90009609D01*
X176423409Y-90047282D01*
X176515579Y-90272533D01*
X176649922Y-90475474D01*
X176821275Y-90648307D01*
X176885348Y-90691519D01*
X176735498Y-90814498D01*
X176648094Y-90921000D01*
X176534711Y-90921000D01*
X176515774Y-90902063D01*
X176346256Y-90788795D01*
X176157898Y-90710774D01*
X175957939Y-90671000D01*
X175754061Y-90671000D01*
X175554102Y-90710774D01*
X175365744Y-90788795D01*
X175196226Y-90902063D01*
X175052063Y-91046226D01*
X174938795Y-91215744D01*
X174860774Y-91404102D01*
X174821000Y-91604061D01*
X174821000Y-91807939D01*
X174860774Y-92007898D01*
X174938795Y-92196256D01*
X175052063Y-92365774D01*
X175196226Y-92509937D01*
X175365744Y-92623205D01*
X175554102Y-92701226D01*
X175754061Y-92741000D01*
X175957939Y-92741000D01*
X176157898Y-92701226D01*
X176346256Y-92623205D01*
X176515774Y-92509937D01*
X176534711Y-92491000D01*
X176671073Y-92491000D01*
X176735498Y-92569502D01*
X176884762Y-92692000D01*
X176735498Y-92814498D01*
X176621832Y-92953000D01*
X175010711Y-92953000D01*
X174991774Y-92934063D01*
X174822256Y-92820795D01*
X174633898Y-92742774D01*
X174433939Y-92703000D01*
X174230061Y-92703000D01*
X174030102Y-92742774D01*
X173841744Y-92820795D01*
X173672226Y-92934063D01*
X173528063Y-93078226D01*
X173414795Y-93247744D01*
X173336774Y-93436102D01*
X173297000Y-93636061D01*
X172353072Y-93636061D01*
X172353072Y-93158506D01*
X174927050Y-90584528D01*
X174960817Y-90556817D01*
X175001738Y-90506956D01*
X175071410Y-90422060D01*
X175071411Y-90422059D01*
X175153589Y-90268313D01*
X175204195Y-90101490D01*
X175217000Y-89971477D01*
X175217000Y-89971467D01*
X175221281Y-89928001D01*
X175217000Y-89884535D01*
X175217000Y-88577000D01*
X176558746Y-88577000D01*
X176635038Y-88669962D01*
X176769613Y-88780405D01*
X176774406Y-88782967D01*
X176649922Y-88908526D01*
X176515579Y-89111467D01*
X176423409Y-89336718D01*
X176419538Y-89374391D01*
X176544269Y-89565000D01*
X177761000Y-89565000D01*
X177761000Y-89545000D01*
X178015000Y-89545000D01*
X178015000Y-89565000D01*
X179231731Y-89565000D01*
X179356462Y-89374391D01*
X179352591Y-89336718D01*
X179260421Y-89111467D01*
X179126078Y-88908526D01*
X179061056Y-88842942D01*
X183471538Y-88842942D01*
X183475409Y-88880615D01*
X183567579Y-89105866D01*
X183701922Y-89308807D01*
X183873275Y-89481640D01*
X184075054Y-89617723D01*
X184299504Y-89711826D01*
X184538000Y-89760333D01*
X184813000Y-89760333D01*
X184813000Y-88652333D01*
X185067000Y-88652333D01*
X185067000Y-89760333D01*
X185342000Y-89760333D01*
X185580496Y-89711826D01*
X185804946Y-89617723D01*
X186006725Y-89481640D01*
X186178078Y-89308807D01*
X186312421Y-89105866D01*
X186404591Y-88880615D01*
X186408462Y-88842942D01*
X186283731Y-88652333D01*
X185067000Y-88652333D01*
X184813000Y-88652333D01*
X183596269Y-88652333D01*
X183471538Y-88842942D01*
X179061056Y-88842942D01*
X179001594Y-88782967D01*
X179006387Y-88780405D01*
X179140962Y-88669962D01*
X179251405Y-88535387D01*
X179333472Y-88381851D01*
X179384008Y-88215255D01*
X179401072Y-88042001D01*
X179401072Y-87341999D01*
X179384008Y-87168745D01*
X179333472Y-87002149D01*
X179251405Y-86848613D01*
X179140962Y-86714038D01*
X179006387Y-86603595D01*
X178852851Y-86521528D01*
X178773000Y-86497306D01*
X178773000Y-86273000D01*
X180860531Y-86273000D01*
X180904000Y-86277281D01*
X180947469Y-86273000D01*
X180947477Y-86273000D01*
X181077490Y-86260195D01*
X181244313Y-86209589D01*
X181398059Y-86127411D01*
X181532817Y-86016817D01*
X181560534Y-85983044D01*
X182133246Y-85410333D01*
X183610746Y-85410333D01*
X183687038Y-85503295D01*
X183821613Y-85613738D01*
X183826111Y-85616142D01*
X183787498Y-85647831D01*
X183633167Y-85835884D01*
X183518489Y-86050432D01*
X183447870Y-86283231D01*
X183424025Y-86525333D01*
X183447870Y-86767435D01*
X183518489Y-87000234D01*
X183633167Y-87214782D01*
X183787498Y-87402835D01*
X183937348Y-87525814D01*
X183873275Y-87569026D01*
X183701922Y-87741859D01*
X183567579Y-87944800D01*
X183475409Y-88170051D01*
X183471538Y-88207724D01*
X183596269Y-88398333D01*
X184813000Y-88398333D01*
X184813000Y-88378333D01*
X185067000Y-88378333D01*
X185067000Y-88398333D01*
X186283731Y-88398333D01*
X186408462Y-88207724D01*
X186404591Y-88170051D01*
X186312421Y-87944800D01*
X186178078Y-87741859D01*
X186006725Y-87569026D01*
X185942652Y-87525814D01*
X186092502Y-87402835D01*
X186246833Y-87214782D01*
X186361511Y-87000234D01*
X186432130Y-86767435D01*
X186455975Y-86525333D01*
X186432130Y-86283231D01*
X186361511Y-86050432D01*
X186246833Y-85835884D01*
X186092502Y-85647831D01*
X186053889Y-85616142D01*
X186058387Y-85613738D01*
X186192962Y-85503295D01*
X186303405Y-85368720D01*
X186385472Y-85215184D01*
X186436008Y-85048588D01*
X186453072Y-84875334D01*
X186453072Y-84175332D01*
X186436008Y-84002078D01*
X186385472Y-83835482D01*
X186303405Y-83681946D01*
X186192962Y-83547371D01*
X186058387Y-83436928D01*
X185904851Y-83354861D01*
X185738255Y-83304325D01*
X185565001Y-83287261D01*
X184314999Y-83287261D01*
X184141745Y-83304325D01*
X183975149Y-83354861D01*
X183821613Y-83436928D01*
X183687038Y-83547371D01*
X183610746Y-83640333D01*
X181810132Y-83640333D01*
X181766666Y-83636052D01*
X181723200Y-83640333D01*
X181723190Y-83640333D01*
X181593177Y-83653138D01*
X181426354Y-83703744D01*
X181272608Y-83785922D01*
X181272606Y-83785923D01*
X181272607Y-83785923D01*
X181171620Y-83868801D01*
X181171618Y-83868803D01*
X181137850Y-83896516D01*
X181110137Y-83930284D01*
X180537422Y-84503000D01*
X179249000Y-84503000D01*
X179249000Y-84351254D01*
X179341962Y-84274962D01*
X179452405Y-84140387D01*
X179534472Y-83986851D01*
X179585008Y-83820255D01*
X179602072Y-83647001D01*
X179602072Y-82746999D01*
X179585008Y-82573745D01*
X179534472Y-82407149D01*
X179452405Y-82253613D01*
X179341962Y-82119038D01*
X179249000Y-82042746D01*
X179249000Y-81366754D01*
X179341962Y-81290462D01*
X179452405Y-81155887D01*
X179534472Y-81002351D01*
X179585008Y-80835755D01*
X179602072Y-80662501D01*
X179602072Y-79762499D01*
X179585008Y-79589245D01*
X179534472Y-79422649D01*
X179452405Y-79269113D01*
X179341962Y-79134538D01*
X179249000Y-79058246D01*
X179249000Y-78382254D01*
X179341962Y-78305962D01*
X179452405Y-78171387D01*
X179534472Y-78017851D01*
X179566345Y-77912777D01*
X182605000Y-77912777D01*
X182605000Y-78471223D01*
X182713948Y-79018939D01*
X182927656Y-79534876D01*
X183237912Y-79999207D01*
X183632793Y-80394088D01*
X184097124Y-80704344D01*
X184613061Y-80918052D01*
X185160777Y-81027000D01*
X185719223Y-81027000D01*
X186266939Y-80918052D01*
X186782876Y-80704344D01*
X187247207Y-80394088D01*
X187642088Y-79999207D01*
X187952344Y-79534876D01*
X188166052Y-79018939D01*
X188275000Y-78471223D01*
X188275000Y-77912777D01*
X188166052Y-77365061D01*
X187952344Y-76849124D01*
X187642088Y-76384793D01*
X187247207Y-75989912D01*
X186782876Y-75679656D01*
X186266939Y-75465948D01*
X185719223Y-75357000D01*
X185160777Y-75357000D01*
X184613061Y-75465948D01*
X184097124Y-75679656D01*
X183632793Y-75989912D01*
X183237912Y-76384793D01*
X182927656Y-76849124D01*
X182713948Y-77365061D01*
X182605000Y-77912777D01*
X179566345Y-77912777D01*
X179585008Y-77851255D01*
X179602072Y-77678001D01*
X179602072Y-76777999D01*
X179585008Y-76604745D01*
X179534472Y-76438149D01*
X179452405Y-76284613D01*
X179341962Y-76150038D01*
X179207387Y-76039595D01*
X179053851Y-75957528D01*
X178887255Y-75906992D01*
X178714001Y-75889928D01*
X178013999Y-75889928D01*
X177840745Y-75906992D01*
X177674149Y-75957528D01*
X177520613Y-76039595D01*
X177386038Y-76150038D01*
X177364000Y-76176891D01*
X177341962Y-76150038D01*
X177207387Y-76039595D01*
X177053851Y-75957528D01*
X176887255Y-75906992D01*
X176714001Y-75889928D01*
X176013999Y-75889928D01*
X175840745Y-75906992D01*
X175674149Y-75957528D01*
X175520613Y-76039595D01*
X175386038Y-76150038D01*
X175275595Y-76284613D01*
X175193528Y-76438149D01*
X175192056Y-76443000D01*
X147700556Y-76443000D01*
X147662000Y-76439203D01*
X147623444Y-76443000D01*
X147623439Y-76443000D01*
X147583026Y-76446980D01*
X147508113Y-76454358D01*
X147360140Y-76499246D01*
X147223767Y-76572138D01*
X147104236Y-76670236D01*
X147079653Y-76700190D01*
X142156918Y-81622925D01*
X141966260Y-81585000D01*
X141673740Y-81585000D01*
X141386842Y-81642068D01*
X141116589Y-81754010D01*
X140873368Y-81916525D01*
X140666525Y-82123368D01*
X140550000Y-82297760D01*
X140433475Y-82123368D01*
X140226632Y-81916525D01*
X139983411Y-81754010D01*
X139713158Y-81642068D01*
X139426260Y-81585000D01*
X139133740Y-81585000D01*
X138846842Y-81642068D01*
X138576589Y-81754010D01*
X138333368Y-81916525D01*
X138126525Y-82123368D01*
X138010000Y-82297760D01*
X137893475Y-82123368D01*
X137686632Y-81916525D01*
X137443411Y-81754010D01*
X137173158Y-81642068D01*
X136886260Y-81585000D01*
X136593740Y-81585000D01*
X136306842Y-81642068D01*
X136036589Y-81754010D01*
X135793368Y-81916525D01*
X135586525Y-82123368D01*
X135470000Y-82297760D01*
X135353475Y-82123368D01*
X135146632Y-81916525D01*
X134903411Y-81754010D01*
X134633158Y-81642068D01*
X134346260Y-81585000D01*
X134053740Y-81585000D01*
X133863082Y-81622924D01*
X131734347Y-79494190D01*
X131709764Y-79464236D01*
X131590233Y-79366138D01*
X131453860Y-79293246D01*
X131305887Y-79248359D01*
X131190561Y-79237000D01*
X131190553Y-79237000D01*
X131152000Y-79233203D01*
X131113447Y-79237000D01*
X118805552Y-79237000D01*
X118766999Y-79233203D01*
X118728446Y-79237000D01*
X118728439Y-79237000D01*
X118627490Y-79246943D01*
X118613112Y-79248359D01*
X118486396Y-79286798D01*
X118465140Y-79293246D01*
X118328767Y-79366138D01*
X118268980Y-79415205D01*
X118239187Y-79439655D01*
X118239184Y-79439658D01*
X118209236Y-79464236D01*
X118184658Y-79494184D01*
X116871185Y-80807658D01*
X116841237Y-80832236D01*
X116816659Y-80862184D01*
X116816655Y-80862188D01*
X116783690Y-80902356D01*
X116743139Y-80951767D01*
X116717954Y-80998885D01*
X116670246Y-81088141D01*
X116667681Y-81096597D01*
X116654820Y-81100498D01*
X116544506Y-81159463D01*
X116447815Y-81238815D01*
X116399000Y-81298296D01*
X116350185Y-81238815D01*
X116253494Y-81159463D01*
X116143180Y-81100498D01*
X116023482Y-81064188D01*
X115899000Y-81051928D01*
X114899000Y-81051928D01*
X114774518Y-81064188D01*
X114654820Y-81100498D01*
X114544506Y-81159463D01*
X114447815Y-81238815D01*
X114399000Y-81298296D01*
X114350185Y-81238815D01*
X114253494Y-81159463D01*
X114143180Y-81100498D01*
X114023482Y-81064188D01*
X113899000Y-81051928D01*
X113684750Y-81055000D01*
X113526000Y-81213750D01*
X113272000Y-81213750D01*
X113113250Y-81055000D01*
X112899000Y-81051928D01*
X112774518Y-81064188D01*
X112654820Y-81100498D01*
X112544506Y-81159463D01*
X112447815Y-81238815D01*
X112368463Y-81335506D01*
X112309498Y-81445820D01*
X112273188Y-81565518D01*
X112260928Y-81690000D01*
X99600000Y-81690000D01*
X99600000Y-77910777D01*
X99605000Y-77910777D01*
X99605000Y-78469223D01*
X99713948Y-79016939D01*
X99927656Y-79532876D01*
X100237912Y-79997207D01*
X100632793Y-80392088D01*
X101097124Y-80702344D01*
X101613061Y-80916052D01*
X102160777Y-81025000D01*
X102719223Y-81025000D01*
X103266939Y-80916052D01*
X103782876Y-80702344D01*
X104247207Y-80392088D01*
X104642088Y-79997207D01*
X104952344Y-79532876D01*
X105166052Y-79016939D01*
X105275000Y-78469223D01*
X105275000Y-77910777D01*
X105166052Y-77363061D01*
X104952344Y-76847124D01*
X104642088Y-76382793D01*
X104247207Y-75987912D01*
X103782876Y-75677656D01*
X103266939Y-75463948D01*
X102719223Y-75355000D01*
X102160777Y-75355000D01*
X101613061Y-75463948D01*
X101097124Y-75677656D01*
X100632793Y-75987912D01*
X100237912Y-76382793D01*
X99927656Y-76847124D01*
X99713948Y-77363061D01*
X99605000Y-77910777D01*
X99600000Y-77910777D01*
X99600000Y-75722279D01*
X99609580Y-75624576D01*
X99628580Y-75561644D01*
X99659445Y-75503595D01*
X99700989Y-75452657D01*
X99751644Y-75410752D01*
X99809471Y-75379485D01*
X99872272Y-75360044D01*
X99967832Y-75350000D01*
X187907706Y-75351999D01*
%TA.AperFunction,Conductor*%
D29*
G36*
X187907706Y-75351999D02*
G01*
X188005424Y-75361580D01*
X188068356Y-75380580D01*
X188126405Y-75411445D01*
X188177343Y-75452989D01*
X188219248Y-75503644D01*
X188250515Y-75561471D01*
X188269956Y-75624272D01*
X188280000Y-75719835D01*
X188280001Y-105659711D01*
X188270420Y-105757424D01*
X188251420Y-105820357D01*
X188220554Y-105878406D01*
X188179011Y-105929343D01*
X188128356Y-105971248D01*
X188070529Y-106002515D01*
X188007728Y-106021956D01*
X187912168Y-106032000D01*
X99972294Y-106030001D01*
X99874576Y-106020420D01*
X99811643Y-106001420D01*
X99753594Y-105970554D01*
X99702657Y-105929011D01*
X99660752Y-105878356D01*
X99629485Y-105820529D01*
X99610044Y-105757728D01*
X99600000Y-105662165D01*
X99600000Y-102910777D01*
X99605000Y-102910777D01*
X99605000Y-103469223D01*
X99713948Y-104016939D01*
X99927656Y-104532876D01*
X100237912Y-104997207D01*
X100632793Y-105392088D01*
X101097124Y-105702344D01*
X101613061Y-105916052D01*
X102160777Y-106025000D01*
X102719223Y-106025000D01*
X103266939Y-105916052D01*
X103782876Y-105702344D01*
X104247207Y-105392088D01*
X104642088Y-104997207D01*
X104952344Y-104532876D01*
X105166052Y-104016939D01*
X105275000Y-103469223D01*
X105275000Y-102910777D01*
X105166052Y-102363061D01*
X104952344Y-101847124D01*
X104642088Y-101382793D01*
X104247207Y-100987912D01*
X103782876Y-100677656D01*
X103266939Y-100463948D01*
X102719223Y-100355000D01*
X102160777Y-100355000D01*
X101613061Y-100463948D01*
X101097124Y-100677656D01*
X100632793Y-100987912D01*
X100237912Y-101382793D01*
X99927656Y-101847124D01*
X99713948Y-102363061D01*
X99605000Y-102910777D01*
X99600000Y-102910777D01*
X99600000Y-96350000D01*
X99972419Y-96350000D01*
X100000329Y-96347251D01*
X100003308Y-96347272D01*
X100012479Y-96346373D01*
X100060648Y-96341310D01*
X100069383Y-96340450D01*
X100069674Y-96340362D01*
X100109527Y-96336173D01*
X100168152Y-96324139D01*
X100226884Y-96312936D01*
X100235706Y-96310272D01*
X100328925Y-96281416D01*
X100384075Y-96258233D01*
X100439537Y-96235825D01*
X100447666Y-96231502D01*
X100447670Y-96231500D01*
X100447673Y-96231498D01*
X100533511Y-96185086D01*
X100583098Y-96151638D01*
X100633156Y-96118881D01*
X100640297Y-96113057D01*
X100715486Y-96050855D01*
X100757639Y-96008406D01*
X100800371Y-95966561D01*
X100806245Y-95959460D01*
X100867921Y-95883840D01*
X100901052Y-95833975D01*
X100934825Y-95784650D01*
X100939208Y-95776544D01*
X100985020Y-95690383D01*
X101007809Y-95635091D01*
X101031378Y-95580102D01*
X101031595Y-95579402D01*
X103154250Y-95577000D01*
X103313000Y-95418250D01*
X103313000Y-93819000D01*
X103567000Y-93819000D01*
X103567000Y-95418250D01*
X103725750Y-95577000D01*
X106440000Y-95580072D01*
X106564482Y-95567812D01*
X106684180Y-95531502D01*
X106794494Y-95472537D01*
X106891185Y-95393185D01*
X106970537Y-95296494D01*
X107029502Y-95186180D01*
X107065812Y-95066482D01*
X107078072Y-94942000D01*
X107075000Y-93977750D01*
X106916250Y-93819000D01*
X103567000Y-93819000D01*
X103313000Y-93819000D01*
X103293000Y-93819000D01*
X103293000Y-93565000D01*
X103313000Y-93565000D01*
X103313000Y-93545000D01*
X103567000Y-93545000D01*
X103567000Y-93565000D01*
X106916250Y-93565000D01*
X107075000Y-93406250D01*
X107078072Y-92442000D01*
X107065812Y-92317518D01*
X107029502Y-92197820D01*
X106970537Y-92087506D01*
X106933604Y-92042503D01*
X107128727Y-91961680D01*
X107164148Y-91938013D01*
X107171248Y-91934719D01*
X107251279Y-91901737D01*
X107318272Y-91878493D01*
X107379229Y-91861806D01*
X107442862Y-91849053D01*
X107517900Y-91838945D01*
X107611174Y-91831317D01*
X107727341Y-91826286D01*
X107869344Y-91823696D01*
X108040355Y-91823000D01*
X108386145Y-91823000D01*
X108792707Y-91842973D01*
X109167755Y-91898606D01*
X109535550Y-91990733D01*
X109892549Y-92118470D01*
X110235303Y-92280580D01*
X110560520Y-92475507D01*
X110865057Y-92701367D01*
X111145999Y-92956000D01*
X111400632Y-93236942D01*
X111626492Y-93541479D01*
X111821421Y-93866699D01*
X111983529Y-94209448D01*
X112111263Y-94566443D01*
X112203394Y-94934246D01*
X112259026Y-95309292D01*
X112279000Y-95715861D01*
X112279000Y-97546358D01*
X112273188Y-97565518D01*
X112260928Y-97690000D01*
X112260928Y-99690000D01*
X112273188Y-99814482D01*
X112309498Y-99934180D01*
X112368463Y-100044494D01*
X112447815Y-100141185D01*
X112544506Y-100220537D01*
X112654820Y-100279502D01*
X112774518Y-100315812D01*
X112899000Y-100328072D01*
X113899000Y-100328072D01*
X114023482Y-100315812D01*
X114143180Y-100279502D01*
X114253494Y-100220537D01*
X114350185Y-100141185D01*
X114399000Y-100081704D01*
X114447815Y-100141185D01*
X114544506Y-100220537D01*
X114654820Y-100279502D01*
X114774518Y-100315812D01*
X114899000Y-100328072D01*
X115113250Y-100325000D01*
X115272000Y-100166250D01*
X115272000Y-98817000D01*
X115252000Y-98817000D01*
X115252000Y-98563000D01*
X115272000Y-98563000D01*
X115272000Y-97213750D01*
X115113250Y-97055000D01*
X114899000Y-97051928D01*
X114774518Y-97064188D01*
X114654820Y-97100498D01*
X114549000Y-97157061D01*
X114549000Y-95715839D01*
X114550368Y-95687991D01*
X114549000Y-95660145D01*
X114549000Y-95632248D01*
X114546266Y-95604484D01*
X114520820Y-95086536D01*
X114511455Y-95023403D01*
X114432460Y-94490861D01*
X114432458Y-94490853D01*
X114432457Y-94490846D01*
X114286139Y-93906712D01*
X114286137Y-93906705D01*
X114286135Y-93906699D01*
X114083267Y-93339720D01*
X114083263Y-93339711D01*
X114083261Y-93339706D01*
X113897429Y-92946796D01*
X113873768Y-92896770D01*
X113825796Y-92795342D01*
X113825792Y-92795336D01*
X113825790Y-92795331D01*
X113516208Y-92278823D01*
X113516202Y-92278815D01*
X113516199Y-92278810D01*
X113157480Y-91795134D01*
X113157479Y-91795133D01*
X113157471Y-91795122D01*
X112753070Y-91348936D01*
X112753066Y-91348933D01*
X112753063Y-91348929D01*
X112306877Y-90944528D01*
X112172297Y-90844716D01*
X112172295Y-90844715D01*
X111823189Y-90585800D01*
X111823184Y-90585797D01*
X111823176Y-90585791D01*
X111306668Y-90276209D01*
X111306659Y-90276205D01*
X111306656Y-90276203D01*
X110762292Y-90018738D01*
X110762291Y-90018738D01*
X110762279Y-90018732D01*
X110195299Y-89815864D01*
X110195287Y-89815860D01*
X109611152Y-89669541D01*
X109445412Y-89644956D01*
X109181202Y-89605764D01*
X109181201Y-89605764D01*
X109059334Y-89587687D01*
X109015474Y-89581181D01*
X109015473Y-89581181D01*
X109015460Y-89581179D01*
X108497516Y-89555735D01*
X108469752Y-89553000D01*
X108441853Y-89553000D01*
X108414006Y-89551632D01*
X108386158Y-89553000D01*
X108040361Y-89553000D01*
X107869345Y-89552303D01*
X107727341Y-89549713D01*
X107611174Y-89544682D01*
X107517900Y-89537054D01*
X107442862Y-89526946D01*
X107379229Y-89514193D01*
X107318272Y-89497506D01*
X107251279Y-89474262D01*
X107171249Y-89441280D01*
X107144563Y-89428901D01*
X107128727Y-89418320D01*
X106936054Y-89338512D01*
X106970537Y-89296494D01*
X107029502Y-89186180D01*
X107065812Y-89066482D01*
X107078072Y-88942000D01*
X107075000Y-87977750D01*
X106916250Y-87819000D01*
X103567000Y-87819000D01*
X103567000Y-87839000D01*
X103313000Y-87839000D01*
X103313000Y-87819000D01*
X103293000Y-87819000D01*
X103293000Y-87565000D01*
X103313000Y-87565000D01*
X103313000Y-85965750D01*
X103567000Y-85965750D01*
X103567000Y-87565000D01*
X106916250Y-87565000D01*
X107075000Y-87406250D01*
X107078072Y-86442000D01*
X107065812Y-86317518D01*
X107029502Y-86197820D01*
X106970537Y-86087506D01*
X106891185Y-85990815D01*
X106794494Y-85911463D01*
X106684180Y-85852498D01*
X106564482Y-85816188D01*
X106440000Y-85803928D01*
X103725750Y-85807000D01*
X103567000Y-85965750D01*
X103313000Y-85965750D01*
X103154250Y-85807000D01*
X101032507Y-85804599D01*
X101031416Y-85801075D01*
X101008238Y-85745937D01*
X100985825Y-85690463D01*
X100981498Y-85682327D01*
X100935085Y-85596489D01*
X100901645Y-85546913D01*
X100868881Y-85496844D01*
X100863057Y-85489703D01*
X100800855Y-85414514D01*
X100758406Y-85372361D01*
X100716561Y-85329629D01*
X100709460Y-85323755D01*
X100633839Y-85262079D01*
X100584034Y-85228988D01*
X100534650Y-85195174D01*
X100526544Y-85190792D01*
X100440383Y-85144980D01*
X100385091Y-85122191D01*
X100330102Y-85098622D01*
X100321299Y-85095897D01*
X100227881Y-85067692D01*
X100169174Y-85056067D01*
X100110684Y-85043635D01*
X100101530Y-85042673D01*
X100101524Y-85042672D01*
X100101519Y-85042672D01*
X100004402Y-85033150D01*
X99972419Y-85030000D01*
X99600000Y-85030000D01*
X99600000Y-83690000D01*
X112260928Y-83690000D01*
X112273188Y-83814482D01*
X112309498Y-83934180D01*
X112368463Y-84044494D01*
X112447815Y-84141185D01*
X112544506Y-84220537D01*
X112654820Y-84279502D01*
X112774518Y-84315812D01*
X112899000Y-84328072D01*
X113113250Y-84325000D01*
X113272000Y-84166250D01*
X113272000Y-82817000D01*
X112422750Y-82817000D01*
X112264000Y-82975750D01*
X112260928Y-83690000D01*
X99600000Y-83690000D01*
X99600000Y-81690000D01*
X112260928Y-81690000D01*
X112264000Y-82404250D01*
X112422750Y-82563000D01*
X113272000Y-82563000D01*
X113272000Y-81213750D01*
X113526000Y-81213750D01*
X113526000Y-82563000D01*
X113546000Y-82563000D01*
X113546000Y-82817000D01*
X113526000Y-82817000D01*
X113526000Y-84166250D01*
X113684750Y-84325000D01*
X113899000Y-84328072D01*
X114023482Y-84315812D01*
X114143180Y-84279502D01*
X114253494Y-84220537D01*
X114350185Y-84141185D01*
X114399000Y-84081704D01*
X114447815Y-84141185D01*
X114544506Y-84220537D01*
X114654820Y-84279502D01*
X114774518Y-84315812D01*
X114899000Y-84328072D01*
X115899000Y-84328072D01*
X116023482Y-84315812D01*
X116143180Y-84279502D01*
X116253494Y-84220537D01*
X116350185Y-84141185D01*
X116399000Y-84081704D01*
X116447815Y-84141185D01*
X116544506Y-84220537D01*
X116654820Y-84279502D01*
X116774518Y-84315812D01*
X116899000Y-84328072D01*
X117899000Y-84328072D01*
X118023482Y-84315812D01*
X118143180Y-84279502D01*
X118253494Y-84220537D01*
X118350185Y-84141185D01*
X118399000Y-84081704D01*
X118447815Y-84141185D01*
X118495031Y-84179934D01*
X118481795Y-84199744D01*
X118403774Y-84388102D01*
X118364000Y-84588061D01*
X118364000Y-84791939D01*
X118403774Y-84991898D01*
X118481795Y-85180256D01*
X118595063Y-85349774D01*
X118739226Y-85493937D01*
X118908744Y-85607205D01*
X119097102Y-85685226D01*
X119297061Y-85725000D01*
X119500939Y-85725000D01*
X119700898Y-85685226D01*
X119889256Y-85607205D01*
X120058774Y-85493937D01*
X120202937Y-85349774D01*
X120316205Y-85180256D01*
X120394226Y-84991898D01*
X120434000Y-84791939D01*
X120434000Y-84588061D01*
X120394226Y-84388102D01*
X120316205Y-84199744D01*
X120302969Y-84179934D01*
X120350185Y-84141185D01*
X120399000Y-84081704D01*
X120447815Y-84141185D01*
X120544506Y-84220537D01*
X120654820Y-84279502D01*
X120667681Y-84283403D01*
X120670246Y-84291859D01*
X120683049Y-84315812D01*
X120743139Y-84428233D01*
X120761444Y-84450537D01*
X120816655Y-84517812D01*
X120816659Y-84517816D01*
X120841237Y-84547764D01*
X120871185Y-84572342D01*
X122516658Y-86217816D01*
X122541236Y-86247764D01*
X122571184Y-86272342D01*
X122571187Y-86272345D01*
X122600559Y-86296450D01*
X122660767Y-86345862D01*
X122797140Y-86418754D01*
X122945113Y-86463641D01*
X123060439Y-86475000D01*
X123060446Y-86475000D01*
X123098999Y-86478797D01*
X123137552Y-86475000D01*
X125503843Y-86475000D01*
X122871190Y-89107653D01*
X122841236Y-89132236D01*
X122743138Y-89251768D01*
X122670246Y-89388141D01*
X122625359Y-89536114D01*
X122614000Y-89651440D01*
X122614000Y-89651447D01*
X122610203Y-89690000D01*
X122614000Y-89728553D01*
X122614001Y-97122317D01*
X122544506Y-97159463D01*
X122447815Y-97238815D01*
X122399000Y-97298296D01*
X122350185Y-97238815D01*
X122253494Y-97159463D01*
X122143180Y-97100498D01*
X122023482Y-97064188D01*
X121899000Y-97051928D01*
X120899000Y-97051928D01*
X120774518Y-97064188D01*
X120654820Y-97100498D01*
X120544506Y-97159463D01*
X120447815Y-97238815D01*
X120399000Y-97298296D01*
X120350185Y-97238815D01*
X120253494Y-97159463D01*
X120143180Y-97100498D01*
X120023482Y-97064188D01*
X119899000Y-97051928D01*
X118899000Y-97051928D01*
X118774518Y-97064188D01*
X118654820Y-97100498D01*
X118544506Y-97159463D01*
X118447815Y-97238815D01*
X118399000Y-97298296D01*
X118350185Y-97238815D01*
X118253494Y-97159463D01*
X118143180Y-97100498D01*
X118023482Y-97064188D01*
X117899000Y-97051928D01*
X116899000Y-97051928D01*
X116774518Y-97064188D01*
X116654820Y-97100498D01*
X116544506Y-97159463D01*
X116447815Y-97238815D01*
X116399000Y-97298296D01*
X116350185Y-97238815D01*
X116253494Y-97159463D01*
X116143180Y-97100498D01*
X116023482Y-97064188D01*
X115899000Y-97051928D01*
X115684750Y-97055000D01*
X115526000Y-97213750D01*
X115526000Y-98563000D01*
X115546000Y-98563000D01*
X115546000Y-98817000D01*
X115526000Y-98817000D01*
X115526000Y-100166250D01*
X115684750Y-100325000D01*
X115899000Y-100328072D01*
X116023482Y-100315812D01*
X116143180Y-100279502D01*
X116253494Y-100220537D01*
X116350185Y-100141185D01*
X116399000Y-100081704D01*
X116447815Y-100141185D01*
X116544506Y-100220537D01*
X116654820Y-100279502D01*
X116774518Y-100315812D01*
X116899000Y-100328072D01*
X117899000Y-100328072D01*
X118023482Y-100315812D01*
X118143180Y-100279502D01*
X118253494Y-100220537D01*
X118350185Y-100141185D01*
X118399000Y-100081704D01*
X118447815Y-100141185D01*
X118544506Y-100220537D01*
X118654820Y-100279502D01*
X118774518Y-100315812D01*
X118899000Y-100328072D01*
X119899000Y-100328072D01*
X120023482Y-100315812D01*
X120143180Y-100279502D01*
X120253494Y-100220537D01*
X120350185Y-100141185D01*
X120399000Y-100081704D01*
X120447815Y-100141185D01*
X120509932Y-100192163D01*
X120514000Y-100233469D01*
X120514000Y-100233476D01*
X120526805Y-100363489D01*
X120577411Y-100530312D01*
X120659589Y-100684058D01*
X120770183Y-100818817D01*
X120803956Y-100846534D01*
X123434470Y-103477049D01*
X123462183Y-103510817D01*
X123495951Y-103538530D01*
X123495953Y-103538532D01*
X123521320Y-103559350D01*
X123596941Y-103621411D01*
X123750687Y-103703589D01*
X123917510Y-103754195D01*
X124047523Y-103767000D01*
X124047531Y-103767000D01*
X124091000Y-103771281D01*
X124134469Y-103767000D01*
X129221005Y-103767000D01*
X129287038Y-103847462D01*
X129421614Y-103957905D01*
X129575150Y-104039972D01*
X129741746Y-104090508D01*
X129915000Y-104107572D01*
X130865000Y-104107572D01*
X131038254Y-104090508D01*
X131204850Y-104039972D01*
X131358386Y-103957905D01*
X131492962Y-103847462D01*
X131558995Y-103767000D01*
X149904531Y-103767000D01*
X149948000Y-103771281D01*
X149991469Y-103767000D01*
X149991477Y-103767000D01*
X150121490Y-103754195D01*
X150288313Y-103703589D01*
X150442059Y-103621411D01*
X150576817Y-103510817D01*
X150604534Y-103477044D01*
X154301040Y-99780539D01*
X154373740Y-99795000D01*
X154666260Y-99795000D01*
X154953158Y-99737932D01*
X155223411Y-99625990D01*
X155466632Y-99463475D01*
X155673475Y-99256632D01*
X155790000Y-99082240D01*
X155906525Y-99256632D01*
X156113368Y-99463475D01*
X156356589Y-99625990D01*
X156626842Y-99737932D01*
X156913740Y-99795000D01*
X157206260Y-99795000D01*
X157493158Y-99737932D01*
X157763411Y-99625990D01*
X158006632Y-99463475D01*
X158131710Y-99338397D01*
X158751208Y-99338397D01*
X158828843Y-99587472D01*
X159092883Y-99713371D01*
X159376411Y-99785339D01*
X159668531Y-99800611D01*
X159958019Y-99758599D01*
X160233747Y-99660919D01*
X160371157Y-99587472D01*
X160448792Y-99338397D01*
X159600000Y-98489605D01*
X158751208Y-99338397D01*
X158131710Y-99338397D01*
X158213475Y-99256632D01*
X158329311Y-99083271D01*
X158571603Y-99158792D01*
X159420395Y-98310000D01*
X159779605Y-98310000D01*
X160628397Y-99158792D01*
X160651928Y-99151458D01*
X160651928Y-99160000D01*
X160664188Y-99284482D01*
X160700498Y-99404180D01*
X160759463Y-99514494D01*
X160838815Y-99611185D01*
X160935506Y-99690537D01*
X161045820Y-99749502D01*
X161165518Y-99785812D01*
X161290000Y-99798072D01*
X162990000Y-99798072D01*
X163114482Y-99785812D01*
X163234180Y-99749502D01*
X163344494Y-99690537D01*
X163441185Y-99611185D01*
X163520537Y-99514494D01*
X163579502Y-99404180D01*
X163615812Y-99284482D01*
X163628072Y-99160000D01*
X163628072Y-97460000D01*
X163615812Y-97335518D01*
X163579502Y-97215820D01*
X163520537Y-97105506D01*
X163441185Y-97008815D01*
X163344494Y-96929463D01*
X163234180Y-96870498D01*
X163114482Y-96834188D01*
X162990000Y-96821928D01*
X161290000Y-96821928D01*
X161165518Y-96834188D01*
X161045820Y-96870498D01*
X160935506Y-96929463D01*
X160838815Y-97008815D01*
X160759463Y-97105506D01*
X160700498Y-97215820D01*
X160664188Y-97335518D01*
X160651928Y-97460000D01*
X160651928Y-97468542D01*
X160628397Y-97461208D01*
X159779605Y-98310000D01*
X159420395Y-98310000D01*
X158571603Y-97461208D01*
X158329311Y-97536729D01*
X158213475Y-97363368D01*
X158131710Y-97281603D01*
X158751208Y-97281603D01*
X159600000Y-98130395D01*
X160448792Y-97281603D01*
X160371157Y-97032528D01*
X160107117Y-96906629D01*
X159823589Y-96834661D01*
X159531469Y-96819389D01*
X159241981Y-96861401D01*
X158966253Y-96959081D01*
X158828843Y-97032528D01*
X158751208Y-97281603D01*
X158131710Y-97281603D01*
X158006632Y-97156525D01*
X157763411Y-96994010D01*
X157493158Y-96882068D01*
X157248230Y-96833348D01*
X159304579Y-94777000D01*
X168527913Y-94777000D01*
X168543992Y-94940255D01*
X168594528Y-95106851D01*
X168676595Y-95260387D01*
X168787038Y-95394962D01*
X168921613Y-95505405D01*
X169075149Y-95587472D01*
X169241745Y-95638008D01*
X169414999Y-95655072D01*
X170951494Y-95655072D01*
X171519586Y-96223164D01*
X171369000Y-96373750D01*
X171369000Y-97423000D01*
X172318250Y-97423000D01*
X172477000Y-97264250D01*
X172477616Y-97181195D01*
X172777001Y-97480580D01*
X172777000Y-98196530D01*
X172772719Y-98240000D01*
X172777000Y-98283469D01*
X172777000Y-98283476D01*
X172789805Y-98413489D01*
X172840411Y-98580312D01*
X172922589Y-98734058D01*
X173033183Y-98868817D01*
X173066956Y-98896534D01*
X174807470Y-100637049D01*
X174835183Y-100670817D01*
X174868951Y-100698530D01*
X174868953Y-100698532D01*
X174887997Y-100714161D01*
X174936912Y-100754304D01*
X174959463Y-100796494D01*
X175038815Y-100893185D01*
X175135506Y-100972537D01*
X175245820Y-101031502D01*
X175365518Y-101067812D01*
X175490000Y-101080072D01*
X175555001Y-101080072D01*
X175555001Y-101169170D01*
X174495244Y-102228928D01*
X174046250Y-102228928D01*
X173872996Y-102245992D01*
X173854815Y-102251507D01*
X173953205Y-102104256D01*
X174031226Y-101915898D01*
X174071000Y-101715939D01*
X174071000Y-101512061D01*
X174031226Y-101312102D01*
X173953205Y-101123744D01*
X173839937Y-100954226D01*
X173695774Y-100810063D01*
X173526256Y-100696795D01*
X173337898Y-100618774D01*
X173137939Y-100579000D01*
X173111158Y-100579000D01*
X172602345Y-100070188D01*
X172577764Y-100040236D01*
X172458233Y-99942138D01*
X172452127Y-99938874D01*
X172412472Y-99808149D01*
X172330405Y-99654613D01*
X172219962Y-99520038D01*
X172085387Y-99409595D01*
X171931851Y-99327528D01*
X171765255Y-99276992D01*
X171592001Y-99259928D01*
X170891999Y-99259928D01*
X170718745Y-99276992D01*
X170552149Y-99327528D01*
X170398613Y-99409595D01*
X170264038Y-99520038D01*
X170242000Y-99546891D01*
X170219962Y-99520038D01*
X170085387Y-99409595D01*
X170027000Y-99378386D01*
X170027000Y-98769614D01*
X170085387Y-98738405D01*
X170166637Y-98671724D01*
X170190815Y-98701185D01*
X170287506Y-98780537D01*
X170397820Y-98839502D01*
X170517518Y-98875812D01*
X170642000Y-98888072D01*
X170956250Y-98885000D01*
X171115000Y-98726250D01*
X171115000Y-97677000D01*
X171369000Y-97677000D01*
X171369000Y-98726250D01*
X171527750Y-98885000D01*
X171842000Y-98888072D01*
X171966482Y-98875812D01*
X172086180Y-98839502D01*
X172196494Y-98780537D01*
X172293185Y-98701185D01*
X172372537Y-98604494D01*
X172431502Y-98494180D01*
X172467812Y-98374482D01*
X172480072Y-98250000D01*
X172477000Y-97835750D01*
X172318250Y-97677000D01*
X171369000Y-97677000D01*
X171115000Y-97677000D01*
X171095000Y-97677000D01*
X171095000Y-97423000D01*
X171115000Y-97423000D01*
X171115000Y-96373750D01*
X170956250Y-96215000D01*
X170642000Y-96211928D01*
X170517518Y-96224188D01*
X170397820Y-96260498D01*
X170287506Y-96319463D01*
X170190815Y-96398815D01*
X170166637Y-96428276D01*
X170085387Y-96361595D01*
X169931851Y-96279528D01*
X169765255Y-96228992D01*
X169592001Y-96211928D01*
X168891999Y-96211928D01*
X168718745Y-96228992D01*
X168552149Y-96279528D01*
X168398613Y-96361595D01*
X168264038Y-96472038D01*
X168153595Y-96606613D01*
X168071528Y-96760149D01*
X168020992Y-96926745D01*
X168003928Y-97099999D01*
X168003928Y-98000001D01*
X168020992Y-98173255D01*
X168071528Y-98339851D01*
X168153595Y-98493387D01*
X168264038Y-98627962D01*
X168398613Y-98738405D01*
X168457000Y-98769614D01*
X168457001Y-99378386D01*
X168398613Y-99409595D01*
X168264038Y-99520038D01*
X168153595Y-99654613D01*
X168071528Y-99808149D01*
X168070056Y-99813000D01*
X167773711Y-99813000D01*
X167752774Y-99792063D01*
X167583256Y-99678795D01*
X167394898Y-99600774D01*
X167194939Y-99561000D01*
X166991061Y-99561000D01*
X166791102Y-99600774D01*
X166602744Y-99678795D01*
X166433226Y-99792063D01*
X166289063Y-99936226D01*
X166175795Y-100105744D01*
X166097774Y-100294102D01*
X166058000Y-100494061D01*
X166058000Y-100697939D01*
X166097774Y-100897898D01*
X166175795Y-101086256D01*
X166289063Y-101255774D01*
X166433226Y-101399937D01*
X166602744Y-101513205D01*
X166791102Y-101591226D01*
X166991061Y-101631000D01*
X167194939Y-101631000D01*
X167394898Y-101591226D01*
X167583256Y-101513205D01*
X167752774Y-101399937D01*
X167769711Y-101383000D01*
X168070056Y-101383000D01*
X168071528Y-101387851D01*
X168153595Y-101541387D01*
X168264038Y-101675962D01*
X168398613Y-101786405D01*
X168419501Y-101797570D01*
X168419500Y-102354068D01*
X168373614Y-102378595D01*
X168239038Y-102489038D01*
X168128595Y-102623614D01*
X168046528Y-102777150D01*
X167995992Y-102943746D01*
X167978928Y-103117000D01*
X167978928Y-104067000D01*
X167995992Y-104240254D01*
X168046528Y-104406850D01*
X168128595Y-104560386D01*
X168239038Y-104694962D01*
X168373614Y-104805405D01*
X168527150Y-104887472D01*
X168693746Y-104938008D01*
X168867000Y-104955072D01*
X169542000Y-104955072D01*
X169715254Y-104938008D01*
X169881850Y-104887472D01*
X170035386Y-104805405D01*
X170169962Y-104694962D01*
X170175342Y-104688406D01*
X170240815Y-104768185D01*
X170337506Y-104847537D01*
X170447820Y-104906502D01*
X170567518Y-104942812D01*
X170692000Y-104955072D01*
X170993750Y-104952000D01*
X171152500Y-104793250D01*
X171152500Y-103719000D01*
X171406500Y-103719000D01*
X171406500Y-104793250D01*
X171565250Y-104952000D01*
X171867000Y-104955072D01*
X171991482Y-104942812D01*
X172111180Y-104906502D01*
X172221494Y-104847537D01*
X172318185Y-104768185D01*
X172397537Y-104671494D01*
X172456502Y-104561180D01*
X172492812Y-104441482D01*
X172505072Y-104317000D01*
X172502000Y-103877750D01*
X172343250Y-103719000D01*
X171406500Y-103719000D01*
X171152500Y-103719000D01*
X171132500Y-103719000D01*
X171132500Y-103465000D01*
X171152500Y-103465000D01*
X171152500Y-102390750D01*
X171406500Y-102390750D01*
X171406500Y-103465000D01*
X172343250Y-103465000D01*
X172502000Y-103306250D01*
X172505072Y-102867000D01*
X172492812Y-102742518D01*
X172456502Y-102622820D01*
X172397537Y-102512506D01*
X172318185Y-102415815D01*
X172221494Y-102336463D01*
X172111180Y-102277498D01*
X171991482Y-102241188D01*
X171867000Y-102228928D01*
X171565250Y-102232000D01*
X171406500Y-102390750D01*
X171152500Y-102390750D01*
X170993750Y-102232000D01*
X170692000Y-102228928D01*
X170567518Y-102241188D01*
X170447820Y-102277498D01*
X170337506Y-102336463D01*
X170240815Y-102415815D01*
X170175342Y-102495594D01*
X170169962Y-102489038D01*
X170035386Y-102378595D01*
X169989500Y-102354068D01*
X169989500Y-101837658D01*
X170085387Y-101786405D01*
X170219962Y-101675962D01*
X170242000Y-101649109D01*
X170264038Y-101675962D01*
X170398613Y-101786405D01*
X170552149Y-101868472D01*
X170718745Y-101919008D01*
X170891999Y-101936072D01*
X171592001Y-101936072D01*
X171765255Y-101919008D01*
X171931851Y-101868472D01*
X172021779Y-101820404D01*
X172040774Y-101915898D01*
X172118795Y-102104256D01*
X172232063Y-102273774D01*
X172376226Y-102417937D01*
X172545744Y-102531205D01*
X172734102Y-102609226D01*
X172934061Y-102649000D01*
X173137939Y-102649000D01*
X173316093Y-102613563D01*
X173307845Y-102623614D01*
X173225778Y-102777150D01*
X173175242Y-102943746D01*
X173158178Y-103117000D01*
X173158178Y-104067000D01*
X173175242Y-104240254D01*
X173225778Y-104406850D01*
X173307845Y-104560386D01*
X173418288Y-104694962D01*
X173552864Y-104805405D01*
X173706400Y-104887472D01*
X173872996Y-104938008D01*
X174046250Y-104955072D01*
X174721250Y-104955072D01*
X174894504Y-104938008D01*
X175061100Y-104887472D01*
X175214636Y-104805405D01*
X175349212Y-104694962D01*
X175354592Y-104688406D01*
X175420065Y-104768185D01*
X175516756Y-104847537D01*
X175627070Y-104906502D01*
X175746768Y-104942812D01*
X175871250Y-104955072D01*
X176173000Y-104952000D01*
X176331750Y-104793250D01*
X176331750Y-103719000D01*
X176585750Y-103719000D01*
X176585750Y-104793250D01*
X176744500Y-104952000D01*
X177046250Y-104955072D01*
X177170732Y-104942812D01*
X177290430Y-104906502D01*
X177400744Y-104847537D01*
X177497435Y-104768185D01*
X177576787Y-104671494D01*
X177635752Y-104561180D01*
X177672062Y-104441482D01*
X177684322Y-104317000D01*
X177681250Y-103877750D01*
X177522500Y-103719000D01*
X176585750Y-103719000D01*
X176331750Y-103719000D01*
X176311750Y-103719000D01*
X176311750Y-103465000D01*
X176331750Y-103465000D01*
X176331750Y-103445000D01*
X176585750Y-103445000D01*
X176585750Y-103465000D01*
X177522500Y-103465000D01*
X177681250Y-103306250D01*
X177684322Y-102867000D01*
X177672062Y-102742518D01*
X177635752Y-102622820D01*
X177576787Y-102512506D01*
X177497435Y-102415815D01*
X177400744Y-102336463D01*
X177290430Y-102277498D01*
X177170732Y-102241188D01*
X177046250Y-102228928D01*
X176997909Y-102229420D01*
X177035049Y-102192280D01*
X177068817Y-102164567D01*
X177105157Y-102120288D01*
X177179411Y-102029809D01*
X177261589Y-101876064D01*
X177312195Y-101709240D01*
X177325000Y-101579227D01*
X177325000Y-101579219D01*
X177329281Y-101535750D01*
X177325000Y-101492281D01*
X177325000Y-101080072D01*
X177390000Y-101080072D01*
X177514482Y-101067812D01*
X177634180Y-101031502D01*
X177744494Y-100972537D01*
X177841185Y-100893185D01*
X177920537Y-100796494D01*
X177979502Y-100686180D01*
X178015812Y-100566482D01*
X178028072Y-100442000D01*
X178028072Y-99930095D01*
X178038815Y-99943185D01*
X178135506Y-100022537D01*
X178245820Y-100081502D01*
X178365518Y-100117812D01*
X178490000Y-100130072D01*
X178517501Y-100130072D01*
X178517501Y-101050851D01*
X178468795Y-101123744D01*
X178390774Y-101312102D01*
X178351000Y-101512061D01*
X178351000Y-101715939D01*
X178390774Y-101915898D01*
X178468795Y-102104256D01*
X178517500Y-102177149D01*
X178517500Y-102423005D01*
X178437038Y-102489038D01*
X178326595Y-102623614D01*
X178244528Y-102777150D01*
X178193992Y-102943746D01*
X178176928Y-103117000D01*
X178176928Y-104067000D01*
X178193992Y-104240254D01*
X178244528Y-104406850D01*
X178326595Y-104560386D01*
X178437038Y-104694962D01*
X178571614Y-104805405D01*
X178725150Y-104887472D01*
X178891746Y-104938008D01*
X179065000Y-104955072D01*
X179740000Y-104955072D01*
X179913254Y-104938008D01*
X180079850Y-104887472D01*
X180233386Y-104805405D01*
X180367962Y-104694962D01*
X180373342Y-104688406D01*
X180438815Y-104768185D01*
X180535506Y-104847537D01*
X180645820Y-104906502D01*
X180765518Y-104942812D01*
X180890000Y-104955072D01*
X181191750Y-104952000D01*
X181350500Y-104793250D01*
X181350500Y-103719000D01*
X181330500Y-103719000D01*
X181330500Y-103465000D01*
X181350500Y-103465000D01*
X181350500Y-102390750D01*
X181604500Y-102390750D01*
X181604500Y-103465000D01*
X181624500Y-103465000D01*
X181624500Y-103719000D01*
X181604500Y-103719000D01*
X181604500Y-104793250D01*
X181763250Y-104952000D01*
X182065000Y-104955072D01*
X182189482Y-104942812D01*
X182309180Y-104906502D01*
X182419494Y-104847537D01*
X182516185Y-104768185D01*
X182595537Y-104671494D01*
X182654502Y-104561180D01*
X182690812Y-104441482D01*
X182703072Y-104317000D01*
X182700515Y-103951408D01*
X182713948Y-104018939D01*
X182927656Y-104534876D01*
X183237912Y-104999207D01*
X183632793Y-105394088D01*
X184097124Y-105704344D01*
X184613061Y-105918052D01*
X185160777Y-106027000D01*
X185719223Y-106027000D01*
X186266939Y-105918052D01*
X186782876Y-105704344D01*
X187247207Y-105394088D01*
X187642088Y-104999207D01*
X187952344Y-104534876D01*
X188166052Y-104018939D01*
X188275000Y-103471223D01*
X188275000Y-102912777D01*
X188166052Y-102365061D01*
X187952344Y-101849124D01*
X187642088Y-101384793D01*
X187247207Y-100989912D01*
X186782876Y-100679656D01*
X186266939Y-100465948D01*
X185719223Y-100357000D01*
X185160777Y-100357000D01*
X184613061Y-100465948D01*
X184097124Y-100679656D01*
X183632793Y-100989912D01*
X183237912Y-101384793D01*
X182927656Y-101849124D01*
X182713948Y-102365061D01*
X182659439Y-102639095D01*
X182654502Y-102622820D01*
X182595537Y-102512506D01*
X182516185Y-102415815D01*
X182419494Y-102336463D01*
X182309180Y-102277498D01*
X182189482Y-102241188D01*
X182065000Y-102228928D01*
X181763250Y-102232000D01*
X181604500Y-102390750D01*
X181350500Y-102390750D01*
X181191750Y-102232000D01*
X180890000Y-102228928D01*
X180765518Y-102241188D01*
X180645820Y-102277498D01*
X180535506Y-102336463D01*
X180438815Y-102415815D01*
X180373342Y-102495594D01*
X180367962Y-102489038D01*
X180287500Y-102423005D01*
X180287500Y-102127760D01*
X180303205Y-102104256D01*
X180381226Y-101915898D01*
X180421000Y-101715939D01*
X180421000Y-101512061D01*
X180381226Y-101312102D01*
X180303205Y-101123744D01*
X180287500Y-101100240D01*
X180287500Y-100130072D01*
X180390000Y-100130072D01*
X180514482Y-100117812D01*
X180634180Y-100081502D01*
X180744494Y-100022537D01*
X180841185Y-99943185D01*
X180920537Y-99846494D01*
X180979502Y-99736180D01*
X181015812Y-99616482D01*
X181028072Y-99492000D01*
X181028072Y-98692000D01*
X181015812Y-98567518D01*
X180979502Y-98447820D01*
X180920537Y-98337506D01*
X180841185Y-98240815D01*
X180770650Y-98182928D01*
X181777303Y-97176275D01*
X183471538Y-97176275D01*
X183475409Y-97213948D01*
X183567579Y-97439199D01*
X183701922Y-97642140D01*
X183873275Y-97814973D01*
X184075054Y-97951056D01*
X184299504Y-98045159D01*
X184538000Y-98093666D01*
X184813000Y-98093666D01*
X184813000Y-96985666D01*
X185067000Y-96985666D01*
X185067000Y-98093666D01*
X185342000Y-98093666D01*
X185580496Y-98045159D01*
X185804946Y-97951056D01*
X186006725Y-97814973D01*
X186178078Y-97642140D01*
X186312421Y-97439199D01*
X186404591Y-97213948D01*
X186408462Y-97176275D01*
X186283731Y-96985666D01*
X185067000Y-96985666D01*
X184813000Y-96985666D01*
X183596269Y-96985666D01*
X183471538Y-97176275D01*
X181777303Y-97176275D01*
X183209913Y-95743666D01*
X183610746Y-95743666D01*
X183687038Y-95836628D01*
X183821613Y-95947071D01*
X183826406Y-95949633D01*
X183701922Y-96075192D01*
X183567579Y-96278133D01*
X183475409Y-96503384D01*
X183471538Y-96541057D01*
X183596269Y-96731666D01*
X184813000Y-96731666D01*
X184813000Y-96711666D01*
X185067000Y-96711666D01*
X185067000Y-96731666D01*
X186283731Y-96731666D01*
X186408462Y-96541057D01*
X186404591Y-96503384D01*
X186312421Y-96278133D01*
X186178078Y-96075192D01*
X186053594Y-95949633D01*
X186058387Y-95947071D01*
X186192962Y-95836628D01*
X186303405Y-95702053D01*
X186385472Y-95548517D01*
X186436008Y-95381921D01*
X186453072Y-95208667D01*
X186453072Y-94508665D01*
X186436008Y-94335411D01*
X186385472Y-94168815D01*
X186303405Y-94015279D01*
X186192962Y-93880704D01*
X186058387Y-93770261D01*
X185904851Y-93688194D01*
X185738255Y-93637658D01*
X185565001Y-93620594D01*
X184314999Y-93620594D01*
X184141745Y-93637658D01*
X183975149Y-93688194D01*
X183821613Y-93770261D01*
X183687038Y-93880704D01*
X183610746Y-93973666D01*
X182886799Y-93973666D01*
X182843333Y-93969385D01*
X182799867Y-93973666D01*
X182799857Y-93973666D01*
X182669844Y-93986471D01*
X182503021Y-94037077D01*
X182349275Y-94119255D01*
X182335900Y-94130232D01*
X182248287Y-94202134D01*
X182248285Y-94202136D01*
X182214517Y-94229849D01*
X182186804Y-94263617D01*
X178844951Y-97605471D01*
X178811184Y-97633183D01*
X178783471Y-97666951D01*
X178783468Y-97666954D01*
X178700590Y-97767941D01*
X178618412Y-97921687D01*
X178578296Y-98053928D01*
X178490000Y-98053928D01*
X178365518Y-98066188D01*
X178245820Y-98102498D01*
X178135506Y-98161463D01*
X178038815Y-98240815D01*
X177959463Y-98337506D01*
X177950857Y-98353607D01*
X177866250Y-98269000D01*
X176567000Y-98269000D01*
X176567000Y-98289000D01*
X176313000Y-98289000D01*
X176313000Y-98269000D01*
X175013750Y-98269000D01*
X174978164Y-98304586D01*
X174547000Y-97873422D01*
X174547000Y-97742000D01*
X174851928Y-97742000D01*
X174855000Y-97856250D01*
X175013750Y-98015000D01*
X176313000Y-98015000D01*
X176313000Y-97265750D01*
X176567000Y-97265750D01*
X176567000Y-98015000D01*
X177866250Y-98015000D01*
X178025000Y-97856250D01*
X178028072Y-97742000D01*
X178015812Y-97617518D01*
X177979502Y-97497820D01*
X177920537Y-97387506D01*
X177841185Y-97290815D01*
X177744494Y-97211463D01*
X177634180Y-97152498D01*
X177514482Y-97116188D01*
X177390000Y-97103928D01*
X176725750Y-97107000D01*
X176567000Y-97265750D01*
X176313000Y-97265750D01*
X176154250Y-97107000D01*
X175490000Y-97103928D01*
X175365518Y-97116188D01*
X175245820Y-97152498D01*
X175135506Y-97211463D01*
X175038815Y-97290815D01*
X174959463Y-97387506D01*
X174900498Y-97497820D01*
X174864188Y-97617518D01*
X174851928Y-97742000D01*
X174547000Y-97742000D01*
X174547000Y-97157465D01*
X174551281Y-97113999D01*
X174547000Y-97070533D01*
X174547000Y-97070523D01*
X174534195Y-96940510D01*
X174483589Y-96773687D01*
X174401411Y-96619941D01*
X174350344Y-96557716D01*
X174318532Y-96518953D01*
X174318530Y-96518951D01*
X174290817Y-96485183D01*
X174257049Y-96457470D01*
X172353072Y-94553494D01*
X172353072Y-93636061D01*
X173297000Y-93636061D01*
X173297000Y-93839939D01*
X173336774Y-94039898D01*
X173414795Y-94228256D01*
X173528063Y-94397774D01*
X173672226Y-94541937D01*
X173841744Y-94655205D01*
X174030102Y-94733226D01*
X174230061Y-94773000D01*
X174433939Y-94773000D01*
X174633898Y-94733226D01*
X174822256Y-94655205D01*
X174991774Y-94541937D01*
X175010711Y-94523000D01*
X176697335Y-94523000D01*
X176735498Y-94569502D01*
X176923551Y-94723833D01*
X177138099Y-94838511D01*
X177370898Y-94909130D01*
X177552335Y-94927000D01*
X178223665Y-94927000D01*
X178405102Y-94909130D01*
X178637901Y-94838511D01*
X178852449Y-94723833D01*
X179040502Y-94569502D01*
X179194833Y-94381449D01*
X179309511Y-94166901D01*
X179380130Y-93934102D01*
X179403975Y-93692000D01*
X179380130Y-93449898D01*
X179309511Y-93217099D01*
X179194833Y-93002551D01*
X179040502Y-92814498D01*
X178891238Y-92692000D01*
X179040502Y-92569502D01*
X179194833Y-92381449D01*
X179309511Y-92166901D01*
X179380130Y-91934102D01*
X179403975Y-91692000D01*
X179380130Y-91449898D01*
X179309511Y-91217099D01*
X179194833Y-91002551D01*
X179040502Y-90814498D01*
X178890652Y-90691519D01*
X178954725Y-90648307D01*
X179126078Y-90475474D01*
X179260421Y-90272533D01*
X179352591Y-90047282D01*
X179356462Y-90009609D01*
X179231731Y-89819000D01*
X178015000Y-89819000D01*
X178015000Y-89839000D01*
X177761000Y-89839000D01*
X177761000Y-89819000D01*
X176544269Y-89819000D01*
X176419538Y-90009609D01*
X176423409Y-90047282D01*
X176515579Y-90272533D01*
X176649922Y-90475474D01*
X176821275Y-90648307D01*
X176885348Y-90691519D01*
X176735498Y-90814498D01*
X176648094Y-90921000D01*
X176534711Y-90921000D01*
X176515774Y-90902063D01*
X176346256Y-90788795D01*
X176157898Y-90710774D01*
X175957939Y-90671000D01*
X175754061Y-90671000D01*
X175554102Y-90710774D01*
X175365744Y-90788795D01*
X175196226Y-90902063D01*
X175052063Y-91046226D01*
X174938795Y-91215744D01*
X174860774Y-91404102D01*
X174821000Y-91604061D01*
X174821000Y-91807939D01*
X174860774Y-92007898D01*
X174938795Y-92196256D01*
X175052063Y-92365774D01*
X175196226Y-92509937D01*
X175365744Y-92623205D01*
X175554102Y-92701226D01*
X175754061Y-92741000D01*
X175957939Y-92741000D01*
X176157898Y-92701226D01*
X176346256Y-92623205D01*
X176515774Y-92509937D01*
X176534711Y-92491000D01*
X176671073Y-92491000D01*
X176735498Y-92569502D01*
X176884762Y-92692000D01*
X176735498Y-92814498D01*
X176621832Y-92953000D01*
X175010711Y-92953000D01*
X174991774Y-92934063D01*
X174822256Y-92820795D01*
X174633898Y-92742774D01*
X174433939Y-92703000D01*
X174230061Y-92703000D01*
X174030102Y-92742774D01*
X173841744Y-92820795D01*
X173672226Y-92934063D01*
X173528063Y-93078226D01*
X173414795Y-93247744D01*
X173336774Y-93436102D01*
X173297000Y-93636061D01*
X172353072Y-93636061D01*
X172353072Y-93158506D01*
X174927050Y-90584528D01*
X174960817Y-90556817D01*
X175001738Y-90506956D01*
X175071410Y-90422060D01*
X175071411Y-90422059D01*
X175153589Y-90268313D01*
X175204195Y-90101490D01*
X175217000Y-89971477D01*
X175217000Y-89971467D01*
X175221281Y-89928001D01*
X175217000Y-89884535D01*
X175217000Y-88577000D01*
X176558746Y-88577000D01*
X176635038Y-88669962D01*
X176769613Y-88780405D01*
X176774406Y-88782967D01*
X176649922Y-88908526D01*
X176515579Y-89111467D01*
X176423409Y-89336718D01*
X176419538Y-89374391D01*
X176544269Y-89565000D01*
X177761000Y-89565000D01*
X177761000Y-89545000D01*
X178015000Y-89545000D01*
X178015000Y-89565000D01*
X179231731Y-89565000D01*
X179356462Y-89374391D01*
X179352591Y-89336718D01*
X179260421Y-89111467D01*
X179126078Y-88908526D01*
X179061056Y-88842942D01*
X183471538Y-88842942D01*
X183475409Y-88880615D01*
X183567579Y-89105866D01*
X183701922Y-89308807D01*
X183873275Y-89481640D01*
X184075054Y-89617723D01*
X184299504Y-89711826D01*
X184538000Y-89760333D01*
X184813000Y-89760333D01*
X184813000Y-88652333D01*
X185067000Y-88652333D01*
X185067000Y-89760333D01*
X185342000Y-89760333D01*
X185580496Y-89711826D01*
X185804946Y-89617723D01*
X186006725Y-89481640D01*
X186178078Y-89308807D01*
X186312421Y-89105866D01*
X186404591Y-88880615D01*
X186408462Y-88842942D01*
X186283731Y-88652333D01*
X185067000Y-88652333D01*
X184813000Y-88652333D01*
X183596269Y-88652333D01*
X183471538Y-88842942D01*
X179061056Y-88842942D01*
X179001594Y-88782967D01*
X179006387Y-88780405D01*
X179140962Y-88669962D01*
X179251405Y-88535387D01*
X179333472Y-88381851D01*
X179384008Y-88215255D01*
X179401072Y-88042001D01*
X179401072Y-87341999D01*
X179384008Y-87168745D01*
X179333472Y-87002149D01*
X179251405Y-86848613D01*
X179140962Y-86714038D01*
X179006387Y-86603595D01*
X178852851Y-86521528D01*
X178773000Y-86497306D01*
X178773000Y-86273000D01*
X180860531Y-86273000D01*
X180904000Y-86277281D01*
X180947469Y-86273000D01*
X180947477Y-86273000D01*
X181077490Y-86260195D01*
X181244313Y-86209589D01*
X181398059Y-86127411D01*
X181532817Y-86016817D01*
X181560534Y-85983044D01*
X182133246Y-85410333D01*
X183610746Y-85410333D01*
X183687038Y-85503295D01*
X183821613Y-85613738D01*
X183826111Y-85616142D01*
X183787498Y-85647831D01*
X183633167Y-85835884D01*
X183518489Y-86050432D01*
X183447870Y-86283231D01*
X183424025Y-86525333D01*
X183447870Y-86767435D01*
X183518489Y-87000234D01*
X183633167Y-87214782D01*
X183787498Y-87402835D01*
X183937348Y-87525814D01*
X183873275Y-87569026D01*
X183701922Y-87741859D01*
X183567579Y-87944800D01*
X183475409Y-88170051D01*
X183471538Y-88207724D01*
X183596269Y-88398333D01*
X184813000Y-88398333D01*
X184813000Y-88378333D01*
X185067000Y-88378333D01*
X185067000Y-88398333D01*
X186283731Y-88398333D01*
X186408462Y-88207724D01*
X186404591Y-88170051D01*
X186312421Y-87944800D01*
X186178078Y-87741859D01*
X186006725Y-87569026D01*
X185942652Y-87525814D01*
X186092502Y-87402835D01*
X186246833Y-87214782D01*
X186361511Y-87000234D01*
X186432130Y-86767435D01*
X186455975Y-86525333D01*
X186432130Y-86283231D01*
X186361511Y-86050432D01*
X186246833Y-85835884D01*
X186092502Y-85647831D01*
X186053889Y-85616142D01*
X186058387Y-85613738D01*
X186192962Y-85503295D01*
X186303405Y-85368720D01*
X186385472Y-85215184D01*
X186436008Y-85048588D01*
X186453072Y-84875334D01*
X186453072Y-84175332D01*
X186436008Y-84002078D01*
X186385472Y-83835482D01*
X186303405Y-83681946D01*
X186192962Y-83547371D01*
X186058387Y-83436928D01*
X185904851Y-83354861D01*
X185738255Y-83304325D01*
X185565001Y-83287261D01*
X184314999Y-83287261D01*
X184141745Y-83304325D01*
X183975149Y-83354861D01*
X183821613Y-83436928D01*
X183687038Y-83547371D01*
X183610746Y-83640333D01*
X181810132Y-83640333D01*
X181766666Y-83636052D01*
X181723200Y-83640333D01*
X181723190Y-83640333D01*
X181593177Y-83653138D01*
X181426354Y-83703744D01*
X181272608Y-83785922D01*
X181272606Y-83785923D01*
X181272607Y-83785923D01*
X181171620Y-83868801D01*
X181171618Y-83868803D01*
X181137850Y-83896516D01*
X181110137Y-83930284D01*
X180537422Y-84503000D01*
X179249000Y-84503000D01*
X179249000Y-84351254D01*
X179341962Y-84274962D01*
X179452405Y-84140387D01*
X179534472Y-83986851D01*
X179585008Y-83820255D01*
X179602072Y-83647001D01*
X179602072Y-82746999D01*
X179585008Y-82573745D01*
X179534472Y-82407149D01*
X179452405Y-82253613D01*
X179341962Y-82119038D01*
X179249000Y-82042746D01*
X179249000Y-81366754D01*
X179341962Y-81290462D01*
X179452405Y-81155887D01*
X179534472Y-81002351D01*
X179585008Y-80835755D01*
X179602072Y-80662501D01*
X179602072Y-79762499D01*
X179585008Y-79589245D01*
X179534472Y-79422649D01*
X179452405Y-79269113D01*
X179341962Y-79134538D01*
X179249000Y-79058246D01*
X179249000Y-78382254D01*
X179341962Y-78305962D01*
X179452405Y-78171387D01*
X179534472Y-78017851D01*
X179566345Y-77912777D01*
X182605000Y-77912777D01*
X182605000Y-78471223D01*
X182713948Y-79018939D01*
X182927656Y-79534876D01*
X183237912Y-79999207D01*
X183632793Y-80394088D01*
X184097124Y-80704344D01*
X184613061Y-80918052D01*
X185160777Y-81027000D01*
X185719223Y-81027000D01*
X186266939Y-80918052D01*
X186782876Y-80704344D01*
X187247207Y-80394088D01*
X187642088Y-79999207D01*
X187952344Y-79534876D01*
X188166052Y-79018939D01*
X188275000Y-78471223D01*
X188275000Y-77912777D01*
X188166052Y-77365061D01*
X187952344Y-76849124D01*
X187642088Y-76384793D01*
X187247207Y-75989912D01*
X186782876Y-75679656D01*
X186266939Y-75465948D01*
X185719223Y-75357000D01*
X185160777Y-75357000D01*
X184613061Y-75465948D01*
X184097124Y-75679656D01*
X183632793Y-75989912D01*
X183237912Y-76384793D01*
X182927656Y-76849124D01*
X182713948Y-77365061D01*
X182605000Y-77912777D01*
X179566345Y-77912777D01*
X179585008Y-77851255D01*
X179602072Y-77678001D01*
X179602072Y-76777999D01*
X179585008Y-76604745D01*
X179534472Y-76438149D01*
X179452405Y-76284613D01*
X179341962Y-76150038D01*
X179207387Y-76039595D01*
X179053851Y-75957528D01*
X178887255Y-75906992D01*
X178714001Y-75889928D01*
X178013999Y-75889928D01*
X177840745Y-75906992D01*
X177674149Y-75957528D01*
X177520613Y-76039595D01*
X177386038Y-76150038D01*
X177364000Y-76176891D01*
X177341962Y-76150038D01*
X177207387Y-76039595D01*
X177053851Y-75957528D01*
X176887255Y-75906992D01*
X176714001Y-75889928D01*
X176013999Y-75889928D01*
X175840745Y-75906992D01*
X175674149Y-75957528D01*
X175520613Y-76039595D01*
X175386038Y-76150038D01*
X175275595Y-76284613D01*
X175193528Y-76438149D01*
X175192056Y-76443000D01*
X147700556Y-76443000D01*
X147662000Y-76439203D01*
X147623444Y-76443000D01*
X147623439Y-76443000D01*
X147583026Y-76446980D01*
X147508113Y-76454358D01*
X147360140Y-76499246D01*
X147223767Y-76572138D01*
X147104236Y-76670236D01*
X147079653Y-76700190D01*
X142156918Y-81622925D01*
X141966260Y-81585000D01*
X141673740Y-81585000D01*
X141386842Y-81642068D01*
X141116589Y-81754010D01*
X140873368Y-81916525D01*
X140666525Y-82123368D01*
X140550000Y-82297760D01*
X140433475Y-82123368D01*
X140226632Y-81916525D01*
X139983411Y-81754010D01*
X139713158Y-81642068D01*
X139426260Y-81585000D01*
X139133740Y-81585000D01*
X138846842Y-81642068D01*
X138576589Y-81754010D01*
X138333368Y-81916525D01*
X138126525Y-82123368D01*
X138010000Y-82297760D01*
X137893475Y-82123368D01*
X137686632Y-81916525D01*
X137443411Y-81754010D01*
X137173158Y-81642068D01*
X136886260Y-81585000D01*
X136593740Y-81585000D01*
X136306842Y-81642068D01*
X136036589Y-81754010D01*
X135793368Y-81916525D01*
X135586525Y-82123368D01*
X135470000Y-82297760D01*
X135353475Y-82123368D01*
X135146632Y-81916525D01*
X134903411Y-81754010D01*
X134633158Y-81642068D01*
X134346260Y-81585000D01*
X134053740Y-81585000D01*
X133863082Y-81622924D01*
X131734347Y-79494190D01*
X131709764Y-79464236D01*
X131590233Y-79366138D01*
X131453860Y-79293246D01*
X131305887Y-79248359D01*
X131190561Y-79237000D01*
X131190553Y-79237000D01*
X131152000Y-79233203D01*
X131113447Y-79237000D01*
X118805552Y-79237000D01*
X118766999Y-79233203D01*
X118728446Y-79237000D01*
X118728439Y-79237000D01*
X118627490Y-79246943D01*
X118613112Y-79248359D01*
X118486396Y-79286798D01*
X118465140Y-79293246D01*
X118328767Y-79366138D01*
X118268980Y-79415205D01*
X118239187Y-79439655D01*
X118239184Y-79439658D01*
X118209236Y-79464236D01*
X118184658Y-79494184D01*
X116871185Y-80807658D01*
X116841237Y-80832236D01*
X116816659Y-80862184D01*
X116816655Y-80862188D01*
X116783690Y-80902356D01*
X116743139Y-80951767D01*
X116717954Y-80998885D01*
X116670246Y-81088141D01*
X116667681Y-81096597D01*
X116654820Y-81100498D01*
X116544506Y-81159463D01*
X116447815Y-81238815D01*
X116399000Y-81298296D01*
X116350185Y-81238815D01*
X116253494Y-81159463D01*
X116143180Y-81100498D01*
X116023482Y-81064188D01*
X115899000Y-81051928D01*
X114899000Y-81051928D01*
X114774518Y-81064188D01*
X114654820Y-81100498D01*
X114544506Y-81159463D01*
X114447815Y-81238815D01*
X114399000Y-81298296D01*
X114350185Y-81238815D01*
X114253494Y-81159463D01*
X114143180Y-81100498D01*
X114023482Y-81064188D01*
X113899000Y-81051928D01*
X113684750Y-81055000D01*
X113526000Y-81213750D01*
X113272000Y-81213750D01*
X113113250Y-81055000D01*
X112899000Y-81051928D01*
X112774518Y-81064188D01*
X112654820Y-81100498D01*
X112544506Y-81159463D01*
X112447815Y-81238815D01*
X112368463Y-81335506D01*
X112309498Y-81445820D01*
X112273188Y-81565518D01*
X112260928Y-81690000D01*
X99600000Y-81690000D01*
X99600000Y-77910777D01*
X99605000Y-77910777D01*
X99605000Y-78469223D01*
X99713948Y-79016939D01*
X99927656Y-79532876D01*
X100237912Y-79997207D01*
X100632793Y-80392088D01*
X101097124Y-80702344D01*
X101613061Y-80916052D01*
X102160777Y-81025000D01*
X102719223Y-81025000D01*
X103266939Y-80916052D01*
X103782876Y-80702344D01*
X104247207Y-80392088D01*
X104642088Y-79997207D01*
X104952344Y-79532876D01*
X105166052Y-79016939D01*
X105275000Y-78469223D01*
X105275000Y-77910777D01*
X105166052Y-77363061D01*
X104952344Y-76847124D01*
X104642088Y-76382793D01*
X104247207Y-75987912D01*
X103782876Y-75677656D01*
X103266939Y-75463948D01*
X102719223Y-75355000D01*
X102160777Y-75355000D01*
X101613061Y-75463948D01*
X101097124Y-75677656D01*
X100632793Y-75987912D01*
X100237912Y-76382793D01*
X99927656Y-76847124D01*
X99713948Y-77363061D01*
X99605000Y-77910777D01*
X99600000Y-77910777D01*
X99600000Y-75722279D01*
X99609580Y-75624576D01*
X99628580Y-75561644D01*
X99659445Y-75503595D01*
X99700989Y-75452657D01*
X99751644Y-75410752D01*
X99809471Y-75379485D01*
X99872272Y-75360044D01*
X99967832Y-75350000D01*
X187907706Y-75351999D01*
G37*
%TD.AperFunction*%
D30*
X169697725Y-78075118D02*
X169604728Y-78284663D01*
X169596036Y-78346190D01*
X169721837Y-78525000D01*
X170813000Y-78525000D01*
X170813000Y-78505000D01*
X171067000Y-78505000D01*
X171067000Y-78525000D01*
X172158163Y-78525000D01*
X172283964Y-78346190D01*
X172275272Y-78284663D01*
X172182275Y-78075118D01*
X172138485Y-78013000D01*
X175192056Y-78013000D01*
X175193528Y-78017851D01*
X175275595Y-78171387D01*
X175354553Y-78267597D01*
X175329000Y-78396061D01*
X175329000Y-78599939D01*
X175368774Y-78799898D01*
X175446795Y-78988256D01*
X175488404Y-79050528D01*
X175386038Y-79134538D01*
X175275595Y-79269113D01*
X175193528Y-79422649D01*
X175142992Y-79589245D01*
X175125928Y-79762499D01*
X175125928Y-80340414D01*
X173804185Y-81662158D01*
X173774237Y-81686736D01*
X173749659Y-81716684D01*
X173749655Y-81716688D01*
X173719026Y-81754010D01*
X173676139Y-81806267D01*
X173638871Y-81875992D01*
X173603246Y-81942641D01*
X173558359Y-82090614D01*
X173543203Y-82244500D01*
X173547001Y-82283063D01*
X173547000Y-84423289D01*
X173528063Y-84442226D01*
X173414795Y-84611744D01*
X173336774Y-84800102D01*
X173297000Y-85000061D01*
X173297000Y-85101421D01*
X171825000Y-83629422D01*
X171825000Y-82339621D01*
X171934180Y-82306502D01*
X172044494Y-82247537D01*
X172141185Y-82168185D01*
X172220537Y-82071494D01*
X172279502Y-81961180D01*
X172315812Y-81841482D01*
X172328072Y-81717000D01*
X172328072Y-80667000D01*
X172315812Y-80542518D01*
X172279502Y-80422820D01*
X172244907Y-80358098D01*
X172308215Y-80149400D01*
X172330612Y-79922000D01*
X172308215Y-79694600D01*
X172241885Y-79475940D01*
X172141071Y-79287331D01*
X172182275Y-79228882D01*
X172275272Y-79019337D01*
X172283964Y-78957810D01*
X172158163Y-78779000D01*
X171393109Y-78779000D01*
X171392400Y-78778785D01*
X171221979Y-78762000D01*
X170658021Y-78762000D01*
X170487600Y-78778785D01*
X170486891Y-78779000D01*
X169721837Y-78779000D01*
X169596036Y-78957810D01*
X169604728Y-79019337D01*
X169697725Y-79228882D01*
X169738929Y-79287331D01*
X169638115Y-79475940D01*
X169571785Y-79694600D01*
X169549388Y-79922000D01*
X169571785Y-80149400D01*
X169635093Y-80358098D01*
X169600498Y-80422820D01*
X169564188Y-80542518D01*
X169551928Y-80667000D01*
X169551928Y-81717000D01*
X169564188Y-81841482D01*
X169600498Y-81961180D01*
X169659463Y-82071494D01*
X169738815Y-82168185D01*
X169835506Y-82247537D01*
X169945820Y-82306502D01*
X170055000Y-82339622D01*
X170055001Y-83952521D01*
X170050719Y-83996000D01*
X170067805Y-84169490D01*
X170118412Y-84336313D01*
X170200590Y-84490059D01*
X170283468Y-84591046D01*
X170283471Y-84591049D01*
X170311184Y-84624817D01*
X170344951Y-84652529D01*
X171422259Y-85729837D01*
X170725750Y-85732000D01*
X170567000Y-85890750D01*
X170567000Y-87365000D01*
X172191250Y-87365000D01*
X172350000Y-87206250D01*
X172352001Y-86659580D01*
X173447000Y-87754579D01*
X173447000Y-87852531D01*
X173442719Y-87896000D01*
X173447000Y-87939469D01*
X173447000Y-87939476D01*
X173447001Y-87939486D01*
X173447000Y-89561421D01*
X170879494Y-92128928D01*
X169414999Y-92128928D01*
X169241745Y-92145992D01*
X169075149Y-92196528D01*
X168921613Y-92278595D01*
X168787038Y-92389038D01*
X168676595Y-92523613D01*
X168594528Y-92677149D01*
X168543992Y-92843745D01*
X168527913Y-93007000D01*
X158981469Y-93007000D01*
X158938000Y-93002719D01*
X158894531Y-93007000D01*
X158894523Y-93007000D01*
X158764510Y-93019805D01*
X158597686Y-93070411D01*
X158443941Y-93152589D01*
X158342953Y-93235468D01*
X158342951Y-93235470D01*
X158309183Y-93263183D01*
X158281470Y-93296951D01*
X154738961Y-96839461D01*
X154666260Y-96825000D01*
X154373740Y-96825000D01*
X154275582Y-96844525D01*
X154403475Y-96716632D01*
X154565990Y-96473411D01*
X154677932Y-96203158D01*
X154735000Y-95916260D01*
X154735000Y-95623740D01*
X154677932Y-95336842D01*
X154565990Y-95066589D01*
X154403475Y-94823368D01*
X154196632Y-94616525D01*
X153953411Y-94454010D01*
X153683158Y-94342068D01*
X153396260Y-94285000D01*
X153103740Y-94285000D01*
X152816842Y-94342068D01*
X152546589Y-94454010D01*
X152303368Y-94616525D01*
X152096525Y-94823368D01*
X151980000Y-94997760D01*
X151863475Y-94823368D01*
X151656632Y-94616525D01*
X151413411Y-94454010D01*
X151143158Y-94342068D01*
X150856260Y-94285000D01*
X150563740Y-94285000D01*
X150276842Y-94342068D01*
X150006589Y-94454010D01*
X149763368Y-94616525D01*
X149556525Y-94823368D01*
X149394010Y-95066589D01*
X149282068Y-95336842D01*
X149225000Y-95623740D01*
X149225000Y-95916260D01*
X149282068Y-96203158D01*
X149394010Y-96473411D01*
X149556525Y-96716632D01*
X149684418Y-96844525D01*
X149586260Y-96825000D01*
X149293740Y-96825000D01*
X149006842Y-96882068D01*
X148736589Y-96994010D01*
X148493368Y-97156525D01*
X148286525Y-97363368D01*
X148170000Y-97537760D01*
X148053475Y-97363368D01*
X147846632Y-97156525D01*
X147603411Y-96994010D01*
X147333158Y-96882068D01*
X147046260Y-96825000D01*
X146753740Y-96825000D01*
X146466842Y-96882068D01*
X146196589Y-96994010D01*
X145953368Y-97156525D01*
X145746525Y-97363368D01*
X145630000Y-97537760D01*
X145513475Y-97363368D01*
X145306632Y-97156525D01*
X145063411Y-96994010D01*
X144793158Y-96882068D01*
X144506260Y-96825000D01*
X144213740Y-96825000D01*
X143926842Y-96882068D01*
X143656589Y-96994010D01*
X143413368Y-97156525D01*
X143206525Y-97363368D01*
X143090000Y-97537760D01*
X142973475Y-97363368D01*
X142766632Y-97156525D01*
X142523411Y-96994010D01*
X142253158Y-96882068D01*
X141966260Y-96825000D01*
X141673740Y-96825000D01*
X141386842Y-96882068D01*
X141116589Y-96994010D01*
X140873368Y-97156525D01*
X140666525Y-97363368D01*
X140550000Y-97537760D01*
X140433475Y-97363368D01*
X140226632Y-97156525D01*
X139983411Y-96994010D01*
X139713158Y-96882068D01*
X139426260Y-96825000D01*
X139133740Y-96825000D01*
X138846842Y-96882068D01*
X138576589Y-96994010D01*
X138333368Y-97156525D01*
X138126525Y-97363368D01*
X138010000Y-97537760D01*
X137893475Y-97363368D01*
X137686632Y-97156525D01*
X137443411Y-96994010D01*
X137173158Y-96882068D01*
X136886260Y-96825000D01*
X136593740Y-96825000D01*
X136306842Y-96882068D01*
X136036589Y-96994010D01*
X135793368Y-97156525D01*
X135586525Y-97363368D01*
X135470000Y-97537760D01*
X135353475Y-97363368D01*
X135146632Y-97156525D01*
X134972240Y-97040000D01*
X135146632Y-96923475D01*
X135353475Y-96716632D01*
X135515990Y-96473411D01*
X135627932Y-96203158D01*
X135685000Y-95916260D01*
X135685000Y-95623740D01*
X135627932Y-95336842D01*
X135515990Y-95066589D01*
X135353475Y-94823368D01*
X135146632Y-94616525D01*
X134972240Y-94500000D01*
X135146632Y-94383475D01*
X135353475Y-94176632D01*
X135515990Y-93933411D01*
X135627932Y-93663158D01*
X135685000Y-93376260D01*
X135685000Y-93083740D01*
X135627932Y-92796842D01*
X135515990Y-92526589D01*
X135353475Y-92283368D01*
X135221620Y-92151513D01*
X135294180Y-92129502D01*
X135404494Y-92070537D01*
X135501185Y-91991185D01*
X135580537Y-91894494D01*
X135639502Y-91784180D01*
X135675812Y-91664482D01*
X135688072Y-91540000D01*
X135685000Y-90975750D01*
X135526250Y-90817000D01*
X134327000Y-90817000D01*
X134327000Y-90837000D01*
X134073000Y-90837000D01*
X134073000Y-90817000D01*
X132873750Y-90817000D01*
X132715000Y-90975750D01*
X132711928Y-91540000D01*
X132724188Y-91664482D01*
X132760498Y-91784180D01*
X132819463Y-91894494D01*
X132898815Y-91991185D01*
X132995506Y-92070537D01*
X133105820Y-92129502D01*
X133178380Y-92151513D01*
X133046525Y-92283368D01*
X132884010Y-92526589D01*
X132772068Y-92796842D01*
X132715000Y-93083740D01*
X132715000Y-93376260D01*
X132772068Y-93663158D01*
X132884010Y-93933411D01*
X133046525Y-94176632D01*
X133253368Y-94383475D01*
X133427760Y-94500000D01*
X133253368Y-94616525D01*
X133046525Y-94823368D01*
X132884010Y-95066589D01*
X132772068Y-95336842D01*
X132715000Y-95623740D01*
X132715000Y-95916260D01*
X132772068Y-96203158D01*
X132884010Y-96473411D01*
X133046525Y-96716632D01*
X133253368Y-96923475D01*
X133427760Y-97040000D01*
X133253368Y-97156525D01*
X133046525Y-97363368D01*
X132884010Y-97606589D01*
X132772068Y-97876842D01*
X132715000Y-98163740D01*
X132715000Y-98456260D01*
X132772068Y-98743158D01*
X132884010Y-99013411D01*
X133046525Y-99256632D01*
X133253368Y-99463475D01*
X133496589Y-99625990D01*
X133766842Y-99737932D01*
X134053740Y-99795000D01*
X134346260Y-99795000D01*
X134633158Y-99737932D01*
X134903411Y-99625990D01*
X135146632Y-99463475D01*
X135353475Y-99256632D01*
X135470000Y-99082240D01*
X135586525Y-99256632D01*
X135793368Y-99463475D01*
X136036589Y-99625990D01*
X136306842Y-99737932D01*
X136593740Y-99795000D01*
X136886260Y-99795000D01*
X137173158Y-99737932D01*
X137443411Y-99625990D01*
X137686632Y-99463475D01*
X137893475Y-99256632D01*
X138010000Y-99082240D01*
X138126525Y-99256632D01*
X138333368Y-99463475D01*
X138576589Y-99625990D01*
X138846842Y-99737932D01*
X139133740Y-99795000D01*
X139426260Y-99795000D01*
X139713158Y-99737932D01*
X139983411Y-99625990D01*
X140226632Y-99463475D01*
X140433475Y-99256632D01*
X140550000Y-99082240D01*
X140666525Y-99256632D01*
X140873368Y-99463475D01*
X141116589Y-99625990D01*
X141386842Y-99737932D01*
X141673740Y-99795000D01*
X141966260Y-99795000D01*
X142253158Y-99737932D01*
X142523411Y-99625990D01*
X142766632Y-99463475D01*
X142973475Y-99256632D01*
X143090000Y-99082240D01*
X143206525Y-99256632D01*
X143413368Y-99463475D01*
X143575000Y-99571474D01*
X143575000Y-99917289D01*
X143556063Y-99936226D01*
X143442795Y-100105744D01*
X143364774Y-100294102D01*
X143325000Y-100494061D01*
X143325000Y-100697939D01*
X143364774Y-100897898D01*
X143442795Y-101086256D01*
X143556063Y-101255774D01*
X143700226Y-101399937D01*
X143869744Y-101513205D01*
X144058102Y-101591226D01*
X144258061Y-101631000D01*
X144461939Y-101631000D01*
X144661898Y-101591226D01*
X144850256Y-101513205D01*
X145019774Y-101399937D01*
X145163937Y-101255774D01*
X145277205Y-101086256D01*
X145355226Y-100897898D01*
X145395000Y-100697939D01*
X145395000Y-100494061D01*
X145355226Y-100294102D01*
X145277205Y-100105744D01*
X145163937Y-99936226D01*
X145145000Y-99917289D01*
X145145000Y-99571474D01*
X145306632Y-99463475D01*
X145513475Y-99256632D01*
X145630000Y-99082240D01*
X145746525Y-99256632D01*
X145953368Y-99463475D01*
X146196589Y-99625990D01*
X146466842Y-99737932D01*
X146753740Y-99795000D01*
X147046260Y-99795000D01*
X147333158Y-99737932D01*
X147603411Y-99625990D01*
X147846632Y-99463475D01*
X148053475Y-99256632D01*
X148170000Y-99082240D01*
X148286525Y-99256632D01*
X148493368Y-99463475D01*
X148736589Y-99625990D01*
X149006842Y-99737932D01*
X149293740Y-99795000D01*
X149586260Y-99795000D01*
X149873158Y-99737932D01*
X150143411Y-99625990D01*
X150386632Y-99463475D01*
X150593475Y-99256632D01*
X150710000Y-99082240D01*
X150826525Y-99256632D01*
X151033368Y-99463475D01*
X151276589Y-99625990D01*
X151546842Y-99737932D01*
X151791770Y-99786652D01*
X149581422Y-101997000D01*
X131558995Y-101997000D01*
X131492962Y-101916538D01*
X131486406Y-101911158D01*
X131566185Y-101845685D01*
X131645537Y-101748994D01*
X131704502Y-101638680D01*
X131740812Y-101518982D01*
X131753072Y-101394500D01*
X131750000Y-101092750D01*
X131591250Y-100934000D01*
X130517000Y-100934000D01*
X130517000Y-100954000D01*
X130263000Y-100954000D01*
X130263000Y-100934000D01*
X129188750Y-100934000D01*
X129030000Y-101092750D01*
X129026928Y-101394500D01*
X129039188Y-101518982D01*
X129075498Y-101638680D01*
X129134463Y-101748994D01*
X129213815Y-101845685D01*
X129293594Y-101911158D01*
X129287038Y-101916538D01*
X129221005Y-101997000D01*
X124457579Y-101997000D01*
X122776595Y-100316017D01*
X122899000Y-100328072D01*
X123899000Y-100328072D01*
X124023482Y-100315812D01*
X124143180Y-100279502D01*
X124253494Y-100220537D01*
X124350185Y-100141185D01*
X124399000Y-100081704D01*
X124447815Y-100141185D01*
X124544506Y-100220537D01*
X124654820Y-100279502D01*
X124774518Y-100315812D01*
X124899000Y-100328072D01*
X125899000Y-100328072D01*
X126023482Y-100315812D01*
X126143180Y-100279502D01*
X126253494Y-100220537D01*
X126350185Y-100141185D01*
X126399000Y-100081704D01*
X126447815Y-100141185D01*
X126544506Y-100220537D01*
X126654820Y-100279502D01*
X126774518Y-100315812D01*
X126899000Y-100328072D01*
X127899000Y-100328072D01*
X128023482Y-100315812D01*
X128143180Y-100279502D01*
X128253494Y-100220537D01*
X128254757Y-100219500D01*
X129026928Y-100219500D01*
X129030000Y-100521250D01*
X129188750Y-100680000D01*
X130263000Y-100680000D01*
X130263000Y-99743250D01*
X130517000Y-99743250D01*
X130517000Y-100680000D01*
X131591250Y-100680000D01*
X131750000Y-100521250D01*
X131753072Y-100219500D01*
X131740812Y-100095018D01*
X131704502Y-99975320D01*
X131645537Y-99865006D01*
X131566185Y-99768315D01*
X131469494Y-99688963D01*
X131359180Y-99629998D01*
X131239482Y-99593688D01*
X131115000Y-99581428D01*
X130675750Y-99584500D01*
X130517000Y-99743250D01*
X130263000Y-99743250D01*
X130104250Y-99584500D01*
X129665000Y-99581428D01*
X129540518Y-99593688D01*
X129420820Y-99629998D01*
X129310506Y-99688963D01*
X129213815Y-99768315D01*
X129134463Y-99865006D01*
X129075498Y-99975320D01*
X129039188Y-100095018D01*
X129026928Y-100219500D01*
X128254757Y-100219500D01*
X128350185Y-100141185D01*
X128429537Y-100044494D01*
X128488502Y-99934180D01*
X128524812Y-99814482D01*
X128537072Y-99690000D01*
X128537072Y-97690000D01*
X128524812Y-97565518D01*
X128488502Y-97445820D01*
X128429537Y-97335506D01*
X128350185Y-97238815D01*
X128253494Y-97159463D01*
X128184000Y-97122317D01*
X128184000Y-90015157D01*
X128724157Y-89475000D01*
X132828085Y-89475000D01*
X132819463Y-89485506D01*
X132760498Y-89595820D01*
X132724188Y-89715518D01*
X132711928Y-89840000D01*
X132715000Y-90404250D01*
X132873750Y-90563000D01*
X134073000Y-90563000D01*
X134073000Y-90543000D01*
X134327000Y-90543000D01*
X134327000Y-90563000D01*
X135526250Y-90563000D01*
X135685000Y-90404250D01*
X135688072Y-89840000D01*
X135675812Y-89715518D01*
X135639502Y-89595820D01*
X135580537Y-89485506D01*
X135571915Y-89475000D01*
X146321447Y-89475000D01*
X146360000Y-89478797D01*
X146398553Y-89475000D01*
X146398561Y-89475000D01*
X146513887Y-89463641D01*
X146661860Y-89418754D01*
X146798233Y-89345862D01*
X146917764Y-89247764D01*
X146942347Y-89217810D01*
X147543157Y-88617000D01*
X168526928Y-88617000D01*
X168539188Y-88741482D01*
X168575498Y-88861180D01*
X168634463Y-88971494D01*
X168713815Y-89068185D01*
X168810506Y-89147537D01*
X168920820Y-89206502D01*
X169040518Y-89242812D01*
X169165000Y-89255072D01*
X170154250Y-89252000D01*
X170313000Y-89093250D01*
X170313000Y-87619000D01*
X170567000Y-87619000D01*
X170567000Y-89093250D01*
X170725750Y-89252000D01*
X171715000Y-89255072D01*
X171839482Y-89242812D01*
X171959180Y-89206502D01*
X172069494Y-89147537D01*
X172166185Y-89068185D01*
X172245537Y-88971494D01*
X172304502Y-88861180D01*
X172340812Y-88741482D01*
X172353072Y-88617000D01*
X172350000Y-87777750D01*
X172191250Y-87619000D01*
X170567000Y-87619000D01*
X170313000Y-87619000D01*
X168688750Y-87619000D01*
X168530000Y-87777750D01*
X168526928Y-88617000D01*
X147543157Y-88617000D01*
X149793157Y-86367000D01*
X168526928Y-86367000D01*
X168530000Y-87206250D01*
X168688750Y-87365000D01*
X170313000Y-87365000D01*
X170313000Y-85890750D01*
X170154250Y-85732000D01*
X169165000Y-85728928D01*
X169040518Y-85741188D01*
X168920820Y-85777498D01*
X168810506Y-85836463D01*
X168713815Y-85915815D01*
X168634463Y-86012506D01*
X168575498Y-86122820D01*
X168539188Y-86242518D01*
X168526928Y-86367000D01*
X149793157Y-86367000D01*
X151643082Y-84517076D01*
X151833740Y-84555000D01*
X152126260Y-84555000D01*
X152413158Y-84497932D01*
X152683411Y-84385990D01*
X152926632Y-84223475D01*
X153051710Y-84098397D01*
X153671208Y-84098397D01*
X153748843Y-84347472D01*
X154012883Y-84473371D01*
X154296411Y-84545339D01*
X154588531Y-84560611D01*
X154878019Y-84518599D01*
X155153747Y-84420919D01*
X155291157Y-84347472D01*
X155368792Y-84098397D01*
X154520000Y-83249605D01*
X153671208Y-84098397D01*
X153051710Y-84098397D01*
X153133475Y-84016632D01*
X153249311Y-83843271D01*
X153491603Y-83918792D01*
X154340395Y-83070000D01*
X154699605Y-83070000D01*
X155548397Y-83918792D01*
X155790689Y-83843271D01*
X155906525Y-84016632D01*
X156113368Y-84223475D01*
X156356589Y-84385990D01*
X156626842Y-84497932D01*
X156913740Y-84555000D01*
X157206260Y-84555000D01*
X157493158Y-84497932D01*
X157763411Y-84385990D01*
X158006632Y-84223475D01*
X158213475Y-84016632D01*
X158330000Y-83842240D01*
X158446525Y-84016632D01*
X158653368Y-84223475D01*
X158896589Y-84385990D01*
X159166842Y-84497932D01*
X159453740Y-84555000D01*
X159746260Y-84555000D01*
X160033158Y-84497932D01*
X160303411Y-84385990D01*
X160546632Y-84223475D01*
X160678487Y-84091620D01*
X160700498Y-84164180D01*
X160759463Y-84274494D01*
X160838815Y-84371185D01*
X160935506Y-84450537D01*
X161045820Y-84509502D01*
X161165518Y-84545812D01*
X161290000Y-84558072D01*
X162990000Y-84558072D01*
X163114482Y-84545812D01*
X163234180Y-84509502D01*
X163344494Y-84450537D01*
X163441185Y-84371185D01*
X163520537Y-84274494D01*
X163579502Y-84164180D01*
X163615812Y-84044482D01*
X163628072Y-83920000D01*
X163628072Y-82220000D01*
X163615812Y-82095518D01*
X163579502Y-81975820D01*
X163520537Y-81865506D01*
X163441185Y-81768815D01*
X163344494Y-81689463D01*
X163234180Y-81630498D01*
X163114482Y-81594188D01*
X162990000Y-81581928D01*
X161290000Y-81581928D01*
X161165518Y-81594188D01*
X161045820Y-81630498D01*
X160935506Y-81689463D01*
X160838815Y-81768815D01*
X160759463Y-81865506D01*
X160700498Y-81975820D01*
X160678487Y-82048380D01*
X160546632Y-81916525D01*
X160303411Y-81754010D01*
X160033158Y-81642068D01*
X159746260Y-81585000D01*
X159453740Y-81585000D01*
X159166842Y-81642068D01*
X158896589Y-81754010D01*
X158653368Y-81916525D01*
X158446525Y-82123368D01*
X158330000Y-82297760D01*
X158213475Y-82123368D01*
X158006632Y-81916525D01*
X157763411Y-81754010D01*
X157493158Y-81642068D01*
X157206260Y-81585000D01*
X156913740Y-81585000D01*
X156626842Y-81642068D01*
X156356589Y-81754010D01*
X156113368Y-81916525D01*
X155906525Y-82123368D01*
X155790689Y-82296729D01*
X155548397Y-82221208D01*
X154699605Y-83070000D01*
X154340395Y-83070000D01*
X153491603Y-82221208D01*
X153249311Y-82296729D01*
X153133475Y-82123368D01*
X153051710Y-82041603D01*
X153671208Y-82041603D01*
X154520000Y-82890395D01*
X155368792Y-82041603D01*
X155291157Y-81792528D01*
X155027117Y-81666629D01*
X154743589Y-81594661D01*
X154451469Y-81579389D01*
X154161981Y-81621401D01*
X153886253Y-81719081D01*
X153748843Y-81792528D01*
X153671208Y-82041603D01*
X153051710Y-82041603D01*
X152926632Y-81916525D01*
X152683411Y-81754010D01*
X152413158Y-81642068D01*
X152126260Y-81585000D01*
X151833740Y-81585000D01*
X151546842Y-81642068D01*
X151276589Y-81754010D01*
X151033368Y-81916525D01*
X150826525Y-82123368D01*
X150710000Y-82297760D01*
X150593475Y-82123368D01*
X150386632Y-81916525D01*
X150143411Y-81754010D01*
X149873158Y-81642068D01*
X149586260Y-81585000D01*
X149293740Y-81585000D01*
X149006842Y-81642068D01*
X148736589Y-81754010D01*
X148493368Y-81916525D01*
X148286525Y-82123368D01*
X148170000Y-82297760D01*
X148053475Y-82123368D01*
X147846632Y-81916525D01*
X147603411Y-81754010D01*
X147333158Y-81642068D01*
X147046260Y-81585000D01*
X146753740Y-81585000D01*
X146466842Y-81642068D01*
X146196589Y-81754010D01*
X145953368Y-81916525D01*
X145746525Y-82123368D01*
X145630000Y-82297760D01*
X145513475Y-82123368D01*
X145306632Y-81916525D01*
X145063411Y-81754010D01*
X144793158Y-81642068D01*
X144506260Y-81585000D01*
X144415157Y-81585000D01*
X147987157Y-78013000D01*
X169741515Y-78013000D01*
X169697725Y-78075118D01*
%TA.AperFunction,Conductor*%
D29*
G36*
X169697725Y-78075118D02*
G01*
X169604728Y-78284663D01*
X169596036Y-78346190D01*
X169721837Y-78525000D01*
X170813000Y-78525000D01*
X170813000Y-78505000D01*
X171067000Y-78505000D01*
X171067000Y-78525000D01*
X172158163Y-78525000D01*
X172283964Y-78346190D01*
X172275272Y-78284663D01*
X172182275Y-78075118D01*
X172138485Y-78013000D01*
X175192056Y-78013000D01*
X175193528Y-78017851D01*
X175275595Y-78171387D01*
X175354553Y-78267597D01*
X175329000Y-78396061D01*
X175329000Y-78599939D01*
X175368774Y-78799898D01*
X175446795Y-78988256D01*
X175488404Y-79050528D01*
X175386038Y-79134538D01*
X175275595Y-79269113D01*
X175193528Y-79422649D01*
X175142992Y-79589245D01*
X175125928Y-79762499D01*
X175125928Y-80340414D01*
X173804185Y-81662158D01*
X173774237Y-81686736D01*
X173749659Y-81716684D01*
X173749655Y-81716688D01*
X173719026Y-81754010D01*
X173676139Y-81806267D01*
X173638871Y-81875992D01*
X173603246Y-81942641D01*
X173558359Y-82090614D01*
X173543203Y-82244500D01*
X173547001Y-82283063D01*
X173547000Y-84423289D01*
X173528063Y-84442226D01*
X173414795Y-84611744D01*
X173336774Y-84800102D01*
X173297000Y-85000061D01*
X173297000Y-85101421D01*
X171825000Y-83629422D01*
X171825000Y-82339621D01*
X171934180Y-82306502D01*
X172044494Y-82247537D01*
X172141185Y-82168185D01*
X172220537Y-82071494D01*
X172279502Y-81961180D01*
X172315812Y-81841482D01*
X172328072Y-81717000D01*
X172328072Y-80667000D01*
X172315812Y-80542518D01*
X172279502Y-80422820D01*
X172244907Y-80358098D01*
X172308215Y-80149400D01*
X172330612Y-79922000D01*
X172308215Y-79694600D01*
X172241885Y-79475940D01*
X172141071Y-79287331D01*
X172182275Y-79228882D01*
X172275272Y-79019337D01*
X172283964Y-78957810D01*
X172158163Y-78779000D01*
X171393109Y-78779000D01*
X171392400Y-78778785D01*
X171221979Y-78762000D01*
X170658021Y-78762000D01*
X170487600Y-78778785D01*
X170486891Y-78779000D01*
X169721837Y-78779000D01*
X169596036Y-78957810D01*
X169604728Y-79019337D01*
X169697725Y-79228882D01*
X169738929Y-79287331D01*
X169638115Y-79475940D01*
X169571785Y-79694600D01*
X169549388Y-79922000D01*
X169571785Y-80149400D01*
X169635093Y-80358098D01*
X169600498Y-80422820D01*
X169564188Y-80542518D01*
X169551928Y-80667000D01*
X169551928Y-81717000D01*
X169564188Y-81841482D01*
X169600498Y-81961180D01*
X169659463Y-82071494D01*
X169738815Y-82168185D01*
X169835506Y-82247537D01*
X169945820Y-82306502D01*
X170055000Y-82339622D01*
X170055001Y-83952521D01*
X170050719Y-83996000D01*
X170067805Y-84169490D01*
X170118412Y-84336313D01*
X170200590Y-84490059D01*
X170283468Y-84591046D01*
X170283471Y-84591049D01*
X170311184Y-84624817D01*
X170344951Y-84652529D01*
X171422259Y-85729837D01*
X170725750Y-85732000D01*
X170567000Y-85890750D01*
X170567000Y-87365000D01*
X172191250Y-87365000D01*
X172350000Y-87206250D01*
X172352001Y-86659580D01*
X173447000Y-87754579D01*
X173447000Y-87852531D01*
X173442719Y-87896000D01*
X173447000Y-87939469D01*
X173447000Y-87939476D01*
X173447001Y-87939486D01*
X173447000Y-89561421D01*
X170879494Y-92128928D01*
X169414999Y-92128928D01*
X169241745Y-92145992D01*
X169075149Y-92196528D01*
X168921613Y-92278595D01*
X168787038Y-92389038D01*
X168676595Y-92523613D01*
X168594528Y-92677149D01*
X168543992Y-92843745D01*
X168527913Y-93007000D01*
X158981469Y-93007000D01*
X158938000Y-93002719D01*
X158894531Y-93007000D01*
X158894523Y-93007000D01*
X158764510Y-93019805D01*
X158597686Y-93070411D01*
X158443941Y-93152589D01*
X158342953Y-93235468D01*
X158342951Y-93235470D01*
X158309183Y-93263183D01*
X158281470Y-93296951D01*
X154738961Y-96839461D01*
X154666260Y-96825000D01*
X154373740Y-96825000D01*
X154275582Y-96844525D01*
X154403475Y-96716632D01*
X154565990Y-96473411D01*
X154677932Y-96203158D01*
X154735000Y-95916260D01*
X154735000Y-95623740D01*
X154677932Y-95336842D01*
X154565990Y-95066589D01*
X154403475Y-94823368D01*
X154196632Y-94616525D01*
X153953411Y-94454010D01*
X153683158Y-94342068D01*
X153396260Y-94285000D01*
X153103740Y-94285000D01*
X152816842Y-94342068D01*
X152546589Y-94454010D01*
X152303368Y-94616525D01*
X152096525Y-94823368D01*
X151980000Y-94997760D01*
X151863475Y-94823368D01*
X151656632Y-94616525D01*
X151413411Y-94454010D01*
X151143158Y-94342068D01*
X150856260Y-94285000D01*
X150563740Y-94285000D01*
X150276842Y-94342068D01*
X150006589Y-94454010D01*
X149763368Y-94616525D01*
X149556525Y-94823368D01*
X149394010Y-95066589D01*
X149282068Y-95336842D01*
X149225000Y-95623740D01*
X149225000Y-95916260D01*
X149282068Y-96203158D01*
X149394010Y-96473411D01*
X149556525Y-96716632D01*
X149684418Y-96844525D01*
X149586260Y-96825000D01*
X149293740Y-96825000D01*
X149006842Y-96882068D01*
X148736589Y-96994010D01*
X148493368Y-97156525D01*
X148286525Y-97363368D01*
X148170000Y-97537760D01*
X148053475Y-97363368D01*
X147846632Y-97156525D01*
X147603411Y-96994010D01*
X147333158Y-96882068D01*
X147046260Y-96825000D01*
X146753740Y-96825000D01*
X146466842Y-96882068D01*
X146196589Y-96994010D01*
X145953368Y-97156525D01*
X145746525Y-97363368D01*
X145630000Y-97537760D01*
X145513475Y-97363368D01*
X145306632Y-97156525D01*
X145063411Y-96994010D01*
X144793158Y-96882068D01*
X144506260Y-96825000D01*
X144213740Y-96825000D01*
X143926842Y-96882068D01*
X143656589Y-96994010D01*
X143413368Y-97156525D01*
X143206525Y-97363368D01*
X143090000Y-97537760D01*
X142973475Y-97363368D01*
X142766632Y-97156525D01*
X142523411Y-96994010D01*
X142253158Y-96882068D01*
X141966260Y-96825000D01*
X141673740Y-96825000D01*
X141386842Y-96882068D01*
X141116589Y-96994010D01*
X140873368Y-97156525D01*
X140666525Y-97363368D01*
X140550000Y-97537760D01*
X140433475Y-97363368D01*
X140226632Y-97156525D01*
X139983411Y-96994010D01*
X139713158Y-96882068D01*
X139426260Y-96825000D01*
X139133740Y-96825000D01*
X138846842Y-96882068D01*
X138576589Y-96994010D01*
X138333368Y-97156525D01*
X138126525Y-97363368D01*
X138010000Y-97537760D01*
X137893475Y-97363368D01*
X137686632Y-97156525D01*
X137443411Y-96994010D01*
X137173158Y-96882068D01*
X136886260Y-96825000D01*
X136593740Y-96825000D01*
X136306842Y-96882068D01*
X136036589Y-96994010D01*
X135793368Y-97156525D01*
X135586525Y-97363368D01*
X135470000Y-97537760D01*
X135353475Y-97363368D01*
X135146632Y-97156525D01*
X134972240Y-97040000D01*
X135146632Y-96923475D01*
X135353475Y-96716632D01*
X135515990Y-96473411D01*
X135627932Y-96203158D01*
X135685000Y-95916260D01*
X135685000Y-95623740D01*
X135627932Y-95336842D01*
X135515990Y-95066589D01*
X135353475Y-94823368D01*
X135146632Y-94616525D01*
X134972240Y-94500000D01*
X135146632Y-94383475D01*
X135353475Y-94176632D01*
X135515990Y-93933411D01*
X135627932Y-93663158D01*
X135685000Y-93376260D01*
X135685000Y-93083740D01*
X135627932Y-92796842D01*
X135515990Y-92526589D01*
X135353475Y-92283368D01*
X135221620Y-92151513D01*
X135294180Y-92129502D01*
X135404494Y-92070537D01*
X135501185Y-91991185D01*
X135580537Y-91894494D01*
X135639502Y-91784180D01*
X135675812Y-91664482D01*
X135688072Y-91540000D01*
X135685000Y-90975750D01*
X135526250Y-90817000D01*
X134327000Y-90817000D01*
X134327000Y-90837000D01*
X134073000Y-90837000D01*
X134073000Y-90817000D01*
X132873750Y-90817000D01*
X132715000Y-90975750D01*
X132711928Y-91540000D01*
X132724188Y-91664482D01*
X132760498Y-91784180D01*
X132819463Y-91894494D01*
X132898815Y-91991185D01*
X132995506Y-92070537D01*
X133105820Y-92129502D01*
X133178380Y-92151513D01*
X133046525Y-92283368D01*
X132884010Y-92526589D01*
X132772068Y-92796842D01*
X132715000Y-93083740D01*
X132715000Y-93376260D01*
X132772068Y-93663158D01*
X132884010Y-93933411D01*
X133046525Y-94176632D01*
X133253368Y-94383475D01*
X133427760Y-94500000D01*
X133253368Y-94616525D01*
X133046525Y-94823368D01*
X132884010Y-95066589D01*
X132772068Y-95336842D01*
X132715000Y-95623740D01*
X132715000Y-95916260D01*
X132772068Y-96203158D01*
X132884010Y-96473411D01*
X133046525Y-96716632D01*
X133253368Y-96923475D01*
X133427760Y-97040000D01*
X133253368Y-97156525D01*
X133046525Y-97363368D01*
X132884010Y-97606589D01*
X132772068Y-97876842D01*
X132715000Y-98163740D01*
X132715000Y-98456260D01*
X132772068Y-98743158D01*
X132884010Y-99013411D01*
X133046525Y-99256632D01*
X133253368Y-99463475D01*
X133496589Y-99625990D01*
X133766842Y-99737932D01*
X134053740Y-99795000D01*
X134346260Y-99795000D01*
X134633158Y-99737932D01*
X134903411Y-99625990D01*
X135146632Y-99463475D01*
X135353475Y-99256632D01*
X135470000Y-99082240D01*
X135586525Y-99256632D01*
X135793368Y-99463475D01*
X136036589Y-99625990D01*
X136306842Y-99737932D01*
X136593740Y-99795000D01*
X136886260Y-99795000D01*
X137173158Y-99737932D01*
X137443411Y-99625990D01*
X137686632Y-99463475D01*
X137893475Y-99256632D01*
X138010000Y-99082240D01*
X138126525Y-99256632D01*
X138333368Y-99463475D01*
X138576589Y-99625990D01*
X138846842Y-99737932D01*
X139133740Y-99795000D01*
X139426260Y-99795000D01*
X139713158Y-99737932D01*
X139983411Y-99625990D01*
X140226632Y-99463475D01*
X140433475Y-99256632D01*
X140550000Y-99082240D01*
X140666525Y-99256632D01*
X140873368Y-99463475D01*
X141116589Y-99625990D01*
X141386842Y-99737932D01*
X141673740Y-99795000D01*
X141966260Y-99795000D01*
X142253158Y-99737932D01*
X142523411Y-99625990D01*
X142766632Y-99463475D01*
X142973475Y-99256632D01*
X143090000Y-99082240D01*
X143206525Y-99256632D01*
X143413368Y-99463475D01*
X143575000Y-99571474D01*
X143575000Y-99917289D01*
X143556063Y-99936226D01*
X143442795Y-100105744D01*
X143364774Y-100294102D01*
X143325000Y-100494061D01*
X143325000Y-100697939D01*
X143364774Y-100897898D01*
X143442795Y-101086256D01*
X143556063Y-101255774D01*
X143700226Y-101399937D01*
X143869744Y-101513205D01*
X144058102Y-101591226D01*
X144258061Y-101631000D01*
X144461939Y-101631000D01*
X144661898Y-101591226D01*
X144850256Y-101513205D01*
X145019774Y-101399937D01*
X145163937Y-101255774D01*
X145277205Y-101086256D01*
X145355226Y-100897898D01*
X145395000Y-100697939D01*
X145395000Y-100494061D01*
X145355226Y-100294102D01*
X145277205Y-100105744D01*
X145163937Y-99936226D01*
X145145000Y-99917289D01*
X145145000Y-99571474D01*
X145306632Y-99463475D01*
X145513475Y-99256632D01*
X145630000Y-99082240D01*
X145746525Y-99256632D01*
X145953368Y-99463475D01*
X146196589Y-99625990D01*
X146466842Y-99737932D01*
X146753740Y-99795000D01*
X147046260Y-99795000D01*
X147333158Y-99737932D01*
X147603411Y-99625990D01*
X147846632Y-99463475D01*
X148053475Y-99256632D01*
X148170000Y-99082240D01*
X148286525Y-99256632D01*
X148493368Y-99463475D01*
X148736589Y-99625990D01*
X149006842Y-99737932D01*
X149293740Y-99795000D01*
X149586260Y-99795000D01*
X149873158Y-99737932D01*
X150143411Y-99625990D01*
X150386632Y-99463475D01*
X150593475Y-99256632D01*
X150710000Y-99082240D01*
X150826525Y-99256632D01*
X151033368Y-99463475D01*
X151276589Y-99625990D01*
X151546842Y-99737932D01*
X151791770Y-99786652D01*
X149581422Y-101997000D01*
X131558995Y-101997000D01*
X131492962Y-101916538D01*
X131486406Y-101911158D01*
X131566185Y-101845685D01*
X131645537Y-101748994D01*
X131704502Y-101638680D01*
X131740812Y-101518982D01*
X131753072Y-101394500D01*
X131750000Y-101092750D01*
X131591250Y-100934000D01*
X130517000Y-100934000D01*
X130517000Y-100954000D01*
X130263000Y-100954000D01*
X130263000Y-100934000D01*
X129188750Y-100934000D01*
X129030000Y-101092750D01*
X129026928Y-101394500D01*
X129039188Y-101518982D01*
X129075498Y-101638680D01*
X129134463Y-101748994D01*
X129213815Y-101845685D01*
X129293594Y-101911158D01*
X129287038Y-101916538D01*
X129221005Y-101997000D01*
X124457579Y-101997000D01*
X122776595Y-100316017D01*
X122899000Y-100328072D01*
X123899000Y-100328072D01*
X124023482Y-100315812D01*
X124143180Y-100279502D01*
X124253494Y-100220537D01*
X124350185Y-100141185D01*
X124399000Y-100081704D01*
X124447815Y-100141185D01*
X124544506Y-100220537D01*
X124654820Y-100279502D01*
X124774518Y-100315812D01*
X124899000Y-100328072D01*
X125899000Y-100328072D01*
X126023482Y-100315812D01*
X126143180Y-100279502D01*
X126253494Y-100220537D01*
X126350185Y-100141185D01*
X126399000Y-100081704D01*
X126447815Y-100141185D01*
X126544506Y-100220537D01*
X126654820Y-100279502D01*
X126774518Y-100315812D01*
X126899000Y-100328072D01*
X127899000Y-100328072D01*
X128023482Y-100315812D01*
X128143180Y-100279502D01*
X128253494Y-100220537D01*
X128254757Y-100219500D01*
X129026928Y-100219500D01*
X129030000Y-100521250D01*
X129188750Y-100680000D01*
X130263000Y-100680000D01*
X130263000Y-99743250D01*
X130517000Y-99743250D01*
X130517000Y-100680000D01*
X131591250Y-100680000D01*
X131750000Y-100521250D01*
X131753072Y-100219500D01*
X131740812Y-100095018D01*
X131704502Y-99975320D01*
X131645537Y-99865006D01*
X131566185Y-99768315D01*
X131469494Y-99688963D01*
X131359180Y-99629998D01*
X131239482Y-99593688D01*
X131115000Y-99581428D01*
X130675750Y-99584500D01*
X130517000Y-99743250D01*
X130263000Y-99743250D01*
X130104250Y-99584500D01*
X129665000Y-99581428D01*
X129540518Y-99593688D01*
X129420820Y-99629998D01*
X129310506Y-99688963D01*
X129213815Y-99768315D01*
X129134463Y-99865006D01*
X129075498Y-99975320D01*
X129039188Y-100095018D01*
X129026928Y-100219500D01*
X128254757Y-100219500D01*
X128350185Y-100141185D01*
X128429537Y-100044494D01*
X128488502Y-99934180D01*
X128524812Y-99814482D01*
X128537072Y-99690000D01*
X128537072Y-97690000D01*
X128524812Y-97565518D01*
X128488502Y-97445820D01*
X128429537Y-97335506D01*
X128350185Y-97238815D01*
X128253494Y-97159463D01*
X128184000Y-97122317D01*
X128184000Y-90015157D01*
X128724157Y-89475000D01*
X132828085Y-89475000D01*
X132819463Y-89485506D01*
X132760498Y-89595820D01*
X132724188Y-89715518D01*
X132711928Y-89840000D01*
X132715000Y-90404250D01*
X132873750Y-90563000D01*
X134073000Y-90563000D01*
X134073000Y-90543000D01*
X134327000Y-90543000D01*
X134327000Y-90563000D01*
X135526250Y-90563000D01*
X135685000Y-90404250D01*
X135688072Y-89840000D01*
X135675812Y-89715518D01*
X135639502Y-89595820D01*
X135580537Y-89485506D01*
X135571915Y-89475000D01*
X146321447Y-89475000D01*
X146360000Y-89478797D01*
X146398553Y-89475000D01*
X146398561Y-89475000D01*
X146513887Y-89463641D01*
X146661860Y-89418754D01*
X146798233Y-89345862D01*
X146917764Y-89247764D01*
X146942347Y-89217810D01*
X147543157Y-88617000D01*
X168526928Y-88617000D01*
X168539188Y-88741482D01*
X168575498Y-88861180D01*
X168634463Y-88971494D01*
X168713815Y-89068185D01*
X168810506Y-89147537D01*
X168920820Y-89206502D01*
X169040518Y-89242812D01*
X169165000Y-89255072D01*
X170154250Y-89252000D01*
X170313000Y-89093250D01*
X170313000Y-87619000D01*
X170567000Y-87619000D01*
X170567000Y-89093250D01*
X170725750Y-89252000D01*
X171715000Y-89255072D01*
X171839482Y-89242812D01*
X171959180Y-89206502D01*
X172069494Y-89147537D01*
X172166185Y-89068185D01*
X172245537Y-88971494D01*
X172304502Y-88861180D01*
X172340812Y-88741482D01*
X172353072Y-88617000D01*
X172350000Y-87777750D01*
X172191250Y-87619000D01*
X170567000Y-87619000D01*
X170313000Y-87619000D01*
X168688750Y-87619000D01*
X168530000Y-87777750D01*
X168526928Y-88617000D01*
X147543157Y-88617000D01*
X149793157Y-86367000D01*
X168526928Y-86367000D01*
X168530000Y-87206250D01*
X168688750Y-87365000D01*
X170313000Y-87365000D01*
X170313000Y-85890750D01*
X170154250Y-85732000D01*
X169165000Y-85728928D01*
X169040518Y-85741188D01*
X168920820Y-85777498D01*
X168810506Y-85836463D01*
X168713815Y-85915815D01*
X168634463Y-86012506D01*
X168575498Y-86122820D01*
X168539188Y-86242518D01*
X168526928Y-86367000D01*
X149793157Y-86367000D01*
X151643082Y-84517076D01*
X151833740Y-84555000D01*
X152126260Y-84555000D01*
X152413158Y-84497932D01*
X152683411Y-84385990D01*
X152926632Y-84223475D01*
X153051710Y-84098397D01*
X153671208Y-84098397D01*
X153748843Y-84347472D01*
X154012883Y-84473371D01*
X154296411Y-84545339D01*
X154588531Y-84560611D01*
X154878019Y-84518599D01*
X155153747Y-84420919D01*
X155291157Y-84347472D01*
X155368792Y-84098397D01*
X154520000Y-83249605D01*
X153671208Y-84098397D01*
X153051710Y-84098397D01*
X153133475Y-84016632D01*
X153249311Y-83843271D01*
X153491603Y-83918792D01*
X154340395Y-83070000D01*
X154699605Y-83070000D01*
X155548397Y-83918792D01*
X155790689Y-83843271D01*
X155906525Y-84016632D01*
X156113368Y-84223475D01*
X156356589Y-84385990D01*
X156626842Y-84497932D01*
X156913740Y-84555000D01*
X157206260Y-84555000D01*
X157493158Y-84497932D01*
X157763411Y-84385990D01*
X158006632Y-84223475D01*
X158213475Y-84016632D01*
X158330000Y-83842240D01*
X158446525Y-84016632D01*
X158653368Y-84223475D01*
X158896589Y-84385990D01*
X159166842Y-84497932D01*
X159453740Y-84555000D01*
X159746260Y-84555000D01*
X160033158Y-84497932D01*
X160303411Y-84385990D01*
X160546632Y-84223475D01*
X160678487Y-84091620D01*
X160700498Y-84164180D01*
X160759463Y-84274494D01*
X160838815Y-84371185D01*
X160935506Y-84450537D01*
X161045820Y-84509502D01*
X161165518Y-84545812D01*
X161290000Y-84558072D01*
X162990000Y-84558072D01*
X163114482Y-84545812D01*
X163234180Y-84509502D01*
X163344494Y-84450537D01*
X163441185Y-84371185D01*
X163520537Y-84274494D01*
X163579502Y-84164180D01*
X163615812Y-84044482D01*
X163628072Y-83920000D01*
X163628072Y-82220000D01*
X163615812Y-82095518D01*
X163579502Y-81975820D01*
X163520537Y-81865506D01*
X163441185Y-81768815D01*
X163344494Y-81689463D01*
X163234180Y-81630498D01*
X163114482Y-81594188D01*
X162990000Y-81581928D01*
X161290000Y-81581928D01*
X161165518Y-81594188D01*
X161045820Y-81630498D01*
X160935506Y-81689463D01*
X160838815Y-81768815D01*
X160759463Y-81865506D01*
X160700498Y-81975820D01*
X160678487Y-82048380D01*
X160546632Y-81916525D01*
X160303411Y-81754010D01*
X160033158Y-81642068D01*
X159746260Y-81585000D01*
X159453740Y-81585000D01*
X159166842Y-81642068D01*
X158896589Y-81754010D01*
X158653368Y-81916525D01*
X158446525Y-82123368D01*
X158330000Y-82297760D01*
X158213475Y-82123368D01*
X158006632Y-81916525D01*
X157763411Y-81754010D01*
X157493158Y-81642068D01*
X157206260Y-81585000D01*
X156913740Y-81585000D01*
X156626842Y-81642068D01*
X156356589Y-81754010D01*
X156113368Y-81916525D01*
X155906525Y-82123368D01*
X155790689Y-82296729D01*
X155548397Y-82221208D01*
X154699605Y-83070000D01*
X154340395Y-83070000D01*
X153491603Y-82221208D01*
X153249311Y-82296729D01*
X153133475Y-82123368D01*
X153051710Y-82041603D01*
X153671208Y-82041603D01*
X154520000Y-82890395D01*
X155368792Y-82041603D01*
X155291157Y-81792528D01*
X155027117Y-81666629D01*
X154743589Y-81594661D01*
X154451469Y-81579389D01*
X154161981Y-81621401D01*
X153886253Y-81719081D01*
X153748843Y-81792528D01*
X153671208Y-82041603D01*
X153051710Y-82041603D01*
X152926632Y-81916525D01*
X152683411Y-81754010D01*
X152413158Y-81642068D01*
X152126260Y-81585000D01*
X151833740Y-81585000D01*
X151546842Y-81642068D01*
X151276589Y-81754010D01*
X151033368Y-81916525D01*
X150826525Y-82123368D01*
X150710000Y-82297760D01*
X150593475Y-82123368D01*
X150386632Y-81916525D01*
X150143411Y-81754010D01*
X149873158Y-81642068D01*
X149586260Y-81585000D01*
X149293740Y-81585000D01*
X149006842Y-81642068D01*
X148736589Y-81754010D01*
X148493368Y-81916525D01*
X148286525Y-82123368D01*
X148170000Y-82297760D01*
X148053475Y-82123368D01*
X147846632Y-81916525D01*
X147603411Y-81754010D01*
X147333158Y-81642068D01*
X147046260Y-81585000D01*
X146753740Y-81585000D01*
X146466842Y-81642068D01*
X146196589Y-81754010D01*
X145953368Y-81916525D01*
X145746525Y-82123368D01*
X145630000Y-82297760D01*
X145513475Y-82123368D01*
X145306632Y-81916525D01*
X145063411Y-81754010D01*
X144793158Y-81642068D01*
X144506260Y-81585000D01*
X144415157Y-81585000D01*
X147987157Y-78013000D01*
X169741515Y-78013000D01*
X169697725Y-78075118D01*
G37*
%TD.AperFunction*%
D30*
X148286525Y-84016632D02*
X148493368Y-84223475D01*
X148736589Y-84385990D01*
X149006842Y-84497932D01*
X149293740Y-84555000D01*
X149384842Y-84555000D01*
X146034843Y-87905000D01*
X135555157Y-87905000D01*
X138943082Y-84517075D01*
X139133740Y-84555000D01*
X139426260Y-84555000D01*
X139713158Y-84497932D01*
X139983411Y-84385990D01*
X140226632Y-84223475D01*
X140433475Y-84016632D01*
X140550000Y-83842240D01*
X140666525Y-84016632D01*
X140873368Y-84223475D01*
X141116589Y-84385990D01*
X141386842Y-84497932D01*
X141673740Y-84555000D01*
X141966260Y-84555000D01*
X142253158Y-84497932D01*
X142523411Y-84385990D01*
X142766632Y-84223475D01*
X142973475Y-84016632D01*
X143090000Y-83842240D01*
X143206525Y-84016632D01*
X143413368Y-84223475D01*
X143656589Y-84385990D01*
X143926842Y-84497932D01*
X144213740Y-84555000D01*
X144506260Y-84555000D01*
X144793158Y-84497932D01*
X145063411Y-84385990D01*
X145306632Y-84223475D01*
X145513475Y-84016632D01*
X145630000Y-83842240D01*
X145746525Y-84016632D01*
X145953368Y-84223475D01*
X146196589Y-84385990D01*
X146466842Y-84497932D01*
X146753740Y-84555000D01*
X147046260Y-84555000D01*
X147333158Y-84497932D01*
X147603411Y-84385990D01*
X147846632Y-84223475D01*
X148053475Y-84016632D01*
X148170000Y-83842240D01*
X148286525Y-84016632D01*
%TA.AperFunction,Conductor*%
D29*
G36*
X148286525Y-84016632D02*
G01*
X148493368Y-84223475D01*
X148736589Y-84385990D01*
X149006842Y-84497932D01*
X149293740Y-84555000D01*
X149384842Y-84555000D01*
X146034843Y-87905000D01*
X135555157Y-87905000D01*
X138943082Y-84517075D01*
X139133740Y-84555000D01*
X139426260Y-84555000D01*
X139713158Y-84497932D01*
X139983411Y-84385990D01*
X140226632Y-84223475D01*
X140433475Y-84016632D01*
X140550000Y-83842240D01*
X140666525Y-84016632D01*
X140873368Y-84223475D01*
X141116589Y-84385990D01*
X141386842Y-84497932D01*
X141673740Y-84555000D01*
X141966260Y-84555000D01*
X142253158Y-84497932D01*
X142523411Y-84385990D01*
X142766632Y-84223475D01*
X142973475Y-84016632D01*
X143090000Y-83842240D01*
X143206525Y-84016632D01*
X143413368Y-84223475D01*
X143656589Y-84385990D01*
X143926842Y-84497932D01*
X144213740Y-84555000D01*
X144506260Y-84555000D01*
X144793158Y-84497932D01*
X145063411Y-84385990D01*
X145306632Y-84223475D01*
X145513475Y-84016632D01*
X145630000Y-83842240D01*
X145746525Y-84016632D01*
X145953368Y-84223475D01*
X146196589Y-84385990D01*
X146466842Y-84497932D01*
X146753740Y-84555000D01*
X147046260Y-84555000D01*
X147333158Y-84497932D01*
X147603411Y-84385990D01*
X147846632Y-84223475D01*
X148053475Y-84016632D01*
X148170000Y-83842240D01*
X148286525Y-84016632D01*
G37*
%TD.AperFunction*%
D30*
X132752924Y-82733082D02*
X132715000Y-82923740D01*
X132715000Y-83216260D01*
X132772068Y-83503158D01*
X132884010Y-83773411D01*
X133046525Y-84016632D01*
X133253368Y-84223475D01*
X133496589Y-84385990D01*
X133766842Y-84497932D01*
X134053740Y-84555000D01*
X134144843Y-84555000D01*
X132794843Y-85905000D01*
X129252511Y-85905000D01*
X129275000Y-85791939D01*
X129275000Y-85588061D01*
X129235226Y-85388102D01*
X129157205Y-85199744D01*
X129043937Y-85030226D01*
X128899774Y-84886063D01*
X128730256Y-84772795D01*
X128541898Y-84694774D01*
X128341939Y-84655000D01*
X128138061Y-84655000D01*
X127938102Y-84694774D01*
X127749744Y-84772795D01*
X127580226Y-84886063D01*
X127561289Y-84905000D01*
X126411511Y-84905000D01*
X126434000Y-84791939D01*
X126434000Y-84588061D01*
X126394226Y-84388102D01*
X126316205Y-84199744D01*
X126302969Y-84179934D01*
X126350185Y-84141185D01*
X126399000Y-84081704D01*
X126447815Y-84141185D01*
X126544506Y-84220537D01*
X126654820Y-84279502D01*
X126774518Y-84315812D01*
X126899000Y-84328072D01*
X127113250Y-84325000D01*
X127272000Y-84166250D01*
X127272000Y-82817000D01*
X127526000Y-82817000D01*
X127526000Y-84166250D01*
X127684750Y-84325000D01*
X127899000Y-84328072D01*
X128023482Y-84315812D01*
X128143180Y-84279502D01*
X128253494Y-84220537D01*
X128350185Y-84141185D01*
X128429537Y-84044494D01*
X128488502Y-83934180D01*
X128524812Y-83814482D01*
X128537072Y-83690000D01*
X128534000Y-82975750D01*
X128375250Y-82817000D01*
X127526000Y-82817000D01*
X127272000Y-82817000D01*
X127252000Y-82817000D01*
X127252000Y-82563000D01*
X127272000Y-82563000D01*
X127272000Y-81213750D01*
X127526000Y-81213750D01*
X127526000Y-82563000D01*
X128375250Y-82563000D01*
X128534000Y-82404250D01*
X128537072Y-81690000D01*
X128524812Y-81565518D01*
X128488502Y-81445820D01*
X128429537Y-81335506D01*
X128350185Y-81238815D01*
X128253494Y-81159463D01*
X128143180Y-81100498D01*
X128023482Y-81064188D01*
X127899000Y-81051928D01*
X127684750Y-81055000D01*
X127526000Y-81213750D01*
X127272000Y-81213750D01*
X127113250Y-81055000D01*
X126899000Y-81051928D01*
X126774518Y-81064188D01*
X126654820Y-81100498D01*
X126544506Y-81159463D01*
X126447815Y-81238815D01*
X126399000Y-81298296D01*
X126350185Y-81238815D01*
X126253494Y-81159463D01*
X126143180Y-81100498D01*
X126023482Y-81064188D01*
X125899000Y-81051928D01*
X124899000Y-81051928D01*
X124774518Y-81064188D01*
X124654820Y-81100498D01*
X124544506Y-81159463D01*
X124447815Y-81238815D01*
X124399000Y-81298296D01*
X124350185Y-81238815D01*
X124253494Y-81159463D01*
X124143180Y-81100498D01*
X124023482Y-81064188D01*
X123899000Y-81051928D01*
X122899000Y-81051928D01*
X122774518Y-81064188D01*
X122654820Y-81100498D01*
X122544506Y-81159463D01*
X122447815Y-81238815D01*
X122399000Y-81298296D01*
X122350185Y-81238815D01*
X122253494Y-81159463D01*
X122143180Y-81100498D01*
X122023482Y-81064188D01*
X121899000Y-81051928D01*
X120899000Y-81051928D01*
X120774518Y-81064188D01*
X120654820Y-81100498D01*
X120544506Y-81159463D01*
X120447815Y-81238815D01*
X120399000Y-81298296D01*
X120350185Y-81238815D01*
X120253494Y-81159463D01*
X120143180Y-81100498D01*
X120023482Y-81064188D01*
X119899000Y-81051928D01*
X118899000Y-81051928D01*
X118841574Y-81057584D01*
X119092158Y-80807000D01*
X130826843Y-80807000D01*
X132752924Y-82733082D01*
%TA.AperFunction,Conductor*%
D29*
G36*
X132752924Y-82733082D02*
G01*
X132715000Y-82923740D01*
X132715000Y-83216260D01*
X132772068Y-83503158D01*
X132884010Y-83773411D01*
X133046525Y-84016632D01*
X133253368Y-84223475D01*
X133496589Y-84385990D01*
X133766842Y-84497932D01*
X134053740Y-84555000D01*
X134144843Y-84555000D01*
X132794843Y-85905000D01*
X129252511Y-85905000D01*
X129275000Y-85791939D01*
X129275000Y-85588061D01*
X129235226Y-85388102D01*
X129157205Y-85199744D01*
X129043937Y-85030226D01*
X128899774Y-84886063D01*
X128730256Y-84772795D01*
X128541898Y-84694774D01*
X128341939Y-84655000D01*
X128138061Y-84655000D01*
X127938102Y-84694774D01*
X127749744Y-84772795D01*
X127580226Y-84886063D01*
X127561289Y-84905000D01*
X126411511Y-84905000D01*
X126434000Y-84791939D01*
X126434000Y-84588061D01*
X126394226Y-84388102D01*
X126316205Y-84199744D01*
X126302969Y-84179934D01*
X126350185Y-84141185D01*
X126399000Y-84081704D01*
X126447815Y-84141185D01*
X126544506Y-84220537D01*
X126654820Y-84279502D01*
X126774518Y-84315812D01*
X126899000Y-84328072D01*
X127113250Y-84325000D01*
X127272000Y-84166250D01*
X127272000Y-82817000D01*
X127526000Y-82817000D01*
X127526000Y-84166250D01*
X127684750Y-84325000D01*
X127899000Y-84328072D01*
X128023482Y-84315812D01*
X128143180Y-84279502D01*
X128253494Y-84220537D01*
X128350185Y-84141185D01*
X128429537Y-84044494D01*
X128488502Y-83934180D01*
X128524812Y-83814482D01*
X128537072Y-83690000D01*
X128534000Y-82975750D01*
X128375250Y-82817000D01*
X127526000Y-82817000D01*
X127272000Y-82817000D01*
X127252000Y-82817000D01*
X127252000Y-82563000D01*
X127272000Y-82563000D01*
X127272000Y-81213750D01*
X127526000Y-81213750D01*
X127526000Y-82563000D01*
X128375250Y-82563000D01*
X128534000Y-82404250D01*
X128537072Y-81690000D01*
X128524812Y-81565518D01*
X128488502Y-81445820D01*
X128429537Y-81335506D01*
X128350185Y-81238815D01*
X128253494Y-81159463D01*
X128143180Y-81100498D01*
X128023482Y-81064188D01*
X127899000Y-81051928D01*
X127684750Y-81055000D01*
X127526000Y-81213750D01*
X127272000Y-81213750D01*
X127113250Y-81055000D01*
X126899000Y-81051928D01*
X126774518Y-81064188D01*
X126654820Y-81100498D01*
X126544506Y-81159463D01*
X126447815Y-81238815D01*
X126399000Y-81298296D01*
X126350185Y-81238815D01*
X126253494Y-81159463D01*
X126143180Y-81100498D01*
X126023482Y-81064188D01*
X125899000Y-81051928D01*
X124899000Y-81051928D01*
X124774518Y-81064188D01*
X124654820Y-81100498D01*
X124544506Y-81159463D01*
X124447815Y-81238815D01*
X124399000Y-81298296D01*
X124350185Y-81238815D01*
X124253494Y-81159463D01*
X124143180Y-81100498D01*
X124023482Y-81064188D01*
X123899000Y-81051928D01*
X122899000Y-81051928D01*
X122774518Y-81064188D01*
X122654820Y-81100498D01*
X122544506Y-81159463D01*
X122447815Y-81238815D01*
X122399000Y-81298296D01*
X122350185Y-81238815D01*
X122253494Y-81159463D01*
X122143180Y-81100498D01*
X122023482Y-81064188D01*
X121899000Y-81051928D01*
X120899000Y-81051928D01*
X120774518Y-81064188D01*
X120654820Y-81100498D01*
X120544506Y-81159463D01*
X120447815Y-81238815D01*
X120399000Y-81298296D01*
X120350185Y-81238815D01*
X120253494Y-81159463D01*
X120143180Y-81100498D01*
X120023482Y-81064188D01*
X119899000Y-81051928D01*
X118899000Y-81051928D01*
X118841574Y-81057584D01*
X119092158Y-80807000D01*
X130826843Y-80807000D01*
X132752924Y-82733082D01*
G37*
%TD.AperFunction*%
%TD*%
D28*
%TO.N,+BATT*%
X185221678Y-94858666D02*
X184676090Y-95383332D01*
X184570851Y-95331420D01*
X184471575Y-95281715D01*
X184471436Y-95281646D01*
X184381472Y-95237969D01*
X184381066Y-95237781D01*
X184295973Y-95200109D01*
X184295285Y-95199828D01*
X184210552Y-95168105D01*
X184209643Y-95167804D01*
X184120761Y-95141975D01*
X184119767Y-95141729D01*
X184022226Y-95121737D01*
X184021293Y-95121581D01*
X183910583Y-95107370D01*
X183909803Y-95107295D01*
X183781414Y-95098810D01*
X183780814Y-95098784D01*
X183642700Y-95096201D01*
X183642700Y-94621131D01*
X183780815Y-94618547D01*
X183781414Y-94618521D01*
X183909803Y-94610036D01*
X183910583Y-94609961D01*
X184021293Y-94595750D01*
X184022226Y-94595594D01*
X184119767Y-94575602D01*
X184120761Y-94575356D01*
X184209643Y-94549527D01*
X184210552Y-94549226D01*
X184295285Y-94517503D01*
X184295973Y-94517222D01*
X184381066Y-94479550D01*
X184381472Y-94479362D01*
X184471436Y-94435685D01*
X184471575Y-94435616D01*
X184570851Y-94385911D01*
X184676090Y-94334000D01*
X185221678Y-94858666D01*
%TA.AperFunction,Conductor*%
D29*
G36*
X185221678Y-94858666D02*
G01*
X184676090Y-95383332D01*
X184570851Y-95331420D01*
X184471575Y-95281715D01*
X184471436Y-95281646D01*
X184381472Y-95237969D01*
X184381066Y-95237781D01*
X184295973Y-95200109D01*
X184295285Y-95199828D01*
X184210552Y-95168105D01*
X184209643Y-95167804D01*
X184120761Y-95141975D01*
X184119767Y-95141729D01*
X184022226Y-95121737D01*
X184021293Y-95121581D01*
X183910583Y-95107370D01*
X183909803Y-95107295D01*
X183781414Y-95098810D01*
X183780814Y-95098784D01*
X183642700Y-95096201D01*
X183642700Y-94621131D01*
X183780815Y-94618547D01*
X183781414Y-94618521D01*
X183909803Y-94610036D01*
X183910583Y-94609961D01*
X184021293Y-94595750D01*
X184022226Y-94595594D01*
X184119767Y-94575602D01*
X184120761Y-94575356D01*
X184209643Y-94549527D01*
X184210552Y-94549226D01*
X184295285Y-94517503D01*
X184295973Y-94517222D01*
X184381066Y-94479550D01*
X184381472Y-94479362D01*
X184471436Y-94435685D01*
X184471575Y-94435616D01*
X184570851Y-94385911D01*
X184676090Y-94334000D01*
X185221678Y-94858666D01*
G37*
%TD.AperFunction*%
%TD*%
M02*
