%TF.GenerationSoftware,KiCad,Pcbnew,(5.1.10)-1*%
%TF.CreationDate,2021-07-03T17:53:54+02:00*%
%TF.ProjectId,LoRaProMini,4c6f5261-5072-46f4-9d69-6e692e6b6963,2.1*%
%TF.SameCoordinates,Original*%
%TF.FileFunction,Soldermask,Bot*%
%TF.FilePolarity,Negative*%
%FSLAX46Y46*%
G04 Gerber Fmt 4.6, Leading zero omitted, Abs format (unit mm)*
G04 Created by KiCad (PCBNEW (5.1.10)-1) date 2021-07-03 17:53:54*
%MOMM*%
%LPD*%
G01*
G04 APERTURE LIST*
%ADD10C,1.600000*%
%ADD11R,6.000000X2.500000*%
%ADD12C,1.700000*%
%ADD13R,1.700000X1.700000*%
%ADD14O,1.700000X1.700000*%
%ADD15C,2.500000*%
%ADD16O,1.750000X1.200000*%
G04 APERTURE END LIST*
D10*
%TO.C,AE1*%
X106449000Y-90690000D03*
D11*
X103440000Y-93692000D03*
X103440000Y-87692000D03*
%TD*%
D12*
%TO.C,X1*%
X134200000Y-98310000D03*
X134200000Y-95770000D03*
X134200000Y-93230000D03*
D13*
X134200000Y-90690000D03*
D12*
X136740000Y-98310000D03*
X141820000Y-98310000D03*
X139280000Y-98310000D03*
X149440000Y-98310000D03*
X151980000Y-98310000D03*
X146900000Y-98310000D03*
X144360000Y-98310000D03*
X154520000Y-98310000D03*
X157060000Y-98310000D03*
D13*
X162140000Y-98310000D03*
D12*
X159600000Y-98310000D03*
X159600000Y-83070000D03*
D13*
X162140000Y-83070000D03*
D12*
X157060000Y-83070000D03*
X154520000Y-83070000D03*
X144360000Y-83070000D03*
X146900000Y-83070000D03*
X151980000Y-83070000D03*
X149440000Y-83070000D03*
X139280000Y-83070000D03*
X141820000Y-83070000D03*
X136740000Y-83070000D03*
X134200000Y-83070000D03*
X153250000Y-95770000D03*
X150710000Y-95770000D03*
%TD*%
D14*
%TO.C,J4*%
X171140000Y-86870000D03*
X171140000Y-89410000D03*
X171140000Y-91950000D03*
D13*
X171140000Y-94490000D03*
%TD*%
D15*
%TO.C,REF\u002A\u002A*%
X187930000Y-101190000D03*
%TD*%
%TO.C,REF\u002A\u002A*%
X101940000Y-101190000D03*
%TD*%
%TO.C,REF\u002A\u002A*%
X101940000Y-80190000D03*
%TD*%
%TO.C,REF\u002A\u002A*%
X187930000Y-80190000D03*
%TD*%
D16*
%TO.C,J3*%
X179778000Y-93675333D03*
X179778000Y-91675333D03*
X179778000Y-89675333D03*
G36*
G01*
X179152999Y-87075333D02*
X180403001Y-87075333D01*
G75*
G02*
X180653000Y-87325332I0J-249999D01*
G01*
X180653000Y-88025334D01*
G75*
G02*
X180403001Y-88275333I-249999J0D01*
G01*
X179152999Y-88275333D01*
G75*
G02*
X178903000Y-88025334I0J249999D01*
G01*
X178903000Y-87325332D01*
G75*
G02*
X179152999Y-87075333I249999J0D01*
G01*
G37*
%TD*%
%TO.C,J2*%
X186835617Y-89356000D03*
X186835617Y-87356000D03*
G36*
G01*
X186210616Y-84756000D02*
X187460618Y-84756000D01*
G75*
G02*
X187710617Y-85005999I0J-249999D01*
G01*
X187710617Y-85706001D01*
G75*
G02*
X187460618Y-85956000I-249999J0D01*
G01*
X186210616Y-85956000D01*
G75*
G02*
X185960617Y-85706001I0J249999D01*
G01*
X185960617Y-85005999D01*
G75*
G02*
X186210616Y-84756000I249999J0D01*
G01*
G37*
%TD*%
%TO.C,J1*%
X186835617Y-96206000D03*
G36*
G01*
X186210616Y-93606000D02*
X187460618Y-93606000D01*
G75*
G02*
X187710617Y-93855999I0J-249999D01*
G01*
X187710617Y-94556001D01*
G75*
G02*
X187460618Y-94806000I-249999J0D01*
G01*
X186210616Y-94806000D01*
G75*
G02*
X185960617Y-94556001I0J249999D01*
G01*
X185960617Y-93855999D01*
G75*
G02*
X186210616Y-93606000I249999J0D01*
G01*
G37*
%TD*%
M02*
