M48
; DRILL file {KiCad (5.1.10)-1} date 09/20/21 23:46:14
; FORMAT={-:-/ absolute / inch / decimal}
; #@! TF.CreationDate,2021-09-20T23:46:14+02:00
; #@! TF.GenerationSoftware,Kicad,Pcbnew,(5.1.10)-1
; #@! TF.FileFunction,Plated,1,2,PTH
FMAT,2
INCH
T1C0.0157
T2C0.0295
T3C0.0354
T4C0.0394
%
G90
G05
T1
X4.0724Y-3.365
X4.0724Y-3.7744
X4.2299Y-3.5224
X4.2299Y-3.6209
X4.2654Y-3.6209
X4.2693Y-3.5224
X4.3008Y-3.6248
X4.3047Y-3.5264
X4.3362Y-3.6366
X4.3441Y-3.5343
X4.3677Y-3.6563
X4.3795Y-3.55
X4.3913Y-3.6839
X4.4071Y-3.7154
X4.411Y-3.5697
X4.415Y-3.7508
X4.415Y-3.7862
X4.415Y-3.8217
X4.415Y-3.8571
X4.415Y-3.8925
X4.415Y-3.928
X4.4425Y-3.5972
X4.4425Y-3.9555
X4.4645Y-3.3343
X4.4661Y-3.6248
X4.478Y-3.9555
X4.4858Y-3.6563
X4.5016Y-3.6917
X4.5094Y-3.7311
X4.5134Y-3.7665
X4.5134Y-3.8059
X4.622Y-3.3972
X4.7007Y-3.4366
X4.8582Y-3.476
X4.8582Y-3.8067
X4.937Y-3.8067
X4.9898Y-3.3972
X4.9898Y-3.4366
X4.9898Y-3.476
X5.0134Y-3.3343
X5.0157Y-3.8067
X5.1157Y-3.1768
X5.1945Y-3.7004
X5.226Y-3.1799
X5.2417Y-3.2949
X5.2457Y-3.2469
X5.2496Y-3.5626
X5.2535Y-3.7594
X5.2772Y-3.5972
X5.3047Y-3.3303
X5.3244Y-3.6642
X5.3598Y-3.4752
X5.3717Y-3.8067
X5.411Y-3.3343
X5.411Y-3.8067
X5.4228Y-3.6406
X5.4228Y-3.976
X5.4268Y-3.4516
X5.4346Y-3.5106
X5.4346Y-3.5539
X5.4976Y-3.787
X5.5173Y-3.2516
X5.5173Y-3.8461
X5.5252Y-3.9752
X5.5882Y-3.2791
X5.6236Y-3.9752
X5.6276Y-3.5705
X5.6315Y-3.487
X5.6669Y-3.7555
X5.6669Y-3.9327
X5.7063Y-3.9327
X5.7417Y-3.4705
X5.7417Y-3.5705
X5.7969Y-3.9516
X5.8362Y-3.1524
X5.8913Y-3.8382
X5.9031Y-3.3146
X5.9031Y-3.3854
X5.915Y-3.2516
X5.9976Y-3.2516
X6.0094Y-3.3579
X6.0094Y-3.7476
X6.1289Y-3.5167
X6.1467Y-3.4242
X6.1591Y-3.3697
X6.1669Y-4.039
X6.1945Y-3.2043
X6.222Y-3.7043
X6.3008Y-3.5028
X6.3008Y-3.7988
T2
X6.3008Y-3.1571
X6.3008Y-3.2358
X6.3008Y-3.3146
X6.3008Y-3.3933
X6.3008Y-3.6098
X6.3008Y-3.6886
X6.3008Y-3.9051
X6.3008Y-3.9839
X6.5764Y-3.35
X6.5764Y-3.4287
X6.5764Y-3.6335
X6.5764Y-3.7122
X6.5764Y-3.7909
T3
X4.1909Y-3.5705
T4
X5.1748Y-3.1177
X5.1748Y-4.0232
X5.2748Y-3.1177
X5.2748Y-4.0232
X5.3748Y-3.1177
X5.3748Y-4.0232
X5.4748Y-3.1177
X5.4748Y-4.0232
X5.5748Y-3.1177
X5.5748Y-4.0232
X5.6748Y-4.0232
X5.7748Y-4.0232
X5.8748Y-4.0232
X6.0803Y-3.3705
X6.0803Y-3.4705
X6.0803Y-3.5705
X6.0803Y-3.6705
X6.0803Y-3.7705
T0
M30
