%TF.GenerationSoftware,KiCad,Pcbnew,(5.1.10)-1*%
%TF.CreationDate,2021-07-05T11:04:18+02:00*%
%TF.ProjectId,LoRaProMini,4c6f5261-5072-46f4-9d69-6e692e6b6963,2.1*%
%TF.SameCoordinates,Original*%
%TF.FileFunction,Copper,L1,Top*%
%TF.FilePolarity,Positive*%
%FSLAX46Y46*%
G04 Gerber Fmt 4.6, Leading zero omitted, Abs format (unit mm)*
G04 Created by KiCad (PCBNEW (5.1.10)-1) date 2021-07-05 11:04:18*
%MOMM*%
%LPD*%
G01*
G04 APERTURE LIST*
%TA.AperFunction,SMDPad,CuDef*%
%ADD10R,1.900000X0.800000*%
%TD*%
%TA.AperFunction,ComponentPad*%
%ADD11C,1.600000*%
%TD*%
%TA.AperFunction,SMDPad,CuDef*%
%ADD12R,6.000000X2.500000*%
%TD*%
%TA.AperFunction,SMDPad,CuDef*%
%ADD13R,4.700000X1.000000*%
%TD*%
%TA.AperFunction,SMDPad,CuDef*%
%ADD14R,2.200000X1.050000*%
%TD*%
%TA.AperFunction,ComponentPad*%
%ADD15C,1.700000*%
%TD*%
%TA.AperFunction,ComponentPad*%
%ADD16R,1.700000X1.700000*%
%TD*%
%TA.AperFunction,ComponentPad*%
%ADD17O,1.700000X1.700000*%
%TD*%
%TA.AperFunction,SMDPad,CuDef*%
%ADD18R,1.000000X2.000000*%
%TD*%
%TA.AperFunction,ComponentPad*%
%ADD19O,1.750000X1.200000*%
%TD*%
%TA.AperFunction,ViaPad*%
%ADD20C,0.800000*%
%TD*%
%TA.AperFunction,Conductor*%
%ADD21C,1.000000*%
%TD*%
%TA.AperFunction,Conductor*%
%ADD22C,0.500000*%
%TD*%
%TA.AperFunction,Conductor*%
%ADD23C,0.250000*%
%TD*%
%TA.AperFunction,Conductor*%
%ADD24C,0.254000*%
%TD*%
%TA.AperFunction,Conductor*%
%ADD25C,0.100000*%
%TD*%
%TA.AperFunction,Conductor*%
%ADD26C,0.025400*%
%TD*%
G04 APERTURE END LIST*
D10*
%TO.P,U1,3*%
%TO.N,+BATT*%
X181430000Y-98190000D03*
%TO.P,U1,2*%
%TO.N,+3V3*%
X178430000Y-99140000D03*
%TO.P,U1,1*%
%TO.N,GND*%
X178430000Y-97240000D03*
%TD*%
D11*
%TO.P,AE1,1*%
%TO.N,Net-(AE1-Pad1)*%
X106449000Y-90690000D03*
D12*
%TO.P,AE1,2*%
%TO.N,GND*%
X103440000Y-93692000D03*
X103440000Y-87692000D03*
D13*
%TO.P,AE1,1*%
%TO.N,Net-(AE1-Pad1)*%
X104649000Y-90690000D03*
D14*
%TO.P,AE1,2*%
%TO.N,GND*%
X103440000Y-89092000D03*
X103440000Y-92292000D03*
%TD*%
D15*
%TO.P,X1,24*%
%TO.N,SPI_CS_LORA*%
X134200000Y-98310000D03*
%TO.P,X1,29*%
%TO.N,Net-(X1-Pad29)*%
X134200000Y-95770000D03*
%TO.P,X1,28*%
%TO.N,Net-(X1-Pad28)*%
X134200000Y-93230000D03*
D16*
%TO.P,X1,27*%
%TO.N,GND*%
X134200000Y-90690000D03*
D15*
%TO.P,X1,23*%
%TO.N,SPI_MOSI*%
X136740000Y-98310000D03*
%TO.P,X1,21*%
%TO.N,SPI_SCK*%
X141820000Y-98310000D03*
%TO.P,X1,22*%
%TO.N,SPI_MISO*%
X139280000Y-98310000D03*
%TO.P,X1,18*%
%TO.N,Net-(X1-Pad18)*%
X149440000Y-98310000D03*
%TO.P,X1,17*%
%TO.N,Net-(X1-Pad17)*%
X151980000Y-98310000D03*
%TO.P,X1,19*%
%TO.N,Net-(X1-Pad19)*%
X146900000Y-98310000D03*
%TO.P,X1,20*%
%TO.N,MCU_A0*%
X144360000Y-98310000D03*
%TO.P,X1,16*%
%TO.N,+3V3*%
X154520000Y-98310000D03*
%TO.P,X1,15*%
%TO.N,Net-(X1-Pad15)*%
X157060000Y-98310000D03*
D16*
%TO.P,X1,13*%
%TO.N,Net-(X1-Pad13)*%
X162140000Y-98310000D03*
D15*
%TO.P,X1,14*%
%TO.N,GND*%
X159600000Y-98310000D03*
%TO.P,X1,2*%
%TO.N,RXD*%
X159600000Y-83070000D03*
D16*
%TO.P,X1,1*%
%TO.N,TXD*%
X162140000Y-83070000D03*
D15*
%TO.P,X1,3*%
%TO.N,Net-(X1-Pad3)*%
X157060000Y-83070000D03*
%TO.P,X1,4*%
%TO.N,GND*%
X154520000Y-83070000D03*
%TO.P,X1,8*%
%TO.N,Net-(X1-Pad8)*%
X144360000Y-83070000D03*
%TO.P,X1,7*%
%TO.N,Net-(X1-Pad7)*%
X146900000Y-83070000D03*
%TO.P,X1,5*%
%TO.N,LORA_DIO2*%
X151980000Y-83070000D03*
%TO.P,X1,6*%
%TO.N,Net-(X1-Pad6)*%
X149440000Y-83070000D03*
%TO.P,X1,10*%
%TO.N,LORA_DIO1*%
X139280000Y-83070000D03*
%TO.P,X1,9*%
%TO.N,1-WIRE*%
X141820000Y-83070000D03*
%TO.P,X1,11*%
%TO.N,LORA_DIO0*%
X136740000Y-83070000D03*
%TO.P,X1,12*%
%TO.N,LORA_RST*%
X134200000Y-83070000D03*
%TO.P,X1,25*%
%TO.N,MCU_SCL*%
X153250000Y-95770000D03*
%TO.P,X1,26*%
%TO.N,MCU_SDA*%
X150710000Y-95770000D03*
%TD*%
D17*
%TO.P,J4,4*%
%TO.N,TXD*%
X171740000Y-86870000D03*
%TO.P,J4,3*%
%TO.N,RXD*%
X171740000Y-89410000D03*
%TO.P,J4,2*%
%TO.N,GND*%
X171740000Y-91950000D03*
D16*
%TO.P,J4,1*%
%TO.N,+3V3*%
X171740000Y-94490000D03*
%TD*%
D18*
%TO.P,U2,16*%
%TO.N,LORA_DIO2*%
X127399000Y-98690000D03*
%TO.P,U2,15*%
%TO.N,LORA_DIO1*%
X125399000Y-98690000D03*
%TO.P,U2,14*%
%TO.N,LORA_DIO0*%
X123399000Y-98690000D03*
%TO.P,U2,13*%
%TO.N,+3V3*%
X121399000Y-98690000D03*
%TO.P,U2,12*%
%TO.N,Net-(U2-Pad12)*%
X119399000Y-98690000D03*
%TO.P,U2,11*%
%TO.N,Net-(U2-Pad11)*%
X117399000Y-98690000D03*
%TO.P,U2,10*%
%TO.N,GND*%
X115399000Y-98690000D03*
%TO.P,U2,9*%
%TO.N,Net-(AE1-Pad1)*%
X113399000Y-98690000D03*
%TO.P,U2,8*%
%TO.N,GND*%
X113399000Y-82690000D03*
%TO.P,U2,7*%
%TO.N,Net-(U2-Pad7)*%
X115399000Y-82690000D03*
%TO.P,U2,6*%
%TO.N,LORA_RST*%
X117399000Y-82690000D03*
%TO.P,U2,5*%
%TO.N,SPI_CS_LORA*%
X119399000Y-82690000D03*
%TO.P,U2,4*%
%TO.N,SPI_SCK*%
X121399000Y-82690000D03*
%TO.P,U2,3*%
%TO.N,SPI_MOSI*%
X123399000Y-82690000D03*
%TO.P,U2,2*%
%TO.N,SPI_MISO*%
X125399000Y-82690000D03*
%TO.P,U2,1*%
%TO.N,GND*%
X127399000Y-82690000D03*
%TD*%
%TO.P,C1,2*%
%TO.N,GND*%
%TA.AperFunction,SMDPad,CuDef*%
G36*
G01*
X131049000Y-99562833D02*
X130099000Y-99562833D01*
G75*
G02*
X129849000Y-99312833I0J250000D01*
G01*
X129849000Y-98637833D01*
G75*
G02*
X130099000Y-98387833I250000J0D01*
G01*
X131049000Y-98387833D01*
G75*
G02*
X131299000Y-98637833I0J-250000D01*
G01*
X131299000Y-99312833D01*
G75*
G02*
X131049000Y-99562833I-250000J0D01*
G01*
G37*
%TD.AperFunction*%
%TO.P,C1,1*%
%TO.N,+3V3*%
%TA.AperFunction,SMDPad,CuDef*%
G36*
G01*
X131049000Y-101637833D02*
X130099000Y-101637833D01*
G75*
G02*
X129849000Y-101387833I0J250000D01*
G01*
X129849000Y-100712833D01*
G75*
G02*
X130099000Y-100462833I250000J0D01*
G01*
X131049000Y-100462833D01*
G75*
G02*
X131299000Y-100712833I0J-250000D01*
G01*
X131299000Y-101387833D01*
G75*
G02*
X131049000Y-101637833I-250000J0D01*
G01*
G37*
%TD.AperFunction*%
%TD*%
%TO.P,C2,2*%
%TO.N,GND*%
%TA.AperFunction,SMDPad,CuDef*%
G36*
G01*
X182880000Y-101665000D02*
X182880000Y-100715000D01*
G75*
G02*
X183130000Y-100465000I250000J0D01*
G01*
X183805000Y-100465000D01*
G75*
G02*
X184055000Y-100715000I0J-250000D01*
G01*
X184055000Y-101665000D01*
G75*
G02*
X183805000Y-101915000I-250000J0D01*
G01*
X183130000Y-101915000D01*
G75*
G02*
X182880000Y-101665000I0J250000D01*
G01*
G37*
%TD.AperFunction*%
%TO.P,C2,1*%
%TO.N,+BATT*%
%TA.AperFunction,SMDPad,CuDef*%
G36*
G01*
X180805000Y-101665000D02*
X180805000Y-100715000D01*
G75*
G02*
X181055000Y-100465000I250000J0D01*
G01*
X181730000Y-100465000D01*
G75*
G02*
X181980000Y-100715000I0J-250000D01*
G01*
X181980000Y-101665000D01*
G75*
G02*
X181730000Y-101915000I-250000J0D01*
G01*
X181055000Y-101915000D01*
G75*
G02*
X180805000Y-101665000I0J250000D01*
G01*
G37*
%TD.AperFunction*%
%TD*%
%TO.P,C5,2*%
%TO.N,GND*%
%TA.AperFunction,SMDPad,CuDef*%
G36*
G01*
X170265000Y-80364999D02*
X170265000Y-82415001D01*
G75*
G02*
X170015001Y-82665000I-249999J0D01*
G01*
X168264999Y-82665000D01*
G75*
G02*
X168015000Y-82415001I0J249999D01*
G01*
X168015000Y-80364999D01*
G75*
G02*
X168264999Y-80115000I249999J0D01*
G01*
X170015001Y-80115000D01*
G75*
G02*
X170265000Y-80364999I0J-249999D01*
G01*
G37*
%TD.AperFunction*%
%TO.P,C5,1*%
%TO.N,+3V3*%
%TA.AperFunction,SMDPad,CuDef*%
G36*
G01*
X176665000Y-80364999D02*
X176665000Y-82415001D01*
G75*
G02*
X176415001Y-82665000I-249999J0D01*
G01*
X174664999Y-82665000D01*
G75*
G02*
X174415000Y-82415001I0J249999D01*
G01*
X174415000Y-80364999D01*
G75*
G02*
X174664999Y-80115000I249999J0D01*
G01*
X176415001Y-80115000D01*
G75*
G02*
X176665000Y-80364999I0J-249999D01*
G01*
G37*
%TD.AperFunction*%
%TD*%
%TO.P,R5,2*%
%TO.N,1-WIRE*%
%TA.AperFunction,SMDPad,CuDef*%
G36*
G01*
X179940000Y-79840001D02*
X179940000Y-78939999D01*
G75*
G02*
X180189999Y-78690000I249999J0D01*
G01*
X180890001Y-78690000D01*
G75*
G02*
X181140000Y-78939999I0J-249999D01*
G01*
X181140000Y-79840001D01*
G75*
G02*
X180890001Y-80090000I-249999J0D01*
G01*
X180189999Y-80090000D01*
G75*
G02*
X179940000Y-79840001I0J249999D01*
G01*
G37*
%TD.AperFunction*%
%TO.P,R5,1*%
%TO.N,+3V3*%
%TA.AperFunction,SMDPad,CuDef*%
G36*
G01*
X177940000Y-79840001D02*
X177940000Y-78939999D01*
G75*
G02*
X178189999Y-78690000I249999J0D01*
G01*
X178890001Y-78690000D01*
G75*
G02*
X179140000Y-78939999I0J-249999D01*
G01*
X179140000Y-79840001D01*
G75*
G02*
X178890001Y-80090000I-249999J0D01*
G01*
X178189999Y-80090000D01*
G75*
G02*
X177940000Y-79840001I0J249999D01*
G01*
G37*
%TD.AperFunction*%
%TD*%
%TO.P,R4,2*%
%TO.N,MCU_SDA*%
%TA.AperFunction,SMDPad,CuDef*%
G36*
G01*
X179940000Y-81840001D02*
X179940000Y-80939999D01*
G75*
G02*
X180189999Y-80690000I249999J0D01*
G01*
X180890001Y-80690000D01*
G75*
G02*
X181140000Y-80939999I0J-249999D01*
G01*
X181140000Y-81840001D01*
G75*
G02*
X180890001Y-82090000I-249999J0D01*
G01*
X180189999Y-82090000D01*
G75*
G02*
X179940000Y-81840001I0J249999D01*
G01*
G37*
%TD.AperFunction*%
%TO.P,R4,1*%
%TO.N,+3V3*%
%TA.AperFunction,SMDPad,CuDef*%
G36*
G01*
X177940000Y-81840001D02*
X177940000Y-80939999D01*
G75*
G02*
X178189999Y-80690000I249999J0D01*
G01*
X178890001Y-80690000D01*
G75*
G02*
X179140000Y-80939999I0J-249999D01*
G01*
X179140000Y-81840001D01*
G75*
G02*
X178890001Y-82090000I-249999J0D01*
G01*
X178189999Y-82090000D01*
G75*
G02*
X177940000Y-81840001I0J249999D01*
G01*
G37*
%TD.AperFunction*%
%TD*%
%TO.P,R3,2*%
%TO.N,+3V3*%
%TA.AperFunction,SMDPad,CuDef*%
G36*
G01*
X179140000Y-82939999D02*
X179140000Y-83840001D01*
G75*
G02*
X178890001Y-84090000I-249999J0D01*
G01*
X178189999Y-84090000D01*
G75*
G02*
X177940000Y-83840001I0J249999D01*
G01*
X177940000Y-82939999D01*
G75*
G02*
X178189999Y-82690000I249999J0D01*
G01*
X178890001Y-82690000D01*
G75*
G02*
X179140000Y-82939999I0J-249999D01*
G01*
G37*
%TD.AperFunction*%
%TO.P,R3,1*%
%TO.N,MCU_SCL*%
%TA.AperFunction,SMDPad,CuDef*%
G36*
G01*
X181140000Y-82939999D02*
X181140000Y-83840001D01*
G75*
G02*
X180890001Y-84090000I-249999J0D01*
G01*
X180189999Y-84090000D01*
G75*
G02*
X179940000Y-83840001I0J249999D01*
G01*
X179940000Y-82939999D01*
G75*
G02*
X180189999Y-82690000I249999J0D01*
G01*
X180890001Y-82690000D01*
G75*
G02*
X181140000Y-82939999I0J-249999D01*
G01*
G37*
%TD.AperFunction*%
%TD*%
%TO.P,R2,2*%
%TO.N,MCU_A0*%
%TA.AperFunction,SMDPad,CuDef*%
G36*
G01*
X169730000Y-101640001D02*
X169730000Y-100739999D01*
G75*
G02*
X169979999Y-100490000I249999J0D01*
G01*
X170680001Y-100490000D01*
G75*
G02*
X170930000Y-100739999I0J-249999D01*
G01*
X170930000Y-101640001D01*
G75*
G02*
X170680001Y-101890000I-249999J0D01*
G01*
X169979999Y-101890000D01*
G75*
G02*
X169730000Y-101640001I0J249999D01*
G01*
G37*
%TD.AperFunction*%
%TO.P,R2,1*%
%TO.N,GND*%
%TA.AperFunction,SMDPad,CuDef*%
G36*
G01*
X167730000Y-101640400D02*
X167730000Y-100739600D01*
G75*
G02*
X167979600Y-100490000I249600J0D01*
G01*
X168680400Y-100490000D01*
G75*
G02*
X168930000Y-100739600I0J-249600D01*
G01*
X168930000Y-101640400D01*
G75*
G02*
X168680400Y-101890000I-249600J0D01*
G01*
X167979600Y-101890000D01*
G75*
G02*
X167730000Y-101640400I0J249600D01*
G01*
G37*
%TD.AperFunction*%
%TD*%
%TO.P,R1,2*%
%TO.N,+BATT*%
%TA.AperFunction,SMDPad,CuDef*%
G36*
G01*
X168930000Y-98739999D02*
X168930000Y-99640001D01*
G75*
G02*
X168680001Y-99890000I-249999J0D01*
G01*
X167979999Y-99890000D01*
G75*
G02*
X167730000Y-99640001I0J249999D01*
G01*
X167730000Y-98739999D01*
G75*
G02*
X167979999Y-98490000I249999J0D01*
G01*
X168680001Y-98490000D01*
G75*
G02*
X168930000Y-98739999I0J-249999D01*
G01*
G37*
%TD.AperFunction*%
%TO.P,R1,1*%
%TO.N,MCU_A0*%
%TA.AperFunction,SMDPad,CuDef*%
G36*
G01*
X170930000Y-98739999D02*
X170930000Y-99640001D01*
G75*
G02*
X170680001Y-99890000I-249999J0D01*
G01*
X169979999Y-99890000D01*
G75*
G02*
X169730000Y-99640001I0J249999D01*
G01*
X169730000Y-98739999D01*
G75*
G02*
X169979999Y-98490000I249999J0D01*
G01*
X170680001Y-98490000D01*
G75*
G02*
X170930000Y-98739999I0J-249999D01*
G01*
G37*
%TD.AperFunction*%
%TD*%
%TO.P,C4,2*%
%TO.N,MCU_A0*%
%TA.AperFunction,SMDPad,CuDef*%
G36*
G01*
X173226666Y-100715000D02*
X173226666Y-101665000D01*
G75*
G02*
X172976666Y-101915000I-250000J0D01*
G01*
X172301666Y-101915000D01*
G75*
G02*
X172051666Y-101665000I0J250000D01*
G01*
X172051666Y-100715000D01*
G75*
G02*
X172301666Y-100465000I250000J0D01*
G01*
X172976666Y-100465000D01*
G75*
G02*
X173226666Y-100715000I0J-250000D01*
G01*
G37*
%TD.AperFunction*%
%TO.P,C4,1*%
%TO.N,GND*%
%TA.AperFunction,SMDPad,CuDef*%
G36*
G01*
X175301666Y-100715000D02*
X175301666Y-101665000D01*
G75*
G02*
X175051666Y-101915000I-250000J0D01*
G01*
X174376666Y-101915000D01*
G75*
G02*
X174126666Y-101665000I0J250000D01*
G01*
X174126666Y-100715000D01*
G75*
G02*
X174376666Y-100465000I250000J0D01*
G01*
X175051666Y-100465000D01*
G75*
G02*
X175301666Y-100715000I0J-250000D01*
G01*
G37*
%TD.AperFunction*%
%TD*%
D19*
%TO.P,J3,4*%
%TO.N,MCU_SDA*%
X179778000Y-93675333D03*
%TO.P,J3,3*%
%TO.N,MCU_SCL*%
X179778000Y-91675333D03*
%TO.P,J3,2*%
%TO.N,GND*%
X179778000Y-89675333D03*
%TO.P,J3,1*%
%TO.N,+3V3*%
%TA.AperFunction,ComponentPad*%
G36*
G01*
X179152999Y-87075333D02*
X180403001Y-87075333D01*
G75*
G02*
X180653000Y-87325332I0J-249999D01*
G01*
X180653000Y-88025334D01*
G75*
G02*
X180403001Y-88275333I-249999J0D01*
G01*
X179152999Y-88275333D01*
G75*
G02*
X178903000Y-88025334I0J249999D01*
G01*
X178903000Y-87325332D01*
G75*
G02*
X179152999Y-87075333I249999J0D01*
G01*
G37*
%TD.AperFunction*%
%TD*%
%TO.P,J2,3*%
%TO.N,GND*%
X186835617Y-89356000D03*
%TO.P,J2,2*%
%TO.N,1-WIRE*%
X186835617Y-87356000D03*
%TO.P,J2,1*%
%TO.N,+3V3*%
%TA.AperFunction,ComponentPad*%
G36*
G01*
X186210616Y-84756000D02*
X187460618Y-84756000D01*
G75*
G02*
X187710617Y-85005999I0J-249999D01*
G01*
X187710617Y-85706001D01*
G75*
G02*
X187460618Y-85956000I-249999J0D01*
G01*
X186210616Y-85956000D01*
G75*
G02*
X185960617Y-85706001I0J249999D01*
G01*
X185960617Y-85005999D01*
G75*
G02*
X186210616Y-84756000I249999J0D01*
G01*
G37*
%TD.AperFunction*%
%TD*%
%TO.P,J1,2*%
%TO.N,GND*%
X186835617Y-96206000D03*
%TO.P,J1,1*%
%TO.N,+BATT*%
%TA.AperFunction,ComponentPad*%
G36*
G01*
X186210616Y-93606000D02*
X187460618Y-93606000D01*
G75*
G02*
X187710617Y-93855999I0J-249999D01*
G01*
X187710617Y-94556001D01*
G75*
G02*
X187460618Y-94806000I-249999J0D01*
G01*
X186210616Y-94806000D01*
G75*
G02*
X185960617Y-94556001I0J249999D01*
G01*
X185960617Y-93855999D01*
G75*
G02*
X186210616Y-93606000I249999J0D01*
G01*
G37*
%TD.AperFunction*%
%TD*%
%TO.P,C3,2*%
%TO.N,GND*%
%TA.AperFunction,SMDPad,CuDef*%
G36*
G01*
X177603332Y-100715000D02*
X177603332Y-101665000D01*
G75*
G02*
X177353332Y-101915000I-250000J0D01*
G01*
X176678332Y-101915000D01*
G75*
G02*
X176428332Y-101665000I0J250000D01*
G01*
X176428332Y-100715000D01*
G75*
G02*
X176678332Y-100465000I250000J0D01*
G01*
X177353332Y-100465000D01*
G75*
G02*
X177603332Y-100715000I0J-250000D01*
G01*
G37*
%TD.AperFunction*%
%TO.P,C3,1*%
%TO.N,+3V3*%
%TA.AperFunction,SMDPad,CuDef*%
G36*
G01*
X179678332Y-100715000D02*
X179678332Y-101665000D01*
G75*
G02*
X179428332Y-101915000I-250000J0D01*
G01*
X178753332Y-101915000D01*
G75*
G02*
X178503332Y-101665000I0J250000D01*
G01*
X178503332Y-100715000D01*
G75*
G02*
X178753332Y-100465000I250000J0D01*
G01*
X179428332Y-100465000D01*
G75*
G02*
X179678332Y-100715000I0J-250000D01*
G01*
G37*
%TD.AperFunction*%
%TD*%
D20*
%TO.N,GND*%
X144360000Y-85864000D03*
X109323000Y-89525000D03*
X110339000Y-89715500D03*
X108270500Y-91938000D03*
X112080500Y-94986000D03*
X112127000Y-97060000D03*
X112127000Y-98203000D03*
X114466500Y-93716000D03*
X114784000Y-94668500D03*
X111291500Y-90033000D03*
X114814000Y-96764000D03*
X114810831Y-95684500D03*
X114085500Y-92763500D03*
X113577500Y-91938000D03*
X112815500Y-91176000D03*
X112053500Y-90541000D03*
X109286500Y-92065000D03*
X110239000Y-92542557D03*
X111064500Y-93208000D03*
X111699500Y-94033500D03*
X112114000Y-96002000D03*
X107190000Y-88440000D03*
X107190000Y-87440000D03*
X107190000Y-86440000D03*
X106190000Y-85690000D03*
X105190000Y-85690000D03*
X104190000Y-85690000D03*
X103190000Y-85690000D03*
X102190000Y-85690000D03*
X101190000Y-85690000D03*
X107190000Y-89440000D03*
X107190000Y-91940000D03*
X107190000Y-92940000D03*
X107190000Y-93940000D03*
X107190000Y-94940000D03*
X106063000Y-95690000D03*
X105063000Y-95690000D03*
X104063000Y-95690000D03*
X103063000Y-95690000D03*
X102063000Y-95690000D03*
X101063000Y-95690000D03*
X108290000Y-89440000D03*
X130820000Y-83070000D03*
X155340000Y-95790000D03*
X170330000Y-88140000D03*
%TO.N,+BATT*%
X181430000Y-99190000D03*
X165430000Y-99190000D03*
%TO.N,MCU_A0*%
X171480000Y-101190000D03*
%TO.N,1-WIRE*%
X184190000Y-79390000D03*
%TO.N,MCU_SDA*%
X157940000Y-93314999D03*
%TO.N,SPI_CS_LORA*%
X119399000Y-84690000D03*
%TO.N,SPI_SCK*%
X128240000Y-85690000D03*
%TO.N,SPI_MOSI*%
X123399000Y-84690000D03*
%TO.N,SPI_MISO*%
X125399000Y-84690000D03*
%TD*%
D21*
%TO.N,Net-(AE1-Pad1)*%
X108399000Y-90690000D02*
X106449000Y-90690000D01*
X108399000Y-90690000D02*
X108889085Y-90714076D01*
X108889085Y-90714076D02*
X109374451Y-90786073D01*
X109374451Y-90786073D02*
X109850423Y-90905298D01*
X109850423Y-90905298D02*
X110312417Y-91070602D01*
X110312417Y-91070602D02*
X110755983Y-91280393D01*
X110755983Y-91280393D02*
X111176851Y-91532651D01*
X111176851Y-91532651D02*
X111570966Y-91824947D01*
X111570966Y-91824947D02*
X111934533Y-92154466D01*
X111934533Y-92154466D02*
X112264052Y-92518033D01*
X112264052Y-92518033D02*
X112556348Y-92912148D01*
X112556348Y-92912148D02*
X112808606Y-93333016D01*
X112808606Y-93333016D02*
X113018397Y-93776582D01*
X113018397Y-93776582D02*
X113183701Y-94238576D01*
X113183701Y-94238576D02*
X113302926Y-94714548D01*
X113302926Y-94714548D02*
X113374923Y-95199914D01*
X113374923Y-95199914D02*
X113399000Y-95690000D01*
X113399000Y-95690000D02*
X113399000Y-98690000D01*
X106449000Y-90690000D02*
X104649000Y-90690000D01*
D22*
%TO.N,GND*%
X103440000Y-87692000D02*
X104838000Y-87692000D01*
D21*
X103440000Y-87692000D02*
X108838000Y-87692000D01*
X103440000Y-87692000D02*
X103440000Y-83990000D01*
X103440000Y-93692000D02*
X103440000Y-97290000D01*
X103440000Y-93692000D02*
X108338000Y-93692000D01*
D22*
X103440000Y-92292000D02*
X103440000Y-93692000D01*
X103440000Y-89092000D02*
X103440000Y-87692000D01*
%TO.N,+3V3*%
X121399000Y-99000002D02*
X121399000Y-98690000D01*
X123449331Y-101050333D02*
X121399000Y-99000002D01*
X130695617Y-101050333D02*
X123449331Y-101050333D01*
X151779667Y-101050333D02*
X154520000Y-98310000D01*
X130695617Y-101050333D02*
X151779667Y-101050333D01*
X178430000Y-99140000D02*
X178142500Y-99140000D01*
X175440000Y-81490000D02*
X175540000Y-81390000D01*
X175592500Y-81442500D02*
X175540000Y-81390000D01*
D23*
X178060000Y-79070000D02*
X178430000Y-79440000D01*
X178540000Y-81390000D02*
X178340000Y-81390000D01*
D22*
X178540000Y-79390000D02*
X178540000Y-81390000D01*
X178540000Y-81390000D02*
X178540000Y-83390000D01*
X178540000Y-81390000D02*
X175540000Y-81390000D01*
X154520000Y-98310000D02*
X168640000Y-84190000D01*
X172740000Y-84190000D02*
X175540000Y-81390000D01*
X168640000Y-84190000D02*
X172740000Y-84190000D01*
X178540000Y-86437333D02*
X179778000Y-87675333D01*
X178540000Y-83390000D02*
X178540000Y-86437333D01*
X178169998Y-99140000D02*
X178430000Y-99140000D01*
X175545000Y-94490000D02*
X175592500Y-94442500D01*
X171140000Y-94490000D02*
X175545000Y-94490000D01*
X175592500Y-91860833D02*
X175592500Y-94737500D01*
X179778000Y-87675333D02*
X175592500Y-91860833D01*
X175592500Y-94737500D02*
X175592500Y-94442500D01*
X175592500Y-97752500D02*
X175592500Y-94737500D01*
X176980000Y-99140000D02*
X175592500Y-97752500D01*
D23*
X178430000Y-99140000D02*
X178430000Y-99390000D01*
D22*
X178430000Y-99140000D02*
X177880000Y-99140000D01*
X178430000Y-99140000D02*
X177780000Y-99140000D01*
X178430000Y-99140000D02*
X176980000Y-99140000D01*
D23*
X179090832Y-100050832D02*
X179090832Y-101190000D01*
X178430000Y-99390000D02*
X179090832Y-100050832D01*
%TO.N,+BATT*%
X181430000Y-101152500D02*
X181392500Y-101190000D01*
D22*
X183514000Y-94206000D02*
X181430000Y-96290000D01*
X186835617Y-94206000D02*
X183514000Y-94206000D01*
D23*
X181430000Y-99190000D02*
X181430000Y-101152500D01*
X181430000Y-98190000D02*
X181430000Y-99190000D01*
D22*
X181430000Y-96290000D02*
X181430000Y-98190000D01*
D23*
X165430000Y-99190000D02*
X168330000Y-99190000D01*
%TO.N,MCU_A0*%
X170330000Y-98990000D02*
X170330000Y-101190000D01*
X170330000Y-101190000D02*
X172639166Y-101190000D01*
%TO.N,1-WIRE*%
X184190000Y-79390000D02*
X183290040Y-79390000D01*
X181915020Y-86765020D02*
X182506000Y-87356000D01*
X182506000Y-87356000D02*
X186835617Y-87356000D01*
X180540000Y-79390000D02*
X181915020Y-80765020D01*
X183290040Y-79390000D02*
X181915020Y-80765020D01*
X181915020Y-80765020D02*
X181915020Y-86765020D01*
%TO.N,MCU_SDA*%
X179763333Y-93690000D02*
X179778000Y-93675333D01*
X181465010Y-91988323D02*
X179778000Y-93675333D01*
X181465010Y-82315010D02*
X181465010Y-91988323D01*
X180540000Y-81390000D02*
X181465010Y-82315010D01*
X153165001Y-93314999D02*
X150710000Y-95770000D01*
X157940000Y-93314999D02*
X153165001Y-93314999D01*
%TO.N,MCU_SCL*%
X179763333Y-91690000D02*
X179778000Y-91675333D01*
X180978010Y-90475323D02*
X179778000Y-91675333D01*
X180978010Y-83828010D02*
X180978010Y-90475323D01*
X180540000Y-83390000D02*
X180978010Y-83828010D01*
%TO.N,LORA_DIO2*%
X151980000Y-83070000D02*
X146360000Y-88690000D01*
X127399000Y-98690000D02*
X127399000Y-90590000D01*
X127399000Y-90590000D02*
X129299000Y-88690000D01*
X129299000Y-88690000D02*
X146360000Y-88690000D01*
%TO.N,LORA_DIO1*%
X139280000Y-83070000D02*
X134660000Y-87690000D01*
X129599000Y-87690000D02*
X134660000Y-87690000D01*
X129499000Y-87690000D02*
X129599000Y-87690000D01*
X128899000Y-87690000D02*
X129199000Y-87690000D01*
X125399000Y-98690000D02*
X126399000Y-97690000D01*
X129199000Y-87690000D02*
X129599000Y-87690000D01*
X126399000Y-90190000D02*
X128899000Y-87690000D01*
X126399000Y-97690000D02*
X126399000Y-90190000D01*
X129099000Y-87690000D02*
X129199000Y-87690000D01*
%TO.N,LORA_DIO0*%
X125399000Y-89790000D02*
X125399000Y-96690000D01*
X128499000Y-86690000D02*
X125399000Y-89790000D01*
X133120000Y-86690000D02*
X128499000Y-86690000D01*
X125399000Y-96690000D02*
X123399000Y-98690000D01*
X136740000Y-83070000D02*
X133120000Y-86690000D01*
%TO.N,LORA_RST*%
X134200000Y-83070000D02*
X131740000Y-80610000D01*
X131740000Y-80610000D02*
X118560000Y-80610000D01*
X117399000Y-81771000D02*
X117399000Y-82690000D01*
X118560000Y-80610000D02*
X117399000Y-81771000D01*
%TO.N,SPI_CS_LORA*%
X119399000Y-82690000D02*
X119399000Y-84690000D01*
%TO.N,SPI_SCK*%
X121399000Y-83940000D02*
X121399000Y-82690000D01*
X123149000Y-85690000D02*
X121399000Y-83940000D01*
X128240000Y-85690000D02*
X123149000Y-85690000D01*
%TO.N,SPI_MOSI*%
X123399000Y-82690000D02*
X123399000Y-84690000D01*
%TO.N,SPI_MISO*%
X125399000Y-82690000D02*
X125399000Y-84690000D01*
%TD*%
D24*
%TO.N,GND*%
X188383893Y-77897670D02*
X188820498Y-78029489D01*
X189223185Y-78243600D01*
X189576612Y-78531848D01*
X189867327Y-78883261D01*
X190084242Y-79284439D01*
X190219106Y-79720113D01*
X190270000Y-80204344D01*
X190270001Y-101157711D01*
X190222330Y-101643894D01*
X190090512Y-102080497D01*
X189876399Y-102483186D01*
X189588150Y-102836613D01*
X189236739Y-103127327D01*
X188835564Y-103344240D01*
X188399886Y-103479106D01*
X187915665Y-103530000D01*
X101972294Y-103528002D01*
X101486106Y-103480330D01*
X101049503Y-103348512D01*
X100646814Y-103134399D01*
X100293387Y-102846150D01*
X100002673Y-102494739D01*
X99785760Y-102093564D01*
X99650894Y-101657886D01*
X99600000Y-101173664D01*
X99600000Y-101004344D01*
X100055000Y-101004344D01*
X100055000Y-101375656D01*
X100127439Y-101739834D01*
X100269534Y-102082882D01*
X100475825Y-102391618D01*
X100738382Y-102654175D01*
X101047118Y-102860466D01*
X101390166Y-103002561D01*
X101754344Y-103075000D01*
X102125656Y-103075000D01*
X102489834Y-103002561D01*
X102832882Y-102860466D01*
X103141618Y-102654175D01*
X103404175Y-102391618D01*
X103610466Y-102082882D01*
X103752561Y-101739834D01*
X103825000Y-101375656D01*
X103825000Y-101004344D01*
X103752561Y-100640166D01*
X103610466Y-100297118D01*
X103404175Y-99988382D01*
X103141618Y-99725825D01*
X102832882Y-99519534D01*
X102489834Y-99377439D01*
X102125656Y-99305000D01*
X101754344Y-99305000D01*
X101390166Y-99377439D01*
X101047118Y-99519534D01*
X100738382Y-99725825D01*
X100475825Y-99988382D01*
X100269534Y-100297118D01*
X100127439Y-100640166D01*
X100055000Y-101004344D01*
X99600000Y-101004344D01*
X99600000Y-96350000D01*
X99972419Y-96350000D01*
X100000329Y-96347251D01*
X100003308Y-96347272D01*
X100012479Y-96346373D01*
X100060648Y-96341310D01*
X100069383Y-96340450D01*
X100069674Y-96340362D01*
X100109527Y-96336173D01*
X100168152Y-96324139D01*
X100226884Y-96312936D01*
X100235706Y-96310272D01*
X100328925Y-96281416D01*
X100384075Y-96258233D01*
X100439537Y-96235825D01*
X100447666Y-96231502D01*
X100447670Y-96231500D01*
X100447673Y-96231498D01*
X100533511Y-96185086D01*
X100583098Y-96151638D01*
X100633156Y-96118881D01*
X100640297Y-96113057D01*
X100715486Y-96050855D01*
X100757639Y-96008406D01*
X100800371Y-95966561D01*
X100806245Y-95959460D01*
X100867921Y-95883840D01*
X100901052Y-95833975D01*
X100934825Y-95784650D01*
X100939208Y-95776544D01*
X100985020Y-95690383D01*
X101007809Y-95635091D01*
X101031378Y-95580102D01*
X101031595Y-95579402D01*
X103154250Y-95577000D01*
X103313000Y-95418250D01*
X103313000Y-93819000D01*
X103567000Y-93819000D01*
X103567000Y-95418250D01*
X103725750Y-95577000D01*
X106440000Y-95580072D01*
X106564482Y-95567812D01*
X106684180Y-95531502D01*
X106794494Y-95472537D01*
X106891185Y-95393185D01*
X106970537Y-95296494D01*
X107029502Y-95186180D01*
X107065812Y-95066482D01*
X107078072Y-94942000D01*
X107075000Y-93977750D01*
X106916250Y-93819000D01*
X103567000Y-93819000D01*
X103313000Y-93819000D01*
X103293000Y-93819000D01*
X103293000Y-93565000D01*
X103313000Y-93565000D01*
X103313000Y-93545000D01*
X103567000Y-93545000D01*
X103567000Y-93565000D01*
X106916250Y-93565000D01*
X107075000Y-93406250D01*
X107078072Y-92442000D01*
X107065812Y-92317518D01*
X107029502Y-92197820D01*
X106970537Y-92087506D01*
X106933604Y-92042503D01*
X107128727Y-91961680D01*
X107149595Y-91947736D01*
X107190442Y-91929244D01*
X107287646Y-91892338D01*
X107372374Y-91867151D01*
X107454513Y-91849626D01*
X107544892Y-91837245D01*
X107652901Y-91829090D01*
X107779373Y-91825000D01*
X108371145Y-91825000D01*
X108777707Y-91844973D01*
X109152755Y-91900606D01*
X109520550Y-91992733D01*
X109877549Y-92120470D01*
X110220303Y-92282580D01*
X110545520Y-92477507D01*
X110850057Y-92703367D01*
X111130999Y-92958000D01*
X111385632Y-93238942D01*
X111611492Y-93543479D01*
X111806421Y-93868699D01*
X111968529Y-94211448D01*
X112096263Y-94568443D01*
X112188394Y-94936246D01*
X112244026Y-95311292D01*
X112264000Y-95717861D01*
X112264001Y-97658802D01*
X112260928Y-97690000D01*
X112260928Y-99690000D01*
X112273188Y-99814482D01*
X112309498Y-99934180D01*
X112368463Y-100044494D01*
X112447815Y-100141185D01*
X112544506Y-100220537D01*
X112654820Y-100279502D01*
X112774518Y-100315812D01*
X112899000Y-100328072D01*
X113899000Y-100328072D01*
X114023482Y-100315812D01*
X114143180Y-100279502D01*
X114253494Y-100220537D01*
X114350185Y-100141185D01*
X114399000Y-100081704D01*
X114447815Y-100141185D01*
X114544506Y-100220537D01*
X114654820Y-100279502D01*
X114774518Y-100315812D01*
X114899000Y-100328072D01*
X115113250Y-100325000D01*
X115272000Y-100166250D01*
X115272000Y-98817000D01*
X115252000Y-98817000D01*
X115252000Y-98563000D01*
X115272000Y-98563000D01*
X115272000Y-97213750D01*
X115113250Y-97055000D01*
X114899000Y-97051928D01*
X114774518Y-97064188D01*
X114654820Y-97100498D01*
X114544506Y-97159463D01*
X114534000Y-97168085D01*
X114534000Y-95717839D01*
X114535368Y-95689991D01*
X114534000Y-95662145D01*
X114534000Y-95634248D01*
X114531266Y-95606484D01*
X114505820Y-95088536D01*
X114495325Y-95017784D01*
X114417460Y-94492861D01*
X114417458Y-94492853D01*
X114417457Y-94492846D01*
X114271139Y-93908712D01*
X114271137Y-93908705D01*
X114271135Y-93908699D01*
X114068267Y-93341720D01*
X114068263Y-93341711D01*
X114068261Y-93341706D01*
X113882429Y-92948796D01*
X113854962Y-92890723D01*
X113810796Y-92797342D01*
X113810792Y-92797336D01*
X113810790Y-92797331D01*
X113501208Y-92280823D01*
X113501202Y-92280815D01*
X113501199Y-92280810D01*
X113142480Y-91797134D01*
X113142479Y-91797133D01*
X113142471Y-91797122D01*
X112738070Y-91350936D01*
X112738066Y-91350933D01*
X112738063Y-91350929D01*
X112291877Y-90946528D01*
X112281730Y-90939002D01*
X112264645Y-90926331D01*
X112157297Y-90846716D01*
X112157295Y-90846715D01*
X111808189Y-90587800D01*
X111808184Y-90587797D01*
X111808176Y-90587791D01*
X111291668Y-90278209D01*
X111291659Y-90278205D01*
X111291656Y-90278203D01*
X110747292Y-90020738D01*
X110747291Y-90020738D01*
X110747279Y-90020732D01*
X110180299Y-89817864D01*
X110180287Y-89817860D01*
X109596152Y-89671541D01*
X109430412Y-89646956D01*
X109166202Y-89607764D01*
X109166201Y-89607764D01*
X109053101Y-89590987D01*
X109000474Y-89583181D01*
X109000473Y-89583181D01*
X109000460Y-89583179D01*
X108482516Y-89557735D01*
X108454752Y-89555000D01*
X108426853Y-89555000D01*
X108399006Y-89553632D01*
X108371158Y-89555000D01*
X107779404Y-89555000D01*
X107652901Y-89550909D01*
X107544892Y-89542754D01*
X107454513Y-89530373D01*
X107372374Y-89512848D01*
X107287646Y-89487661D01*
X107190449Y-89450758D01*
X107149591Y-89432261D01*
X107128727Y-89418320D01*
X106936054Y-89338512D01*
X106970537Y-89296494D01*
X107029502Y-89186180D01*
X107065812Y-89066482D01*
X107078072Y-88942000D01*
X107075000Y-87977750D01*
X106916250Y-87819000D01*
X103567000Y-87819000D01*
X103567000Y-87839000D01*
X103313000Y-87839000D01*
X103313000Y-87819000D01*
X103293000Y-87819000D01*
X103293000Y-87565000D01*
X103313000Y-87565000D01*
X103313000Y-85965750D01*
X103567000Y-85965750D01*
X103567000Y-87565000D01*
X106916250Y-87565000D01*
X107075000Y-87406250D01*
X107078072Y-86442000D01*
X107065812Y-86317518D01*
X107029502Y-86197820D01*
X106970537Y-86087506D01*
X106891185Y-85990815D01*
X106794494Y-85911463D01*
X106684180Y-85852498D01*
X106564482Y-85816188D01*
X106440000Y-85803928D01*
X103725750Y-85807000D01*
X103567000Y-85965750D01*
X103313000Y-85965750D01*
X103154250Y-85807000D01*
X101032507Y-85804599D01*
X101031416Y-85801075D01*
X101008238Y-85745937D01*
X100985825Y-85690463D01*
X100981498Y-85682327D01*
X100935085Y-85596489D01*
X100901645Y-85546913D01*
X100868881Y-85496844D01*
X100863057Y-85489703D01*
X100800855Y-85414514D01*
X100758406Y-85372361D01*
X100716561Y-85329629D01*
X100709460Y-85323755D01*
X100633839Y-85262079D01*
X100584034Y-85228988D01*
X100534650Y-85195174D01*
X100526544Y-85190792D01*
X100440383Y-85144980D01*
X100385091Y-85122191D01*
X100330102Y-85098622D01*
X100321299Y-85095897D01*
X100227881Y-85067692D01*
X100169174Y-85056067D01*
X100110684Y-85043635D01*
X100101530Y-85042673D01*
X100101524Y-85042672D01*
X100101519Y-85042672D01*
X100004402Y-85033150D01*
X99972419Y-85030000D01*
X99600000Y-85030000D01*
X99600000Y-83690000D01*
X112260928Y-83690000D01*
X112273188Y-83814482D01*
X112309498Y-83934180D01*
X112368463Y-84044494D01*
X112447815Y-84141185D01*
X112544506Y-84220537D01*
X112654820Y-84279502D01*
X112774518Y-84315812D01*
X112899000Y-84328072D01*
X113113250Y-84325000D01*
X113272000Y-84166250D01*
X113272000Y-82817000D01*
X112422750Y-82817000D01*
X112264000Y-82975750D01*
X112260928Y-83690000D01*
X99600000Y-83690000D01*
X99600000Y-80222279D01*
X99621368Y-80004344D01*
X100055000Y-80004344D01*
X100055000Y-80375656D01*
X100127439Y-80739834D01*
X100269534Y-81082882D01*
X100475825Y-81391618D01*
X100738382Y-81654175D01*
X101047118Y-81860466D01*
X101390166Y-82002561D01*
X101754344Y-82075000D01*
X102125656Y-82075000D01*
X102489834Y-82002561D01*
X102832882Y-81860466D01*
X103088002Y-81690000D01*
X112260928Y-81690000D01*
X112264000Y-82404250D01*
X112422750Y-82563000D01*
X113272000Y-82563000D01*
X113272000Y-81213750D01*
X113526000Y-81213750D01*
X113526000Y-82563000D01*
X113546000Y-82563000D01*
X113546000Y-82817000D01*
X113526000Y-82817000D01*
X113526000Y-84166250D01*
X113684750Y-84325000D01*
X113899000Y-84328072D01*
X114023482Y-84315812D01*
X114143180Y-84279502D01*
X114253494Y-84220537D01*
X114350185Y-84141185D01*
X114399000Y-84081704D01*
X114447815Y-84141185D01*
X114544506Y-84220537D01*
X114654820Y-84279502D01*
X114774518Y-84315812D01*
X114899000Y-84328072D01*
X115899000Y-84328072D01*
X116023482Y-84315812D01*
X116143180Y-84279502D01*
X116253494Y-84220537D01*
X116350185Y-84141185D01*
X116399000Y-84081704D01*
X116447815Y-84141185D01*
X116544506Y-84220537D01*
X116654820Y-84279502D01*
X116774518Y-84315812D01*
X116899000Y-84328072D01*
X117899000Y-84328072D01*
X118023482Y-84315812D01*
X118143180Y-84279502D01*
X118253494Y-84220537D01*
X118350185Y-84141185D01*
X118399000Y-84081704D01*
X118447815Y-84141185D01*
X118495031Y-84179934D01*
X118481795Y-84199744D01*
X118403774Y-84388102D01*
X118364000Y-84588061D01*
X118364000Y-84791939D01*
X118403774Y-84991898D01*
X118481795Y-85180256D01*
X118595063Y-85349774D01*
X118739226Y-85493937D01*
X118908744Y-85607205D01*
X119097102Y-85685226D01*
X119297061Y-85725000D01*
X119500939Y-85725000D01*
X119700898Y-85685226D01*
X119889256Y-85607205D01*
X120058774Y-85493937D01*
X120202937Y-85349774D01*
X120316205Y-85180256D01*
X120394226Y-84991898D01*
X120434000Y-84791939D01*
X120434000Y-84588061D01*
X120394226Y-84388102D01*
X120316205Y-84199744D01*
X120302969Y-84179934D01*
X120350185Y-84141185D01*
X120399000Y-84081704D01*
X120447815Y-84141185D01*
X120544506Y-84220537D01*
X120654820Y-84279502D01*
X120731078Y-84302635D01*
X120764026Y-84364276D01*
X120783580Y-84388102D01*
X120858999Y-84480001D01*
X120888003Y-84503804D01*
X122585201Y-86201003D01*
X122608999Y-86230001D01*
X122724724Y-86324974D01*
X122856753Y-86395546D01*
X123000014Y-86439003D01*
X123111667Y-86450000D01*
X123111675Y-86450000D01*
X123149000Y-86453676D01*
X123186325Y-86450000D01*
X127536289Y-86450000D01*
X127580226Y-86493937D01*
X127604225Y-86509973D01*
X124888003Y-89226196D01*
X124858999Y-89249999D01*
X124820842Y-89296494D01*
X124764026Y-89365724D01*
X124706933Y-89472537D01*
X124693454Y-89497754D01*
X124649997Y-89641015D01*
X124639000Y-89752668D01*
X124639000Y-89752678D01*
X124635324Y-89790000D01*
X124639000Y-89827323D01*
X124639001Y-96375197D01*
X123956598Y-97057601D01*
X123899000Y-97051928D01*
X122899000Y-97051928D01*
X122774518Y-97064188D01*
X122654820Y-97100498D01*
X122544506Y-97159463D01*
X122447815Y-97238815D01*
X122399000Y-97298296D01*
X122350185Y-97238815D01*
X122253494Y-97159463D01*
X122143180Y-97100498D01*
X122023482Y-97064188D01*
X121899000Y-97051928D01*
X120899000Y-97051928D01*
X120774518Y-97064188D01*
X120654820Y-97100498D01*
X120544506Y-97159463D01*
X120447815Y-97238815D01*
X120399000Y-97298296D01*
X120350185Y-97238815D01*
X120253494Y-97159463D01*
X120143180Y-97100498D01*
X120023482Y-97064188D01*
X119899000Y-97051928D01*
X118899000Y-97051928D01*
X118774518Y-97064188D01*
X118654820Y-97100498D01*
X118544506Y-97159463D01*
X118447815Y-97238815D01*
X118399000Y-97298296D01*
X118350185Y-97238815D01*
X118253494Y-97159463D01*
X118143180Y-97100498D01*
X118023482Y-97064188D01*
X117899000Y-97051928D01*
X116899000Y-97051928D01*
X116774518Y-97064188D01*
X116654820Y-97100498D01*
X116544506Y-97159463D01*
X116447815Y-97238815D01*
X116399000Y-97298296D01*
X116350185Y-97238815D01*
X116253494Y-97159463D01*
X116143180Y-97100498D01*
X116023482Y-97064188D01*
X115899000Y-97051928D01*
X115684750Y-97055000D01*
X115526000Y-97213750D01*
X115526000Y-98563000D01*
X115546000Y-98563000D01*
X115546000Y-98817000D01*
X115526000Y-98817000D01*
X115526000Y-100166250D01*
X115684750Y-100325000D01*
X115899000Y-100328072D01*
X116023482Y-100315812D01*
X116143180Y-100279502D01*
X116253494Y-100220537D01*
X116350185Y-100141185D01*
X116399000Y-100081704D01*
X116447815Y-100141185D01*
X116544506Y-100220537D01*
X116654820Y-100279502D01*
X116774518Y-100315812D01*
X116899000Y-100328072D01*
X117899000Y-100328072D01*
X118023482Y-100315812D01*
X118143180Y-100279502D01*
X118253494Y-100220537D01*
X118350185Y-100141185D01*
X118399000Y-100081704D01*
X118447815Y-100141185D01*
X118544506Y-100220537D01*
X118654820Y-100279502D01*
X118774518Y-100315812D01*
X118899000Y-100328072D01*
X119899000Y-100328072D01*
X120023482Y-100315812D01*
X120143180Y-100279502D01*
X120253494Y-100220537D01*
X120350185Y-100141185D01*
X120399000Y-100081704D01*
X120447815Y-100141185D01*
X120544506Y-100220537D01*
X120654820Y-100279502D01*
X120774518Y-100315812D01*
X120899000Y-100328072D01*
X121475492Y-100328072D01*
X122792801Y-101645382D01*
X122820514Y-101679150D01*
X122854282Y-101706863D01*
X122854284Y-101706865D01*
X122928536Y-101767802D01*
X122955272Y-101789744D01*
X123109018Y-101871922D01*
X123275841Y-101922528D01*
X123405854Y-101935333D01*
X123405862Y-101935333D01*
X123449331Y-101939614D01*
X123492800Y-101935333D01*
X129405005Y-101935333D01*
X129471038Y-102015795D01*
X129605614Y-102126238D01*
X129759150Y-102208305D01*
X129925746Y-102258841D01*
X130099000Y-102275905D01*
X131049000Y-102275905D01*
X131222254Y-102258841D01*
X131388850Y-102208305D01*
X131542386Y-102126238D01*
X131676962Y-102015795D01*
X131742995Y-101935333D01*
X151736198Y-101935333D01*
X151779667Y-101939614D01*
X151823136Y-101935333D01*
X151823144Y-101935333D01*
X151953157Y-101922528D01*
X152060385Y-101890000D01*
X167091928Y-101890000D01*
X167104188Y-102014482D01*
X167140498Y-102134180D01*
X167199463Y-102244494D01*
X167278815Y-102341185D01*
X167375506Y-102420537D01*
X167485820Y-102479502D01*
X167605518Y-102515812D01*
X167730000Y-102528072D01*
X168044250Y-102525000D01*
X168203000Y-102366250D01*
X168203000Y-101317000D01*
X167253750Y-101317000D01*
X167095000Y-101475750D01*
X167091928Y-101890000D01*
X152060385Y-101890000D01*
X152119980Y-101871922D01*
X152273726Y-101789744D01*
X152408484Y-101679150D01*
X152436201Y-101645377D01*
X154301040Y-99780539D01*
X154373740Y-99795000D01*
X154666260Y-99795000D01*
X154953158Y-99737932D01*
X155223411Y-99625990D01*
X155466632Y-99463475D01*
X155673475Y-99256632D01*
X155790000Y-99082240D01*
X155906525Y-99256632D01*
X156113368Y-99463475D01*
X156356589Y-99625990D01*
X156626842Y-99737932D01*
X156913740Y-99795000D01*
X157206260Y-99795000D01*
X157493158Y-99737932D01*
X157763411Y-99625990D01*
X158006632Y-99463475D01*
X158131710Y-99338397D01*
X158751208Y-99338397D01*
X158828843Y-99587472D01*
X159092883Y-99713371D01*
X159376411Y-99785339D01*
X159668531Y-99800611D01*
X159958019Y-99758599D01*
X160233747Y-99660919D01*
X160371157Y-99587472D01*
X160448792Y-99338397D01*
X159600000Y-98489605D01*
X158751208Y-99338397D01*
X158131710Y-99338397D01*
X158213475Y-99256632D01*
X158329311Y-99083271D01*
X158571603Y-99158792D01*
X159420395Y-98310000D01*
X159779605Y-98310000D01*
X160628397Y-99158792D01*
X160651928Y-99151458D01*
X160651928Y-99160000D01*
X160664188Y-99284482D01*
X160700498Y-99404180D01*
X160759463Y-99514494D01*
X160838815Y-99611185D01*
X160935506Y-99690537D01*
X161045820Y-99749502D01*
X161165518Y-99785812D01*
X161290000Y-99798072D01*
X162990000Y-99798072D01*
X163114482Y-99785812D01*
X163234180Y-99749502D01*
X163344494Y-99690537D01*
X163441185Y-99611185D01*
X163520537Y-99514494D01*
X163579502Y-99404180D01*
X163615812Y-99284482D01*
X163628072Y-99160000D01*
X163628072Y-99088061D01*
X164395000Y-99088061D01*
X164395000Y-99291939D01*
X164434774Y-99491898D01*
X164512795Y-99680256D01*
X164626063Y-99849774D01*
X164770226Y-99993937D01*
X164939744Y-100107205D01*
X165128102Y-100185226D01*
X165328061Y-100225000D01*
X165531939Y-100225000D01*
X165731898Y-100185226D01*
X165920256Y-100107205D01*
X166089774Y-99993937D01*
X166133711Y-99950000D01*
X167150473Y-99950000D01*
X167159528Y-99979851D01*
X167225663Y-100103581D01*
X167199463Y-100135506D01*
X167140498Y-100245820D01*
X167104188Y-100365518D01*
X167091928Y-100490000D01*
X167095000Y-100904250D01*
X167253750Y-101063000D01*
X168203000Y-101063000D01*
X168203000Y-101043000D01*
X168457000Y-101043000D01*
X168457000Y-101063000D01*
X168477000Y-101063000D01*
X168477000Y-101317000D01*
X168457000Y-101317000D01*
X168457000Y-102366250D01*
X168615750Y-102525000D01*
X168930000Y-102528072D01*
X169054482Y-102515812D01*
X169174180Y-102479502D01*
X169284494Y-102420537D01*
X169381185Y-102341185D01*
X169405363Y-102311724D01*
X169486613Y-102378405D01*
X169640149Y-102460472D01*
X169806745Y-102511008D01*
X169979999Y-102528072D01*
X170680001Y-102528072D01*
X170853255Y-102511008D01*
X171019851Y-102460472D01*
X171173387Y-102378405D01*
X171307962Y-102267962D01*
X171348109Y-102219042D01*
X171378061Y-102225000D01*
X171581939Y-102225000D01*
X171612879Y-102218846D01*
X171673704Y-102292962D01*
X171808280Y-102403405D01*
X171961816Y-102485472D01*
X172128412Y-102536008D01*
X172301666Y-102553072D01*
X172976666Y-102553072D01*
X173149920Y-102536008D01*
X173316516Y-102485472D01*
X173470052Y-102403405D01*
X173604628Y-102292962D01*
X173610008Y-102286406D01*
X173675481Y-102366185D01*
X173772172Y-102445537D01*
X173882486Y-102504502D01*
X174002184Y-102540812D01*
X174126666Y-102553072D01*
X174428416Y-102550000D01*
X174587166Y-102391250D01*
X174587166Y-101317000D01*
X174841166Y-101317000D01*
X174841166Y-102391250D01*
X174999916Y-102550000D01*
X175301666Y-102553072D01*
X175426148Y-102540812D01*
X175545846Y-102504502D01*
X175656160Y-102445537D01*
X175752851Y-102366185D01*
X175832203Y-102269494D01*
X175864999Y-102208138D01*
X175897795Y-102269494D01*
X175977147Y-102366185D01*
X176073838Y-102445537D01*
X176184152Y-102504502D01*
X176303850Y-102540812D01*
X176428332Y-102553072D01*
X176730082Y-102550000D01*
X176888832Y-102391250D01*
X176888832Y-101317000D01*
X175952082Y-101317000D01*
X175864999Y-101404083D01*
X175777916Y-101317000D01*
X174841166Y-101317000D01*
X174587166Y-101317000D01*
X174567166Y-101317000D01*
X174567166Y-101063000D01*
X174587166Y-101063000D01*
X174587166Y-99988750D01*
X174428416Y-99830000D01*
X174126666Y-99826928D01*
X174002184Y-99839188D01*
X173882486Y-99875498D01*
X173772172Y-99934463D01*
X173675481Y-100013815D01*
X173610008Y-100093594D01*
X173604628Y-100087038D01*
X173470052Y-99976595D01*
X173316516Y-99894528D01*
X173149920Y-99843992D01*
X172976666Y-99826928D01*
X172301666Y-99826928D01*
X172128412Y-99843992D01*
X171961816Y-99894528D01*
X171808280Y-99976595D01*
X171673704Y-100087038D01*
X171612879Y-100161154D01*
X171581939Y-100155000D01*
X171400668Y-100155000D01*
X171418405Y-100133387D01*
X171500472Y-99979851D01*
X171551008Y-99813255D01*
X171568072Y-99640001D01*
X171568072Y-98739999D01*
X171551008Y-98566745D01*
X171500472Y-98400149D01*
X171418405Y-98246613D01*
X171307962Y-98112038D01*
X171173387Y-98001595D01*
X171019851Y-97919528D01*
X170853255Y-97868992D01*
X170680001Y-97851928D01*
X169979999Y-97851928D01*
X169806745Y-97868992D01*
X169640149Y-97919528D01*
X169486613Y-98001595D01*
X169352038Y-98112038D01*
X169330000Y-98138891D01*
X169307962Y-98112038D01*
X169173387Y-98001595D01*
X169019851Y-97919528D01*
X168853255Y-97868992D01*
X168680001Y-97851928D01*
X167979999Y-97851928D01*
X167806745Y-97868992D01*
X167640149Y-97919528D01*
X167486613Y-98001595D01*
X167352038Y-98112038D01*
X167241595Y-98246613D01*
X167159528Y-98400149D01*
X167150473Y-98430000D01*
X166133711Y-98430000D01*
X166089774Y-98386063D01*
X165920256Y-98272795D01*
X165731898Y-98194774D01*
X165531939Y-98155000D01*
X165328061Y-98155000D01*
X165128102Y-98194774D01*
X164939744Y-98272795D01*
X164770226Y-98386063D01*
X164626063Y-98530226D01*
X164512795Y-98699744D01*
X164434774Y-98888102D01*
X164395000Y-99088061D01*
X163628072Y-99088061D01*
X163628072Y-97460000D01*
X163615812Y-97335518D01*
X163579502Y-97215820D01*
X163520537Y-97105506D01*
X163441185Y-97008815D01*
X163344494Y-96929463D01*
X163234180Y-96870498D01*
X163114482Y-96834188D01*
X162990000Y-96821928D01*
X161290000Y-96821928D01*
X161165518Y-96834188D01*
X161045820Y-96870498D01*
X160935506Y-96929463D01*
X160838815Y-97008815D01*
X160759463Y-97105506D01*
X160700498Y-97215820D01*
X160664188Y-97335518D01*
X160651928Y-97460000D01*
X160651928Y-97468542D01*
X160628397Y-97461208D01*
X159779605Y-98310000D01*
X159420395Y-98310000D01*
X158571603Y-97461208D01*
X158329311Y-97536729D01*
X158213475Y-97363368D01*
X158131710Y-97281603D01*
X158751208Y-97281603D01*
X159600000Y-98130395D01*
X160448792Y-97281603D01*
X160371157Y-97032528D01*
X160107117Y-96906629D01*
X159823589Y-96834661D01*
X159531469Y-96819389D01*
X159241981Y-96861401D01*
X158966253Y-96959081D01*
X158828843Y-97032528D01*
X158751208Y-97281603D01*
X158131710Y-97281603D01*
X158006632Y-97156525D01*
X157763411Y-96994010D01*
X157493158Y-96882068D01*
X157248230Y-96833348D01*
X167357838Y-86723740D01*
X170255000Y-86723740D01*
X170255000Y-87016260D01*
X170312068Y-87303158D01*
X170424010Y-87573411D01*
X170586525Y-87816632D01*
X170793368Y-88023475D01*
X170967760Y-88140000D01*
X170793368Y-88256525D01*
X170586525Y-88463368D01*
X170424010Y-88706589D01*
X170312068Y-88976842D01*
X170255000Y-89263740D01*
X170255000Y-89556260D01*
X170312068Y-89843158D01*
X170424010Y-90113411D01*
X170586525Y-90356632D01*
X170793368Y-90563475D01*
X170975534Y-90685195D01*
X170858645Y-90754822D01*
X170642412Y-90949731D01*
X170468359Y-91183080D01*
X170343175Y-91445901D01*
X170298524Y-91593110D01*
X170419845Y-91823000D01*
X171613000Y-91823000D01*
X171613000Y-91803000D01*
X171867000Y-91803000D01*
X171867000Y-91823000D01*
X173060155Y-91823000D01*
X173181476Y-91593110D01*
X173136825Y-91445901D01*
X173011641Y-91183080D01*
X172837588Y-90949731D01*
X172621355Y-90754822D01*
X172504466Y-90685195D01*
X172686632Y-90563475D01*
X172893475Y-90356632D01*
X173055990Y-90113411D01*
X173167932Y-89843158D01*
X173225000Y-89556260D01*
X173225000Y-89263740D01*
X173167932Y-88976842D01*
X173055990Y-88706589D01*
X172893475Y-88463368D01*
X172686632Y-88256525D01*
X172512240Y-88140000D01*
X172686632Y-88023475D01*
X172893475Y-87816632D01*
X173055990Y-87573411D01*
X173167932Y-87303158D01*
X173225000Y-87016260D01*
X173225000Y-86723740D01*
X173167932Y-86436842D01*
X173055990Y-86166589D01*
X172893475Y-85923368D01*
X172686632Y-85716525D01*
X172443411Y-85554010D01*
X172173158Y-85442068D01*
X171886260Y-85385000D01*
X171593740Y-85385000D01*
X171306842Y-85442068D01*
X171036589Y-85554010D01*
X170793368Y-85716525D01*
X170586525Y-85923368D01*
X170424010Y-86166589D01*
X170312068Y-86436842D01*
X170255000Y-86723740D01*
X167357838Y-86723740D01*
X169006579Y-85075000D01*
X172696531Y-85075000D01*
X172740000Y-85079281D01*
X172783469Y-85075000D01*
X172783477Y-85075000D01*
X172913490Y-85062195D01*
X173080313Y-85011589D01*
X173234059Y-84929411D01*
X173368817Y-84818817D01*
X173396534Y-84785044D01*
X174878507Y-83303072D01*
X176415001Y-83303072D01*
X176588255Y-83286008D01*
X176754851Y-83235472D01*
X176908387Y-83153405D01*
X177042962Y-83042962D01*
X177153405Y-82908387D01*
X177235472Y-82754851D01*
X177286008Y-82588255D01*
X177303072Y-82415001D01*
X177303072Y-82275000D01*
X177420386Y-82275000D01*
X177451595Y-82333387D01*
X177498056Y-82390000D01*
X177451595Y-82446613D01*
X177369528Y-82600149D01*
X177318992Y-82766745D01*
X177301928Y-82939999D01*
X177301928Y-83840001D01*
X177318992Y-84013255D01*
X177369528Y-84179851D01*
X177451595Y-84333387D01*
X177562038Y-84467962D01*
X177655000Y-84544254D01*
X177655001Y-86393854D01*
X177650719Y-86437333D01*
X177667805Y-86610823D01*
X177718412Y-86777646D01*
X177800590Y-86931392D01*
X177883468Y-87032379D01*
X177883471Y-87032382D01*
X177911184Y-87066150D01*
X177944951Y-87093862D01*
X178264928Y-87413839D01*
X178264928Y-87936826D01*
X174997456Y-91204299D01*
X174963683Y-91232016D01*
X174853089Y-91366775D01*
X174770911Y-91520521D01*
X174735657Y-91636737D01*
X174723949Y-91675333D01*
X174720305Y-91687344D01*
X174707500Y-91817357D01*
X174707500Y-91817364D01*
X174703219Y-91860833D01*
X174707500Y-91904302D01*
X174707501Y-93605000D01*
X173224625Y-93605000D01*
X173215812Y-93515518D01*
X173179502Y-93395820D01*
X173120537Y-93285506D01*
X173041185Y-93188815D01*
X172944494Y-93109463D01*
X172834180Y-93050498D01*
X172753534Y-93026034D01*
X172837588Y-92950269D01*
X173011641Y-92716920D01*
X173136825Y-92454099D01*
X173181476Y-92306890D01*
X173060155Y-92077000D01*
X171867000Y-92077000D01*
X171867000Y-92097000D01*
X171613000Y-92097000D01*
X171613000Y-92077000D01*
X170419845Y-92077000D01*
X170298524Y-92306890D01*
X170343175Y-92454099D01*
X170468359Y-92716920D01*
X170642412Y-92950269D01*
X170726466Y-93026034D01*
X170645820Y-93050498D01*
X170535506Y-93109463D01*
X170438815Y-93188815D01*
X170359463Y-93285506D01*
X170300498Y-93395820D01*
X170264188Y-93515518D01*
X170251928Y-93640000D01*
X170251928Y-94477714D01*
X170250718Y-94490000D01*
X170251928Y-94502286D01*
X170251928Y-95340000D01*
X170264188Y-95464482D01*
X170300498Y-95584180D01*
X170359463Y-95694494D01*
X170438815Y-95791185D01*
X170535506Y-95870537D01*
X170645820Y-95929502D01*
X170765518Y-95965812D01*
X170890000Y-95978072D01*
X172590000Y-95978072D01*
X172714482Y-95965812D01*
X172834180Y-95929502D01*
X172944494Y-95870537D01*
X173041185Y-95791185D01*
X173120537Y-95694494D01*
X173179502Y-95584180D01*
X173215812Y-95464482D01*
X173224625Y-95375000D01*
X174707501Y-95375000D01*
X174707500Y-97709031D01*
X174703219Y-97752500D01*
X174707500Y-97795969D01*
X174707500Y-97795976D01*
X174720305Y-97925989D01*
X174770911Y-98092812D01*
X174853089Y-98246558D01*
X174963683Y-98381317D01*
X174997456Y-98409034D01*
X176323470Y-99735049D01*
X176351183Y-99768817D01*
X176384951Y-99796530D01*
X176384953Y-99796532D01*
X176422670Y-99827486D01*
X176303850Y-99839188D01*
X176184152Y-99875498D01*
X176073838Y-99934463D01*
X175977147Y-100013815D01*
X175897795Y-100110506D01*
X175864999Y-100171862D01*
X175832203Y-100110506D01*
X175752851Y-100013815D01*
X175656160Y-99934463D01*
X175545846Y-99875498D01*
X175426148Y-99839188D01*
X175301666Y-99826928D01*
X174999916Y-99830000D01*
X174841166Y-99988750D01*
X174841166Y-101063000D01*
X175777916Y-101063000D01*
X175864999Y-100975917D01*
X175952082Y-101063000D01*
X176888832Y-101063000D01*
X176888832Y-101043000D01*
X177142832Y-101043000D01*
X177142832Y-101063000D01*
X177162832Y-101063000D01*
X177162832Y-101317000D01*
X177142832Y-101317000D01*
X177142832Y-102391250D01*
X177301582Y-102550000D01*
X177603332Y-102553072D01*
X177727814Y-102540812D01*
X177847512Y-102504502D01*
X177957826Y-102445537D01*
X178054517Y-102366185D01*
X178119990Y-102286406D01*
X178125370Y-102292962D01*
X178259946Y-102403405D01*
X178413482Y-102485472D01*
X178580078Y-102536008D01*
X178753332Y-102553072D01*
X179428332Y-102553072D01*
X179601586Y-102536008D01*
X179768182Y-102485472D01*
X179921718Y-102403405D01*
X180056294Y-102292962D01*
X180166737Y-102158386D01*
X180241666Y-102018204D01*
X180316595Y-102158386D01*
X180427038Y-102292962D01*
X180561614Y-102403405D01*
X180715150Y-102485472D01*
X180881746Y-102536008D01*
X181055000Y-102553072D01*
X181730000Y-102553072D01*
X181903254Y-102536008D01*
X182069850Y-102485472D01*
X182223386Y-102403405D01*
X182357962Y-102292962D01*
X182363342Y-102286406D01*
X182428815Y-102366185D01*
X182525506Y-102445537D01*
X182635820Y-102504502D01*
X182755518Y-102540812D01*
X182880000Y-102553072D01*
X183181750Y-102550000D01*
X183340500Y-102391250D01*
X183340500Y-101317000D01*
X183594500Y-101317000D01*
X183594500Y-102391250D01*
X183753250Y-102550000D01*
X184055000Y-102553072D01*
X184179482Y-102540812D01*
X184299180Y-102504502D01*
X184409494Y-102445537D01*
X184506185Y-102366185D01*
X184585537Y-102269494D01*
X184644502Y-102159180D01*
X184680812Y-102039482D01*
X184693072Y-101915000D01*
X184690000Y-101475750D01*
X184531250Y-101317000D01*
X183594500Y-101317000D01*
X183340500Y-101317000D01*
X183320500Y-101317000D01*
X183320500Y-101063000D01*
X183340500Y-101063000D01*
X183340500Y-99988750D01*
X183594500Y-99988750D01*
X183594500Y-101063000D01*
X184531250Y-101063000D01*
X184589906Y-101004344D01*
X186055000Y-101004344D01*
X186055000Y-101375656D01*
X186127439Y-101739834D01*
X186269534Y-102082882D01*
X186475825Y-102391618D01*
X186738382Y-102654175D01*
X187047118Y-102860466D01*
X187390166Y-103002561D01*
X187754344Y-103075000D01*
X188125656Y-103075000D01*
X188489834Y-103002561D01*
X188832882Y-102860466D01*
X189141618Y-102654175D01*
X189404175Y-102391618D01*
X189610466Y-102082882D01*
X189752561Y-101739834D01*
X189825000Y-101375656D01*
X189825000Y-101004344D01*
X189752561Y-100640166D01*
X189610466Y-100297118D01*
X189404175Y-99988382D01*
X189141618Y-99725825D01*
X188832882Y-99519534D01*
X188489834Y-99377439D01*
X188125656Y-99305000D01*
X187754344Y-99305000D01*
X187390166Y-99377439D01*
X187047118Y-99519534D01*
X186738382Y-99725825D01*
X186475825Y-99988382D01*
X186269534Y-100297118D01*
X186127439Y-100640166D01*
X186055000Y-101004344D01*
X184589906Y-101004344D01*
X184690000Y-100904250D01*
X184693072Y-100465000D01*
X184680812Y-100340518D01*
X184644502Y-100220820D01*
X184585537Y-100110506D01*
X184506185Y-100013815D01*
X184409494Y-99934463D01*
X184299180Y-99875498D01*
X184179482Y-99839188D01*
X184055000Y-99826928D01*
X183753250Y-99830000D01*
X183594500Y-99988750D01*
X183340500Y-99988750D01*
X183181750Y-99830000D01*
X182880000Y-99826928D01*
X182755518Y-99839188D01*
X182635820Y-99875498D01*
X182525506Y-99934463D01*
X182428815Y-100013815D01*
X182363342Y-100093594D01*
X182357962Y-100087038D01*
X182223386Y-99976595D01*
X182190000Y-99958750D01*
X182190000Y-99893711D01*
X182233937Y-99849774D01*
X182347205Y-99680256D01*
X182425226Y-99491898D01*
X182465000Y-99291939D01*
X182465000Y-99219701D01*
X182504482Y-99215812D01*
X182624180Y-99179502D01*
X182734494Y-99120537D01*
X182831185Y-99041185D01*
X182910537Y-98944494D01*
X182969502Y-98834180D01*
X183005812Y-98714482D01*
X183018072Y-98590000D01*
X183018072Y-97790000D01*
X183005812Y-97665518D01*
X182969502Y-97545820D01*
X182910537Y-97435506D01*
X182831185Y-97338815D01*
X182734494Y-97259463D01*
X182624180Y-97200498D01*
X182504482Y-97164188D01*
X182380000Y-97151928D01*
X182315000Y-97151928D01*
X182315000Y-96656578D01*
X182447969Y-96523609D01*
X185367155Y-96523609D01*
X185371026Y-96561282D01*
X185463196Y-96786533D01*
X185597539Y-96989474D01*
X185768892Y-97162307D01*
X185970671Y-97298390D01*
X186195121Y-97392493D01*
X186433617Y-97441000D01*
X186708617Y-97441000D01*
X186708617Y-96333000D01*
X186962617Y-96333000D01*
X186962617Y-97441000D01*
X187237617Y-97441000D01*
X187476113Y-97392493D01*
X187700563Y-97298390D01*
X187902342Y-97162307D01*
X188073695Y-96989474D01*
X188208038Y-96786533D01*
X188300208Y-96561282D01*
X188304079Y-96523609D01*
X188179348Y-96333000D01*
X186962617Y-96333000D01*
X186708617Y-96333000D01*
X185491886Y-96333000D01*
X185367155Y-96523609D01*
X182447969Y-96523609D01*
X183880579Y-95091000D01*
X185506363Y-95091000D01*
X185582655Y-95183962D01*
X185717230Y-95294405D01*
X185722023Y-95296967D01*
X185597539Y-95422526D01*
X185463196Y-95625467D01*
X185371026Y-95850718D01*
X185367155Y-95888391D01*
X185491886Y-96079000D01*
X186708617Y-96079000D01*
X186708617Y-96059000D01*
X186962617Y-96059000D01*
X186962617Y-96079000D01*
X188179348Y-96079000D01*
X188304079Y-95888391D01*
X188300208Y-95850718D01*
X188208038Y-95625467D01*
X188073695Y-95422526D01*
X187949211Y-95296967D01*
X187954004Y-95294405D01*
X188088579Y-95183962D01*
X188199022Y-95049387D01*
X188281089Y-94895851D01*
X188331625Y-94729255D01*
X188348689Y-94556001D01*
X188348689Y-93855999D01*
X188331625Y-93682745D01*
X188281089Y-93516149D01*
X188199022Y-93362613D01*
X188088579Y-93228038D01*
X187954004Y-93117595D01*
X187800468Y-93035528D01*
X187633872Y-92984992D01*
X187460618Y-92967928D01*
X186210616Y-92967928D01*
X186037362Y-92984992D01*
X185870766Y-93035528D01*
X185717230Y-93117595D01*
X185582655Y-93228038D01*
X185506363Y-93321000D01*
X183557466Y-93321000D01*
X183513999Y-93316719D01*
X183470533Y-93321000D01*
X183470523Y-93321000D01*
X183340510Y-93333805D01*
X183173687Y-93384411D01*
X183019941Y-93466589D01*
X182990452Y-93490790D01*
X182918953Y-93549468D01*
X182918951Y-93549470D01*
X182885183Y-93577183D01*
X182857470Y-93610951D01*
X180834956Y-95633466D01*
X180801183Y-95661183D01*
X180690589Y-95795942D01*
X180608411Y-95949688D01*
X180581343Y-96038917D01*
X180557805Y-96116510D01*
X180557177Y-96122883D01*
X180545000Y-96246524D01*
X180545000Y-96246531D01*
X180540719Y-96290000D01*
X180545000Y-96333469D01*
X180545000Y-97151928D01*
X180480000Y-97151928D01*
X180355518Y-97164188D01*
X180235820Y-97200498D01*
X180125506Y-97259463D01*
X180028815Y-97338815D01*
X179949463Y-97435506D01*
X179940857Y-97451607D01*
X179856250Y-97367000D01*
X178557000Y-97367000D01*
X178557000Y-97387000D01*
X178303000Y-97387000D01*
X178303000Y-97367000D01*
X177003750Y-97367000D01*
X176845000Y-97525750D01*
X176841928Y-97640000D01*
X176853983Y-97762405D01*
X176477500Y-97385922D01*
X176477500Y-96840000D01*
X176841928Y-96840000D01*
X176845000Y-96954250D01*
X177003750Y-97113000D01*
X178303000Y-97113000D01*
X178303000Y-96363750D01*
X178557000Y-96363750D01*
X178557000Y-97113000D01*
X179856250Y-97113000D01*
X180015000Y-96954250D01*
X180018072Y-96840000D01*
X180005812Y-96715518D01*
X179969502Y-96595820D01*
X179910537Y-96485506D01*
X179831185Y-96388815D01*
X179734494Y-96309463D01*
X179624180Y-96250498D01*
X179504482Y-96214188D01*
X179380000Y-96201928D01*
X178715750Y-96205000D01*
X178557000Y-96363750D01*
X178303000Y-96363750D01*
X178144250Y-96205000D01*
X177480000Y-96201928D01*
X177355518Y-96214188D01*
X177235820Y-96250498D01*
X177125506Y-96309463D01*
X177028815Y-96388815D01*
X176949463Y-96485506D01*
X176890498Y-96595820D01*
X176854188Y-96715518D01*
X176841928Y-96840000D01*
X176477500Y-96840000D01*
X176477500Y-94485967D01*
X176481781Y-94442501D01*
X176477500Y-94399035D01*
X176477500Y-92227411D01*
X178422892Y-90282019D01*
X178539922Y-90458807D01*
X178711275Y-90631640D01*
X178775348Y-90674852D01*
X178625498Y-90797831D01*
X178471167Y-90985884D01*
X178356489Y-91200432D01*
X178285870Y-91433231D01*
X178262025Y-91675333D01*
X178285870Y-91917435D01*
X178356489Y-92150234D01*
X178471167Y-92364782D01*
X178625498Y-92552835D01*
X178774762Y-92675333D01*
X178625498Y-92797831D01*
X178471167Y-92985884D01*
X178356489Y-93200432D01*
X178285870Y-93433231D01*
X178262025Y-93675333D01*
X178285870Y-93917435D01*
X178356489Y-94150234D01*
X178471167Y-94364782D01*
X178625498Y-94552835D01*
X178813551Y-94707166D01*
X179028099Y-94821844D01*
X179260898Y-94892463D01*
X179442335Y-94910333D01*
X180113665Y-94910333D01*
X180295102Y-94892463D01*
X180527901Y-94821844D01*
X180742449Y-94707166D01*
X180930502Y-94552835D01*
X181084833Y-94364782D01*
X181199511Y-94150234D01*
X181270130Y-93917435D01*
X181293975Y-93675333D01*
X181270130Y-93433231D01*
X181229347Y-93298788D01*
X181976018Y-92552118D01*
X182005011Y-92528324D01*
X182028805Y-92499331D01*
X182028809Y-92499327D01*
X182090197Y-92424524D01*
X182099984Y-92412599D01*
X182170556Y-92280570D01*
X182214013Y-92137309D01*
X182225010Y-92025656D01*
X182225010Y-92025647D01*
X182228686Y-91988324D01*
X182225010Y-91951001D01*
X182225010Y-89673609D01*
X185367155Y-89673609D01*
X185371026Y-89711282D01*
X185463196Y-89936533D01*
X185597539Y-90139474D01*
X185768892Y-90312307D01*
X185970671Y-90448390D01*
X186195121Y-90542493D01*
X186433617Y-90591000D01*
X186708617Y-90591000D01*
X186708617Y-89483000D01*
X186962617Y-89483000D01*
X186962617Y-90591000D01*
X187237617Y-90591000D01*
X187476113Y-90542493D01*
X187700563Y-90448390D01*
X187902342Y-90312307D01*
X188073695Y-90139474D01*
X188208038Y-89936533D01*
X188300208Y-89711282D01*
X188304079Y-89673609D01*
X188179348Y-89483000D01*
X186962617Y-89483000D01*
X186708617Y-89483000D01*
X185491886Y-89483000D01*
X185367155Y-89673609D01*
X182225010Y-89673609D01*
X182225010Y-88064961D01*
X182357014Y-88105003D01*
X182468667Y-88116000D01*
X182468677Y-88116000D01*
X182506000Y-88119676D01*
X182543323Y-88116000D01*
X185586684Y-88116000D01*
X185683115Y-88233502D01*
X185832965Y-88356481D01*
X185768892Y-88399693D01*
X185597539Y-88572526D01*
X185463196Y-88775467D01*
X185371026Y-89000718D01*
X185367155Y-89038391D01*
X185491886Y-89229000D01*
X186708617Y-89229000D01*
X186708617Y-89209000D01*
X186962617Y-89209000D01*
X186962617Y-89229000D01*
X188179348Y-89229000D01*
X188304079Y-89038391D01*
X188300208Y-89000718D01*
X188208038Y-88775467D01*
X188073695Y-88572526D01*
X187902342Y-88399693D01*
X187838269Y-88356481D01*
X187988119Y-88233502D01*
X188142450Y-88045449D01*
X188257128Y-87830901D01*
X188327747Y-87598102D01*
X188351592Y-87356000D01*
X188327747Y-87113898D01*
X188257128Y-86881099D01*
X188142450Y-86666551D01*
X187988119Y-86478498D01*
X187949506Y-86446809D01*
X187954004Y-86444405D01*
X188088579Y-86333962D01*
X188199022Y-86199387D01*
X188281089Y-86045851D01*
X188331625Y-85879255D01*
X188348689Y-85706001D01*
X188348689Y-85005999D01*
X188331625Y-84832745D01*
X188281089Y-84666149D01*
X188199022Y-84512613D01*
X188088579Y-84378038D01*
X187954004Y-84267595D01*
X187800468Y-84185528D01*
X187633872Y-84134992D01*
X187460618Y-84117928D01*
X186210616Y-84117928D01*
X186037362Y-84134992D01*
X185870766Y-84185528D01*
X185717230Y-84267595D01*
X185582655Y-84378038D01*
X185472212Y-84512613D01*
X185390145Y-84666149D01*
X185339609Y-84832745D01*
X185322545Y-85005999D01*
X185322545Y-85706001D01*
X185339609Y-85879255D01*
X185390145Y-86045851D01*
X185472212Y-86199387D01*
X185582655Y-86333962D01*
X185717230Y-86444405D01*
X185721728Y-86446809D01*
X185683115Y-86478498D01*
X185586684Y-86596000D01*
X182820802Y-86596000D01*
X182675020Y-86450219D01*
X182675020Y-81079821D01*
X183548617Y-80206225D01*
X183699744Y-80307205D01*
X183888102Y-80385226D01*
X184088061Y-80425000D01*
X184291939Y-80425000D01*
X184491898Y-80385226D01*
X184680256Y-80307205D01*
X184849774Y-80193937D01*
X184993937Y-80049774D01*
X185024292Y-80004344D01*
X186055000Y-80004344D01*
X186055000Y-80375656D01*
X186127439Y-80739834D01*
X186269534Y-81082882D01*
X186475825Y-81391618D01*
X186738382Y-81654175D01*
X187047118Y-81860466D01*
X187390166Y-82002561D01*
X187754344Y-82075000D01*
X188125656Y-82075000D01*
X188489834Y-82002561D01*
X188832882Y-81860466D01*
X189141618Y-81654175D01*
X189404175Y-81391618D01*
X189610466Y-81082882D01*
X189752561Y-80739834D01*
X189825000Y-80375656D01*
X189825000Y-80004344D01*
X189752561Y-79640166D01*
X189610466Y-79297118D01*
X189404175Y-78988382D01*
X189141618Y-78725825D01*
X188832882Y-78519534D01*
X188489834Y-78377439D01*
X188125656Y-78305000D01*
X187754344Y-78305000D01*
X187390166Y-78377439D01*
X187047118Y-78519534D01*
X186738382Y-78725825D01*
X186475825Y-78988382D01*
X186269534Y-79297118D01*
X186127439Y-79640166D01*
X186055000Y-80004344D01*
X185024292Y-80004344D01*
X185107205Y-79880256D01*
X185185226Y-79691898D01*
X185225000Y-79491939D01*
X185225000Y-79288061D01*
X185185226Y-79088102D01*
X185107205Y-78899744D01*
X184993937Y-78730226D01*
X184849774Y-78586063D01*
X184680256Y-78472795D01*
X184491898Y-78394774D01*
X184291939Y-78355000D01*
X184088061Y-78355000D01*
X183888102Y-78394774D01*
X183699744Y-78472795D01*
X183530226Y-78586063D01*
X183486289Y-78630000D01*
X183327363Y-78630000D01*
X183290040Y-78626324D01*
X183252717Y-78630000D01*
X183252707Y-78630000D01*
X183141054Y-78640997D01*
X182997793Y-78684454D01*
X182865763Y-78755026D01*
X182788791Y-78818196D01*
X182750039Y-78849999D01*
X182726241Y-78878997D01*
X181915020Y-79690218D01*
X181778072Y-79553270D01*
X181778072Y-78939999D01*
X181761008Y-78766745D01*
X181710472Y-78600149D01*
X181628405Y-78446613D01*
X181517962Y-78312038D01*
X181383387Y-78201595D01*
X181229851Y-78119528D01*
X181063255Y-78068992D01*
X180890001Y-78051928D01*
X180189999Y-78051928D01*
X180016745Y-78068992D01*
X179850149Y-78119528D01*
X179696613Y-78201595D01*
X179562038Y-78312038D01*
X179540000Y-78338891D01*
X179517962Y-78312038D01*
X179383387Y-78201595D01*
X179229851Y-78119528D01*
X179063255Y-78068992D01*
X178890001Y-78051928D01*
X178189999Y-78051928D01*
X178016745Y-78068992D01*
X177850149Y-78119528D01*
X177696613Y-78201595D01*
X177562038Y-78312038D01*
X177451595Y-78446613D01*
X177369528Y-78600149D01*
X177318992Y-78766745D01*
X177301928Y-78939999D01*
X177301928Y-79013103D01*
X177296324Y-79070000D01*
X177301928Y-79126897D01*
X177301928Y-79840001D01*
X177318992Y-80013255D01*
X177369528Y-80179851D01*
X177451595Y-80333387D01*
X177498056Y-80390000D01*
X177451595Y-80446613D01*
X177420386Y-80505000D01*
X177303072Y-80505000D01*
X177303072Y-80364999D01*
X177286008Y-80191745D01*
X177235472Y-80025149D01*
X177153405Y-79871613D01*
X177042962Y-79737038D01*
X176908387Y-79626595D01*
X176754851Y-79544528D01*
X176588255Y-79493992D01*
X176415001Y-79476928D01*
X174664999Y-79476928D01*
X174491745Y-79493992D01*
X174325149Y-79544528D01*
X174171613Y-79626595D01*
X174037038Y-79737038D01*
X173926595Y-79871613D01*
X173844528Y-80025149D01*
X173793992Y-80191745D01*
X173776928Y-80364999D01*
X173776928Y-81901493D01*
X172373422Y-83305000D01*
X168683469Y-83305000D01*
X168640639Y-83300782D01*
X168854250Y-83300000D01*
X169013000Y-83141250D01*
X169013000Y-81517000D01*
X169267000Y-81517000D01*
X169267000Y-83141250D01*
X169425750Y-83300000D01*
X170265000Y-83303072D01*
X170389482Y-83290812D01*
X170509180Y-83254502D01*
X170619494Y-83195537D01*
X170716185Y-83116185D01*
X170795537Y-83019494D01*
X170854502Y-82909180D01*
X170890812Y-82789482D01*
X170903072Y-82665000D01*
X170900000Y-81675750D01*
X170741250Y-81517000D01*
X169267000Y-81517000D01*
X169013000Y-81517000D01*
X167538750Y-81517000D01*
X167380000Y-81675750D01*
X167376928Y-82665000D01*
X167389188Y-82789482D01*
X167425498Y-82909180D01*
X167484463Y-83019494D01*
X167563815Y-83116185D01*
X167660506Y-83195537D01*
X167770820Y-83254502D01*
X167890518Y-83290812D01*
X168015000Y-83303072D01*
X168639312Y-83300787D01*
X168596531Y-83305000D01*
X168596523Y-83305000D01*
X168466510Y-83317805D01*
X168299686Y-83368411D01*
X168145941Y-83450589D01*
X168044953Y-83533468D01*
X168044951Y-83533470D01*
X168011183Y-83561183D01*
X167983470Y-83594951D01*
X158815738Y-92762683D01*
X158743937Y-92655225D01*
X158599774Y-92511062D01*
X158430256Y-92397794D01*
X158241898Y-92319773D01*
X158041939Y-92279999D01*
X157838061Y-92279999D01*
X157638102Y-92319773D01*
X157449744Y-92397794D01*
X157280226Y-92511062D01*
X157236289Y-92554999D01*
X153202326Y-92554999D01*
X153165001Y-92551323D01*
X153127676Y-92554999D01*
X153127668Y-92554999D01*
X153016015Y-92565996D01*
X152872754Y-92609453D01*
X152740725Y-92680025D01*
X152625000Y-92774998D01*
X152601202Y-92803996D01*
X151076408Y-94328791D01*
X150856260Y-94285000D01*
X150563740Y-94285000D01*
X150276842Y-94342068D01*
X150006589Y-94454010D01*
X149763368Y-94616525D01*
X149556525Y-94823368D01*
X149394010Y-95066589D01*
X149282068Y-95336842D01*
X149225000Y-95623740D01*
X149225000Y-95916260D01*
X149282068Y-96203158D01*
X149394010Y-96473411D01*
X149556525Y-96716632D01*
X149684418Y-96844525D01*
X149586260Y-96825000D01*
X149293740Y-96825000D01*
X149006842Y-96882068D01*
X148736589Y-96994010D01*
X148493368Y-97156525D01*
X148286525Y-97363368D01*
X148170000Y-97537760D01*
X148053475Y-97363368D01*
X147846632Y-97156525D01*
X147603411Y-96994010D01*
X147333158Y-96882068D01*
X147046260Y-96825000D01*
X146753740Y-96825000D01*
X146466842Y-96882068D01*
X146196589Y-96994010D01*
X145953368Y-97156525D01*
X145746525Y-97363368D01*
X145630000Y-97537760D01*
X145513475Y-97363368D01*
X145306632Y-97156525D01*
X145063411Y-96994010D01*
X144793158Y-96882068D01*
X144506260Y-96825000D01*
X144213740Y-96825000D01*
X143926842Y-96882068D01*
X143656589Y-96994010D01*
X143413368Y-97156525D01*
X143206525Y-97363368D01*
X143090000Y-97537760D01*
X142973475Y-97363368D01*
X142766632Y-97156525D01*
X142523411Y-96994010D01*
X142253158Y-96882068D01*
X141966260Y-96825000D01*
X141673740Y-96825000D01*
X141386842Y-96882068D01*
X141116589Y-96994010D01*
X140873368Y-97156525D01*
X140666525Y-97363368D01*
X140550000Y-97537760D01*
X140433475Y-97363368D01*
X140226632Y-97156525D01*
X139983411Y-96994010D01*
X139713158Y-96882068D01*
X139426260Y-96825000D01*
X139133740Y-96825000D01*
X138846842Y-96882068D01*
X138576589Y-96994010D01*
X138333368Y-97156525D01*
X138126525Y-97363368D01*
X138010000Y-97537760D01*
X137893475Y-97363368D01*
X137686632Y-97156525D01*
X137443411Y-96994010D01*
X137173158Y-96882068D01*
X136886260Y-96825000D01*
X136593740Y-96825000D01*
X136306842Y-96882068D01*
X136036589Y-96994010D01*
X135793368Y-97156525D01*
X135586525Y-97363368D01*
X135470000Y-97537760D01*
X135353475Y-97363368D01*
X135146632Y-97156525D01*
X134972240Y-97040000D01*
X135146632Y-96923475D01*
X135353475Y-96716632D01*
X135515990Y-96473411D01*
X135627932Y-96203158D01*
X135685000Y-95916260D01*
X135685000Y-95623740D01*
X135627932Y-95336842D01*
X135515990Y-95066589D01*
X135353475Y-94823368D01*
X135146632Y-94616525D01*
X134972240Y-94500000D01*
X135146632Y-94383475D01*
X135353475Y-94176632D01*
X135515990Y-93933411D01*
X135627932Y-93663158D01*
X135685000Y-93376260D01*
X135685000Y-93083740D01*
X135627932Y-92796842D01*
X135515990Y-92526589D01*
X135353475Y-92283368D01*
X135221620Y-92151513D01*
X135294180Y-92129502D01*
X135404494Y-92070537D01*
X135501185Y-91991185D01*
X135580537Y-91894494D01*
X135639502Y-91784180D01*
X135675812Y-91664482D01*
X135688072Y-91540000D01*
X135685000Y-90975750D01*
X135526250Y-90817000D01*
X134327000Y-90817000D01*
X134327000Y-90837000D01*
X134073000Y-90837000D01*
X134073000Y-90817000D01*
X132873750Y-90817000D01*
X132715000Y-90975750D01*
X132711928Y-91540000D01*
X132724188Y-91664482D01*
X132760498Y-91784180D01*
X132819463Y-91894494D01*
X132898815Y-91991185D01*
X132995506Y-92070537D01*
X133105820Y-92129502D01*
X133178380Y-92151513D01*
X133046525Y-92283368D01*
X132884010Y-92526589D01*
X132772068Y-92796842D01*
X132715000Y-93083740D01*
X132715000Y-93376260D01*
X132772068Y-93663158D01*
X132884010Y-93933411D01*
X133046525Y-94176632D01*
X133253368Y-94383475D01*
X133427760Y-94500000D01*
X133253368Y-94616525D01*
X133046525Y-94823368D01*
X132884010Y-95066589D01*
X132772068Y-95336842D01*
X132715000Y-95623740D01*
X132715000Y-95916260D01*
X132772068Y-96203158D01*
X132884010Y-96473411D01*
X133046525Y-96716632D01*
X133253368Y-96923475D01*
X133427760Y-97040000D01*
X133253368Y-97156525D01*
X133046525Y-97363368D01*
X132884010Y-97606589D01*
X132772068Y-97876842D01*
X132715000Y-98163740D01*
X132715000Y-98456260D01*
X132772068Y-98743158D01*
X132884010Y-99013411D01*
X133046525Y-99256632D01*
X133253368Y-99463475D01*
X133496589Y-99625990D01*
X133766842Y-99737932D01*
X134053740Y-99795000D01*
X134346260Y-99795000D01*
X134633158Y-99737932D01*
X134903411Y-99625990D01*
X135146632Y-99463475D01*
X135353475Y-99256632D01*
X135470000Y-99082240D01*
X135586525Y-99256632D01*
X135793368Y-99463475D01*
X136036589Y-99625990D01*
X136306842Y-99737932D01*
X136593740Y-99795000D01*
X136886260Y-99795000D01*
X137173158Y-99737932D01*
X137443411Y-99625990D01*
X137686632Y-99463475D01*
X137893475Y-99256632D01*
X138010000Y-99082240D01*
X138126525Y-99256632D01*
X138333368Y-99463475D01*
X138576589Y-99625990D01*
X138846842Y-99737932D01*
X139133740Y-99795000D01*
X139426260Y-99795000D01*
X139713158Y-99737932D01*
X139983411Y-99625990D01*
X140226632Y-99463475D01*
X140433475Y-99256632D01*
X140550000Y-99082240D01*
X140666525Y-99256632D01*
X140873368Y-99463475D01*
X141116589Y-99625990D01*
X141386842Y-99737932D01*
X141673740Y-99795000D01*
X141966260Y-99795000D01*
X142253158Y-99737932D01*
X142523411Y-99625990D01*
X142766632Y-99463475D01*
X142973475Y-99256632D01*
X143090000Y-99082240D01*
X143206525Y-99256632D01*
X143413368Y-99463475D01*
X143656589Y-99625990D01*
X143926842Y-99737932D01*
X144213740Y-99795000D01*
X144506260Y-99795000D01*
X144793158Y-99737932D01*
X145063411Y-99625990D01*
X145306632Y-99463475D01*
X145513475Y-99256632D01*
X145630000Y-99082240D01*
X145746525Y-99256632D01*
X145953368Y-99463475D01*
X146196589Y-99625990D01*
X146466842Y-99737932D01*
X146753740Y-99795000D01*
X147046260Y-99795000D01*
X147333158Y-99737932D01*
X147603411Y-99625990D01*
X147846632Y-99463475D01*
X148053475Y-99256632D01*
X148170000Y-99082240D01*
X148286525Y-99256632D01*
X148493368Y-99463475D01*
X148736589Y-99625990D01*
X149006842Y-99737932D01*
X149293740Y-99795000D01*
X149586260Y-99795000D01*
X149873158Y-99737932D01*
X150143411Y-99625990D01*
X150386632Y-99463475D01*
X150593475Y-99256632D01*
X150710000Y-99082240D01*
X150826525Y-99256632D01*
X151033368Y-99463475D01*
X151276589Y-99625990D01*
X151546842Y-99737932D01*
X151791770Y-99786652D01*
X151413089Y-100165333D01*
X131742995Y-100165333D01*
X131676962Y-100084871D01*
X131670406Y-100079491D01*
X131750185Y-100014018D01*
X131829537Y-99917327D01*
X131888502Y-99807013D01*
X131924812Y-99687315D01*
X131937072Y-99562833D01*
X131934000Y-99261083D01*
X131775250Y-99102333D01*
X130701000Y-99102333D01*
X130701000Y-99122333D01*
X130447000Y-99122333D01*
X130447000Y-99102333D01*
X129372750Y-99102333D01*
X129214000Y-99261083D01*
X129210928Y-99562833D01*
X129223188Y-99687315D01*
X129259498Y-99807013D01*
X129318463Y-99917327D01*
X129397815Y-100014018D01*
X129477594Y-100079491D01*
X129471038Y-100084871D01*
X129405005Y-100165333D01*
X128320760Y-100165333D01*
X128350185Y-100141185D01*
X128429537Y-100044494D01*
X128488502Y-99934180D01*
X128524812Y-99814482D01*
X128537072Y-99690000D01*
X128537072Y-98387833D01*
X129210928Y-98387833D01*
X129214000Y-98689583D01*
X129372750Y-98848333D01*
X130447000Y-98848333D01*
X130447000Y-97911583D01*
X130701000Y-97911583D01*
X130701000Y-98848333D01*
X131775250Y-98848333D01*
X131934000Y-98689583D01*
X131937072Y-98387833D01*
X131924812Y-98263351D01*
X131888502Y-98143653D01*
X131829537Y-98033339D01*
X131750185Y-97936648D01*
X131653494Y-97857296D01*
X131543180Y-97798331D01*
X131423482Y-97762021D01*
X131299000Y-97749761D01*
X130859750Y-97752833D01*
X130701000Y-97911583D01*
X130447000Y-97911583D01*
X130288250Y-97752833D01*
X129849000Y-97749761D01*
X129724518Y-97762021D01*
X129604820Y-97798331D01*
X129494506Y-97857296D01*
X129397815Y-97936648D01*
X129318463Y-98033339D01*
X129259498Y-98143653D01*
X129223188Y-98263351D01*
X129210928Y-98387833D01*
X128537072Y-98387833D01*
X128537072Y-97690000D01*
X128524812Y-97565518D01*
X128488502Y-97445820D01*
X128429537Y-97335506D01*
X128350185Y-97238815D01*
X128253494Y-97159463D01*
X128159000Y-97108954D01*
X128159000Y-90904801D01*
X129613802Y-89450000D01*
X132848602Y-89450000D01*
X132819463Y-89485506D01*
X132760498Y-89595820D01*
X132724188Y-89715518D01*
X132711928Y-89840000D01*
X132715000Y-90404250D01*
X132873750Y-90563000D01*
X134073000Y-90563000D01*
X134073000Y-90543000D01*
X134327000Y-90543000D01*
X134327000Y-90563000D01*
X135526250Y-90563000D01*
X135685000Y-90404250D01*
X135688072Y-89840000D01*
X135675812Y-89715518D01*
X135639502Y-89595820D01*
X135580537Y-89485506D01*
X135551398Y-89450000D01*
X146322678Y-89450000D01*
X146360000Y-89453676D01*
X146397322Y-89450000D01*
X146397333Y-89450000D01*
X146508986Y-89439003D01*
X146652247Y-89395546D01*
X146784276Y-89324974D01*
X146900001Y-89230001D01*
X146923804Y-89200997D01*
X151613592Y-84511210D01*
X151833740Y-84555000D01*
X152126260Y-84555000D01*
X152413158Y-84497932D01*
X152683411Y-84385990D01*
X152926632Y-84223475D01*
X153051710Y-84098397D01*
X153671208Y-84098397D01*
X153748843Y-84347472D01*
X154012883Y-84473371D01*
X154296411Y-84545339D01*
X154588531Y-84560611D01*
X154878019Y-84518599D01*
X155153747Y-84420919D01*
X155291157Y-84347472D01*
X155368792Y-84098397D01*
X154520000Y-83249605D01*
X153671208Y-84098397D01*
X153051710Y-84098397D01*
X153133475Y-84016632D01*
X153249311Y-83843271D01*
X153491603Y-83918792D01*
X154340395Y-83070000D01*
X154699605Y-83070000D01*
X155548397Y-83918792D01*
X155790689Y-83843271D01*
X155906525Y-84016632D01*
X156113368Y-84223475D01*
X156356589Y-84385990D01*
X156626842Y-84497932D01*
X156913740Y-84555000D01*
X157206260Y-84555000D01*
X157493158Y-84497932D01*
X157763411Y-84385990D01*
X158006632Y-84223475D01*
X158213475Y-84016632D01*
X158330000Y-83842240D01*
X158446525Y-84016632D01*
X158653368Y-84223475D01*
X158896589Y-84385990D01*
X159166842Y-84497932D01*
X159453740Y-84555000D01*
X159746260Y-84555000D01*
X160033158Y-84497932D01*
X160303411Y-84385990D01*
X160546632Y-84223475D01*
X160678487Y-84091620D01*
X160700498Y-84164180D01*
X160759463Y-84274494D01*
X160838815Y-84371185D01*
X160935506Y-84450537D01*
X161045820Y-84509502D01*
X161165518Y-84545812D01*
X161290000Y-84558072D01*
X162990000Y-84558072D01*
X163114482Y-84545812D01*
X163234180Y-84509502D01*
X163344494Y-84450537D01*
X163441185Y-84371185D01*
X163520537Y-84274494D01*
X163579502Y-84164180D01*
X163615812Y-84044482D01*
X163628072Y-83920000D01*
X163628072Y-82220000D01*
X163615812Y-82095518D01*
X163579502Y-81975820D01*
X163520537Y-81865506D01*
X163441185Y-81768815D01*
X163344494Y-81689463D01*
X163234180Y-81630498D01*
X163114482Y-81594188D01*
X162990000Y-81581928D01*
X161290000Y-81581928D01*
X161165518Y-81594188D01*
X161045820Y-81630498D01*
X160935506Y-81689463D01*
X160838815Y-81768815D01*
X160759463Y-81865506D01*
X160700498Y-81975820D01*
X160678487Y-82048380D01*
X160546632Y-81916525D01*
X160303411Y-81754010D01*
X160033158Y-81642068D01*
X159746260Y-81585000D01*
X159453740Y-81585000D01*
X159166842Y-81642068D01*
X158896589Y-81754010D01*
X158653368Y-81916525D01*
X158446525Y-82123368D01*
X158330000Y-82297760D01*
X158213475Y-82123368D01*
X158006632Y-81916525D01*
X157763411Y-81754010D01*
X157493158Y-81642068D01*
X157206260Y-81585000D01*
X156913740Y-81585000D01*
X156626842Y-81642068D01*
X156356589Y-81754010D01*
X156113368Y-81916525D01*
X155906525Y-82123368D01*
X155790689Y-82296729D01*
X155548397Y-82221208D01*
X154699605Y-83070000D01*
X154340395Y-83070000D01*
X153491603Y-82221208D01*
X153249311Y-82296729D01*
X153133475Y-82123368D01*
X153051710Y-82041603D01*
X153671208Y-82041603D01*
X154520000Y-82890395D01*
X155368792Y-82041603D01*
X155291157Y-81792528D01*
X155027117Y-81666629D01*
X154743589Y-81594661D01*
X154451469Y-81579389D01*
X154161981Y-81621401D01*
X153886253Y-81719081D01*
X153748843Y-81792528D01*
X153671208Y-82041603D01*
X153051710Y-82041603D01*
X152926632Y-81916525D01*
X152683411Y-81754010D01*
X152413158Y-81642068D01*
X152126260Y-81585000D01*
X151833740Y-81585000D01*
X151546842Y-81642068D01*
X151276589Y-81754010D01*
X151033368Y-81916525D01*
X150826525Y-82123368D01*
X150710000Y-82297760D01*
X150593475Y-82123368D01*
X150386632Y-81916525D01*
X150143411Y-81754010D01*
X149873158Y-81642068D01*
X149586260Y-81585000D01*
X149293740Y-81585000D01*
X149006842Y-81642068D01*
X148736589Y-81754010D01*
X148493368Y-81916525D01*
X148286525Y-82123368D01*
X148170000Y-82297760D01*
X148053475Y-82123368D01*
X147846632Y-81916525D01*
X147603411Y-81754010D01*
X147333158Y-81642068D01*
X147046260Y-81585000D01*
X146753740Y-81585000D01*
X146466842Y-81642068D01*
X146196589Y-81754010D01*
X145953368Y-81916525D01*
X145746525Y-82123368D01*
X145630000Y-82297760D01*
X145513475Y-82123368D01*
X145306632Y-81916525D01*
X145063411Y-81754010D01*
X144793158Y-81642068D01*
X144506260Y-81585000D01*
X144213740Y-81585000D01*
X143926842Y-81642068D01*
X143656589Y-81754010D01*
X143413368Y-81916525D01*
X143206525Y-82123368D01*
X143090000Y-82297760D01*
X142973475Y-82123368D01*
X142766632Y-81916525D01*
X142523411Y-81754010D01*
X142253158Y-81642068D01*
X141966260Y-81585000D01*
X141673740Y-81585000D01*
X141386842Y-81642068D01*
X141116589Y-81754010D01*
X140873368Y-81916525D01*
X140666525Y-82123368D01*
X140550000Y-82297760D01*
X140433475Y-82123368D01*
X140226632Y-81916525D01*
X139983411Y-81754010D01*
X139713158Y-81642068D01*
X139426260Y-81585000D01*
X139133740Y-81585000D01*
X138846842Y-81642068D01*
X138576589Y-81754010D01*
X138333368Y-81916525D01*
X138126525Y-82123368D01*
X138010000Y-82297760D01*
X137893475Y-82123368D01*
X137686632Y-81916525D01*
X137443411Y-81754010D01*
X137173158Y-81642068D01*
X136886260Y-81585000D01*
X136593740Y-81585000D01*
X136306842Y-81642068D01*
X136036589Y-81754010D01*
X135793368Y-81916525D01*
X135586525Y-82123368D01*
X135470000Y-82297760D01*
X135353475Y-82123368D01*
X135146632Y-81916525D01*
X134903411Y-81754010D01*
X134633158Y-81642068D01*
X134346260Y-81585000D01*
X134053740Y-81585000D01*
X133833592Y-81628790D01*
X132319802Y-80115000D01*
X167376928Y-80115000D01*
X167380000Y-81104250D01*
X167538750Y-81263000D01*
X169013000Y-81263000D01*
X169013000Y-79638750D01*
X169267000Y-79638750D01*
X169267000Y-81263000D01*
X170741250Y-81263000D01*
X170900000Y-81104250D01*
X170903072Y-80115000D01*
X170890812Y-79990518D01*
X170854502Y-79870820D01*
X170795537Y-79760506D01*
X170716185Y-79663815D01*
X170619494Y-79584463D01*
X170509180Y-79525498D01*
X170389482Y-79489188D01*
X170265000Y-79476928D01*
X169425750Y-79480000D01*
X169267000Y-79638750D01*
X169013000Y-79638750D01*
X168854250Y-79480000D01*
X168015000Y-79476928D01*
X167890518Y-79489188D01*
X167770820Y-79525498D01*
X167660506Y-79584463D01*
X167563815Y-79663815D01*
X167484463Y-79760506D01*
X167425498Y-79870820D01*
X167389188Y-79990518D01*
X167376928Y-80115000D01*
X132319802Y-80115000D01*
X132303804Y-80099003D01*
X132280001Y-80069999D01*
X132164276Y-79975026D01*
X132032247Y-79904454D01*
X131888986Y-79860997D01*
X131777333Y-79850000D01*
X131777322Y-79850000D01*
X131740000Y-79846324D01*
X131702678Y-79850000D01*
X118597323Y-79850000D01*
X118560000Y-79846324D01*
X118522677Y-79850000D01*
X118522667Y-79850000D01*
X118411014Y-79860997D01*
X118280201Y-79900678D01*
X118267753Y-79904454D01*
X118135723Y-79975026D01*
X118085776Y-80016017D01*
X118019999Y-80069999D01*
X117996201Y-80098997D01*
X117043271Y-81051928D01*
X116899000Y-81051928D01*
X116774518Y-81064188D01*
X116654820Y-81100498D01*
X116544506Y-81159463D01*
X116447815Y-81238815D01*
X116399000Y-81298296D01*
X116350185Y-81238815D01*
X116253494Y-81159463D01*
X116143180Y-81100498D01*
X116023482Y-81064188D01*
X115899000Y-81051928D01*
X114899000Y-81051928D01*
X114774518Y-81064188D01*
X114654820Y-81100498D01*
X114544506Y-81159463D01*
X114447815Y-81238815D01*
X114399000Y-81298296D01*
X114350185Y-81238815D01*
X114253494Y-81159463D01*
X114143180Y-81100498D01*
X114023482Y-81064188D01*
X113899000Y-81051928D01*
X113684750Y-81055000D01*
X113526000Y-81213750D01*
X113272000Y-81213750D01*
X113113250Y-81055000D01*
X112899000Y-81051928D01*
X112774518Y-81064188D01*
X112654820Y-81100498D01*
X112544506Y-81159463D01*
X112447815Y-81238815D01*
X112368463Y-81335506D01*
X112309498Y-81445820D01*
X112273188Y-81565518D01*
X112260928Y-81690000D01*
X103088002Y-81690000D01*
X103141618Y-81654175D01*
X103404175Y-81391618D01*
X103610466Y-81082882D01*
X103752561Y-80739834D01*
X103825000Y-80375656D01*
X103825000Y-80004344D01*
X103752561Y-79640166D01*
X103610466Y-79297118D01*
X103404175Y-78988382D01*
X103141618Y-78725825D01*
X102832882Y-78519534D01*
X102489834Y-78377439D01*
X102125656Y-78305000D01*
X101754344Y-78305000D01*
X101390166Y-78377439D01*
X101047118Y-78519534D01*
X100738382Y-78725825D01*
X100475825Y-78988382D01*
X100269534Y-79297118D01*
X100127439Y-79640166D01*
X100055000Y-80004344D01*
X99621368Y-80004344D01*
X99647670Y-79736107D01*
X99779489Y-79299502D01*
X99993600Y-78896815D01*
X100281848Y-78543388D01*
X100633261Y-78252673D01*
X101034439Y-78035758D01*
X101470113Y-77900894D01*
X101954344Y-77850000D01*
X187897721Y-77850000D01*
X188383893Y-77897670D01*
%TA.AperFunction,Conductor*%
D25*
G36*
X188383893Y-77897670D02*
G01*
X188820498Y-78029489D01*
X189223185Y-78243600D01*
X189576612Y-78531848D01*
X189867327Y-78883261D01*
X190084242Y-79284439D01*
X190219106Y-79720113D01*
X190270000Y-80204344D01*
X190270001Y-101157711D01*
X190222330Y-101643894D01*
X190090512Y-102080497D01*
X189876399Y-102483186D01*
X189588150Y-102836613D01*
X189236739Y-103127327D01*
X188835564Y-103344240D01*
X188399886Y-103479106D01*
X187915665Y-103530000D01*
X101972294Y-103528002D01*
X101486106Y-103480330D01*
X101049503Y-103348512D01*
X100646814Y-103134399D01*
X100293387Y-102846150D01*
X100002673Y-102494739D01*
X99785760Y-102093564D01*
X99650894Y-101657886D01*
X99600000Y-101173664D01*
X99600000Y-101004344D01*
X100055000Y-101004344D01*
X100055000Y-101375656D01*
X100127439Y-101739834D01*
X100269534Y-102082882D01*
X100475825Y-102391618D01*
X100738382Y-102654175D01*
X101047118Y-102860466D01*
X101390166Y-103002561D01*
X101754344Y-103075000D01*
X102125656Y-103075000D01*
X102489834Y-103002561D01*
X102832882Y-102860466D01*
X103141618Y-102654175D01*
X103404175Y-102391618D01*
X103610466Y-102082882D01*
X103752561Y-101739834D01*
X103825000Y-101375656D01*
X103825000Y-101004344D01*
X103752561Y-100640166D01*
X103610466Y-100297118D01*
X103404175Y-99988382D01*
X103141618Y-99725825D01*
X102832882Y-99519534D01*
X102489834Y-99377439D01*
X102125656Y-99305000D01*
X101754344Y-99305000D01*
X101390166Y-99377439D01*
X101047118Y-99519534D01*
X100738382Y-99725825D01*
X100475825Y-99988382D01*
X100269534Y-100297118D01*
X100127439Y-100640166D01*
X100055000Y-101004344D01*
X99600000Y-101004344D01*
X99600000Y-96350000D01*
X99972419Y-96350000D01*
X100000329Y-96347251D01*
X100003308Y-96347272D01*
X100012479Y-96346373D01*
X100060648Y-96341310D01*
X100069383Y-96340450D01*
X100069674Y-96340362D01*
X100109527Y-96336173D01*
X100168152Y-96324139D01*
X100226884Y-96312936D01*
X100235706Y-96310272D01*
X100328925Y-96281416D01*
X100384075Y-96258233D01*
X100439537Y-96235825D01*
X100447666Y-96231502D01*
X100447670Y-96231500D01*
X100447673Y-96231498D01*
X100533511Y-96185086D01*
X100583098Y-96151638D01*
X100633156Y-96118881D01*
X100640297Y-96113057D01*
X100715486Y-96050855D01*
X100757639Y-96008406D01*
X100800371Y-95966561D01*
X100806245Y-95959460D01*
X100867921Y-95883840D01*
X100901052Y-95833975D01*
X100934825Y-95784650D01*
X100939208Y-95776544D01*
X100985020Y-95690383D01*
X101007809Y-95635091D01*
X101031378Y-95580102D01*
X101031595Y-95579402D01*
X103154250Y-95577000D01*
X103313000Y-95418250D01*
X103313000Y-93819000D01*
X103567000Y-93819000D01*
X103567000Y-95418250D01*
X103725750Y-95577000D01*
X106440000Y-95580072D01*
X106564482Y-95567812D01*
X106684180Y-95531502D01*
X106794494Y-95472537D01*
X106891185Y-95393185D01*
X106970537Y-95296494D01*
X107029502Y-95186180D01*
X107065812Y-95066482D01*
X107078072Y-94942000D01*
X107075000Y-93977750D01*
X106916250Y-93819000D01*
X103567000Y-93819000D01*
X103313000Y-93819000D01*
X103293000Y-93819000D01*
X103293000Y-93565000D01*
X103313000Y-93565000D01*
X103313000Y-93545000D01*
X103567000Y-93545000D01*
X103567000Y-93565000D01*
X106916250Y-93565000D01*
X107075000Y-93406250D01*
X107078072Y-92442000D01*
X107065812Y-92317518D01*
X107029502Y-92197820D01*
X106970537Y-92087506D01*
X106933604Y-92042503D01*
X107128727Y-91961680D01*
X107149595Y-91947736D01*
X107190442Y-91929244D01*
X107287646Y-91892338D01*
X107372374Y-91867151D01*
X107454513Y-91849626D01*
X107544892Y-91837245D01*
X107652901Y-91829090D01*
X107779373Y-91825000D01*
X108371145Y-91825000D01*
X108777707Y-91844973D01*
X109152755Y-91900606D01*
X109520550Y-91992733D01*
X109877549Y-92120470D01*
X110220303Y-92282580D01*
X110545520Y-92477507D01*
X110850057Y-92703367D01*
X111130999Y-92958000D01*
X111385632Y-93238942D01*
X111611492Y-93543479D01*
X111806421Y-93868699D01*
X111968529Y-94211448D01*
X112096263Y-94568443D01*
X112188394Y-94936246D01*
X112244026Y-95311292D01*
X112264000Y-95717861D01*
X112264001Y-97658802D01*
X112260928Y-97690000D01*
X112260928Y-99690000D01*
X112273188Y-99814482D01*
X112309498Y-99934180D01*
X112368463Y-100044494D01*
X112447815Y-100141185D01*
X112544506Y-100220537D01*
X112654820Y-100279502D01*
X112774518Y-100315812D01*
X112899000Y-100328072D01*
X113899000Y-100328072D01*
X114023482Y-100315812D01*
X114143180Y-100279502D01*
X114253494Y-100220537D01*
X114350185Y-100141185D01*
X114399000Y-100081704D01*
X114447815Y-100141185D01*
X114544506Y-100220537D01*
X114654820Y-100279502D01*
X114774518Y-100315812D01*
X114899000Y-100328072D01*
X115113250Y-100325000D01*
X115272000Y-100166250D01*
X115272000Y-98817000D01*
X115252000Y-98817000D01*
X115252000Y-98563000D01*
X115272000Y-98563000D01*
X115272000Y-97213750D01*
X115113250Y-97055000D01*
X114899000Y-97051928D01*
X114774518Y-97064188D01*
X114654820Y-97100498D01*
X114544506Y-97159463D01*
X114534000Y-97168085D01*
X114534000Y-95717839D01*
X114535368Y-95689991D01*
X114534000Y-95662145D01*
X114534000Y-95634248D01*
X114531266Y-95606484D01*
X114505820Y-95088536D01*
X114495325Y-95017784D01*
X114417460Y-94492861D01*
X114417458Y-94492853D01*
X114417457Y-94492846D01*
X114271139Y-93908712D01*
X114271137Y-93908705D01*
X114271135Y-93908699D01*
X114068267Y-93341720D01*
X114068263Y-93341711D01*
X114068261Y-93341706D01*
X113882429Y-92948796D01*
X113854962Y-92890723D01*
X113810796Y-92797342D01*
X113810792Y-92797336D01*
X113810790Y-92797331D01*
X113501208Y-92280823D01*
X113501202Y-92280815D01*
X113501199Y-92280810D01*
X113142480Y-91797134D01*
X113142479Y-91797133D01*
X113142471Y-91797122D01*
X112738070Y-91350936D01*
X112738066Y-91350933D01*
X112738063Y-91350929D01*
X112291877Y-90946528D01*
X112281730Y-90939002D01*
X112264645Y-90926331D01*
X112157297Y-90846716D01*
X112157295Y-90846715D01*
X111808189Y-90587800D01*
X111808184Y-90587797D01*
X111808176Y-90587791D01*
X111291668Y-90278209D01*
X111291659Y-90278205D01*
X111291656Y-90278203D01*
X110747292Y-90020738D01*
X110747291Y-90020738D01*
X110747279Y-90020732D01*
X110180299Y-89817864D01*
X110180287Y-89817860D01*
X109596152Y-89671541D01*
X109430412Y-89646956D01*
X109166202Y-89607764D01*
X109166201Y-89607764D01*
X109053101Y-89590987D01*
X109000474Y-89583181D01*
X109000473Y-89583181D01*
X109000460Y-89583179D01*
X108482516Y-89557735D01*
X108454752Y-89555000D01*
X108426853Y-89555000D01*
X108399006Y-89553632D01*
X108371158Y-89555000D01*
X107779404Y-89555000D01*
X107652901Y-89550909D01*
X107544892Y-89542754D01*
X107454513Y-89530373D01*
X107372374Y-89512848D01*
X107287646Y-89487661D01*
X107190449Y-89450758D01*
X107149591Y-89432261D01*
X107128727Y-89418320D01*
X106936054Y-89338512D01*
X106970537Y-89296494D01*
X107029502Y-89186180D01*
X107065812Y-89066482D01*
X107078072Y-88942000D01*
X107075000Y-87977750D01*
X106916250Y-87819000D01*
X103567000Y-87819000D01*
X103567000Y-87839000D01*
X103313000Y-87839000D01*
X103313000Y-87819000D01*
X103293000Y-87819000D01*
X103293000Y-87565000D01*
X103313000Y-87565000D01*
X103313000Y-85965750D01*
X103567000Y-85965750D01*
X103567000Y-87565000D01*
X106916250Y-87565000D01*
X107075000Y-87406250D01*
X107078072Y-86442000D01*
X107065812Y-86317518D01*
X107029502Y-86197820D01*
X106970537Y-86087506D01*
X106891185Y-85990815D01*
X106794494Y-85911463D01*
X106684180Y-85852498D01*
X106564482Y-85816188D01*
X106440000Y-85803928D01*
X103725750Y-85807000D01*
X103567000Y-85965750D01*
X103313000Y-85965750D01*
X103154250Y-85807000D01*
X101032507Y-85804599D01*
X101031416Y-85801075D01*
X101008238Y-85745937D01*
X100985825Y-85690463D01*
X100981498Y-85682327D01*
X100935085Y-85596489D01*
X100901645Y-85546913D01*
X100868881Y-85496844D01*
X100863057Y-85489703D01*
X100800855Y-85414514D01*
X100758406Y-85372361D01*
X100716561Y-85329629D01*
X100709460Y-85323755D01*
X100633839Y-85262079D01*
X100584034Y-85228988D01*
X100534650Y-85195174D01*
X100526544Y-85190792D01*
X100440383Y-85144980D01*
X100385091Y-85122191D01*
X100330102Y-85098622D01*
X100321299Y-85095897D01*
X100227881Y-85067692D01*
X100169174Y-85056067D01*
X100110684Y-85043635D01*
X100101530Y-85042673D01*
X100101524Y-85042672D01*
X100101519Y-85042672D01*
X100004402Y-85033150D01*
X99972419Y-85030000D01*
X99600000Y-85030000D01*
X99600000Y-83690000D01*
X112260928Y-83690000D01*
X112273188Y-83814482D01*
X112309498Y-83934180D01*
X112368463Y-84044494D01*
X112447815Y-84141185D01*
X112544506Y-84220537D01*
X112654820Y-84279502D01*
X112774518Y-84315812D01*
X112899000Y-84328072D01*
X113113250Y-84325000D01*
X113272000Y-84166250D01*
X113272000Y-82817000D01*
X112422750Y-82817000D01*
X112264000Y-82975750D01*
X112260928Y-83690000D01*
X99600000Y-83690000D01*
X99600000Y-80222279D01*
X99621368Y-80004344D01*
X100055000Y-80004344D01*
X100055000Y-80375656D01*
X100127439Y-80739834D01*
X100269534Y-81082882D01*
X100475825Y-81391618D01*
X100738382Y-81654175D01*
X101047118Y-81860466D01*
X101390166Y-82002561D01*
X101754344Y-82075000D01*
X102125656Y-82075000D01*
X102489834Y-82002561D01*
X102832882Y-81860466D01*
X103088002Y-81690000D01*
X112260928Y-81690000D01*
X112264000Y-82404250D01*
X112422750Y-82563000D01*
X113272000Y-82563000D01*
X113272000Y-81213750D01*
X113526000Y-81213750D01*
X113526000Y-82563000D01*
X113546000Y-82563000D01*
X113546000Y-82817000D01*
X113526000Y-82817000D01*
X113526000Y-84166250D01*
X113684750Y-84325000D01*
X113899000Y-84328072D01*
X114023482Y-84315812D01*
X114143180Y-84279502D01*
X114253494Y-84220537D01*
X114350185Y-84141185D01*
X114399000Y-84081704D01*
X114447815Y-84141185D01*
X114544506Y-84220537D01*
X114654820Y-84279502D01*
X114774518Y-84315812D01*
X114899000Y-84328072D01*
X115899000Y-84328072D01*
X116023482Y-84315812D01*
X116143180Y-84279502D01*
X116253494Y-84220537D01*
X116350185Y-84141185D01*
X116399000Y-84081704D01*
X116447815Y-84141185D01*
X116544506Y-84220537D01*
X116654820Y-84279502D01*
X116774518Y-84315812D01*
X116899000Y-84328072D01*
X117899000Y-84328072D01*
X118023482Y-84315812D01*
X118143180Y-84279502D01*
X118253494Y-84220537D01*
X118350185Y-84141185D01*
X118399000Y-84081704D01*
X118447815Y-84141185D01*
X118495031Y-84179934D01*
X118481795Y-84199744D01*
X118403774Y-84388102D01*
X118364000Y-84588061D01*
X118364000Y-84791939D01*
X118403774Y-84991898D01*
X118481795Y-85180256D01*
X118595063Y-85349774D01*
X118739226Y-85493937D01*
X118908744Y-85607205D01*
X119097102Y-85685226D01*
X119297061Y-85725000D01*
X119500939Y-85725000D01*
X119700898Y-85685226D01*
X119889256Y-85607205D01*
X120058774Y-85493937D01*
X120202937Y-85349774D01*
X120316205Y-85180256D01*
X120394226Y-84991898D01*
X120434000Y-84791939D01*
X120434000Y-84588061D01*
X120394226Y-84388102D01*
X120316205Y-84199744D01*
X120302969Y-84179934D01*
X120350185Y-84141185D01*
X120399000Y-84081704D01*
X120447815Y-84141185D01*
X120544506Y-84220537D01*
X120654820Y-84279502D01*
X120731078Y-84302635D01*
X120764026Y-84364276D01*
X120783580Y-84388102D01*
X120858999Y-84480001D01*
X120888003Y-84503804D01*
X122585201Y-86201003D01*
X122608999Y-86230001D01*
X122724724Y-86324974D01*
X122856753Y-86395546D01*
X123000014Y-86439003D01*
X123111667Y-86450000D01*
X123111675Y-86450000D01*
X123149000Y-86453676D01*
X123186325Y-86450000D01*
X127536289Y-86450000D01*
X127580226Y-86493937D01*
X127604225Y-86509973D01*
X124888003Y-89226196D01*
X124858999Y-89249999D01*
X124820842Y-89296494D01*
X124764026Y-89365724D01*
X124706933Y-89472537D01*
X124693454Y-89497754D01*
X124649997Y-89641015D01*
X124639000Y-89752668D01*
X124639000Y-89752678D01*
X124635324Y-89790000D01*
X124639000Y-89827323D01*
X124639001Y-96375197D01*
X123956598Y-97057601D01*
X123899000Y-97051928D01*
X122899000Y-97051928D01*
X122774518Y-97064188D01*
X122654820Y-97100498D01*
X122544506Y-97159463D01*
X122447815Y-97238815D01*
X122399000Y-97298296D01*
X122350185Y-97238815D01*
X122253494Y-97159463D01*
X122143180Y-97100498D01*
X122023482Y-97064188D01*
X121899000Y-97051928D01*
X120899000Y-97051928D01*
X120774518Y-97064188D01*
X120654820Y-97100498D01*
X120544506Y-97159463D01*
X120447815Y-97238815D01*
X120399000Y-97298296D01*
X120350185Y-97238815D01*
X120253494Y-97159463D01*
X120143180Y-97100498D01*
X120023482Y-97064188D01*
X119899000Y-97051928D01*
X118899000Y-97051928D01*
X118774518Y-97064188D01*
X118654820Y-97100498D01*
X118544506Y-97159463D01*
X118447815Y-97238815D01*
X118399000Y-97298296D01*
X118350185Y-97238815D01*
X118253494Y-97159463D01*
X118143180Y-97100498D01*
X118023482Y-97064188D01*
X117899000Y-97051928D01*
X116899000Y-97051928D01*
X116774518Y-97064188D01*
X116654820Y-97100498D01*
X116544506Y-97159463D01*
X116447815Y-97238815D01*
X116399000Y-97298296D01*
X116350185Y-97238815D01*
X116253494Y-97159463D01*
X116143180Y-97100498D01*
X116023482Y-97064188D01*
X115899000Y-97051928D01*
X115684750Y-97055000D01*
X115526000Y-97213750D01*
X115526000Y-98563000D01*
X115546000Y-98563000D01*
X115546000Y-98817000D01*
X115526000Y-98817000D01*
X115526000Y-100166250D01*
X115684750Y-100325000D01*
X115899000Y-100328072D01*
X116023482Y-100315812D01*
X116143180Y-100279502D01*
X116253494Y-100220537D01*
X116350185Y-100141185D01*
X116399000Y-100081704D01*
X116447815Y-100141185D01*
X116544506Y-100220537D01*
X116654820Y-100279502D01*
X116774518Y-100315812D01*
X116899000Y-100328072D01*
X117899000Y-100328072D01*
X118023482Y-100315812D01*
X118143180Y-100279502D01*
X118253494Y-100220537D01*
X118350185Y-100141185D01*
X118399000Y-100081704D01*
X118447815Y-100141185D01*
X118544506Y-100220537D01*
X118654820Y-100279502D01*
X118774518Y-100315812D01*
X118899000Y-100328072D01*
X119899000Y-100328072D01*
X120023482Y-100315812D01*
X120143180Y-100279502D01*
X120253494Y-100220537D01*
X120350185Y-100141185D01*
X120399000Y-100081704D01*
X120447815Y-100141185D01*
X120544506Y-100220537D01*
X120654820Y-100279502D01*
X120774518Y-100315812D01*
X120899000Y-100328072D01*
X121475492Y-100328072D01*
X122792801Y-101645382D01*
X122820514Y-101679150D01*
X122854282Y-101706863D01*
X122854284Y-101706865D01*
X122928536Y-101767802D01*
X122955272Y-101789744D01*
X123109018Y-101871922D01*
X123275841Y-101922528D01*
X123405854Y-101935333D01*
X123405862Y-101935333D01*
X123449331Y-101939614D01*
X123492800Y-101935333D01*
X129405005Y-101935333D01*
X129471038Y-102015795D01*
X129605614Y-102126238D01*
X129759150Y-102208305D01*
X129925746Y-102258841D01*
X130099000Y-102275905D01*
X131049000Y-102275905D01*
X131222254Y-102258841D01*
X131388850Y-102208305D01*
X131542386Y-102126238D01*
X131676962Y-102015795D01*
X131742995Y-101935333D01*
X151736198Y-101935333D01*
X151779667Y-101939614D01*
X151823136Y-101935333D01*
X151823144Y-101935333D01*
X151953157Y-101922528D01*
X152060385Y-101890000D01*
X167091928Y-101890000D01*
X167104188Y-102014482D01*
X167140498Y-102134180D01*
X167199463Y-102244494D01*
X167278815Y-102341185D01*
X167375506Y-102420537D01*
X167485820Y-102479502D01*
X167605518Y-102515812D01*
X167730000Y-102528072D01*
X168044250Y-102525000D01*
X168203000Y-102366250D01*
X168203000Y-101317000D01*
X167253750Y-101317000D01*
X167095000Y-101475750D01*
X167091928Y-101890000D01*
X152060385Y-101890000D01*
X152119980Y-101871922D01*
X152273726Y-101789744D01*
X152408484Y-101679150D01*
X152436201Y-101645377D01*
X154301040Y-99780539D01*
X154373740Y-99795000D01*
X154666260Y-99795000D01*
X154953158Y-99737932D01*
X155223411Y-99625990D01*
X155466632Y-99463475D01*
X155673475Y-99256632D01*
X155790000Y-99082240D01*
X155906525Y-99256632D01*
X156113368Y-99463475D01*
X156356589Y-99625990D01*
X156626842Y-99737932D01*
X156913740Y-99795000D01*
X157206260Y-99795000D01*
X157493158Y-99737932D01*
X157763411Y-99625990D01*
X158006632Y-99463475D01*
X158131710Y-99338397D01*
X158751208Y-99338397D01*
X158828843Y-99587472D01*
X159092883Y-99713371D01*
X159376411Y-99785339D01*
X159668531Y-99800611D01*
X159958019Y-99758599D01*
X160233747Y-99660919D01*
X160371157Y-99587472D01*
X160448792Y-99338397D01*
X159600000Y-98489605D01*
X158751208Y-99338397D01*
X158131710Y-99338397D01*
X158213475Y-99256632D01*
X158329311Y-99083271D01*
X158571603Y-99158792D01*
X159420395Y-98310000D01*
X159779605Y-98310000D01*
X160628397Y-99158792D01*
X160651928Y-99151458D01*
X160651928Y-99160000D01*
X160664188Y-99284482D01*
X160700498Y-99404180D01*
X160759463Y-99514494D01*
X160838815Y-99611185D01*
X160935506Y-99690537D01*
X161045820Y-99749502D01*
X161165518Y-99785812D01*
X161290000Y-99798072D01*
X162990000Y-99798072D01*
X163114482Y-99785812D01*
X163234180Y-99749502D01*
X163344494Y-99690537D01*
X163441185Y-99611185D01*
X163520537Y-99514494D01*
X163579502Y-99404180D01*
X163615812Y-99284482D01*
X163628072Y-99160000D01*
X163628072Y-99088061D01*
X164395000Y-99088061D01*
X164395000Y-99291939D01*
X164434774Y-99491898D01*
X164512795Y-99680256D01*
X164626063Y-99849774D01*
X164770226Y-99993937D01*
X164939744Y-100107205D01*
X165128102Y-100185226D01*
X165328061Y-100225000D01*
X165531939Y-100225000D01*
X165731898Y-100185226D01*
X165920256Y-100107205D01*
X166089774Y-99993937D01*
X166133711Y-99950000D01*
X167150473Y-99950000D01*
X167159528Y-99979851D01*
X167225663Y-100103581D01*
X167199463Y-100135506D01*
X167140498Y-100245820D01*
X167104188Y-100365518D01*
X167091928Y-100490000D01*
X167095000Y-100904250D01*
X167253750Y-101063000D01*
X168203000Y-101063000D01*
X168203000Y-101043000D01*
X168457000Y-101043000D01*
X168457000Y-101063000D01*
X168477000Y-101063000D01*
X168477000Y-101317000D01*
X168457000Y-101317000D01*
X168457000Y-102366250D01*
X168615750Y-102525000D01*
X168930000Y-102528072D01*
X169054482Y-102515812D01*
X169174180Y-102479502D01*
X169284494Y-102420537D01*
X169381185Y-102341185D01*
X169405363Y-102311724D01*
X169486613Y-102378405D01*
X169640149Y-102460472D01*
X169806745Y-102511008D01*
X169979999Y-102528072D01*
X170680001Y-102528072D01*
X170853255Y-102511008D01*
X171019851Y-102460472D01*
X171173387Y-102378405D01*
X171307962Y-102267962D01*
X171348109Y-102219042D01*
X171378061Y-102225000D01*
X171581939Y-102225000D01*
X171612879Y-102218846D01*
X171673704Y-102292962D01*
X171808280Y-102403405D01*
X171961816Y-102485472D01*
X172128412Y-102536008D01*
X172301666Y-102553072D01*
X172976666Y-102553072D01*
X173149920Y-102536008D01*
X173316516Y-102485472D01*
X173470052Y-102403405D01*
X173604628Y-102292962D01*
X173610008Y-102286406D01*
X173675481Y-102366185D01*
X173772172Y-102445537D01*
X173882486Y-102504502D01*
X174002184Y-102540812D01*
X174126666Y-102553072D01*
X174428416Y-102550000D01*
X174587166Y-102391250D01*
X174587166Y-101317000D01*
X174841166Y-101317000D01*
X174841166Y-102391250D01*
X174999916Y-102550000D01*
X175301666Y-102553072D01*
X175426148Y-102540812D01*
X175545846Y-102504502D01*
X175656160Y-102445537D01*
X175752851Y-102366185D01*
X175832203Y-102269494D01*
X175864999Y-102208138D01*
X175897795Y-102269494D01*
X175977147Y-102366185D01*
X176073838Y-102445537D01*
X176184152Y-102504502D01*
X176303850Y-102540812D01*
X176428332Y-102553072D01*
X176730082Y-102550000D01*
X176888832Y-102391250D01*
X176888832Y-101317000D01*
X175952082Y-101317000D01*
X175864999Y-101404083D01*
X175777916Y-101317000D01*
X174841166Y-101317000D01*
X174587166Y-101317000D01*
X174567166Y-101317000D01*
X174567166Y-101063000D01*
X174587166Y-101063000D01*
X174587166Y-99988750D01*
X174428416Y-99830000D01*
X174126666Y-99826928D01*
X174002184Y-99839188D01*
X173882486Y-99875498D01*
X173772172Y-99934463D01*
X173675481Y-100013815D01*
X173610008Y-100093594D01*
X173604628Y-100087038D01*
X173470052Y-99976595D01*
X173316516Y-99894528D01*
X173149920Y-99843992D01*
X172976666Y-99826928D01*
X172301666Y-99826928D01*
X172128412Y-99843992D01*
X171961816Y-99894528D01*
X171808280Y-99976595D01*
X171673704Y-100087038D01*
X171612879Y-100161154D01*
X171581939Y-100155000D01*
X171400668Y-100155000D01*
X171418405Y-100133387D01*
X171500472Y-99979851D01*
X171551008Y-99813255D01*
X171568072Y-99640001D01*
X171568072Y-98739999D01*
X171551008Y-98566745D01*
X171500472Y-98400149D01*
X171418405Y-98246613D01*
X171307962Y-98112038D01*
X171173387Y-98001595D01*
X171019851Y-97919528D01*
X170853255Y-97868992D01*
X170680001Y-97851928D01*
X169979999Y-97851928D01*
X169806745Y-97868992D01*
X169640149Y-97919528D01*
X169486613Y-98001595D01*
X169352038Y-98112038D01*
X169330000Y-98138891D01*
X169307962Y-98112038D01*
X169173387Y-98001595D01*
X169019851Y-97919528D01*
X168853255Y-97868992D01*
X168680001Y-97851928D01*
X167979999Y-97851928D01*
X167806745Y-97868992D01*
X167640149Y-97919528D01*
X167486613Y-98001595D01*
X167352038Y-98112038D01*
X167241595Y-98246613D01*
X167159528Y-98400149D01*
X167150473Y-98430000D01*
X166133711Y-98430000D01*
X166089774Y-98386063D01*
X165920256Y-98272795D01*
X165731898Y-98194774D01*
X165531939Y-98155000D01*
X165328061Y-98155000D01*
X165128102Y-98194774D01*
X164939744Y-98272795D01*
X164770226Y-98386063D01*
X164626063Y-98530226D01*
X164512795Y-98699744D01*
X164434774Y-98888102D01*
X164395000Y-99088061D01*
X163628072Y-99088061D01*
X163628072Y-97460000D01*
X163615812Y-97335518D01*
X163579502Y-97215820D01*
X163520537Y-97105506D01*
X163441185Y-97008815D01*
X163344494Y-96929463D01*
X163234180Y-96870498D01*
X163114482Y-96834188D01*
X162990000Y-96821928D01*
X161290000Y-96821928D01*
X161165518Y-96834188D01*
X161045820Y-96870498D01*
X160935506Y-96929463D01*
X160838815Y-97008815D01*
X160759463Y-97105506D01*
X160700498Y-97215820D01*
X160664188Y-97335518D01*
X160651928Y-97460000D01*
X160651928Y-97468542D01*
X160628397Y-97461208D01*
X159779605Y-98310000D01*
X159420395Y-98310000D01*
X158571603Y-97461208D01*
X158329311Y-97536729D01*
X158213475Y-97363368D01*
X158131710Y-97281603D01*
X158751208Y-97281603D01*
X159600000Y-98130395D01*
X160448792Y-97281603D01*
X160371157Y-97032528D01*
X160107117Y-96906629D01*
X159823589Y-96834661D01*
X159531469Y-96819389D01*
X159241981Y-96861401D01*
X158966253Y-96959081D01*
X158828843Y-97032528D01*
X158751208Y-97281603D01*
X158131710Y-97281603D01*
X158006632Y-97156525D01*
X157763411Y-96994010D01*
X157493158Y-96882068D01*
X157248230Y-96833348D01*
X167357838Y-86723740D01*
X170255000Y-86723740D01*
X170255000Y-87016260D01*
X170312068Y-87303158D01*
X170424010Y-87573411D01*
X170586525Y-87816632D01*
X170793368Y-88023475D01*
X170967760Y-88140000D01*
X170793368Y-88256525D01*
X170586525Y-88463368D01*
X170424010Y-88706589D01*
X170312068Y-88976842D01*
X170255000Y-89263740D01*
X170255000Y-89556260D01*
X170312068Y-89843158D01*
X170424010Y-90113411D01*
X170586525Y-90356632D01*
X170793368Y-90563475D01*
X170975534Y-90685195D01*
X170858645Y-90754822D01*
X170642412Y-90949731D01*
X170468359Y-91183080D01*
X170343175Y-91445901D01*
X170298524Y-91593110D01*
X170419845Y-91823000D01*
X171613000Y-91823000D01*
X171613000Y-91803000D01*
X171867000Y-91803000D01*
X171867000Y-91823000D01*
X173060155Y-91823000D01*
X173181476Y-91593110D01*
X173136825Y-91445901D01*
X173011641Y-91183080D01*
X172837588Y-90949731D01*
X172621355Y-90754822D01*
X172504466Y-90685195D01*
X172686632Y-90563475D01*
X172893475Y-90356632D01*
X173055990Y-90113411D01*
X173167932Y-89843158D01*
X173225000Y-89556260D01*
X173225000Y-89263740D01*
X173167932Y-88976842D01*
X173055990Y-88706589D01*
X172893475Y-88463368D01*
X172686632Y-88256525D01*
X172512240Y-88140000D01*
X172686632Y-88023475D01*
X172893475Y-87816632D01*
X173055990Y-87573411D01*
X173167932Y-87303158D01*
X173225000Y-87016260D01*
X173225000Y-86723740D01*
X173167932Y-86436842D01*
X173055990Y-86166589D01*
X172893475Y-85923368D01*
X172686632Y-85716525D01*
X172443411Y-85554010D01*
X172173158Y-85442068D01*
X171886260Y-85385000D01*
X171593740Y-85385000D01*
X171306842Y-85442068D01*
X171036589Y-85554010D01*
X170793368Y-85716525D01*
X170586525Y-85923368D01*
X170424010Y-86166589D01*
X170312068Y-86436842D01*
X170255000Y-86723740D01*
X167357838Y-86723740D01*
X169006579Y-85075000D01*
X172696531Y-85075000D01*
X172740000Y-85079281D01*
X172783469Y-85075000D01*
X172783477Y-85075000D01*
X172913490Y-85062195D01*
X173080313Y-85011589D01*
X173234059Y-84929411D01*
X173368817Y-84818817D01*
X173396534Y-84785044D01*
X174878507Y-83303072D01*
X176415001Y-83303072D01*
X176588255Y-83286008D01*
X176754851Y-83235472D01*
X176908387Y-83153405D01*
X177042962Y-83042962D01*
X177153405Y-82908387D01*
X177235472Y-82754851D01*
X177286008Y-82588255D01*
X177303072Y-82415001D01*
X177303072Y-82275000D01*
X177420386Y-82275000D01*
X177451595Y-82333387D01*
X177498056Y-82390000D01*
X177451595Y-82446613D01*
X177369528Y-82600149D01*
X177318992Y-82766745D01*
X177301928Y-82939999D01*
X177301928Y-83840001D01*
X177318992Y-84013255D01*
X177369528Y-84179851D01*
X177451595Y-84333387D01*
X177562038Y-84467962D01*
X177655000Y-84544254D01*
X177655001Y-86393854D01*
X177650719Y-86437333D01*
X177667805Y-86610823D01*
X177718412Y-86777646D01*
X177800590Y-86931392D01*
X177883468Y-87032379D01*
X177883471Y-87032382D01*
X177911184Y-87066150D01*
X177944951Y-87093862D01*
X178264928Y-87413839D01*
X178264928Y-87936826D01*
X174997456Y-91204299D01*
X174963683Y-91232016D01*
X174853089Y-91366775D01*
X174770911Y-91520521D01*
X174735657Y-91636737D01*
X174723949Y-91675333D01*
X174720305Y-91687344D01*
X174707500Y-91817357D01*
X174707500Y-91817364D01*
X174703219Y-91860833D01*
X174707500Y-91904302D01*
X174707501Y-93605000D01*
X173224625Y-93605000D01*
X173215812Y-93515518D01*
X173179502Y-93395820D01*
X173120537Y-93285506D01*
X173041185Y-93188815D01*
X172944494Y-93109463D01*
X172834180Y-93050498D01*
X172753534Y-93026034D01*
X172837588Y-92950269D01*
X173011641Y-92716920D01*
X173136825Y-92454099D01*
X173181476Y-92306890D01*
X173060155Y-92077000D01*
X171867000Y-92077000D01*
X171867000Y-92097000D01*
X171613000Y-92097000D01*
X171613000Y-92077000D01*
X170419845Y-92077000D01*
X170298524Y-92306890D01*
X170343175Y-92454099D01*
X170468359Y-92716920D01*
X170642412Y-92950269D01*
X170726466Y-93026034D01*
X170645820Y-93050498D01*
X170535506Y-93109463D01*
X170438815Y-93188815D01*
X170359463Y-93285506D01*
X170300498Y-93395820D01*
X170264188Y-93515518D01*
X170251928Y-93640000D01*
X170251928Y-94477714D01*
X170250718Y-94490000D01*
X170251928Y-94502286D01*
X170251928Y-95340000D01*
X170264188Y-95464482D01*
X170300498Y-95584180D01*
X170359463Y-95694494D01*
X170438815Y-95791185D01*
X170535506Y-95870537D01*
X170645820Y-95929502D01*
X170765518Y-95965812D01*
X170890000Y-95978072D01*
X172590000Y-95978072D01*
X172714482Y-95965812D01*
X172834180Y-95929502D01*
X172944494Y-95870537D01*
X173041185Y-95791185D01*
X173120537Y-95694494D01*
X173179502Y-95584180D01*
X173215812Y-95464482D01*
X173224625Y-95375000D01*
X174707501Y-95375000D01*
X174707500Y-97709031D01*
X174703219Y-97752500D01*
X174707500Y-97795969D01*
X174707500Y-97795976D01*
X174720305Y-97925989D01*
X174770911Y-98092812D01*
X174853089Y-98246558D01*
X174963683Y-98381317D01*
X174997456Y-98409034D01*
X176323470Y-99735049D01*
X176351183Y-99768817D01*
X176384951Y-99796530D01*
X176384953Y-99796532D01*
X176422670Y-99827486D01*
X176303850Y-99839188D01*
X176184152Y-99875498D01*
X176073838Y-99934463D01*
X175977147Y-100013815D01*
X175897795Y-100110506D01*
X175864999Y-100171862D01*
X175832203Y-100110506D01*
X175752851Y-100013815D01*
X175656160Y-99934463D01*
X175545846Y-99875498D01*
X175426148Y-99839188D01*
X175301666Y-99826928D01*
X174999916Y-99830000D01*
X174841166Y-99988750D01*
X174841166Y-101063000D01*
X175777916Y-101063000D01*
X175864999Y-100975917D01*
X175952082Y-101063000D01*
X176888832Y-101063000D01*
X176888832Y-101043000D01*
X177142832Y-101043000D01*
X177142832Y-101063000D01*
X177162832Y-101063000D01*
X177162832Y-101317000D01*
X177142832Y-101317000D01*
X177142832Y-102391250D01*
X177301582Y-102550000D01*
X177603332Y-102553072D01*
X177727814Y-102540812D01*
X177847512Y-102504502D01*
X177957826Y-102445537D01*
X178054517Y-102366185D01*
X178119990Y-102286406D01*
X178125370Y-102292962D01*
X178259946Y-102403405D01*
X178413482Y-102485472D01*
X178580078Y-102536008D01*
X178753332Y-102553072D01*
X179428332Y-102553072D01*
X179601586Y-102536008D01*
X179768182Y-102485472D01*
X179921718Y-102403405D01*
X180056294Y-102292962D01*
X180166737Y-102158386D01*
X180241666Y-102018204D01*
X180316595Y-102158386D01*
X180427038Y-102292962D01*
X180561614Y-102403405D01*
X180715150Y-102485472D01*
X180881746Y-102536008D01*
X181055000Y-102553072D01*
X181730000Y-102553072D01*
X181903254Y-102536008D01*
X182069850Y-102485472D01*
X182223386Y-102403405D01*
X182357962Y-102292962D01*
X182363342Y-102286406D01*
X182428815Y-102366185D01*
X182525506Y-102445537D01*
X182635820Y-102504502D01*
X182755518Y-102540812D01*
X182880000Y-102553072D01*
X183181750Y-102550000D01*
X183340500Y-102391250D01*
X183340500Y-101317000D01*
X183594500Y-101317000D01*
X183594500Y-102391250D01*
X183753250Y-102550000D01*
X184055000Y-102553072D01*
X184179482Y-102540812D01*
X184299180Y-102504502D01*
X184409494Y-102445537D01*
X184506185Y-102366185D01*
X184585537Y-102269494D01*
X184644502Y-102159180D01*
X184680812Y-102039482D01*
X184693072Y-101915000D01*
X184690000Y-101475750D01*
X184531250Y-101317000D01*
X183594500Y-101317000D01*
X183340500Y-101317000D01*
X183320500Y-101317000D01*
X183320500Y-101063000D01*
X183340500Y-101063000D01*
X183340500Y-99988750D01*
X183594500Y-99988750D01*
X183594500Y-101063000D01*
X184531250Y-101063000D01*
X184589906Y-101004344D01*
X186055000Y-101004344D01*
X186055000Y-101375656D01*
X186127439Y-101739834D01*
X186269534Y-102082882D01*
X186475825Y-102391618D01*
X186738382Y-102654175D01*
X187047118Y-102860466D01*
X187390166Y-103002561D01*
X187754344Y-103075000D01*
X188125656Y-103075000D01*
X188489834Y-103002561D01*
X188832882Y-102860466D01*
X189141618Y-102654175D01*
X189404175Y-102391618D01*
X189610466Y-102082882D01*
X189752561Y-101739834D01*
X189825000Y-101375656D01*
X189825000Y-101004344D01*
X189752561Y-100640166D01*
X189610466Y-100297118D01*
X189404175Y-99988382D01*
X189141618Y-99725825D01*
X188832882Y-99519534D01*
X188489834Y-99377439D01*
X188125656Y-99305000D01*
X187754344Y-99305000D01*
X187390166Y-99377439D01*
X187047118Y-99519534D01*
X186738382Y-99725825D01*
X186475825Y-99988382D01*
X186269534Y-100297118D01*
X186127439Y-100640166D01*
X186055000Y-101004344D01*
X184589906Y-101004344D01*
X184690000Y-100904250D01*
X184693072Y-100465000D01*
X184680812Y-100340518D01*
X184644502Y-100220820D01*
X184585537Y-100110506D01*
X184506185Y-100013815D01*
X184409494Y-99934463D01*
X184299180Y-99875498D01*
X184179482Y-99839188D01*
X184055000Y-99826928D01*
X183753250Y-99830000D01*
X183594500Y-99988750D01*
X183340500Y-99988750D01*
X183181750Y-99830000D01*
X182880000Y-99826928D01*
X182755518Y-99839188D01*
X182635820Y-99875498D01*
X182525506Y-99934463D01*
X182428815Y-100013815D01*
X182363342Y-100093594D01*
X182357962Y-100087038D01*
X182223386Y-99976595D01*
X182190000Y-99958750D01*
X182190000Y-99893711D01*
X182233937Y-99849774D01*
X182347205Y-99680256D01*
X182425226Y-99491898D01*
X182465000Y-99291939D01*
X182465000Y-99219701D01*
X182504482Y-99215812D01*
X182624180Y-99179502D01*
X182734494Y-99120537D01*
X182831185Y-99041185D01*
X182910537Y-98944494D01*
X182969502Y-98834180D01*
X183005812Y-98714482D01*
X183018072Y-98590000D01*
X183018072Y-97790000D01*
X183005812Y-97665518D01*
X182969502Y-97545820D01*
X182910537Y-97435506D01*
X182831185Y-97338815D01*
X182734494Y-97259463D01*
X182624180Y-97200498D01*
X182504482Y-97164188D01*
X182380000Y-97151928D01*
X182315000Y-97151928D01*
X182315000Y-96656578D01*
X182447969Y-96523609D01*
X185367155Y-96523609D01*
X185371026Y-96561282D01*
X185463196Y-96786533D01*
X185597539Y-96989474D01*
X185768892Y-97162307D01*
X185970671Y-97298390D01*
X186195121Y-97392493D01*
X186433617Y-97441000D01*
X186708617Y-97441000D01*
X186708617Y-96333000D01*
X186962617Y-96333000D01*
X186962617Y-97441000D01*
X187237617Y-97441000D01*
X187476113Y-97392493D01*
X187700563Y-97298390D01*
X187902342Y-97162307D01*
X188073695Y-96989474D01*
X188208038Y-96786533D01*
X188300208Y-96561282D01*
X188304079Y-96523609D01*
X188179348Y-96333000D01*
X186962617Y-96333000D01*
X186708617Y-96333000D01*
X185491886Y-96333000D01*
X185367155Y-96523609D01*
X182447969Y-96523609D01*
X183880579Y-95091000D01*
X185506363Y-95091000D01*
X185582655Y-95183962D01*
X185717230Y-95294405D01*
X185722023Y-95296967D01*
X185597539Y-95422526D01*
X185463196Y-95625467D01*
X185371026Y-95850718D01*
X185367155Y-95888391D01*
X185491886Y-96079000D01*
X186708617Y-96079000D01*
X186708617Y-96059000D01*
X186962617Y-96059000D01*
X186962617Y-96079000D01*
X188179348Y-96079000D01*
X188304079Y-95888391D01*
X188300208Y-95850718D01*
X188208038Y-95625467D01*
X188073695Y-95422526D01*
X187949211Y-95296967D01*
X187954004Y-95294405D01*
X188088579Y-95183962D01*
X188199022Y-95049387D01*
X188281089Y-94895851D01*
X188331625Y-94729255D01*
X188348689Y-94556001D01*
X188348689Y-93855999D01*
X188331625Y-93682745D01*
X188281089Y-93516149D01*
X188199022Y-93362613D01*
X188088579Y-93228038D01*
X187954004Y-93117595D01*
X187800468Y-93035528D01*
X187633872Y-92984992D01*
X187460618Y-92967928D01*
X186210616Y-92967928D01*
X186037362Y-92984992D01*
X185870766Y-93035528D01*
X185717230Y-93117595D01*
X185582655Y-93228038D01*
X185506363Y-93321000D01*
X183557466Y-93321000D01*
X183513999Y-93316719D01*
X183470533Y-93321000D01*
X183470523Y-93321000D01*
X183340510Y-93333805D01*
X183173687Y-93384411D01*
X183019941Y-93466589D01*
X182990452Y-93490790D01*
X182918953Y-93549468D01*
X182918951Y-93549470D01*
X182885183Y-93577183D01*
X182857470Y-93610951D01*
X180834956Y-95633466D01*
X180801183Y-95661183D01*
X180690589Y-95795942D01*
X180608411Y-95949688D01*
X180581343Y-96038917D01*
X180557805Y-96116510D01*
X180557177Y-96122883D01*
X180545000Y-96246524D01*
X180545000Y-96246531D01*
X180540719Y-96290000D01*
X180545000Y-96333469D01*
X180545000Y-97151928D01*
X180480000Y-97151928D01*
X180355518Y-97164188D01*
X180235820Y-97200498D01*
X180125506Y-97259463D01*
X180028815Y-97338815D01*
X179949463Y-97435506D01*
X179940857Y-97451607D01*
X179856250Y-97367000D01*
X178557000Y-97367000D01*
X178557000Y-97387000D01*
X178303000Y-97387000D01*
X178303000Y-97367000D01*
X177003750Y-97367000D01*
X176845000Y-97525750D01*
X176841928Y-97640000D01*
X176853983Y-97762405D01*
X176477500Y-97385922D01*
X176477500Y-96840000D01*
X176841928Y-96840000D01*
X176845000Y-96954250D01*
X177003750Y-97113000D01*
X178303000Y-97113000D01*
X178303000Y-96363750D01*
X178557000Y-96363750D01*
X178557000Y-97113000D01*
X179856250Y-97113000D01*
X180015000Y-96954250D01*
X180018072Y-96840000D01*
X180005812Y-96715518D01*
X179969502Y-96595820D01*
X179910537Y-96485506D01*
X179831185Y-96388815D01*
X179734494Y-96309463D01*
X179624180Y-96250498D01*
X179504482Y-96214188D01*
X179380000Y-96201928D01*
X178715750Y-96205000D01*
X178557000Y-96363750D01*
X178303000Y-96363750D01*
X178144250Y-96205000D01*
X177480000Y-96201928D01*
X177355518Y-96214188D01*
X177235820Y-96250498D01*
X177125506Y-96309463D01*
X177028815Y-96388815D01*
X176949463Y-96485506D01*
X176890498Y-96595820D01*
X176854188Y-96715518D01*
X176841928Y-96840000D01*
X176477500Y-96840000D01*
X176477500Y-94485967D01*
X176481781Y-94442501D01*
X176477500Y-94399035D01*
X176477500Y-92227411D01*
X178422892Y-90282019D01*
X178539922Y-90458807D01*
X178711275Y-90631640D01*
X178775348Y-90674852D01*
X178625498Y-90797831D01*
X178471167Y-90985884D01*
X178356489Y-91200432D01*
X178285870Y-91433231D01*
X178262025Y-91675333D01*
X178285870Y-91917435D01*
X178356489Y-92150234D01*
X178471167Y-92364782D01*
X178625498Y-92552835D01*
X178774762Y-92675333D01*
X178625498Y-92797831D01*
X178471167Y-92985884D01*
X178356489Y-93200432D01*
X178285870Y-93433231D01*
X178262025Y-93675333D01*
X178285870Y-93917435D01*
X178356489Y-94150234D01*
X178471167Y-94364782D01*
X178625498Y-94552835D01*
X178813551Y-94707166D01*
X179028099Y-94821844D01*
X179260898Y-94892463D01*
X179442335Y-94910333D01*
X180113665Y-94910333D01*
X180295102Y-94892463D01*
X180527901Y-94821844D01*
X180742449Y-94707166D01*
X180930502Y-94552835D01*
X181084833Y-94364782D01*
X181199511Y-94150234D01*
X181270130Y-93917435D01*
X181293975Y-93675333D01*
X181270130Y-93433231D01*
X181229347Y-93298788D01*
X181976018Y-92552118D01*
X182005011Y-92528324D01*
X182028805Y-92499331D01*
X182028809Y-92499327D01*
X182090197Y-92424524D01*
X182099984Y-92412599D01*
X182170556Y-92280570D01*
X182214013Y-92137309D01*
X182225010Y-92025656D01*
X182225010Y-92025647D01*
X182228686Y-91988324D01*
X182225010Y-91951001D01*
X182225010Y-89673609D01*
X185367155Y-89673609D01*
X185371026Y-89711282D01*
X185463196Y-89936533D01*
X185597539Y-90139474D01*
X185768892Y-90312307D01*
X185970671Y-90448390D01*
X186195121Y-90542493D01*
X186433617Y-90591000D01*
X186708617Y-90591000D01*
X186708617Y-89483000D01*
X186962617Y-89483000D01*
X186962617Y-90591000D01*
X187237617Y-90591000D01*
X187476113Y-90542493D01*
X187700563Y-90448390D01*
X187902342Y-90312307D01*
X188073695Y-90139474D01*
X188208038Y-89936533D01*
X188300208Y-89711282D01*
X188304079Y-89673609D01*
X188179348Y-89483000D01*
X186962617Y-89483000D01*
X186708617Y-89483000D01*
X185491886Y-89483000D01*
X185367155Y-89673609D01*
X182225010Y-89673609D01*
X182225010Y-88064961D01*
X182357014Y-88105003D01*
X182468667Y-88116000D01*
X182468677Y-88116000D01*
X182506000Y-88119676D01*
X182543323Y-88116000D01*
X185586684Y-88116000D01*
X185683115Y-88233502D01*
X185832965Y-88356481D01*
X185768892Y-88399693D01*
X185597539Y-88572526D01*
X185463196Y-88775467D01*
X185371026Y-89000718D01*
X185367155Y-89038391D01*
X185491886Y-89229000D01*
X186708617Y-89229000D01*
X186708617Y-89209000D01*
X186962617Y-89209000D01*
X186962617Y-89229000D01*
X188179348Y-89229000D01*
X188304079Y-89038391D01*
X188300208Y-89000718D01*
X188208038Y-88775467D01*
X188073695Y-88572526D01*
X187902342Y-88399693D01*
X187838269Y-88356481D01*
X187988119Y-88233502D01*
X188142450Y-88045449D01*
X188257128Y-87830901D01*
X188327747Y-87598102D01*
X188351592Y-87356000D01*
X188327747Y-87113898D01*
X188257128Y-86881099D01*
X188142450Y-86666551D01*
X187988119Y-86478498D01*
X187949506Y-86446809D01*
X187954004Y-86444405D01*
X188088579Y-86333962D01*
X188199022Y-86199387D01*
X188281089Y-86045851D01*
X188331625Y-85879255D01*
X188348689Y-85706001D01*
X188348689Y-85005999D01*
X188331625Y-84832745D01*
X188281089Y-84666149D01*
X188199022Y-84512613D01*
X188088579Y-84378038D01*
X187954004Y-84267595D01*
X187800468Y-84185528D01*
X187633872Y-84134992D01*
X187460618Y-84117928D01*
X186210616Y-84117928D01*
X186037362Y-84134992D01*
X185870766Y-84185528D01*
X185717230Y-84267595D01*
X185582655Y-84378038D01*
X185472212Y-84512613D01*
X185390145Y-84666149D01*
X185339609Y-84832745D01*
X185322545Y-85005999D01*
X185322545Y-85706001D01*
X185339609Y-85879255D01*
X185390145Y-86045851D01*
X185472212Y-86199387D01*
X185582655Y-86333962D01*
X185717230Y-86444405D01*
X185721728Y-86446809D01*
X185683115Y-86478498D01*
X185586684Y-86596000D01*
X182820802Y-86596000D01*
X182675020Y-86450219D01*
X182675020Y-81079821D01*
X183548617Y-80206225D01*
X183699744Y-80307205D01*
X183888102Y-80385226D01*
X184088061Y-80425000D01*
X184291939Y-80425000D01*
X184491898Y-80385226D01*
X184680256Y-80307205D01*
X184849774Y-80193937D01*
X184993937Y-80049774D01*
X185024292Y-80004344D01*
X186055000Y-80004344D01*
X186055000Y-80375656D01*
X186127439Y-80739834D01*
X186269534Y-81082882D01*
X186475825Y-81391618D01*
X186738382Y-81654175D01*
X187047118Y-81860466D01*
X187390166Y-82002561D01*
X187754344Y-82075000D01*
X188125656Y-82075000D01*
X188489834Y-82002561D01*
X188832882Y-81860466D01*
X189141618Y-81654175D01*
X189404175Y-81391618D01*
X189610466Y-81082882D01*
X189752561Y-80739834D01*
X189825000Y-80375656D01*
X189825000Y-80004344D01*
X189752561Y-79640166D01*
X189610466Y-79297118D01*
X189404175Y-78988382D01*
X189141618Y-78725825D01*
X188832882Y-78519534D01*
X188489834Y-78377439D01*
X188125656Y-78305000D01*
X187754344Y-78305000D01*
X187390166Y-78377439D01*
X187047118Y-78519534D01*
X186738382Y-78725825D01*
X186475825Y-78988382D01*
X186269534Y-79297118D01*
X186127439Y-79640166D01*
X186055000Y-80004344D01*
X185024292Y-80004344D01*
X185107205Y-79880256D01*
X185185226Y-79691898D01*
X185225000Y-79491939D01*
X185225000Y-79288061D01*
X185185226Y-79088102D01*
X185107205Y-78899744D01*
X184993937Y-78730226D01*
X184849774Y-78586063D01*
X184680256Y-78472795D01*
X184491898Y-78394774D01*
X184291939Y-78355000D01*
X184088061Y-78355000D01*
X183888102Y-78394774D01*
X183699744Y-78472795D01*
X183530226Y-78586063D01*
X183486289Y-78630000D01*
X183327363Y-78630000D01*
X183290040Y-78626324D01*
X183252717Y-78630000D01*
X183252707Y-78630000D01*
X183141054Y-78640997D01*
X182997793Y-78684454D01*
X182865763Y-78755026D01*
X182788791Y-78818196D01*
X182750039Y-78849999D01*
X182726241Y-78878997D01*
X181915020Y-79690218D01*
X181778072Y-79553270D01*
X181778072Y-78939999D01*
X181761008Y-78766745D01*
X181710472Y-78600149D01*
X181628405Y-78446613D01*
X181517962Y-78312038D01*
X181383387Y-78201595D01*
X181229851Y-78119528D01*
X181063255Y-78068992D01*
X180890001Y-78051928D01*
X180189999Y-78051928D01*
X180016745Y-78068992D01*
X179850149Y-78119528D01*
X179696613Y-78201595D01*
X179562038Y-78312038D01*
X179540000Y-78338891D01*
X179517962Y-78312038D01*
X179383387Y-78201595D01*
X179229851Y-78119528D01*
X179063255Y-78068992D01*
X178890001Y-78051928D01*
X178189999Y-78051928D01*
X178016745Y-78068992D01*
X177850149Y-78119528D01*
X177696613Y-78201595D01*
X177562038Y-78312038D01*
X177451595Y-78446613D01*
X177369528Y-78600149D01*
X177318992Y-78766745D01*
X177301928Y-78939999D01*
X177301928Y-79013103D01*
X177296324Y-79070000D01*
X177301928Y-79126897D01*
X177301928Y-79840001D01*
X177318992Y-80013255D01*
X177369528Y-80179851D01*
X177451595Y-80333387D01*
X177498056Y-80390000D01*
X177451595Y-80446613D01*
X177420386Y-80505000D01*
X177303072Y-80505000D01*
X177303072Y-80364999D01*
X177286008Y-80191745D01*
X177235472Y-80025149D01*
X177153405Y-79871613D01*
X177042962Y-79737038D01*
X176908387Y-79626595D01*
X176754851Y-79544528D01*
X176588255Y-79493992D01*
X176415001Y-79476928D01*
X174664999Y-79476928D01*
X174491745Y-79493992D01*
X174325149Y-79544528D01*
X174171613Y-79626595D01*
X174037038Y-79737038D01*
X173926595Y-79871613D01*
X173844528Y-80025149D01*
X173793992Y-80191745D01*
X173776928Y-80364999D01*
X173776928Y-81901493D01*
X172373422Y-83305000D01*
X168683469Y-83305000D01*
X168640639Y-83300782D01*
X168854250Y-83300000D01*
X169013000Y-83141250D01*
X169013000Y-81517000D01*
X169267000Y-81517000D01*
X169267000Y-83141250D01*
X169425750Y-83300000D01*
X170265000Y-83303072D01*
X170389482Y-83290812D01*
X170509180Y-83254502D01*
X170619494Y-83195537D01*
X170716185Y-83116185D01*
X170795537Y-83019494D01*
X170854502Y-82909180D01*
X170890812Y-82789482D01*
X170903072Y-82665000D01*
X170900000Y-81675750D01*
X170741250Y-81517000D01*
X169267000Y-81517000D01*
X169013000Y-81517000D01*
X167538750Y-81517000D01*
X167380000Y-81675750D01*
X167376928Y-82665000D01*
X167389188Y-82789482D01*
X167425498Y-82909180D01*
X167484463Y-83019494D01*
X167563815Y-83116185D01*
X167660506Y-83195537D01*
X167770820Y-83254502D01*
X167890518Y-83290812D01*
X168015000Y-83303072D01*
X168639312Y-83300787D01*
X168596531Y-83305000D01*
X168596523Y-83305000D01*
X168466510Y-83317805D01*
X168299686Y-83368411D01*
X168145941Y-83450589D01*
X168044953Y-83533468D01*
X168044951Y-83533470D01*
X168011183Y-83561183D01*
X167983470Y-83594951D01*
X158815738Y-92762683D01*
X158743937Y-92655225D01*
X158599774Y-92511062D01*
X158430256Y-92397794D01*
X158241898Y-92319773D01*
X158041939Y-92279999D01*
X157838061Y-92279999D01*
X157638102Y-92319773D01*
X157449744Y-92397794D01*
X157280226Y-92511062D01*
X157236289Y-92554999D01*
X153202326Y-92554999D01*
X153165001Y-92551323D01*
X153127676Y-92554999D01*
X153127668Y-92554999D01*
X153016015Y-92565996D01*
X152872754Y-92609453D01*
X152740725Y-92680025D01*
X152625000Y-92774998D01*
X152601202Y-92803996D01*
X151076408Y-94328791D01*
X150856260Y-94285000D01*
X150563740Y-94285000D01*
X150276842Y-94342068D01*
X150006589Y-94454010D01*
X149763368Y-94616525D01*
X149556525Y-94823368D01*
X149394010Y-95066589D01*
X149282068Y-95336842D01*
X149225000Y-95623740D01*
X149225000Y-95916260D01*
X149282068Y-96203158D01*
X149394010Y-96473411D01*
X149556525Y-96716632D01*
X149684418Y-96844525D01*
X149586260Y-96825000D01*
X149293740Y-96825000D01*
X149006842Y-96882068D01*
X148736589Y-96994010D01*
X148493368Y-97156525D01*
X148286525Y-97363368D01*
X148170000Y-97537760D01*
X148053475Y-97363368D01*
X147846632Y-97156525D01*
X147603411Y-96994010D01*
X147333158Y-96882068D01*
X147046260Y-96825000D01*
X146753740Y-96825000D01*
X146466842Y-96882068D01*
X146196589Y-96994010D01*
X145953368Y-97156525D01*
X145746525Y-97363368D01*
X145630000Y-97537760D01*
X145513475Y-97363368D01*
X145306632Y-97156525D01*
X145063411Y-96994010D01*
X144793158Y-96882068D01*
X144506260Y-96825000D01*
X144213740Y-96825000D01*
X143926842Y-96882068D01*
X143656589Y-96994010D01*
X143413368Y-97156525D01*
X143206525Y-97363368D01*
X143090000Y-97537760D01*
X142973475Y-97363368D01*
X142766632Y-97156525D01*
X142523411Y-96994010D01*
X142253158Y-96882068D01*
X141966260Y-96825000D01*
X141673740Y-96825000D01*
X141386842Y-96882068D01*
X141116589Y-96994010D01*
X140873368Y-97156525D01*
X140666525Y-97363368D01*
X140550000Y-97537760D01*
X140433475Y-97363368D01*
X140226632Y-97156525D01*
X139983411Y-96994010D01*
X139713158Y-96882068D01*
X139426260Y-96825000D01*
X139133740Y-96825000D01*
X138846842Y-96882068D01*
X138576589Y-96994010D01*
X138333368Y-97156525D01*
X138126525Y-97363368D01*
X138010000Y-97537760D01*
X137893475Y-97363368D01*
X137686632Y-97156525D01*
X137443411Y-96994010D01*
X137173158Y-96882068D01*
X136886260Y-96825000D01*
X136593740Y-96825000D01*
X136306842Y-96882068D01*
X136036589Y-96994010D01*
X135793368Y-97156525D01*
X135586525Y-97363368D01*
X135470000Y-97537760D01*
X135353475Y-97363368D01*
X135146632Y-97156525D01*
X134972240Y-97040000D01*
X135146632Y-96923475D01*
X135353475Y-96716632D01*
X135515990Y-96473411D01*
X135627932Y-96203158D01*
X135685000Y-95916260D01*
X135685000Y-95623740D01*
X135627932Y-95336842D01*
X135515990Y-95066589D01*
X135353475Y-94823368D01*
X135146632Y-94616525D01*
X134972240Y-94500000D01*
X135146632Y-94383475D01*
X135353475Y-94176632D01*
X135515990Y-93933411D01*
X135627932Y-93663158D01*
X135685000Y-93376260D01*
X135685000Y-93083740D01*
X135627932Y-92796842D01*
X135515990Y-92526589D01*
X135353475Y-92283368D01*
X135221620Y-92151513D01*
X135294180Y-92129502D01*
X135404494Y-92070537D01*
X135501185Y-91991185D01*
X135580537Y-91894494D01*
X135639502Y-91784180D01*
X135675812Y-91664482D01*
X135688072Y-91540000D01*
X135685000Y-90975750D01*
X135526250Y-90817000D01*
X134327000Y-90817000D01*
X134327000Y-90837000D01*
X134073000Y-90837000D01*
X134073000Y-90817000D01*
X132873750Y-90817000D01*
X132715000Y-90975750D01*
X132711928Y-91540000D01*
X132724188Y-91664482D01*
X132760498Y-91784180D01*
X132819463Y-91894494D01*
X132898815Y-91991185D01*
X132995506Y-92070537D01*
X133105820Y-92129502D01*
X133178380Y-92151513D01*
X133046525Y-92283368D01*
X132884010Y-92526589D01*
X132772068Y-92796842D01*
X132715000Y-93083740D01*
X132715000Y-93376260D01*
X132772068Y-93663158D01*
X132884010Y-93933411D01*
X133046525Y-94176632D01*
X133253368Y-94383475D01*
X133427760Y-94500000D01*
X133253368Y-94616525D01*
X133046525Y-94823368D01*
X132884010Y-95066589D01*
X132772068Y-95336842D01*
X132715000Y-95623740D01*
X132715000Y-95916260D01*
X132772068Y-96203158D01*
X132884010Y-96473411D01*
X133046525Y-96716632D01*
X133253368Y-96923475D01*
X133427760Y-97040000D01*
X133253368Y-97156525D01*
X133046525Y-97363368D01*
X132884010Y-97606589D01*
X132772068Y-97876842D01*
X132715000Y-98163740D01*
X132715000Y-98456260D01*
X132772068Y-98743158D01*
X132884010Y-99013411D01*
X133046525Y-99256632D01*
X133253368Y-99463475D01*
X133496589Y-99625990D01*
X133766842Y-99737932D01*
X134053740Y-99795000D01*
X134346260Y-99795000D01*
X134633158Y-99737932D01*
X134903411Y-99625990D01*
X135146632Y-99463475D01*
X135353475Y-99256632D01*
X135470000Y-99082240D01*
X135586525Y-99256632D01*
X135793368Y-99463475D01*
X136036589Y-99625990D01*
X136306842Y-99737932D01*
X136593740Y-99795000D01*
X136886260Y-99795000D01*
X137173158Y-99737932D01*
X137443411Y-99625990D01*
X137686632Y-99463475D01*
X137893475Y-99256632D01*
X138010000Y-99082240D01*
X138126525Y-99256632D01*
X138333368Y-99463475D01*
X138576589Y-99625990D01*
X138846842Y-99737932D01*
X139133740Y-99795000D01*
X139426260Y-99795000D01*
X139713158Y-99737932D01*
X139983411Y-99625990D01*
X140226632Y-99463475D01*
X140433475Y-99256632D01*
X140550000Y-99082240D01*
X140666525Y-99256632D01*
X140873368Y-99463475D01*
X141116589Y-99625990D01*
X141386842Y-99737932D01*
X141673740Y-99795000D01*
X141966260Y-99795000D01*
X142253158Y-99737932D01*
X142523411Y-99625990D01*
X142766632Y-99463475D01*
X142973475Y-99256632D01*
X143090000Y-99082240D01*
X143206525Y-99256632D01*
X143413368Y-99463475D01*
X143656589Y-99625990D01*
X143926842Y-99737932D01*
X144213740Y-99795000D01*
X144506260Y-99795000D01*
X144793158Y-99737932D01*
X145063411Y-99625990D01*
X145306632Y-99463475D01*
X145513475Y-99256632D01*
X145630000Y-99082240D01*
X145746525Y-99256632D01*
X145953368Y-99463475D01*
X146196589Y-99625990D01*
X146466842Y-99737932D01*
X146753740Y-99795000D01*
X147046260Y-99795000D01*
X147333158Y-99737932D01*
X147603411Y-99625990D01*
X147846632Y-99463475D01*
X148053475Y-99256632D01*
X148170000Y-99082240D01*
X148286525Y-99256632D01*
X148493368Y-99463475D01*
X148736589Y-99625990D01*
X149006842Y-99737932D01*
X149293740Y-99795000D01*
X149586260Y-99795000D01*
X149873158Y-99737932D01*
X150143411Y-99625990D01*
X150386632Y-99463475D01*
X150593475Y-99256632D01*
X150710000Y-99082240D01*
X150826525Y-99256632D01*
X151033368Y-99463475D01*
X151276589Y-99625990D01*
X151546842Y-99737932D01*
X151791770Y-99786652D01*
X151413089Y-100165333D01*
X131742995Y-100165333D01*
X131676962Y-100084871D01*
X131670406Y-100079491D01*
X131750185Y-100014018D01*
X131829537Y-99917327D01*
X131888502Y-99807013D01*
X131924812Y-99687315D01*
X131937072Y-99562833D01*
X131934000Y-99261083D01*
X131775250Y-99102333D01*
X130701000Y-99102333D01*
X130701000Y-99122333D01*
X130447000Y-99122333D01*
X130447000Y-99102333D01*
X129372750Y-99102333D01*
X129214000Y-99261083D01*
X129210928Y-99562833D01*
X129223188Y-99687315D01*
X129259498Y-99807013D01*
X129318463Y-99917327D01*
X129397815Y-100014018D01*
X129477594Y-100079491D01*
X129471038Y-100084871D01*
X129405005Y-100165333D01*
X128320760Y-100165333D01*
X128350185Y-100141185D01*
X128429537Y-100044494D01*
X128488502Y-99934180D01*
X128524812Y-99814482D01*
X128537072Y-99690000D01*
X128537072Y-98387833D01*
X129210928Y-98387833D01*
X129214000Y-98689583D01*
X129372750Y-98848333D01*
X130447000Y-98848333D01*
X130447000Y-97911583D01*
X130701000Y-97911583D01*
X130701000Y-98848333D01*
X131775250Y-98848333D01*
X131934000Y-98689583D01*
X131937072Y-98387833D01*
X131924812Y-98263351D01*
X131888502Y-98143653D01*
X131829537Y-98033339D01*
X131750185Y-97936648D01*
X131653494Y-97857296D01*
X131543180Y-97798331D01*
X131423482Y-97762021D01*
X131299000Y-97749761D01*
X130859750Y-97752833D01*
X130701000Y-97911583D01*
X130447000Y-97911583D01*
X130288250Y-97752833D01*
X129849000Y-97749761D01*
X129724518Y-97762021D01*
X129604820Y-97798331D01*
X129494506Y-97857296D01*
X129397815Y-97936648D01*
X129318463Y-98033339D01*
X129259498Y-98143653D01*
X129223188Y-98263351D01*
X129210928Y-98387833D01*
X128537072Y-98387833D01*
X128537072Y-97690000D01*
X128524812Y-97565518D01*
X128488502Y-97445820D01*
X128429537Y-97335506D01*
X128350185Y-97238815D01*
X128253494Y-97159463D01*
X128159000Y-97108954D01*
X128159000Y-90904801D01*
X129613802Y-89450000D01*
X132848602Y-89450000D01*
X132819463Y-89485506D01*
X132760498Y-89595820D01*
X132724188Y-89715518D01*
X132711928Y-89840000D01*
X132715000Y-90404250D01*
X132873750Y-90563000D01*
X134073000Y-90563000D01*
X134073000Y-90543000D01*
X134327000Y-90543000D01*
X134327000Y-90563000D01*
X135526250Y-90563000D01*
X135685000Y-90404250D01*
X135688072Y-89840000D01*
X135675812Y-89715518D01*
X135639502Y-89595820D01*
X135580537Y-89485506D01*
X135551398Y-89450000D01*
X146322678Y-89450000D01*
X146360000Y-89453676D01*
X146397322Y-89450000D01*
X146397333Y-89450000D01*
X146508986Y-89439003D01*
X146652247Y-89395546D01*
X146784276Y-89324974D01*
X146900001Y-89230001D01*
X146923804Y-89200997D01*
X151613592Y-84511210D01*
X151833740Y-84555000D01*
X152126260Y-84555000D01*
X152413158Y-84497932D01*
X152683411Y-84385990D01*
X152926632Y-84223475D01*
X153051710Y-84098397D01*
X153671208Y-84098397D01*
X153748843Y-84347472D01*
X154012883Y-84473371D01*
X154296411Y-84545339D01*
X154588531Y-84560611D01*
X154878019Y-84518599D01*
X155153747Y-84420919D01*
X155291157Y-84347472D01*
X155368792Y-84098397D01*
X154520000Y-83249605D01*
X153671208Y-84098397D01*
X153051710Y-84098397D01*
X153133475Y-84016632D01*
X153249311Y-83843271D01*
X153491603Y-83918792D01*
X154340395Y-83070000D01*
X154699605Y-83070000D01*
X155548397Y-83918792D01*
X155790689Y-83843271D01*
X155906525Y-84016632D01*
X156113368Y-84223475D01*
X156356589Y-84385990D01*
X156626842Y-84497932D01*
X156913740Y-84555000D01*
X157206260Y-84555000D01*
X157493158Y-84497932D01*
X157763411Y-84385990D01*
X158006632Y-84223475D01*
X158213475Y-84016632D01*
X158330000Y-83842240D01*
X158446525Y-84016632D01*
X158653368Y-84223475D01*
X158896589Y-84385990D01*
X159166842Y-84497932D01*
X159453740Y-84555000D01*
X159746260Y-84555000D01*
X160033158Y-84497932D01*
X160303411Y-84385990D01*
X160546632Y-84223475D01*
X160678487Y-84091620D01*
X160700498Y-84164180D01*
X160759463Y-84274494D01*
X160838815Y-84371185D01*
X160935506Y-84450537D01*
X161045820Y-84509502D01*
X161165518Y-84545812D01*
X161290000Y-84558072D01*
X162990000Y-84558072D01*
X163114482Y-84545812D01*
X163234180Y-84509502D01*
X163344494Y-84450537D01*
X163441185Y-84371185D01*
X163520537Y-84274494D01*
X163579502Y-84164180D01*
X163615812Y-84044482D01*
X163628072Y-83920000D01*
X163628072Y-82220000D01*
X163615812Y-82095518D01*
X163579502Y-81975820D01*
X163520537Y-81865506D01*
X163441185Y-81768815D01*
X163344494Y-81689463D01*
X163234180Y-81630498D01*
X163114482Y-81594188D01*
X162990000Y-81581928D01*
X161290000Y-81581928D01*
X161165518Y-81594188D01*
X161045820Y-81630498D01*
X160935506Y-81689463D01*
X160838815Y-81768815D01*
X160759463Y-81865506D01*
X160700498Y-81975820D01*
X160678487Y-82048380D01*
X160546632Y-81916525D01*
X160303411Y-81754010D01*
X160033158Y-81642068D01*
X159746260Y-81585000D01*
X159453740Y-81585000D01*
X159166842Y-81642068D01*
X158896589Y-81754010D01*
X158653368Y-81916525D01*
X158446525Y-82123368D01*
X158330000Y-82297760D01*
X158213475Y-82123368D01*
X158006632Y-81916525D01*
X157763411Y-81754010D01*
X157493158Y-81642068D01*
X157206260Y-81585000D01*
X156913740Y-81585000D01*
X156626842Y-81642068D01*
X156356589Y-81754010D01*
X156113368Y-81916525D01*
X155906525Y-82123368D01*
X155790689Y-82296729D01*
X155548397Y-82221208D01*
X154699605Y-83070000D01*
X154340395Y-83070000D01*
X153491603Y-82221208D01*
X153249311Y-82296729D01*
X153133475Y-82123368D01*
X153051710Y-82041603D01*
X153671208Y-82041603D01*
X154520000Y-82890395D01*
X155368792Y-82041603D01*
X155291157Y-81792528D01*
X155027117Y-81666629D01*
X154743589Y-81594661D01*
X154451469Y-81579389D01*
X154161981Y-81621401D01*
X153886253Y-81719081D01*
X153748843Y-81792528D01*
X153671208Y-82041603D01*
X153051710Y-82041603D01*
X152926632Y-81916525D01*
X152683411Y-81754010D01*
X152413158Y-81642068D01*
X152126260Y-81585000D01*
X151833740Y-81585000D01*
X151546842Y-81642068D01*
X151276589Y-81754010D01*
X151033368Y-81916525D01*
X150826525Y-82123368D01*
X150710000Y-82297760D01*
X150593475Y-82123368D01*
X150386632Y-81916525D01*
X150143411Y-81754010D01*
X149873158Y-81642068D01*
X149586260Y-81585000D01*
X149293740Y-81585000D01*
X149006842Y-81642068D01*
X148736589Y-81754010D01*
X148493368Y-81916525D01*
X148286525Y-82123368D01*
X148170000Y-82297760D01*
X148053475Y-82123368D01*
X147846632Y-81916525D01*
X147603411Y-81754010D01*
X147333158Y-81642068D01*
X147046260Y-81585000D01*
X146753740Y-81585000D01*
X146466842Y-81642068D01*
X146196589Y-81754010D01*
X145953368Y-81916525D01*
X145746525Y-82123368D01*
X145630000Y-82297760D01*
X145513475Y-82123368D01*
X145306632Y-81916525D01*
X145063411Y-81754010D01*
X144793158Y-81642068D01*
X144506260Y-81585000D01*
X144213740Y-81585000D01*
X143926842Y-81642068D01*
X143656589Y-81754010D01*
X143413368Y-81916525D01*
X143206525Y-82123368D01*
X143090000Y-82297760D01*
X142973475Y-82123368D01*
X142766632Y-81916525D01*
X142523411Y-81754010D01*
X142253158Y-81642068D01*
X141966260Y-81585000D01*
X141673740Y-81585000D01*
X141386842Y-81642068D01*
X141116589Y-81754010D01*
X140873368Y-81916525D01*
X140666525Y-82123368D01*
X140550000Y-82297760D01*
X140433475Y-82123368D01*
X140226632Y-81916525D01*
X139983411Y-81754010D01*
X139713158Y-81642068D01*
X139426260Y-81585000D01*
X139133740Y-81585000D01*
X138846842Y-81642068D01*
X138576589Y-81754010D01*
X138333368Y-81916525D01*
X138126525Y-82123368D01*
X138010000Y-82297760D01*
X137893475Y-82123368D01*
X137686632Y-81916525D01*
X137443411Y-81754010D01*
X137173158Y-81642068D01*
X136886260Y-81585000D01*
X136593740Y-81585000D01*
X136306842Y-81642068D01*
X136036589Y-81754010D01*
X135793368Y-81916525D01*
X135586525Y-82123368D01*
X135470000Y-82297760D01*
X135353475Y-82123368D01*
X135146632Y-81916525D01*
X134903411Y-81754010D01*
X134633158Y-81642068D01*
X134346260Y-81585000D01*
X134053740Y-81585000D01*
X133833592Y-81628790D01*
X132319802Y-80115000D01*
X167376928Y-80115000D01*
X167380000Y-81104250D01*
X167538750Y-81263000D01*
X169013000Y-81263000D01*
X169013000Y-79638750D01*
X169267000Y-79638750D01*
X169267000Y-81263000D01*
X170741250Y-81263000D01*
X170900000Y-81104250D01*
X170903072Y-80115000D01*
X170890812Y-79990518D01*
X170854502Y-79870820D01*
X170795537Y-79760506D01*
X170716185Y-79663815D01*
X170619494Y-79584463D01*
X170509180Y-79525498D01*
X170389482Y-79489188D01*
X170265000Y-79476928D01*
X169425750Y-79480000D01*
X169267000Y-79638750D01*
X169013000Y-79638750D01*
X168854250Y-79480000D01*
X168015000Y-79476928D01*
X167890518Y-79489188D01*
X167770820Y-79525498D01*
X167660506Y-79584463D01*
X167563815Y-79663815D01*
X167484463Y-79760506D01*
X167425498Y-79870820D01*
X167389188Y-79990518D01*
X167376928Y-80115000D01*
X132319802Y-80115000D01*
X132303804Y-80099003D01*
X132280001Y-80069999D01*
X132164276Y-79975026D01*
X132032247Y-79904454D01*
X131888986Y-79860997D01*
X131777333Y-79850000D01*
X131777322Y-79850000D01*
X131740000Y-79846324D01*
X131702678Y-79850000D01*
X118597323Y-79850000D01*
X118560000Y-79846324D01*
X118522677Y-79850000D01*
X118522667Y-79850000D01*
X118411014Y-79860997D01*
X118280201Y-79900678D01*
X118267753Y-79904454D01*
X118135723Y-79975026D01*
X118085776Y-80016017D01*
X118019999Y-80069999D01*
X117996201Y-80098997D01*
X117043271Y-81051928D01*
X116899000Y-81051928D01*
X116774518Y-81064188D01*
X116654820Y-81100498D01*
X116544506Y-81159463D01*
X116447815Y-81238815D01*
X116399000Y-81298296D01*
X116350185Y-81238815D01*
X116253494Y-81159463D01*
X116143180Y-81100498D01*
X116023482Y-81064188D01*
X115899000Y-81051928D01*
X114899000Y-81051928D01*
X114774518Y-81064188D01*
X114654820Y-81100498D01*
X114544506Y-81159463D01*
X114447815Y-81238815D01*
X114399000Y-81298296D01*
X114350185Y-81238815D01*
X114253494Y-81159463D01*
X114143180Y-81100498D01*
X114023482Y-81064188D01*
X113899000Y-81051928D01*
X113684750Y-81055000D01*
X113526000Y-81213750D01*
X113272000Y-81213750D01*
X113113250Y-81055000D01*
X112899000Y-81051928D01*
X112774518Y-81064188D01*
X112654820Y-81100498D01*
X112544506Y-81159463D01*
X112447815Y-81238815D01*
X112368463Y-81335506D01*
X112309498Y-81445820D01*
X112273188Y-81565518D01*
X112260928Y-81690000D01*
X103088002Y-81690000D01*
X103141618Y-81654175D01*
X103404175Y-81391618D01*
X103610466Y-81082882D01*
X103752561Y-80739834D01*
X103825000Y-80375656D01*
X103825000Y-80004344D01*
X103752561Y-79640166D01*
X103610466Y-79297118D01*
X103404175Y-78988382D01*
X103141618Y-78725825D01*
X102832882Y-78519534D01*
X102489834Y-78377439D01*
X102125656Y-78305000D01*
X101754344Y-78305000D01*
X101390166Y-78377439D01*
X101047118Y-78519534D01*
X100738382Y-78725825D01*
X100475825Y-78988382D01*
X100269534Y-79297118D01*
X100127439Y-79640166D01*
X100055000Y-80004344D01*
X99621368Y-80004344D01*
X99647670Y-79736107D01*
X99779489Y-79299502D01*
X99993600Y-78896815D01*
X100281848Y-78543388D01*
X100633261Y-78252673D01*
X101034439Y-78035758D01*
X101470113Y-77900894D01*
X101954344Y-77850000D01*
X187897721Y-77850000D01*
X188383893Y-77897670D01*
G37*
%TD.AperFunction*%
D24*
X157280226Y-94118936D02*
X157387684Y-94190737D01*
X154738961Y-96839461D01*
X154666260Y-96825000D01*
X154373740Y-96825000D01*
X154275582Y-96844525D01*
X154403475Y-96716632D01*
X154565990Y-96473411D01*
X154677932Y-96203158D01*
X154735000Y-95916260D01*
X154735000Y-95623740D01*
X154677932Y-95336842D01*
X154565990Y-95066589D01*
X154403475Y-94823368D01*
X154196632Y-94616525D01*
X153953411Y-94454010D01*
X153683158Y-94342068D01*
X153396260Y-94285000D01*
X153269802Y-94285000D01*
X153479803Y-94074999D01*
X157236289Y-94074999D01*
X157280226Y-94118936D01*
%TA.AperFunction,Conductor*%
D25*
G36*
X157280226Y-94118936D02*
G01*
X157387684Y-94190737D01*
X154738961Y-96839461D01*
X154666260Y-96825000D01*
X154373740Y-96825000D01*
X154275582Y-96844525D01*
X154403475Y-96716632D01*
X154565990Y-96473411D01*
X154677932Y-96203158D01*
X154735000Y-95916260D01*
X154735000Y-95623740D01*
X154677932Y-95336842D01*
X154565990Y-95066589D01*
X154403475Y-94823368D01*
X154196632Y-94616525D01*
X153953411Y-94454010D01*
X153683158Y-94342068D01*
X153396260Y-94285000D01*
X153269802Y-94285000D01*
X153479803Y-94074999D01*
X157236289Y-94074999D01*
X157280226Y-94118936D01*
G37*
%TD.AperFunction*%
D24*
X179905000Y-89548333D02*
X179925000Y-89548333D01*
X179925000Y-89802333D01*
X179905000Y-89802333D01*
X179905000Y-89822333D01*
X179651000Y-89822333D01*
X179651000Y-89802333D01*
X179631000Y-89802333D01*
X179631000Y-89548333D01*
X179651000Y-89548333D01*
X179651000Y-89528333D01*
X179905000Y-89528333D01*
X179905000Y-89548333D01*
%TA.AperFunction,Conductor*%
D25*
G36*
X179905000Y-89548333D02*
G01*
X179925000Y-89548333D01*
X179925000Y-89802333D01*
X179905000Y-89802333D01*
X179905000Y-89822333D01*
X179651000Y-89822333D01*
X179651000Y-89802333D01*
X179631000Y-89802333D01*
X179631000Y-89548333D01*
X179651000Y-89548333D01*
X179651000Y-89528333D01*
X179905000Y-89528333D01*
X179905000Y-89548333D01*
G37*
%TD.AperFunction*%
D24*
X148286525Y-84016632D02*
X148493368Y-84223475D01*
X148736589Y-84385990D01*
X149006842Y-84497932D01*
X149293740Y-84555000D01*
X149420198Y-84555000D01*
X146045199Y-87930000D01*
X135494801Y-87930000D01*
X138913592Y-84511210D01*
X139133740Y-84555000D01*
X139426260Y-84555000D01*
X139713158Y-84497932D01*
X139983411Y-84385990D01*
X140226632Y-84223475D01*
X140433475Y-84016632D01*
X140550000Y-83842240D01*
X140666525Y-84016632D01*
X140873368Y-84223475D01*
X141116589Y-84385990D01*
X141386842Y-84497932D01*
X141673740Y-84555000D01*
X141966260Y-84555000D01*
X142253158Y-84497932D01*
X142523411Y-84385990D01*
X142766632Y-84223475D01*
X142973475Y-84016632D01*
X143090000Y-83842240D01*
X143206525Y-84016632D01*
X143413368Y-84223475D01*
X143656589Y-84385990D01*
X143926842Y-84497932D01*
X144213740Y-84555000D01*
X144506260Y-84555000D01*
X144793158Y-84497932D01*
X145063411Y-84385990D01*
X145306632Y-84223475D01*
X145513475Y-84016632D01*
X145630000Y-83842240D01*
X145746525Y-84016632D01*
X145953368Y-84223475D01*
X146196589Y-84385990D01*
X146466842Y-84497932D01*
X146753740Y-84555000D01*
X147046260Y-84555000D01*
X147333158Y-84497932D01*
X147603411Y-84385990D01*
X147846632Y-84223475D01*
X148053475Y-84016632D01*
X148170000Y-83842240D01*
X148286525Y-84016632D01*
%TA.AperFunction,Conductor*%
D25*
G36*
X148286525Y-84016632D02*
G01*
X148493368Y-84223475D01*
X148736589Y-84385990D01*
X149006842Y-84497932D01*
X149293740Y-84555000D01*
X149420198Y-84555000D01*
X146045199Y-87930000D01*
X135494801Y-87930000D01*
X138913592Y-84511210D01*
X139133740Y-84555000D01*
X139426260Y-84555000D01*
X139713158Y-84497932D01*
X139983411Y-84385990D01*
X140226632Y-84223475D01*
X140433475Y-84016632D01*
X140550000Y-83842240D01*
X140666525Y-84016632D01*
X140873368Y-84223475D01*
X141116589Y-84385990D01*
X141386842Y-84497932D01*
X141673740Y-84555000D01*
X141966260Y-84555000D01*
X142253158Y-84497932D01*
X142523411Y-84385990D01*
X142766632Y-84223475D01*
X142973475Y-84016632D01*
X143090000Y-83842240D01*
X143206525Y-84016632D01*
X143413368Y-84223475D01*
X143656589Y-84385990D01*
X143926842Y-84497932D01*
X144213740Y-84555000D01*
X144506260Y-84555000D01*
X144793158Y-84497932D01*
X145063411Y-84385990D01*
X145306632Y-84223475D01*
X145513475Y-84016632D01*
X145630000Y-83842240D01*
X145746525Y-84016632D01*
X145953368Y-84223475D01*
X146196589Y-84385990D01*
X146466842Y-84497932D01*
X146753740Y-84555000D01*
X147046260Y-84555000D01*
X147333158Y-84497932D01*
X147603411Y-84385990D01*
X147846632Y-84223475D01*
X148053475Y-84016632D01*
X148170000Y-83842240D01*
X148286525Y-84016632D01*
G37*
%TD.AperFunction*%
D24*
X132758790Y-82703592D02*
X132715000Y-82923740D01*
X132715000Y-83216260D01*
X132772068Y-83503158D01*
X132884010Y-83773411D01*
X133046525Y-84016632D01*
X133253368Y-84223475D01*
X133496589Y-84385990D01*
X133766842Y-84497932D01*
X134053740Y-84555000D01*
X134180199Y-84555000D01*
X132805199Y-85930000D01*
X129247538Y-85930000D01*
X129275000Y-85791939D01*
X129275000Y-85588061D01*
X129235226Y-85388102D01*
X129157205Y-85199744D01*
X129043937Y-85030226D01*
X128899774Y-84886063D01*
X128730256Y-84772795D01*
X128541898Y-84694774D01*
X128341939Y-84655000D01*
X128138061Y-84655000D01*
X127938102Y-84694774D01*
X127749744Y-84772795D01*
X127580226Y-84886063D01*
X127536289Y-84930000D01*
X126406538Y-84930000D01*
X126434000Y-84791939D01*
X126434000Y-84588061D01*
X126394226Y-84388102D01*
X126316205Y-84199744D01*
X126302969Y-84179934D01*
X126350185Y-84141185D01*
X126399000Y-84081704D01*
X126447815Y-84141185D01*
X126544506Y-84220537D01*
X126654820Y-84279502D01*
X126774518Y-84315812D01*
X126899000Y-84328072D01*
X127113250Y-84325000D01*
X127272000Y-84166250D01*
X127272000Y-82817000D01*
X127526000Y-82817000D01*
X127526000Y-84166250D01*
X127684750Y-84325000D01*
X127899000Y-84328072D01*
X128023482Y-84315812D01*
X128143180Y-84279502D01*
X128253494Y-84220537D01*
X128350185Y-84141185D01*
X128429537Y-84044494D01*
X128488502Y-83934180D01*
X128524812Y-83814482D01*
X128537072Y-83690000D01*
X128534000Y-82975750D01*
X128375250Y-82817000D01*
X127526000Y-82817000D01*
X127272000Y-82817000D01*
X127252000Y-82817000D01*
X127252000Y-82563000D01*
X127272000Y-82563000D01*
X127272000Y-82543000D01*
X127526000Y-82543000D01*
X127526000Y-82563000D01*
X128375250Y-82563000D01*
X128534000Y-82404250D01*
X128537072Y-81690000D01*
X128524812Y-81565518D01*
X128488502Y-81445820D01*
X128447975Y-81370000D01*
X131425199Y-81370000D01*
X132758790Y-82703592D01*
%TA.AperFunction,Conductor*%
D25*
G36*
X132758790Y-82703592D02*
G01*
X132715000Y-82923740D01*
X132715000Y-83216260D01*
X132772068Y-83503158D01*
X132884010Y-83773411D01*
X133046525Y-84016632D01*
X133253368Y-84223475D01*
X133496589Y-84385990D01*
X133766842Y-84497932D01*
X134053740Y-84555000D01*
X134180199Y-84555000D01*
X132805199Y-85930000D01*
X129247538Y-85930000D01*
X129275000Y-85791939D01*
X129275000Y-85588061D01*
X129235226Y-85388102D01*
X129157205Y-85199744D01*
X129043937Y-85030226D01*
X128899774Y-84886063D01*
X128730256Y-84772795D01*
X128541898Y-84694774D01*
X128341939Y-84655000D01*
X128138061Y-84655000D01*
X127938102Y-84694774D01*
X127749744Y-84772795D01*
X127580226Y-84886063D01*
X127536289Y-84930000D01*
X126406538Y-84930000D01*
X126434000Y-84791939D01*
X126434000Y-84588061D01*
X126394226Y-84388102D01*
X126316205Y-84199744D01*
X126302969Y-84179934D01*
X126350185Y-84141185D01*
X126399000Y-84081704D01*
X126447815Y-84141185D01*
X126544506Y-84220537D01*
X126654820Y-84279502D01*
X126774518Y-84315812D01*
X126899000Y-84328072D01*
X127113250Y-84325000D01*
X127272000Y-84166250D01*
X127272000Y-82817000D01*
X127526000Y-82817000D01*
X127526000Y-84166250D01*
X127684750Y-84325000D01*
X127899000Y-84328072D01*
X128023482Y-84315812D01*
X128143180Y-84279502D01*
X128253494Y-84220537D01*
X128350185Y-84141185D01*
X128429537Y-84044494D01*
X128488502Y-83934180D01*
X128524812Y-83814482D01*
X128537072Y-83690000D01*
X128534000Y-82975750D01*
X128375250Y-82817000D01*
X127526000Y-82817000D01*
X127272000Y-82817000D01*
X127252000Y-82817000D01*
X127252000Y-82563000D01*
X127272000Y-82563000D01*
X127272000Y-82543000D01*
X127526000Y-82543000D01*
X127526000Y-82563000D01*
X128375250Y-82563000D01*
X128534000Y-82404250D01*
X128537072Y-81690000D01*
X128524812Y-81565518D01*
X128488502Y-81445820D01*
X128447975Y-81370000D01*
X131425199Y-81370000D01*
X132758790Y-82703592D01*
G37*
%TD.AperFunction*%
%TD*%
D26*
%TO.N,Net-(AE1-Pad1)*%
X106941340Y-90048965D02*
X106942070Y-90049268D01*
X107079695Y-90101520D01*
X107080584Y-90101820D01*
X107211790Y-90140824D01*
X107212759Y-90141071D01*
X107342364Y-90168723D01*
X107343290Y-90168885D01*
X107476116Y-90187081D01*
X107476884Y-90187163D01*
X107617751Y-90197799D01*
X107618296Y-90197828D01*
X107772024Y-90202800D01*
X107772346Y-90202807D01*
X107943758Y-90204011D01*
X107943891Y-90204011D01*
X108137805Y-90203343D01*
X108346300Y-90202737D01*
X108346300Y-91177263D01*
X108137805Y-91176656D01*
X107943891Y-91175988D01*
X107943758Y-91175988D01*
X107772346Y-91177192D01*
X107772024Y-91177199D01*
X107618296Y-91182171D01*
X107617751Y-91182200D01*
X107476884Y-91192836D01*
X107476116Y-91192918D01*
X107343290Y-91211114D01*
X107342364Y-91211276D01*
X107212759Y-91238928D01*
X107211790Y-91239175D01*
X107080584Y-91278179D01*
X107079695Y-91278479D01*
X106942070Y-91330731D01*
X106941340Y-91331034D01*
X106800311Y-91394881D01*
X106067322Y-90690000D01*
X106800312Y-89985119D01*
X106941340Y-90048965D01*
%TA.AperFunction,Conductor*%
D25*
G36*
X106941340Y-90048965D02*
G01*
X106942070Y-90049268D01*
X107079695Y-90101520D01*
X107080584Y-90101820D01*
X107211790Y-90140824D01*
X107212759Y-90141071D01*
X107342364Y-90168723D01*
X107343290Y-90168885D01*
X107476116Y-90187081D01*
X107476884Y-90187163D01*
X107617751Y-90197799D01*
X107618296Y-90197828D01*
X107772024Y-90202800D01*
X107772346Y-90202807D01*
X107943758Y-90204011D01*
X107943891Y-90204011D01*
X108137805Y-90203343D01*
X108346300Y-90202737D01*
X108346300Y-91177263D01*
X108137805Y-91176656D01*
X107943891Y-91175988D01*
X107943758Y-91175988D01*
X107772346Y-91177192D01*
X107772024Y-91177199D01*
X107618296Y-91182171D01*
X107617751Y-91182200D01*
X107476884Y-91192836D01*
X107476116Y-91192918D01*
X107343290Y-91211114D01*
X107342364Y-91211276D01*
X107212759Y-91238928D01*
X107211790Y-91239175D01*
X107080584Y-91278179D01*
X107079695Y-91278479D01*
X106942070Y-91330731D01*
X106941340Y-91331034D01*
X106800311Y-91394881D01*
X106067322Y-90690000D01*
X106800312Y-89985119D01*
X106941340Y-90048965D01*
G37*
%TD.AperFunction*%
%TD*%
D26*
%TO.N,Net-(AE1-Pad1)*%
X106829745Y-90690000D02*
X106053446Y-91371174D01*
X105943423Y-91314437D01*
X105942434Y-91313980D01*
X105828298Y-91267021D01*
X105827197Y-91266626D01*
X105713472Y-91231677D01*
X105712372Y-91231393D01*
X105595888Y-91206724D01*
X105594915Y-91206557D01*
X105472504Y-91190434D01*
X105471743Y-91190357D01*
X105340237Y-91181049D01*
X105339713Y-91181022D01*
X105195944Y-91176798D01*
X105195641Y-91176793D01*
X105036440Y-91175920D01*
X105036317Y-91175920D01*
X104858516Y-91176666D01*
X104671700Y-91177260D01*
X104671700Y-90202740D01*
X104858516Y-90203333D01*
X105036317Y-90204079D01*
X105036440Y-90204079D01*
X105195641Y-90203206D01*
X105195944Y-90203201D01*
X105339713Y-90198977D01*
X105340237Y-90198950D01*
X105471743Y-90189642D01*
X105472504Y-90189565D01*
X105594915Y-90173442D01*
X105595888Y-90173275D01*
X105712372Y-90148606D01*
X105713472Y-90148322D01*
X105827197Y-90113373D01*
X105828298Y-90112978D01*
X105942434Y-90066019D01*
X105943423Y-90065562D01*
X106053445Y-90008826D01*
X106829745Y-90690000D01*
%TA.AperFunction,Conductor*%
D25*
G36*
X106829745Y-90690000D02*
G01*
X106053446Y-91371174D01*
X105943423Y-91314437D01*
X105942434Y-91313980D01*
X105828298Y-91267021D01*
X105827197Y-91266626D01*
X105713472Y-91231677D01*
X105712372Y-91231393D01*
X105595888Y-91206724D01*
X105594915Y-91206557D01*
X105472504Y-91190434D01*
X105471743Y-91190357D01*
X105340237Y-91181049D01*
X105339713Y-91181022D01*
X105195944Y-91176798D01*
X105195641Y-91176793D01*
X105036440Y-91175920D01*
X105036317Y-91175920D01*
X104858516Y-91176666D01*
X104671700Y-91177260D01*
X104671700Y-90202740D01*
X104858516Y-90203333D01*
X105036317Y-90204079D01*
X105036440Y-90204079D01*
X105195641Y-90203206D01*
X105195944Y-90203201D01*
X105339713Y-90198977D01*
X105340237Y-90198950D01*
X105471743Y-90189642D01*
X105472504Y-90189565D01*
X105594915Y-90173442D01*
X105595888Y-90173275D01*
X105712372Y-90148606D01*
X105713472Y-90148322D01*
X105827197Y-90113373D01*
X105828298Y-90112978D01*
X105942434Y-90066019D01*
X105943423Y-90065562D01*
X106053445Y-90008826D01*
X106829745Y-90690000D01*
G37*
%TD.AperFunction*%
%TD*%
M02*
