%TF.GenerationSoftware,KiCad,Pcbnew,(5.1.10)-1*%
%TF.CreationDate,2021-09-20T23:46:16+02:00*%
%TF.ProjectId,LoRaProMini,4c6f5261-5072-46f4-9d69-6e692e6b6963,3.0*%
%TF.SameCoordinates,Original*%
%TF.FileFunction,Soldermask,Bot*%
%TF.FilePolarity,Negative*%
%FSLAX46Y46*%
G04 Gerber Fmt 4.6, Leading zero omitted, Abs format (unit mm)*
G04 Created by KiCad (PCBNEW (5.1.10)-1) date 2021-09-20 23:46:16*
%MOMM*%
%LPD*%
G01*
G04 APERTURE LIST*
%ADD10C,0.100000*%
%ADD11O,1.750000X1.200000*%
%ADD12O,1.700000X1.700000*%
%ADD13C,1.700000*%
%ADD14R,1.700000X1.700000*%
%ADD15C,1.600000*%
%ADD16R,6.000000X2.500000*%
%ADD17C,2.500000*%
G04 APERTURE END LIST*
D10*
%TO.C,JP1*%
G36*
X125840000Y-101870000D02*
G01*
X125340000Y-102620000D01*
X124340000Y-102620000D01*
X124340000Y-101120000D01*
X125340000Y-101120000D01*
X125840000Y-101870000D01*
G37*
G36*
X126790000Y-102620000D02*
G01*
X125640000Y-102620000D01*
X126140000Y-101870000D01*
X125640000Y-101120000D01*
X126790000Y-101120000D01*
X126790000Y-102620000D01*
G37*
%TD*%
D11*
%TO.C,J1*%
X167040000Y-87090000D03*
G36*
G01*
X166414999Y-84490000D02*
X167665001Y-84490000D01*
G75*
G02*
X167915000Y-84739999I0J-249999D01*
G01*
X167915000Y-85440001D01*
G75*
G02*
X167665001Y-85690000I-249999J0D01*
G01*
X166414999Y-85690000D01*
G75*
G02*
X166165000Y-85440001I0J249999D01*
G01*
X166165000Y-84739999D01*
G75*
G02*
X166414999Y-84490000I249999J0D01*
G01*
G37*
%TD*%
%TO.C,J7*%
G36*
G01*
X159414999Y-98590000D02*
X160665001Y-98590000D01*
G75*
G02*
X160915000Y-98839999I0J-249999D01*
G01*
X160915000Y-99540001D01*
G75*
G02*
X160665001Y-99790000I-249999J0D01*
G01*
X159414999Y-99790000D01*
G75*
G02*
X159165000Y-99540001I0J249999D01*
G01*
X159165000Y-98839999D01*
G75*
G02*
X159414999Y-98590000I249999J0D01*
G01*
G37*
X160040000Y-101190000D03*
%TD*%
D12*
%TO.C,J5*%
X141600000Y-79190000D03*
X139060000Y-79190000D03*
X136520000Y-79190000D03*
X133980000Y-79190000D03*
D13*
X131440000Y-79190000D03*
%TD*%
D12*
%TO.C,J6*%
X149220000Y-102190000D03*
X146680000Y-102190000D03*
X144140000Y-102190000D03*
X141600000Y-102190000D03*
X139060000Y-102190000D03*
X136520000Y-102190000D03*
X133980000Y-102190000D03*
D13*
X131440000Y-102190000D03*
%TD*%
D11*
%TO.C,J8*%
X160040000Y-93690000D03*
G36*
G01*
X159414999Y-91090000D02*
X160665001Y-91090000D01*
G75*
G02*
X160915000Y-91339999I0J-249999D01*
G01*
X160915000Y-92040001D01*
G75*
G02*
X160665001Y-92290000I-249999J0D01*
G01*
X159414999Y-92290000D01*
G75*
G02*
X159165000Y-92040001I0J249999D01*
G01*
X159165000Y-91339999D01*
G75*
G02*
X159414999Y-91090000I249999J0D01*
G01*
G37*
%TD*%
D12*
%TO.C,J4*%
X154440000Y-85610000D03*
X154440000Y-88150000D03*
X154440000Y-90690000D03*
X154440000Y-93230000D03*
D14*
X154440000Y-95770000D03*
%TD*%
D15*
%TO.C,AE1*%
X106449000Y-90690000D03*
D16*
X103440000Y-93692000D03*
X103440000Y-87692000D03*
%TD*%
D17*
%TO.C,REF\u002A\u002A*%
X167940000Y-101190000D03*
%TD*%
%TO.C,REF\u002A\u002A*%
X101940000Y-101190000D03*
%TD*%
%TO.C,REF\u002A\u002A*%
X101940000Y-80190000D03*
%TD*%
%TO.C,REF\u002A\u002A*%
X167940000Y-80190000D03*
%TD*%
D11*
%TO.C,J3*%
X160040000Y-86190000D03*
X160040000Y-84190000D03*
X160040000Y-82190000D03*
G36*
G01*
X159414999Y-79590000D02*
X160665001Y-79590000D01*
G75*
G02*
X160915000Y-79839999I0J-249999D01*
G01*
X160915000Y-80540001D01*
G75*
G02*
X160665001Y-80790000I-249999J0D01*
G01*
X159414999Y-80790000D01*
G75*
G02*
X159165000Y-80540001I0J249999D01*
G01*
X159165000Y-79839999D01*
G75*
G02*
X159414999Y-79590000I249999J0D01*
G01*
G37*
%TD*%
%TO.C,J2*%
X167040000Y-96290000D03*
X167040000Y-94290000D03*
G36*
G01*
X166414999Y-91690000D02*
X167665001Y-91690000D01*
G75*
G02*
X167915000Y-91939999I0J-249999D01*
G01*
X167915000Y-92640001D01*
G75*
G02*
X167665001Y-92890000I-249999J0D01*
G01*
X166414999Y-92890000D01*
G75*
G02*
X166165000Y-92640001I0J249999D01*
G01*
X166165000Y-91939999D01*
G75*
G02*
X166414999Y-91690000I249999J0D01*
G01*
G37*
%TD*%
M02*
