%TF.GenerationSoftware,KiCad,Pcbnew,(5.1.10)-1*%
%TF.CreationDate,2021-06-05T23:03:48+02:00*%
%TF.ProjectId,LoRaProMini,4c6f5261-5072-46f4-9d69-6e692e6b6963,2.0*%
%TF.SameCoordinates,Original*%
%TF.FileFunction,Soldermask,Bot*%
%TF.FilePolarity,Negative*%
%FSLAX46Y46*%
G04 Gerber Fmt 4.6, Leading zero omitted, Abs format (unit mm)*
G04 Created by KiCad (PCBNEW (5.1.10)-1) date 2021-06-05 23:03:48*
%MOMM*%
%LPD*%
G01*
G04 APERTURE LIST*
%ADD10C,1.700000*%
%ADD11R,1.700000X1.700000*%
%ADD12C,2.500000*%
%ADD13R,1.500000X1.050000*%
%ADD14O,1.500000X1.050000*%
%ADD15C,1.600000*%
%ADD16R,6.000000X2.500000*%
%ADD17O,1.750000X1.200000*%
G04 APERTURE END LIST*
D10*
%TO.C,X1*%
X134200000Y-98310000D03*
X134200000Y-95770000D03*
X134200000Y-93230000D03*
D11*
X134200000Y-90690000D03*
D10*
X136740000Y-98310000D03*
X141820000Y-98310000D03*
X139280000Y-98310000D03*
X149440000Y-98310000D03*
X151980000Y-98310000D03*
X146900000Y-98310000D03*
X144360000Y-98310000D03*
X154520000Y-98310000D03*
X157060000Y-98310000D03*
D11*
X162140000Y-98310000D03*
D10*
X159600000Y-98310000D03*
X159600000Y-83070000D03*
D11*
X162140000Y-83070000D03*
D10*
X157060000Y-83070000D03*
X154520000Y-83070000D03*
X144360000Y-83070000D03*
X146900000Y-83070000D03*
X151980000Y-83070000D03*
X149440000Y-83070000D03*
X139280000Y-83070000D03*
X141820000Y-83070000D03*
X136740000Y-83070000D03*
X134200000Y-83070000D03*
X153250000Y-95770000D03*
X150710000Y-95770000D03*
%TD*%
D12*
%TO.C,REF\u002A\u002A*%
X185940000Y-101190000D03*
%TD*%
%TO.C,REF\u002A\u002A*%
X101940000Y-101190000D03*
%TD*%
%TO.C,REF\u002A\u002A*%
X101940000Y-80190000D03*
%TD*%
%TO.C,REF\u002A\u002A*%
X185940000Y-80190000D03*
%TD*%
D13*
%TO.C,U3*%
X171140000Y-80120000D03*
D14*
X171140000Y-82660000D03*
X171140000Y-81390000D03*
%TD*%
D15*
%TO.C,AE1*%
X106449000Y-90690000D03*
D16*
X103440000Y-93692000D03*
X103440000Y-87692000D03*
%TD*%
D17*
%TO.C,J3*%
X177788000Y-93675333D03*
X177788000Y-91675333D03*
X177788000Y-89675333D03*
G36*
G01*
X177162999Y-87075333D02*
X178413001Y-87075333D01*
G75*
G02*
X178663000Y-87325332I0J-249999D01*
G01*
X178663000Y-88025334D01*
G75*
G02*
X178413001Y-88275333I-249999J0D01*
G01*
X177162999Y-88275333D01*
G75*
G02*
X176913000Y-88025334I0J249999D01*
G01*
X176913000Y-87325332D01*
G75*
G02*
X177162999Y-87075333I249999J0D01*
G01*
G37*
%TD*%
%TO.C,J2*%
X184845617Y-89356000D03*
X184845617Y-87356000D03*
G36*
G01*
X184220616Y-84756000D02*
X185470618Y-84756000D01*
G75*
G02*
X185720617Y-85005999I0J-249999D01*
G01*
X185720617Y-85706001D01*
G75*
G02*
X185470618Y-85956000I-249999J0D01*
G01*
X184220616Y-85956000D01*
G75*
G02*
X183970617Y-85706001I0J249999D01*
G01*
X183970617Y-85005999D01*
G75*
G02*
X184220616Y-84756000I249999J0D01*
G01*
G37*
%TD*%
%TO.C,J1*%
X184845617Y-96206000D03*
G36*
G01*
X184220616Y-93606000D02*
X185470618Y-93606000D01*
G75*
G02*
X185720617Y-93855999I0J-249999D01*
G01*
X185720617Y-94556001D01*
G75*
G02*
X185470618Y-94806000I-249999J0D01*
G01*
X184220616Y-94806000D01*
G75*
G02*
X183970617Y-94556001I0J249999D01*
G01*
X183970617Y-93855999D01*
G75*
G02*
X184220616Y-93606000I249999J0D01*
G01*
G37*
%TD*%
M02*
