M48
; DRILL file {KiCad (5.1.9)-1} date 05/22/21 23:59:20
; FORMAT={-:-/ absolute / inch / decimal}
; #@! TF.CreationDate,2021-05-22T23:59:20+02:00
; #@! TF.GenerationSoftware,Kicad,Pcbnew,(5.1.9)-1
; #@! TF.FileFunction,Plated,1,2,PTH
FMAT,2
INCH
T1C0.0157
T2C0.0295
T3C0.0354
T4C0.0394
T5C0.0866
%
G90
G05
T1
X3.9681Y-3.0783
X3.9681Y-4.0626
X3.9789Y-3.7673
X3.9839Y-3.3736
X3.9871Y-3.0324
X3.9871Y-3.1243
X3.9871Y-4.0167
X3.9871Y-4.1085
X4.0182Y-3.7673
X4.0232Y-3.3736
X4.0331Y-3.0134
X4.0331Y-3.1433
X4.0331Y-3.9976
X4.0331Y-4.1276
X4.0576Y-3.7673
X4.0626Y-3.3736
X4.079Y-3.0324
X4.079Y-3.1243
X4.079Y-4.0167
X4.079Y-4.1085
X4.097Y-3.7673
X4.098Y-3.0783
X4.098Y-4.0626
X4.102Y-3.3736
X4.1363Y-3.7673
X4.1413Y-3.3736
X4.1494Y-3.5263
X4.1544Y-3.6163
X4.1757Y-3.7673
X4.1807Y-3.3736
X4.2201Y-3.4031
X4.2201Y-3.4425
X4.2201Y-3.4819
X4.2201Y-3.5213
X4.2201Y-3.6197
X4.2201Y-3.6591
X4.2201Y-3.6984
X4.2201Y-3.7378
X4.2594Y-3.5213
X4.2626Y-3.6196
X4.3001Y-3.5246
X4.3026Y-3.6246
X4.3401Y-3.5321
X4.3401Y-3.6434
X4.3726Y-3.6696
X4.3776Y-3.5446
X4.3976Y-3.7021
X4.4076Y-3.5646
X4.4126Y-3.7396
X4.4139Y-3.7796
X4.4144Y-3.8213
X4.4144Y-3.8663
X4.4376Y-3.5896
X4.4676Y-3.6196
X4.4876Y-3.6521
X4.5026Y-3.6896
X4.5151Y-3.7271
X4.5162Y-3.7671
X4.5163Y-3.8096
X4.7007Y-3.3343
X4.8582Y-3.3343
X4.937Y-3.3343
X5.0488Y-3.3736
X5.0748Y-3.2555
X5.6276Y-3.4065
X5.6835Y-3.9605
X6.1335Y-3.7309
X6.5785Y-3.9605
X6.8124Y-4.0006
X6.8635Y-3.3505
X6.8635Y-3.6905
X6.9235Y-3.3505
X6.9235Y-3.6105
X6.9435Y-3.0905
X7.0624Y-4.0006
X7.2358Y-3.0784
X7.2358Y-4.0627
X7.2549Y-3.0325
X7.2549Y-3.1244
X7.2549Y-4.0167
X7.2549Y-4.1086
X7.3008Y-3.0135
X7.3008Y-3.1434
X7.3008Y-3.9977
X7.3008Y-4.1276
X7.3467Y-3.0325
X7.3467Y-3.1244
X7.3467Y-4.0167
X7.3467Y-4.1086
X7.3657Y-3.0784
X7.3657Y-4.0627
T2
X6.7299Y-3.0965
X6.7299Y-3.1465
X6.7299Y-3.1965
X7.0035Y-3.4524
X7.0035Y-3.5312
X7.0035Y-3.6099
X7.0035Y-3.6887
X7.2811Y-3.3278
X7.2811Y-3.4065
X7.2811Y-3.4852
X7.2811Y-3.7346
X7.2811Y-3.8133
T3
X4.1909Y-3.5705
T4
X5.2835Y-3.2705
X5.2835Y-3.5705
X5.2835Y-3.6705
X5.2835Y-3.7705
X5.2835Y-3.8705
X5.3835Y-3.2705
X5.3835Y-3.8705
X5.4835Y-3.2705
X5.4835Y-3.8705
X5.5835Y-3.2705
X5.5835Y-3.8705
X5.6835Y-3.2705
X5.6835Y-3.8705
X5.7835Y-3.2705
X5.7835Y-3.8705
X5.8835Y-3.2705
X5.8835Y-3.8705
X5.9335Y-3.7705
X5.9835Y-3.2705
X5.9835Y-3.8705
X6.0335Y-3.7705
X6.0835Y-3.2705
X6.0835Y-3.8705
X6.1835Y-3.2705
X6.1835Y-3.8705
X6.2835Y-3.2705
X6.2835Y-3.8705
X6.3835Y-3.2705
X6.3835Y-3.8705
T5
X4.0331Y-3.0783
X4.0331Y-4.0626
X7.3008Y-3.0784
X7.3008Y-4.0627
T0
M30
