%TF.GenerationSoftware,KiCad,Pcbnew,7.0.1*%
%TF.CreationDate,2023-03-20T19:36:53+01:00*%
%TF.ProjectId,LoRaProMini,4c6f5261-5072-46f4-9d69-6e692e6b6963,3.2*%
%TF.SameCoordinates,Original*%
%TF.FileFunction,Copper,L1,Top*%
%TF.FilePolarity,Positive*%
%FSLAX46Y46*%
G04 Gerber Fmt 4.6, Leading zero omitted, Abs format (unit mm)*
G04 Created by KiCad (PCBNEW 7.0.1) date 2023-03-20 19:36:53*
%MOMM*%
%LPD*%
G01*
G04 APERTURE LIST*
G04 Aperture macros list*
%AMRoundRect*
0 Rectangle with rounded corners*
0 $1 Rounding radius*
0 $2 $3 $4 $5 $6 $7 $8 $9 X,Y pos of 4 corners*
0 Add a 4 corners polygon primitive as box body*
4,1,4,$2,$3,$4,$5,$6,$7,$8,$9,$2,$3,0*
0 Add four circle primitives for the rounded corners*
1,1,$1+$1,$2,$3*
1,1,$1+$1,$4,$5*
1,1,$1+$1,$6,$7*
1,1,$1+$1,$8,$9*
0 Add four rect primitives between the rounded corners*
20,1,$1+$1,$2,$3,$4,$5,0*
20,1,$1+$1,$4,$5,$6,$7,0*
20,1,$1+$1,$6,$7,$8,$9,0*
20,1,$1+$1,$8,$9,$2,$3,0*%
%AMRotRect*
0 Rectangle, with rotation*
0 The origin of the aperture is its center*
0 $1 length*
0 $2 width*
0 $3 Rotation angle, in degrees counterclockwise*
0 Add horizontal line*
21,1,$1,$2,0,0,$3*%
G04 Aperture macros list end*
%TA.AperFunction,SMDPad,CuDef*%
%ADD10RoundRect,0.250000X-0.337500X-0.475000X0.337500X-0.475000X0.337500X0.475000X-0.337500X0.475000X0*%
%TD*%
%TA.AperFunction,SMDPad,CuDef*%
%ADD11RoundRect,0.150000X-0.587500X-0.150000X0.587500X-0.150000X0.587500X0.150000X-0.587500X0.150000X0*%
%TD*%
%TA.AperFunction,SMDPad,CuDef*%
%ADD12R,3.600000X1.000000*%
%TD*%
%TA.AperFunction,ComponentPad*%
%ADD13C,1.600000*%
%TD*%
%TA.AperFunction,SMDPad,CuDef*%
%ADD14R,6.000000X2.500000*%
%TD*%
%TA.AperFunction,SMDPad,CuDef*%
%ADD15R,2.200000X1.050000*%
%TD*%
%TA.AperFunction,SMDPad,CuDef*%
%ADD16RoundRect,0.250000X0.337500X0.475000X-0.337500X0.475000X-0.337500X-0.475000X0.337500X-0.475000X0*%
%TD*%
%TA.AperFunction,SMDPad,CuDef*%
%ADD17RoundRect,0.250000X0.350000X0.450000X-0.350000X0.450000X-0.350000X-0.450000X0.350000X-0.450000X0*%
%TD*%
%TA.AperFunction,SMDPad,CuDef*%
%ADD18RoundRect,0.250000X-0.350000X-0.450000X0.350000X-0.450000X0.350000X0.450000X-0.350000X0.450000X0*%
%TD*%
%TA.AperFunction,ComponentPad*%
%ADD19RoundRect,0.250000X-0.625000X0.350000X-0.625000X-0.350000X0.625000X-0.350000X0.625000X0.350000X0*%
%TD*%
%TA.AperFunction,ComponentPad*%
%ADD20O,1.750000X1.200000*%
%TD*%
%TA.AperFunction,ComponentPad*%
%ADD21R,1.700000X1.700000*%
%TD*%
%TA.AperFunction,ComponentPad*%
%ADD22O,1.700000X1.700000*%
%TD*%
%TA.AperFunction,SMDPad,CuDef*%
%ADD23R,1.500000X1.500000*%
%TD*%
%TA.AperFunction,SMDPad,CuDef*%
%ADD24RotRect,1.600000X0.550000X225.000000*%
%TD*%
%TA.AperFunction,SMDPad,CuDef*%
%ADD25RotRect,1.600000X0.550000X315.000000*%
%TD*%
%TA.AperFunction,SMDPad,CuDef*%
%ADD26R,0.400000X1.900000*%
%TD*%
%TA.AperFunction,SMDPad,CuDef*%
%ADD27R,1.000000X2.000000*%
%TD*%
%TA.AperFunction,SMDPad,CuDef*%
%ADD28RoundRect,0.250000X0.875000X1.025000X-0.875000X1.025000X-0.875000X-1.025000X0.875000X-1.025000X0*%
%TD*%
%TA.AperFunction,ComponentPad*%
%ADD29C,1.700000*%
%TD*%
%TA.AperFunction,ViaPad*%
%ADD30C,0.800000*%
%TD*%
%TA.AperFunction,Conductor*%
%ADD31C,1.000000*%
%TD*%
%TA.AperFunction,Conductor*%
%ADD32C,0.500000*%
%TD*%
%TA.AperFunction,Conductor*%
%ADD33C,0.250000*%
%TD*%
G04 APERTURE END LIST*
D10*
%TO.P,C1,1*%
%TO.N,+3.3V*%
X129865000Y-98690000D03*
%TO.P,C1,2*%
%TO.N,GND*%
X131940000Y-98690000D03*
%TD*%
%TO.P,C2,1*%
%TO.N,+BATT*%
X153702500Y-82440000D03*
%TO.P,C2,2*%
%TO.N,GND*%
X155777500Y-82440000D03*
%TD*%
D11*
%TO.P,U1,1,GND*%
%TO.N,GND*%
X153802500Y-78440000D03*
%TO.P,U1,2,VO*%
%TO.N,+3.3V*%
X153802500Y-80340000D03*
%TO.P,U1,3,VI*%
%TO.N,+BATT*%
X155677500Y-79390000D03*
%TD*%
D12*
%TO.P,AE1,1,A*%
%TO.N,Net-(AE1-A)*%
X104149000Y-90690000D03*
D13*
X106449000Y-90690000D03*
D14*
%TO.P,AE1,2,Shield*%
%TO.N,GND*%
X103440000Y-93692000D03*
D15*
X103440000Y-92292000D03*
X103440000Y-89092000D03*
D14*
X103440000Y-87692000D03*
%TD*%
D16*
%TO.P,C4,1*%
%TO.N,GND*%
X137977500Y-98690000D03*
%TO.P,C4,2*%
%TO.N,MCU_A0_BAT*%
X135902500Y-98690000D03*
%TD*%
D17*
%TO.P,R1,1*%
%TO.N,MCU_A0_BAT*%
X131940000Y-82690000D03*
%TO.P,R1,2*%
%TO.N,+BATT*%
X129940000Y-82690000D03*
%TD*%
D18*
%TO.P,R2,1*%
%TO.N,GND*%
X129940000Y-84790000D03*
%TO.P,R2,2*%
%TO.N,MCU_A0_BAT*%
X131940000Y-84790000D03*
%TD*%
D17*
%TO.P,R3,1*%
%TO.N,MCU_SCL*%
X143940000Y-96590000D03*
%TO.P,R3,2*%
%TO.N,+3.3V*%
X141940000Y-96590000D03*
%TD*%
D18*
%TO.P,R4,1*%
%TO.N,+3.3V*%
X141940000Y-98690000D03*
%TO.P,R4,2*%
%TO.N,MCU_SDA*%
X143940000Y-98690000D03*
%TD*%
D19*
%TO.P,J2,1,Pin_1*%
%TO.N,+3.3V*%
X167040000Y-92290000D03*
D20*
%TO.P,J2,2,Pin_2*%
%TO.N,1-WIRE*%
X167040000Y-94290000D03*
%TO.P,J2,3,Pin_3*%
%TO.N,GND*%
X167040000Y-96290000D03*
%TD*%
D19*
%TO.P,J1,1,Pin_1*%
%TO.N,+BATT*%
X167040000Y-85090000D03*
D20*
%TO.P,J1,2,Pin_2*%
%TO.N,GND*%
X167040000Y-87090000D03*
%TD*%
D21*
%TO.P,J4,1,Pin_1*%
%TO.N,+3.3V*%
X154440000Y-95770000D03*
D22*
%TO.P,J4,2,Pin_2*%
%TO.N,GND*%
X154440000Y-93230000D03*
%TO.P,J4,3,Pin_3*%
%TO.N,MCU_RXD*%
X154440000Y-90690000D03*
%TO.P,J4,4,Pin_4*%
%TO.N,MCU_TXD*%
X154440000Y-88150000D03*
%TO.P,J4,5,Pin_5*%
%TO.N,MCU_RST*%
X154440000Y-85610000D03*
%TD*%
D16*
%TO.P,C3,1*%
%TO.N,+3.3V*%
X147977500Y-84790000D03*
%TO.P,C3,2*%
%TO.N,GND*%
X145902500Y-84790000D03*
%TD*%
%TO.P,C6,1*%
%TO.N,/AREF*%
X131940000Y-96590000D03*
%TO.P,C6,2*%
%TO.N,GND*%
X129865000Y-96590000D03*
%TD*%
%TO.P,C7,1*%
%TO.N,MCU_RST*%
X147977500Y-98690000D03*
%TO.P,C7,2*%
%TO.N,/RESET*%
X145902500Y-98690000D03*
%TD*%
D18*
%TO.P,R6,1*%
%TO.N,/RESET*%
X145940000Y-96590000D03*
%TO.P,R6,2*%
%TO.N,+3.3V*%
X147940000Y-96590000D03*
%TD*%
D23*
%TO.P,SW1,1,1*%
%TO.N,/RESET*%
X145940000Y-94590000D03*
%TO.P,SW1,2,2*%
%TO.N,GND*%
X145940000Y-86790000D03*
%TD*%
D24*
%TO.P,U4,1,PD3*%
%TO.N,MCU_D3*%
X141925103Y-89664695D03*
%TO.P,U4,2,PD4*%
%TO.N,MCU_D4*%
X141359417Y-89099010D03*
%TO.P,U4,3,GND*%
%TO.N,GND*%
X140793732Y-88533324D03*
%TO.P,U4,4,VCC*%
%TO.N,+3.3V*%
X140228047Y-87967639D03*
%TO.P,U4,5,GND*%
%TO.N,GND*%
X139662361Y-87401953D03*
%TO.P,U4,6,VCC*%
%TO.N,+3.3V*%
X139096676Y-86836268D03*
%TO.P,U4,7,XTAL1/PB6*%
%TO.N,XTAL1*%
X138530990Y-86270583D03*
%TO.P,U4,8,XTAL2/PB7*%
%TO.N,XTAL2*%
X137965305Y-85704897D03*
D25*
%TO.P,U4,9,PD5*%
%TO.N,MCU_D5*%
X135914695Y-85704897D03*
%TO.P,U4,10,PD6*%
%TO.N,1-WIRE*%
X135349010Y-86270583D03*
%TO.P,U4,11,PD7*%
%TO.N,LORA_DIO1*%
X134783324Y-86836268D03*
%TO.P,U4,12,PB0*%
%TO.N,LORA_DIO0*%
X134217639Y-87401953D03*
%TO.P,U4,13,PB1*%
%TO.N,LORA_RST*%
X133651953Y-87967639D03*
%TO.P,U4,14,PB2*%
%TO.N,SPI_CS_LORA*%
X133086268Y-88533324D03*
%TO.P,U4,15,PB3*%
%TO.N,SPI_MOSI*%
X132520583Y-89099010D03*
%TO.P,U4,16,PB4*%
%TO.N,SPI_MISO*%
X131954897Y-89664695D03*
D24*
%TO.P,U4,17,PB5*%
%TO.N,SPI_SCK*%
X131954897Y-91715305D03*
%TO.P,U4,18,AVCC*%
%TO.N,+3.3V*%
X132520583Y-92280990D03*
%TO.P,U4,19,ADC6*%
%TO.N,MCU_A6*%
X133086268Y-92846676D03*
%TO.P,U4,20,AREF*%
%TO.N,/AREF*%
X133651953Y-93412361D03*
%TO.P,U4,21,GND*%
%TO.N,GND*%
X134217639Y-93978047D03*
%TO.P,U4,22,ADC7*%
%TO.N,MCU_A7*%
X134783324Y-94543732D03*
%TO.P,U4,23,PC0*%
%TO.N,MCU_A0_BAT*%
X135349010Y-95109417D03*
%TO.P,U4,24,PC1*%
%TO.N,MCU_A1*%
X135914695Y-95675103D03*
D25*
%TO.P,U4,25,PC2*%
%TO.N,MCU_A2*%
X137965305Y-95675103D03*
%TO.P,U4,26,PC3*%
%TO.N,MCU_A3*%
X138530990Y-95109417D03*
%TO.P,U4,27,PC4*%
%TO.N,MCU_SDA*%
X139096676Y-94543732D03*
%TO.P,U4,28,PC5*%
%TO.N,MCU_SCL*%
X139662361Y-93978047D03*
%TO.P,U4,29,~{RESET}/PC6*%
%TO.N,/RESET*%
X140228047Y-93412361D03*
%TO.P,U4,30,PD0*%
%TO.N,MCU_RXD*%
X140793732Y-92846676D03*
%TO.P,U4,31,PD1*%
%TO.N,MCU_TXD*%
X141359417Y-92280990D03*
%TO.P,U4,32,PD2*%
%TO.N,MCU_D2_LORA_DIO2*%
X141925103Y-91715305D03*
%TD*%
D26*
%TO.P,Y1,1,1*%
%TO.N,XTAL1*%
X138140000Y-82990000D03*
%TO.P,Y1,2,2*%
%TO.N,GND*%
X136940000Y-82990000D03*
%TO.P,Y1,3,3*%
%TO.N,XTAL2*%
X135740000Y-82990000D03*
%TD*%
D19*
%TO.P,J7,1,Pin_1*%
%TO.N,+3.3V*%
X160040000Y-99190000D03*
D20*
%TO.P,J7,2,Pin_2*%
%TO.N,MCU_D2_LORA_DIO2*%
X160040000Y-101190000D03*
%TD*%
D27*
%TO.P,U2,1,GND*%
%TO.N,GND*%
X127399000Y-82690000D03*
%TO.P,U2,2,MISO*%
%TO.N,SPI_MISO*%
X125399000Y-82690000D03*
%TO.P,U2,3,MOSI*%
%TO.N,SPI_MOSI*%
X123399000Y-82690000D03*
%TO.P,U2,4,SCK*%
%TO.N,SPI_SCK*%
X121399000Y-82690000D03*
%TO.P,U2,5,NSS*%
%TO.N,SPI_CS_LORA*%
X119399000Y-82690000D03*
%TO.P,U2,6,RESET*%
%TO.N,LORA_RST*%
X117399000Y-82690000D03*
%TO.P,U2,7,DIO5*%
%TO.N,unconnected-(U2-DIO5-Pad7)*%
X115399000Y-82690000D03*
%TO.P,U2,8,GND*%
%TO.N,GND*%
X113399000Y-82690000D03*
%TO.P,U2,9,ANT*%
%TO.N,Net-(AE1-A)*%
X113399000Y-98690000D03*
%TO.P,U2,10,GND*%
%TO.N,GND*%
X115399000Y-98690000D03*
%TO.P,U2,11,DIO3*%
%TO.N,unconnected-(U2-DIO3-Pad11)*%
X117399000Y-98690000D03*
%TO.P,U2,12,DIO4*%
%TO.N,unconnected-(U2-DIO4-Pad12)*%
X119399000Y-98690000D03*
%TO.P,U2,13,3.3V*%
%TO.N,+3.3V*%
X121399000Y-98690000D03*
%TO.P,U2,14,DIO0*%
%TO.N,LORA_DIO0*%
X123399000Y-98690000D03*
%TO.P,U2,15,DIO1*%
%TO.N,LORA_DIO1*%
X125399000Y-98690000D03*
%TO.P,U2,16,DIO2*%
%TO.N,Net-(JP1-A)*%
X127399000Y-98690000D03*
%TD*%
D17*
%TO.P,R8,1*%
%TO.N,MCU_D3*%
X155190000Y-99690000D03*
%TO.P,R8,2*%
%TO.N,GND*%
X153190000Y-99690000D03*
%TD*%
D28*
%TO.P,C5,1*%
%TO.N,+3.3V*%
X151340000Y-80090000D03*
%TO.P,C5,2*%
%TO.N,GND*%
X144940000Y-80090000D03*
%TD*%
D19*
%TO.P,J8,1,Pin_1*%
%TO.N,+3.3V*%
X160040000Y-91690000D03*
D20*
%TO.P,J8,2,Pin_2*%
%TO.N,MCU_D3*%
X160040000Y-93690000D03*
%TD*%
D18*
%TO.P,R5,1*%
%TO.N,1-WIRE*%
X141940000Y-84790000D03*
%TO.P,R5,2*%
%TO.N,+3.3V*%
X143940000Y-84790000D03*
%TD*%
D29*
%TO.P,J5,1,Pin_1*%
%TO.N,MCU_D3*%
X131440000Y-79190000D03*
D22*
%TO.P,J5,2,Pin_2*%
%TO.N,MCU_D4*%
X133980000Y-79190000D03*
%TO.P,J5,3,Pin_3*%
%TO.N,MCU_D5*%
X136520000Y-79190000D03*
%TO.P,J5,4,Pin_4*%
%TO.N,+3.3V*%
X139060000Y-79190000D03*
%TO.P,J5,5,Pin_5*%
%TO.N,GND*%
X141600000Y-79190000D03*
%TD*%
D29*
%TO.P,J6,1,Pin_1*%
%TO.N,MCU_A1*%
X131440000Y-102190000D03*
D22*
%TO.P,J6,2,Pin_2*%
%TO.N,MCU_A2*%
X133980000Y-102190000D03*
%TO.P,J6,3,Pin_3*%
%TO.N,MCU_A3*%
X136520000Y-102190000D03*
%TO.P,J6,4,Pin_4*%
%TO.N,MCU_A6*%
X139060000Y-102190000D03*
%TO.P,J6,5,Pin_5*%
%TO.N,MCU_A7*%
X141600000Y-102190000D03*
%TO.P,J6,6,Pin_6*%
%TO.N,MCU_RST*%
X144140000Y-102190000D03*
%TO.P,J6,7,Pin_7*%
%TO.N,+3.3V*%
X146680000Y-102190000D03*
%TO.P,J6,8,Pin_8*%
%TO.N,GND*%
X149220000Y-102190000D03*
%TD*%
D17*
%TO.P,R7,1*%
%TO.N,MCU_D2_LORA_DIO2*%
X155190000Y-101690000D03*
%TO.P,R7,2*%
%TO.N,GND*%
X153190000Y-101690000D03*
%TD*%
D19*
%TO.P,J3,1,Pin_1*%
%TO.N,+3.3V*%
X160040000Y-80190000D03*
D20*
%TO.P,J3,2,Pin_2*%
%TO.N,GND*%
X160040000Y-82190000D03*
%TO.P,J3,3,Pin_3*%
%TO.N,MCU_SCL*%
X160040000Y-84190000D03*
%TO.P,J3,4,Pin_4*%
%TO.N,MCU_SDA*%
X160040000Y-86190000D03*
%TD*%
D30*
%TO.N,GND*%
X157340000Y-81390000D03*
X147240000Y-100370000D03*
X113399000Y-84690000D03*
X113440000Y-92070000D03*
X160040000Y-96490000D03*
X133240000Y-82470000D03*
X152640000Y-85290000D03*
X149940000Y-85990000D03*
X112040000Y-90670000D03*
X140140000Y-82590000D03*
X111540000Y-93570000D03*
X137740000Y-100990000D03*
X112140000Y-97070000D03*
X137740000Y-92470000D03*
X112140000Y-97970000D03*
X156440000Y-85590000D03*
X114640000Y-95670000D03*
X110140000Y-92370000D03*
X160040000Y-88970000D03*
X137840000Y-87670000D03*
X158190000Y-92940000D03*
X112840000Y-91370000D03*
X129940000Y-80690000D03*
X108340000Y-91970000D03*
X112840000Y-100470000D03*
X112140000Y-96170000D03*
X107440000Y-91970000D03*
X110940000Y-92870000D03*
X107440000Y-89470000D03*
X142840000Y-100970000D03*
X140340000Y-100970000D03*
X112140000Y-98870000D03*
X149940000Y-84190000D03*
X109340000Y-89570000D03*
X114340000Y-93770000D03*
X113940000Y-92870000D03*
X132740000Y-80770000D03*
X109240000Y-92070000D03*
X148240000Y-80070000D03*
X114540000Y-94770000D03*
X108440000Y-89470000D03*
X103440000Y-85470000D03*
X140140000Y-97690000D03*
X103440000Y-95870000D03*
X110340000Y-89770000D03*
X113740000Y-100470000D03*
X111240000Y-90170000D03*
X112140000Y-99770000D03*
X127340000Y-84690000D03*
X156640000Y-102590000D03*
X112140000Y-95270000D03*
X111940000Y-94370000D03*
X137440000Y-84690000D03*
X114640000Y-96670000D03*
X135240000Y-93070000D03*
%TO.N,+3.3V*%
X144940000Y-99890000D03*
%TO.N,+BATT*%
X150240000Y-82590000D03*
X152340000Y-82590000D03*
%TO.N,1-WIRE*%
X138040000Y-89170000D03*
X141940000Y-83290000D03*
%TO.N,MCU_SDA*%
X143940000Y-99890000D03*
%TO.N,MCU_SCL*%
X143940000Y-95390000D03*
%TO.N,LORA_DIO1*%
X134040000Y-91370000D03*
X125399000Y-96690000D03*
%TO.N,LORA_DIO0*%
X133340000Y-90490000D03*
X123399000Y-96690000D03*
%TO.N,LORA_RST*%
X117399000Y-86290000D03*
X126740000Y-86290000D03*
%TO.N,SPI_CS_LORA*%
X119399000Y-87290000D03*
X126740000Y-87290000D03*
%TO.N,SPI_MOSI*%
X123399000Y-88290000D03*
X126740000Y-88290000D03*
%TO.N,Net-(JP1-A)*%
X127399000Y-96690000D03*
%TO.N,MCU_D5*%
X134740000Y-84590000D03*
%TO.N,MCU_D4*%
X138040000Y-90270000D03*
%TO.N,MCU_D3*%
X143040000Y-88570000D03*
X156124999Y-86974999D03*
%TO.N,MCU_A6*%
X133440000Y-95490000D03*
X131940000Y-93990000D03*
%TO.N,MCU_A3*%
X139640000Y-96190000D03*
%TO.N,MCU_A2*%
X137440000Y-96690000D03*
%TO.N,MCU_A1*%
X136440000Y-96690000D03*
%TO.N,MCU_A0_BAT*%
X133140000Y-83690000D03*
X136140000Y-88270000D03*
%TO.N,MCU_RST*%
X149640000Y-97490000D03*
X152640000Y-95190000D03*
%TO.N,MCU_TXD*%
X145840000Y-88150000D03*
%TO.N,MCU_RXD*%
X145840000Y-90690000D03*
%TO.N,MCU_D2_LORA_DIO2*%
X142940000Y-90690000D03*
X155675001Y-89325001D03*
X158040000Y-94090000D03*
%TD*%
D31*
%TO.N,Net-(AE1-A)*%
X113399000Y-95690000D02*
X113399000Y-98690000D01*
X113374923Y-95199914D02*
X113399000Y-95690000D01*
X108889085Y-90714076D02*
X109374451Y-90786073D01*
X112556348Y-92912148D02*
X112808606Y-93333016D01*
X113183701Y-94238576D02*
X113302926Y-94714548D01*
X112808606Y-93333016D02*
X113018397Y-93776582D01*
X108399000Y-90690000D02*
X106449000Y-90690000D01*
X109374451Y-90786073D02*
X109850423Y-90905298D01*
X112264052Y-92518033D02*
X112556348Y-92912148D01*
X108399000Y-90690000D02*
X108889085Y-90714076D01*
X109850423Y-90905298D02*
X110312417Y-91070602D01*
X110755983Y-91280393D02*
X111176851Y-91532651D01*
X111934533Y-92154466D02*
X112264052Y-92518033D01*
X113018397Y-93776582D02*
X113183701Y-94238576D01*
X113302926Y-94714548D02*
X113374923Y-95199914D01*
X110312417Y-91070602D02*
X110755983Y-91280393D01*
X111570966Y-91824947D02*
X111934533Y-92154466D01*
X111176851Y-91532651D02*
X111570966Y-91824947D01*
%TO.N,GND*%
X103440000Y-87692000D02*
X103440000Y-85470000D01*
X103440000Y-93692000D02*
X103440000Y-95870000D01*
D32*
X159840000Y-82190000D02*
X156440000Y-85590000D01*
X160040000Y-82190000D02*
X159820000Y-82190000D01*
X160040000Y-82190000D02*
X159840000Y-82190000D01*
D33*
X135240000Y-93070000D02*
X135125686Y-93070000D01*
D32*
%TO.N,+3.3V*%
X146760000Y-102110000D02*
X151340000Y-97530000D01*
X146680000Y-102190000D02*
X145379999Y-103490001D01*
D33*
X130777510Y-97777490D02*
X130777510Y-94024063D01*
D32*
X139060000Y-79190000D02*
X140360001Y-77889999D01*
X159890000Y-80340000D02*
X160040000Y-80190000D01*
D33*
X144940000Y-99890000D02*
X144940000Y-98026830D01*
D32*
X151340000Y-96590000D02*
X153620000Y-96590000D01*
X141940000Y-86270000D02*
X142460000Y-86270000D01*
X145379999Y-103490001D02*
X151340000Y-97530000D01*
D33*
X144528180Y-97615010D02*
X141965010Y-97615010D01*
D32*
X147980001Y-103490001D02*
X159499937Y-103490001D01*
X149139999Y-77889999D02*
X151590000Y-80340000D01*
X130240001Y-103490001D02*
X128840000Y-102090000D01*
X122349001Y-100140001D02*
X128689999Y-100140001D01*
D33*
X139156505Y-88487103D02*
X138577211Y-87907809D01*
D32*
X146680000Y-102190000D02*
X147980001Y-103490001D01*
D33*
X144940000Y-98026830D02*
X144528180Y-97615010D01*
D32*
X128840000Y-102090000D02*
X128840000Y-99990000D01*
X121399000Y-99190000D02*
X122349001Y-100140001D01*
X151340000Y-96590000D02*
X151340000Y-80090000D01*
X161960000Y-80190000D02*
X163760000Y-81990000D01*
X151340000Y-84090000D02*
X156380062Y-84090000D01*
D33*
X139708583Y-88487103D02*
X139156505Y-88487103D01*
X141940000Y-97590000D02*
X141965010Y-97615010D01*
D32*
X163760000Y-91690000D02*
X163760000Y-95470000D01*
D33*
X141940000Y-98690000D02*
X141940000Y-97590000D01*
D32*
X160040000Y-80190000D02*
X161960000Y-80190000D01*
X159499937Y-103490001D02*
X161365010Y-101624928D01*
X128840000Y-99715000D02*
X129865000Y-98690000D01*
X161365010Y-101624928D02*
X161365010Y-100515010D01*
X121399000Y-98690000D02*
X121399000Y-99190000D01*
X128840000Y-102090000D02*
X128840000Y-99715000D01*
D33*
X141940000Y-98690000D02*
X141940000Y-96590000D01*
D32*
X160040000Y-91690000D02*
X166440000Y-91690000D01*
X140242361Y-87967639D02*
X141940000Y-86270000D01*
X160040000Y-80430062D02*
X160040000Y-80190000D01*
X146802490Y-83614990D02*
X148227501Y-85040001D01*
X166440000Y-91690000D02*
X167040000Y-92290000D01*
X151340000Y-97530000D02*
X151340000Y-96590000D01*
X142460000Y-86270000D02*
X145115010Y-83614990D01*
X161365010Y-100515010D02*
X160040000Y-99190000D01*
X156380062Y-84090000D02*
X160040000Y-80430062D01*
X153740000Y-80340000D02*
X151590000Y-80340000D01*
D33*
X138577211Y-87907809D02*
X138577211Y-87355733D01*
D32*
X145379999Y-103490001D02*
X130240001Y-103490001D01*
X163760000Y-95470000D02*
X160040000Y-99190000D01*
X151340000Y-95890000D02*
X151340000Y-85190000D01*
X151190001Y-85040001D02*
X151340000Y-85190000D01*
X140228047Y-87967639D02*
X140242361Y-87967639D01*
X151340000Y-96590000D02*
X151340000Y-95890000D01*
D33*
X129865000Y-98690000D02*
X130777510Y-97777490D01*
X130777510Y-94024063D02*
X132520583Y-92280990D01*
D32*
X147977500Y-84790000D02*
X148227501Y-85040001D01*
X148227501Y-85040001D02*
X151190001Y-85040001D01*
X128689999Y-100140001D02*
X128840000Y-99990000D01*
D33*
X147940000Y-96590000D02*
X151340000Y-96590000D01*
D32*
X163760000Y-81990000D02*
X163760000Y-95470000D01*
D33*
X138577211Y-87355733D02*
X139096676Y-86836268D01*
D32*
X149139999Y-77889999D02*
X151340000Y-80090000D01*
X146802490Y-83614990D02*
X145115010Y-83614990D01*
X163760000Y-91690000D02*
X166440000Y-91690000D01*
X151340000Y-84090000D02*
X151340000Y-80090000D01*
X153620000Y-96590000D02*
X154440000Y-95770000D01*
X142460000Y-86270000D02*
X143940000Y-84790000D01*
X140360001Y-77889999D02*
X149139999Y-77889999D01*
D33*
%TO.N,+BATT*%
X130965010Y-81664990D02*
X143614990Y-81664990D01*
D32*
X155740000Y-80402500D02*
X155740000Y-79390000D01*
D33*
X152340000Y-82590000D02*
X153552500Y-82590000D01*
D32*
X167040000Y-83390000D02*
X162789990Y-79139990D01*
D33*
X129940000Y-82690000D02*
X130965010Y-81664990D01*
D32*
X155990010Y-79139990D02*
X155740000Y-79390000D01*
X162789990Y-79139990D02*
X155990010Y-79139990D01*
X167040000Y-85090000D02*
X167040000Y-83390000D01*
D33*
X144540000Y-82590000D02*
X150240000Y-82590000D01*
X153552500Y-82590000D02*
X153702500Y-82440000D01*
X143614990Y-81664990D02*
X144540000Y-82590000D01*
D32*
X153702500Y-82440000D02*
X155740000Y-80402500D01*
D33*
%TO.N,1-WIRE*%
X138040000Y-89170000D02*
X137564990Y-88694990D01*
X137564990Y-88486563D02*
X135349010Y-86270583D01*
X137564990Y-88694990D02*
X137564990Y-88486563D01*
X141940000Y-84790000D02*
X141940000Y-83290000D01*
%TO.N,MCU_SDA*%
X141014990Y-96462046D02*
X141014990Y-99378180D01*
X139096676Y-94543732D02*
X141014990Y-96462046D01*
X143940000Y-99890000D02*
X143940000Y-98690000D01*
X141526810Y-99890000D02*
X143940000Y-99890000D01*
X141014990Y-99378180D02*
X141526810Y-99890000D01*
%TO.N,MCU_SCL*%
X143590010Y-95040010D02*
X143940000Y-95390000D01*
X140724324Y-95040010D02*
X143590010Y-95040010D01*
X143940000Y-96590000D02*
X143940000Y-95390000D01*
X139662361Y-93978047D02*
X140724324Y-95040010D01*
%TO.N,LORA_DIO1*%
X134040000Y-91370000D02*
X135302789Y-90107211D01*
X125399000Y-96690000D02*
X125399000Y-98690000D01*
X135302789Y-87355733D02*
X134783324Y-86836268D01*
X135302789Y-90107211D02*
X135302789Y-87355733D01*
%TO.N,LORA_DIO0*%
X123399000Y-98690000D02*
X123399000Y-96690000D01*
X134217639Y-87401953D02*
X134737103Y-87921417D01*
X134737103Y-89092897D02*
X133340000Y-90490000D01*
X134737103Y-87921417D02*
X134737103Y-89092897D01*
%TO.N,LORA_RST*%
X117399000Y-86290000D02*
X117399000Y-82690000D01*
X131974314Y-86290000D02*
X133651953Y-87967639D01*
X126740000Y-86290000D02*
X131974314Y-86290000D01*
%TO.N,SPI_CS_LORA*%
X131842944Y-87290000D02*
X133086268Y-88533324D01*
X119399000Y-87290000D02*
X119399000Y-82690000D01*
X126740000Y-87290000D02*
X131842944Y-87290000D01*
%TO.N,SPI_SCK*%
X121399000Y-87549000D02*
X125565305Y-91715305D01*
X125565305Y-91715305D02*
X131954897Y-91715305D01*
X121399000Y-82690000D02*
X121399000Y-87549000D01*
%TO.N,SPI_MOSI*%
X131711573Y-88290000D02*
X132520583Y-89099010D01*
X123399000Y-88290000D02*
X123399000Y-82690000D01*
X126740000Y-88290000D02*
X131711573Y-88290000D01*
%TO.N,SPI_MISO*%
X125399000Y-82690000D02*
X125399000Y-88249000D01*
X125399000Y-88249000D02*
X126165001Y-89015001D01*
X126165001Y-89015001D02*
X131305203Y-89015001D01*
X131305203Y-89015001D02*
X131954897Y-89664695D01*
%TO.N,Net-(JP1-A)*%
X127399000Y-96690000D02*
X127399000Y-98690000D01*
%TO.N,/RESET*%
X145940000Y-98652500D02*
X145902500Y-98690000D01*
X145940000Y-94590000D02*
X141405686Y-94590000D01*
X145940000Y-96590000D02*
X145940000Y-98652500D01*
X141405686Y-94590000D02*
X140228047Y-93412361D01*
X145940000Y-94590000D02*
X145940000Y-96590000D01*
%TO.N,XTAL2*%
X135740000Y-82990000D02*
X135740000Y-84190000D01*
X135740000Y-84190000D02*
X137254897Y-85704897D01*
X137254897Y-85704897D02*
X137965305Y-85704897D01*
%TO.N,XTAL1*%
X139050455Y-85751118D02*
X138530990Y-86270583D01*
X138140000Y-82990000D02*
X139050455Y-83900455D01*
X139050455Y-83900455D02*
X139050455Y-85751118D01*
%TO.N,/AREF*%
X131940000Y-96590000D02*
X131940000Y-95124314D01*
X131940000Y-95124314D02*
X133651953Y-93412361D01*
%TO.N,MCU_D5*%
X135854897Y-85704897D02*
X134740000Y-84590000D01*
X135914695Y-85704897D02*
X135854897Y-85704897D01*
%TO.N,MCU_D4*%
X138040000Y-90270000D02*
X140188427Y-90270000D01*
X140188427Y-90270000D02*
X141359417Y-89099010D01*
%TO.N,MCU_D3*%
X155190000Y-98540000D02*
X160040000Y-93690000D01*
X156524998Y-87374998D02*
X156524998Y-90174998D01*
X143040000Y-88570000D02*
X143019798Y-88570000D01*
X156524998Y-90174998D02*
X160040000Y-93690000D01*
X143019798Y-88570000D02*
X141925103Y-89664695D01*
X155190000Y-99690000D02*
X155190000Y-98540000D01*
X156124999Y-86974999D02*
X156524998Y-87374998D01*
%TO.N,MCU_A7*%
X134263860Y-98677050D02*
X134263860Y-95063196D01*
X141600000Y-102190000D02*
X141600000Y-100750000D01*
X135326820Y-99740010D02*
X134263860Y-98677050D01*
X140590010Y-99740010D02*
X135326820Y-99740010D01*
X134263860Y-95063196D02*
X134783324Y-94543732D01*
X141600000Y-100750000D02*
X140590010Y-99740010D01*
%TO.N,MCU_A6*%
X135140420Y-100190020D02*
X138440020Y-100190020D01*
X131940000Y-93990000D02*
X131942944Y-93990000D01*
X133440000Y-98489600D02*
X135140420Y-100190020D01*
X139060000Y-100810000D02*
X139060000Y-102190000D01*
X138440020Y-100190020D02*
X139060000Y-100810000D01*
X133440000Y-95490000D02*
X133440000Y-98489600D01*
X131942944Y-93990000D02*
X133086268Y-92846676D01*
%TO.N,MCU_A3*%
X139640000Y-96190000D02*
X139611573Y-96190000D01*
X139611573Y-96190000D02*
X138530990Y-95109417D01*
%TO.N,MCU_A2*%
X137965305Y-95675103D02*
X137965305Y-96164695D01*
X137965305Y-96164695D02*
X137440000Y-96690000D01*
%TO.N,MCU_A1*%
X135914695Y-95675103D02*
X135914695Y-96164695D01*
X135914695Y-96164695D02*
X136440000Y-96690000D01*
%TO.N,MCU_A0_BAT*%
X131940000Y-84690000D02*
X131940000Y-84790000D01*
X134829545Y-97617045D02*
X135902500Y-98690000D01*
X131940000Y-82690000D02*
X131940000Y-83690000D01*
X136140000Y-88270000D02*
X136140000Y-94318427D01*
X134829545Y-95628882D02*
X134829545Y-97617045D01*
X136140000Y-94318427D02*
X135349010Y-95109417D01*
X135349010Y-95109417D02*
X134829545Y-95628882D01*
X133140000Y-83690000D02*
X131940000Y-83690000D01*
X131940000Y-83690000D02*
X131940000Y-84690000D01*
%TO.N,MCU_RST*%
X152640000Y-95190000D02*
X152640000Y-87410000D01*
X147640000Y-98690000D02*
X147977500Y-98690000D01*
X152640000Y-87410000D02*
X154440000Y-85610000D01*
X147977500Y-98690000D02*
X148440000Y-98690000D01*
X144140000Y-102190000D02*
X147640000Y-98690000D01*
X148440000Y-98690000D02*
X149640000Y-97490000D01*
%TO.N,MCU_TXD*%
X145114999Y-90116415D02*
X142430959Y-92800455D01*
X145840000Y-88150000D02*
X145114999Y-88875001D01*
X145114999Y-88875001D02*
X145114999Y-90116415D01*
X141878882Y-92800455D02*
X141359417Y-92280990D01*
X142430959Y-92800455D02*
X141878882Y-92800455D01*
%TO.N,MCU_RXD*%
X143163860Y-93366140D02*
X141313196Y-93366140D01*
X145840000Y-90690000D02*
X143163860Y-93366140D01*
X141313196Y-93366140D02*
X140793732Y-92846676D01*
%TO.N,MCU_D2_LORA_DIO2*%
X157540000Y-101690000D02*
X155190000Y-101690000D01*
X158040000Y-101190000D02*
X157540000Y-101690000D01*
X155675001Y-91725001D02*
X158040000Y-94090000D01*
X155675001Y-89325001D02*
X155675001Y-91725001D01*
X142940000Y-90700408D02*
X141925103Y-91715305D01*
X160040000Y-101190000D02*
X158040000Y-101190000D01*
%TD*%
%TA.AperFunction,Conductor*%
%TO.N,Net-(AE1-A)*%
G36*
X106061307Y-89998829D02*
G01*
X106279896Y-90190633D01*
X106849000Y-90690000D01*
X106430688Y-91057052D01*
X106430687Y-91057052D01*
X106061309Y-91381169D01*
X106055016Y-91383988D01*
X106048230Y-91382774D01*
X105937602Y-91325725D01*
X105823467Y-91278766D01*
X105709736Y-91243815D01*
X105609537Y-91222595D01*
X105593257Y-91219148D01*
X105470846Y-91203025D01*
X105459027Y-91202188D01*
X105339336Y-91193716D01*
X105195575Y-91189493D01*
X105142503Y-91189201D01*
X105036370Y-91188620D01*
X105036365Y-91188620D01*
X105036362Y-91188620D01*
X104858569Y-91189366D01*
X104858557Y-91189366D01*
X104836509Y-91189436D01*
X104670735Y-91189962D01*
X104664871Y-91188408D01*
X104660574Y-91184124D01*
X104659000Y-91178263D01*
X104659000Y-90201737D01*
X104660574Y-90195876D01*
X104664871Y-90191592D01*
X104670736Y-90190037D01*
X104858559Y-90190632D01*
X104858568Y-90190636D01*
X104858569Y-90190633D01*
X105036370Y-90191379D01*
X105195571Y-90190506D01*
X105339340Y-90186282D01*
X105470846Y-90176974D01*
X105593257Y-90160851D01*
X105709741Y-90136182D01*
X105823466Y-90101233D01*
X105937602Y-90054274D01*
X106048233Y-89997224D01*
X106055016Y-89996011D01*
X106061307Y-89998829D01*
G37*
%TD.AperFunction*%
%TD*%
%TA.AperFunction,Conductor*%
%TO.N,Net-(AE1-A)*%
G36*
X106804931Y-89973269D02*
G01*
X106887173Y-90010501D01*
X106946578Y-90037395D01*
X107084203Y-90089647D01*
X107215409Y-90128651D01*
X107291510Y-90144887D01*
X107345003Y-90156301D01*
X107345007Y-90156301D01*
X107345014Y-90156303D01*
X107477840Y-90174499D01*
X107618707Y-90185135D01*
X107772435Y-90190107D01*
X107943847Y-90191311D01*
X108137761Y-90190643D01*
X108347266Y-90190034D01*
X108353130Y-90191590D01*
X108357427Y-90195874D01*
X108359000Y-90201734D01*
X108359000Y-91178266D01*
X108357427Y-91184126D01*
X108353130Y-91188410D01*
X108347266Y-91189965D01*
X108137761Y-91189356D01*
X108137760Y-91189355D01*
X107943867Y-91188688D01*
X107943860Y-91188688D01*
X107943847Y-91188688D01*
X107816875Y-91189579D01*
X107772428Y-91189892D01*
X107618709Y-91194863D01*
X107477840Y-91205500D01*
X107345003Y-91223697D01*
X107215416Y-91251346D01*
X107084199Y-91290352D01*
X106946582Y-91342601D01*
X106804931Y-91406730D01*
X106798122Y-91407602D01*
X106791996Y-91404504D01*
X106673292Y-91290352D01*
X106049000Y-90690000D01*
X106791997Y-89975494D01*
X106798122Y-89972397D01*
X106804931Y-89973269D01*
G37*
%TD.AperFunction*%
%TD*%
%TA.AperFunction,Conductor*%
%TO.N,GND*%
G36*
X161769335Y-80712806D02*
G01*
X163237194Y-82180665D01*
X163255500Y-82224859D01*
X163255500Y-91123000D01*
X163237194Y-91167194D01*
X163193000Y-91185500D01*
X161189218Y-91185500D01*
X161153573Y-91174339D01*
X161130659Y-91144842D01*
X161129916Y-91142851D01*
X161112342Y-91095733D01*
X161075604Y-91046656D01*
X161025404Y-90979595D01*
X160909267Y-90892658D01*
X160773342Y-90841959D01*
X160719086Y-90836127D01*
X160713254Y-90835500D01*
X159366745Y-90835500D01*
X159306657Y-90841960D01*
X159170732Y-90892658D01*
X159054595Y-90979595D01*
X158967658Y-91095732D01*
X158916959Y-91231657D01*
X158910500Y-91291746D01*
X158910500Y-91872918D01*
X158892194Y-91917112D01*
X158848000Y-91935418D01*
X158803806Y-91917112D01*
X156922804Y-90036110D01*
X156904498Y-89991916D01*
X156904498Y-87420840D01*
X156905828Y-87408014D01*
X156906939Y-87402714D01*
X156909417Y-87390898D01*
X156904977Y-87355287D01*
X156904498Y-87347557D01*
X156904498Y-87343556D01*
X156902395Y-87330955D01*
X156900823Y-87321538D01*
X156900455Y-87319008D01*
X156898632Y-87304380D01*
X156893750Y-87265215D01*
X156893749Y-87265213D01*
X156893646Y-87264386D01*
X156889297Y-87250809D01*
X156880461Y-87234482D01*
X156863111Y-87202421D01*
X156861947Y-87200162D01*
X156838124Y-87151430D01*
X156838122Y-87151428D01*
X156837756Y-87150679D01*
X156829235Y-87139251D01*
X156801612Y-87113822D01*
X156794459Y-87107237D01*
X156778144Y-87082860D01*
X156774747Y-87053722D01*
X156775746Y-87045500D01*
X156784306Y-86974999D01*
X156782695Y-86961735D01*
X156765148Y-86817216D01*
X156708787Y-86668606D01*
X156704721Y-86662716D01*
X156618497Y-86537798D01*
X156618496Y-86537796D01*
X156499528Y-86432400D01*
X156358793Y-86358535D01*
X156204470Y-86320499D01*
X156045528Y-86320499D01*
X155891204Y-86358535D01*
X155750469Y-86432400D01*
X155631501Y-86537796D01*
X155541210Y-86668606D01*
X155484849Y-86817216D01*
X155465691Y-86974999D01*
X155484849Y-87132781D01*
X155541210Y-87281391D01*
X155631501Y-87412201D01*
X155725527Y-87495500D01*
X155750470Y-87517598D01*
X155793153Y-87540000D01*
X155891204Y-87591462D01*
X156045528Y-87629499D01*
X156082998Y-87629499D01*
X156127192Y-87647805D01*
X156145498Y-87691999D01*
X156145498Y-88729382D01*
X156131411Y-88768910D01*
X156095500Y-88790619D01*
X156053953Y-88784723D01*
X155908795Y-88708537D01*
X155754472Y-88670501D01*
X155595530Y-88670501D01*
X155520453Y-88689005D01*
X155474631Y-88682668D01*
X155445717Y-88646560D01*
X155449548Y-88600464D01*
X155474328Y-88550701D01*
X155530345Y-88353821D01*
X155549232Y-88150000D01*
X155530345Y-87946179D01*
X155474328Y-87749299D01*
X155383088Y-87566065D01*
X155259732Y-87402715D01*
X155108462Y-87264814D01*
X154934427Y-87157056D01*
X154934424Y-87157055D01*
X154934423Y-87157054D01*
X154743558Y-87083112D01*
X154563654Y-87049483D01*
X154542347Y-87045500D01*
X154337653Y-87045500D01*
X154316346Y-87049483D01*
X154136441Y-87083112D01*
X153945576Y-87157054D01*
X153771536Y-87264815D01*
X153620268Y-87402714D01*
X153496913Y-87566063D01*
X153405671Y-87749301D01*
X153349654Y-87946180D01*
X153330767Y-88150000D01*
X153349654Y-88353819D01*
X153405500Y-88550098D01*
X153405672Y-88550701D01*
X153496912Y-88733935D01*
X153620268Y-88897285D01*
X153771538Y-89035186D01*
X153945573Y-89142944D01*
X154136444Y-89216888D01*
X154337653Y-89254500D01*
X154542346Y-89254500D01*
X154542347Y-89254500D01*
X154743556Y-89216888D01*
X154934427Y-89142944D01*
X154935572Y-89142234D01*
X154936865Y-89141999D01*
X154939827Y-89140852D01*
X154940047Y-89141420D01*
X154980539Y-89134049D01*
X155019054Y-89158660D01*
X155030518Y-89202906D01*
X155015693Y-89325000D01*
X155034851Y-89482783D01*
X155091212Y-89631393D01*
X155091213Y-89631395D01*
X155091214Y-89631396D01*
X155105927Y-89652712D01*
X155117584Y-89669599D01*
X155128456Y-89709985D01*
X155111427Y-89748184D01*
X155074121Y-89767092D01*
X155033246Y-89758242D01*
X154934427Y-89697056D01*
X154934424Y-89697055D01*
X154934423Y-89697054D01*
X154743558Y-89623112D01*
X154589386Y-89594293D01*
X154542347Y-89585500D01*
X154337653Y-89585500D01*
X154290614Y-89594293D01*
X154136441Y-89623112D01*
X153945576Y-89697054D01*
X153771536Y-89804815D01*
X153620268Y-89942714D01*
X153496913Y-90106063D01*
X153405671Y-90289301D01*
X153349654Y-90486180D01*
X153330767Y-90690000D01*
X153349654Y-90893819D01*
X153390624Y-91037812D01*
X153405672Y-91090701D01*
X153496912Y-91273935D01*
X153620268Y-91437285D01*
X153771538Y-91575186D01*
X153945573Y-91682944D01*
X153978583Y-91695732D01*
X154135305Y-91756447D01*
X154136444Y-91756888D01*
X154337653Y-91794500D01*
X154542346Y-91794500D01*
X154542347Y-91794500D01*
X154743556Y-91756888D01*
X154934427Y-91682944D01*
X155108462Y-91575186D01*
X155190895Y-91500037D01*
X155234926Y-91483756D01*
X155277870Y-91502718D01*
X155295501Y-91546226D01*
X155295501Y-91679159D01*
X155294171Y-91691985D01*
X155290582Y-91709101D01*
X155295021Y-91744711D01*
X155295501Y-91752442D01*
X155295501Y-91756447D01*
X155299171Y-91778448D01*
X155299543Y-91780998D01*
X155306351Y-91835608D01*
X155310704Y-91849196D01*
X155336881Y-91897566D01*
X155338063Y-91899863D01*
X155362239Y-91949316D01*
X155370766Y-91960750D01*
X155411243Y-91998012D01*
X155413106Y-91999800D01*
X157372450Y-93959144D01*
X157387337Y-93982950D01*
X157390300Y-94010871D01*
X157380692Y-94089999D01*
X157399850Y-94247782D01*
X157456211Y-94396392D01*
X157546502Y-94527202D01*
X157635970Y-94606463D01*
X157665471Y-94632599D01*
X157697344Y-94649327D01*
X157806205Y-94706463D01*
X157960529Y-94744500D01*
X158119471Y-94744500D01*
X158273793Y-94706463D01*
X158358554Y-94661976D01*
X158401637Y-94656415D01*
X158437939Y-94680276D01*
X158449920Y-94722033D01*
X158431792Y-94761512D01*
X154954067Y-98239237D01*
X154944060Y-98247364D01*
X154929417Y-98256931D01*
X154907372Y-98285254D01*
X154902253Y-98291051D01*
X154899419Y-98293884D01*
X154886455Y-98312042D01*
X154884913Y-98314110D01*
X154851115Y-98357535D01*
X154844584Y-98370224D01*
X154828888Y-98422943D01*
X154828101Y-98425401D01*
X154810229Y-98477461D01*
X154808173Y-98491575D01*
X154810447Y-98546544D01*
X154810500Y-98549127D01*
X154810500Y-98677343D01*
X154794496Y-98719109D01*
X154754680Y-98739485D01*
X154731657Y-98741959D01*
X154595732Y-98792658D01*
X154479595Y-98879595D01*
X154392658Y-98995732D01*
X154341959Y-99131657D01*
X154335500Y-99191745D01*
X154335500Y-100188254D01*
X154341960Y-100248342D01*
X154392658Y-100384267D01*
X154479595Y-100500404D01*
X154562792Y-100562683D01*
X154595733Y-100587342D01*
X154649298Y-100607321D01*
X154713964Y-100631441D01*
X154743461Y-100654355D01*
X154754622Y-100690000D01*
X154743461Y-100725645D01*
X154713964Y-100748559D01*
X154595732Y-100792658D01*
X154479595Y-100879595D01*
X154392658Y-100995732D01*
X154341959Y-101131657D01*
X154335500Y-101191745D01*
X154335500Y-102188254D01*
X154341960Y-102248342D01*
X154392658Y-102384267D01*
X154479595Y-102500404D01*
X154517184Y-102528542D01*
X154595733Y-102587342D01*
X154667374Y-102614063D01*
X154731657Y-102638040D01*
X154737489Y-102638667D01*
X154791745Y-102644500D01*
X155588254Y-102644499D01*
X155648342Y-102638040D01*
X155784267Y-102587342D01*
X155900404Y-102500404D01*
X155987342Y-102384267D01*
X156038040Y-102248342D01*
X156044500Y-102188255D01*
X156044500Y-102132000D01*
X156062806Y-102087806D01*
X156107000Y-102069500D01*
X157494158Y-102069500D01*
X157506983Y-102070829D01*
X157524100Y-102074419D01*
X157559710Y-102069979D01*
X157567441Y-102069500D01*
X157571441Y-102069500D01*
X157571443Y-102069500D01*
X157593498Y-102065819D01*
X157595952Y-102065461D01*
X157649783Y-102058752D01*
X157649784Y-102058751D01*
X157650612Y-102058648D01*
X157664187Y-102054299D01*
X157664923Y-102053900D01*
X157664927Y-102053900D01*
X157712620Y-102028089D01*
X157714827Y-102026953D01*
X157763568Y-102003126D01*
X157763569Y-102003124D01*
X157764321Y-102002757D01*
X157775744Y-101994238D01*
X157776311Y-101993621D01*
X157776316Y-101993619D01*
X157813034Y-101953731D01*
X157814775Y-101951917D01*
X158178887Y-101587806D01*
X158223082Y-101569500D01*
X158961430Y-101569500D01*
X158993652Y-101578446D01*
X159016649Y-101602724D01*
X159018421Y-101606065D01*
X159053568Y-101672362D01*
X159170143Y-101809604D01*
X159173895Y-101814021D01*
X159321861Y-101926502D01*
X159380772Y-101953757D01*
X159490545Y-102004544D01*
X159490546Y-102004544D01*
X159490548Y-102004545D01*
X159672067Y-102044500D01*
X160081079Y-102044500D01*
X160125273Y-102062806D01*
X160143579Y-102107000D01*
X160125273Y-102151194D01*
X159309272Y-102967195D01*
X159265078Y-102985501D01*
X150190867Y-102985501D01*
X150148761Y-102969189D01*
X150128634Y-102928768D01*
X150140991Y-102885337D01*
X150205351Y-102800109D01*
X150300683Y-102608656D01*
X150359211Y-102402952D01*
X150364859Y-102342000D01*
X148075140Y-102342000D01*
X148080788Y-102402952D01*
X148139316Y-102608656D01*
X148234648Y-102800109D01*
X148299009Y-102885337D01*
X148311366Y-102928768D01*
X148291239Y-102969189D01*
X148249133Y-102985501D01*
X148214860Y-102985501D01*
X148170666Y-102967195D01*
X147757984Y-102554513D01*
X147741685Y-102526030D01*
X147742064Y-102493216D01*
X147770345Y-102393821D01*
X147789232Y-102190000D01*
X147781839Y-102110223D01*
X147775147Y-102037999D01*
X148075140Y-102037999D01*
X148075141Y-102038000D01*
X149068000Y-102038000D01*
X149068000Y-101044424D01*
X149372000Y-101044424D01*
X149372000Y-102038000D01*
X150364859Y-102038000D01*
X150364859Y-102037999D01*
X150359211Y-101977047D01*
X150320787Y-101842000D01*
X152286000Y-101842000D01*
X152286000Y-102183369D01*
X152296691Y-102272402D01*
X152352559Y-102414073D01*
X152444579Y-102535420D01*
X152565926Y-102627440D01*
X152707597Y-102683308D01*
X152796631Y-102694000D01*
X153038000Y-102694000D01*
X153038000Y-101842000D01*
X153342000Y-101842000D01*
X153342000Y-102694000D01*
X153583369Y-102694000D01*
X153672402Y-102683308D01*
X153814073Y-102627440D01*
X153935420Y-102535420D01*
X154027440Y-102414073D01*
X154083308Y-102272402D01*
X154094000Y-102183369D01*
X154094000Y-101842000D01*
X153342000Y-101842000D01*
X153038000Y-101842000D01*
X152286000Y-101842000D01*
X150320787Y-101842000D01*
X150300683Y-101771343D01*
X150205352Y-101579893D01*
X150076469Y-101409223D01*
X149918421Y-101265144D01*
X149736582Y-101152554D01*
X149537162Y-101075298D01*
X149372000Y-101044424D01*
X149068000Y-101044424D01*
X148902837Y-101075298D01*
X148703417Y-101152554D01*
X148521578Y-101265144D01*
X148363530Y-101409223D01*
X148234647Y-101579893D01*
X148139316Y-101771343D01*
X148080788Y-101977047D01*
X148075140Y-102037999D01*
X147775147Y-102037999D01*
X147772878Y-102013510D01*
X147770345Y-101986179D01*
X147742063Y-101886782D01*
X147741685Y-101853968D01*
X147757982Y-101825487D01*
X149741469Y-99842000D01*
X152286000Y-99842000D01*
X152286000Y-100183369D01*
X152296691Y-100272402D01*
X152352559Y-100414073D01*
X152444579Y-100535420D01*
X152565925Y-100627439D01*
X152577125Y-100631856D01*
X152605866Y-100654831D01*
X152616699Y-100689996D01*
X152605869Y-100725162D01*
X152577131Y-100748140D01*
X152565926Y-100752559D01*
X152444579Y-100844579D01*
X152352559Y-100965926D01*
X152296691Y-101107597D01*
X152286000Y-101196631D01*
X152286000Y-101538000D01*
X153038000Y-101538000D01*
X153038000Y-99842000D01*
X153342000Y-99842000D01*
X153342000Y-101538000D01*
X154094000Y-101538000D01*
X154094000Y-101196631D01*
X154083308Y-101107597D01*
X154027440Y-100965926D01*
X153935420Y-100844579D01*
X153814075Y-100752561D01*
X153802872Y-100748143D01*
X153774132Y-100725166D01*
X153763300Y-100690000D01*
X153774132Y-100654834D01*
X153802872Y-100631857D01*
X153814075Y-100627438D01*
X153935420Y-100535420D01*
X154027440Y-100414073D01*
X154083308Y-100272402D01*
X154094000Y-100183369D01*
X154094000Y-99842000D01*
X153342000Y-99842000D01*
X153038000Y-99842000D01*
X152286000Y-99842000D01*
X149741469Y-99842000D01*
X150045469Y-99538000D01*
X152286000Y-99538000D01*
X153038000Y-99538000D01*
X153038000Y-98686000D01*
X153342000Y-98686000D01*
X153342000Y-99538000D01*
X154094000Y-99538000D01*
X154094000Y-99196631D01*
X154083308Y-99107597D01*
X154027440Y-98965926D01*
X153935420Y-98844579D01*
X153814073Y-98752559D01*
X153672402Y-98696691D01*
X153583369Y-98686000D01*
X153342000Y-98686000D01*
X153038000Y-98686000D01*
X152796631Y-98686000D01*
X152707597Y-98696691D01*
X152565926Y-98752559D01*
X152444579Y-98844579D01*
X152352559Y-98965926D01*
X152296691Y-99107597D01*
X152286000Y-99196631D01*
X152286000Y-99538000D01*
X150045469Y-99538000D01*
X151653634Y-97929835D01*
X151664032Y-97921456D01*
X151673775Y-97915196D01*
X151708029Y-97875663D01*
X151711029Y-97872440D01*
X151722250Y-97861221D01*
X151731754Y-97848524D01*
X151734525Y-97845086D01*
X151768777Y-97805558D01*
X151773586Y-97795025D01*
X151780401Y-97783538D01*
X151787343Y-97774267D01*
X151805619Y-97725263D01*
X151807324Y-97721150D01*
X151811119Y-97712842D01*
X151829042Y-97673596D01*
X151830689Y-97662133D01*
X151833992Y-97649192D01*
X151838040Y-97638342D01*
X151841771Y-97586170D01*
X151842242Y-97581780D01*
X151844500Y-97566083D01*
X151844500Y-97550253D01*
X151844659Y-97545794D01*
X151844752Y-97544499D01*
X151848389Y-97493640D01*
X151845927Y-97482326D01*
X151844500Y-97469042D01*
X151844500Y-97157000D01*
X151862806Y-97112806D01*
X151907000Y-97094500D01*
X153559042Y-97094500D01*
X153572326Y-97095927D01*
X153583640Y-97098389D01*
X153635793Y-97094659D01*
X153640253Y-97094500D01*
X153656079Y-97094500D01*
X153656083Y-97094500D01*
X153671780Y-97092242D01*
X153676170Y-97091771D01*
X153728342Y-97088040D01*
X153739192Y-97083992D01*
X153752133Y-97080689D01*
X153763596Y-97079042D01*
X153811158Y-97057320D01*
X153815263Y-97055619D01*
X153864267Y-97037343D01*
X153873538Y-97030401D01*
X153885025Y-97023586D01*
X153895558Y-97018777D01*
X153935094Y-96984517D01*
X153938531Y-96981748D01*
X153951221Y-96972250D01*
X153962427Y-96961042D01*
X153965664Y-96958028D01*
X154005196Y-96923775D01*
X154011456Y-96914032D01*
X154019837Y-96903632D01*
X154030667Y-96892802D01*
X154074859Y-96874499D01*
X155315067Y-96874499D01*
X155352183Y-96867116D01*
X155389301Y-96859734D01*
X155473484Y-96803484D01*
X155529734Y-96719301D01*
X155544500Y-96645067D01*
X155544499Y-94894934D01*
X155541170Y-94878198D01*
X155529734Y-94820699D01*
X155473484Y-94736515D01*
X155389300Y-94680265D01*
X155315067Y-94665500D01*
X153564932Y-94665500D01*
X153490699Y-94680265D01*
X153406515Y-94736515D01*
X153350265Y-94820699D01*
X153341039Y-94867083D01*
X153321355Y-94901520D01*
X153284910Y-94917176D01*
X153246382Y-94907744D01*
X153230443Y-94888230D01*
X153228097Y-94889850D01*
X153223787Y-94883606D01*
X153223787Y-94883605D01*
X153163951Y-94796918D01*
X153133497Y-94752797D01*
X153040555Y-94670458D01*
X153025006Y-94649327D01*
X153019500Y-94623676D01*
X153019500Y-93382000D01*
X153295140Y-93382000D01*
X153300788Y-93442952D01*
X153359316Y-93648656D01*
X153454647Y-93840106D01*
X153583530Y-94010776D01*
X153741578Y-94154855D01*
X153923417Y-94267445D01*
X154122837Y-94344701D01*
X154288000Y-94375576D01*
X154288000Y-93382000D01*
X154592000Y-93382000D01*
X154592000Y-94375576D01*
X154757162Y-94344701D01*
X154956582Y-94267445D01*
X155138421Y-94154855D01*
X155296469Y-94010776D01*
X155425352Y-93840106D01*
X155520683Y-93648656D01*
X155579211Y-93442952D01*
X155584859Y-93382000D01*
X154592000Y-93382000D01*
X154288000Y-93382000D01*
X153295140Y-93382000D01*
X153019500Y-93382000D01*
X153019500Y-93077999D01*
X153295140Y-93077999D01*
X153295141Y-93078000D01*
X154288000Y-93078000D01*
X154288000Y-92084424D01*
X154592000Y-92084424D01*
X154592000Y-93078000D01*
X155584859Y-93078000D01*
X155584859Y-93077999D01*
X155579211Y-93017047D01*
X155520683Y-92811343D01*
X155425352Y-92619893D01*
X155296469Y-92449223D01*
X155138421Y-92305144D01*
X154956582Y-92192554D01*
X154757162Y-92115298D01*
X154592000Y-92084424D01*
X154288000Y-92084424D01*
X154122837Y-92115298D01*
X153923417Y-92192554D01*
X153741578Y-92305144D01*
X153583530Y-92449223D01*
X153454647Y-92619893D01*
X153359316Y-92811343D01*
X153300788Y-93017047D01*
X153295140Y-93077999D01*
X153019500Y-93077999D01*
X153019500Y-87593082D01*
X153037806Y-87548888D01*
X153255739Y-87330955D01*
X153944293Y-86642399D01*
X153975585Y-86625441D01*
X154011062Y-86628314D01*
X154136444Y-86676888D01*
X154337653Y-86714500D01*
X154542346Y-86714500D01*
X154542347Y-86714500D01*
X154743556Y-86676888D01*
X154934427Y-86602944D01*
X155108462Y-86495186D01*
X155259732Y-86357285D01*
X155383088Y-86193935D01*
X155408218Y-86143467D01*
X158906722Y-86143467D01*
X158916783Y-86329055D01*
X158966508Y-86508148D01*
X159053568Y-86672362D01*
X159165179Y-86803760D01*
X159173895Y-86814021D01*
X159321861Y-86926502D01*
X159395599Y-86960617D01*
X159490545Y-87004544D01*
X159490546Y-87004544D01*
X159490548Y-87004545D01*
X159672067Y-87044500D01*
X160361329Y-87044500D01*
X160361332Y-87044500D01*
X160499775Y-87029443D01*
X160675911Y-86970096D01*
X160835171Y-86874273D01*
X160970108Y-86746454D01*
X161074413Y-86592615D01*
X161143209Y-86419951D01*
X161173278Y-86236535D01*
X161163216Y-86050942D01*
X161113492Y-85871852D01*
X161065303Y-85780958D01*
X161026431Y-85707637D01*
X160906104Y-85565978D01*
X160803861Y-85488255D01*
X160758139Y-85453498D01*
X160758137Y-85453497D01*
X160589454Y-85375455D01*
X160407933Y-85335500D01*
X159718668Y-85335500D01*
X159659335Y-85341952D01*
X159580221Y-85350557D01*
X159404091Y-85409902D01*
X159301961Y-85471352D01*
X159244829Y-85505727D01*
X159244827Y-85505728D01*
X159244828Y-85505728D01*
X159109892Y-85633545D01*
X159005586Y-85787385D01*
X158942402Y-85945966D01*
X158936791Y-85960049D01*
X158907135Y-86140949D01*
X158906722Y-86143467D01*
X155408218Y-86143467D01*
X155474328Y-86010701D01*
X155530345Y-85813821D01*
X155549232Y-85610000D01*
X155530345Y-85406179D01*
X155474328Y-85209299D01*
X155383088Y-85026065D01*
X155259732Y-84862715D01*
X155108462Y-84724814D01*
X155108459Y-84724811D01*
X155084761Y-84710138D01*
X155059383Y-84679577D01*
X155057549Y-84639896D01*
X155079998Y-84607124D01*
X155117663Y-84594500D01*
X156319104Y-84594500D01*
X156332388Y-84595927D01*
X156343702Y-84598389D01*
X156395855Y-84594659D01*
X156400315Y-84594500D01*
X156416141Y-84594500D01*
X156416145Y-84594500D01*
X156431842Y-84592242D01*
X156436232Y-84591771D01*
X156488404Y-84588040D01*
X156499254Y-84583992D01*
X156512195Y-84580689D01*
X156523658Y-84579042D01*
X156571220Y-84557320D01*
X156575325Y-84555619D01*
X156624329Y-84537343D01*
X156633600Y-84530401D01*
X156645087Y-84523586D01*
X156655620Y-84518777D01*
X156695156Y-84484517D01*
X156698593Y-84481748D01*
X156711283Y-84472250D01*
X156722489Y-84461042D01*
X156725726Y-84458028D01*
X156765258Y-84423775D01*
X156771518Y-84414032D01*
X156779897Y-84403634D01*
X157040064Y-84143467D01*
X158906722Y-84143467D01*
X158916783Y-84329055D01*
X158966508Y-84508148D01*
X159053568Y-84672362D01*
X159172658Y-84812565D01*
X159173895Y-84814021D01*
X159321861Y-84926502D01*
X159371212Y-84949334D01*
X159490545Y-85004544D01*
X159490546Y-85004544D01*
X159490548Y-85004545D01*
X159672067Y-85044500D01*
X160361329Y-85044500D01*
X160361332Y-85044500D01*
X160499775Y-85029443D01*
X160675911Y-84970096D01*
X160835171Y-84874273D01*
X160970108Y-84746454D01*
X161074413Y-84592615D01*
X161143209Y-84419951D01*
X161173278Y-84236535D01*
X161163216Y-84050942D01*
X161113492Y-83871852D01*
X161071260Y-83792194D01*
X161026431Y-83707637D01*
X160906104Y-83565978D01*
X160826845Y-83505727D01*
X160758139Y-83453498D01*
X160723934Y-83437673D01*
X160589454Y-83375455D01*
X160407933Y-83335500D01*
X159718668Y-83335500D01*
X159659335Y-83341953D01*
X159580221Y-83350557D01*
X159404091Y-83409902D01*
X159323640Y-83458308D01*
X159244829Y-83505727D01*
X159244827Y-83505728D01*
X159244828Y-83505728D01*
X159109892Y-83633545D01*
X159005586Y-83787385D01*
X158936791Y-83960048D01*
X158935968Y-83965067D01*
X158909389Y-84127201D01*
X158906722Y-84143467D01*
X157040064Y-84143467D01*
X158786184Y-82397347D01*
X158826015Y-82379195D01*
X158867988Y-82391628D01*
X158891509Y-82428547D01*
X158900509Y-82470888D01*
X158977800Y-82644487D01*
X159089497Y-82798225D01*
X159230720Y-82925381D01*
X159395282Y-83020392D01*
X159576011Y-83079115D01*
X159717631Y-83094000D01*
X159888000Y-83094000D01*
X159888000Y-82342000D01*
X160192000Y-82342000D01*
X160192000Y-83094000D01*
X160362369Y-83094000D01*
X160503988Y-83079115D01*
X160684717Y-83020392D01*
X160849279Y-82925381D01*
X160990505Y-82798222D01*
X161102197Y-82644492D01*
X161179490Y-82470887D01*
X161206887Y-82342000D01*
X160192000Y-82342000D01*
X159888000Y-82342000D01*
X159888000Y-81321420D01*
X159902672Y-81286000D01*
X160192000Y-81286000D01*
X160192000Y-82038000D01*
X161206886Y-82038000D01*
X161179490Y-81909112D01*
X161102199Y-81735512D01*
X160990502Y-81581774D01*
X160849279Y-81454618D01*
X160684717Y-81359607D01*
X160503988Y-81300884D01*
X160362369Y-81286000D01*
X160192000Y-81286000D01*
X159902672Y-81286000D01*
X159906306Y-81277226D01*
X160120727Y-81062805D01*
X160164921Y-81044499D01*
X160713254Y-81044499D01*
X160773342Y-81038040D01*
X160909267Y-80987342D01*
X161025404Y-80900404D01*
X161112342Y-80784267D01*
X161130659Y-80735157D01*
X161153573Y-80705661D01*
X161189218Y-80694500D01*
X161725141Y-80694500D01*
X161769335Y-80712806D01*
G37*
%TD.AperFunction*%
%TA.AperFunction,Conductor*%
G36*
X147358231Y-99584268D02*
G01*
X147395733Y-99612342D01*
X147452837Y-99633641D01*
X147531657Y-99663040D01*
X147537489Y-99663667D01*
X147591745Y-99669500D01*
X148336140Y-99669499D01*
X148370863Y-99680032D01*
X148393882Y-99708081D01*
X148397439Y-99744192D01*
X148380334Y-99776193D01*
X147048290Y-101108237D01*
X147016995Y-101125197D01*
X146989475Y-101122966D01*
X146989249Y-101124176D01*
X146884269Y-101104552D01*
X146782347Y-101085500D01*
X146577653Y-101085500D01*
X146527350Y-101094903D01*
X146376441Y-101123112D01*
X146185576Y-101197054D01*
X146011536Y-101304815D01*
X145860268Y-101442714D01*
X145736913Y-101606063D01*
X145645671Y-101789301D01*
X145589654Y-101986180D01*
X145570767Y-102189999D01*
X145589654Y-102393820D01*
X145617934Y-102493216D01*
X145618313Y-102526030D01*
X145602014Y-102554513D01*
X145189334Y-102967195D01*
X145169058Y-102980743D01*
X145145140Y-102985501D01*
X145048838Y-102985501D01*
X145006732Y-102969189D01*
X144986605Y-102928768D01*
X144998962Y-102885336D01*
X145083088Y-102773935D01*
X145174328Y-102590701D01*
X145230345Y-102393821D01*
X145249232Y-102190000D01*
X145241839Y-102110223D01*
X145232878Y-102013510D01*
X145230345Y-101986179D01*
X145174328Y-101789299D01*
X145162150Y-101764842D01*
X145156412Y-101726921D01*
X145173901Y-101692791D01*
X147276584Y-99590108D01*
X147316318Y-99571962D01*
X147358231Y-99584268D01*
G37*
%TD.AperFunction*%
%TA.AperFunction,Conductor*%
G36*
X143402916Y-100276659D02*
G01*
X143425307Y-100296496D01*
X143446500Y-100327199D01*
X143446501Y-100327200D01*
X143446502Y-100327201D01*
X143510916Y-100384267D01*
X143565471Y-100432599D01*
X143706205Y-100506463D01*
X143860529Y-100544500D01*
X144019471Y-100544500D01*
X144173794Y-100506463D01*
X144256113Y-100463258D01*
X144314529Y-100432599D01*
X144398557Y-100358155D01*
X144440000Y-100342439D01*
X144481442Y-100358155D01*
X144565471Y-100432599D01*
X144565473Y-100432600D01*
X144706205Y-100506463D01*
X144860529Y-100544500D01*
X145019470Y-100544500D01*
X145019471Y-100544500D01*
X145106138Y-100523138D01*
X145145881Y-100526447D01*
X145175532Y-100553118D01*
X145183017Y-100592292D01*
X145165288Y-100628016D01*
X144635707Y-101157597D01*
X144604414Y-101174557D01*
X144568936Y-101171683D01*
X144443555Y-101123111D01*
X144279958Y-101092530D01*
X144242347Y-101085500D01*
X144037653Y-101085500D01*
X143987350Y-101094903D01*
X143836441Y-101123112D01*
X143645576Y-101197054D01*
X143471536Y-101304815D01*
X143320268Y-101442714D01*
X143196913Y-101606063D01*
X143105671Y-101789301D01*
X143049654Y-101986180D01*
X143030767Y-102190000D01*
X143049654Y-102393819D01*
X143104716Y-102587341D01*
X143105672Y-102590701D01*
X143196912Y-102773935D01*
X143281038Y-102885336D01*
X143293395Y-102928768D01*
X143273268Y-102969189D01*
X143231162Y-102985501D01*
X142508838Y-102985501D01*
X142466732Y-102969189D01*
X142446605Y-102928768D01*
X142458962Y-102885336D01*
X142543088Y-102773935D01*
X142634328Y-102590701D01*
X142690345Y-102393821D01*
X142709232Y-102190000D01*
X142701839Y-102110223D01*
X142692878Y-102013510D01*
X142690345Y-101986179D01*
X142634328Y-101789299D01*
X142543088Y-101606065D01*
X142419732Y-101442715D01*
X142268462Y-101304814D01*
X142094427Y-101197056D01*
X142094424Y-101197055D01*
X142094423Y-101197054D01*
X142019422Y-101167998D01*
X141990437Y-101145040D01*
X141979500Y-101109719D01*
X141979500Y-100795842D01*
X141980830Y-100783016D01*
X141980926Y-100782559D01*
X141984419Y-100765900D01*
X141979979Y-100730289D01*
X141979500Y-100722559D01*
X141979500Y-100718558D01*
X141975827Y-100696545D01*
X141975455Y-100693990D01*
X141968649Y-100639390D01*
X141964298Y-100625809D01*
X141938115Y-100577427D01*
X141936932Y-100575130D01*
X141913126Y-100526432D01*
X141913124Y-100526430D01*
X141912758Y-100525681D01*
X141904237Y-100514253D01*
X141863756Y-100476987D01*
X141861893Y-100475199D01*
X141762888Y-100376194D01*
X141744582Y-100332000D01*
X141762888Y-100287806D01*
X141807082Y-100269500D01*
X143373871Y-100269500D01*
X143402916Y-100276659D01*
G37*
%TD.AperFunction*%
%TA.AperFunction,Conductor*%
G36*
X140451122Y-100137816D02*
G01*
X141202194Y-100888888D01*
X141220500Y-100933082D01*
X141220500Y-101109719D01*
X141209563Y-101145040D01*
X141180578Y-101167998D01*
X141105576Y-101197054D01*
X140931536Y-101304815D01*
X140780268Y-101442714D01*
X140656913Y-101606063D01*
X140565671Y-101789301D01*
X140509654Y-101986180D01*
X140490767Y-102190000D01*
X140509654Y-102393819D01*
X140564716Y-102587341D01*
X140565672Y-102590701D01*
X140656912Y-102773935D01*
X140741038Y-102885336D01*
X140753395Y-102928768D01*
X140733268Y-102969189D01*
X140691162Y-102985501D01*
X139968838Y-102985501D01*
X139926732Y-102969189D01*
X139906605Y-102928768D01*
X139918962Y-102885336D01*
X140003088Y-102773935D01*
X140094328Y-102590701D01*
X140150345Y-102393821D01*
X140169232Y-102190000D01*
X140161839Y-102110223D01*
X140152878Y-102013510D01*
X140150345Y-101986179D01*
X140094328Y-101789299D01*
X140003088Y-101606065D01*
X139879732Y-101442715D01*
X139728462Y-101304814D01*
X139554427Y-101197056D01*
X139554424Y-101197055D01*
X139554423Y-101197054D01*
X139479422Y-101167998D01*
X139450437Y-101145040D01*
X139439500Y-101109719D01*
X139439500Y-100855842D01*
X139440830Y-100843016D01*
X139444419Y-100825900D01*
X139439979Y-100790289D01*
X139439500Y-100782559D01*
X139439500Y-100778558D01*
X139439500Y-100778557D01*
X139435825Y-100756540D01*
X139435457Y-100754010D01*
X139428752Y-100700217D01*
X139428751Y-100700215D01*
X139428648Y-100699388D01*
X139424299Y-100685811D01*
X139404047Y-100648389D01*
X139398113Y-100637423D01*
X139396949Y-100635164D01*
X139373126Y-100586432D01*
X139373124Y-100586430D01*
X139372758Y-100585681D01*
X139364237Y-100574253D01*
X139323753Y-100536984D01*
X139321890Y-100535196D01*
X139012898Y-100226204D01*
X138994592Y-100182010D01*
X139012898Y-100137816D01*
X139057092Y-100119510D01*
X140406928Y-100119510D01*
X140451122Y-100137816D01*
G37*
%TD.AperFunction*%
%TA.AperFunction,Conductor*%
G36*
X133163215Y-94488004D02*
G01*
X133191436Y-94508146D01*
X133210444Y-94532145D01*
X133407106Y-94728806D01*
X133424211Y-94760807D01*
X133420655Y-94796918D01*
X133397635Y-94824967D01*
X133362912Y-94835500D01*
X133360529Y-94835500D01*
X133206205Y-94873536D01*
X133065470Y-94947401D01*
X132946502Y-95052797D01*
X132856211Y-95183607D01*
X132799850Y-95332217D01*
X132780692Y-95490000D01*
X132799850Y-95647782D01*
X132856211Y-95796392D01*
X132946502Y-95927202D01*
X133039445Y-96009542D01*
X133054994Y-96030673D01*
X133060500Y-96056324D01*
X133060500Y-98443758D01*
X133059170Y-98456584D01*
X133055581Y-98473700D01*
X133060020Y-98509310D01*
X133060500Y-98517041D01*
X133060500Y-98521046D01*
X133064170Y-98543047D01*
X133064542Y-98545597D01*
X133071350Y-98600207D01*
X133075703Y-98613795D01*
X133101880Y-98662165D01*
X133103062Y-98664462D01*
X133127238Y-98713915D01*
X133135765Y-98725349D01*
X133176242Y-98762611D01*
X133178105Y-98764399D01*
X134839656Y-100425950D01*
X134847784Y-100435958D01*
X134857352Y-100450602D01*
X134885677Y-100472648D01*
X134891474Y-100477768D01*
X134894306Y-100480600D01*
X134912453Y-100493557D01*
X134914523Y-100495100D01*
X134957961Y-100528909D01*
X134970641Y-100535435D01*
X134987441Y-100540436D01*
X135023382Y-100551135D01*
X135025804Y-100551911D01*
X135067155Y-100566108D01*
X135076300Y-100569248D01*
X135077093Y-100569520D01*
X135077879Y-100569790D01*
X135091995Y-100571846D01*
X135092828Y-100571811D01*
X135092830Y-100571812D01*
X135146963Y-100569573D01*
X135149547Y-100569520D01*
X138256938Y-100569520D01*
X138301132Y-100587826D01*
X138662194Y-100948888D01*
X138680500Y-100993082D01*
X138680500Y-101109719D01*
X138669563Y-101145040D01*
X138640578Y-101167998D01*
X138565576Y-101197054D01*
X138391536Y-101304815D01*
X138240268Y-101442714D01*
X138116913Y-101606063D01*
X138025671Y-101789301D01*
X137969654Y-101986180D01*
X137950767Y-102190000D01*
X137969654Y-102393819D01*
X138024716Y-102587341D01*
X138025672Y-102590701D01*
X138116912Y-102773935D01*
X138201038Y-102885336D01*
X138213395Y-102928768D01*
X138193268Y-102969189D01*
X138151162Y-102985501D01*
X137428838Y-102985501D01*
X137386732Y-102969189D01*
X137366605Y-102928768D01*
X137378962Y-102885336D01*
X137463088Y-102773935D01*
X137554328Y-102590701D01*
X137610345Y-102393821D01*
X137629232Y-102190000D01*
X137621839Y-102110223D01*
X137612878Y-102013510D01*
X137610345Y-101986179D01*
X137554328Y-101789299D01*
X137463088Y-101606065D01*
X137339732Y-101442715D01*
X137188462Y-101304814D01*
X137014427Y-101197056D01*
X137014424Y-101197055D01*
X137014423Y-101197054D01*
X136823558Y-101123112D01*
X136689416Y-101098037D01*
X136622347Y-101085500D01*
X136417653Y-101085500D01*
X136367350Y-101094903D01*
X136216441Y-101123112D01*
X136025576Y-101197054D01*
X135851536Y-101304815D01*
X135700268Y-101442714D01*
X135576913Y-101606063D01*
X135485671Y-101789301D01*
X135429654Y-101986180D01*
X135410767Y-102190000D01*
X135429654Y-102393819D01*
X135484716Y-102587341D01*
X135485672Y-102590701D01*
X135576912Y-102773935D01*
X135661038Y-102885336D01*
X135673395Y-102928768D01*
X135653268Y-102969189D01*
X135611162Y-102985501D01*
X134888838Y-102985501D01*
X134846732Y-102969189D01*
X134826605Y-102928768D01*
X134838962Y-102885336D01*
X134923088Y-102773935D01*
X135014328Y-102590701D01*
X135070345Y-102393821D01*
X135089232Y-102190000D01*
X135081839Y-102110223D01*
X135072878Y-102013510D01*
X135070345Y-101986179D01*
X135014328Y-101789299D01*
X134923088Y-101606065D01*
X134799732Y-101442715D01*
X134648462Y-101304814D01*
X134474427Y-101197056D01*
X134474424Y-101197055D01*
X134474423Y-101197054D01*
X134283558Y-101123112D01*
X134149416Y-101098037D01*
X134082347Y-101085500D01*
X133877653Y-101085500D01*
X133827350Y-101094903D01*
X133676441Y-101123112D01*
X133485576Y-101197054D01*
X133311536Y-101304815D01*
X133160268Y-101442714D01*
X133036913Y-101606063D01*
X132945671Y-101789301D01*
X132889654Y-101986180D01*
X132870767Y-102190000D01*
X132889654Y-102393819D01*
X132944716Y-102587341D01*
X132945672Y-102590701D01*
X133036912Y-102773935D01*
X133121038Y-102885336D01*
X133133395Y-102928768D01*
X133113268Y-102969189D01*
X133071162Y-102985501D01*
X132348838Y-102985501D01*
X132306732Y-102969189D01*
X132286605Y-102928768D01*
X132298962Y-102885336D01*
X132383088Y-102773935D01*
X132474328Y-102590701D01*
X132530345Y-102393821D01*
X132549232Y-102190000D01*
X132541839Y-102110223D01*
X132532878Y-102013510D01*
X132530345Y-101986179D01*
X132474328Y-101789299D01*
X132383088Y-101606065D01*
X132259732Y-101442715D01*
X132108462Y-101304814D01*
X131934427Y-101197056D01*
X131934424Y-101197055D01*
X131934423Y-101197054D01*
X131743558Y-101123112D01*
X131609416Y-101098037D01*
X131542347Y-101085500D01*
X131337653Y-101085500D01*
X131287350Y-101094903D01*
X131136441Y-101123112D01*
X130945576Y-101197054D01*
X130771536Y-101304815D01*
X130620268Y-101442714D01*
X130496913Y-101606063D01*
X130405671Y-101789301D01*
X130349654Y-101986180D01*
X130330767Y-102190000D01*
X130349654Y-102393819D01*
X130404716Y-102587341D01*
X130405672Y-102590701D01*
X130496912Y-102773935D01*
X130581038Y-102885336D01*
X130593395Y-102928768D01*
X130573268Y-102969189D01*
X130531162Y-102985501D01*
X130474860Y-102985501D01*
X130430666Y-102967195D01*
X129362806Y-101899335D01*
X129344500Y-101855141D01*
X129344500Y-100010253D01*
X129344659Y-100005794D01*
X129349030Y-99944677D01*
X129350171Y-99944758D01*
X129350751Y-99928531D01*
X129366523Y-99901947D01*
X129580665Y-99687804D01*
X129624859Y-99669499D01*
X130250754Y-99669499D01*
X130310842Y-99663040D01*
X130446767Y-99612342D01*
X130562904Y-99525404D01*
X130649842Y-99409267D01*
X130700540Y-99273342D01*
X130707000Y-99213255D01*
X130707000Y-98842000D01*
X131048500Y-98842000D01*
X131048500Y-99208369D01*
X131059191Y-99297402D01*
X131115059Y-99439073D01*
X131207079Y-99560420D01*
X131328426Y-99652440D01*
X131470097Y-99708308D01*
X131559131Y-99719000D01*
X131788000Y-99719000D01*
X131788000Y-98842000D01*
X132092000Y-98842000D01*
X132092000Y-99719000D01*
X132320869Y-99719000D01*
X132409902Y-99708308D01*
X132551573Y-99652440D01*
X132672920Y-99560420D01*
X132764940Y-99439073D01*
X132820808Y-99297402D01*
X132831500Y-99208369D01*
X132831500Y-98842000D01*
X132092000Y-98842000D01*
X131788000Y-98842000D01*
X131048500Y-98842000D01*
X130707000Y-98842000D01*
X130706999Y-98410580D01*
X130711757Y-98386663D01*
X130725302Y-98366390D01*
X130941806Y-98149886D01*
X130986000Y-98131581D01*
X131030194Y-98149887D01*
X131048500Y-98194081D01*
X131048500Y-98538000D01*
X132831500Y-98538000D01*
X132831500Y-98171631D01*
X132820808Y-98082597D01*
X132764940Y-97940926D01*
X132672920Y-97819579D01*
X132551573Y-97727558D01*
X132408169Y-97671008D01*
X132379265Y-97647791D01*
X132368600Y-97612284D01*
X132379925Y-97576982D01*
X132409254Y-97554307D01*
X132521767Y-97512342D01*
X132637904Y-97425404D01*
X132724842Y-97309267D01*
X132775540Y-97173342D01*
X132782000Y-97113255D01*
X132781999Y-96066746D01*
X132775540Y-96006658D01*
X132724842Y-95870733D01*
X132698476Y-95835512D01*
X132637904Y-95754595D01*
X132521767Y-95667658D01*
X132385842Y-95616959D01*
X132376455Y-95615950D01*
X132375320Y-95615828D01*
X132335504Y-95595453D01*
X132319500Y-95553687D01*
X132319500Y-95307396D01*
X132337806Y-95263202D01*
X132459373Y-95141635D01*
X133098252Y-94502754D01*
X133128602Y-94486003D01*
X133163215Y-94488004D01*
G37*
%TD.AperFunction*%
%TA.AperFunction,Conductor*%
G36*
X163237194Y-92212806D02*
G01*
X163255500Y-92257000D01*
X163255500Y-95235141D01*
X163250742Y-95259059D01*
X163237194Y-95279335D01*
X160199333Y-98317194D01*
X160155139Y-98335500D01*
X159366745Y-98335500D01*
X159306657Y-98341960D01*
X159170732Y-98392658D01*
X159054595Y-98479595D01*
X158967658Y-98595732D01*
X158916959Y-98731657D01*
X158910500Y-98791745D01*
X158910500Y-99588254D01*
X158916960Y-99648342D01*
X158967658Y-99784267D01*
X159054595Y-99900404D01*
X159114361Y-99945143D01*
X159170733Y-99987342D01*
X159255958Y-100019130D01*
X159306657Y-100038040D01*
X159312489Y-100038667D01*
X159366745Y-100044500D01*
X160155140Y-100044499D01*
X160179058Y-100049257D01*
X160199334Y-100062805D01*
X160365335Y-100228806D01*
X160383641Y-100273000D01*
X160365335Y-100317194D01*
X160321141Y-100335500D01*
X159718668Y-100335500D01*
X159659335Y-100341952D01*
X159580221Y-100350557D01*
X159404091Y-100409902D01*
X159336451Y-100450600D01*
X159244829Y-100505727D01*
X159244827Y-100505728D01*
X159244828Y-100505728D01*
X159109892Y-100633545D01*
X159008510Y-100783074D01*
X158986055Y-100803220D01*
X158956779Y-100810500D01*
X158085842Y-100810500D01*
X158073016Y-100809170D01*
X158055900Y-100805581D01*
X158055899Y-100805581D01*
X158029786Y-100808836D01*
X158027109Y-100809170D01*
X158020290Y-100810020D01*
X158012559Y-100810500D01*
X158008554Y-100810500D01*
X157986553Y-100814170D01*
X157984003Y-100814542D01*
X157929392Y-100821351D01*
X157915805Y-100825703D01*
X157867427Y-100851884D01*
X157865132Y-100853065D01*
X157815686Y-100877238D01*
X157804246Y-100885768D01*
X157766987Y-100926241D01*
X157765200Y-100928104D01*
X157401112Y-101292194D01*
X157380836Y-101305742D01*
X157356918Y-101310500D01*
X156106999Y-101310500D01*
X156062805Y-101292194D01*
X156044499Y-101248000D01*
X156044499Y-101191746D01*
X156040286Y-101152554D01*
X156038040Y-101131658D01*
X155987342Y-100995733D01*
X155940443Y-100933082D01*
X155900404Y-100879595D01*
X155784267Y-100792658D01*
X155666035Y-100748559D01*
X155636538Y-100725645D01*
X155625377Y-100690000D01*
X155636538Y-100654355D01*
X155666035Y-100631441D01*
X155687783Y-100623328D01*
X155784267Y-100587342D01*
X155900404Y-100500404D01*
X155987342Y-100384267D01*
X156038040Y-100248342D01*
X156044500Y-100188255D01*
X156044499Y-99191746D01*
X156038040Y-99131658D01*
X155987342Y-98995733D01*
X155960906Y-98960418D01*
X155900404Y-98879595D01*
X155784267Y-98792658D01*
X155649432Y-98742366D01*
X155617906Y-98716336D01*
X155609216Y-98676387D01*
X155627079Y-98639614D01*
X159703888Y-94562805D01*
X159748082Y-94544500D01*
X160361329Y-94544500D01*
X160361332Y-94544500D01*
X160499775Y-94529443D01*
X160675911Y-94470096D01*
X160835171Y-94374273D01*
X160970108Y-94246454D01*
X161074413Y-94092615D01*
X161143209Y-93919951D01*
X161173278Y-93736535D01*
X161163216Y-93550942D01*
X161113492Y-93371852D01*
X161068709Y-93287382D01*
X161026431Y-93207637D01*
X160906104Y-93065978D01*
X160841736Y-93017047D01*
X160758139Y-92953498D01*
X160732917Y-92941829D01*
X160589454Y-92875455D01*
X160407933Y-92835500D01*
X159748082Y-92835500D01*
X159703888Y-92817194D01*
X159537887Y-92651193D01*
X159519581Y-92606999D01*
X159537887Y-92562805D01*
X159582081Y-92544499D01*
X160713254Y-92544499D01*
X160773342Y-92538040D01*
X160909267Y-92487342D01*
X161025404Y-92400404D01*
X161112342Y-92284267D01*
X161130659Y-92235157D01*
X161153573Y-92205661D01*
X161189218Y-92194500D01*
X163193000Y-92194500D01*
X163237194Y-92212806D01*
G37*
%TD.AperFunction*%
%TA.AperFunction,Conductor*%
G36*
X138970393Y-96242578D02*
G01*
X138991942Y-96282651D01*
X138999850Y-96347782D01*
X139056211Y-96496392D01*
X139146502Y-96627202D01*
X139250460Y-96719300D01*
X139265471Y-96732599D01*
X139309324Y-96755615D01*
X139406205Y-96806463D01*
X139560529Y-96844500D01*
X139719471Y-96844500D01*
X139873794Y-96806463D01*
X139922234Y-96781039D01*
X140014529Y-96732599D01*
X140133498Y-96627201D01*
X140223787Y-96496395D01*
X140237309Y-96460741D01*
X140268936Y-96377349D01*
X140295041Y-96346026D01*
X140334908Y-96337468D01*
X140371568Y-96355318D01*
X140617184Y-96600934D01*
X140635490Y-96645128D01*
X140635490Y-99298010D01*
X140617184Y-99342204D01*
X140572990Y-99360510D01*
X138921184Y-99360510D01*
X138887803Y-99350849D01*
X138864742Y-99324853D01*
X138859130Y-99290558D01*
X138869000Y-99208369D01*
X138869000Y-98842000D01*
X137086000Y-98842000D01*
X137086000Y-99208369D01*
X137095870Y-99290558D01*
X137090258Y-99324853D01*
X137067197Y-99350849D01*
X137033816Y-99360510D01*
X136795545Y-99360510D01*
X136758090Y-99348043D01*
X136735576Y-99315617D01*
X136736986Y-99276167D01*
X136738040Y-99273342D01*
X136744500Y-99213255D01*
X136744499Y-98538000D01*
X137086000Y-98538000D01*
X137825500Y-98538000D01*
X137825500Y-97661000D01*
X138129500Y-97661000D01*
X138129500Y-98538000D01*
X138869000Y-98538000D01*
X138869000Y-98171631D01*
X138858308Y-98082597D01*
X138802440Y-97940926D01*
X138710420Y-97819579D01*
X138589073Y-97727559D01*
X138447402Y-97671691D01*
X138358369Y-97661000D01*
X138129500Y-97661000D01*
X137825500Y-97661000D01*
X137596631Y-97661000D01*
X137507597Y-97671691D01*
X137365926Y-97727559D01*
X137244579Y-97819579D01*
X137152559Y-97940926D01*
X137096691Y-98082597D01*
X137086000Y-98171631D01*
X137086000Y-98538000D01*
X136744499Y-98538000D01*
X136744499Y-98166746D01*
X136738040Y-98106658D01*
X136687342Y-97970733D01*
X136645768Y-97915196D01*
X136600404Y-97854595D01*
X136484267Y-97767658D01*
X136348342Y-97716959D01*
X136294086Y-97711127D01*
X136288254Y-97710500D01*
X135516743Y-97710500D01*
X135494960Y-97712842D01*
X135467488Y-97709639D01*
X135444088Y-97694894D01*
X135227351Y-97478157D01*
X135209045Y-97433963D01*
X135209045Y-96611629D01*
X135227351Y-96567435D01*
X135271545Y-96549129D01*
X135315739Y-96567435D01*
X135381229Y-96632925D01*
X135444162Y-96674977D01*
X135543463Y-96694728D01*
X135543463Y-96694727D01*
X135543464Y-96694728D01*
X135642765Y-96674977D01*
X135684139Y-96647331D01*
X135724518Y-96637054D01*
X135762383Y-96654441D01*
X135780906Y-96691764D01*
X135799850Y-96847782D01*
X135856211Y-96996392D01*
X135946502Y-97127202D01*
X136018083Y-97190617D01*
X136065471Y-97232599D01*
X136099144Y-97250272D01*
X136206205Y-97306463D01*
X136360529Y-97344500D01*
X136519471Y-97344500D01*
X136673794Y-97306463D01*
X136740980Y-97271200D01*
X136814529Y-97232599D01*
X136898557Y-97158155D01*
X136940000Y-97142439D01*
X136981442Y-97158155D01*
X137065471Y-97232599D01*
X137065473Y-97232600D01*
X137206205Y-97306463D01*
X137360529Y-97344500D01*
X137519471Y-97344500D01*
X137673794Y-97306463D01*
X137722234Y-97281039D01*
X137814529Y-97232599D01*
X137933498Y-97127201D01*
X138023787Y-96996395D01*
X138080149Y-96847782D01*
X138095749Y-96719301D01*
X138099093Y-96691764D01*
X138117616Y-96654440D01*
X138155482Y-96637053D01*
X138195861Y-96647331D01*
X138237234Y-96674977D01*
X138336535Y-96694728D01*
X138336535Y-96694727D01*
X138336536Y-96694728D01*
X138435837Y-96674977D01*
X138498770Y-96632927D01*
X138885704Y-96245990D01*
X138927381Y-96227736D01*
X138970393Y-96242578D01*
G37*
%TD.AperFunction*%
%TA.AperFunction,Conductor*%
G36*
X146900694Y-84426665D02*
G01*
X147117194Y-84643165D01*
X147135500Y-84687359D01*
X147135500Y-85313254D01*
X147141960Y-85373342D01*
X147192658Y-85509267D01*
X147279595Y-85625404D01*
X147358229Y-85684267D01*
X147395733Y-85712342D01*
X147475868Y-85742231D01*
X147531657Y-85763040D01*
X147537489Y-85763667D01*
X147591745Y-85769500D01*
X148363254Y-85769499D01*
X148423342Y-85763040D01*
X148559267Y-85712342D01*
X148675404Y-85625404D01*
X148717219Y-85569544D01*
X148739274Y-85551112D01*
X148767251Y-85544501D01*
X150773000Y-85544501D01*
X150817194Y-85562807D01*
X150835500Y-85607001D01*
X150835500Y-96148000D01*
X150817194Y-96192194D01*
X150773000Y-96210500D01*
X148856999Y-96210500D01*
X148812805Y-96192194D01*
X148794499Y-96148000D01*
X148794499Y-96091746D01*
X148793828Y-96085500D01*
X148788040Y-96031658D01*
X148737342Y-95895733D01*
X148698990Y-95844500D01*
X148650404Y-95779595D01*
X148534267Y-95692658D01*
X148398342Y-95641959D01*
X148344086Y-95636127D01*
X148338254Y-95635500D01*
X147541745Y-95635500D01*
X147481657Y-95641960D01*
X147345732Y-95692658D01*
X147229595Y-95779595D01*
X147142658Y-95895732D01*
X147091959Y-96031657D01*
X147085500Y-96091745D01*
X147085500Y-97088254D01*
X147091960Y-97148342D01*
X147142658Y-97284267D01*
X147229595Y-97400404D01*
X147309009Y-97459851D01*
X147345733Y-97487342D01*
X147412757Y-97512341D01*
X147481657Y-97538040D01*
X147487489Y-97538667D01*
X147541745Y-97544500D01*
X148338254Y-97544499D01*
X148398342Y-97538040D01*
X148534267Y-97487342D01*
X148650404Y-97400404D01*
X148737342Y-97284267D01*
X148788040Y-97148342D01*
X148794500Y-97088255D01*
X148794500Y-97032000D01*
X148812806Y-96987806D01*
X148857000Y-96969500D01*
X149084915Y-96969500D01*
X149126360Y-96985218D01*
X149146959Y-97024466D01*
X149136352Y-97067504D01*
X149056211Y-97183607D01*
X148999850Y-97332217D01*
X148980692Y-97490000D01*
X148990300Y-97569127D01*
X148987337Y-97597048D01*
X148972450Y-97620854D01*
X148749901Y-97843403D01*
X148710166Y-97861550D01*
X148668253Y-97849243D01*
X148559267Y-97767658D01*
X148559265Y-97767657D01*
X148423342Y-97716959D01*
X148369086Y-97711127D01*
X148363254Y-97710500D01*
X147591745Y-97710500D01*
X147531657Y-97716960D01*
X147395732Y-97767658D01*
X147279595Y-97854595D01*
X147192658Y-97970732D01*
X147141959Y-98106657D01*
X147135500Y-98166746D01*
X147135500Y-98631917D01*
X147117194Y-98676111D01*
X146851193Y-98942112D01*
X146806999Y-98960418D01*
X146762805Y-98942112D01*
X146744499Y-98897918D01*
X146744499Y-98166746D01*
X146742251Y-98145835D01*
X146738040Y-98106658D01*
X146687342Y-97970733D01*
X146645768Y-97915196D01*
X146600404Y-97854595D01*
X146484267Y-97767658D01*
X146360158Y-97721367D01*
X146330661Y-97698453D01*
X146319500Y-97662808D01*
X146319500Y-97602657D01*
X146335504Y-97560891D01*
X146375320Y-97540515D01*
X146398342Y-97538040D01*
X146404948Y-97535576D01*
X146534267Y-97487342D01*
X146650404Y-97400404D01*
X146737342Y-97284267D01*
X146788040Y-97148342D01*
X146794500Y-97088255D01*
X146794499Y-96091746D01*
X146788040Y-96031658D01*
X146737342Y-95895733D01*
X146698990Y-95844500D01*
X146650404Y-95779595D01*
X146553471Y-95707033D01*
X146531281Y-95675675D01*
X146531623Y-95637262D01*
X146554369Y-95606305D01*
X146590925Y-95594499D01*
X146715067Y-95594499D01*
X146752183Y-95587116D01*
X146789301Y-95579734D01*
X146873484Y-95523484D01*
X146929734Y-95439301D01*
X146944500Y-95365067D01*
X146944499Y-93814934D01*
X146941165Y-93798173D01*
X146929734Y-93740699D01*
X146873484Y-93656515D01*
X146789300Y-93600265D01*
X146715067Y-93585500D01*
X145164932Y-93585500D01*
X145090699Y-93600265D01*
X145006515Y-93656515D01*
X144950265Y-93740699D01*
X144935500Y-93814932D01*
X144935500Y-94148000D01*
X144917194Y-94192194D01*
X144873000Y-94210500D01*
X141588768Y-94210500D01*
X141544574Y-94192194D01*
X141278949Y-93926569D01*
X141261844Y-93894568D01*
X141265401Y-93858456D01*
X141288417Y-93830411D01*
X141327197Y-93804500D01*
X141367751Y-93763945D01*
X141411945Y-93745640D01*
X143118018Y-93745640D01*
X143130843Y-93746969D01*
X143147960Y-93750559D01*
X143183570Y-93746119D01*
X143191301Y-93745640D01*
X143195301Y-93745640D01*
X143195303Y-93745640D01*
X143217358Y-93741959D01*
X143219812Y-93741601D01*
X143273643Y-93734892D01*
X143273644Y-93734891D01*
X143274472Y-93734788D01*
X143288047Y-93730439D01*
X143288783Y-93730040D01*
X143288787Y-93730040D01*
X143336480Y-93704229D01*
X143338687Y-93703093D01*
X143387428Y-93679266D01*
X143387429Y-93679264D01*
X143388181Y-93678897D01*
X143399604Y-93670378D01*
X143400171Y-93669761D01*
X143400176Y-93669759D01*
X143436894Y-93629871D01*
X143438635Y-93628057D01*
X145704849Y-91361843D01*
X145732258Y-91345835D01*
X145752940Y-91345522D01*
X145752940Y-91344500D01*
X145919471Y-91344500D01*
X146073794Y-91306463D01*
X146135248Y-91274209D01*
X146214529Y-91232599D01*
X146333498Y-91127201D01*
X146423787Y-90996395D01*
X146480149Y-90847782D01*
X146499307Y-90690000D01*
X146486330Y-90583126D01*
X146480149Y-90532217D01*
X146423788Y-90383607D01*
X146421755Y-90380662D01*
X146354158Y-90282730D01*
X146333497Y-90252797D01*
X146214529Y-90147401D01*
X146073794Y-90073536D01*
X145919471Y-90035500D01*
X145760529Y-90035500D01*
X145606206Y-90073537D01*
X145586044Y-90084119D01*
X145544497Y-90090015D01*
X145508586Y-90068306D01*
X145494499Y-90028778D01*
X145494499Y-89058083D01*
X145512805Y-89013889D01*
X145559181Y-88967513D01*
X145704849Y-88821843D01*
X145732257Y-88805835D01*
X145752940Y-88805522D01*
X145752940Y-88804500D01*
X145919471Y-88804500D01*
X146073794Y-88766463D01*
X146137938Y-88732797D01*
X146214529Y-88692599D01*
X146333498Y-88587201D01*
X146423787Y-88456395D01*
X146480149Y-88307782D01*
X146499307Y-88150000D01*
X146480149Y-87992218D01*
X146456044Y-87928661D01*
X146454450Y-87889111D01*
X146476936Y-87856534D01*
X146514483Y-87843999D01*
X146735386Y-87843999D01*
X146760806Y-87841050D01*
X146864778Y-87795143D01*
X146945143Y-87714778D01*
X146991050Y-87610807D01*
X146994000Y-87585386D01*
X146994000Y-86942000D01*
X144886001Y-86942000D01*
X144886001Y-87585386D01*
X144888949Y-87610806D01*
X144934856Y-87714778D01*
X145015221Y-87795143D01*
X145119192Y-87841050D01*
X145144614Y-87843999D01*
X145165512Y-87843999D01*
X145203060Y-87856533D01*
X145225547Y-87889109D01*
X145223954Y-87928661D01*
X145199850Y-87992219D01*
X145180692Y-88150000D01*
X145190300Y-88229127D01*
X145187337Y-88257048D01*
X145172450Y-88280854D01*
X144879066Y-88574238D01*
X144869059Y-88582365D01*
X144854416Y-88591932D01*
X144832371Y-88620255D01*
X144827252Y-88626052D01*
X144824418Y-88628885D01*
X144811454Y-88647043D01*
X144809912Y-88649111D01*
X144776114Y-88692536D01*
X144769583Y-88705225D01*
X144753887Y-88757944D01*
X144753100Y-88760402D01*
X144735228Y-88812462D01*
X144733172Y-88826576D01*
X144735446Y-88881545D01*
X144735499Y-88884128D01*
X144735499Y-89933333D01*
X144730741Y-89957251D01*
X144717193Y-89977527D01*
X143621180Y-91073539D01*
X143579816Y-91091781D01*
X143536971Y-91077356D01*
X143515062Y-91037812D01*
X143523069Y-91004239D01*
X143521096Y-91003491D01*
X143580149Y-90847782D01*
X143591113Y-90757481D01*
X143599307Y-90690000D01*
X143599220Y-90689287D01*
X143580149Y-90532217D01*
X143523788Y-90383607D01*
X143521755Y-90380662D01*
X143454158Y-90282730D01*
X143433497Y-90252797D01*
X143314529Y-90147401D01*
X143173794Y-90073536D01*
X143019471Y-90035500D01*
X142860529Y-90035500D01*
X142706205Y-90073536D01*
X142565470Y-90147401D01*
X142446502Y-90252797D01*
X142356211Y-90383607D01*
X142299850Y-90532217D01*
X142280692Y-90689999D01*
X142291427Y-90778408D01*
X142288464Y-90806329D01*
X142273577Y-90830135D01*
X142075362Y-91028350D01*
X142031168Y-91046656D01*
X141986974Y-91028350D01*
X141716106Y-90757482D01*
X141692885Y-90741966D01*
X141668426Y-90710089D01*
X141668426Y-90669909D01*
X141692885Y-90638034D01*
X141716106Y-90622519D01*
X142882925Y-89455698D01*
X142924977Y-89392765D01*
X142944728Y-89293464D01*
X142947153Y-89281272D01*
X142947622Y-89281365D01*
X142949423Y-89263084D01*
X142972442Y-89235034D01*
X143007166Y-89224500D01*
X143119471Y-89224500D01*
X143273794Y-89186463D01*
X143326767Y-89158660D01*
X143414529Y-89112599D01*
X143533498Y-89007201D01*
X143623787Y-88876395D01*
X143680149Y-88727782D01*
X143699307Y-88570000D01*
X143696963Y-88550699D01*
X143680149Y-88412217D01*
X143623788Y-88263607D01*
X143622847Y-88262244D01*
X143541316Y-88144125D01*
X143533497Y-88132797D01*
X143414529Y-88027401D01*
X143273794Y-87953536D01*
X143119471Y-87915500D01*
X142960529Y-87915500D01*
X142806205Y-87953536D01*
X142665470Y-88027401D01*
X142546502Y-88132797D01*
X142456211Y-88263607D01*
X142399850Y-88412217D01*
X142389776Y-88495183D01*
X142368227Y-88535256D01*
X142325215Y-88550098D01*
X142283539Y-88531843D01*
X141892882Y-88141188D01*
X141886706Y-88137061D01*
X141880840Y-88133141D01*
X141857287Y-88103754D01*
X141816815Y-87999286D01*
X141800926Y-87979226D01*
X141681857Y-87860158D01*
X140793732Y-88748284D01*
X140120566Y-89421450D01*
X140120566Y-89421451D01*
X140239632Y-89540515D01*
X140263632Y-89559526D01*
X140283771Y-89587746D01*
X140285772Y-89622359D01*
X140269018Y-89652712D01*
X140049539Y-89872194D01*
X140029263Y-89885742D01*
X140005345Y-89890500D01*
X138606129Y-89890500D01*
X138577084Y-89883341D01*
X138554693Y-89863504D01*
X138533499Y-89832800D01*
X138518543Y-89819550D01*
X138458979Y-89766780D01*
X138440393Y-89737388D01*
X138440393Y-89702611D01*
X138458979Y-89673219D01*
X138533498Y-89607201D01*
X138623787Y-89476395D01*
X138680149Y-89327782D01*
X138699307Y-89170000D01*
X138686775Y-89066792D01*
X138680149Y-89012217D01*
X138623788Y-88863607D01*
X138613416Y-88848581D01*
X138577757Y-88796919D01*
X138533497Y-88732797D01*
X138414529Y-88627401D01*
X138273794Y-88553536D01*
X138119471Y-88515500D01*
X138006990Y-88515500D01*
X137962796Y-88497194D01*
X137947346Y-88459896D01*
X137945343Y-88460231D01*
X137943265Y-88447782D01*
X137940815Y-88433103D01*
X137940447Y-88430573D01*
X137940099Y-88427782D01*
X137933742Y-88376780D01*
X137933741Y-88376778D01*
X137933638Y-88375951D01*
X137929289Y-88362374D01*
X137924660Y-88353821D01*
X137903103Y-88313986D01*
X137901939Y-88311727D01*
X137878116Y-88262995D01*
X137878114Y-88262993D01*
X137877748Y-88262244D01*
X137869227Y-88250816D01*
X137828746Y-88213550D01*
X137826883Y-88211762D01*
X136399912Y-86784791D01*
X136382807Y-86752790D01*
X136386364Y-86716679D01*
X136409381Y-86688631D01*
X136448160Y-86662721D01*
X136872517Y-86238362D01*
X136888033Y-86215142D01*
X136919908Y-86190682D01*
X136960089Y-86190682D01*
X136991966Y-86215142D01*
X137007481Y-86238362D01*
X137431836Y-86662716D01*
X137431839Y-86662718D01*
X137431840Y-86662719D01*
X137494773Y-86704771D01*
X137494774Y-86704771D01*
X137505111Y-86711678D01*
X137504031Y-86713293D01*
X137516120Y-86719750D01*
X137522592Y-86731857D01*
X137524209Y-86730778D01*
X137573166Y-86804048D01*
X137997521Y-87228402D01*
X137997524Y-87228404D01*
X137997525Y-87228405D01*
X138060458Y-87270457D01*
X138060459Y-87270457D01*
X138070796Y-87277364D01*
X138069717Y-87278978D01*
X138081800Y-87285430D01*
X138088277Y-87297543D01*
X138089895Y-87296463D01*
X138138852Y-87369733D01*
X138179405Y-87410286D01*
X138197711Y-87454480D01*
X138197711Y-87861967D01*
X138196381Y-87874793D01*
X138192792Y-87891909D01*
X138197231Y-87927519D01*
X138197711Y-87935250D01*
X138197711Y-87939255D01*
X138201381Y-87961256D01*
X138201753Y-87963806D01*
X138208561Y-88018416D01*
X138212914Y-88032004D01*
X138239091Y-88080374D01*
X138240273Y-88082671D01*
X138264449Y-88132124D01*
X138272976Y-88143558D01*
X138313453Y-88180820D01*
X138315316Y-88182608D01*
X138855741Y-88723033D01*
X138863869Y-88733041D01*
X138864454Y-88733936D01*
X138873437Y-88747685D01*
X138901755Y-88769725D01*
X138907557Y-88774850D01*
X138910387Y-88777680D01*
X138910390Y-88777682D01*
X138910391Y-88777683D01*
X138927001Y-88789542D01*
X138928534Y-88790636D01*
X138930606Y-88792181D01*
X138936694Y-88796919D01*
X138973386Y-88825478D01*
X138973387Y-88825478D01*
X138974046Y-88825991D01*
X138986729Y-88832519D01*
X138987524Y-88832755D01*
X138987525Y-88832756D01*
X139039453Y-88848214D01*
X139041882Y-88848992D01*
X139093178Y-88866603D01*
X139093179Y-88866603D01*
X139093963Y-88866872D01*
X139108077Y-88868928D01*
X139108912Y-88868893D01*
X139108914Y-88868894D01*
X139163034Y-88866655D01*
X139165616Y-88866603D01*
X139609836Y-88866603D01*
X139654030Y-88884909D01*
X139694582Y-88925461D01*
X139706622Y-88933506D01*
X139730177Y-88962894D01*
X139770648Y-89067361D01*
X139786537Y-89087421D01*
X139905605Y-89206489D01*
X140578772Y-88533324D01*
X140542751Y-88497303D01*
X140542748Y-88497301D01*
X140539173Y-88493726D01*
X140520867Y-88449532D01*
X140539172Y-88405339D01*
X140665747Y-88278764D01*
X140709940Y-88260459D01*
X140754134Y-88278765D01*
X140793731Y-88318362D01*
X141466897Y-87645197D01*
X141466897Y-87645196D01*
X141416778Y-87595078D01*
X141400602Y-87567060D01*
X141400602Y-87534708D01*
X141416774Y-87506695D01*
X142130664Y-86792806D01*
X142174859Y-86774500D01*
X142399042Y-86774500D01*
X142412326Y-86775927D01*
X142423640Y-86778389D01*
X142475793Y-86774659D01*
X142480253Y-86774500D01*
X142496079Y-86774500D01*
X142496083Y-86774500D01*
X142511780Y-86772242D01*
X142516170Y-86771771D01*
X142568342Y-86768040D01*
X142579192Y-86763992D01*
X142592133Y-86760689D01*
X142603596Y-86759042D01*
X142651158Y-86737320D01*
X142655263Y-86735619D01*
X142704267Y-86717343D01*
X142713538Y-86710401D01*
X142725025Y-86703586D01*
X142735558Y-86698777D01*
X142775094Y-86664517D01*
X142778531Y-86661748D01*
X142791221Y-86652250D01*
X142802427Y-86641042D01*
X142805664Y-86638028D01*
X142805696Y-86638000D01*
X144886000Y-86638000D01*
X145788000Y-86638000D01*
X145788000Y-85859000D01*
X145770321Y-85841321D01*
X145768806Y-85840694D01*
X145750500Y-85796500D01*
X145750500Y-84942000D01*
X146054500Y-84942000D01*
X146054500Y-85696000D01*
X146072178Y-85713678D01*
X146073694Y-85714306D01*
X146092000Y-85758500D01*
X146092000Y-86638000D01*
X146993999Y-86638000D01*
X146993999Y-85994614D01*
X146991050Y-85969193D01*
X146945143Y-85865221D01*
X146864778Y-85784856D01*
X146760807Y-85738949D01*
X146735386Y-85736000D01*
X146703940Y-85736000D01*
X146661803Y-85719660D01*
X146641699Y-85679183D01*
X146654140Y-85635735D01*
X146727440Y-85539073D01*
X146783308Y-85397402D01*
X146794000Y-85308369D01*
X146794000Y-84942000D01*
X146054500Y-84942000D01*
X145750500Y-84942000D01*
X145011000Y-84942000D01*
X145011000Y-85308369D01*
X145021691Y-85397402D01*
X145077559Y-85539073D01*
X145154089Y-85639993D01*
X145166703Y-85681030D01*
X145149867Y-85720523D01*
X145126575Y-85732256D01*
X145127844Y-85735130D01*
X145015221Y-85784856D01*
X144934856Y-85865221D01*
X144888949Y-85969192D01*
X144886000Y-85994614D01*
X144886000Y-86638000D01*
X142805696Y-86638000D01*
X142845196Y-86603775D01*
X142851456Y-86594032D01*
X142859835Y-86583634D01*
X143680665Y-85762805D01*
X143724859Y-85744499D01*
X144338254Y-85744499D01*
X144398342Y-85738040D01*
X144534267Y-85687342D01*
X144650404Y-85600404D01*
X144737342Y-85484267D01*
X144788040Y-85348342D01*
X144794500Y-85288255D01*
X144794499Y-84674857D01*
X144799257Y-84650940D01*
X144812802Y-84630667D01*
X144904306Y-84539163D01*
X144948500Y-84520858D01*
X144992694Y-84539164D01*
X145011000Y-84583358D01*
X145011000Y-84638000D01*
X146794000Y-84638000D01*
X146794000Y-84470859D01*
X146812306Y-84426665D01*
X146856500Y-84408359D01*
X146900694Y-84426665D01*
G37*
%TD.AperFunction*%
%TA.AperFunction,Conductor*%
G36*
X153800002Y-84607124D02*
G01*
X153822451Y-84639896D01*
X153820617Y-84679577D01*
X153795239Y-84710138D01*
X153771540Y-84724811D01*
X153620268Y-84862714D01*
X153496913Y-85026063D01*
X153405671Y-85209301D01*
X153349654Y-85406180D01*
X153330767Y-85610000D01*
X153349654Y-85813819D01*
X153405672Y-86010703D01*
X153417849Y-86035158D01*
X153423586Y-86073078D01*
X153406095Y-86107209D01*
X152404067Y-87109237D01*
X152394060Y-87117364D01*
X152379417Y-87126931D01*
X152357372Y-87155254D01*
X152352253Y-87161051D01*
X152349419Y-87163884D01*
X152336455Y-87182042D01*
X152334913Y-87184110D01*
X152301115Y-87227535D01*
X152294584Y-87240224D01*
X152278888Y-87292943D01*
X152278101Y-87295401D01*
X152260229Y-87347461D01*
X152258173Y-87361575D01*
X152260447Y-87416544D01*
X152260500Y-87419127D01*
X152260500Y-94623676D01*
X152254994Y-94649327D01*
X152239445Y-94670458D01*
X152146502Y-94752797D01*
X152056211Y-94883607D01*
X151999850Y-95032217D01*
X151980692Y-95189999D01*
X151999850Y-95347782D01*
X152056211Y-95496392D01*
X152146502Y-95627202D01*
X152236570Y-95706995D01*
X152265471Y-95732599D01*
X152290168Y-95745561D01*
X152406205Y-95806463D01*
X152560529Y-95844500D01*
X152719471Y-95844500D01*
X152873794Y-95806463D01*
X152925984Y-95779071D01*
X153014529Y-95732599D01*
X153133498Y-95627201D01*
X153221565Y-95499612D01*
X153252612Y-95476038D01*
X153291594Y-95475449D01*
X153323341Y-95498077D01*
X153335500Y-95535119D01*
X153335501Y-96023000D01*
X153327128Y-96054250D01*
X153304251Y-96077127D01*
X153273001Y-96085500D01*
X151907000Y-96085500D01*
X151862806Y-96067194D01*
X151844500Y-96023000D01*
X151844500Y-85250962D01*
X151845928Y-85237677D01*
X151846093Y-85236919D01*
X151848390Y-85226360D01*
X151844658Y-85174196D01*
X151844500Y-85169738D01*
X151844500Y-84657000D01*
X151862806Y-84612806D01*
X151907000Y-84594500D01*
X153762337Y-84594500D01*
X153800002Y-84607124D01*
G37*
%TD.AperFunction*%
%TA.AperFunction,Conductor*%
G36*
X136891418Y-88349685D02*
G01*
X137163631Y-88621898D01*
X137179339Y-88648258D01*
X137180607Y-88678917D01*
X137180570Y-88679088D01*
X137185010Y-88714700D01*
X137185490Y-88722431D01*
X137185490Y-88726436D01*
X137189160Y-88748437D01*
X137189532Y-88750987D01*
X137196340Y-88805597D01*
X137200693Y-88819185D01*
X137226870Y-88867555D01*
X137228052Y-88869852D01*
X137252228Y-88919305D01*
X137260755Y-88930739D01*
X137301232Y-88968001D01*
X137303095Y-88969789D01*
X137372450Y-89039144D01*
X137387337Y-89062950D01*
X137390300Y-89090871D01*
X137380692Y-89169999D01*
X137399850Y-89327782D01*
X137456211Y-89476392D01*
X137456212Y-89476394D01*
X137456213Y-89476395D01*
X137537592Y-89594293D01*
X137546503Y-89607202D01*
X137621018Y-89673218D01*
X137639605Y-89702612D01*
X137639605Y-89737388D01*
X137621018Y-89766782D01*
X137546503Y-89832797D01*
X137456211Y-89963607D01*
X137399850Y-90112217D01*
X137380692Y-90269999D01*
X137399850Y-90427782D01*
X137456211Y-90576392D01*
X137546502Y-90707202D01*
X137647177Y-90796392D01*
X137665471Y-90812599D01*
X137681200Y-90820854D01*
X137806205Y-90886463D01*
X137960529Y-90924500D01*
X138119471Y-90924500D01*
X138273794Y-90886463D01*
X138370893Y-90835501D01*
X138414529Y-90812599D01*
X138533498Y-90707201D01*
X138549292Y-90684320D01*
X138554693Y-90676496D01*
X138577084Y-90656659D01*
X138606129Y-90649500D01*
X140142585Y-90649500D01*
X140155410Y-90650829D01*
X140172527Y-90654419D01*
X140208137Y-90649979D01*
X140215868Y-90649500D01*
X140219868Y-90649500D01*
X140219870Y-90649500D01*
X140241925Y-90645819D01*
X140244379Y-90645461D01*
X140298210Y-90638752D01*
X140298211Y-90638751D01*
X140299039Y-90638648D01*
X140312614Y-90634299D01*
X140313350Y-90633900D01*
X140313354Y-90633900D01*
X140361047Y-90608089D01*
X140363254Y-90606953D01*
X140411995Y-90583126D01*
X140411996Y-90583124D01*
X140412748Y-90582757D01*
X140424171Y-90574238D01*
X140424738Y-90573621D01*
X140424743Y-90573619D01*
X140461461Y-90533731D01*
X140463202Y-90531917D01*
X140845210Y-90149909D01*
X140877209Y-90132806D01*
X140913320Y-90136363D01*
X140941368Y-90159381D01*
X140965059Y-90194837D01*
X140967279Y-90198160D01*
X141391636Y-90622516D01*
X141414857Y-90638032D01*
X141439317Y-90669909D01*
X141439317Y-90710088D01*
X141414858Y-90741965D01*
X141391638Y-90757480D01*
X140967283Y-91181836D01*
X140954506Y-91200958D01*
X140925229Y-91244773D01*
X140925228Y-91244775D01*
X140918323Y-91255110D01*
X140916710Y-91254032D01*
X140910250Y-91266119D01*
X140898143Y-91272595D01*
X140899222Y-91274209D01*
X140825951Y-91323166D01*
X140401594Y-91747524D01*
X140352635Y-91820795D01*
X140351022Y-91819717D01*
X140344549Y-91831820D01*
X140332459Y-91838282D01*
X140333537Y-91839895D01*
X140260266Y-91888852D01*
X139835912Y-92313207D01*
X139818427Y-92339373D01*
X139793858Y-92376144D01*
X139793857Y-92376146D01*
X139786952Y-92386481D01*
X139785337Y-92385402D01*
X139778871Y-92397499D01*
X139766773Y-92403965D01*
X139767852Y-92405580D01*
X139694581Y-92454537D01*
X139270224Y-92878895D01*
X139221265Y-92952166D01*
X139219651Y-92951088D01*
X139213176Y-92963193D01*
X139201088Y-92969653D01*
X139202166Y-92971266D01*
X139128895Y-93020223D01*
X138704541Y-93444578D01*
X138694204Y-93460049D01*
X138662487Y-93507515D01*
X138662486Y-93507517D01*
X138655581Y-93517852D01*
X138653966Y-93516773D01*
X138647500Y-93528870D01*
X138635402Y-93535336D01*
X138636481Y-93536951D01*
X138563210Y-93585908D01*
X138138856Y-94010263D01*
X138125263Y-94030607D01*
X138096802Y-94073200D01*
X138096801Y-94073202D01*
X138089896Y-94083537D01*
X138088283Y-94082459D01*
X138081823Y-94094546D01*
X138069716Y-94101022D01*
X138070795Y-94102636D01*
X137997524Y-94151593D01*
X137573167Y-94575951D01*
X137524208Y-94649222D01*
X137522595Y-94648144D01*
X137516122Y-94660247D01*
X137504032Y-94666709D01*
X137505110Y-94668322D01*
X137431839Y-94717279D01*
X137007484Y-95141635D01*
X136991966Y-95164859D01*
X136960089Y-95189318D01*
X136919909Y-95189317D01*
X136888033Y-95164857D01*
X136872518Y-95141637D01*
X136448160Y-94717280D01*
X136413441Y-94694081D01*
X136391460Y-94668398D01*
X136386068Y-94635026D01*
X136398843Y-94603727D01*
X136400578Y-94601497D01*
X136400582Y-94601495D01*
X136422629Y-94573166D01*
X136427754Y-94567366D01*
X136430581Y-94564540D01*
X136443563Y-94546355D01*
X136445054Y-94544355D01*
X136478375Y-94501546D01*
X136478375Y-94501544D01*
X136478892Y-94500881D01*
X136485413Y-94488211D01*
X136485664Y-94487368D01*
X136501121Y-94435445D01*
X136501881Y-94433073D01*
X136519500Y-94381754D01*
X136519500Y-94381750D01*
X136519770Y-94380964D01*
X136521826Y-94366851D01*
X136520910Y-94344701D01*
X136519552Y-94311872D01*
X136519500Y-94309291D01*
X136519500Y-88836324D01*
X136525006Y-88810673D01*
X136540555Y-88789542D01*
X136633497Y-88707202D01*
X136633498Y-88707201D01*
X136723787Y-88576395D01*
X136780149Y-88427782D01*
X136785180Y-88386346D01*
X136806729Y-88346273D01*
X136849740Y-88331430D01*
X136891418Y-88349685D01*
G37*
%TD.AperFunction*%
%TA.AperFunction,Conductor*%
G36*
X156142107Y-90292522D02*
G01*
X156171968Y-90320012D01*
X156186878Y-90347564D01*
X156188060Y-90349860D01*
X156212236Y-90399313D01*
X156220763Y-90410747D01*
X156261240Y-90448009D01*
X156263103Y-90449797D01*
X159007494Y-93194188D01*
X159025519Y-93232466D01*
X159015031Y-93273455D01*
X159005588Y-93287382D01*
X158941677Y-93447787D01*
X158936791Y-93460049D01*
X158908947Y-93629897D01*
X158906722Y-93643467D01*
X158916783Y-93829055D01*
X158923315Y-93852579D01*
X158966508Y-94008148D01*
X159019784Y-94108636D01*
X159020629Y-94110230D01*
X159027218Y-94148781D01*
X159009604Y-94183700D01*
X158723893Y-94469411D01*
X158686294Y-94487368D01*
X158645764Y-94477702D01*
X158620316Y-94444710D01*
X158621261Y-94403054D01*
X158623785Y-94396396D01*
X158623787Y-94396395D01*
X158680149Y-94247782D01*
X158699307Y-94090000D01*
X158693142Y-94039230D01*
X158680149Y-93932217D01*
X158623788Y-93783607D01*
X158619883Y-93777950D01*
X158569018Y-93704258D01*
X158533497Y-93652797D01*
X158414529Y-93547401D01*
X158273794Y-93473536D01*
X158119471Y-93435500D01*
X157960529Y-93435500D01*
X157952941Y-93435500D01*
X157952941Y-93434479D01*
X157932251Y-93434162D01*
X157904848Y-93418154D01*
X156072807Y-91586113D01*
X156054501Y-91541919D01*
X156054501Y-90349758D01*
X156067680Y-90311370D01*
X156101658Y-90289170D01*
X156142107Y-90292522D01*
G37*
%TD.AperFunction*%
%TA.AperFunction,Conductor*%
G36*
X135745693Y-90276865D02*
G01*
X135760500Y-90317258D01*
X135760500Y-93878731D01*
X135742194Y-93922925D01*
X135698000Y-93941231D01*
X135653806Y-93922925D01*
X135316791Y-93585912D01*
X135316789Y-93585910D01*
X135304746Y-93577862D01*
X135281192Y-93548476D01*
X135240720Y-93444006D01*
X135224833Y-93423949D01*
X135105764Y-93304881D01*
X134261832Y-94148812D01*
X134217638Y-94167118D01*
X134173444Y-94148812D01*
X134046872Y-94022240D01*
X134028566Y-93978046D01*
X134046872Y-93933852D01*
X134890804Y-93089920D01*
X134890804Y-93089919D01*
X134771738Y-92970855D01*
X134751674Y-92954962D01*
X134647211Y-92914492D01*
X134617823Y-92890937D01*
X134609777Y-92878896D01*
X134185418Y-92454538D01*
X134112148Y-92405579D01*
X134113227Y-92403963D01*
X134101121Y-92397491D01*
X134094663Y-92385402D01*
X134093049Y-92386481D01*
X134044091Y-92313210D01*
X133846808Y-92115927D01*
X133829079Y-92080203D01*
X133836564Y-92041029D01*
X133866215Y-92014358D01*
X133905957Y-92011049D01*
X133960529Y-92024500D01*
X134119471Y-92024500D01*
X134273794Y-91986463D01*
X134340914Y-91951235D01*
X134414529Y-91912599D01*
X134533498Y-91807201D01*
X134623787Y-91676395D01*
X134680149Y-91527782D01*
X134699307Y-91370000D01*
X134689699Y-91290870D01*
X134692662Y-91262949D01*
X134707547Y-91239145D01*
X135538724Y-90407968D01*
X135548731Y-90399843D01*
X135563371Y-90390279D01*
X135585412Y-90361959D01*
X135590543Y-90356150D01*
X135593369Y-90353325D01*
X135606336Y-90335161D01*
X135607872Y-90333102D01*
X135647571Y-90282099D01*
X135649646Y-90283714D01*
X135666009Y-90263566D01*
X135708288Y-90255611D01*
X135745693Y-90276865D01*
G37*
%TD.AperFunction*%
%TA.AperFunction,Conductor*%
G36*
X143476102Y-82062796D02*
G01*
X144239236Y-82825930D01*
X144247364Y-82835938D01*
X144251325Y-82842000D01*
X144256932Y-82850582D01*
X144285257Y-82872628D01*
X144291053Y-82877747D01*
X144293887Y-82880581D01*
X144312033Y-82893537D01*
X144314099Y-82895077D01*
X144324814Y-82903416D01*
X144357541Y-82928889D01*
X144370221Y-82935415D01*
X144387021Y-82940416D01*
X144422962Y-82951115D01*
X144425384Y-82951891D01*
X144476673Y-82969500D01*
X144476674Y-82969500D01*
X144477460Y-82969770D01*
X144491575Y-82971826D01*
X144492408Y-82971791D01*
X144492410Y-82971792D01*
X144546554Y-82969552D01*
X144549136Y-82969500D01*
X149673871Y-82969500D01*
X149702916Y-82976659D01*
X149725307Y-82996496D01*
X149746500Y-83027199D01*
X149746501Y-83027200D01*
X149746502Y-83027201D01*
X149810749Y-83084119D01*
X149865471Y-83132599D01*
X150006205Y-83206463D01*
X150160529Y-83244500D01*
X150319471Y-83244500D01*
X150473794Y-83206463D01*
X150534533Y-83174584D01*
X150614529Y-83132599D01*
X150712274Y-83046004D01*
X150731555Y-83028923D01*
X150775517Y-83013256D01*
X150818075Y-83032410D01*
X150835500Y-83075705D01*
X150835500Y-84473001D01*
X150817194Y-84517195D01*
X150773000Y-84535501D01*
X148881999Y-84535501D01*
X148837805Y-84517195D01*
X148819499Y-84473001D01*
X148819499Y-84266746D01*
X148817054Y-84243999D01*
X148813040Y-84206658D01*
X148762342Y-84070733D01*
X148706692Y-83996392D01*
X148675404Y-83954595D01*
X148559267Y-83867658D01*
X148423342Y-83816959D01*
X148369086Y-83811127D01*
X148363255Y-83810500D01*
X148363254Y-83810500D01*
X147737359Y-83810500D01*
X147693165Y-83792194D01*
X147202330Y-83301359D01*
X147193946Y-83290956D01*
X147193331Y-83289999D01*
X147187686Y-83281215D01*
X147148169Y-83246973D01*
X147144905Y-83243934D01*
X147133711Y-83232740D01*
X147121030Y-83223247D01*
X147117557Y-83220448D01*
X147078048Y-83186212D01*
X147067516Y-83181403D01*
X147056028Y-83174586D01*
X147046757Y-83167647D01*
X147046755Y-83167646D01*
X146997765Y-83149373D01*
X146993644Y-83147666D01*
X146946084Y-83125946D01*
X146934620Y-83124298D01*
X146921677Y-83120994D01*
X146910834Y-83116950D01*
X146858670Y-83113218D01*
X146854239Y-83112741D01*
X146838576Y-83110490D01*
X146838573Y-83110490D01*
X146822743Y-83110490D01*
X146818284Y-83110331D01*
X146766130Y-83106601D01*
X146754817Y-83109062D01*
X146741532Y-83110490D01*
X145175968Y-83110490D01*
X145162683Y-83109062D01*
X145151370Y-83106601D01*
X145151369Y-83106601D01*
X145099216Y-83110331D01*
X145094757Y-83110490D01*
X145078924Y-83110490D01*
X145063261Y-83112741D01*
X145058830Y-83113218D01*
X145006666Y-83116949D01*
X144995818Y-83120996D01*
X144982875Y-83124300D01*
X144971414Y-83125948D01*
X144923858Y-83147665D01*
X144919739Y-83149371D01*
X144870742Y-83167647D01*
X144861468Y-83174589D01*
X144849987Y-83181401D01*
X144839449Y-83186214D01*
X144799934Y-83220453D01*
X144796465Y-83223249D01*
X144783789Y-83232739D01*
X144772590Y-83243937D01*
X144769329Y-83246973D01*
X144729814Y-83281214D01*
X144723553Y-83290956D01*
X144715171Y-83301356D01*
X144199333Y-83817194D01*
X144155139Y-83835500D01*
X143541745Y-83835500D01*
X143481657Y-83841960D01*
X143345732Y-83892658D01*
X143229595Y-83979595D01*
X143142658Y-84095732D01*
X143091959Y-84231657D01*
X143085500Y-84291746D01*
X143085500Y-84905140D01*
X143067194Y-84949334D01*
X142901193Y-85115335D01*
X142856999Y-85133641D01*
X142812805Y-85115335D01*
X142794499Y-85071141D01*
X142794499Y-84291746D01*
X142793624Y-84283605D01*
X142788040Y-84231658D01*
X142737342Y-84095733D01*
X142703812Y-84050942D01*
X142650404Y-83979595D01*
X142534267Y-83892658D01*
X142429396Y-83853542D01*
X142397226Y-83826430D01*
X142389529Y-83785069D01*
X142409792Y-83748202D01*
X142433498Y-83727201D01*
X142523787Y-83596395D01*
X142580149Y-83447782D01*
X142599307Y-83290000D01*
X142594013Y-83246402D01*
X142580149Y-83132217D01*
X142523788Y-82983607D01*
X142518992Y-82976659D01*
X142462140Y-82894294D01*
X142433497Y-82852797D01*
X142314529Y-82747401D01*
X142173794Y-82673536D01*
X142019471Y-82635500D01*
X141860529Y-82635500D01*
X141706205Y-82673536D01*
X141565470Y-82747401D01*
X141446502Y-82852797D01*
X141356211Y-82983607D01*
X141299850Y-83132217D01*
X141280692Y-83289999D01*
X141299850Y-83447782D01*
X141356211Y-83596392D01*
X141446502Y-83727202D01*
X141470205Y-83748200D01*
X141490470Y-83785069D01*
X141482773Y-83826430D01*
X141450603Y-83853542D01*
X141345732Y-83892658D01*
X141229595Y-83979595D01*
X141142658Y-84095732D01*
X141091959Y-84231657D01*
X141085500Y-84291745D01*
X141085500Y-85288254D01*
X141091960Y-85348342D01*
X141142658Y-85484267D01*
X141229595Y-85600404D01*
X141314505Y-85663965D01*
X141345733Y-85687342D01*
X141421227Y-85715500D01*
X141481657Y-85738040D01*
X141487489Y-85738667D01*
X141541745Y-85744500D01*
X141608498Y-85744499D01*
X141644142Y-85755660D01*
X141667056Y-85785157D01*
X141669056Y-85822456D01*
X141649425Y-85854234D01*
X141624925Y-85875463D01*
X141621455Y-85878259D01*
X141608779Y-85887749D01*
X141597580Y-85898947D01*
X141594319Y-85901983D01*
X141554804Y-85936224D01*
X141548543Y-85945966D01*
X141540161Y-85956366D01*
X140703307Y-86793220D01*
X140659113Y-86811526D01*
X140614919Y-86793220D01*
X140550486Y-86728787D01*
X139877321Y-87401953D01*
X139913342Y-87437974D01*
X139913344Y-87437975D01*
X139916920Y-87441551D01*
X139933096Y-87469569D01*
X139933096Y-87501921D01*
X139916920Y-87529939D01*
X139790347Y-87656511D01*
X139762329Y-87672687D01*
X139729976Y-87672687D01*
X139701958Y-87656511D01*
X139662361Y-87616913D01*
X139286879Y-87992395D01*
X139242685Y-88010701D01*
X139198491Y-87992395D01*
X139071919Y-87865823D01*
X139053613Y-87821629D01*
X139071919Y-87777435D01*
X139662361Y-87186993D01*
X140335526Y-86513826D01*
X140335526Y-86513825D01*
X140216460Y-86394761D01*
X140196396Y-86378868D01*
X140091934Y-86338399D01*
X140062545Y-86314843D01*
X140054499Y-86302801D01*
X139630141Y-85878445D01*
X139556871Y-85829486D01*
X139557950Y-85827871D01*
X139545834Y-85821389D01*
X139539383Y-85809310D01*
X139537771Y-85810388D01*
X139506134Y-85763040D01*
X139488814Y-85737118D01*
X139448261Y-85696565D01*
X139429955Y-85652371D01*
X139429955Y-83946297D01*
X139431285Y-83933471D01*
X139434874Y-83916355D01*
X139430434Y-83880744D01*
X139429955Y-83873014D01*
X139429955Y-83869013D01*
X139426282Y-83847000D01*
X139425910Y-83844445D01*
X139419104Y-83789845D01*
X139414753Y-83776264D01*
X139388570Y-83727882D01*
X139387387Y-83725585D01*
X139385523Y-83721772D01*
X139363581Y-83676887D01*
X139363579Y-83676885D01*
X139363213Y-83676136D01*
X139354692Y-83664708D01*
X139314211Y-83627442D01*
X139312348Y-83625654D01*
X138612805Y-82926111D01*
X138594499Y-82881917D01*
X138594499Y-82106990D01*
X138612805Y-82062796D01*
X138656999Y-82044490D01*
X143431908Y-82044490D01*
X143476102Y-82062796D01*
G37*
%TD.AperFunction*%
%TA.AperFunction,Conductor*%
G36*
X136417694Y-82062796D02*
G01*
X136436000Y-82106990D01*
X136436000Y-82838000D01*
X137443999Y-82838000D01*
X137443999Y-82106990D01*
X137462305Y-82062796D01*
X137506499Y-82044490D01*
X137623000Y-82044490D01*
X137667194Y-82062796D01*
X137685500Y-82106990D01*
X137685500Y-83965067D01*
X137700265Y-84039300D01*
X137756515Y-84123484D01*
X137830621Y-84173000D01*
X137840699Y-84179734D01*
X137914933Y-84194500D01*
X138365066Y-84194499D01*
X138365067Y-84194499D01*
X138402183Y-84187116D01*
X138439301Y-84179734D01*
X138523484Y-84123484D01*
X138556488Y-84074089D01*
X138587400Y-84049967D01*
X138626598Y-84049005D01*
X138658656Y-84071583D01*
X138670955Y-84108814D01*
X138670955Y-84768371D01*
X138652649Y-84812565D01*
X138608455Y-84830871D01*
X138564261Y-84812565D01*
X138498770Y-84747074D01*
X138435837Y-84705022D01*
X138336536Y-84685271D01*
X138237235Y-84705022D01*
X138174301Y-84747073D01*
X137614285Y-85307091D01*
X137594009Y-85320639D01*
X137570091Y-85325397D01*
X137437979Y-85325397D01*
X137393785Y-85307091D01*
X136194440Y-84107746D01*
X136178825Y-84081695D01*
X136177335Y-84051358D01*
X136179732Y-84039302D01*
X136179734Y-84039301D01*
X136194500Y-83965067D01*
X136194500Y-83142000D01*
X136436001Y-83142000D01*
X136436001Y-83985386D01*
X136438949Y-84010806D01*
X136484856Y-84114778D01*
X136565221Y-84195143D01*
X136669192Y-84241050D01*
X136694614Y-84244000D01*
X136788000Y-84244000D01*
X136788000Y-83142000D01*
X137092000Y-83142000D01*
X137092000Y-84243999D01*
X137185386Y-84243999D01*
X137210806Y-84241050D01*
X137314778Y-84195143D01*
X137395143Y-84114778D01*
X137441050Y-84010807D01*
X137444000Y-83985386D01*
X137444000Y-83142000D01*
X137092000Y-83142000D01*
X136788000Y-83142000D01*
X136436001Y-83142000D01*
X136194500Y-83142000D01*
X136194499Y-82106989D01*
X136202872Y-82075740D01*
X136225749Y-82052863D01*
X136256999Y-82044490D01*
X136373500Y-82044490D01*
X136417694Y-82062796D01*
G37*
%TD.AperFunction*%
%TA.AperFunction,Conductor*%
G36*
X158896910Y-79656957D02*
G01*
X158919424Y-79689383D01*
X158918014Y-79728833D01*
X158916959Y-79731659D01*
X158910500Y-79791745D01*
X158910500Y-80588254D01*
X158916960Y-80648342D01*
X158954888Y-80750030D01*
X158957401Y-80785157D01*
X158940523Y-80816066D01*
X156775694Y-82980896D01*
X156743693Y-82998001D01*
X156707582Y-82994444D01*
X156679533Y-82971425D01*
X156669000Y-82936702D01*
X156669000Y-82592000D01*
X154886000Y-82592000D01*
X154886000Y-82958369D01*
X154896691Y-83047402D01*
X154952559Y-83189073D01*
X155044579Y-83310420D01*
X155165926Y-83402440D01*
X155307597Y-83458308D01*
X155329562Y-83460946D01*
X155370083Y-83482939D01*
X155384498Y-83526733D01*
X155364964Y-83568495D01*
X155322110Y-83585500D01*
X151907000Y-83585500D01*
X151862806Y-83567194D01*
X151844500Y-83523000D01*
X151844500Y-83164297D01*
X151861925Y-83121002D01*
X151904484Y-83101848D01*
X151948444Y-83117514D01*
X151957961Y-83125946D01*
X151965471Y-83132599D01*
X152106205Y-83206463D01*
X152260529Y-83244500D01*
X152419471Y-83244500D01*
X152573794Y-83206463D01*
X152647753Y-83167646D01*
X152714529Y-83132599D01*
X152791557Y-83064357D01*
X152828085Y-83048834D01*
X152866598Y-83058438D01*
X152891560Y-83089298D01*
X152917658Y-83159267D01*
X153004595Y-83275404D01*
X153088547Y-83338248D01*
X153120733Y-83362342D01*
X153179516Y-83384267D01*
X153256657Y-83413040D01*
X153262489Y-83413667D01*
X153316745Y-83419500D01*
X154088254Y-83419499D01*
X154148342Y-83413040D01*
X154284267Y-83362342D01*
X154400404Y-83275404D01*
X154487342Y-83159267D01*
X154538040Y-83023342D01*
X154544500Y-82963255D01*
X154544499Y-82337357D01*
X154549257Y-82313440D01*
X154562802Y-82293167D01*
X154779305Y-82076664D01*
X154823500Y-82058358D01*
X154867694Y-82076664D01*
X154886000Y-82120858D01*
X154886000Y-82288000D01*
X155625500Y-82288000D01*
X155625500Y-81411000D01*
X155929500Y-81411000D01*
X155929500Y-82288000D01*
X156669000Y-82288000D01*
X156669000Y-81921631D01*
X156658308Y-81832597D01*
X156602440Y-81690926D01*
X156510420Y-81569579D01*
X156389073Y-81477559D01*
X156247402Y-81421691D01*
X156158369Y-81411000D01*
X155929500Y-81411000D01*
X155625500Y-81411000D01*
X155595858Y-81411000D01*
X155551664Y-81392694D01*
X155533358Y-81348500D01*
X155551664Y-81304306D01*
X155793165Y-81062805D01*
X156053634Y-80802335D01*
X156064032Y-80793956D01*
X156073775Y-80787696D01*
X156108028Y-80748164D01*
X156111042Y-80744927D01*
X156122250Y-80733721D01*
X156131748Y-80721031D01*
X156134517Y-80717594D01*
X156168777Y-80678058D01*
X156173586Y-80667525D01*
X156180401Y-80656038D01*
X156187343Y-80646767D01*
X156205619Y-80597763D01*
X156207324Y-80593650D01*
X156209789Y-80588254D01*
X156229042Y-80546096D01*
X156230689Y-80534633D01*
X156233992Y-80521692D01*
X156238040Y-80510842D01*
X156241771Y-80458670D01*
X156242242Y-80454280D01*
X156244500Y-80438583D01*
X156244500Y-80422753D01*
X156244659Y-80418294D01*
X156244706Y-80417634D01*
X156248389Y-80366140D01*
X156245927Y-80354826D01*
X156244500Y-80341542D01*
X156244500Y-80006169D01*
X156259475Y-79965578D01*
X156297222Y-79944438D01*
X156391555Y-79929498D01*
X156505723Y-79871326D01*
X156596326Y-79780723D01*
X156648353Y-79678614D01*
X156671385Y-79653700D01*
X156704041Y-79644490D01*
X158859455Y-79644490D01*
X158896910Y-79656957D01*
G37*
%TD.AperFunction*%
%TA.AperFunction,Conductor*%
G36*
X167931640Y-77215585D02*
G01*
X168237643Y-77231623D01*
X168244145Y-77232305D01*
X168545218Y-77279990D01*
X168551592Y-77281346D01*
X168846011Y-77360235D01*
X168852213Y-77362249D01*
X169096221Y-77455916D01*
X169136782Y-77471486D01*
X169142758Y-77474147D01*
X169187457Y-77496922D01*
X169414339Y-77612523D01*
X169419986Y-77615783D01*
X169675622Y-77781796D01*
X169680903Y-77785632D01*
X169743102Y-77836000D01*
X169917789Y-77977459D01*
X169922650Y-77981837D01*
X170138162Y-78197349D01*
X170142540Y-78202210D01*
X170212011Y-78288000D01*
X170334362Y-78439090D01*
X170338205Y-78444381D01*
X170499431Y-78692646D01*
X170504210Y-78700004D01*
X170507481Y-78705670D01*
X170645852Y-78977241D01*
X170648513Y-78983217D01*
X170757746Y-79267776D01*
X170759767Y-79273998D01*
X170838650Y-79568395D01*
X170840011Y-79574794D01*
X170887693Y-79875852D01*
X170888376Y-79882358D01*
X170904414Y-80188359D01*
X170904500Y-80191630D01*
X170904500Y-101188370D01*
X170904414Y-101191641D01*
X170888376Y-101497641D01*
X170887693Y-101504147D01*
X170840011Y-101805205D01*
X170838650Y-101811604D01*
X170759767Y-102106001D01*
X170757746Y-102112223D01*
X170648513Y-102396782D01*
X170645852Y-102402758D01*
X170507481Y-102674329D01*
X170504210Y-102679995D01*
X170338207Y-102935616D01*
X170334362Y-102940909D01*
X170142540Y-103177789D01*
X170138162Y-103182650D01*
X169922650Y-103398162D01*
X169917789Y-103402540D01*
X169680909Y-103594362D01*
X169675616Y-103598207D01*
X169419995Y-103764210D01*
X169414329Y-103767481D01*
X169142758Y-103905852D01*
X169136782Y-103908513D01*
X168852223Y-104017746D01*
X168846001Y-104019767D01*
X168551604Y-104098650D01*
X168545205Y-104100011D01*
X168244147Y-104147693D01*
X168237641Y-104148376D01*
X167931643Y-104164412D01*
X167928370Y-104164498D01*
X101948285Y-104162500D01*
X101941630Y-104162500D01*
X101938359Y-104162414D01*
X101632358Y-104146376D01*
X101625852Y-104145693D01*
X101324794Y-104098011D01*
X101318395Y-104096650D01*
X101023998Y-104017767D01*
X101017776Y-104015746D01*
X100733217Y-103906513D01*
X100727241Y-103903852D01*
X100515064Y-103795743D01*
X100455667Y-103765479D01*
X100450004Y-103762210D01*
X100401760Y-103730880D01*
X100194381Y-103596205D01*
X100189090Y-103592362D01*
X100127493Y-103542482D01*
X99952210Y-103400540D01*
X99947349Y-103396162D01*
X99731837Y-103180650D01*
X99727459Y-103175789D01*
X99569514Y-102980743D01*
X99535632Y-102938903D01*
X99531792Y-102933616D01*
X99528644Y-102928768D01*
X99365783Y-102677986D01*
X99362523Y-102672339D01*
X99227204Y-102406758D01*
X99224147Y-102400758D01*
X99221486Y-102394782D01*
X99198256Y-102334267D01*
X99112249Y-102110213D01*
X99110235Y-102104011D01*
X99031346Y-101809592D01*
X99029990Y-101803218D01*
X98982305Y-101502145D01*
X98981623Y-101495641D01*
X98972121Y-101314335D01*
X100439500Y-101314335D01*
X100480429Y-101559614D01*
X100561172Y-101794810D01*
X100679526Y-102013509D01*
X100832262Y-102209744D01*
X101001521Y-102365558D01*
X101015215Y-102378164D01*
X101202317Y-102500404D01*
X101223393Y-102514173D01*
X101451119Y-102614063D01*
X101451120Y-102614063D01*
X101451122Y-102614064D01*
X101692174Y-102675107D01*
X101692175Y-102675107D01*
X101692179Y-102675108D01*
X101877933Y-102690500D01*
X102002062Y-102690500D01*
X102002067Y-102690500D01*
X102187821Y-102675108D01*
X102428881Y-102614063D01*
X102656607Y-102514173D01*
X102864785Y-102378164D01*
X103047738Y-102209744D01*
X103200474Y-102013509D01*
X103318828Y-101794810D01*
X103399571Y-101559614D01*
X103440500Y-101314335D01*
X103440500Y-101065665D01*
X103399571Y-100820386D01*
X103318828Y-100585190D01*
X103200474Y-100366491D01*
X103047738Y-100170256D01*
X102864785Y-100001836D01*
X102864784Y-100001835D01*
X102656608Y-99865827D01*
X102428877Y-99765935D01*
X102187825Y-99704892D01*
X102105263Y-99698051D01*
X102002067Y-99689500D01*
X101877933Y-99689500D01*
X101785055Y-99697196D01*
X101692174Y-99704892D01*
X101451122Y-99765935D01*
X101223391Y-99865827D01*
X101015215Y-100001835D01*
X100832260Y-100170258D01*
X100679527Y-100366489D01*
X100561173Y-100585187D01*
X100561171Y-100585190D01*
X100561172Y-100585190D01*
X100480429Y-100820386D01*
X100439500Y-101065665D01*
X100439500Y-101314335D01*
X98972121Y-101314335D01*
X98965586Y-101189641D01*
X98965500Y-101186370D01*
X98965500Y-96194094D01*
X98966035Y-96185936D01*
X98980594Y-96075347D01*
X98984814Y-96059594D01*
X99025925Y-95960343D01*
X99034072Y-95946232D01*
X99099475Y-95860997D01*
X99110997Y-95849475D01*
X99196232Y-95784072D01*
X99210343Y-95775925D01*
X99309594Y-95734814D01*
X99325346Y-95730594D01*
X99435936Y-95716034D01*
X99444094Y-95715500D01*
X99999209Y-95715500D01*
X99999210Y-95715500D01*
X100114660Y-95689149D01*
X100221352Y-95637769D01*
X100313936Y-95563936D01*
X100387769Y-95471352D01*
X100439149Y-95364660D01*
X100455141Y-95294591D01*
X100477107Y-95259634D01*
X100516075Y-95245999D01*
X103288000Y-95245999D01*
X103288000Y-93844000D01*
X103592000Y-93844000D01*
X103592000Y-95245999D01*
X106485386Y-95245999D01*
X106510806Y-95243050D01*
X106614778Y-95197143D01*
X106695143Y-95116778D01*
X106741050Y-95012807D01*
X106744000Y-94987386D01*
X106744000Y-93844000D01*
X103592000Y-93844000D01*
X103288000Y-93844000D01*
X103288000Y-93602500D01*
X103306306Y-93558306D01*
X103350500Y-93540000D01*
X106743999Y-93540000D01*
X106743999Y-92396614D01*
X106741050Y-92371193D01*
X106695143Y-92267221D01*
X106614778Y-92186856D01*
X106510807Y-92140949D01*
X106485386Y-92138000D01*
X104906499Y-92138000D01*
X104862305Y-92119694D01*
X104843999Y-92075500D01*
X104843999Y-91721614D01*
X104841050Y-91696193D01*
X104795143Y-91592221D01*
X104758660Y-91555738D01*
X104740354Y-91511610D01*
X104758567Y-91467443D01*
X104802654Y-91449045D01*
X104859380Y-91448865D01*
X104859646Y-91448864D01*
X105035996Y-91448124D01*
X105036416Y-91448124D01*
X105190381Y-91448968D01*
X105191724Y-91448991D01*
X105325074Y-91452908D01*
X105327648Y-91453036D01*
X105442853Y-91461192D01*
X105446551Y-91461566D01*
X105546962Y-91474790D01*
X105551733Y-91475609D01*
X105641892Y-91494702D01*
X105647282Y-91496098D01*
X105733042Y-91522454D01*
X105738446Y-91524391D01*
X105826088Y-91560450D01*
X105830939Y-91562693D01*
X105929293Y-91613413D01*
X105949663Y-91620312D01*
X105952597Y-91621306D01*
X105962009Y-91625383D01*
X106014485Y-91653432D01*
X106043508Y-91668945D01*
X106242282Y-91729242D01*
X106449000Y-91749602D01*
X106655718Y-91729242D01*
X106854492Y-91668945D01*
X106886486Y-91651842D01*
X106898902Y-91646832D01*
X106911956Y-91643132D01*
X107044496Y-91583127D01*
X107048056Y-91581647D01*
X107165186Y-91537177D01*
X107169544Y-91535703D01*
X107277207Y-91503699D01*
X107281945Y-91502491D01*
X107387483Y-91479974D01*
X107392033Y-91479177D01*
X107503369Y-91463925D01*
X107507141Y-91463525D01*
X107631400Y-91454142D01*
X107633996Y-91454003D01*
X107776746Y-91449387D01*
X107778262Y-91449357D01*
X107944203Y-91448191D01*
X107944510Y-91448190D01*
X108136867Y-91448853D01*
X108137004Y-91448854D01*
X108346510Y-91449464D01*
X108346510Y-91449463D01*
X108346511Y-91449464D01*
X108351774Y-91448785D01*
X108378270Y-91445370D01*
X108389316Y-91444933D01*
X108811977Y-91465697D01*
X108818071Y-91466297D01*
X109224056Y-91526518D01*
X109230035Y-91527708D01*
X109628175Y-91627437D01*
X109634007Y-91629205D01*
X110020467Y-91767483D01*
X110026097Y-91769816D01*
X110397117Y-91945295D01*
X110402508Y-91948177D01*
X110754540Y-92159176D01*
X110759628Y-92162576D01*
X111089276Y-92407060D01*
X111094010Y-92410944D01*
X111359082Y-92651193D01*
X111398105Y-92686562D01*
X111402441Y-92690898D01*
X111435240Y-92727086D01*
X111666174Y-92981882D01*
X111678055Y-92994990D01*
X111681944Y-92999730D01*
X111895281Y-93287382D01*
X111926419Y-93329366D01*
X111929826Y-93334465D01*
X112122855Y-93656516D01*
X112140817Y-93686483D01*
X112143708Y-93691892D01*
X112319170Y-94062877D01*
X112321518Y-94068543D01*
X112459787Y-94454979D01*
X112461567Y-94460849D01*
X112561282Y-94858936D01*
X112562479Y-94864951D01*
X112622700Y-95270922D01*
X112623301Y-95277026D01*
X112644425Y-95706995D01*
X112644500Y-95710062D01*
X112644500Y-99715067D01*
X112659265Y-99789300D01*
X112715515Y-99873484D01*
X112755804Y-99900404D01*
X112799699Y-99929734D01*
X112873933Y-99944500D01*
X113924066Y-99944499D01*
X113924067Y-99944499D01*
X113961183Y-99937116D01*
X113998301Y-99929734D01*
X114082484Y-99873484D01*
X114138734Y-99789301D01*
X114149458Y-99735386D01*
X114153500Y-99715068D01*
X114153500Y-98842000D01*
X114595001Y-98842000D01*
X114595001Y-99735386D01*
X114597949Y-99760806D01*
X114643856Y-99864778D01*
X114724221Y-99945143D01*
X114828192Y-99991050D01*
X114853614Y-99994000D01*
X115247000Y-99994000D01*
X115247000Y-98842000D01*
X115551000Y-98842000D01*
X115551000Y-99993999D01*
X115944386Y-99993999D01*
X115969806Y-99991050D01*
X116073778Y-99945143D01*
X116154143Y-99864778D01*
X116200050Y-99760807D01*
X116203000Y-99735386D01*
X116203000Y-99715067D01*
X116644500Y-99715067D01*
X116659265Y-99789300D01*
X116715515Y-99873484D01*
X116755804Y-99900404D01*
X116799699Y-99929734D01*
X116873933Y-99944500D01*
X117924066Y-99944499D01*
X117924067Y-99944499D01*
X117961183Y-99937116D01*
X117998301Y-99929734D01*
X118082484Y-99873484D01*
X118138734Y-99789301D01*
X118153500Y-99715067D01*
X118644500Y-99715067D01*
X118659265Y-99789300D01*
X118715515Y-99873484D01*
X118755804Y-99900404D01*
X118799699Y-99929734D01*
X118873933Y-99944500D01*
X119924066Y-99944499D01*
X119924067Y-99944499D01*
X119961183Y-99937116D01*
X119998301Y-99929734D01*
X120082484Y-99873484D01*
X120138734Y-99789301D01*
X120153500Y-99715067D01*
X120644500Y-99715067D01*
X120659265Y-99789300D01*
X120715515Y-99873484D01*
X120755804Y-99900404D01*
X120799699Y-99929734D01*
X120873933Y-99944500D01*
X121414140Y-99944499D01*
X121438058Y-99949257D01*
X121458334Y-99962805D01*
X121949161Y-100453632D01*
X121957545Y-100464036D01*
X121963804Y-100473776D01*
X122003318Y-100508015D01*
X122006583Y-100511055D01*
X122017776Y-100522248D01*
X122017779Y-100522250D01*
X122017780Y-100522251D01*
X122029472Y-100531004D01*
X122030453Y-100531738D01*
X122033927Y-100534538D01*
X122073443Y-100568778D01*
X122083973Y-100573587D01*
X122095464Y-100580404D01*
X122104734Y-100587343D01*
X122153729Y-100605616D01*
X122157842Y-100607321D01*
X122205402Y-100629042D01*
X122205403Y-100629042D01*
X122205405Y-100629043D01*
X122216867Y-100630690D01*
X122229812Y-100633994D01*
X122235976Y-100636294D01*
X122240658Y-100638041D01*
X122244946Y-100638347D01*
X122292832Y-100641772D01*
X122297216Y-100642243D01*
X122312918Y-100644501D01*
X122328748Y-100644501D01*
X122333207Y-100644660D01*
X122385361Y-100648390D01*
X122396674Y-100645928D01*
X122409959Y-100644501D01*
X128273000Y-100644501D01*
X128317194Y-100662807D01*
X128335500Y-100707001D01*
X128335500Y-102029042D01*
X128334072Y-102042327D01*
X128331611Y-102053640D01*
X128335341Y-102105794D01*
X128335500Y-102110253D01*
X128335500Y-102126086D01*
X128337751Y-102141749D01*
X128338228Y-102146180D01*
X128341960Y-102198344D01*
X128346004Y-102209187D01*
X128349308Y-102222130D01*
X128350956Y-102233594D01*
X128372676Y-102281154D01*
X128374383Y-102285275D01*
X128392656Y-102334265D01*
X128392657Y-102334267D01*
X128399596Y-102343538D01*
X128406413Y-102355026D01*
X128411222Y-102365558D01*
X128445458Y-102405067D01*
X128448257Y-102408540D01*
X128457750Y-102421221D01*
X128468944Y-102432415D01*
X128471984Y-102435680D01*
X128506225Y-102475196D01*
X128515966Y-102481456D01*
X128526369Y-102489840D01*
X129840161Y-103803632D01*
X129848545Y-103814036D01*
X129854804Y-103823776D01*
X129894318Y-103858015D01*
X129897583Y-103861055D01*
X129908776Y-103872248D01*
X129908779Y-103872250D01*
X129908780Y-103872251D01*
X129921451Y-103881737D01*
X129921453Y-103881738D01*
X129924927Y-103884538D01*
X129964443Y-103918778D01*
X129974973Y-103923587D01*
X129986464Y-103930404D01*
X129995734Y-103937343D01*
X130044729Y-103955616D01*
X130048842Y-103957321D01*
X130096402Y-103979042D01*
X130096403Y-103979042D01*
X130096405Y-103979043D01*
X130107867Y-103980690D01*
X130120812Y-103983994D01*
X130127108Y-103986343D01*
X130131658Y-103988041D01*
X130135946Y-103988347D01*
X130183832Y-103991772D01*
X130188216Y-103992243D01*
X130203918Y-103994501D01*
X130219748Y-103994501D01*
X130224207Y-103994660D01*
X130276361Y-103998390D01*
X130287674Y-103995928D01*
X130300959Y-103994501D01*
X145319041Y-103994501D01*
X145332325Y-103995928D01*
X145343639Y-103998390D01*
X145395792Y-103994660D01*
X145400252Y-103994501D01*
X145416078Y-103994501D01*
X145416082Y-103994501D01*
X145431779Y-103992243D01*
X145436169Y-103991772D01*
X145488341Y-103988041D01*
X145499191Y-103983993D01*
X145512132Y-103980690D01*
X145523595Y-103979043D01*
X145571157Y-103957321D01*
X145575262Y-103955620D01*
X145624266Y-103937344D01*
X145633537Y-103930402D01*
X145645024Y-103923587D01*
X145655557Y-103918778D01*
X145695093Y-103884518D01*
X145698530Y-103881749D01*
X145711220Y-103872251D01*
X145722426Y-103861043D01*
X145725663Y-103858029D01*
X145765195Y-103823776D01*
X145771455Y-103814033D01*
X145779834Y-103803635D01*
X146311709Y-103271760D01*
X146343001Y-103254802D01*
X146370525Y-103257032D01*
X146370751Y-103255824D01*
X146456014Y-103271762D01*
X146577653Y-103294500D01*
X146782346Y-103294500D01*
X146782347Y-103294500D01*
X146850631Y-103281735D01*
X146989250Y-103255824D01*
X146989476Y-103257035D01*
X147016988Y-103254800D01*
X147048291Y-103271762D01*
X147580161Y-103803632D01*
X147588545Y-103814036D01*
X147594804Y-103823775D01*
X147634318Y-103858014D01*
X147637584Y-103861055D01*
X147648780Y-103872251D01*
X147661460Y-103881744D01*
X147664931Y-103884541D01*
X147688936Y-103905341D01*
X147704443Y-103918778D01*
X147714976Y-103923588D01*
X147726459Y-103930401D01*
X147735734Y-103937344D01*
X147784739Y-103955621D01*
X147788835Y-103957318D01*
X147836405Y-103979043D01*
X147847866Y-103980690D01*
X147860810Y-103983994D01*
X147865265Y-103985656D01*
X147871658Y-103988041D01*
X147875946Y-103988347D01*
X147923832Y-103991772D01*
X147928216Y-103992243D01*
X147943918Y-103994501D01*
X147959748Y-103994501D01*
X147964207Y-103994660D01*
X148016361Y-103998390D01*
X148027674Y-103995928D01*
X148040959Y-103994501D01*
X159438979Y-103994501D01*
X159452263Y-103995928D01*
X159463577Y-103998390D01*
X159515730Y-103994660D01*
X159520190Y-103994501D01*
X159536016Y-103994501D01*
X159536020Y-103994501D01*
X159551717Y-103992243D01*
X159556107Y-103991772D01*
X159608279Y-103988041D01*
X159619129Y-103983993D01*
X159632070Y-103980690D01*
X159643533Y-103979043D01*
X159691095Y-103957321D01*
X159695200Y-103955620D01*
X159744204Y-103937344D01*
X159753475Y-103930402D01*
X159764962Y-103923587D01*
X159775495Y-103918778D01*
X159815031Y-103884518D01*
X159818468Y-103881749D01*
X159831158Y-103872251D01*
X159842364Y-103861043D01*
X159845601Y-103858029D01*
X159885133Y-103823776D01*
X159891393Y-103814033D01*
X159899772Y-103803635D01*
X161678644Y-102024763D01*
X161689042Y-102016384D01*
X161698785Y-102010124D01*
X161733038Y-101970592D01*
X161736052Y-101967355D01*
X161747260Y-101956149D01*
X161756758Y-101943459D01*
X161759527Y-101940022D01*
X161793787Y-101900486D01*
X161798596Y-101889953D01*
X161805411Y-101878466D01*
X161812353Y-101869195D01*
X161830629Y-101820191D01*
X161832334Y-101816078D01*
X161833274Y-101814021D01*
X161854052Y-101768524D01*
X161855699Y-101757061D01*
X161859002Y-101744120D01*
X161863050Y-101733270D01*
X161866780Y-101681097D01*
X161867255Y-101676683D01*
X161869510Y-101661011D01*
X161869510Y-101645190D01*
X161869669Y-101640731D01*
X161873400Y-101588568D01*
X161870937Y-101577249D01*
X161869510Y-101563966D01*
X161869510Y-101314335D01*
X166439500Y-101314335D01*
X166480429Y-101559614D01*
X166561172Y-101794810D01*
X166679526Y-102013509D01*
X166832262Y-102209744D01*
X167001521Y-102365558D01*
X167015215Y-102378164D01*
X167202317Y-102500404D01*
X167223393Y-102514173D01*
X167451119Y-102614063D01*
X167451120Y-102614063D01*
X167451122Y-102614064D01*
X167692174Y-102675107D01*
X167692175Y-102675107D01*
X167692179Y-102675108D01*
X167877933Y-102690500D01*
X168002062Y-102690500D01*
X168002067Y-102690500D01*
X168187821Y-102675108D01*
X168428881Y-102614063D01*
X168656607Y-102514173D01*
X168864785Y-102378164D01*
X169047738Y-102209744D01*
X169200474Y-102013509D01*
X169318828Y-101794810D01*
X169399571Y-101559614D01*
X169440500Y-101314335D01*
X169440500Y-101065665D01*
X169399571Y-100820386D01*
X169318828Y-100585190D01*
X169200474Y-100366491D01*
X169047738Y-100170256D01*
X168864785Y-100001836D01*
X168864784Y-100001835D01*
X168656608Y-99865827D01*
X168428877Y-99765935D01*
X168187825Y-99704892D01*
X168105263Y-99698051D01*
X168002067Y-99689500D01*
X167877933Y-99689500D01*
X167785055Y-99697196D01*
X167692174Y-99704892D01*
X167451122Y-99765935D01*
X167223391Y-99865827D01*
X167015215Y-100001835D01*
X166832260Y-100170258D01*
X166679527Y-100366489D01*
X166561173Y-100585187D01*
X166561171Y-100585190D01*
X166561172Y-100585190D01*
X166480429Y-100820386D01*
X166439500Y-101065665D01*
X166439500Y-101314335D01*
X161869510Y-101314335D01*
X161869510Y-100575968D01*
X161870938Y-100562683D01*
X161873399Y-100551370D01*
X161869669Y-100499216D01*
X161869510Y-100494757D01*
X161869510Y-100478931D01*
X161869510Y-100478927D01*
X161867252Y-100463225D01*
X161866781Y-100458841D01*
X161863050Y-100406668D01*
X161859003Y-100395819D01*
X161855699Y-100382875D01*
X161854052Y-100371414D01*
X161832327Y-100323844D01*
X161830630Y-100319748D01*
X161812353Y-100270743D01*
X161805410Y-100261468D01*
X161798597Y-100249985D01*
X161793787Y-100239452D01*
X161759550Y-100199940D01*
X161756753Y-100196469D01*
X161747260Y-100183789D01*
X161736064Y-100172593D01*
X161733023Y-100169327D01*
X161698784Y-100129813D01*
X161689045Y-100123554D01*
X161678641Y-100115170D01*
X161187805Y-99624334D01*
X161169499Y-99580142D01*
X161169499Y-98799857D01*
X161187804Y-98755665D01*
X163501469Y-96442000D01*
X165873113Y-96442000D01*
X165900509Y-96570887D01*
X165977800Y-96744487D01*
X166089497Y-96898225D01*
X166230720Y-97025381D01*
X166395282Y-97120392D01*
X166576011Y-97179115D01*
X166717631Y-97194000D01*
X166888000Y-97194000D01*
X166888000Y-96442000D01*
X167192000Y-96442000D01*
X167192000Y-97194000D01*
X167362369Y-97194000D01*
X167503988Y-97179115D01*
X167684717Y-97120392D01*
X167849279Y-97025381D01*
X167990505Y-96898222D01*
X168102197Y-96744492D01*
X168179490Y-96570887D01*
X168206887Y-96442000D01*
X167192000Y-96442000D01*
X166888000Y-96442000D01*
X165873113Y-96442000D01*
X163501469Y-96442000D01*
X163805469Y-96138000D01*
X165873113Y-96138000D01*
X166888000Y-96138000D01*
X166888000Y-95386000D01*
X167192000Y-95386000D01*
X167192000Y-96138000D01*
X168206886Y-96138000D01*
X168179490Y-96009112D01*
X168102199Y-95835512D01*
X167990502Y-95681774D01*
X167849279Y-95554618D01*
X167684717Y-95459607D01*
X167503988Y-95400884D01*
X167362369Y-95386000D01*
X167192000Y-95386000D01*
X166888000Y-95386000D01*
X166717631Y-95386000D01*
X166576011Y-95400884D01*
X166395282Y-95459607D01*
X166230720Y-95554618D01*
X166089494Y-95681777D01*
X165977802Y-95835507D01*
X165900509Y-96009112D01*
X165873113Y-96138000D01*
X163805469Y-96138000D01*
X164073634Y-95869835D01*
X164084032Y-95861456D01*
X164093775Y-95855196D01*
X164128028Y-95815664D01*
X164131042Y-95812427D01*
X164142250Y-95801221D01*
X164151750Y-95788528D01*
X164154528Y-95785081D01*
X164188777Y-95745558D01*
X164193588Y-95735021D01*
X164200401Y-95723537D01*
X164207342Y-95714268D01*
X164225618Y-95665265D01*
X164227322Y-95661153D01*
X164249042Y-95613596D01*
X164250689Y-95602136D01*
X164253993Y-95589189D01*
X164258040Y-95578343D01*
X164261770Y-95526175D01*
X164262243Y-95521774D01*
X164264500Y-95506083D01*
X164264500Y-95490253D01*
X164264659Y-95485794D01*
X164266067Y-95466105D01*
X164268389Y-95433640D01*
X164265927Y-95422326D01*
X164264500Y-95409042D01*
X164264500Y-94243467D01*
X165906722Y-94243467D01*
X165916783Y-94429055D01*
X165966508Y-94608148D01*
X166053568Y-94772362D01*
X166168563Y-94907744D01*
X166173895Y-94914021D01*
X166321861Y-95026502D01*
X166378697Y-95052797D01*
X166490545Y-95104544D01*
X166490546Y-95104544D01*
X166490548Y-95104545D01*
X166672067Y-95144500D01*
X167361329Y-95144500D01*
X167361332Y-95144500D01*
X167499775Y-95129443D01*
X167675911Y-95070096D01*
X167835171Y-94974273D01*
X167970108Y-94846454D01*
X168074413Y-94692615D01*
X168143209Y-94519951D01*
X168173278Y-94336535D01*
X168163216Y-94150942D01*
X168113492Y-93971852D01*
X168053373Y-93858456D01*
X168026431Y-93807637D01*
X167912562Y-93673581D01*
X167906105Y-93665979D01*
X167893655Y-93656515D01*
X167819660Y-93600265D01*
X167758139Y-93553498D01*
X167752619Y-93550944D01*
X167589454Y-93475455D01*
X167407933Y-93435500D01*
X166718668Y-93435500D01*
X166659335Y-93441953D01*
X166580221Y-93450557D01*
X166404091Y-93509902D01*
X166310635Y-93566133D01*
X166244829Y-93605727D01*
X166244827Y-93605728D01*
X166244828Y-93605728D01*
X166109892Y-93733545D01*
X166005586Y-93887385D01*
X165936791Y-94060048D01*
X165934635Y-94073200D01*
X165924202Y-94136843D01*
X165906722Y-94243467D01*
X164264500Y-94243467D01*
X164264500Y-92257000D01*
X164282806Y-92212806D01*
X164327000Y-92194500D01*
X165848000Y-92194500D01*
X165892194Y-92212806D01*
X165910500Y-92257000D01*
X165910500Y-92688254D01*
X165916960Y-92748342D01*
X165967658Y-92884267D01*
X166054595Y-93000404D01*
X166109000Y-93041130D01*
X166170733Y-93087342D01*
X166255958Y-93119130D01*
X166306657Y-93138040D01*
X166312489Y-93138667D01*
X166366745Y-93144500D01*
X167713254Y-93144499D01*
X167773342Y-93138040D01*
X167909267Y-93087342D01*
X168025404Y-93000404D01*
X168112342Y-92884267D01*
X168163040Y-92748342D01*
X168169500Y-92688255D01*
X168169499Y-91891746D01*
X168163040Y-91831658D01*
X168112342Y-91695733D01*
X168061215Y-91627434D01*
X168025404Y-91579595D01*
X167909267Y-91492658D01*
X167773342Y-91441959D01*
X167719086Y-91436127D01*
X167713255Y-91435500D01*
X167713254Y-91435500D01*
X166924859Y-91435500D01*
X166880665Y-91417194D01*
X166839840Y-91376369D01*
X166831456Y-91365966D01*
X166829425Y-91362806D01*
X166825196Y-91356225D01*
X166785681Y-91321984D01*
X166782415Y-91318944D01*
X166771221Y-91307750D01*
X166758540Y-91298257D01*
X166755067Y-91295458D01*
X166715558Y-91261222D01*
X166705026Y-91256413D01*
X166693538Y-91249596D01*
X166684267Y-91242657D01*
X166684265Y-91242656D01*
X166635275Y-91224383D01*
X166631154Y-91222676D01*
X166583594Y-91200956D01*
X166572130Y-91199308D01*
X166559187Y-91196004D01*
X166548344Y-91191960D01*
X166496180Y-91188228D01*
X166491749Y-91187751D01*
X166476086Y-91185500D01*
X166476083Y-91185500D01*
X166460253Y-91185500D01*
X166455794Y-91185341D01*
X166403640Y-91181611D01*
X166392327Y-91184072D01*
X166379042Y-91185500D01*
X164327000Y-91185500D01*
X164282806Y-91167194D01*
X164264500Y-91123000D01*
X164264500Y-87242000D01*
X165873113Y-87242000D01*
X165900509Y-87370887D01*
X165977800Y-87544487D01*
X166089497Y-87698225D01*
X166230720Y-87825381D01*
X166395282Y-87920392D01*
X166576011Y-87979115D01*
X166717631Y-87994000D01*
X166888000Y-87994000D01*
X166888000Y-87242000D01*
X167192000Y-87242000D01*
X167192000Y-87994000D01*
X167362369Y-87994000D01*
X167503988Y-87979115D01*
X167684717Y-87920392D01*
X167849279Y-87825381D01*
X167990505Y-87698222D01*
X168102197Y-87544492D01*
X168179490Y-87370887D01*
X168206887Y-87242000D01*
X167192000Y-87242000D01*
X166888000Y-87242000D01*
X165873113Y-87242000D01*
X164264500Y-87242000D01*
X164264500Y-86938000D01*
X165873113Y-86938000D01*
X166888000Y-86938000D01*
X166888000Y-86186000D01*
X167192000Y-86186000D01*
X167192000Y-86938000D01*
X168206886Y-86938000D01*
X168179490Y-86809112D01*
X168102199Y-86635512D01*
X167990502Y-86481774D01*
X167849279Y-86354618D01*
X167684717Y-86259607D01*
X167503988Y-86200884D01*
X167362369Y-86186000D01*
X167192000Y-86186000D01*
X166888000Y-86186000D01*
X166717631Y-86186000D01*
X166576011Y-86200884D01*
X166395282Y-86259607D01*
X166230720Y-86354618D01*
X166089494Y-86481777D01*
X165977802Y-86635507D01*
X165900509Y-86809112D01*
X165873113Y-86938000D01*
X164264500Y-86938000D01*
X164264500Y-82050958D01*
X164265928Y-82037673D01*
X164268389Y-82026360D01*
X164264659Y-81974206D01*
X164264500Y-81969747D01*
X164264500Y-81953921D01*
X164264500Y-81953917D01*
X164262242Y-81938215D01*
X164261771Y-81933831D01*
X164258040Y-81881658D01*
X164257270Y-81879595D01*
X164253994Y-81870812D01*
X164250689Y-81857865D01*
X164249042Y-81846404D01*
X164227316Y-81798831D01*
X164225618Y-81794732D01*
X164207342Y-81745732D01*
X164200405Y-81736466D01*
X164193585Y-81724970D01*
X164188778Y-81714444D01*
X164188777Y-81714443D01*
X164188777Y-81714442D01*
X164154523Y-81674911D01*
X164151747Y-81671466D01*
X164142250Y-81658779D01*
X164131053Y-81647582D01*
X164128013Y-81644317D01*
X164122370Y-81637805D01*
X164093775Y-81604804D01*
X164093774Y-81604803D01*
X164084035Y-81598544D01*
X164073631Y-81590160D01*
X162359840Y-79876369D01*
X162351456Y-79865966D01*
X162345196Y-79856225D01*
X162305681Y-79821984D01*
X162302415Y-79818944D01*
X162291221Y-79807750D01*
X162278540Y-79798257D01*
X162275067Y-79795458D01*
X162228767Y-79755338D01*
X162230457Y-79753386D01*
X162211367Y-79734964D01*
X162206186Y-79693703D01*
X162228041Y-79658324D01*
X162267257Y-79644490D01*
X162555131Y-79644490D01*
X162599325Y-79662796D01*
X166517194Y-83580665D01*
X166535500Y-83624859D01*
X166535500Y-84173001D01*
X166517194Y-84217195D01*
X166473000Y-84235501D01*
X166366746Y-84235501D01*
X166306657Y-84241960D01*
X166170732Y-84292658D01*
X166054595Y-84379595D01*
X165967658Y-84495732D01*
X165916959Y-84631657D01*
X165910500Y-84691745D01*
X165910500Y-85488254D01*
X165916960Y-85548342D01*
X165967658Y-85684267D01*
X166054595Y-85800404D01*
X166109124Y-85841223D01*
X166170733Y-85887342D01*
X166241921Y-85913894D01*
X166306657Y-85938040D01*
X166312489Y-85938667D01*
X166366745Y-85944500D01*
X167713254Y-85944499D01*
X167773342Y-85938040D01*
X167909267Y-85887342D01*
X168025404Y-85800404D01*
X168112342Y-85684267D01*
X168163040Y-85548342D01*
X168169500Y-85488255D01*
X168169499Y-84691746D01*
X168163040Y-84631658D01*
X168112342Y-84495733D01*
X168050835Y-84413568D01*
X168025404Y-84379595D01*
X167909267Y-84292658D01*
X167773342Y-84241959D01*
X167719086Y-84236127D01*
X167713255Y-84235500D01*
X167713254Y-84235500D01*
X167607000Y-84235500D01*
X167562806Y-84217194D01*
X167544500Y-84173000D01*
X167544500Y-83450958D01*
X167545928Y-83437673D01*
X167548389Y-83426360D01*
X167544659Y-83374206D01*
X167544500Y-83369747D01*
X167544500Y-83353921D01*
X167544500Y-83353917D01*
X167542242Y-83338215D01*
X167541771Y-83333831D01*
X167538040Y-83281658D01*
X167537874Y-83281214D01*
X167533994Y-83270812D01*
X167530689Y-83257865D01*
X167529042Y-83246404D01*
X167507317Y-83198834D01*
X167505620Y-83194738D01*
X167487343Y-83145733D01*
X167480400Y-83136458D01*
X167473587Y-83124975D01*
X167468777Y-83114442D01*
X167438166Y-83079115D01*
X167434540Y-83074930D01*
X167431743Y-83071459D01*
X167422250Y-83058779D01*
X167411054Y-83047583D01*
X167408013Y-83044317D01*
X167394548Y-83028778D01*
X167373775Y-83004804D01*
X167373774Y-83004803D01*
X167364035Y-82998544D01*
X167353631Y-82990160D01*
X164677806Y-80314335D01*
X166439500Y-80314335D01*
X166480429Y-80559614D01*
X166561172Y-80794810D01*
X166679526Y-81013509D01*
X166832262Y-81209744D01*
X166995057Y-81359607D01*
X167015215Y-81378164D01*
X167217648Y-81510420D01*
X167223393Y-81514173D01*
X167451119Y-81614063D01*
X167451120Y-81614063D01*
X167451122Y-81614064D01*
X167692174Y-81675107D01*
X167692175Y-81675107D01*
X167692179Y-81675108D01*
X167877933Y-81690500D01*
X168002062Y-81690500D01*
X168002067Y-81690500D01*
X168187821Y-81675108D01*
X168302750Y-81646004D01*
X168309411Y-81644317D01*
X168428881Y-81614063D01*
X168656607Y-81514173D01*
X168864785Y-81378164D01*
X169047738Y-81209744D01*
X169200474Y-81013509D01*
X169318828Y-80794810D01*
X169399571Y-80559614D01*
X169440500Y-80314335D01*
X169440500Y-80065665D01*
X169399571Y-79820386D01*
X169318828Y-79585190D01*
X169200474Y-79366491D01*
X169047738Y-79170256D01*
X168864785Y-79001836D01*
X168864784Y-79001835D01*
X168656608Y-78865827D01*
X168428877Y-78765935D01*
X168187825Y-78704892D01*
X168105263Y-78698051D01*
X168002067Y-78689500D01*
X167877933Y-78689500D01*
X167785055Y-78697196D01*
X167692174Y-78704892D01*
X167451122Y-78765935D01*
X167223391Y-78865827D01*
X167015215Y-79001835D01*
X166832260Y-79170258D01*
X166679527Y-79366489D01*
X166561173Y-79585187D01*
X166561171Y-79585190D01*
X166561172Y-79585190D01*
X166480429Y-79820386D01*
X166439500Y-80065665D01*
X166439500Y-80314335D01*
X164677806Y-80314335D01*
X163189830Y-78826359D01*
X163181446Y-78815956D01*
X163180108Y-78813874D01*
X163175186Y-78806215D01*
X163135669Y-78771973D01*
X163132405Y-78768934D01*
X163121211Y-78757740D01*
X163108530Y-78748247D01*
X163105057Y-78745448D01*
X163065548Y-78711212D01*
X163055016Y-78706403D01*
X163043528Y-78699586D01*
X163034257Y-78692647D01*
X163034255Y-78692646D01*
X162985265Y-78674373D01*
X162981144Y-78672666D01*
X162933584Y-78650946D01*
X162922120Y-78649298D01*
X162909177Y-78645994D01*
X162898334Y-78641950D01*
X162846170Y-78638218D01*
X162841739Y-78637741D01*
X162826076Y-78635490D01*
X162826073Y-78635490D01*
X162810243Y-78635490D01*
X162805784Y-78635331D01*
X162753630Y-78631601D01*
X162742317Y-78634062D01*
X162729032Y-78635490D01*
X156050972Y-78635490D01*
X156037688Y-78634062D01*
X156026370Y-78631600D01*
X156026369Y-78631600D01*
X155974207Y-78635331D01*
X155969748Y-78635490D01*
X155953926Y-78635490D01*
X155938260Y-78637742D01*
X155933826Y-78638219D01*
X155881666Y-78641949D01*
X155870818Y-78645996D01*
X155857875Y-78649300D01*
X155846414Y-78650948D01*
X155798858Y-78672665D01*
X155794739Y-78674371D01*
X155745742Y-78692647D01*
X155736468Y-78699589D01*
X155724987Y-78706401D01*
X155714449Y-78711214D01*
X155674934Y-78745453D01*
X155671465Y-78748249D01*
X155658789Y-78757739D01*
X155647590Y-78768937D01*
X155644329Y-78771973D01*
X155604814Y-78806214D01*
X155604442Y-78806794D01*
X155581817Y-78827856D01*
X155551866Y-78835500D01*
X155058166Y-78835500D01*
X155001333Y-78844501D01*
X154963443Y-78850502D01*
X154876426Y-78894840D01*
X154835743Y-78900428D01*
X154800374Y-78879563D01*
X154785587Y-78841253D01*
X154794089Y-78813874D01*
X154792810Y-78813427D01*
X154841124Y-78675354D01*
X154844000Y-78644686D01*
X154844000Y-78592000D01*
X153954500Y-78592000D01*
X153954500Y-79044000D01*
X154444686Y-79044000D01*
X154475354Y-79041124D01*
X154604537Y-78995920D01*
X154641341Y-78968758D01*
X154680558Y-78956580D01*
X154718867Y-78971368D01*
X154739731Y-79006737D01*
X154734143Y-79047419D01*
X154700502Y-79113443D01*
X154700501Y-79113445D01*
X154700502Y-79113445D01*
X154685500Y-79208166D01*
X154685500Y-79571834D01*
X154691332Y-79608656D01*
X154700502Y-79666556D01*
X154758673Y-79780723D01*
X154849276Y-79871326D01*
X154870928Y-79882358D01*
X154963445Y-79929498D01*
X155058166Y-79944500D01*
X155173000Y-79944500D01*
X155217194Y-79962806D01*
X155235500Y-80007000D01*
X155235500Y-80167641D01*
X155230742Y-80191559D01*
X155217194Y-80211835D01*
X154901194Y-80527834D01*
X154857000Y-80546140D01*
X154812806Y-80527834D01*
X154794500Y-80483640D01*
X154794500Y-80158169D01*
X154787640Y-80114855D01*
X154779498Y-80063445D01*
X154779497Y-80063443D01*
X154721326Y-79949276D01*
X154630723Y-79858673D01*
X154516556Y-79800502D01*
X154492874Y-79796751D01*
X154421834Y-79785500D01*
X153183166Y-79785500D01*
X153126333Y-79794501D01*
X153088443Y-79800502D01*
X153033126Y-79828688D01*
X153004752Y-79835500D01*
X152781999Y-79835500D01*
X152737805Y-79817194D01*
X152719499Y-79773000D01*
X152719499Y-79016746D01*
X152716213Y-78986179D01*
X152713040Y-78956658D01*
X152662342Y-78820733D01*
X152624749Y-78770514D01*
X152575404Y-78704595D01*
X152459267Y-78617658D01*
X152390477Y-78592000D01*
X152761000Y-78592000D01*
X152761000Y-78644686D01*
X152763875Y-78675354D01*
X152809078Y-78804535D01*
X152890347Y-78914652D01*
X153000464Y-78995921D01*
X153129645Y-79041124D01*
X153160314Y-79044000D01*
X153650500Y-79044000D01*
X153650500Y-78592000D01*
X152761000Y-78592000D01*
X152390477Y-78592000D01*
X152323342Y-78566959D01*
X152269086Y-78561127D01*
X152263255Y-78560500D01*
X152263254Y-78560500D01*
X150549859Y-78560500D01*
X150505665Y-78542194D01*
X150251471Y-78288000D01*
X152761000Y-78288000D01*
X153650500Y-78288000D01*
X153650500Y-77836000D01*
X153954500Y-77836000D01*
X153954500Y-78288000D01*
X154844000Y-78288000D01*
X154844000Y-78235314D01*
X154841124Y-78204645D01*
X154795921Y-78075464D01*
X154714652Y-77965347D01*
X154604535Y-77884078D01*
X154475354Y-77838875D01*
X154444686Y-77836000D01*
X153954500Y-77836000D01*
X153650500Y-77836000D01*
X153160314Y-77836000D01*
X153129645Y-77838875D01*
X153000464Y-77884078D01*
X152890347Y-77965347D01*
X152809078Y-78075464D01*
X152763875Y-78204645D01*
X152761000Y-78235314D01*
X152761000Y-78288000D01*
X150251471Y-78288000D01*
X149539839Y-77576368D01*
X149531455Y-77565965D01*
X149525195Y-77556224D01*
X149485678Y-77521982D01*
X149482414Y-77518943D01*
X149471220Y-77507749D01*
X149458539Y-77498256D01*
X149455066Y-77495457D01*
X149415557Y-77461221D01*
X149405025Y-77456412D01*
X149393537Y-77449595D01*
X149384266Y-77442656D01*
X149384264Y-77442655D01*
X149335274Y-77424382D01*
X149331153Y-77422675D01*
X149283593Y-77400955D01*
X149272129Y-77399307D01*
X149259186Y-77396003D01*
X149248343Y-77391959D01*
X149196179Y-77388227D01*
X149191748Y-77387750D01*
X149176085Y-77385499D01*
X149176082Y-77385499D01*
X149160252Y-77385499D01*
X149155793Y-77385340D01*
X149103639Y-77381610D01*
X149092326Y-77384071D01*
X149079041Y-77385499D01*
X140420959Y-77385499D01*
X140407674Y-77384071D01*
X140396361Y-77381610D01*
X140396360Y-77381610D01*
X140344207Y-77385340D01*
X140339748Y-77385499D01*
X140323915Y-77385499D01*
X140308252Y-77387750D01*
X140303821Y-77388227D01*
X140251657Y-77391958D01*
X140240809Y-77396005D01*
X140227866Y-77399309D01*
X140216405Y-77400957D01*
X140168849Y-77422674D01*
X140164730Y-77424380D01*
X140115733Y-77442656D01*
X140106459Y-77449598D01*
X140094978Y-77456410D01*
X140084440Y-77461223D01*
X140044925Y-77495462D01*
X140041456Y-77498258D01*
X140028780Y-77507748D01*
X140017581Y-77518946D01*
X140014320Y-77521982D01*
X139974805Y-77556223D01*
X139968544Y-77565965D01*
X139960162Y-77576365D01*
X139428290Y-78108237D01*
X139396995Y-78125197D01*
X139369475Y-78122966D01*
X139369249Y-78124176D01*
X139264269Y-78104552D01*
X139162347Y-78085500D01*
X138957653Y-78085500D01*
X138907350Y-78094902D01*
X138756441Y-78123112D01*
X138565576Y-78197054D01*
X138391536Y-78304815D01*
X138240268Y-78442714D01*
X138116913Y-78606063D01*
X138025671Y-78789301D01*
X137969654Y-78986180D01*
X137950767Y-79190000D01*
X137969654Y-79393819D01*
X137978233Y-79423971D01*
X138025672Y-79590701D01*
X138116912Y-79773935D01*
X138240268Y-79937285D01*
X138391538Y-80075186D01*
X138565573Y-80182944D01*
X138579551Y-80188359D01*
X138718013Y-80242000D01*
X138756444Y-80256888D01*
X138957653Y-80294500D01*
X139162346Y-80294500D01*
X139162347Y-80294500D01*
X139363556Y-80256888D01*
X139554427Y-80182944D01*
X139728462Y-80075186D01*
X139879732Y-79937285D01*
X140003088Y-79773935D01*
X140094328Y-79590701D01*
X140150345Y-79393821D01*
X140155147Y-79342000D01*
X140455140Y-79342000D01*
X140460788Y-79402952D01*
X140519316Y-79608656D01*
X140614647Y-79800106D01*
X140743530Y-79970776D01*
X140901578Y-80114855D01*
X141083417Y-80227445D01*
X141282837Y-80304701D01*
X141448000Y-80335576D01*
X141448000Y-79342000D01*
X141752000Y-79342000D01*
X141752000Y-80335576D01*
X141917162Y-80304701D01*
X142116582Y-80227445D01*
X142298421Y-80114855D01*
X142456469Y-79970776D01*
X142585352Y-79800106D01*
X142680683Y-79608656D01*
X142739211Y-79402952D01*
X142744859Y-79342000D01*
X141752000Y-79342000D01*
X141448000Y-79342000D01*
X140455140Y-79342000D01*
X140155147Y-79342000D01*
X140169232Y-79190000D01*
X140167402Y-79170256D01*
X140150345Y-78986180D01*
X140147746Y-78977047D01*
X140122063Y-78886782D01*
X140121685Y-78853968D01*
X140137982Y-78825487D01*
X140550665Y-78412805D01*
X140594860Y-78394499D01*
X140629133Y-78394499D01*
X140671239Y-78410811D01*
X140691366Y-78451232D01*
X140679009Y-78494663D01*
X140614648Y-78579890D01*
X140519316Y-78771343D01*
X140460788Y-78977047D01*
X140455140Y-79037999D01*
X140455141Y-79038000D01*
X142744859Y-79038000D01*
X142744859Y-79037999D01*
X142739211Y-78977047D01*
X142680683Y-78771343D01*
X142585351Y-78579890D01*
X142520991Y-78494663D01*
X142508634Y-78451232D01*
X142528761Y-78410811D01*
X142570867Y-78394499D01*
X143947119Y-78394499D01*
X143989973Y-78411504D01*
X144009507Y-78453266D01*
X143995092Y-78497060D01*
X143954571Y-78519053D01*
X143932597Y-78521691D01*
X143790926Y-78577559D01*
X143669579Y-78669579D01*
X143577559Y-78790926D01*
X143521691Y-78932597D01*
X143511000Y-79021631D01*
X143511000Y-79938000D01*
X146369000Y-79938000D01*
X146369000Y-79021631D01*
X146358308Y-78932597D01*
X146302440Y-78790926D01*
X146210420Y-78669579D01*
X146089073Y-78577559D01*
X145947402Y-78521691D01*
X145925429Y-78519053D01*
X145884908Y-78497060D01*
X145870493Y-78453266D01*
X145890027Y-78411504D01*
X145932881Y-78394499D01*
X148905140Y-78394499D01*
X148949334Y-78412805D01*
X149942194Y-79405665D01*
X149960500Y-79449859D01*
X149960500Y-81163254D01*
X149966960Y-81223342D01*
X150017658Y-81359267D01*
X150104595Y-81475404D01*
X150156386Y-81514173D01*
X150220733Y-81562342D01*
X150272832Y-81581774D01*
X150356657Y-81613040D01*
X150386701Y-81616269D01*
X150416745Y-81619500D01*
X150773000Y-81619500D01*
X150817194Y-81637806D01*
X150835500Y-81682000D01*
X150835500Y-82104295D01*
X150818075Y-82147590D01*
X150775517Y-82166744D01*
X150731555Y-82151077D01*
X150614529Y-82047401D01*
X150473794Y-81973536D01*
X150319471Y-81935500D01*
X150160529Y-81935500D01*
X150006205Y-81973536D01*
X149865471Y-82047400D01*
X149746500Y-82152800D01*
X149725307Y-82183504D01*
X149702916Y-82203341D01*
X149673871Y-82210500D01*
X144723082Y-82210500D01*
X144678888Y-82192194D01*
X144262388Y-81775694D01*
X144244082Y-81731500D01*
X144262388Y-81687306D01*
X144306582Y-81669000D01*
X144788000Y-81669000D01*
X144788000Y-80242000D01*
X145092000Y-80242000D01*
X145092000Y-81669000D01*
X145858369Y-81669000D01*
X145947402Y-81658308D01*
X146089073Y-81602440D01*
X146210420Y-81510420D01*
X146302440Y-81389073D01*
X146358308Y-81247402D01*
X146369000Y-81158369D01*
X146369000Y-80242000D01*
X145092000Y-80242000D01*
X144788000Y-80242000D01*
X143511000Y-80242000D01*
X143511000Y-81158369D01*
X143517865Y-81215538D01*
X143512253Y-81249833D01*
X143489192Y-81275829D01*
X143455811Y-81285490D01*
X131010852Y-81285490D01*
X130998026Y-81284160D01*
X130993438Y-81283198D01*
X130980910Y-81280571D01*
X130980909Y-81280571D01*
X130959836Y-81283198D01*
X130952119Y-81284160D01*
X130945300Y-81285010D01*
X130937569Y-81285490D01*
X130933564Y-81285490D01*
X130911561Y-81289160D01*
X130909011Y-81289532D01*
X130854408Y-81296340D01*
X130840810Y-81300696D01*
X130792432Y-81326875D01*
X130790139Y-81328056D01*
X130740695Y-81352229D01*
X130729256Y-81360758D01*
X130691997Y-81401231D01*
X130690210Y-81403094D01*
X130376110Y-81717194D01*
X130331916Y-81735500D01*
X129541745Y-81735500D01*
X129481657Y-81741960D01*
X129345732Y-81792658D01*
X129229595Y-81879595D01*
X129142658Y-81995732D01*
X129091959Y-82131657D01*
X129085500Y-82191745D01*
X129085500Y-83188254D01*
X129091960Y-83248342D01*
X129142658Y-83384267D01*
X129229595Y-83500404D01*
X129272095Y-83532218D01*
X129345733Y-83587342D01*
X129430959Y-83619130D01*
X129481657Y-83638040D01*
X129487489Y-83638667D01*
X129541745Y-83644500D01*
X130338254Y-83644499D01*
X130398342Y-83638040D01*
X130534267Y-83587342D01*
X130650404Y-83500404D01*
X130737342Y-83384267D01*
X130788040Y-83248342D01*
X130794500Y-83188255D01*
X130794499Y-82398081D01*
X130799257Y-82374164D01*
X130812805Y-82353888D01*
X130956193Y-82210500D01*
X130978806Y-82187886D01*
X131023000Y-82169581D01*
X131067194Y-82187887D01*
X131085500Y-82232081D01*
X131085500Y-83188254D01*
X131091960Y-83248342D01*
X131142658Y-83384267D01*
X131229595Y-83500404D01*
X131272095Y-83532218D01*
X131345733Y-83587342D01*
X131481658Y-83638040D01*
X131502140Y-83640242D01*
X131543641Y-83662575D01*
X131557746Y-83707545D01*
X131556567Y-83721772D01*
X131558588Y-83729752D01*
X131560500Y-83745095D01*
X131560500Y-83777343D01*
X131544496Y-83819109D01*
X131504680Y-83839485D01*
X131481657Y-83841959D01*
X131345732Y-83892658D01*
X131229595Y-83979595D01*
X131142658Y-84095732D01*
X131091959Y-84231657D01*
X131085500Y-84291745D01*
X131085500Y-85288254D01*
X131091960Y-85348342D01*
X131142658Y-85484267D01*
X131229595Y-85600404D01*
X131314505Y-85663965D01*
X131345733Y-85687342D01*
X131421227Y-85715500D01*
X131481657Y-85738040D01*
X131487489Y-85738667D01*
X131541745Y-85744500D01*
X132338254Y-85744499D01*
X132398342Y-85738040D01*
X132534267Y-85687342D01*
X132650404Y-85600404D01*
X132737342Y-85484267D01*
X132788040Y-85348342D01*
X132794500Y-85288255D01*
X132794499Y-84351221D01*
X132808586Y-84311694D01*
X132844498Y-84289985D01*
X132886044Y-84295880D01*
X132906207Y-84306463D01*
X133060529Y-84344500D01*
X133219471Y-84344500D01*
X133373794Y-84306463D01*
X133449467Y-84266746D01*
X133514529Y-84232599D01*
X133633498Y-84127201D01*
X133723787Y-83996395D01*
X133780149Y-83847782D01*
X133799307Y-83690000D01*
X133787941Y-83596395D01*
X133780149Y-83532217D01*
X133723788Y-83383607D01*
X133703297Y-83353921D01*
X133659176Y-83290000D01*
X133633497Y-83252797D01*
X133514529Y-83147401D01*
X133373794Y-83073536D01*
X133219471Y-83035500D01*
X133060529Y-83035500D01*
X132906206Y-83073537D01*
X132886044Y-83084119D01*
X132844497Y-83090015D01*
X132808586Y-83068306D01*
X132794499Y-83028778D01*
X132794499Y-82191746D01*
X132790127Y-82151077D01*
X132788040Y-82131658D01*
X132786985Y-82128832D01*
X132785576Y-82089383D01*
X132808090Y-82056957D01*
X132845545Y-82044490D01*
X135223000Y-82044490D01*
X135267194Y-82062796D01*
X135285500Y-82106990D01*
X135285500Y-83965067D01*
X135300265Y-84039300D01*
X135314000Y-84059855D01*
X135323989Y-84102814D01*
X135303125Y-84141672D01*
X135261798Y-84157079D01*
X135220589Y-84141361D01*
X135114529Y-84047401D01*
X134973794Y-83973536D01*
X134819471Y-83935500D01*
X134660529Y-83935500D01*
X134506205Y-83973536D01*
X134365470Y-84047401D01*
X134246502Y-84152797D01*
X134156211Y-84283607D01*
X134099850Y-84432217D01*
X134080692Y-84590000D01*
X134099850Y-84747782D01*
X134156211Y-84896392D01*
X134246502Y-85027202D01*
X134345984Y-85115335D01*
X134365471Y-85132599D01*
X134409324Y-85155615D01*
X134506205Y-85206463D01*
X134660529Y-85244500D01*
X134732916Y-85244500D01*
X134777110Y-85262806D01*
X134795416Y-85307000D01*
X134777110Y-85351194D01*
X134391190Y-85737114D01*
X134383030Y-85749327D01*
X134349136Y-85800051D01*
X134349135Y-85800053D01*
X134342230Y-85810388D01*
X134340617Y-85809310D01*
X134334157Y-85821397D01*
X134322050Y-85827873D01*
X134323129Y-85829487D01*
X134249858Y-85878444D01*
X133825504Y-86302799D01*
X133813677Y-86320499D01*
X133783450Y-86365736D01*
X133783449Y-86365738D01*
X133776544Y-86376073D01*
X133774929Y-86374994D01*
X133768463Y-86387091D01*
X133756365Y-86393557D01*
X133757444Y-86395172D01*
X133684173Y-86444129D01*
X133259816Y-86868487D01*
X133233904Y-86907266D01*
X133205855Y-86930285D01*
X133169744Y-86933841D01*
X133137744Y-86916736D01*
X132275075Y-86054067D01*
X132266946Y-86044057D01*
X132257381Y-86029417D01*
X132229064Y-86007377D01*
X132223258Y-86002250D01*
X132220429Y-85999421D01*
X132220428Y-85999420D01*
X132220427Y-85999419D01*
X132202260Y-85986447D01*
X132200210Y-85984918D01*
X132156776Y-85951113D01*
X132144094Y-85944586D01*
X132143294Y-85944347D01*
X132143293Y-85944347D01*
X132091364Y-85928887D01*
X132088911Y-85928101D01*
X132036852Y-85910229D01*
X132022738Y-85908173D01*
X131967770Y-85910447D01*
X131965187Y-85910500D01*
X130407890Y-85910500D01*
X130365036Y-85893495D01*
X130345502Y-85851733D01*
X130359917Y-85807939D01*
X130400438Y-85785946D01*
X130422402Y-85783308D01*
X130564073Y-85727440D01*
X130685420Y-85635420D01*
X130777440Y-85514073D01*
X130833308Y-85372402D01*
X130844000Y-85283369D01*
X130844000Y-84942000D01*
X129036000Y-84942000D01*
X129036000Y-85283369D01*
X129046691Y-85372402D01*
X129102559Y-85514073D01*
X129194579Y-85635420D01*
X129315926Y-85727440D01*
X129457597Y-85783308D01*
X129479562Y-85785946D01*
X129520083Y-85807939D01*
X129534498Y-85851733D01*
X129514964Y-85893495D01*
X129472110Y-85910500D01*
X127306129Y-85910500D01*
X127277084Y-85903341D01*
X127254693Y-85883504D01*
X127233499Y-85852800D01*
X127205362Y-85827873D01*
X127150277Y-85779071D01*
X127114528Y-85747400D01*
X126973794Y-85673536D01*
X126819471Y-85635500D01*
X126660529Y-85635500D01*
X126506205Y-85673536D01*
X126365470Y-85747401D01*
X126246502Y-85852797D01*
X126156211Y-85983607D01*
X126099850Y-86132217D01*
X126080692Y-86290000D01*
X126099850Y-86447782D01*
X126156211Y-86596392D01*
X126156212Y-86596394D01*
X126156213Y-86596395D01*
X126246502Y-86727201D01*
X126261601Y-86740578D01*
X126264582Y-86743219D01*
X126283168Y-86772612D01*
X126283168Y-86807388D01*
X126264582Y-86836781D01*
X126246502Y-86852799D01*
X126156211Y-86983607D01*
X126099850Y-87132217D01*
X126080692Y-87290000D01*
X126099850Y-87447782D01*
X126156211Y-87596392D01*
X126156212Y-87596394D01*
X126156213Y-87596395D01*
X126246502Y-87727201D01*
X126261601Y-87740578D01*
X126264582Y-87743219D01*
X126283168Y-87772612D01*
X126283168Y-87807388D01*
X126264582Y-87836781D01*
X126246502Y-87852799D01*
X126156211Y-87983607D01*
X126099850Y-88132217D01*
X126084904Y-88255312D01*
X126063355Y-88295385D01*
X126020343Y-88310227D01*
X125978666Y-88291972D01*
X125796806Y-88110112D01*
X125778500Y-88065918D01*
X125778500Y-84638000D01*
X129036000Y-84638000D01*
X129788000Y-84638000D01*
X129788000Y-83786000D01*
X130092000Y-83786000D01*
X130092000Y-84638000D01*
X130844000Y-84638000D01*
X130844000Y-84296631D01*
X130833308Y-84207597D01*
X130777440Y-84065926D01*
X130685420Y-83944579D01*
X130564073Y-83852559D01*
X130422402Y-83796691D01*
X130333369Y-83786000D01*
X130092000Y-83786000D01*
X129788000Y-83786000D01*
X129546631Y-83786000D01*
X129457597Y-83796691D01*
X129315926Y-83852559D01*
X129194579Y-83944579D01*
X129102559Y-84065926D01*
X129046691Y-84207597D01*
X129036000Y-84296631D01*
X129036000Y-84638000D01*
X125778500Y-84638000D01*
X125778500Y-84006999D01*
X125796806Y-83962805D01*
X125841000Y-83944499D01*
X125924067Y-83944499D01*
X125979512Y-83933471D01*
X125998301Y-83929734D01*
X126082484Y-83873484D01*
X126138734Y-83789301D01*
X126153500Y-83715067D01*
X126153499Y-82842000D01*
X126595001Y-82842000D01*
X126595001Y-83735386D01*
X126597949Y-83760806D01*
X126643856Y-83864778D01*
X126724221Y-83945143D01*
X126828192Y-83991050D01*
X126853614Y-83994000D01*
X127247000Y-83994000D01*
X127247000Y-82842000D01*
X127551000Y-82842000D01*
X127551000Y-83993999D01*
X127944386Y-83993999D01*
X127969806Y-83991050D01*
X128073778Y-83945143D01*
X128154143Y-83864778D01*
X128200050Y-83760807D01*
X128203000Y-83735386D01*
X128203000Y-82842000D01*
X127551000Y-82842000D01*
X127247000Y-82842000D01*
X126595001Y-82842000D01*
X126153499Y-82842000D01*
X126153499Y-82538000D01*
X126595000Y-82538000D01*
X127247000Y-82538000D01*
X127247000Y-81386001D01*
X126853614Y-81386001D01*
X126828193Y-81388949D01*
X126724221Y-81434856D01*
X126643856Y-81515221D01*
X126597949Y-81619192D01*
X126595000Y-81644614D01*
X126595000Y-82538000D01*
X126153499Y-82538000D01*
X126153499Y-81664934D01*
X126152274Y-81658776D01*
X126138734Y-81590699D01*
X126082484Y-81506515D01*
X125998300Y-81450265D01*
X125924067Y-81435500D01*
X124873932Y-81435500D01*
X124799699Y-81450265D01*
X124715515Y-81506515D01*
X124659265Y-81590699D01*
X124644500Y-81664932D01*
X124644500Y-83715067D01*
X124659265Y-83789300D01*
X124715515Y-83873484D01*
X124799699Y-83929734D01*
X124873932Y-83944500D01*
X124873933Y-83944500D01*
X124957000Y-83944500D01*
X125001194Y-83962806D01*
X125019500Y-84007000D01*
X125019500Y-88203158D01*
X125018170Y-88215984D01*
X125014581Y-88233100D01*
X125019020Y-88268710D01*
X125019500Y-88276441D01*
X125019500Y-88280446D01*
X125023170Y-88302447D01*
X125023542Y-88304997D01*
X125030350Y-88359607D01*
X125034703Y-88373195D01*
X125060880Y-88421565D01*
X125062062Y-88423862D01*
X125086238Y-88473315D01*
X125094765Y-88484749D01*
X125135242Y-88522011D01*
X125137105Y-88523799D01*
X125864237Y-89250931D01*
X125872365Y-89260939D01*
X125874565Y-89264306D01*
X125881933Y-89275583D01*
X125910258Y-89297629D01*
X125916055Y-89302749D01*
X125918888Y-89305582D01*
X125922975Y-89308500D01*
X125937034Y-89318538D01*
X125939104Y-89320081D01*
X125982542Y-89353890D01*
X125995222Y-89360416D01*
X126012022Y-89365417D01*
X126047963Y-89376116D01*
X126050385Y-89376892D01*
X126101674Y-89394501D01*
X126102460Y-89394771D01*
X126116576Y-89396827D01*
X126117409Y-89396792D01*
X126117411Y-89396793D01*
X126171544Y-89394554D01*
X126174128Y-89394501D01*
X130922776Y-89394501D01*
X130952238Y-89401881D01*
X130974743Y-89422278D01*
X130997073Y-89455698D01*
X132163892Y-90622516D01*
X132187113Y-90638032D01*
X132211573Y-90669909D01*
X132211573Y-90710088D01*
X132187114Y-90741965D01*
X132163894Y-90757480D01*
X131603877Y-91317499D01*
X131583601Y-91331047D01*
X131559683Y-91335805D01*
X125748387Y-91335805D01*
X125704193Y-91317499D01*
X123437888Y-89051194D01*
X123419582Y-89007000D01*
X123437888Y-88962806D01*
X123471713Y-88948794D01*
X123471103Y-88946316D01*
X123632794Y-88906463D01*
X123702549Y-88869852D01*
X123773529Y-88832599D01*
X123886179Y-88732799D01*
X123892497Y-88727202D01*
X123895790Y-88722431D01*
X123982787Y-88596395D01*
X124039149Y-88447782D01*
X124058307Y-88290000D01*
X124057196Y-88280854D01*
X124039149Y-88132217D01*
X123982788Y-87983607D01*
X123979687Y-87979115D01*
X123919494Y-87891909D01*
X123892497Y-87852797D01*
X123799555Y-87770458D01*
X123784006Y-87749327D01*
X123778500Y-87723676D01*
X123778500Y-84006999D01*
X123796806Y-83962805D01*
X123841000Y-83944499D01*
X123924067Y-83944499D01*
X123979512Y-83933471D01*
X123998301Y-83929734D01*
X124082484Y-83873484D01*
X124138734Y-83789301D01*
X124153500Y-83715067D01*
X124153499Y-81664934D01*
X124152274Y-81658776D01*
X124138734Y-81590699D01*
X124082484Y-81506515D01*
X123998300Y-81450265D01*
X123924067Y-81435500D01*
X122873932Y-81435500D01*
X122799699Y-81450265D01*
X122715515Y-81506515D01*
X122659265Y-81590699D01*
X122644500Y-81664932D01*
X122644500Y-83715067D01*
X122659265Y-83789300D01*
X122715515Y-83873484D01*
X122799699Y-83929734D01*
X122873932Y-83944500D01*
X122873933Y-83944500D01*
X122957000Y-83944500D01*
X123001194Y-83962806D01*
X123019500Y-84007000D01*
X123019500Y-87723676D01*
X123013994Y-87749327D01*
X122998445Y-87770458D01*
X122905502Y-87852797D01*
X122815211Y-87983607D01*
X122758850Y-88132217D01*
X122748343Y-88218751D01*
X122726794Y-88258824D01*
X122683782Y-88273666D01*
X122642105Y-88255411D01*
X121796806Y-87410112D01*
X121778500Y-87365918D01*
X121778500Y-84006999D01*
X121796806Y-83962805D01*
X121841000Y-83944499D01*
X121924067Y-83944499D01*
X121979512Y-83933471D01*
X121998301Y-83929734D01*
X122082484Y-83873484D01*
X122138734Y-83789301D01*
X122153500Y-83715067D01*
X122153499Y-81664934D01*
X122152274Y-81658776D01*
X122138734Y-81590699D01*
X122082484Y-81506515D01*
X121998300Y-81450265D01*
X121924067Y-81435500D01*
X120873932Y-81435500D01*
X120799699Y-81450265D01*
X120715515Y-81506515D01*
X120659265Y-81590699D01*
X120644500Y-81664932D01*
X120644500Y-83715067D01*
X120659265Y-83789300D01*
X120715515Y-83873484D01*
X120799699Y-83929734D01*
X120873932Y-83944500D01*
X120873933Y-83944500D01*
X120957000Y-83944500D01*
X121001194Y-83962806D01*
X121019500Y-84007000D01*
X121019500Y-87503158D01*
X121018170Y-87515984D01*
X121014581Y-87533100D01*
X121019020Y-87568710D01*
X121019500Y-87576441D01*
X121019500Y-87580446D01*
X121023170Y-87602447D01*
X121023542Y-87604997D01*
X121030350Y-87659607D01*
X121034703Y-87673195D01*
X121060880Y-87721565D01*
X121062062Y-87723862D01*
X121086238Y-87773315D01*
X121094765Y-87784749D01*
X121135242Y-87822011D01*
X121137105Y-87823799D01*
X125264541Y-91951235D01*
X125272669Y-91961243D01*
X125278258Y-91969797D01*
X125282237Y-91975887D01*
X125310562Y-91997933D01*
X125316358Y-92003052D01*
X125319192Y-92005886D01*
X125320268Y-92006654D01*
X125337338Y-92018842D01*
X125339408Y-92020385D01*
X125382846Y-92054194D01*
X125395526Y-92060720D01*
X125412326Y-92065721D01*
X125448267Y-92076420D01*
X125450689Y-92077196D01*
X125501978Y-92094805D01*
X125502764Y-92095075D01*
X125516880Y-92097131D01*
X125517713Y-92097096D01*
X125517715Y-92097097D01*
X125571848Y-92094858D01*
X125574432Y-92094805D01*
X130885624Y-92094805D01*
X130925274Y-92108992D01*
X130946923Y-92145113D01*
X130955022Y-92185836D01*
X130997073Y-92248770D01*
X131421430Y-92673126D01*
X131460208Y-92699037D01*
X131483228Y-92727086D01*
X131486784Y-92763197D01*
X131469679Y-92795198D01*
X130541577Y-93723300D01*
X130531570Y-93731427D01*
X130516927Y-93740994D01*
X130494882Y-93769317D01*
X130489763Y-93775114D01*
X130486929Y-93777947D01*
X130473965Y-93796105D01*
X130472423Y-93798173D01*
X130438625Y-93841598D01*
X130432094Y-93854287D01*
X130416398Y-93907006D01*
X130415611Y-93909464D01*
X130397739Y-93961524D01*
X130395683Y-93975638D01*
X130397957Y-94030607D01*
X130398010Y-94033190D01*
X130398010Y-95508816D01*
X130388349Y-95542197D01*
X130362353Y-95565258D01*
X130328058Y-95570870D01*
X130245869Y-95561000D01*
X130017000Y-95561000D01*
X130017000Y-96679500D01*
X129998694Y-96723694D01*
X129954500Y-96742000D01*
X128973500Y-96742000D01*
X128973500Y-97108369D01*
X128984191Y-97197402D01*
X129040059Y-97339073D01*
X129132079Y-97460420D01*
X129253424Y-97552438D01*
X129396830Y-97608990D01*
X129425734Y-97632208D01*
X129436399Y-97667715D01*
X129425075Y-97703016D01*
X129395744Y-97725692D01*
X129283232Y-97767658D01*
X129167095Y-97854595D01*
X129080158Y-97970732D01*
X129029459Y-98106657D01*
X129023000Y-98166746D01*
X129023000Y-98792640D01*
X129018242Y-98816558D01*
X129004694Y-98836834D01*
X128526366Y-99315161D01*
X128515966Y-99323543D01*
X128506224Y-99329804D01*
X128471983Y-99369319D01*
X128468947Y-99372580D01*
X128457749Y-99383779D01*
X128448259Y-99396455D01*
X128445463Y-99399924D01*
X128411224Y-99439439D01*
X128406411Y-99449977D01*
X128399599Y-99461458D01*
X128392657Y-99470732D01*
X128374381Y-99519729D01*
X128372675Y-99523848D01*
X128350958Y-99571404D01*
X128349449Y-99581898D01*
X128328513Y-99620236D01*
X128287585Y-99635501D01*
X128216000Y-99635501D01*
X128171806Y-99617195D01*
X128153500Y-99573001D01*
X128153499Y-97664932D01*
X128138734Y-97590699D01*
X128082484Y-97506515D01*
X127998300Y-97450265D01*
X127924068Y-97435500D01*
X127924067Y-97435500D01*
X127841000Y-97435500D01*
X127796806Y-97417194D01*
X127778500Y-97373000D01*
X127778500Y-97256324D01*
X127784006Y-97230673D01*
X127799555Y-97209542D01*
X127892497Y-97127202D01*
X127902434Y-97112806D01*
X127982787Y-96996395D01*
X128039149Y-96847782D01*
X128058307Y-96690000D01*
X128053989Y-96654441D01*
X128039149Y-96532217D01*
X128003417Y-96438000D01*
X128973500Y-96438000D01*
X129713000Y-96438000D01*
X129713000Y-95561000D01*
X129484131Y-95561000D01*
X129395097Y-95571691D01*
X129253426Y-95627559D01*
X129132079Y-95719579D01*
X129040059Y-95840926D01*
X128984191Y-95982597D01*
X128973500Y-96071631D01*
X128973500Y-96438000D01*
X128003417Y-96438000D01*
X127982788Y-96383607D01*
X127978468Y-96377349D01*
X127937642Y-96318202D01*
X127892497Y-96252797D01*
X127773529Y-96147401D01*
X127632794Y-96073536D01*
X127478471Y-96035500D01*
X127319529Y-96035500D01*
X127165205Y-96073536D01*
X127024470Y-96147401D01*
X126905502Y-96252797D01*
X126815211Y-96383607D01*
X126758850Y-96532217D01*
X126739692Y-96690000D01*
X126758850Y-96847782D01*
X126815211Y-96996392D01*
X126905502Y-97127202D01*
X126998445Y-97209542D01*
X127013994Y-97230673D01*
X127019500Y-97256324D01*
X127019500Y-97373001D01*
X127001194Y-97417195D01*
X126957000Y-97435501D01*
X126873933Y-97435501D01*
X126799699Y-97450265D01*
X126715515Y-97506515D01*
X126659265Y-97590699D01*
X126644500Y-97664932D01*
X126644500Y-97664933D01*
X126644500Y-98639613D01*
X126644501Y-99573001D01*
X126636128Y-99604251D01*
X126613251Y-99627128D01*
X126582001Y-99635501D01*
X126216000Y-99635501D01*
X126171806Y-99617195D01*
X126153500Y-99573001D01*
X126153499Y-97664932D01*
X126138734Y-97590699D01*
X126082484Y-97506515D01*
X125998300Y-97450265D01*
X125924068Y-97435500D01*
X125924067Y-97435500D01*
X125841000Y-97435500D01*
X125796806Y-97417194D01*
X125778500Y-97373000D01*
X125778500Y-97256324D01*
X125784006Y-97230673D01*
X125799555Y-97209542D01*
X125892497Y-97127202D01*
X125902434Y-97112806D01*
X125982787Y-96996395D01*
X126039149Y-96847782D01*
X126058307Y-96690000D01*
X126053989Y-96654441D01*
X126039149Y-96532217D01*
X125982788Y-96383607D01*
X125978468Y-96377349D01*
X125937642Y-96318202D01*
X125892497Y-96252797D01*
X125773529Y-96147401D01*
X125632794Y-96073536D01*
X125478471Y-96035500D01*
X125319529Y-96035500D01*
X125165205Y-96073536D01*
X125024470Y-96147401D01*
X124905502Y-96252797D01*
X124815211Y-96383607D01*
X124758850Y-96532217D01*
X124739692Y-96690000D01*
X124758850Y-96847782D01*
X124815211Y-96996392D01*
X124905502Y-97127202D01*
X124998445Y-97209542D01*
X125013994Y-97230673D01*
X125019500Y-97256324D01*
X125019500Y-97373001D01*
X125001194Y-97417195D01*
X124957000Y-97435501D01*
X124873933Y-97435501D01*
X124799699Y-97450265D01*
X124715515Y-97506515D01*
X124659265Y-97590699D01*
X124644500Y-97664932D01*
X124644500Y-97664933D01*
X124644500Y-98639613D01*
X124644501Y-99573001D01*
X124636128Y-99604251D01*
X124613251Y-99627128D01*
X124582001Y-99635501D01*
X124216000Y-99635501D01*
X124171806Y-99617195D01*
X124153500Y-99573001D01*
X124153499Y-97664932D01*
X124138734Y-97590699D01*
X124082484Y-97506515D01*
X123998300Y-97450265D01*
X123924068Y-97435500D01*
X123924067Y-97435500D01*
X123841000Y-97435500D01*
X123796806Y-97417194D01*
X123778500Y-97373000D01*
X123778500Y-97256324D01*
X123784006Y-97230673D01*
X123799555Y-97209542D01*
X123892497Y-97127202D01*
X123902434Y-97112806D01*
X123982787Y-96996395D01*
X124039149Y-96847782D01*
X124058307Y-96690000D01*
X124053989Y-96654441D01*
X124039149Y-96532217D01*
X123982788Y-96383607D01*
X123978468Y-96377349D01*
X123937642Y-96318202D01*
X123892497Y-96252797D01*
X123773529Y-96147401D01*
X123632794Y-96073536D01*
X123478471Y-96035500D01*
X123319529Y-96035500D01*
X123165205Y-96073536D01*
X123024470Y-96147401D01*
X122905502Y-96252797D01*
X122815211Y-96383607D01*
X122758850Y-96532217D01*
X122739692Y-96690000D01*
X122758850Y-96847782D01*
X122815211Y-96996392D01*
X122905502Y-97127202D01*
X122998445Y-97209542D01*
X123013994Y-97230673D01*
X123019500Y-97256324D01*
X123019500Y-97373001D01*
X123001194Y-97417195D01*
X122957000Y-97435501D01*
X122873933Y-97435501D01*
X122799699Y-97450265D01*
X122715515Y-97506515D01*
X122659265Y-97590699D01*
X122644500Y-97664932D01*
X122644500Y-99571141D01*
X122626194Y-99615335D01*
X122582000Y-99633641D01*
X122537806Y-99615335D01*
X122171805Y-99249334D01*
X122153499Y-99205140D01*
X122153499Y-97664933D01*
X122138734Y-97590699D01*
X122082484Y-97506515D01*
X121998300Y-97450265D01*
X121924067Y-97435500D01*
X120873932Y-97435500D01*
X120799699Y-97450265D01*
X120715515Y-97506515D01*
X120659265Y-97590699D01*
X120644500Y-97664932D01*
X120644500Y-99715067D01*
X120153500Y-99715067D01*
X120153499Y-97664934D01*
X120153076Y-97662808D01*
X120138734Y-97590699D01*
X120082484Y-97506515D01*
X119998300Y-97450265D01*
X119924067Y-97435500D01*
X118873932Y-97435500D01*
X118799699Y-97450265D01*
X118715515Y-97506515D01*
X118659265Y-97590699D01*
X118644500Y-97664932D01*
X118644500Y-99715067D01*
X118153500Y-99715067D01*
X118153499Y-97664934D01*
X118153076Y-97662808D01*
X118138734Y-97590699D01*
X118082484Y-97506515D01*
X117998300Y-97450265D01*
X117924067Y-97435500D01*
X116873932Y-97435500D01*
X116799699Y-97450265D01*
X116715515Y-97506515D01*
X116659265Y-97590699D01*
X116644500Y-97664932D01*
X116644500Y-99715067D01*
X116203000Y-99715067D01*
X116203000Y-98842000D01*
X115551000Y-98842000D01*
X115247000Y-98842000D01*
X114595001Y-98842000D01*
X114153500Y-98842000D01*
X114153500Y-98538000D01*
X114595000Y-98538000D01*
X115247000Y-98538000D01*
X115247000Y-97386001D01*
X114853614Y-97386001D01*
X114828193Y-97388949D01*
X114724221Y-97434856D01*
X114643856Y-97515221D01*
X114597949Y-97619192D01*
X114595000Y-97644614D01*
X114595000Y-98538000D01*
X114153500Y-98538000D01*
X114153500Y-97386000D01*
X115551000Y-97386000D01*
X115551000Y-98538000D01*
X116202999Y-98538000D01*
X116202999Y-97644614D01*
X116200050Y-97619193D01*
X116154143Y-97515221D01*
X116073778Y-97434856D01*
X115969807Y-97388949D01*
X115944386Y-97386000D01*
X115551000Y-97386000D01*
X114153500Y-97386000D01*
X114153500Y-95765217D01*
X114154551Y-95753805D01*
X114156700Y-95742231D01*
X114156918Y-95741059D01*
X114153575Y-95673011D01*
X114153500Y-95669945D01*
X114153500Y-95646059D01*
X114152472Y-95637263D01*
X114151588Y-95629709D01*
X114151242Y-95625532D01*
X114150821Y-95616959D01*
X114131214Y-95217858D01*
X114131366Y-95209474D01*
X114134197Y-95176440D01*
X114127144Y-95128900D01*
X114126545Y-95122812D01*
X114126358Y-95119003D01*
X114120344Y-95082986D01*
X114120170Y-95081883D01*
X114118037Y-95067504D01*
X114057333Y-94658273D01*
X114056663Y-94649902D01*
X114056656Y-94649327D01*
X114056242Y-94616764D01*
X114044563Y-94570141D01*
X114043369Y-94564134D01*
X114042812Y-94560375D01*
X114033293Y-94525107D01*
X114033007Y-94524007D01*
X113928963Y-94108636D01*
X113927474Y-94100366D01*
X113923806Y-94067425D01*
X113907619Y-94022187D01*
X113905837Y-94016313D01*
X113904913Y-94012623D01*
X113891981Y-93978452D01*
X113891650Y-93977556D01*
X113747327Y-93574204D01*
X113745040Y-93566133D01*
X113738162Y-93533714D01*
X113735871Y-93528870D01*
X113717615Y-93490269D01*
X113715275Y-93484622D01*
X113713989Y-93481026D01*
X113711229Y-93475455D01*
X113697768Y-93448283D01*
X113697273Y-93447260D01*
X113514199Y-93060181D01*
X113511125Y-93052361D01*
X113501101Y-93020769D01*
X113498870Y-93017047D01*
X113476389Y-92979540D01*
X113473503Y-92974138D01*
X113471879Y-92970704D01*
X113452506Y-92939676D01*
X113451992Y-92938835D01*
X113231803Y-92571472D01*
X113227978Y-92563993D01*
X113227468Y-92562805D01*
X113214902Y-92533526D01*
X113186269Y-92494919D01*
X113182870Y-92489832D01*
X113180915Y-92486571D01*
X113180914Y-92486569D01*
X113158637Y-92457646D01*
X113157955Y-92456742D01*
X113156320Y-92454537D01*
X112902855Y-92112781D01*
X112898322Y-92105723D01*
X112882322Y-92076684D01*
X112850053Y-92041081D01*
X112846159Y-92036336D01*
X112843896Y-92033284D01*
X112818840Y-92006630D01*
X112818092Y-92005818D01*
X112811017Y-91998012D01*
X112614327Y-91780998D01*
X112530544Y-91688557D01*
X112525332Y-91681966D01*
X112506568Y-91654643D01*
X112503479Y-91651843D01*
X112470963Y-91622373D01*
X112466625Y-91618034D01*
X112464073Y-91615218D01*
X112462007Y-91613413D01*
X112457229Y-91609238D01*
X112436565Y-91591181D01*
X112435718Y-91590426D01*
X112118439Y-91302861D01*
X112112606Y-91296813D01*
X112093568Y-91274208D01*
X112091255Y-91271461D01*
X112052660Y-91242837D01*
X112047924Y-91238950D01*
X112045098Y-91236389D01*
X112015387Y-91215180D01*
X112014468Y-91214511D01*
X111697722Y-90979596D01*
X111670518Y-90959420D01*
X111664122Y-90953975D01*
X111640379Y-90930829D01*
X111599170Y-90906130D01*
X111594070Y-90902723D01*
X111592908Y-90901861D01*
X111591013Y-90900456D01*
X111591010Y-90900454D01*
X111591007Y-90900452D01*
X111559362Y-90882258D01*
X111558382Y-90881683D01*
X111238576Y-90689999D01*
X111191081Y-90661531D01*
X111184189Y-90656743D01*
X111158294Y-90636038D01*
X111114840Y-90615485D01*
X111109448Y-90612603D01*
X111106186Y-90610647D01*
X111096145Y-90606119D01*
X111072857Y-90595618D01*
X111071896Y-90595174D01*
X110684764Y-90412075D01*
X110677428Y-90407981D01*
X110649632Y-90389916D01*
X110615081Y-90377553D01*
X110604390Y-90373728D01*
X110598737Y-90371387D01*
X110595285Y-90369755D01*
X110595282Y-90369754D01*
X110595280Y-90369753D01*
X110560726Y-90358093D01*
X110559653Y-90357721D01*
X110156426Y-90213444D01*
X110148723Y-90210087D01*
X110119298Y-90194837D01*
X110072671Y-90183157D01*
X110066809Y-90181379D01*
X110063231Y-90180099D01*
X110027688Y-90171878D01*
X110026587Y-90171613D01*
X109611170Y-90067557D01*
X109603176Y-90064972D01*
X109572396Y-90052679D01*
X109553254Y-90049840D01*
X109524844Y-90045625D01*
X109518846Y-90044432D01*
X109515155Y-90043507D01*
X109478979Y-90038811D01*
X109477854Y-90038655D01*
X109054231Y-89975816D01*
X109046024Y-89974027D01*
X109014191Y-89964812D01*
X108966186Y-89962453D01*
X108960088Y-89961852D01*
X108956328Y-89961294D01*
X108919862Y-89960167D01*
X108918727Y-89960122D01*
X108511151Y-89940099D01*
X108499808Y-89938490D01*
X108487189Y-89935500D01*
X108487188Y-89935500D01*
X108419057Y-89935500D01*
X108415992Y-89935425D01*
X108392125Y-89934252D01*
X108387213Y-89934583D01*
X108375032Y-89934211D01*
X108346515Y-89930534D01*
X108217244Y-89930910D01*
X108137007Y-89931144D01*
X108136867Y-89931145D01*
X107944640Y-89931807D01*
X107943986Y-89931805D01*
X107778306Y-89930640D01*
X107776725Y-89930609D01*
X107634036Y-89925995D01*
X107631350Y-89925851D01*
X107507147Y-89916472D01*
X107503370Y-89916071D01*
X107392040Y-89900820D01*
X107387482Y-89900022D01*
X107281966Y-89877510D01*
X107277197Y-89876295D01*
X107169550Y-89844294D01*
X107165184Y-89842818D01*
X107048028Y-89798338D01*
X107044490Y-89796867D01*
X106951162Y-89754616D01*
X106911951Y-89736864D01*
X106898897Y-89733164D01*
X106886484Y-89728155D01*
X106871227Y-89720000D01*
X106854493Y-89711055D01*
X106655716Y-89650757D01*
X106449000Y-89630398D01*
X106242283Y-89650757D01*
X106043507Y-89711055D01*
X105962008Y-89754616D01*
X105952600Y-89758691D01*
X105929295Y-89766585D01*
X105830948Y-89817300D01*
X105826083Y-89819550D01*
X105738467Y-89855598D01*
X105733046Y-89857542D01*
X105647283Y-89883897D01*
X105641873Y-89885298D01*
X105551749Y-89904385D01*
X105546962Y-89905206D01*
X105446574Y-89918429D01*
X105442824Y-89918808D01*
X105327656Y-89926959D01*
X105325080Y-89927088D01*
X105191792Y-89931005D01*
X105190298Y-89931031D01*
X105036503Y-89931873D01*
X105035899Y-89931873D01*
X104862566Y-89931147D01*
X104862484Y-89931142D01*
X104857682Y-89931127D01*
X104857636Y-89931126D01*
X104854976Y-89931115D01*
X104854924Y-89931118D01*
X104806646Y-89930965D01*
X104762556Y-89912566D01*
X104744344Y-89868398D01*
X104762650Y-89824270D01*
X104795144Y-89791776D01*
X104841050Y-89687807D01*
X104843999Y-89662384D01*
X104843999Y-89308499D01*
X104852372Y-89277249D01*
X104875249Y-89254372D01*
X104906499Y-89245999D01*
X106485386Y-89245999D01*
X106510806Y-89243050D01*
X106614778Y-89197143D01*
X106695143Y-89116778D01*
X106741050Y-89012807D01*
X106744000Y-88987386D01*
X106744000Y-87844000D01*
X103350500Y-87844000D01*
X103306306Y-87825694D01*
X103288000Y-87781500D01*
X103288000Y-86138000D01*
X103592000Y-86138000D01*
X103592000Y-87540000D01*
X106743999Y-87540000D01*
X106743999Y-86396614D01*
X106741050Y-86371193D01*
X106695143Y-86267221D01*
X106614778Y-86186856D01*
X106510807Y-86140949D01*
X106485386Y-86138000D01*
X103592000Y-86138000D01*
X103288000Y-86138000D01*
X100516988Y-86138000D01*
X100478020Y-86124365D01*
X100456055Y-86089408D01*
X100446942Y-86049483D01*
X100439149Y-86015340D01*
X100387769Y-85908648D01*
X100313936Y-85816064D01*
X100221352Y-85742231D01*
X100114660Y-85690851D01*
X100114658Y-85690850D01*
X100033353Y-85672293D01*
X99999210Y-85664500D01*
X99999209Y-85664500D01*
X99444094Y-85664500D01*
X99435936Y-85663965D01*
X99325347Y-85649405D01*
X99309588Y-85645183D01*
X99286018Y-85635420D01*
X99210349Y-85604076D01*
X99196227Y-85595923D01*
X99111002Y-85530528D01*
X99099471Y-85518997D01*
X99034074Y-85433770D01*
X99025924Y-85419652D01*
X98984815Y-85320407D01*
X98980594Y-85304652D01*
X98966035Y-85194064D01*
X98965500Y-85185906D01*
X98965500Y-82842000D01*
X112595001Y-82842000D01*
X112595001Y-83735386D01*
X112597949Y-83760806D01*
X112643856Y-83864778D01*
X112724221Y-83945143D01*
X112828192Y-83991050D01*
X112853614Y-83994000D01*
X113247000Y-83994000D01*
X113247000Y-82842000D01*
X113551000Y-82842000D01*
X113551000Y-83993999D01*
X113944386Y-83993999D01*
X113969806Y-83991050D01*
X114073778Y-83945143D01*
X114154143Y-83864778D01*
X114200050Y-83760807D01*
X114203000Y-83735386D01*
X114203000Y-83715067D01*
X114644500Y-83715067D01*
X114659265Y-83789300D01*
X114715515Y-83873484D01*
X114779676Y-83916355D01*
X114799699Y-83929734D01*
X114873933Y-83944500D01*
X115924066Y-83944499D01*
X115924067Y-83944499D01*
X115979512Y-83933471D01*
X115998301Y-83929734D01*
X116082484Y-83873484D01*
X116138734Y-83789301D01*
X116153500Y-83715067D01*
X116644500Y-83715067D01*
X116659265Y-83789300D01*
X116715515Y-83873484D01*
X116799699Y-83929734D01*
X116873932Y-83944500D01*
X116873933Y-83944500D01*
X116957000Y-83944500D01*
X117001194Y-83962806D01*
X117019500Y-84007000D01*
X117019500Y-85723676D01*
X117013994Y-85749327D01*
X116998445Y-85770458D01*
X116905502Y-85852797D01*
X116815211Y-85983607D01*
X116758850Y-86132217D01*
X116739692Y-86290000D01*
X116758850Y-86447782D01*
X116815211Y-86596392D01*
X116905502Y-86727202D01*
X116992244Y-86804048D01*
X117024471Y-86832599D01*
X117062955Y-86852797D01*
X117165205Y-86906463D01*
X117319529Y-86944500D01*
X117478471Y-86944500D01*
X117632794Y-86906463D01*
X117694126Y-86874273D01*
X117773529Y-86832599D01*
X117883715Y-86734982D01*
X117892497Y-86727202D01*
X117892498Y-86727201D01*
X117982787Y-86596395D01*
X118039149Y-86447782D01*
X118058307Y-86290000D01*
X118049218Y-86215142D01*
X118039149Y-86132217D01*
X117982788Y-85983607D01*
X117970275Y-85965479D01*
X117924352Y-85898947D01*
X117892497Y-85852797D01*
X117799555Y-85770458D01*
X117784006Y-85749327D01*
X117778500Y-85723676D01*
X117778500Y-84006999D01*
X117796806Y-83962805D01*
X117841000Y-83944499D01*
X117924067Y-83944499D01*
X117979512Y-83933471D01*
X117998301Y-83929734D01*
X118082484Y-83873484D01*
X118138734Y-83789301D01*
X118153500Y-83715067D01*
X118644500Y-83715067D01*
X118659265Y-83789300D01*
X118715515Y-83873484D01*
X118799699Y-83929734D01*
X118873932Y-83944500D01*
X118873933Y-83944500D01*
X118957000Y-83944500D01*
X119001194Y-83962806D01*
X119019500Y-84007000D01*
X119019500Y-86723676D01*
X119013994Y-86749327D01*
X118998445Y-86770458D01*
X118905502Y-86852797D01*
X118815211Y-86983607D01*
X118758850Y-87132217D01*
X118739692Y-87290000D01*
X118758850Y-87447782D01*
X118815211Y-87596392D01*
X118905502Y-87727202D01*
X118996014Y-87807388D01*
X119024471Y-87832599D01*
X119046192Y-87843999D01*
X119165205Y-87906463D01*
X119319529Y-87944500D01*
X119478471Y-87944500D01*
X119632794Y-87906463D01*
X119693135Y-87874793D01*
X119773529Y-87832599D01*
X119892498Y-87727201D01*
X119982787Y-87596395D01*
X120039149Y-87447782D01*
X120058307Y-87290000D01*
X120050828Y-87228402D01*
X120039149Y-87132217D01*
X119982788Y-86983607D01*
X119976846Y-86974999D01*
X119911236Y-86879946D01*
X119892497Y-86852797D01*
X119799555Y-86770458D01*
X119784006Y-86749327D01*
X119778500Y-86723676D01*
X119778500Y-84006999D01*
X119796806Y-83962805D01*
X119841000Y-83944499D01*
X119924067Y-83944499D01*
X119979512Y-83933471D01*
X119998301Y-83929734D01*
X120082484Y-83873484D01*
X120138734Y-83789301D01*
X120153500Y-83715067D01*
X120153499Y-81664934D01*
X120152274Y-81658776D01*
X120138734Y-81590699D01*
X120082484Y-81506515D01*
X119998300Y-81450265D01*
X119924067Y-81435500D01*
X118873932Y-81435500D01*
X118799699Y-81450265D01*
X118715515Y-81506515D01*
X118659265Y-81590699D01*
X118644500Y-81664932D01*
X118644500Y-83715067D01*
X118153500Y-83715067D01*
X118153499Y-81664934D01*
X118152274Y-81658776D01*
X118138734Y-81590699D01*
X118082484Y-81506515D01*
X117998300Y-81450265D01*
X117924067Y-81435500D01*
X116873932Y-81435500D01*
X116799699Y-81450265D01*
X116715515Y-81506515D01*
X116659265Y-81590699D01*
X116644500Y-81664932D01*
X116644500Y-83715067D01*
X116153500Y-83715067D01*
X116153499Y-81664934D01*
X116152274Y-81658776D01*
X116138734Y-81590699D01*
X116082484Y-81506515D01*
X115998300Y-81450265D01*
X115924067Y-81435500D01*
X114873932Y-81435500D01*
X114799699Y-81450265D01*
X114715515Y-81506515D01*
X114659265Y-81590699D01*
X114644500Y-81664932D01*
X114644500Y-83715067D01*
X114203000Y-83715067D01*
X114203000Y-82842000D01*
X113551000Y-82842000D01*
X113247000Y-82842000D01*
X112595001Y-82842000D01*
X98965500Y-82842000D01*
X98965500Y-82538000D01*
X112595000Y-82538000D01*
X113247000Y-82538000D01*
X113247000Y-81386001D01*
X112853614Y-81386001D01*
X112828193Y-81388949D01*
X112724221Y-81434856D01*
X112643856Y-81515221D01*
X112597949Y-81619192D01*
X112595000Y-81644614D01*
X112595000Y-82538000D01*
X98965500Y-82538000D01*
X98965500Y-80314335D01*
X100439500Y-80314335D01*
X100480429Y-80559614D01*
X100561172Y-80794810D01*
X100679526Y-81013509D01*
X100832262Y-81209744D01*
X100995057Y-81359607D01*
X101015215Y-81378164D01*
X101217648Y-81510420D01*
X101223393Y-81514173D01*
X101451119Y-81614063D01*
X101451120Y-81614063D01*
X101451122Y-81614064D01*
X101692174Y-81675107D01*
X101692175Y-81675107D01*
X101692179Y-81675108D01*
X101877933Y-81690500D01*
X102002062Y-81690500D01*
X102002067Y-81690500D01*
X102187821Y-81675108D01*
X102302750Y-81646004D01*
X102309411Y-81644317D01*
X102428881Y-81614063D01*
X102656607Y-81514173D01*
X102852791Y-81386000D01*
X113551000Y-81386000D01*
X113551000Y-82538000D01*
X114202999Y-82538000D01*
X114202999Y-81644614D01*
X114200050Y-81619193D01*
X114154143Y-81515221D01*
X114073778Y-81434856D01*
X113969807Y-81388949D01*
X113944386Y-81386000D01*
X127551000Y-81386000D01*
X127551000Y-82538000D01*
X128202999Y-82538000D01*
X128202999Y-81644614D01*
X128200050Y-81619193D01*
X128154143Y-81515221D01*
X128073778Y-81434856D01*
X127969807Y-81388949D01*
X127944386Y-81386000D01*
X127551000Y-81386000D01*
X113944386Y-81386000D01*
X113551000Y-81386000D01*
X102852791Y-81386000D01*
X102864785Y-81378164D01*
X103047738Y-81209744D01*
X103200474Y-81013509D01*
X103318828Y-80794810D01*
X103399571Y-80559614D01*
X103440500Y-80314335D01*
X103440500Y-80065665D01*
X103399571Y-79820386D01*
X103318828Y-79585190D01*
X103200474Y-79366491D01*
X103063105Y-79190000D01*
X130330767Y-79190000D01*
X130349654Y-79393819D01*
X130358233Y-79423971D01*
X130405672Y-79590701D01*
X130496912Y-79773935D01*
X130620268Y-79937285D01*
X130771538Y-80075186D01*
X130945573Y-80182944D01*
X130959551Y-80188359D01*
X131098013Y-80242000D01*
X131136444Y-80256888D01*
X131337653Y-80294500D01*
X131542346Y-80294500D01*
X131542347Y-80294500D01*
X131743556Y-80256888D01*
X131934427Y-80182944D01*
X132108462Y-80075186D01*
X132259732Y-79937285D01*
X132383088Y-79773935D01*
X132474328Y-79590701D01*
X132530345Y-79393821D01*
X132549232Y-79190000D01*
X132870767Y-79190000D01*
X132889654Y-79393819D01*
X132898233Y-79423971D01*
X132945672Y-79590701D01*
X133036912Y-79773935D01*
X133160268Y-79937285D01*
X133311538Y-80075186D01*
X133485573Y-80182944D01*
X133499551Y-80188359D01*
X133638013Y-80242000D01*
X133676444Y-80256888D01*
X133877653Y-80294500D01*
X134082346Y-80294500D01*
X134082347Y-80294500D01*
X134283556Y-80256888D01*
X134474427Y-80182944D01*
X134648462Y-80075186D01*
X134799732Y-79937285D01*
X134923088Y-79773935D01*
X135014328Y-79590701D01*
X135070345Y-79393821D01*
X135089232Y-79190000D01*
X135410767Y-79190000D01*
X135429654Y-79393819D01*
X135438233Y-79423971D01*
X135485672Y-79590701D01*
X135576912Y-79773935D01*
X135700268Y-79937285D01*
X135851538Y-80075186D01*
X136025573Y-80182944D01*
X136039551Y-80188359D01*
X136178013Y-80242000D01*
X136216444Y-80256888D01*
X136417653Y-80294500D01*
X136622346Y-80294500D01*
X136622347Y-80294500D01*
X136823556Y-80256888D01*
X137014427Y-80182944D01*
X137188462Y-80075186D01*
X137339732Y-79937285D01*
X137463088Y-79773935D01*
X137554328Y-79590701D01*
X137610345Y-79393821D01*
X137629232Y-79190000D01*
X137627402Y-79170256D01*
X137610345Y-78986180D01*
X137607802Y-78977241D01*
X137554328Y-78789299D01*
X137463088Y-78606065D01*
X137339732Y-78442715D01*
X137188462Y-78304814D01*
X137014427Y-78197056D01*
X137014424Y-78197055D01*
X137014423Y-78197054D01*
X136823558Y-78123112D01*
X136689416Y-78098037D01*
X136622347Y-78085500D01*
X136417653Y-78085500D01*
X136367350Y-78094902D01*
X136216441Y-78123112D01*
X136025576Y-78197054D01*
X135851536Y-78304815D01*
X135700268Y-78442714D01*
X135576913Y-78606063D01*
X135485671Y-78789301D01*
X135429654Y-78986180D01*
X135410767Y-79190000D01*
X135089232Y-79190000D01*
X135087402Y-79170256D01*
X135070345Y-78986180D01*
X135067802Y-78977241D01*
X135014328Y-78789299D01*
X134923088Y-78606065D01*
X134799732Y-78442715D01*
X134648462Y-78304814D01*
X134474427Y-78197056D01*
X134474424Y-78197055D01*
X134474423Y-78197054D01*
X134283558Y-78123112D01*
X134149416Y-78098037D01*
X134082347Y-78085500D01*
X133877653Y-78085500D01*
X133827350Y-78094902D01*
X133676441Y-78123112D01*
X133485576Y-78197054D01*
X133311536Y-78304815D01*
X133160268Y-78442714D01*
X133036913Y-78606063D01*
X132945671Y-78789301D01*
X132889654Y-78986180D01*
X132870767Y-79190000D01*
X132549232Y-79190000D01*
X132547402Y-79170256D01*
X132530345Y-78986180D01*
X132527802Y-78977241D01*
X132474328Y-78789299D01*
X132383088Y-78606065D01*
X132259732Y-78442715D01*
X132108462Y-78304814D01*
X131934427Y-78197056D01*
X131934424Y-78197055D01*
X131934423Y-78197054D01*
X131743558Y-78123112D01*
X131609416Y-78098037D01*
X131542347Y-78085500D01*
X131337653Y-78085500D01*
X131287350Y-78094902D01*
X131136441Y-78123112D01*
X130945576Y-78197054D01*
X130771536Y-78304815D01*
X130620268Y-78442714D01*
X130496913Y-78606063D01*
X130405671Y-78789301D01*
X130349654Y-78986180D01*
X130330767Y-79190000D01*
X103063105Y-79190000D01*
X103047738Y-79170256D01*
X102864785Y-79001836D01*
X102864784Y-79001835D01*
X102656608Y-78865827D01*
X102428877Y-78765935D01*
X102187825Y-78704892D01*
X102105263Y-78698051D01*
X102002067Y-78689500D01*
X101877933Y-78689500D01*
X101785055Y-78697196D01*
X101692174Y-78704892D01*
X101451122Y-78765935D01*
X101223391Y-78865827D01*
X101015215Y-79001835D01*
X100832260Y-79170258D01*
X100679527Y-79366489D01*
X100561173Y-79585187D01*
X100561171Y-79585190D01*
X100561172Y-79585190D01*
X100480429Y-79820386D01*
X100439500Y-80065665D01*
X100439500Y-80314335D01*
X98965500Y-80314335D01*
X98965500Y-80191630D01*
X98965586Y-80188359D01*
X98978366Y-79944500D01*
X98981623Y-79882354D01*
X98982306Y-79875852D01*
X98991091Y-79820386D01*
X99029991Y-79574777D01*
X99031345Y-79568411D01*
X99110236Y-79273982D01*
X99112247Y-79267791D01*
X99221488Y-78983212D01*
X99224147Y-78977241D01*
X99224246Y-78977047D01*
X99362528Y-78705652D01*
X99365778Y-78700021D01*
X99531802Y-78444368D01*
X99535625Y-78439105D01*
X99727468Y-78202199D01*
X99731827Y-78197359D01*
X99947359Y-77981827D01*
X99952199Y-77977468D01*
X100189105Y-77785625D01*
X100194368Y-77781802D01*
X100450021Y-77615778D01*
X100455652Y-77612528D01*
X100727245Y-77474144D01*
X100733212Y-77471488D01*
X101017791Y-77362247D01*
X101023982Y-77360236D01*
X101318411Y-77281345D01*
X101324777Y-77279991D01*
X101625856Y-77232305D01*
X101632354Y-77231623D01*
X101938359Y-77215585D01*
X101941630Y-77215500D01*
X101948285Y-77215500D01*
X167921715Y-77215500D01*
X167928370Y-77215500D01*
X167931640Y-77215585D01*
G37*
%TD.AperFunction*%
%TD*%
M02*
