%TF.GenerationSoftware,KiCad,Pcbnew,7.0.1*%
%TF.CreationDate,2023-03-20T19:36:53+01:00*%
%TF.ProjectId,LoRaProMini,4c6f5261-5072-46f4-9d69-6e692e6b6963,3.2*%
%TF.SameCoordinates,Original*%
%TF.FileFunction,Paste,Top*%
%TF.FilePolarity,Positive*%
%FSLAX46Y46*%
G04 Gerber Fmt 4.6, Leading zero omitted, Abs format (unit mm)*
G04 Created by KiCad (PCBNEW 7.0.1) date 2023-03-20 19:36:53*
%MOMM*%
%LPD*%
G01*
G04 APERTURE LIST*
G04 Aperture macros list*
%AMRoundRect*
0 Rectangle with rounded corners*
0 $1 Rounding radius*
0 $2 $3 $4 $5 $6 $7 $8 $9 X,Y pos of 4 corners*
0 Add a 4 corners polygon primitive as box body*
4,1,4,$2,$3,$4,$5,$6,$7,$8,$9,$2,$3,0*
0 Add four circle primitives for the rounded corners*
1,1,$1+$1,$2,$3*
1,1,$1+$1,$4,$5*
1,1,$1+$1,$6,$7*
1,1,$1+$1,$8,$9*
0 Add four rect primitives between the rounded corners*
20,1,$1+$1,$2,$3,$4,$5,0*
20,1,$1+$1,$4,$5,$6,$7,0*
20,1,$1+$1,$6,$7,$8,$9,0*
20,1,$1+$1,$8,$9,$2,$3,0*%
%AMRotRect*
0 Rectangle, with rotation*
0 The origin of the aperture is its center*
0 $1 length*
0 $2 width*
0 $3 Rotation angle, in degrees counterclockwise*
0 Add horizontal line*
21,1,$1,$2,0,0,$3*%
G04 Aperture macros list end*
%ADD10RoundRect,0.250000X-0.337500X-0.475000X0.337500X-0.475000X0.337500X0.475000X-0.337500X0.475000X0*%
%ADD11RoundRect,0.150000X-0.587500X-0.150000X0.587500X-0.150000X0.587500X0.150000X-0.587500X0.150000X0*%
%ADD12R,3.600000X1.000000*%
%ADD13R,6.000000X2.500000*%
%ADD14R,2.200000X1.050000*%
%ADD15RoundRect,0.250000X0.337500X0.475000X-0.337500X0.475000X-0.337500X-0.475000X0.337500X-0.475000X0*%
%ADD16RoundRect,0.250000X0.350000X0.450000X-0.350000X0.450000X-0.350000X-0.450000X0.350000X-0.450000X0*%
%ADD17RoundRect,0.250000X-0.350000X-0.450000X0.350000X-0.450000X0.350000X0.450000X-0.350000X0.450000X0*%
%ADD18R,1.500000X1.500000*%
%ADD19RotRect,1.600000X0.550000X225.000000*%
%ADD20RotRect,1.600000X0.550000X315.000000*%
%ADD21R,0.400000X1.900000*%
%ADD22R,1.000000X2.000000*%
%ADD23RoundRect,0.250000X0.875000X1.025000X-0.875000X1.025000X-0.875000X-1.025000X0.875000X-1.025000X0*%
G04 APERTURE END LIST*
D10*
%TO.C,C1*%
X129865000Y-98690000D03*
X131940000Y-98690000D03*
%TD*%
%TO.C,C2*%
X153702500Y-82440000D03*
X155777500Y-82440000D03*
%TD*%
D11*
%TO.C,U1*%
X153802500Y-78440000D03*
X153802500Y-80340000D03*
X155677500Y-79390000D03*
%TD*%
D12*
%TO.C,AE1*%
X104149000Y-90690000D03*
D13*
X103440000Y-93692000D03*
D14*
X103440000Y-92292000D03*
X103440000Y-89092000D03*
D13*
X103440000Y-87692000D03*
%TD*%
D15*
%TO.C,C4*%
X137977500Y-98690000D03*
X135902500Y-98690000D03*
%TD*%
D16*
%TO.C,R1*%
X131940000Y-82690000D03*
X129940000Y-82690000D03*
%TD*%
D17*
%TO.C,R2*%
X129940000Y-84790000D03*
X131940000Y-84790000D03*
%TD*%
D16*
%TO.C,R3*%
X143940000Y-96590000D03*
X141940000Y-96590000D03*
%TD*%
D17*
%TO.C,R4*%
X141940000Y-98690000D03*
X143940000Y-98690000D03*
%TD*%
D15*
%TO.C,C3*%
X147977500Y-84790000D03*
X145902500Y-84790000D03*
%TD*%
%TO.C,C6*%
X131940000Y-96590000D03*
X129865000Y-96590000D03*
%TD*%
%TO.C,C7*%
X147977500Y-98690000D03*
X145902500Y-98690000D03*
%TD*%
D17*
%TO.C,R6*%
X145940000Y-96590000D03*
X147940000Y-96590000D03*
%TD*%
D18*
%TO.C,SW1*%
X145940000Y-94590000D03*
X145940000Y-86790000D03*
%TD*%
D19*
%TO.C,U4*%
X141925103Y-89664695D03*
X141359417Y-89099010D03*
X140793732Y-88533324D03*
X140228047Y-87967639D03*
X139662361Y-87401953D03*
X139096676Y-86836268D03*
X138530990Y-86270583D03*
X137965305Y-85704897D03*
D20*
X135914695Y-85704897D03*
X135349010Y-86270583D03*
X134783324Y-86836268D03*
X134217639Y-87401953D03*
X133651953Y-87967639D03*
X133086268Y-88533324D03*
X132520583Y-89099010D03*
X131954897Y-89664695D03*
D19*
X131954897Y-91715305D03*
X132520583Y-92280990D03*
X133086268Y-92846676D03*
X133651953Y-93412361D03*
X134217639Y-93978047D03*
X134783324Y-94543732D03*
X135349010Y-95109417D03*
X135914695Y-95675103D03*
D20*
X137965305Y-95675103D03*
X138530990Y-95109417D03*
X139096676Y-94543732D03*
X139662361Y-93978047D03*
X140228047Y-93412361D03*
X140793732Y-92846676D03*
X141359417Y-92280990D03*
X141925103Y-91715305D03*
%TD*%
D21*
%TO.C,Y1*%
X138140000Y-82990000D03*
X136940000Y-82990000D03*
X135740000Y-82990000D03*
%TD*%
D22*
%TO.C,U2*%
X127399000Y-82690000D03*
X125399000Y-82690000D03*
X123399000Y-82690000D03*
X121399000Y-82690000D03*
X119399000Y-82690000D03*
X117399000Y-82690000D03*
X115399000Y-82690000D03*
X113399000Y-82690000D03*
X113399000Y-98690000D03*
X115399000Y-98690000D03*
X117399000Y-98690000D03*
X119399000Y-98690000D03*
X121399000Y-98690000D03*
X123399000Y-98690000D03*
X125399000Y-98690000D03*
X127399000Y-98690000D03*
%TD*%
D16*
%TO.C,R8*%
X155190000Y-99690000D03*
X153190000Y-99690000D03*
%TD*%
D23*
%TO.C,C5*%
X151340000Y-80090000D03*
X144940000Y-80090000D03*
%TD*%
D17*
%TO.C,R5*%
X141940000Y-84790000D03*
X143940000Y-84790000D03*
%TD*%
D16*
%TO.C,R7*%
X155190000Y-101690000D03*
X153190000Y-101690000D03*
%TD*%
M02*
