%TF.GenerationSoftware,KiCad,Pcbnew,(5.1.10)-1*%
%TF.CreationDate,2021-09-20T23:46:16+02:00*%
%TF.ProjectId,LoRaProMini,4c6f5261-5072-46f4-9d69-6e692e6b6963,3.0*%
%TF.SameCoordinates,Original*%
%TF.FileFunction,Legend,Top*%
%TF.FilePolarity,Positive*%
%FSLAX46Y46*%
G04 Gerber Fmt 4.6, Leading zero omitted, Abs format (unit mm)*
G04 Created by KiCad (PCBNEW (5.1.10)-1) date 2021-09-20 23:46:16*
%MOMM*%
%LPD*%
G01*
G04 APERTURE LIST*
%ADD10C,0.150000*%
%ADD11C,0.120000*%
%ADD12C,0.500000*%
%ADD13C,0.250000*%
%ADD14C,0.010000*%
G04 APERTURE END LIST*
D10*
X133297142Y-91142380D02*
X133297142Y-90142380D01*
X133630476Y-90856666D01*
X133963809Y-90142380D01*
X133963809Y-91142380D01*
X134440000Y-90618571D02*
X134773333Y-90618571D01*
X134916190Y-91142380D02*
X134440000Y-91142380D01*
X134440000Y-90142380D01*
X134916190Y-90142380D01*
X135868571Y-90190000D02*
X135773333Y-90142380D01*
X135630476Y-90142380D01*
X135487619Y-90190000D01*
X135392380Y-90285238D01*
X135344761Y-90380476D01*
X135297142Y-90570952D01*
X135297142Y-90713809D01*
X135344761Y-90904285D01*
X135392380Y-90999523D01*
X135487619Y-91094761D01*
X135630476Y-91142380D01*
X135725714Y-91142380D01*
X135868571Y-91094761D01*
X135916190Y-91047142D01*
X135916190Y-90713809D01*
X135725714Y-90713809D01*
X136297142Y-90856666D02*
X136773333Y-90856666D01*
X136201904Y-91142380D02*
X136535238Y-90142380D01*
X136868571Y-91142380D01*
X137106666Y-90142380D02*
X137725714Y-90142380D01*
X137392380Y-90523333D01*
X137535238Y-90523333D01*
X137630476Y-90570952D01*
X137678095Y-90618571D01*
X137725714Y-90713809D01*
X137725714Y-90951904D01*
X137678095Y-91047142D01*
X137630476Y-91094761D01*
X137535238Y-91142380D01*
X137249523Y-91142380D01*
X137154285Y-91094761D01*
X137106666Y-91047142D01*
X138106666Y-90237619D02*
X138154285Y-90190000D01*
X138249523Y-90142380D01*
X138487619Y-90142380D01*
X138582857Y-90190000D01*
X138630476Y-90237619D01*
X138678095Y-90332857D01*
X138678095Y-90428095D01*
X138630476Y-90570952D01*
X138059047Y-91142380D01*
X138678095Y-91142380D01*
X139249523Y-90570952D02*
X139154285Y-90523333D01*
X139106666Y-90475714D01*
X139059047Y-90380476D01*
X139059047Y-90332857D01*
X139106666Y-90237619D01*
X139154285Y-90190000D01*
X139249523Y-90142380D01*
X139440000Y-90142380D01*
X139535238Y-90190000D01*
X139582857Y-90237619D01*
X139630476Y-90332857D01*
X139630476Y-90380476D01*
X139582857Y-90475714D01*
X139535238Y-90523333D01*
X139440000Y-90570952D01*
X139249523Y-90570952D01*
X139154285Y-90618571D01*
X139106666Y-90666190D01*
X139059047Y-90761428D01*
X139059047Y-90951904D01*
X139106666Y-91047142D01*
X139154285Y-91094761D01*
X139249523Y-91142380D01*
X139440000Y-91142380D01*
X139535238Y-91094761D01*
X139582857Y-91047142D01*
X139630476Y-90951904D01*
X139630476Y-90761428D01*
X139582857Y-90666190D01*
X139535238Y-90618571D01*
X139440000Y-90570952D01*
X140059047Y-91142380D02*
X140059047Y-90142380D01*
X140440000Y-90142380D01*
X140535238Y-90190000D01*
X140582857Y-90237619D01*
X140630476Y-90332857D01*
X140630476Y-90475714D01*
X140582857Y-90570952D01*
X140535238Y-90618571D01*
X140440000Y-90666190D01*
X140059047Y-90666190D01*
D11*
X148610476Y-100090000D02*
X148534285Y-100051904D01*
X148420000Y-100051904D01*
X148305714Y-100090000D01*
X148229523Y-100166190D01*
X148191428Y-100242380D01*
X148153333Y-100394761D01*
X148153333Y-100509047D01*
X148191428Y-100661428D01*
X148229523Y-100737619D01*
X148305714Y-100813809D01*
X148420000Y-100851904D01*
X148496190Y-100851904D01*
X148610476Y-100813809D01*
X148648571Y-100775714D01*
X148648571Y-100509047D01*
X148496190Y-100509047D01*
X148991428Y-100851904D02*
X148991428Y-100051904D01*
X149448571Y-100851904D01*
X149448571Y-100051904D01*
X149829523Y-100851904D02*
X149829523Y-100051904D01*
X150020000Y-100051904D01*
X150134285Y-100090000D01*
X150210476Y-100166190D01*
X150248571Y-100242380D01*
X150286666Y-100394761D01*
X150286666Y-100509047D01*
X150248571Y-100661428D01*
X150210476Y-100737619D01*
X150134285Y-100813809D01*
X150020000Y-100851904D01*
X149829523Y-100851904D01*
X145613333Y-100051904D02*
X145880000Y-100851904D01*
X146146666Y-100051904D01*
X146870476Y-100775714D02*
X146832380Y-100813809D01*
X146718095Y-100851904D01*
X146641904Y-100851904D01*
X146527619Y-100813809D01*
X146451428Y-100737619D01*
X146413333Y-100661428D01*
X146375238Y-100509047D01*
X146375238Y-100394761D01*
X146413333Y-100242380D01*
X146451428Y-100166190D01*
X146527619Y-100090000D01*
X146641904Y-100051904D01*
X146718095Y-100051904D01*
X146832380Y-100090000D01*
X146870476Y-100128095D01*
X147670476Y-100775714D02*
X147632380Y-100813809D01*
X147518095Y-100851904D01*
X147441904Y-100851904D01*
X147327619Y-100813809D01*
X147251428Y-100737619D01*
X147213333Y-100661428D01*
X147175238Y-100509047D01*
X147175238Y-100394761D01*
X147213333Y-100242380D01*
X147251428Y-100166190D01*
X147327619Y-100090000D01*
X147441904Y-100051904D01*
X147518095Y-100051904D01*
X147632380Y-100090000D01*
X147670476Y-100128095D01*
X143701904Y-100851904D02*
X143435238Y-100470952D01*
X143244761Y-100851904D02*
X143244761Y-100051904D01*
X143549523Y-100051904D01*
X143625714Y-100090000D01*
X143663809Y-100128095D01*
X143701904Y-100204285D01*
X143701904Y-100318571D01*
X143663809Y-100394761D01*
X143625714Y-100432857D01*
X143549523Y-100470952D01*
X143244761Y-100470952D01*
X144006666Y-100813809D02*
X144120952Y-100851904D01*
X144311428Y-100851904D01*
X144387619Y-100813809D01*
X144425714Y-100775714D01*
X144463809Y-100699523D01*
X144463809Y-100623333D01*
X144425714Y-100547142D01*
X144387619Y-100509047D01*
X144311428Y-100470952D01*
X144159047Y-100432857D01*
X144082857Y-100394761D01*
X144044761Y-100356666D01*
X144006666Y-100280476D01*
X144006666Y-100204285D01*
X144044761Y-100128095D01*
X144082857Y-100090000D01*
X144159047Y-100051904D01*
X144349523Y-100051904D01*
X144463809Y-100090000D01*
X144692380Y-100051904D02*
X145149523Y-100051904D01*
X144920952Y-100851904D02*
X144920952Y-100051904D01*
X141028571Y-100623333D02*
X141409523Y-100623333D01*
X140952380Y-100851904D02*
X141219047Y-100051904D01*
X141485714Y-100851904D01*
X141676190Y-100051904D02*
X142209523Y-100051904D01*
X141866666Y-100851904D01*
X138488571Y-100623333D02*
X138869523Y-100623333D01*
X138412380Y-100851904D02*
X138679047Y-100051904D01*
X138945714Y-100851904D01*
X139555238Y-100051904D02*
X139402857Y-100051904D01*
X139326666Y-100090000D01*
X139288571Y-100128095D01*
X139212380Y-100242380D01*
X139174285Y-100394761D01*
X139174285Y-100699523D01*
X139212380Y-100775714D01*
X139250476Y-100813809D01*
X139326666Y-100851904D01*
X139479047Y-100851904D01*
X139555238Y-100813809D01*
X139593333Y-100775714D01*
X139631428Y-100699523D01*
X139631428Y-100509047D01*
X139593333Y-100432857D01*
X139555238Y-100394761D01*
X139479047Y-100356666D01*
X139326666Y-100356666D01*
X139250476Y-100394761D01*
X139212380Y-100432857D01*
X139174285Y-100509047D01*
X135948571Y-100623333D02*
X136329523Y-100623333D01*
X135872380Y-100851904D02*
X136139047Y-100051904D01*
X136405714Y-100851904D01*
X136596190Y-100051904D02*
X137091428Y-100051904D01*
X136824761Y-100356666D01*
X136939047Y-100356666D01*
X137015238Y-100394761D01*
X137053333Y-100432857D01*
X137091428Y-100509047D01*
X137091428Y-100699523D01*
X137053333Y-100775714D01*
X137015238Y-100813809D01*
X136939047Y-100851904D01*
X136710476Y-100851904D01*
X136634285Y-100813809D01*
X136596190Y-100775714D01*
X133408571Y-100623333D02*
X133789523Y-100623333D01*
X133332380Y-100851904D02*
X133599047Y-100051904D01*
X133865714Y-100851904D01*
X134094285Y-100128095D02*
X134132380Y-100090000D01*
X134208571Y-100051904D01*
X134399047Y-100051904D01*
X134475238Y-100090000D01*
X134513333Y-100128095D01*
X134551428Y-100204285D01*
X134551428Y-100280476D01*
X134513333Y-100394761D01*
X134056190Y-100851904D01*
X134551428Y-100851904D01*
X130868571Y-100623333D02*
X131249523Y-100623333D01*
X130792380Y-100851904D02*
X131059047Y-100051904D01*
X131325714Y-100851904D01*
X132011428Y-100851904D02*
X131554285Y-100851904D01*
X131782857Y-100851904D02*
X131782857Y-100051904D01*
X131706666Y-100166190D01*
X131630476Y-100242380D01*
X131554285Y-100280476D01*
X140990476Y-80490000D02*
X140914285Y-80451904D01*
X140800000Y-80451904D01*
X140685714Y-80490000D01*
X140609523Y-80566190D01*
X140571428Y-80642380D01*
X140533333Y-80794761D01*
X140533333Y-80909047D01*
X140571428Y-81061428D01*
X140609523Y-81137619D01*
X140685714Y-81213809D01*
X140800000Y-81251904D01*
X140876190Y-81251904D01*
X140990476Y-81213809D01*
X141028571Y-81175714D01*
X141028571Y-80909047D01*
X140876190Y-80909047D01*
X141371428Y-81251904D02*
X141371428Y-80451904D01*
X141828571Y-81251904D01*
X141828571Y-80451904D01*
X142209523Y-81251904D02*
X142209523Y-80451904D01*
X142400000Y-80451904D01*
X142514285Y-80490000D01*
X142590476Y-80566190D01*
X142628571Y-80642380D01*
X142666666Y-80794761D01*
X142666666Y-80909047D01*
X142628571Y-81061428D01*
X142590476Y-81137619D01*
X142514285Y-81213809D01*
X142400000Y-81251904D01*
X142209523Y-81251904D01*
X137993333Y-80451904D02*
X138260000Y-81251904D01*
X138526666Y-80451904D01*
X139250476Y-81175714D02*
X139212380Y-81213809D01*
X139098095Y-81251904D01*
X139021904Y-81251904D01*
X138907619Y-81213809D01*
X138831428Y-81137619D01*
X138793333Y-81061428D01*
X138755238Y-80909047D01*
X138755238Y-80794761D01*
X138793333Y-80642380D01*
X138831428Y-80566190D01*
X138907619Y-80490000D01*
X139021904Y-80451904D01*
X139098095Y-80451904D01*
X139212380Y-80490000D01*
X139250476Y-80528095D01*
X140050476Y-81175714D02*
X140012380Y-81213809D01*
X139898095Y-81251904D01*
X139821904Y-81251904D01*
X139707619Y-81213809D01*
X139631428Y-81137619D01*
X139593333Y-81061428D01*
X139555238Y-80909047D01*
X139555238Y-80794761D01*
X139593333Y-80642380D01*
X139631428Y-80566190D01*
X139707619Y-80490000D01*
X139821904Y-80451904D01*
X139898095Y-80451904D01*
X140012380Y-80490000D01*
X140050476Y-80528095D01*
X135929523Y-81251904D02*
X135929523Y-80451904D01*
X136120000Y-80451904D01*
X136234285Y-80490000D01*
X136310476Y-80566190D01*
X136348571Y-80642380D01*
X136386666Y-80794761D01*
X136386666Y-80909047D01*
X136348571Y-81061428D01*
X136310476Y-81137619D01*
X136234285Y-81213809D01*
X136120000Y-81251904D01*
X135929523Y-81251904D01*
X137110476Y-80451904D02*
X136729523Y-80451904D01*
X136691428Y-80832857D01*
X136729523Y-80794761D01*
X136805714Y-80756666D01*
X136996190Y-80756666D01*
X137072380Y-80794761D01*
X137110476Y-80832857D01*
X137148571Y-80909047D01*
X137148571Y-81099523D01*
X137110476Y-81175714D01*
X137072380Y-81213809D01*
X136996190Y-81251904D01*
X136805714Y-81251904D01*
X136729523Y-81213809D01*
X136691428Y-81175714D01*
X133449523Y-81251904D02*
X133449523Y-80451904D01*
X133640000Y-80451904D01*
X133754285Y-80490000D01*
X133830476Y-80566190D01*
X133868571Y-80642380D01*
X133906666Y-80794761D01*
X133906666Y-80909047D01*
X133868571Y-81061428D01*
X133830476Y-81137619D01*
X133754285Y-81213809D01*
X133640000Y-81251904D01*
X133449523Y-81251904D01*
X134592380Y-80718571D02*
X134592380Y-81251904D01*
X134401904Y-80413809D02*
X134211428Y-80985238D01*
X134706666Y-80985238D01*
X130849523Y-81251904D02*
X130849523Y-80451904D01*
X131040000Y-80451904D01*
X131154285Y-80490000D01*
X131230476Y-80566190D01*
X131268571Y-80642380D01*
X131306666Y-80794761D01*
X131306666Y-80909047D01*
X131268571Y-81061428D01*
X131230476Y-81137619D01*
X131154285Y-81213809D01*
X131040000Y-81251904D01*
X130849523Y-81251904D01*
X131573333Y-80451904D02*
X132068571Y-80451904D01*
X131801904Y-80756666D01*
X131916190Y-80756666D01*
X131992380Y-80794761D01*
X132030476Y-80832857D01*
X132068571Y-80909047D01*
X132068571Y-81099523D01*
X132030476Y-81175714D01*
X131992380Y-81213809D01*
X131916190Y-81251904D01*
X131687619Y-81251904D01*
X131611428Y-81213809D01*
X131573333Y-81175714D01*
D12*
X143240000Y-90690000D02*
G75*
G03*
X143240000Y-90690000I-300000J0D01*
G01*
D10*
X149292380Y-92142380D02*
X148816190Y-92475714D01*
X149292380Y-92713809D02*
X148292380Y-92713809D01*
X148292380Y-92332857D01*
X148340000Y-92237619D01*
X148387619Y-92190000D01*
X148482857Y-92142380D01*
X148625714Y-92142380D01*
X148720952Y-92190000D01*
X148768571Y-92237619D01*
X148816190Y-92332857D01*
X148816190Y-92713809D01*
X148768571Y-91713809D02*
X148768571Y-91380476D01*
X149292380Y-91237619D02*
X149292380Y-91713809D01*
X148292380Y-91713809D01*
X148292380Y-91237619D01*
X149244761Y-90856666D02*
X149292380Y-90713809D01*
X149292380Y-90475714D01*
X149244761Y-90380476D01*
X149197142Y-90332857D01*
X149101904Y-90285238D01*
X149006666Y-90285238D01*
X148911428Y-90332857D01*
X148863809Y-90380476D01*
X148816190Y-90475714D01*
X148768571Y-90666190D01*
X148720952Y-90761428D01*
X148673333Y-90809047D01*
X148578095Y-90856666D01*
X148482857Y-90856666D01*
X148387619Y-90809047D01*
X148340000Y-90761428D01*
X148292380Y-90666190D01*
X148292380Y-90428095D01*
X148340000Y-90285238D01*
X148768571Y-89856666D02*
X148768571Y-89523333D01*
X149292380Y-89380476D02*
X149292380Y-89856666D01*
X148292380Y-89856666D01*
X148292380Y-89380476D01*
X148292380Y-89094761D02*
X148292380Y-88523333D01*
X149292380Y-88809047D02*
X148292380Y-88809047D01*
X163292380Y-100928096D02*
X162292380Y-100928096D01*
X162292380Y-100690001D01*
X162340000Y-100547143D01*
X162435238Y-100451905D01*
X162530476Y-100404286D01*
X162720952Y-100356667D01*
X162863809Y-100356667D01*
X163054285Y-100404286D01*
X163149523Y-100451905D01*
X163244761Y-100547143D01*
X163292380Y-100690001D01*
X163292380Y-100928096D01*
X162387619Y-99975715D02*
X162340000Y-99928096D01*
X162292380Y-99832858D01*
X162292380Y-99594762D01*
X162340000Y-99499524D01*
X162387619Y-99451905D01*
X162482857Y-99404286D01*
X162578095Y-99404286D01*
X162720952Y-99451905D01*
X163292380Y-100023334D01*
X163292380Y-99404286D01*
X163292380Y-93428096D02*
X162292380Y-93428096D01*
X162292380Y-93190001D01*
X162340000Y-93047143D01*
X162435238Y-92951905D01*
X162530476Y-92904286D01*
X162720952Y-92856667D01*
X162863809Y-92856667D01*
X163054285Y-92904286D01*
X163149523Y-92951905D01*
X163244761Y-93047143D01*
X163292380Y-93190001D01*
X163292380Y-93428096D01*
X162292380Y-92523334D02*
X162292380Y-91904286D01*
X162673333Y-92237620D01*
X162673333Y-92094762D01*
X162720952Y-91999524D01*
X162768571Y-91951905D01*
X162863809Y-91904286D01*
X163101904Y-91904286D01*
X163197142Y-91951905D01*
X163244761Y-91999524D01*
X163292380Y-92094762D01*
X163292380Y-92380477D01*
X163244761Y-92475715D01*
X163197142Y-92523334D01*
X163292380Y-84166191D02*
X162292380Y-84166191D01*
X162387619Y-83737620D02*
X162340000Y-83690001D01*
X162292380Y-83594762D01*
X162292380Y-83356667D01*
X162340000Y-83261429D01*
X162387619Y-83213810D01*
X162482857Y-83166191D01*
X162578095Y-83166191D01*
X162720952Y-83213810D01*
X163292380Y-83785239D01*
X163292380Y-83166191D01*
X163197142Y-82166191D02*
X163244761Y-82213810D01*
X163292380Y-82356667D01*
X163292380Y-82451905D01*
X163244761Y-82594762D01*
X163149523Y-82690001D01*
X163054285Y-82737620D01*
X162863809Y-82785239D01*
X162720952Y-82785239D01*
X162530476Y-82737620D01*
X162435238Y-82690001D01*
X162340000Y-82594762D01*
X162292380Y-82451905D01*
X162292380Y-82356667D01*
X162340000Y-82213810D01*
X162387619Y-82166191D01*
X170492380Y-96385238D02*
X170492380Y-96956666D01*
X170492380Y-96670952D02*
X169492380Y-96670952D01*
X169635238Y-96766190D01*
X169730476Y-96861428D01*
X169778095Y-96956666D01*
X170111428Y-95956666D02*
X170111428Y-95194761D01*
X169492380Y-94813809D02*
X170492380Y-94575714D01*
X169778095Y-94385238D01*
X170492380Y-94194761D01*
X169492380Y-93956666D01*
X170492380Y-93575714D02*
X169492380Y-93575714D01*
X170492380Y-92528095D02*
X170016190Y-92861428D01*
X170492380Y-93099523D02*
X169492380Y-93099523D01*
X169492380Y-92718571D01*
X169540000Y-92623333D01*
X169587619Y-92575714D01*
X169682857Y-92528095D01*
X169825714Y-92528095D01*
X169920952Y-92575714D01*
X169968571Y-92623333D01*
X170016190Y-92718571D01*
X170016190Y-93099523D01*
X169968571Y-92099523D02*
X169968571Y-91766190D01*
X170492380Y-91623333D02*
X170492380Y-92099523D01*
X169492380Y-92099523D01*
X169492380Y-91623333D01*
X150732893Y-85622656D02*
X150833908Y-85050236D01*
X150328832Y-85218595D02*
X151035938Y-84511488D01*
X151305312Y-84780862D01*
X151338984Y-84881877D01*
X151338984Y-84949221D01*
X151305312Y-85050236D01*
X151204297Y-85151251D01*
X151103282Y-85184923D01*
X151035938Y-85184923D01*
X150934923Y-85151251D01*
X150665549Y-84881877D01*
X151035938Y-85858358D02*
X151103282Y-85993045D01*
X151271641Y-86161404D01*
X151372656Y-86195076D01*
X151440000Y-86195076D01*
X151541015Y-86161404D01*
X151608358Y-86094061D01*
X151642030Y-85993045D01*
X151642030Y-85925702D01*
X151608358Y-85824687D01*
X151507343Y-85656328D01*
X151473671Y-85555312D01*
X151473671Y-85487969D01*
X151507343Y-85386954D01*
X151574687Y-85319610D01*
X151675702Y-85285938D01*
X151743045Y-85285938D01*
X151844061Y-85319610D01*
X152012419Y-85487969D01*
X152079763Y-85622656D01*
X152315465Y-85791015D02*
X152719526Y-86195076D01*
X151810389Y-86700152D02*
X152517496Y-85993045D01*
X150934923Y-86910473D02*
X151338984Y-87314534D01*
X150429847Y-87819610D02*
X151136954Y-87112503D01*
X151507343Y-87482893D02*
X151271641Y-88661404D01*
X151978748Y-87954297D02*
X150800236Y-88190000D01*
X151541015Y-88930778D02*
X152248122Y-88223671D01*
X152416480Y-88392030D01*
X152483824Y-88526717D01*
X152483824Y-88661404D01*
X152450152Y-88762419D01*
X152349137Y-88930778D01*
X152248122Y-89031793D01*
X152079763Y-89132809D01*
X151978748Y-89166480D01*
X151844061Y-89166480D01*
X151709374Y-89099137D01*
X151541015Y-88930778D01*
X150648713Y-90538477D02*
X150749729Y-89966057D01*
X150244652Y-90134416D02*
X150951759Y-89427309D01*
X151221133Y-89696683D01*
X151254805Y-89797698D01*
X151254805Y-89865042D01*
X151221133Y-89966057D01*
X151120118Y-90067072D01*
X151019103Y-90100744D01*
X150951759Y-90100744D01*
X150850744Y-90067072D01*
X150581370Y-89797698D01*
X151591522Y-90067072D02*
X151355820Y-91245583D01*
X152062927Y-90538477D02*
X150884416Y-90774179D01*
X151625194Y-91514957D02*
X152332301Y-90807851D01*
X152500660Y-90976209D01*
X152568003Y-91110896D01*
X152568003Y-91245583D01*
X152534331Y-91346599D01*
X152433316Y-91514957D01*
X152332301Y-91615973D01*
X152163942Y-91716988D01*
X152062927Y-91750660D01*
X151928240Y-91750660D01*
X151793553Y-91683316D01*
X151625194Y-91514957D01*
X151254805Y-92297698D02*
X151221133Y-92196683D01*
X151120118Y-92095668D01*
X150985431Y-92028324D01*
X150850744Y-92028324D01*
X150749729Y-92061996D01*
X150581370Y-92163011D01*
X150480355Y-92264026D01*
X150379339Y-92432385D01*
X150345668Y-92533400D01*
X150345668Y-92668087D01*
X150413011Y-92802774D01*
X150480355Y-92870118D01*
X150615042Y-92937461D01*
X150682385Y-92937461D01*
X150918087Y-92701759D01*
X150783400Y-92567072D01*
X150918087Y-93307851D02*
X151625194Y-92600744D01*
X151322148Y-93711912D01*
X152029255Y-93004805D01*
X151658866Y-94048629D02*
X152365973Y-93341522D01*
X152534331Y-93509881D01*
X152601675Y-93644568D01*
X152601675Y-93779255D01*
X152568003Y-93880270D01*
X152466988Y-94048629D01*
X152365973Y-94149644D01*
X152197614Y-94250660D01*
X152096599Y-94284331D01*
X151961912Y-94284331D01*
X151827225Y-94216988D01*
X151658866Y-94048629D01*
X150783400Y-94258950D02*
X151221133Y-94696683D01*
X150716057Y-94730355D01*
X150817072Y-94831370D01*
X150850744Y-94932385D01*
X150850744Y-94999729D01*
X150817072Y-95100744D01*
X150648713Y-95269103D01*
X150547698Y-95302774D01*
X150480355Y-95302774D01*
X150379339Y-95269103D01*
X150177309Y-95067072D01*
X150143637Y-94966057D01*
X150143637Y-94898713D01*
X150884416Y-95639492D02*
X150884416Y-95706835D01*
X150817072Y-95706835D01*
X150817072Y-95639492D01*
X150884416Y-95639492D01*
X150817072Y-95706835D01*
X151793553Y-95269103D02*
X152231286Y-95706835D01*
X151726209Y-95740507D01*
X151827225Y-95841522D01*
X151860896Y-95942538D01*
X151860896Y-96009881D01*
X151827225Y-96110896D01*
X151658866Y-96279255D01*
X151557851Y-96312927D01*
X151490507Y-96312927D01*
X151389492Y-96279255D01*
X151187461Y-96077225D01*
X151153790Y-95976209D01*
X151153790Y-95908866D01*
X152433316Y-95908866D02*
X151961912Y-96851675D01*
X152904721Y-96380270D01*
X110387619Y-88358928D02*
X110340000Y-88311309D01*
X110292380Y-88216071D01*
X110292380Y-87977976D01*
X110340000Y-87882738D01*
X110387619Y-87835119D01*
X110482857Y-87787500D01*
X110578095Y-87787500D01*
X110720952Y-87835119D01*
X111292380Y-88406547D01*
X111292380Y-87787500D01*
X110292380Y-87168452D02*
X110292380Y-87073214D01*
X110340000Y-86977976D01*
X110387619Y-86930357D01*
X110482857Y-86882738D01*
X110673333Y-86835119D01*
X110911428Y-86835119D01*
X111101904Y-86882738D01*
X111197142Y-86930357D01*
X111244761Y-86977976D01*
X111292380Y-87073214D01*
X111292380Y-87168452D01*
X111244761Y-87263690D01*
X111197142Y-87311309D01*
X111101904Y-87358928D01*
X110911428Y-87406547D01*
X110673333Y-87406547D01*
X110482857Y-87358928D01*
X110387619Y-87311309D01*
X110340000Y-87263690D01*
X110292380Y-87168452D01*
X110387619Y-86454166D02*
X110340000Y-86406547D01*
X110292380Y-86311309D01*
X110292380Y-86073214D01*
X110340000Y-85977976D01*
X110387619Y-85930357D01*
X110482857Y-85882738D01*
X110578095Y-85882738D01*
X110720952Y-85930357D01*
X111292380Y-86501785D01*
X111292380Y-85882738D01*
X111292380Y-84930357D02*
X111292380Y-85501785D01*
X111292380Y-85216071D02*
X110292380Y-85216071D01*
X110435238Y-85311309D01*
X110530476Y-85406547D01*
X110578095Y-85501785D01*
X110244761Y-83787500D02*
X111530476Y-84644642D01*
X110292380Y-83263690D02*
X110292380Y-83168452D01*
X110340000Y-83073214D01*
X110387619Y-83025595D01*
X110482857Y-82977976D01*
X110673333Y-82930357D01*
X110911428Y-82930357D01*
X111101904Y-82977976D01*
X111197142Y-83025595D01*
X111244761Y-83073214D01*
X111292380Y-83168452D01*
X111292380Y-83263690D01*
X111244761Y-83358928D01*
X111197142Y-83406547D01*
X111101904Y-83454166D01*
X110911428Y-83501785D01*
X110673333Y-83501785D01*
X110482857Y-83454166D01*
X110387619Y-83406547D01*
X110340000Y-83358928D01*
X110292380Y-83263690D01*
X111292380Y-82454166D02*
X111292380Y-82263690D01*
X111244761Y-82168452D01*
X111197142Y-82120833D01*
X111054285Y-82025595D01*
X110863809Y-81977976D01*
X110482857Y-81977976D01*
X110387619Y-82025595D01*
X110340000Y-82073214D01*
X110292380Y-82168452D01*
X110292380Y-82358928D01*
X110340000Y-82454166D01*
X110387619Y-82501785D01*
X110482857Y-82549404D01*
X110720952Y-82549404D01*
X110816190Y-82501785D01*
X110863809Y-82454166D01*
X110911428Y-82358928D01*
X110911428Y-82168452D01*
X110863809Y-82073214D01*
X110816190Y-82025595D01*
X110720952Y-81977976D01*
X111292380Y-98928857D02*
X110816190Y-99262190D01*
X111292380Y-99500285D02*
X110292380Y-99500285D01*
X110292380Y-99119333D01*
X110340000Y-99024095D01*
X110387619Y-98976476D01*
X110482857Y-98928857D01*
X110625714Y-98928857D01*
X110720952Y-98976476D01*
X110768571Y-99024095D01*
X110816190Y-99119333D01*
X110816190Y-99500285D01*
X110768571Y-98500285D02*
X110768571Y-98166952D01*
X111292380Y-98024095D02*
X111292380Y-98500285D01*
X110292380Y-98500285D01*
X110292380Y-98024095D01*
X110292380Y-97738380D02*
X111292380Y-97405047D01*
X110292380Y-97071714D01*
X110292380Y-96071714D02*
X110292380Y-95452666D01*
X110673333Y-95786000D01*
X110673333Y-95643142D01*
X110720952Y-95547904D01*
X110768571Y-95500285D01*
X110863809Y-95452666D01*
X111101904Y-95452666D01*
X111197142Y-95500285D01*
X111244761Y-95547904D01*
X111292380Y-95643142D01*
X111292380Y-95928857D01*
X111244761Y-96024095D01*
X111197142Y-96071714D01*
X111197142Y-95024095D02*
X111244761Y-94976476D01*
X111292380Y-95024095D01*
X111244761Y-95071714D01*
X111197142Y-95024095D01*
X111292380Y-95024095D01*
X110292380Y-94357428D02*
X110292380Y-94262190D01*
X110340000Y-94166952D01*
X110387619Y-94119333D01*
X110482857Y-94071714D01*
X110673333Y-94024095D01*
X110911428Y-94024095D01*
X111101904Y-94071714D01*
X111197142Y-94119333D01*
X111244761Y-94166952D01*
X111292380Y-94262190D01*
X111292380Y-94357428D01*
X111244761Y-94452666D01*
X111197142Y-94500285D01*
X111101904Y-94547904D01*
X110911428Y-94595523D01*
X110673333Y-94595523D01*
X110482857Y-94547904D01*
X110387619Y-94500285D01*
X110340000Y-94452666D01*
X110292380Y-94357428D01*
X118225714Y-85542380D02*
X117892380Y-85066190D01*
X117654285Y-85542380D02*
X117654285Y-84542380D01*
X118035238Y-84542380D01*
X118130476Y-84590000D01*
X118178095Y-84637619D01*
X118225714Y-84732857D01*
X118225714Y-84875714D01*
X118178095Y-84970952D01*
X118130476Y-85018571D01*
X118035238Y-85066190D01*
X117654285Y-85066190D01*
X118987619Y-85018571D02*
X118654285Y-85018571D01*
X118654285Y-85542380D02*
X118654285Y-84542380D01*
X119130476Y-84542380D01*
X119511428Y-85542380D02*
X119511428Y-84542380D01*
X119844761Y-85256666D01*
X120178095Y-84542380D01*
X120178095Y-85542380D01*
X120701904Y-85542380D02*
X120892380Y-85542380D01*
X120987619Y-85494761D01*
X121035238Y-85447142D01*
X121130476Y-85304285D01*
X121178095Y-85113809D01*
X121178095Y-84732857D01*
X121130476Y-84637619D01*
X121082857Y-84590000D01*
X120987619Y-84542380D01*
X120797142Y-84542380D01*
X120701904Y-84590000D01*
X120654285Y-84637619D01*
X120606666Y-84732857D01*
X120606666Y-84970952D01*
X120654285Y-85066190D01*
X120701904Y-85113809D01*
X120797142Y-85161428D01*
X120987619Y-85161428D01*
X121082857Y-85113809D01*
X121130476Y-85066190D01*
X121178095Y-84970952D01*
X122082857Y-84542380D02*
X121606666Y-84542380D01*
X121559047Y-85018571D01*
X121606666Y-84970952D01*
X121701904Y-84923333D01*
X121940000Y-84923333D01*
X122035238Y-84970952D01*
X122082857Y-85018571D01*
X122130476Y-85113809D01*
X122130476Y-85351904D01*
X122082857Y-85447142D01*
X122035238Y-85494761D01*
X121940000Y-85542380D01*
X121701904Y-85542380D01*
X121606666Y-85494761D01*
X121559047Y-85447142D01*
X122463809Y-84542380D02*
X122701904Y-85542380D01*
X122892380Y-84828095D01*
X123082857Y-85542380D01*
X123320952Y-84542380D01*
X170492380Y-87323333D02*
X169492380Y-87323333D01*
X169492380Y-86942380D01*
X169540000Y-86847142D01*
X169587619Y-86799523D01*
X169682857Y-86751904D01*
X169825714Y-86751904D01*
X169920952Y-86799523D01*
X169968571Y-86847142D01*
X170016190Y-86942380D01*
X170016190Y-87323333D01*
X169492380Y-86418571D02*
X170492380Y-86180476D01*
X169778095Y-85990000D01*
X170492380Y-85799523D01*
X169492380Y-85561428D01*
X170492380Y-84609047D02*
X170016190Y-84942380D01*
X170492380Y-85180476D02*
X169492380Y-85180476D01*
X169492380Y-84799523D01*
X169540000Y-84704285D01*
X169587619Y-84656666D01*
X169682857Y-84609047D01*
X169825714Y-84609047D01*
X169920952Y-84656666D01*
X169968571Y-84704285D01*
X170016190Y-84799523D01*
X170016190Y-85180476D01*
X115779952Y-94942380D02*
X115779952Y-95656666D01*
X115732333Y-95799523D01*
X115637095Y-95894761D01*
X115494238Y-95942380D01*
X115399000Y-95942380D01*
X116732333Y-95942380D02*
X116256142Y-95942380D01*
X116256142Y-94942380D01*
X117637095Y-95847142D02*
X117589476Y-95894761D01*
X117446619Y-95942380D01*
X117351380Y-95942380D01*
X117208523Y-95894761D01*
X117113285Y-95799523D01*
X117065666Y-95704285D01*
X117018047Y-95513809D01*
X117018047Y-95370952D01*
X117065666Y-95180476D01*
X117113285Y-95085238D01*
X117208523Y-94990000D01*
X117351380Y-94942380D01*
X117446619Y-94942380D01*
X117589476Y-94990000D01*
X117637095Y-95037619D01*
X118351380Y-94942380D02*
X118351380Y-95656666D01*
X118303761Y-95799523D01*
X118208523Y-95894761D01*
X118065666Y-95942380D01*
X117970428Y-95942380D01*
X119303761Y-95942380D02*
X118827571Y-95942380D01*
X118827571Y-94942380D01*
X120208523Y-95847142D02*
X120160904Y-95894761D01*
X120018047Y-95942380D01*
X119922809Y-95942380D01*
X119779952Y-95894761D01*
X119684714Y-95799523D01*
X119637095Y-95704285D01*
X119589476Y-95513809D01*
X119589476Y-95370952D01*
X119637095Y-95180476D01*
X119684714Y-95085238D01*
X119779952Y-94990000D01*
X119922809Y-94942380D01*
X120018047Y-94942380D01*
X120160904Y-94990000D01*
X120208523Y-95037619D01*
X120922809Y-94942380D02*
X120922809Y-95656666D01*
X120875190Y-95799523D01*
X120779952Y-95894761D01*
X120637095Y-95942380D01*
X120541857Y-95942380D01*
X121875190Y-95942380D02*
X121399000Y-95942380D01*
X121399000Y-94942380D01*
X122779952Y-95847142D02*
X122732333Y-95894761D01*
X122589476Y-95942380D01*
X122494238Y-95942380D01*
X122351380Y-95894761D01*
X122256142Y-95799523D01*
X122208523Y-95704285D01*
X122160904Y-95513809D01*
X122160904Y-95370952D01*
X122208523Y-95180476D01*
X122256142Y-95085238D01*
X122351380Y-94990000D01*
X122494238Y-94942380D01*
X122589476Y-94942380D01*
X122732333Y-94990000D01*
X122779952Y-95037619D01*
X123494238Y-94942380D02*
X123494238Y-95656666D01*
X123446619Y-95799523D01*
X123351380Y-95894761D01*
X123208523Y-95942380D01*
X123113285Y-95942380D01*
X124446619Y-95942380D02*
X123970428Y-95942380D01*
X123970428Y-94942380D01*
X125351380Y-95847142D02*
X125303761Y-95894761D01*
X125160904Y-95942380D01*
X125065666Y-95942380D01*
X124922809Y-95894761D01*
X124827571Y-95799523D01*
X124779952Y-95704285D01*
X124732333Y-95513809D01*
X124732333Y-95370952D01*
X124779952Y-95180476D01*
X124827571Y-95085238D01*
X124922809Y-94990000D01*
X125065666Y-94942380D01*
X125160904Y-94942380D01*
X125303761Y-94990000D01*
X125351380Y-95037619D01*
D13*
X109844761Y-98504285D02*
X109844761Y-99456666D01*
X107844761Y-99456666D01*
X109844761Y-97551904D02*
X109749523Y-97742380D01*
X109654285Y-97837619D01*
X109463809Y-97932857D01*
X108892380Y-97932857D01*
X108701904Y-97837619D01*
X108606666Y-97742380D01*
X108511428Y-97551904D01*
X108511428Y-97266190D01*
X108606666Y-97075714D01*
X108701904Y-96980476D01*
X108892380Y-96885238D01*
X109463809Y-96885238D01*
X109654285Y-96980476D01*
X109749523Y-97075714D01*
X109844761Y-97266190D01*
X109844761Y-97551904D01*
X109844761Y-94885238D02*
X108892380Y-95551904D01*
X109844761Y-96028095D02*
X107844761Y-96028095D01*
X107844761Y-95266190D01*
X107940000Y-95075714D01*
X108035238Y-94980476D01*
X108225714Y-94885238D01*
X108511428Y-94885238D01*
X108701904Y-94980476D01*
X108797142Y-95075714D01*
X108892380Y-95266190D01*
X108892380Y-96028095D01*
X109844761Y-93170952D02*
X108797142Y-93170952D01*
X108606666Y-93266190D01*
X108511428Y-93456666D01*
X108511428Y-93837619D01*
X108606666Y-94028095D01*
X109749523Y-93170952D02*
X109844761Y-93361428D01*
X109844761Y-93837619D01*
X109749523Y-94028095D01*
X109559047Y-94123333D01*
X109368571Y-94123333D01*
X109178095Y-94028095D01*
X109082857Y-93837619D01*
X109082857Y-93361428D01*
X108987619Y-93170952D01*
X109844761Y-92218571D02*
X107844761Y-92218571D01*
X107844761Y-91456666D01*
X107940000Y-91266190D01*
X108035238Y-91170952D01*
X108225714Y-91075714D01*
X108511428Y-91075714D01*
X108701904Y-91170952D01*
X108797142Y-91266190D01*
X108892380Y-91456666D01*
X108892380Y-92218571D01*
X109844761Y-90218571D02*
X108511428Y-90218571D01*
X108892380Y-90218571D02*
X108701904Y-90123333D01*
X108606666Y-90028095D01*
X108511428Y-89837619D01*
X108511428Y-89647142D01*
X109844761Y-88694761D02*
X109749523Y-88885238D01*
X109654285Y-88980476D01*
X109463809Y-89075714D01*
X108892380Y-89075714D01*
X108701904Y-88980476D01*
X108606666Y-88885238D01*
X108511428Y-88694761D01*
X108511428Y-88409047D01*
X108606666Y-88218571D01*
X108701904Y-88123333D01*
X108892380Y-88028095D01*
X109463809Y-88028095D01*
X109654285Y-88123333D01*
X109749523Y-88218571D01*
X109844761Y-88409047D01*
X109844761Y-88694761D01*
X109844761Y-87170952D02*
X107844761Y-87170952D01*
X109273333Y-86504285D01*
X107844761Y-85837619D01*
X109844761Y-85837619D01*
X109844761Y-84885238D02*
X108511428Y-84885238D01*
X107844761Y-84885238D02*
X107940000Y-84980476D01*
X108035238Y-84885238D01*
X107940000Y-84790000D01*
X107844761Y-84885238D01*
X108035238Y-84885238D01*
X108511428Y-83932857D02*
X109844761Y-83932857D01*
X108701904Y-83932857D02*
X108606666Y-83837619D01*
X108511428Y-83647142D01*
X108511428Y-83361428D01*
X108606666Y-83170952D01*
X108797142Y-83075714D01*
X109844761Y-83075714D01*
X109844761Y-82123333D02*
X108511428Y-82123333D01*
X107844761Y-82123333D02*
X107940000Y-82218571D01*
X108035238Y-82123333D01*
X107940000Y-82028095D01*
X107844761Y-82123333D01*
X108035238Y-82123333D01*
D11*
%TO.C,U2*%
X128149000Y-82590000D02*
X128149000Y-81690000D01*
X128499000Y-82590000D02*
X128149000Y-82590000D01*
X112299000Y-98790000D02*
X112699000Y-98790000D01*
X112299000Y-82590000D02*
X112299000Y-98790000D01*
X112699000Y-82590000D02*
X112299000Y-82590000D01*
X128499000Y-98790000D02*
X128099000Y-98790000D01*
X128499000Y-82590000D02*
X128499000Y-98790000D01*
D10*
%TO.C,U4*%
X142066524Y-90690000D02*
X141907425Y-90530901D01*
X136940000Y-95816524D02*
X136710190Y-95586714D01*
X131813476Y-90690000D02*
X132043286Y-90919810D01*
X136940000Y-85563476D02*
X137169810Y-85793286D01*
X142066524Y-90690000D02*
X141836714Y-90919810D01*
X136940000Y-85563476D02*
X136710190Y-85793286D01*
X131813476Y-90690000D02*
X132043286Y-90460190D01*
X136940000Y-95816524D02*
X137169810Y-95586714D01*
X141907425Y-90530901D02*
X142915052Y-89523274D01*
D11*
%TO.C,J1*%
X168850000Y-83030000D02*
X164130000Y-83030000D01*
X164130000Y-83030000D02*
X164130000Y-89150000D01*
X164130000Y-89150000D02*
X168850000Y-89150000D01*
X168850000Y-89150000D02*
X168850000Y-83030000D01*
X168850000Y-84790000D02*
X169050000Y-84790000D01*
X169050000Y-84790000D02*
X169050000Y-84490000D01*
X169050000Y-84490000D02*
X168850000Y-84490000D01*
X168950000Y-84790000D02*
X168950000Y-84490000D01*
X168850000Y-85590000D02*
X168240000Y-85590000D01*
X168240000Y-85590000D02*
X168240000Y-83640000D01*
X168240000Y-83640000D02*
X164740000Y-83640000D01*
X164740000Y-83640000D02*
X164740000Y-88540000D01*
X164740000Y-88540000D02*
X168240000Y-88540000D01*
X168240000Y-88540000D02*
X168240000Y-86590000D01*
X168240000Y-86590000D02*
X168850000Y-86590000D01*
X167540000Y-83030000D02*
X167540000Y-83640000D01*
X166240000Y-83030000D02*
X166240000Y-83640000D01*
X167540000Y-89150000D02*
X167540000Y-88540000D01*
X166240000Y-89150000D02*
X166240000Y-88540000D01*
X164740000Y-85990000D02*
X165240000Y-85990000D01*
X165240000Y-85990000D02*
X165240000Y-86190000D01*
X165240000Y-86190000D02*
X164740000Y-86190000D01*
X164740000Y-86090000D02*
X165240000Y-86090000D01*
X169150000Y-83980000D02*
X169150000Y-82730000D01*
X169150000Y-82730000D02*
X167900000Y-82730000D01*
D14*
%TO.C,REF\u002A\u002A*%
G36*
X120604043Y-87675835D02*
G01*
X120627065Y-87713245D01*
X120662534Y-87772514D01*
X120708996Y-87851118D01*
X120764996Y-87946538D01*
X120829081Y-88056250D01*
X120899796Y-88177734D01*
X120975687Y-88308468D01*
X121055299Y-88445930D01*
X121137178Y-88587598D01*
X121219870Y-88730951D01*
X121301921Y-88873467D01*
X121381876Y-89012624D01*
X121458281Y-89145901D01*
X121529682Y-89270776D01*
X121594624Y-89384727D01*
X121651653Y-89485233D01*
X121699315Y-89569772D01*
X121736155Y-89635822D01*
X121760720Y-89680862D01*
X121771554Y-89702370D01*
X121771951Y-89703714D01*
X121758501Y-89721965D01*
X121721114Y-89749882D01*
X121664235Y-89784725D01*
X121592312Y-89823754D01*
X121517015Y-89860843D01*
X121414560Y-89905817D01*
X121306817Y-89946226D01*
X121190073Y-89982969D01*
X121060618Y-90016942D01*
X120914740Y-90049044D01*
X120748726Y-90080173D01*
X120558866Y-90111227D01*
X120362469Y-90140145D01*
X120191834Y-90165800D01*
X120048545Y-90191198D01*
X119929008Y-90217602D01*
X119829630Y-90246273D01*
X119746818Y-90278473D01*
X119676978Y-90315465D01*
X119616518Y-90358512D01*
X119561845Y-90408875D01*
X119544214Y-90427583D01*
X119506000Y-90471139D01*
X119477732Y-90506682D01*
X119464618Y-90527583D01*
X119464268Y-90529297D01*
X119459680Y-90539806D01*
X119443758Y-90539924D01*
X119413266Y-90528254D01*
X119364968Y-90503396D01*
X119295627Y-90463952D01*
X119247439Y-90435587D01*
X119175583Y-90391247D01*
X119119742Y-90353279D01*
X119083667Y-90324416D01*
X119071113Y-90307388D01*
X119071121Y-90307264D01*
X119078906Y-90291037D01*
X119100892Y-90250400D01*
X119135803Y-90187567D01*
X119182363Y-90104752D01*
X119239295Y-90004172D01*
X119305323Y-89888040D01*
X119379172Y-89758571D01*
X119459564Y-89617980D01*
X119545224Y-89468482D01*
X119634876Y-89312292D01*
X119727243Y-89151624D01*
X119821049Y-88988693D01*
X119915018Y-88825713D01*
X120007874Y-88664900D01*
X120098340Y-88508468D01*
X120185141Y-88358633D01*
X120267000Y-88217608D01*
X120342641Y-88087609D01*
X120410787Y-87970849D01*
X120470163Y-87869545D01*
X120519493Y-87785911D01*
X120557500Y-87722162D01*
X120582907Y-87680511D01*
X120594440Y-87663175D01*
X120594923Y-87662805D01*
X120604043Y-87675835D01*
G37*
X120604043Y-87675835D02*
X120627065Y-87713245D01*
X120662534Y-87772514D01*
X120708996Y-87851118D01*
X120764996Y-87946538D01*
X120829081Y-88056250D01*
X120899796Y-88177734D01*
X120975687Y-88308468D01*
X121055299Y-88445930D01*
X121137178Y-88587598D01*
X121219870Y-88730951D01*
X121301921Y-88873467D01*
X121381876Y-89012624D01*
X121458281Y-89145901D01*
X121529682Y-89270776D01*
X121594624Y-89384727D01*
X121651653Y-89485233D01*
X121699315Y-89569772D01*
X121736155Y-89635822D01*
X121760720Y-89680862D01*
X121771554Y-89702370D01*
X121771951Y-89703714D01*
X121758501Y-89721965D01*
X121721114Y-89749882D01*
X121664235Y-89784725D01*
X121592312Y-89823754D01*
X121517015Y-89860843D01*
X121414560Y-89905817D01*
X121306817Y-89946226D01*
X121190073Y-89982969D01*
X121060618Y-90016942D01*
X120914740Y-90049044D01*
X120748726Y-90080173D01*
X120558866Y-90111227D01*
X120362469Y-90140145D01*
X120191834Y-90165800D01*
X120048545Y-90191198D01*
X119929008Y-90217602D01*
X119829630Y-90246273D01*
X119746818Y-90278473D01*
X119676978Y-90315465D01*
X119616518Y-90358512D01*
X119561845Y-90408875D01*
X119544214Y-90427583D01*
X119506000Y-90471139D01*
X119477732Y-90506682D01*
X119464618Y-90527583D01*
X119464268Y-90529297D01*
X119459680Y-90539806D01*
X119443758Y-90539924D01*
X119413266Y-90528254D01*
X119364968Y-90503396D01*
X119295627Y-90463952D01*
X119247439Y-90435587D01*
X119175583Y-90391247D01*
X119119742Y-90353279D01*
X119083667Y-90324416D01*
X119071113Y-90307388D01*
X119071121Y-90307264D01*
X119078906Y-90291037D01*
X119100892Y-90250400D01*
X119135803Y-90187567D01*
X119182363Y-90104752D01*
X119239295Y-90004172D01*
X119305323Y-89888040D01*
X119379172Y-89758571D01*
X119459564Y-89617980D01*
X119545224Y-89468482D01*
X119634876Y-89312292D01*
X119727243Y-89151624D01*
X119821049Y-88988693D01*
X119915018Y-88825713D01*
X120007874Y-88664900D01*
X120098340Y-88508468D01*
X120185141Y-88358633D01*
X120267000Y-88217608D01*
X120342641Y-88087609D01*
X120410787Y-87970849D01*
X120470163Y-87869545D01*
X120519493Y-87785911D01*
X120557500Y-87722162D01*
X120582907Y-87680511D01*
X120594440Y-87663175D01*
X120594923Y-87662805D01*
X120604043Y-87675835D01*
G36*
X122427528Y-90824619D02*
G01*
X122438908Y-90843693D01*
X122464488Y-90887421D01*
X122503002Y-90953619D01*
X122553186Y-91040102D01*
X122613775Y-91144685D01*
X122683503Y-91265183D01*
X122761107Y-91399412D01*
X122845320Y-91545187D01*
X122934879Y-91700323D01*
X123026998Y-91860000D01*
X123121076Y-92023117D01*
X123211402Y-92179709D01*
X123296665Y-92327506D01*
X123375557Y-92464240D01*
X123446769Y-92587642D01*
X123508991Y-92695444D01*
X123560913Y-92785377D01*
X123601228Y-92855173D01*
X123628624Y-92902564D01*
X123641507Y-92924786D01*
X123662507Y-92962330D01*
X123673925Y-92985831D01*
X123674551Y-92989920D01*
X123660636Y-92982242D01*
X123621941Y-92960203D01*
X123560487Y-92924971D01*
X123478298Y-92877711D01*
X123377396Y-92819589D01*
X123259805Y-92751771D01*
X123127546Y-92675424D01*
X122982642Y-92591714D01*
X122827117Y-92501806D01*
X122662992Y-92406867D01*
X122600549Y-92370732D01*
X122433487Y-92274083D01*
X122274074Y-92181938D01*
X122124355Y-92095475D01*
X121986376Y-92015871D01*
X121862185Y-91944305D01*
X121753827Y-91881955D01*
X121663348Y-91829998D01*
X121592796Y-91789613D01*
X121544215Y-91761978D01*
X121519654Y-91748272D01*
X121517085Y-91746974D01*
X121524569Y-91735220D01*
X121550614Y-91703795D01*
X121592559Y-91655594D01*
X121647746Y-91593510D01*
X121713517Y-91520439D01*
X121787212Y-91439276D01*
X121866173Y-91352916D01*
X121947740Y-91264253D01*
X122029254Y-91176182D01*
X122108057Y-91091599D01*
X122181490Y-91013397D01*
X122246893Y-90944472D01*
X122301608Y-90887719D01*
X122342977Y-90846032D01*
X122357164Y-90832363D01*
X122404180Y-90788201D01*
X122427528Y-90824619D01*
G37*
X122427528Y-90824619D02*
X122438908Y-90843693D01*
X122464488Y-90887421D01*
X122503002Y-90953619D01*
X122553186Y-91040102D01*
X122613775Y-91144685D01*
X122683503Y-91265183D01*
X122761107Y-91399412D01*
X122845320Y-91545187D01*
X122934879Y-91700323D01*
X123026998Y-91860000D01*
X123121076Y-92023117D01*
X123211402Y-92179709D01*
X123296665Y-92327506D01*
X123375557Y-92464240D01*
X123446769Y-92587642D01*
X123508991Y-92695444D01*
X123560913Y-92785377D01*
X123601228Y-92855173D01*
X123628624Y-92902564D01*
X123641507Y-92924786D01*
X123662507Y-92962330D01*
X123673925Y-92985831D01*
X123674551Y-92989920D01*
X123660636Y-92982242D01*
X123621941Y-92960203D01*
X123560487Y-92924971D01*
X123478298Y-92877711D01*
X123377396Y-92819589D01*
X123259805Y-92751771D01*
X123127546Y-92675424D01*
X122982642Y-92591714D01*
X122827117Y-92501806D01*
X122662992Y-92406867D01*
X122600549Y-92370732D01*
X122433487Y-92274083D01*
X122274074Y-92181938D01*
X122124355Y-92095475D01*
X121986376Y-92015871D01*
X121862185Y-91944305D01*
X121753827Y-91881955D01*
X121663348Y-91829998D01*
X121592796Y-91789613D01*
X121544215Y-91761978D01*
X121519654Y-91748272D01*
X121517085Y-91746974D01*
X121524569Y-91735220D01*
X121550614Y-91703795D01*
X121592559Y-91655594D01*
X121647746Y-91593510D01*
X121713517Y-91520439D01*
X121787212Y-91439276D01*
X121866173Y-91352916D01*
X121947740Y-91264253D01*
X122029254Y-91176182D01*
X122108057Y-91091599D01*
X122181490Y-91013397D01*
X122246893Y-90944472D01*
X122301608Y-90887719D01*
X122342977Y-90846032D01*
X122357164Y-90832363D01*
X122404180Y-90788201D01*
X122427528Y-90824619D01*
G36*
X118762094Y-90881158D02*
G01*
X118794619Y-90893736D01*
X118844193Y-90918712D01*
X118915374Y-90957876D01*
X118920916Y-90960988D01*
X118986474Y-90998476D01*
X119041798Y-91031319D01*
X119081455Y-91056205D01*
X119100012Y-91069820D01*
X119100531Y-91070487D01*
X119096048Y-91089390D01*
X119075486Y-91131605D01*
X119040183Y-91194832D01*
X118991480Y-91276772D01*
X118930718Y-91375122D01*
X118859236Y-91487585D01*
X118841445Y-91515165D01*
X118795093Y-91591699D01*
X118761342Y-91657556D01*
X118743153Y-91706782D01*
X118741286Y-91716507D01*
X118742115Y-91759312D01*
X118751394Y-91827209D01*
X118767968Y-91915843D01*
X118790680Y-92020859D01*
X118818373Y-92137902D01*
X118849890Y-92262616D01*
X118884075Y-92390645D01*
X118919771Y-92517634D01*
X118955821Y-92639228D01*
X118991068Y-92751072D01*
X119024356Y-92848810D01*
X119054528Y-92928087D01*
X119075561Y-92975122D01*
X119100337Y-93025225D01*
X119123730Y-93073168D01*
X119124997Y-93075793D01*
X119163699Y-93124220D01*
X119220184Y-93156828D01*
X119285939Y-93172454D01*
X119352451Y-93169937D01*
X119411205Y-93148114D01*
X119444258Y-93119382D01*
X119491859Y-93040583D01*
X119526739Y-92942378D01*
X119545877Y-92834779D01*
X119548588Y-92773780D01*
X119537670Y-92659935D01*
X119505624Y-92565660D01*
X119450726Y-92486379D01*
X119433607Y-92468733D01*
X119382661Y-92419235D01*
X119379163Y-92069362D01*
X119375664Y-91719489D01*
X119464818Y-91584531D01*
X119506654Y-91523445D01*
X119546945Y-91468493D01*
X119579943Y-91427336D01*
X119594126Y-91412192D01*
X119634281Y-91374810D01*
X119688665Y-91404098D01*
X119723039Y-91425084D01*
X119741846Y-91441378D01*
X119743049Y-91444307D01*
X119755903Y-91456728D01*
X119777896Y-91465977D01*
X119799150Y-91474313D01*
X119831694Y-91490149D01*
X119878322Y-91515033D01*
X119941829Y-91550509D01*
X120025008Y-91598123D01*
X120130653Y-91659422D01*
X120188062Y-91692932D01*
X120255594Y-91733071D01*
X120299885Y-91761659D01*
X120324855Y-91782039D01*
X120334423Y-91797553D01*
X120332508Y-91811546D01*
X120330911Y-91814796D01*
X120315376Y-91835266D01*
X120282136Y-91873665D01*
X120235062Y-91925696D01*
X120178028Y-91987066D01*
X120128700Y-92039090D01*
X120015030Y-92162567D01*
X119926105Y-92269591D01*
X119861134Y-92361240D01*
X119819321Y-92438588D01*
X119805217Y-92477866D01*
X119799392Y-92512249D01*
X119793375Y-92570899D01*
X119787696Y-92647117D01*
X119782884Y-92734202D01*
X119780619Y-92789268D01*
X119777459Y-92884464D01*
X119776069Y-92954062D01*
X119776858Y-93003409D01*
X119780235Y-93037854D01*
X119786608Y-93062743D01*
X119796387Y-93083425D01*
X119804067Y-93096053D01*
X119848421Y-93144726D01*
X119905574Y-93178645D01*
X119965708Y-93193438D01*
X120010773Y-93188086D01*
X120051576Y-93164930D01*
X120102724Y-93123462D01*
X120157042Y-93070912D01*
X120207357Y-93014516D01*
X120246494Y-92961505D01*
X120260905Y-92935889D01*
X120282491Y-92900814D01*
X120321753Y-92847389D01*
X120375102Y-92779789D01*
X120438952Y-92702190D01*
X120509715Y-92618768D01*
X120583804Y-92533698D01*
X120657632Y-92451155D01*
X120727611Y-92375316D01*
X120790155Y-92310356D01*
X120839260Y-92262669D01*
X120893779Y-92215032D01*
X120939642Y-92179908D01*
X120971811Y-92160949D01*
X120982489Y-92158864D01*
X120998853Y-92167274D01*
X121039671Y-92189846D01*
X121102586Y-92225224D01*
X121185244Y-92272054D01*
X121285289Y-92328981D01*
X121400366Y-92394649D01*
X121528119Y-92467703D01*
X121666194Y-92546788D01*
X121812234Y-92630548D01*
X121963884Y-92717629D01*
X122118790Y-92806676D01*
X122274595Y-92896332D01*
X122428944Y-92985243D01*
X122579482Y-93072054D01*
X122723854Y-93155409D01*
X122859704Y-93233954D01*
X122984677Y-93306333D01*
X123096417Y-93371190D01*
X123192570Y-93427171D01*
X123270779Y-93472920D01*
X123328689Y-93507083D01*
X123363946Y-93528304D01*
X123374165Y-93534963D01*
X123360402Y-93536280D01*
X123317104Y-93537559D01*
X123245714Y-93538796D01*
X123147673Y-93539983D01*
X123024422Y-93541115D01*
X122877403Y-93542186D01*
X122708057Y-93543189D01*
X122517826Y-93544119D01*
X122308151Y-93544968D01*
X122080473Y-93545732D01*
X121836235Y-93546403D01*
X121576877Y-93546976D01*
X121303841Y-93547444D01*
X121018568Y-93547802D01*
X120722500Y-93548042D01*
X120417079Y-93548159D01*
X120288924Y-93548171D01*
X117188970Y-93548171D01*
X117410053Y-93164847D01*
X117456856Y-93083680D01*
X117517102Y-92979166D01*
X117588778Y-92854801D01*
X117669869Y-92714082D01*
X117758362Y-92560503D01*
X117852240Y-92397562D01*
X117949491Y-92228754D01*
X118048100Y-92057575D01*
X118146053Y-91887521D01*
X118170825Y-91844512D01*
X118261152Y-91687857D01*
X118347289Y-91538803D01*
X118427942Y-91399568D01*
X118501816Y-91272371D01*
X118567617Y-91159432D01*
X118624050Y-91062968D01*
X118669821Y-90985200D01*
X118703635Y-90928346D01*
X118724198Y-90894625D01*
X118729953Y-90886040D01*
X118742058Y-90879189D01*
X118762094Y-90881158D01*
G37*
X118762094Y-90881158D02*
X118794619Y-90893736D01*
X118844193Y-90918712D01*
X118915374Y-90957876D01*
X118920916Y-90960988D01*
X118986474Y-90998476D01*
X119041798Y-91031319D01*
X119081455Y-91056205D01*
X119100012Y-91069820D01*
X119100531Y-91070487D01*
X119096048Y-91089390D01*
X119075486Y-91131605D01*
X119040183Y-91194832D01*
X118991480Y-91276772D01*
X118930718Y-91375122D01*
X118859236Y-91487585D01*
X118841445Y-91515165D01*
X118795093Y-91591699D01*
X118761342Y-91657556D01*
X118743153Y-91706782D01*
X118741286Y-91716507D01*
X118742115Y-91759312D01*
X118751394Y-91827209D01*
X118767968Y-91915843D01*
X118790680Y-92020859D01*
X118818373Y-92137902D01*
X118849890Y-92262616D01*
X118884075Y-92390645D01*
X118919771Y-92517634D01*
X118955821Y-92639228D01*
X118991068Y-92751072D01*
X119024356Y-92848810D01*
X119054528Y-92928087D01*
X119075561Y-92975122D01*
X119100337Y-93025225D01*
X119123730Y-93073168D01*
X119124997Y-93075793D01*
X119163699Y-93124220D01*
X119220184Y-93156828D01*
X119285939Y-93172454D01*
X119352451Y-93169937D01*
X119411205Y-93148114D01*
X119444258Y-93119382D01*
X119491859Y-93040583D01*
X119526739Y-92942378D01*
X119545877Y-92834779D01*
X119548588Y-92773780D01*
X119537670Y-92659935D01*
X119505624Y-92565660D01*
X119450726Y-92486379D01*
X119433607Y-92468733D01*
X119382661Y-92419235D01*
X119379163Y-92069362D01*
X119375664Y-91719489D01*
X119464818Y-91584531D01*
X119506654Y-91523445D01*
X119546945Y-91468493D01*
X119579943Y-91427336D01*
X119594126Y-91412192D01*
X119634281Y-91374810D01*
X119688665Y-91404098D01*
X119723039Y-91425084D01*
X119741846Y-91441378D01*
X119743049Y-91444307D01*
X119755903Y-91456728D01*
X119777896Y-91465977D01*
X119799150Y-91474313D01*
X119831694Y-91490149D01*
X119878322Y-91515033D01*
X119941829Y-91550509D01*
X120025008Y-91598123D01*
X120130653Y-91659422D01*
X120188062Y-91692932D01*
X120255594Y-91733071D01*
X120299885Y-91761659D01*
X120324855Y-91782039D01*
X120334423Y-91797553D01*
X120332508Y-91811546D01*
X120330911Y-91814796D01*
X120315376Y-91835266D01*
X120282136Y-91873665D01*
X120235062Y-91925696D01*
X120178028Y-91987066D01*
X120128700Y-92039090D01*
X120015030Y-92162567D01*
X119926105Y-92269591D01*
X119861134Y-92361240D01*
X119819321Y-92438588D01*
X119805217Y-92477866D01*
X119799392Y-92512249D01*
X119793375Y-92570899D01*
X119787696Y-92647117D01*
X119782884Y-92734202D01*
X119780619Y-92789268D01*
X119777459Y-92884464D01*
X119776069Y-92954062D01*
X119776858Y-93003409D01*
X119780235Y-93037854D01*
X119786608Y-93062743D01*
X119796387Y-93083425D01*
X119804067Y-93096053D01*
X119848421Y-93144726D01*
X119905574Y-93178645D01*
X119965708Y-93193438D01*
X120010773Y-93188086D01*
X120051576Y-93164930D01*
X120102724Y-93123462D01*
X120157042Y-93070912D01*
X120207357Y-93014516D01*
X120246494Y-92961505D01*
X120260905Y-92935889D01*
X120282491Y-92900814D01*
X120321753Y-92847389D01*
X120375102Y-92779789D01*
X120438952Y-92702190D01*
X120509715Y-92618768D01*
X120583804Y-92533698D01*
X120657632Y-92451155D01*
X120727611Y-92375316D01*
X120790155Y-92310356D01*
X120839260Y-92262669D01*
X120893779Y-92215032D01*
X120939642Y-92179908D01*
X120971811Y-92160949D01*
X120982489Y-92158864D01*
X120998853Y-92167274D01*
X121039671Y-92189846D01*
X121102586Y-92225224D01*
X121185244Y-92272054D01*
X121285289Y-92328981D01*
X121400366Y-92394649D01*
X121528119Y-92467703D01*
X121666194Y-92546788D01*
X121812234Y-92630548D01*
X121963884Y-92717629D01*
X122118790Y-92806676D01*
X122274595Y-92896332D01*
X122428944Y-92985243D01*
X122579482Y-93072054D01*
X122723854Y-93155409D01*
X122859704Y-93233954D01*
X122984677Y-93306333D01*
X123096417Y-93371190D01*
X123192570Y-93427171D01*
X123270779Y-93472920D01*
X123328689Y-93507083D01*
X123363946Y-93528304D01*
X123374165Y-93534963D01*
X123360402Y-93536280D01*
X123317104Y-93537559D01*
X123245714Y-93538796D01*
X123147673Y-93539983D01*
X123024422Y-93541115D01*
X122877403Y-93542186D01*
X122708057Y-93543189D01*
X122517826Y-93544119D01*
X122308151Y-93544968D01*
X122080473Y-93545732D01*
X121836235Y-93546403D01*
X121576877Y-93546976D01*
X121303841Y-93547444D01*
X121018568Y-93547802D01*
X120722500Y-93548042D01*
X120417079Y-93548159D01*
X120288924Y-93548171D01*
X117188970Y-93548171D01*
X117410053Y-93164847D01*
X117456856Y-93083680D01*
X117517102Y-92979166D01*
X117588778Y-92854801D01*
X117669869Y-92714082D01*
X117758362Y-92560503D01*
X117852240Y-92397562D01*
X117949491Y-92228754D01*
X118048100Y-92057575D01*
X118146053Y-91887521D01*
X118170825Y-91844512D01*
X118261152Y-91687857D01*
X118347289Y-91538803D01*
X118427942Y-91399568D01*
X118501816Y-91272371D01*
X118567617Y-91159432D01*
X118624050Y-91062968D01*
X118669821Y-90985200D01*
X118703635Y-90928346D01*
X118724198Y-90894625D01*
X118729953Y-90886040D01*
X118742058Y-90879189D01*
X118762094Y-90881158D01*
D11*
%TO.C,J7*%
X162150000Y-96830000D02*
X160900000Y-96830000D01*
X162150000Y-98080000D02*
X162150000Y-96830000D01*
X157740000Y-100190000D02*
X158240000Y-100190000D01*
X158240000Y-100290000D02*
X157740000Y-100290000D01*
X158240000Y-100090000D02*
X158240000Y-100290000D01*
X157740000Y-100090000D02*
X158240000Y-100090000D01*
X159240000Y-103250000D02*
X159240000Y-102640000D01*
X160540000Y-103250000D02*
X160540000Y-102640000D01*
X159240000Y-97130000D02*
X159240000Y-97740000D01*
X160540000Y-97130000D02*
X160540000Y-97740000D01*
X161240000Y-100690000D02*
X161850000Y-100690000D01*
X161240000Y-102640000D02*
X161240000Y-100690000D01*
X157740000Y-102640000D02*
X161240000Y-102640000D01*
X157740000Y-97740000D02*
X157740000Y-102640000D01*
X161240000Y-97740000D02*
X157740000Y-97740000D01*
X161240000Y-99690000D02*
X161240000Y-97740000D01*
X161850000Y-99690000D02*
X161240000Y-99690000D01*
X161950000Y-98890000D02*
X161950000Y-98590000D01*
X162050000Y-98590000D02*
X161850000Y-98590000D01*
X162050000Y-98890000D02*
X162050000Y-98590000D01*
X161850000Y-98890000D02*
X162050000Y-98890000D01*
X161850000Y-103250000D02*
X161850000Y-97130000D01*
X157130000Y-103250000D02*
X161850000Y-103250000D01*
X157130000Y-97130000D02*
X157130000Y-103250000D01*
X161850000Y-97130000D02*
X157130000Y-97130000D01*
%TO.C,R8*%
X154417064Y-100425000D02*
X153962936Y-100425000D01*
X154417064Y-98955000D02*
X153962936Y-98955000D01*
%TO.C,R7*%
X154417064Y-102425000D02*
X153962936Y-102425000D01*
X154417064Y-100955000D02*
X153962936Y-100955000D01*
%TO.C,J8*%
X161850000Y-89630000D02*
X157130000Y-89630000D01*
X157130000Y-89630000D02*
X157130000Y-95750000D01*
X157130000Y-95750000D02*
X161850000Y-95750000D01*
X161850000Y-95750000D02*
X161850000Y-89630000D01*
X161850000Y-91390000D02*
X162050000Y-91390000D01*
X162050000Y-91390000D02*
X162050000Y-91090000D01*
X162050000Y-91090000D02*
X161850000Y-91090000D01*
X161950000Y-91390000D02*
X161950000Y-91090000D01*
X161850000Y-92190000D02*
X161240000Y-92190000D01*
X161240000Y-92190000D02*
X161240000Y-90240000D01*
X161240000Y-90240000D02*
X157740000Y-90240000D01*
X157740000Y-90240000D02*
X157740000Y-95140000D01*
X157740000Y-95140000D02*
X161240000Y-95140000D01*
X161240000Y-95140000D02*
X161240000Y-93190000D01*
X161240000Y-93190000D02*
X161850000Y-93190000D01*
X160540000Y-89630000D02*
X160540000Y-90240000D01*
X159240000Y-89630000D02*
X159240000Y-90240000D01*
X160540000Y-95750000D02*
X160540000Y-95140000D01*
X159240000Y-95750000D02*
X159240000Y-95140000D01*
X157740000Y-92590000D02*
X158240000Y-92590000D01*
X158240000Y-92590000D02*
X158240000Y-92790000D01*
X158240000Y-92790000D02*
X157740000Y-92790000D01*
X157740000Y-92690000D02*
X158240000Y-92690000D01*
X162150000Y-90580000D02*
X162150000Y-89330000D01*
X162150000Y-89330000D02*
X160900000Y-89330000D01*
%TO.C,U1*%
X155500000Y-80970000D02*
X154040000Y-80970000D01*
X155500000Y-77810000D02*
X153340000Y-77810000D01*
X155500000Y-77810000D02*
X155500000Y-78740000D01*
X155500000Y-80970000D02*
X155500000Y-80040000D01*
%TO.C,Y1*%
X135140000Y-81790000D02*
X135940000Y-81790000D01*
X135140000Y-84190000D02*
X135140000Y-82190000D01*
X135940000Y-84190000D02*
X135140000Y-84190000D01*
X138740000Y-84190000D02*
X137740000Y-84190000D01*
X138740000Y-82190000D02*
X138740000Y-84190000D01*
X137740000Y-81790000D02*
X138740000Y-81790000D01*
X137740000Y-81790000D02*
X137740000Y-81390000D01*
X138940000Y-84190000D02*
X138940000Y-82190000D01*
X135140000Y-82190000D02*
X135140000Y-81790000D01*
X138740000Y-82190000D02*
X138740000Y-81790000D01*
X138940000Y-82190000D02*
X138940000Y-81790000D01*
%TO.C,SW1*%
X144090000Y-93750000D02*
X144090000Y-87630000D01*
X144090000Y-87630000D02*
X147790000Y-87630000D01*
X147790000Y-87630000D02*
X147790000Y-93750000D01*
X147790000Y-93750000D02*
X144090000Y-93750000D01*
%TO.C,R6*%
X146712936Y-95855000D02*
X147167064Y-95855000D01*
X146712936Y-97325000D02*
X147167064Y-97325000D01*
%TO.C,J4*%
X155770000Y-84280000D02*
X153110000Y-84280000D01*
X155770000Y-94500000D02*
X155770000Y-84280000D01*
X153110000Y-94500000D02*
X153110000Y-84280000D01*
X155770000Y-94500000D02*
X153110000Y-94500000D01*
X155770000Y-95770000D02*
X155770000Y-97100000D01*
X155770000Y-97100000D02*
X154440000Y-97100000D01*
%TO.C,C7*%
X147201252Y-99425000D02*
X146678748Y-99425000D01*
X147201252Y-97955000D02*
X146678748Y-97955000D01*
%TO.C,C6*%
X131163752Y-97325000D02*
X130641248Y-97325000D01*
X131163752Y-95855000D02*
X130641248Y-95855000D01*
%TO.C,C1*%
X130641248Y-99425000D02*
X131163752Y-99425000D01*
X130641248Y-97955000D02*
X131163752Y-97955000D01*
%TO.C,C2*%
X154478748Y-83175000D02*
X155001252Y-83175000D01*
X154478748Y-81705000D02*
X155001252Y-81705000D01*
%TO.C,C5*%
X144490000Y-82350000D02*
X152725000Y-82350000D01*
X152725000Y-82350000D02*
X152725000Y-77830000D01*
X152725000Y-77830000D02*
X144490000Y-77830000D01*
%TO.C,R5*%
X142712936Y-85525000D02*
X143167064Y-85525000D01*
X142712936Y-84055000D02*
X143167064Y-84055000D01*
%TO.C,R4*%
X142712936Y-99425000D02*
X143167064Y-99425000D01*
X142712936Y-97955000D02*
X143167064Y-97955000D01*
%TO.C,R3*%
X143167064Y-95855000D02*
X142712936Y-95855000D01*
X143167064Y-97325000D02*
X142712936Y-97325000D01*
%TO.C,R2*%
X130712936Y-85525000D02*
X131167064Y-85525000D01*
X130712936Y-84055000D02*
X131167064Y-84055000D01*
%TO.C,R1*%
X131167064Y-81955000D02*
X130712936Y-81955000D01*
X131167064Y-83425000D02*
X130712936Y-83425000D01*
%TO.C,C4*%
X137201252Y-97955000D02*
X136678748Y-97955000D01*
X137201252Y-99425000D02*
X136678748Y-99425000D01*
%TO.C,J3*%
X161850000Y-78130000D02*
X157130000Y-78130000D01*
X157130000Y-78130000D02*
X157130000Y-88250000D01*
X157130000Y-88250000D02*
X161850000Y-88250000D01*
X161850000Y-88250000D02*
X161850000Y-78130000D01*
X161850000Y-79890000D02*
X162050000Y-79890000D01*
X162050000Y-79890000D02*
X162050000Y-79590000D01*
X162050000Y-79590000D02*
X161850000Y-79590000D01*
X161950000Y-79890000D02*
X161950000Y-79590000D01*
X161850000Y-80690000D02*
X161240000Y-80690000D01*
X161240000Y-80690000D02*
X161240000Y-78740000D01*
X161240000Y-78740000D02*
X157740000Y-78740000D01*
X157740000Y-78740000D02*
X157740000Y-87640000D01*
X157740000Y-87640000D02*
X161240000Y-87640000D01*
X161240000Y-87640000D02*
X161240000Y-85690000D01*
X161240000Y-85690000D02*
X161850000Y-85690000D01*
X160540000Y-78130000D02*
X160540000Y-78740000D01*
X159240000Y-78130000D02*
X159240000Y-78740000D01*
X160540000Y-88250000D02*
X160540000Y-87640000D01*
X159240000Y-88250000D02*
X159240000Y-87640000D01*
X157740000Y-81090000D02*
X158240000Y-81090000D01*
X158240000Y-81090000D02*
X158240000Y-81290000D01*
X158240000Y-81290000D02*
X157740000Y-81290000D01*
X157740000Y-81190000D02*
X158240000Y-81190000D01*
X157740000Y-83090000D02*
X158240000Y-83090000D01*
X158240000Y-83090000D02*
X158240000Y-83290000D01*
X158240000Y-83290000D02*
X157740000Y-83290000D01*
X157740000Y-83190000D02*
X158240000Y-83190000D01*
X157740000Y-85090000D02*
X158240000Y-85090000D01*
X158240000Y-85090000D02*
X158240000Y-85290000D01*
X158240000Y-85290000D02*
X157740000Y-85290000D01*
X157740000Y-85190000D02*
X158240000Y-85190000D01*
X162150000Y-79080000D02*
X162150000Y-77830000D01*
X162150000Y-77830000D02*
X160900000Y-77830000D01*
%TO.C,J2*%
X168850000Y-90230000D02*
X164130000Y-90230000D01*
X164130000Y-90230000D02*
X164130000Y-98350000D01*
X164130000Y-98350000D02*
X168850000Y-98350000D01*
X168850000Y-98350000D02*
X168850000Y-90230000D01*
X168850000Y-91990000D02*
X169050000Y-91990000D01*
X169050000Y-91990000D02*
X169050000Y-91690000D01*
X169050000Y-91690000D02*
X168850000Y-91690000D01*
X168950000Y-91990000D02*
X168950000Y-91690000D01*
X168850000Y-92790000D02*
X168240000Y-92790000D01*
X168240000Y-92790000D02*
X168240000Y-90840000D01*
X168240000Y-90840000D02*
X164740000Y-90840000D01*
X164740000Y-90840000D02*
X164740000Y-97740000D01*
X164740000Y-97740000D02*
X168240000Y-97740000D01*
X168240000Y-97740000D02*
X168240000Y-95790000D01*
X168240000Y-95790000D02*
X168850000Y-95790000D01*
X167540000Y-90230000D02*
X167540000Y-90840000D01*
X166240000Y-90230000D02*
X166240000Y-90840000D01*
X167540000Y-98350000D02*
X167540000Y-97740000D01*
X166240000Y-98350000D02*
X166240000Y-97740000D01*
X164740000Y-93190000D02*
X165240000Y-93190000D01*
X165240000Y-93190000D02*
X165240000Y-93390000D01*
X165240000Y-93390000D02*
X164740000Y-93390000D01*
X164740000Y-93290000D02*
X165240000Y-93290000D01*
X164740000Y-95190000D02*
X165240000Y-95190000D01*
X165240000Y-95190000D02*
X165240000Y-95390000D01*
X165240000Y-95390000D02*
X164740000Y-95390000D01*
X164740000Y-95290000D02*
X165240000Y-95290000D01*
X169150000Y-91180000D02*
X169150000Y-89930000D01*
X169150000Y-89930000D02*
X167900000Y-89930000D01*
%TO.C,C3*%
X147201252Y-85525000D02*
X146678748Y-85525000D01*
X147201252Y-84055000D02*
X146678748Y-84055000D01*
%TO.C,U2*%
D10*
X113565666Y-102628095D02*
X113565666Y-102151904D01*
X113851380Y-102723333D02*
X112851380Y-102389999D01*
X113851380Y-102056666D01*
X113851380Y-101723333D02*
X112851380Y-101723333D01*
X113851380Y-101151904D01*
X112851380Y-101151904D01*
X112851380Y-100818571D02*
X112851380Y-100247142D01*
X113851380Y-100532857D02*
X112851380Y-100532857D01*
X114899000Y-102437618D02*
X114851380Y-102532856D01*
X114851380Y-102675714D01*
X114899000Y-102818571D01*
X114994238Y-102913809D01*
X115089476Y-102961428D01*
X115279952Y-103009047D01*
X115422809Y-103009047D01*
X115613285Y-102961428D01*
X115708523Y-102913809D01*
X115803761Y-102818571D01*
X115851380Y-102675714D01*
X115851380Y-102580475D01*
X115803761Y-102437618D01*
X115756142Y-102389999D01*
X115422809Y-102389999D01*
X115422809Y-102580475D01*
X115851380Y-101961428D02*
X114851380Y-101961428D01*
X115851380Y-101389999D01*
X114851380Y-101389999D01*
X115851380Y-100913809D02*
X114851380Y-100913809D01*
X114851380Y-100675714D01*
X114899000Y-100532856D01*
X114994238Y-100437618D01*
X115089476Y-100389999D01*
X115279952Y-100342380D01*
X115422809Y-100342380D01*
X115613285Y-100389999D01*
X115708523Y-100437618D01*
X115803761Y-100532856D01*
X115851380Y-100675714D01*
X115851380Y-100913809D01*
X117851380Y-103390000D02*
X116851380Y-103390000D01*
X116851380Y-103151904D01*
X116899000Y-103009047D01*
X116994238Y-102913809D01*
X117089476Y-102866190D01*
X117279952Y-102818571D01*
X117422809Y-102818571D01*
X117613285Y-102866190D01*
X117708523Y-102913809D01*
X117803761Y-103009047D01*
X117851380Y-103151904D01*
X117851380Y-103390000D01*
X117851380Y-102390000D02*
X116851380Y-102390000D01*
X116851380Y-101723333D02*
X116851380Y-101532857D01*
X116899000Y-101437619D01*
X116994238Y-101342380D01*
X117184714Y-101294761D01*
X117518047Y-101294761D01*
X117708523Y-101342380D01*
X117803761Y-101437619D01*
X117851380Y-101532857D01*
X117851380Y-101723333D01*
X117803761Y-101818571D01*
X117708523Y-101913809D01*
X117518047Y-101961428D01*
X117184714Y-101961428D01*
X116994238Y-101913809D01*
X116899000Y-101818571D01*
X116851380Y-101723333D01*
X116851380Y-100961428D02*
X116851380Y-100342380D01*
X117232333Y-100675714D01*
X117232333Y-100532857D01*
X117279952Y-100437619D01*
X117327571Y-100390000D01*
X117422809Y-100342380D01*
X117660904Y-100342380D01*
X117756142Y-100390000D01*
X117803761Y-100437619D01*
X117851380Y-100532857D01*
X117851380Y-100818571D01*
X117803761Y-100913809D01*
X117756142Y-100961428D01*
X119851380Y-103390000D02*
X118851380Y-103390000D01*
X118851380Y-103151904D01*
X118899000Y-103009047D01*
X118994238Y-102913809D01*
X119089476Y-102866190D01*
X119279952Y-102818571D01*
X119422809Y-102818571D01*
X119613285Y-102866190D01*
X119708523Y-102913809D01*
X119803761Y-103009047D01*
X119851380Y-103151904D01*
X119851380Y-103390000D01*
X119851380Y-102390000D02*
X118851380Y-102390000D01*
X118851380Y-101723333D02*
X118851380Y-101532857D01*
X118899000Y-101437619D01*
X118994238Y-101342380D01*
X119184714Y-101294761D01*
X119518047Y-101294761D01*
X119708523Y-101342380D01*
X119803761Y-101437619D01*
X119851380Y-101532857D01*
X119851380Y-101723333D01*
X119803761Y-101818571D01*
X119708523Y-101913809D01*
X119518047Y-101961428D01*
X119184714Y-101961428D01*
X118994238Y-101913809D01*
X118899000Y-101818571D01*
X118851380Y-101723333D01*
X119184714Y-100437619D02*
X119851380Y-100437619D01*
X118803761Y-100675714D02*
X119518047Y-100913809D01*
X119518047Y-100294761D01*
X120851380Y-103247142D02*
X120851380Y-102628094D01*
X121232333Y-102961428D01*
X121232333Y-102818571D01*
X121279952Y-102723332D01*
X121327571Y-102675713D01*
X121422809Y-102628094D01*
X121660904Y-102628094D01*
X121756142Y-102675713D01*
X121803761Y-102723332D01*
X121851380Y-102818571D01*
X121851380Y-103104285D01*
X121803761Y-103199523D01*
X121756142Y-103247142D01*
X121756142Y-102199523D02*
X121803761Y-102151904D01*
X121851380Y-102199523D01*
X121803761Y-102247142D01*
X121756142Y-102199523D01*
X121851380Y-102199523D01*
X120851380Y-101818571D02*
X120851380Y-101199523D01*
X121232333Y-101532856D01*
X121232333Y-101389999D01*
X121279952Y-101294761D01*
X121327571Y-101247142D01*
X121422809Y-101199523D01*
X121660904Y-101199523D01*
X121756142Y-101247142D01*
X121803761Y-101294761D01*
X121851380Y-101389999D01*
X121851380Y-101675713D01*
X121803761Y-101770952D01*
X121756142Y-101818571D01*
X120851380Y-100913809D02*
X121851380Y-100580475D01*
X120851380Y-100247142D01*
X123851380Y-103390000D02*
X122851380Y-103390000D01*
X122851380Y-103151904D01*
X122899000Y-103009047D01*
X122994238Y-102913809D01*
X123089476Y-102866190D01*
X123279952Y-102818571D01*
X123422809Y-102818571D01*
X123613285Y-102866190D01*
X123708523Y-102913809D01*
X123803761Y-103009047D01*
X123851380Y-103151904D01*
X123851380Y-103390000D01*
X123851380Y-102390000D02*
X122851380Y-102390000D01*
X122851380Y-101723333D02*
X122851380Y-101532857D01*
X122899000Y-101437619D01*
X122994238Y-101342380D01*
X123184714Y-101294761D01*
X123518047Y-101294761D01*
X123708523Y-101342380D01*
X123803761Y-101437619D01*
X123851380Y-101532857D01*
X123851380Y-101723333D01*
X123803761Y-101818571D01*
X123708523Y-101913809D01*
X123518047Y-101961428D01*
X123184714Y-101961428D01*
X122994238Y-101913809D01*
X122899000Y-101818571D01*
X122851380Y-101723333D01*
X122851380Y-100675714D02*
X122851380Y-100580476D01*
X122899000Y-100485238D01*
X122946619Y-100437619D01*
X123041857Y-100390000D01*
X123232333Y-100342380D01*
X123470428Y-100342380D01*
X123660904Y-100390000D01*
X123756142Y-100437619D01*
X123803761Y-100485238D01*
X123851380Y-100580476D01*
X123851380Y-100675714D01*
X123803761Y-100770952D01*
X123756142Y-100818571D01*
X123660904Y-100866190D01*
X123470428Y-100913809D01*
X123232333Y-100913809D01*
X123041857Y-100866190D01*
X122946619Y-100818571D01*
X122899000Y-100770952D01*
X122851380Y-100675714D01*
X125851380Y-103390000D02*
X124851380Y-103390000D01*
X124851380Y-103151904D01*
X124899000Y-103009047D01*
X124994238Y-102913809D01*
X125089476Y-102866190D01*
X125279952Y-102818571D01*
X125422809Y-102818571D01*
X125613285Y-102866190D01*
X125708523Y-102913809D01*
X125803761Y-103009047D01*
X125851380Y-103151904D01*
X125851380Y-103390000D01*
X125851380Y-102390000D02*
X124851380Y-102390000D01*
X124851380Y-101723333D02*
X124851380Y-101532857D01*
X124899000Y-101437619D01*
X124994238Y-101342380D01*
X125184714Y-101294761D01*
X125518047Y-101294761D01*
X125708523Y-101342380D01*
X125803761Y-101437619D01*
X125851380Y-101532857D01*
X125851380Y-101723333D01*
X125803761Y-101818571D01*
X125708523Y-101913809D01*
X125518047Y-101961428D01*
X125184714Y-101961428D01*
X124994238Y-101913809D01*
X124899000Y-101818571D01*
X124851380Y-101723333D01*
X125851380Y-100342380D02*
X125851380Y-100913809D01*
X125851380Y-100628095D02*
X124851380Y-100628095D01*
X124994238Y-100723333D01*
X125089476Y-100818571D01*
X125137095Y-100913809D01*
X127851380Y-103390000D02*
X126851380Y-103390000D01*
X126851380Y-103151904D01*
X126899000Y-103009047D01*
X126994238Y-102913809D01*
X127089476Y-102866190D01*
X127279952Y-102818571D01*
X127422809Y-102818571D01*
X127613285Y-102866190D01*
X127708523Y-102913809D01*
X127803761Y-103009047D01*
X127851380Y-103151904D01*
X127851380Y-103390000D01*
X127851380Y-102390000D02*
X126851380Y-102390000D01*
X126851380Y-101723333D02*
X126851380Y-101532857D01*
X126899000Y-101437619D01*
X126994238Y-101342380D01*
X127184714Y-101294761D01*
X127518047Y-101294761D01*
X127708523Y-101342380D01*
X127803761Y-101437619D01*
X127851380Y-101532857D01*
X127851380Y-101723333D01*
X127803761Y-101818571D01*
X127708523Y-101913809D01*
X127518047Y-101961428D01*
X127184714Y-101961428D01*
X126994238Y-101913809D01*
X126899000Y-101818571D01*
X126851380Y-101723333D01*
X126946619Y-100913809D02*
X126899000Y-100866190D01*
X126851380Y-100770952D01*
X126851380Y-100532857D01*
X126899000Y-100437619D01*
X126946619Y-100390000D01*
X127041857Y-100342380D01*
X127137095Y-100342380D01*
X127279952Y-100390000D01*
X127851380Y-100961428D01*
X127851380Y-100342380D01*
X112899000Y-80476904D02*
X112851380Y-80572142D01*
X112851380Y-80715000D01*
X112899000Y-80857857D01*
X112994238Y-80953095D01*
X113089476Y-81000714D01*
X113279952Y-81048333D01*
X113422809Y-81048333D01*
X113613285Y-81000714D01*
X113708523Y-80953095D01*
X113803761Y-80857857D01*
X113851380Y-80715000D01*
X113851380Y-80619761D01*
X113803761Y-80476904D01*
X113756142Y-80429285D01*
X113422809Y-80429285D01*
X113422809Y-80619761D01*
X113851380Y-80000714D02*
X112851380Y-80000714D01*
X113851380Y-79429285D01*
X112851380Y-79429285D01*
X113851380Y-78953095D02*
X112851380Y-78953095D01*
X112851380Y-78715000D01*
X112899000Y-78572142D01*
X112994238Y-78476904D01*
X113089476Y-78429285D01*
X113279952Y-78381666D01*
X113422809Y-78381666D01*
X113613285Y-78429285D01*
X113708523Y-78476904D01*
X113803761Y-78572142D01*
X113851380Y-78715000D01*
X113851380Y-78953095D01*
X115851380Y-81000715D02*
X114851380Y-81000715D01*
X114851380Y-80762619D01*
X114899000Y-80619762D01*
X114994238Y-80524524D01*
X115089476Y-80476905D01*
X115279952Y-80429286D01*
X115422809Y-80429286D01*
X115613285Y-80476905D01*
X115708523Y-80524524D01*
X115803761Y-80619762D01*
X115851380Y-80762619D01*
X115851380Y-81000715D01*
X115851380Y-80000715D02*
X114851380Y-80000715D01*
X114851380Y-79334048D02*
X114851380Y-79143572D01*
X114899000Y-79048334D01*
X114994238Y-78953095D01*
X115184714Y-78905476D01*
X115518047Y-78905476D01*
X115708523Y-78953095D01*
X115803761Y-79048334D01*
X115851380Y-79143572D01*
X115851380Y-79334048D01*
X115803761Y-79429286D01*
X115708523Y-79524524D01*
X115518047Y-79572143D01*
X115184714Y-79572143D01*
X114994238Y-79524524D01*
X114899000Y-79429286D01*
X114851380Y-79334048D01*
X114851380Y-78000715D02*
X114851380Y-78476905D01*
X115327571Y-78524524D01*
X115279952Y-78476905D01*
X115232333Y-78381667D01*
X115232333Y-78143572D01*
X115279952Y-78048334D01*
X115327571Y-78000715D01*
X115422809Y-77953095D01*
X115660904Y-77953095D01*
X115756142Y-78000715D01*
X115803761Y-78048334D01*
X115851380Y-78143572D01*
X115851380Y-78381667D01*
X115803761Y-78476905D01*
X115756142Y-78524524D01*
X117851380Y-80429286D02*
X117375190Y-80762619D01*
X117851380Y-81000714D02*
X116851380Y-81000714D01*
X116851380Y-80619762D01*
X116899000Y-80524524D01*
X116946619Y-80476905D01*
X117041857Y-80429286D01*
X117184714Y-80429286D01*
X117279952Y-80476905D01*
X117327571Y-80524524D01*
X117375190Y-80619762D01*
X117375190Y-81000714D01*
X117803761Y-80048333D02*
X117851380Y-79905476D01*
X117851380Y-79667381D01*
X117803761Y-79572143D01*
X117756142Y-79524524D01*
X117660904Y-79476905D01*
X117565666Y-79476905D01*
X117470428Y-79524524D01*
X117422809Y-79572143D01*
X117375190Y-79667381D01*
X117327571Y-79857857D01*
X117279952Y-79953095D01*
X117232333Y-80000714D01*
X117137095Y-80048333D01*
X117041857Y-80048333D01*
X116946619Y-80000714D01*
X116899000Y-79953095D01*
X116851380Y-79857857D01*
X116851380Y-79619762D01*
X116899000Y-79476905D01*
X116851380Y-79191190D02*
X116851380Y-78619762D01*
X117851380Y-78905476D02*
X116851380Y-78905476D01*
X119851380Y-81000714D02*
X118851380Y-81000714D01*
X119851380Y-80429285D01*
X118851380Y-80429285D01*
X119803761Y-80000714D02*
X119851380Y-79857857D01*
X119851380Y-79619761D01*
X119803761Y-79524523D01*
X119756142Y-79476904D01*
X119660904Y-79429285D01*
X119565666Y-79429285D01*
X119470428Y-79476904D01*
X119422809Y-79524523D01*
X119375190Y-79619761D01*
X119327571Y-79810238D01*
X119279952Y-79905476D01*
X119232333Y-79953095D01*
X119137095Y-80000714D01*
X119041857Y-80000714D01*
X118946619Y-79953095D01*
X118899000Y-79905476D01*
X118851380Y-79810238D01*
X118851380Y-79572142D01*
X118899000Y-79429285D01*
X119803761Y-79048333D02*
X119851380Y-78905476D01*
X119851380Y-78667380D01*
X119803761Y-78572142D01*
X119756142Y-78524523D01*
X119660904Y-78476904D01*
X119565666Y-78476904D01*
X119470428Y-78524523D01*
X119422809Y-78572142D01*
X119375190Y-78667380D01*
X119327571Y-78857857D01*
X119279952Y-78953095D01*
X119232333Y-79000714D01*
X119137095Y-79048333D01*
X119041857Y-79048333D01*
X118946619Y-79000714D01*
X118899000Y-78953095D01*
X118851380Y-78857857D01*
X118851380Y-78619761D01*
X118899000Y-78476904D01*
X121803761Y-81048333D02*
X121851380Y-80905476D01*
X121851380Y-80667380D01*
X121803761Y-80572142D01*
X121756142Y-80524523D01*
X121660904Y-80476904D01*
X121565666Y-80476904D01*
X121470428Y-80524523D01*
X121422809Y-80572142D01*
X121375190Y-80667380D01*
X121327571Y-80857857D01*
X121279952Y-80953095D01*
X121232333Y-81000714D01*
X121137095Y-81048333D01*
X121041857Y-81048333D01*
X120946619Y-81000714D01*
X120899000Y-80953095D01*
X120851380Y-80857857D01*
X120851380Y-80619761D01*
X120899000Y-80476904D01*
X121756142Y-79476904D02*
X121803761Y-79524523D01*
X121851380Y-79667380D01*
X121851380Y-79762619D01*
X121803761Y-79905476D01*
X121708523Y-80000714D01*
X121613285Y-80048333D01*
X121422809Y-80095952D01*
X121279952Y-80095952D01*
X121089476Y-80048333D01*
X120994238Y-80000714D01*
X120899000Y-79905476D01*
X120851380Y-79762619D01*
X120851380Y-79667380D01*
X120899000Y-79524523D01*
X120946619Y-79476904D01*
X121851380Y-79048333D02*
X120851380Y-79048333D01*
X121851380Y-78476904D02*
X121279952Y-78905476D01*
X120851380Y-78476904D02*
X121422809Y-79048333D01*
X123851380Y-81000714D02*
X122851380Y-81000714D01*
X123565666Y-80667381D01*
X122851380Y-80334047D01*
X123851380Y-80334047D01*
X122851380Y-79667381D02*
X122851380Y-79476905D01*
X122899000Y-79381666D01*
X122994238Y-79286428D01*
X123184714Y-79238809D01*
X123518047Y-79238809D01*
X123708523Y-79286428D01*
X123803761Y-79381666D01*
X123851380Y-79476905D01*
X123851380Y-79667381D01*
X123803761Y-79762619D01*
X123708523Y-79857857D01*
X123518047Y-79905476D01*
X123184714Y-79905476D01*
X122994238Y-79857857D01*
X122899000Y-79762619D01*
X122851380Y-79667381D01*
X123803761Y-78857857D02*
X123851380Y-78715000D01*
X123851380Y-78476905D01*
X123803761Y-78381666D01*
X123756142Y-78334047D01*
X123660904Y-78286428D01*
X123565666Y-78286428D01*
X123470428Y-78334047D01*
X123422809Y-78381666D01*
X123375190Y-78476905D01*
X123327571Y-78667381D01*
X123279952Y-78762619D01*
X123232333Y-78810238D01*
X123137095Y-78857857D01*
X123041857Y-78857857D01*
X122946619Y-78810238D01*
X122899000Y-78762619D01*
X122851380Y-78667381D01*
X122851380Y-78429286D01*
X122899000Y-78286428D01*
X123851380Y-77857857D02*
X122851380Y-77857857D01*
X125851380Y-81000714D02*
X124851380Y-81000714D01*
X125565666Y-80667381D01*
X124851380Y-80334047D01*
X125851380Y-80334047D01*
X125851380Y-79857857D02*
X124851380Y-79857857D01*
X125803761Y-79429286D02*
X125851380Y-79286428D01*
X125851380Y-79048333D01*
X125803761Y-78953095D01*
X125756142Y-78905476D01*
X125660904Y-78857857D01*
X125565666Y-78857857D01*
X125470428Y-78905476D01*
X125422809Y-78953095D01*
X125375190Y-79048333D01*
X125327571Y-79238809D01*
X125279952Y-79334047D01*
X125232333Y-79381666D01*
X125137095Y-79429286D01*
X125041857Y-79429286D01*
X124946619Y-79381666D01*
X124899000Y-79334047D01*
X124851380Y-79238809D01*
X124851380Y-79000714D01*
X124899000Y-78857857D01*
X124851380Y-78238809D02*
X124851380Y-78048333D01*
X124899000Y-77953095D01*
X124994238Y-77857857D01*
X125184714Y-77810238D01*
X125518047Y-77810238D01*
X125708523Y-77857857D01*
X125803761Y-77953095D01*
X125851380Y-78048333D01*
X125851380Y-78238809D01*
X125803761Y-78334047D01*
X125708523Y-78429286D01*
X125518047Y-78476905D01*
X125184714Y-78476905D01*
X124994238Y-78429286D01*
X124899000Y-78334047D01*
X124851380Y-78238809D01*
X126899000Y-80476904D02*
X126851380Y-80572142D01*
X126851380Y-80715000D01*
X126899000Y-80857857D01*
X126994238Y-80953095D01*
X127089476Y-81000714D01*
X127279952Y-81048333D01*
X127422809Y-81048333D01*
X127613285Y-81000714D01*
X127708523Y-80953095D01*
X127803761Y-80857857D01*
X127851380Y-80715000D01*
X127851380Y-80619761D01*
X127803761Y-80476904D01*
X127756142Y-80429285D01*
X127422809Y-80429285D01*
X127422809Y-80619761D01*
X127851380Y-80000714D02*
X126851380Y-80000714D01*
X127851380Y-79429285D01*
X126851380Y-79429285D01*
X127851380Y-78953095D02*
X126851380Y-78953095D01*
X126851380Y-78715000D01*
X126899000Y-78572142D01*
X126994238Y-78476904D01*
X127089476Y-78429285D01*
X127279952Y-78381666D01*
X127422809Y-78381666D01*
X127613285Y-78429285D01*
X127708523Y-78476904D01*
X127803761Y-78572142D01*
X127851380Y-78715000D01*
X127851380Y-78953095D01*
%TO.C,R8*%
X154023333Y-98542380D02*
X153690000Y-98066190D01*
X153451904Y-98542380D02*
X153451904Y-97542380D01*
X153832857Y-97542380D01*
X153928095Y-97590000D01*
X153975714Y-97637619D01*
X154023333Y-97732857D01*
X154023333Y-97875714D01*
X153975714Y-97970952D01*
X153928095Y-98018571D01*
X153832857Y-98066190D01*
X153451904Y-98066190D01*
X154594761Y-97970952D02*
X154499523Y-97923333D01*
X154451904Y-97875714D01*
X154404285Y-97780476D01*
X154404285Y-97732857D01*
X154451904Y-97637619D01*
X154499523Y-97590000D01*
X154594761Y-97542380D01*
X154785238Y-97542380D01*
X154880476Y-97590000D01*
X154928095Y-97637619D01*
X154975714Y-97732857D01*
X154975714Y-97780476D01*
X154928095Y-97875714D01*
X154880476Y-97923333D01*
X154785238Y-97970952D01*
X154594761Y-97970952D01*
X154499523Y-98018571D01*
X154451904Y-98066190D01*
X154404285Y-98161428D01*
X154404285Y-98351904D01*
X154451904Y-98447142D01*
X154499523Y-98494761D01*
X154594761Y-98542380D01*
X154785238Y-98542380D01*
X154880476Y-98494761D01*
X154928095Y-98447142D01*
X154975714Y-98351904D01*
X154975714Y-98161428D01*
X154928095Y-98066190D01*
X154880476Y-98018571D01*
X154785238Y-97970952D01*
%TO.C,R7*%
X154023333Y-103842380D02*
X153690000Y-103366190D01*
X153451904Y-103842380D02*
X153451904Y-102842380D01*
X153832857Y-102842380D01*
X153928095Y-102890000D01*
X153975714Y-102937619D01*
X154023333Y-103032857D01*
X154023333Y-103175714D01*
X153975714Y-103270952D01*
X153928095Y-103318571D01*
X153832857Y-103366190D01*
X153451904Y-103366190D01*
X154356666Y-102842380D02*
X155023333Y-102842380D01*
X154594761Y-103842380D01*
%TO.C,Y1*%
X139463809Y-82966190D02*
X139463809Y-83442380D01*
X139130476Y-82442380D02*
X139463809Y-82966190D01*
X139797142Y-82442380D01*
X140654285Y-83442380D02*
X140082857Y-83442380D01*
X140368571Y-83442380D02*
X140368571Y-82442380D01*
X140273333Y-82585238D01*
X140178095Y-82680476D01*
X140082857Y-82728095D01*
%TO.C,R6*%
X149573333Y-97042380D02*
X149240000Y-96566190D01*
X149001904Y-97042380D02*
X149001904Y-96042380D01*
X149382857Y-96042380D01*
X149478095Y-96090000D01*
X149525714Y-96137619D01*
X149573333Y-96232857D01*
X149573333Y-96375714D01*
X149525714Y-96470952D01*
X149478095Y-96518571D01*
X149382857Y-96566190D01*
X149001904Y-96566190D01*
X150430476Y-96042380D02*
X150240000Y-96042380D01*
X150144761Y-96090000D01*
X150097142Y-96137619D01*
X150001904Y-96280476D01*
X149954285Y-96470952D01*
X149954285Y-96851904D01*
X150001904Y-96947142D01*
X150049523Y-96994761D01*
X150144761Y-97042380D01*
X150335238Y-97042380D01*
X150430476Y-96994761D01*
X150478095Y-96947142D01*
X150525714Y-96851904D01*
X150525714Y-96613809D01*
X150478095Y-96518571D01*
X150430476Y-96470952D01*
X150335238Y-96423333D01*
X150144761Y-96423333D01*
X150049523Y-96470952D01*
X150001904Y-96518571D01*
X149954285Y-96613809D01*
%TO.C,C7*%
X149573333Y-99047142D02*
X149525714Y-99094761D01*
X149382857Y-99142380D01*
X149287619Y-99142380D01*
X149144761Y-99094761D01*
X149049523Y-98999523D01*
X149001904Y-98904285D01*
X148954285Y-98713809D01*
X148954285Y-98570952D01*
X149001904Y-98380476D01*
X149049523Y-98285238D01*
X149144761Y-98190000D01*
X149287619Y-98142380D01*
X149382857Y-98142380D01*
X149525714Y-98190000D01*
X149573333Y-98237619D01*
X149906666Y-98142380D02*
X150573333Y-98142380D01*
X150144761Y-99142380D01*
%TO.C,C6*%
X133573333Y-96947142D02*
X133525714Y-96994761D01*
X133382857Y-97042380D01*
X133287619Y-97042380D01*
X133144761Y-96994761D01*
X133049523Y-96899523D01*
X133001904Y-96804285D01*
X132954285Y-96613809D01*
X132954285Y-96470952D01*
X133001904Y-96280476D01*
X133049523Y-96185238D01*
X133144761Y-96090000D01*
X133287619Y-96042380D01*
X133382857Y-96042380D01*
X133525714Y-96090000D01*
X133573333Y-96137619D01*
X134430476Y-96042380D02*
X134240000Y-96042380D01*
X134144761Y-96090000D01*
X134097142Y-96137619D01*
X134001904Y-96280476D01*
X133954285Y-96470952D01*
X133954285Y-96851904D01*
X134001904Y-96947142D01*
X134049523Y-96994761D01*
X134144761Y-97042380D01*
X134335238Y-97042380D01*
X134430476Y-96994761D01*
X134478095Y-96947142D01*
X134525714Y-96851904D01*
X134525714Y-96613809D01*
X134478095Y-96518571D01*
X134430476Y-96470952D01*
X134335238Y-96423333D01*
X134144761Y-96423333D01*
X134049523Y-96470952D01*
X134001904Y-96518571D01*
X133954285Y-96613809D01*
%TO.C,C1*%
X133573333Y-99047142D02*
X133525714Y-99094761D01*
X133382857Y-99142380D01*
X133287619Y-99142380D01*
X133144761Y-99094761D01*
X133049523Y-98999523D01*
X133001904Y-98904285D01*
X132954285Y-98713809D01*
X132954285Y-98570952D01*
X133001904Y-98380476D01*
X133049523Y-98285238D01*
X133144761Y-98190000D01*
X133287619Y-98142380D01*
X133382857Y-98142380D01*
X133525714Y-98190000D01*
X133573333Y-98237619D01*
X134525714Y-99142380D02*
X133954285Y-99142380D01*
X134240000Y-99142380D02*
X134240000Y-98142380D01*
X134144761Y-98285238D01*
X134049523Y-98380476D01*
X133954285Y-98428095D01*
%TO.C,C2*%
X151873333Y-83847142D02*
X151825714Y-83894761D01*
X151682857Y-83942380D01*
X151587619Y-83942380D01*
X151444761Y-83894761D01*
X151349523Y-83799523D01*
X151301904Y-83704285D01*
X151254285Y-83513809D01*
X151254285Y-83370952D01*
X151301904Y-83180476D01*
X151349523Y-83085238D01*
X151444761Y-82990000D01*
X151587619Y-82942380D01*
X151682857Y-82942380D01*
X151825714Y-82990000D01*
X151873333Y-83037619D01*
X152254285Y-83037619D02*
X152301904Y-82990000D01*
X152397142Y-82942380D01*
X152635238Y-82942380D01*
X152730476Y-82990000D01*
X152778095Y-83037619D01*
X152825714Y-83132857D01*
X152825714Y-83228095D01*
X152778095Y-83370952D01*
X152206666Y-83942380D01*
X152825714Y-83942380D01*
%TO.C,C5*%
X147973333Y-80447142D02*
X147925714Y-80494761D01*
X147782857Y-80542380D01*
X147687619Y-80542380D01*
X147544761Y-80494761D01*
X147449523Y-80399523D01*
X147401904Y-80304285D01*
X147354285Y-80113809D01*
X147354285Y-79970952D01*
X147401904Y-79780476D01*
X147449523Y-79685238D01*
X147544761Y-79590000D01*
X147687619Y-79542380D01*
X147782857Y-79542380D01*
X147925714Y-79590000D01*
X147973333Y-79637619D01*
X148878095Y-79542380D02*
X148401904Y-79542380D01*
X148354285Y-80018571D01*
X148401904Y-79970952D01*
X148497142Y-79923333D01*
X148735238Y-79923333D01*
X148830476Y-79970952D01*
X148878095Y-80018571D01*
X148925714Y-80113809D01*
X148925714Y-80351904D01*
X148878095Y-80447142D01*
X148830476Y-80494761D01*
X148735238Y-80542380D01*
X148497142Y-80542380D01*
X148401904Y-80494761D01*
X148354285Y-80447142D01*
%TO.C,R5*%
X142773333Y-83742380D02*
X142440000Y-83266190D01*
X142201904Y-83742380D02*
X142201904Y-82742380D01*
X142582857Y-82742380D01*
X142678095Y-82790000D01*
X142725714Y-82837619D01*
X142773333Y-82932857D01*
X142773333Y-83075714D01*
X142725714Y-83170952D01*
X142678095Y-83218571D01*
X142582857Y-83266190D01*
X142201904Y-83266190D01*
X143678095Y-82742380D02*
X143201904Y-82742380D01*
X143154285Y-83218571D01*
X143201904Y-83170952D01*
X143297142Y-83123333D01*
X143535238Y-83123333D01*
X143630476Y-83170952D01*
X143678095Y-83218571D01*
X143725714Y-83313809D01*
X143725714Y-83551904D01*
X143678095Y-83647142D01*
X143630476Y-83694761D01*
X143535238Y-83742380D01*
X143297142Y-83742380D01*
X143201904Y-83694761D01*
X143154285Y-83647142D01*
%TO.C,R4*%
X139973333Y-99142380D02*
X139640000Y-98666190D01*
X139401904Y-99142380D02*
X139401904Y-98142380D01*
X139782857Y-98142380D01*
X139878095Y-98190000D01*
X139925714Y-98237619D01*
X139973333Y-98332857D01*
X139973333Y-98475714D01*
X139925714Y-98570952D01*
X139878095Y-98618571D01*
X139782857Y-98666190D01*
X139401904Y-98666190D01*
X140830476Y-98475714D02*
X140830476Y-99142380D01*
X140592380Y-98094761D02*
X140354285Y-98809047D01*
X140973333Y-98809047D01*
%TO.C,R3*%
X139973333Y-97042380D02*
X139640000Y-96566190D01*
X139401904Y-97042380D02*
X139401904Y-96042380D01*
X139782857Y-96042380D01*
X139878095Y-96090000D01*
X139925714Y-96137619D01*
X139973333Y-96232857D01*
X139973333Y-96375714D01*
X139925714Y-96470952D01*
X139878095Y-96518571D01*
X139782857Y-96566190D01*
X139401904Y-96566190D01*
X140306666Y-96042380D02*
X140925714Y-96042380D01*
X140592380Y-96423333D01*
X140735238Y-96423333D01*
X140830476Y-96470952D01*
X140878095Y-96518571D01*
X140925714Y-96613809D01*
X140925714Y-96851904D01*
X140878095Y-96947142D01*
X140830476Y-96994761D01*
X140735238Y-97042380D01*
X140449523Y-97042380D01*
X140354285Y-96994761D01*
X140306666Y-96947142D01*
%TO.C,R2*%
X133473333Y-85242380D02*
X133140000Y-84766190D01*
X132901904Y-85242380D02*
X132901904Y-84242380D01*
X133282857Y-84242380D01*
X133378095Y-84290000D01*
X133425714Y-84337619D01*
X133473333Y-84432857D01*
X133473333Y-84575714D01*
X133425714Y-84670952D01*
X133378095Y-84718571D01*
X133282857Y-84766190D01*
X132901904Y-84766190D01*
X133854285Y-84337619D02*
X133901904Y-84290000D01*
X133997142Y-84242380D01*
X134235238Y-84242380D01*
X134330476Y-84290000D01*
X134378095Y-84337619D01*
X134425714Y-84432857D01*
X134425714Y-84528095D01*
X134378095Y-84670952D01*
X133806666Y-85242380D01*
X134425714Y-85242380D01*
%TO.C,R1*%
X133473333Y-83142380D02*
X133140000Y-82666190D01*
X132901904Y-83142380D02*
X132901904Y-82142380D01*
X133282857Y-82142380D01*
X133378095Y-82190000D01*
X133425714Y-82237619D01*
X133473333Y-82332857D01*
X133473333Y-82475714D01*
X133425714Y-82570952D01*
X133378095Y-82618571D01*
X133282857Y-82666190D01*
X132901904Y-82666190D01*
X134425714Y-83142380D02*
X133854285Y-83142380D01*
X134140000Y-83142380D02*
X134140000Y-82142380D01*
X134044761Y-82285238D01*
X133949523Y-82380476D01*
X133854285Y-82428095D01*
%TO.C,C4*%
X136773333Y-97447142D02*
X136725714Y-97494761D01*
X136582857Y-97542380D01*
X136487619Y-97542380D01*
X136344761Y-97494761D01*
X136249523Y-97399523D01*
X136201904Y-97304285D01*
X136154285Y-97113809D01*
X136154285Y-96970952D01*
X136201904Y-96780476D01*
X136249523Y-96685238D01*
X136344761Y-96590000D01*
X136487619Y-96542380D01*
X136582857Y-96542380D01*
X136725714Y-96590000D01*
X136773333Y-96637619D01*
X137630476Y-96875714D02*
X137630476Y-97542380D01*
X137392380Y-96494761D02*
X137154285Y-97209047D01*
X137773333Y-97209047D01*
%TO.C,C3*%
X146773333Y-83647142D02*
X146725714Y-83694761D01*
X146582857Y-83742380D01*
X146487619Y-83742380D01*
X146344761Y-83694761D01*
X146249523Y-83599523D01*
X146201904Y-83504285D01*
X146154285Y-83313809D01*
X146154285Y-83170952D01*
X146201904Y-82980476D01*
X146249523Y-82885238D01*
X146344761Y-82790000D01*
X146487619Y-82742380D01*
X146582857Y-82742380D01*
X146725714Y-82790000D01*
X146773333Y-82837619D01*
X147106666Y-82742380D02*
X147725714Y-82742380D01*
X147392380Y-83123333D01*
X147535238Y-83123333D01*
X147630476Y-83170952D01*
X147678095Y-83218571D01*
X147725714Y-83313809D01*
X147725714Y-83551904D01*
X147678095Y-83647142D01*
X147630476Y-83694761D01*
X147535238Y-83742380D01*
X147249523Y-83742380D01*
X147154285Y-83694761D01*
X147106666Y-83647142D01*
%TD*%
M02*
