%TF.GenerationSoftware,KiCad,Pcbnew,7.0.1*%
%TF.CreationDate,2023-03-20T19:36:53+01:00*%
%TF.ProjectId,LoRaProMini,4c6f5261-5072-46f4-9d69-6e692e6b6963,3.2*%
%TF.SameCoordinates,Original*%
%TF.FileFunction,Soldermask,Bot*%
%TF.FilePolarity,Negative*%
%FSLAX46Y46*%
G04 Gerber Fmt 4.6, Leading zero omitted, Abs format (unit mm)*
G04 Created by KiCad (PCBNEW 7.0.1) date 2023-03-20 19:36:53*
%MOMM*%
%LPD*%
G01*
G04 APERTURE LIST*
G04 Aperture macros list*
%AMRoundRect*
0 Rectangle with rounded corners*
0 $1 Rounding radius*
0 $2 $3 $4 $5 $6 $7 $8 $9 X,Y pos of 4 corners*
0 Add a 4 corners polygon primitive as box body*
4,1,4,$2,$3,$4,$5,$6,$7,$8,$9,$2,$3,0*
0 Add four circle primitives for the rounded corners*
1,1,$1+$1,$2,$3*
1,1,$1+$1,$4,$5*
1,1,$1+$1,$6,$7*
1,1,$1+$1,$8,$9*
0 Add four rect primitives between the rounded corners*
20,1,$1+$1,$2,$3,$4,$5,0*
20,1,$1+$1,$4,$5,$6,$7,0*
20,1,$1+$1,$6,$7,$8,$9,0*
20,1,$1+$1,$8,$9,$2,$3,0*%
%AMFreePoly0*
4,1,6,1.000000,0.000000,0.500000,-0.750000,-0.500000,-0.750000,-0.500000,0.750000,0.500000,0.750000,1.000000,0.000000,1.000000,0.000000,$1*%
%AMFreePoly1*
4,1,6,0.500000,-0.750000,-0.650000,-0.750000,-0.150000,0.000000,-0.650000,0.750000,0.500000,0.750000,0.500000,-0.750000,0.500000,-0.750000,$1*%
G04 Aperture macros list end*
%ADD10C,1.600000*%
%ADD11R,6.000000X2.500000*%
%ADD12C,2.500000*%
%ADD13RoundRect,0.250000X-0.625000X0.350000X-0.625000X-0.350000X0.625000X-0.350000X0.625000X0.350000X0*%
%ADD14O,1.750000X1.200000*%
%ADD15R,1.700000X1.700000*%
%ADD16O,1.700000X1.700000*%
%ADD17C,1.700000*%
%ADD18FreePoly0,0.000000*%
%ADD19FreePoly1,0.000000*%
G04 APERTURE END LIST*
D10*
%TO.C,AE1*%
X106449000Y-90690000D03*
D11*
X103440000Y-93692000D03*
X103440000Y-87692000D03*
%TD*%
D12*
%TO.C,REF\u002A\u002A*%
X101940000Y-101190000D03*
%TD*%
%TO.C,REF\u002A\u002A*%
X101940000Y-80190000D03*
%TD*%
D13*
%TO.C,J2*%
X167040000Y-92290000D03*
D14*
X167040000Y-94290000D03*
X167040000Y-96290000D03*
%TD*%
D13*
%TO.C,J1*%
X167040000Y-85090000D03*
D14*
X167040000Y-87090000D03*
%TD*%
D15*
%TO.C,J4*%
X154440000Y-95770000D03*
D16*
X154440000Y-93230000D03*
X154440000Y-90690000D03*
X154440000Y-88150000D03*
X154440000Y-85610000D03*
%TD*%
D12*
%TO.C,REF\u002A\u002A*%
X167940000Y-80190000D03*
%TD*%
%TO.C,REF\u002A\u002A*%
X167940000Y-101190000D03*
%TD*%
D13*
%TO.C,J7*%
X160040000Y-99190000D03*
D14*
X160040000Y-101190000D03*
%TD*%
D13*
%TO.C,J8*%
X160040000Y-91690000D03*
D14*
X160040000Y-93690000D03*
%TD*%
D17*
%TO.C,J5*%
X131440000Y-79190000D03*
D16*
X133980000Y-79190000D03*
X136520000Y-79190000D03*
X139060000Y-79190000D03*
X141600000Y-79190000D03*
%TD*%
D17*
%TO.C,J6*%
X131440000Y-102190000D03*
D16*
X133980000Y-102190000D03*
X136520000Y-102190000D03*
X139060000Y-102190000D03*
X141600000Y-102190000D03*
X144140000Y-102190000D03*
X146680000Y-102190000D03*
X149220000Y-102190000D03*
%TD*%
D13*
%TO.C,J3*%
X160040000Y-80190000D03*
D14*
X160040000Y-82190000D03*
X160040000Y-84190000D03*
X160040000Y-86190000D03*
%TD*%
D18*
%TO.C,JP1*%
X124840000Y-101870000D03*
D19*
X126290000Y-101870000D03*
%TD*%
M02*
